<?xml version="1.0" encoding="UTF-8" standalone="no"?>
<!DOCTYPE svg PUBLIC "-//W3C//DTD SVG 1.1//EN"
 "http://www.w3.org/Graphics/SVG/1.1/DTD/svg11.dtd">
<!-- Generated by graphviz version 2.43.0 (0)
 -->
<!-- Title: LogData_MRAC Pages: 1 -->
<svg width="997pt" height="760pt"
 viewBox="0.00 0.00 997.00 760.00" xmlns="http://www.w3.org/2000/svg" xmlns:xlink="http://www.w3.org/1999/xlink">
<g id="graph0" class="graph" transform="scale(1 1) rotate(0) translate(4 756)">
<title>LogData_MRAC</title>
<polygon fill="white" stroke="transparent" points="-4,4 -4,-756 993,-756 993,4 -4,4"/>
<!-- Node1 -->
<g id="node1" class="node">
<title>Node1</title>
<g id="a_node1"><a xlink:title="Forward decleration of LogData_MRAC class.">
<polygon fill="#bfbfbf" stroke="black" points="897,-80.5 897,-99.5 989,-99.5 989,-80.5 897,-80.5"/>
<text text-anchor="middle" x="943" y="-87.5" font-family="Helvetica,sans-Serif" font-size="10.00">LogData_MRAC</text>
</a>
</g>
</g>
<!-- Node2 -->
<g id="node2" class="node">
<title>Node2</title>
<g id="a_node2"><a xlink:href="classMRAC.html" target="_top" xlink:title=" ">
<polygon fill="white" stroke="black" points="760,-293.5 760,-312.5 806,-312.5 806,-293.5 760,-293.5"/>
<text text-anchor="middle" x="783" y="-300.5" font-family="Helvetica,sans-Serif" font-size="10.00">MRAC</text>
</a>
</g>
</g>
<!-- Node2&#45;&gt;Node1 -->
<g id="edge1" class="edge">
<title>Node2&#45;&gt;Node1</title>
<path fill="none" stroke="#9a32cd" stroke-dasharray="5,2" d="M797.26,-285.13C829.3,-241.93 910.12,-132.98 934.76,-99.76"/>
<polygon fill="#9a32cd" stroke="#9a32cd" points="794.35,-283.18 791.2,-293.29 799.97,-287.35 794.35,-283.18"/>
<text text-anchor="middle" x="851.5" y="-249" font-family="Helvetica,sans-Serif" font-size="10.00"> controller_</text>
</g>
<!-- Node3 -->
<g id="node3" class="node">
<title>Node3</title>
<g id="a_node3"><a xlink:href="classControl.html" target="_top" xlink:title="Control class.">
<polygon fill="white" stroke="black" points="601.5,-165.5 601.5,-184.5 653.5,-184.5 653.5,-165.5 601.5,-165.5"/>
<text text-anchor="middle" x="627.5" y="-172.5" font-family="Helvetica,sans-Serif" font-size="10.00">Control</text>
</a>
</g>
</g>
<!-- Node3&#45;&gt;Node2 -->
<g id="edge2" class="edge">
<title>Node3&#45;&gt;Node2</title>
<path fill="none" stroke="midnightblue" d="M647.89,-191.17C680.2,-218.11 744.09,-271.38 770.33,-293.27"/>
<polygon fill="midnightblue" stroke="midnightblue" points="649.96,-188.34 640.04,-184.62 645.48,-193.71 649.96,-188.34"/>
</g>
<!-- Node4 -->
<g id="node4" class="node">
<title>Node4</title>
<g id="a_node4"><a xlink:href="structControl_1_1ControlInternalMembers.html" target="_top" xlink:title="This struct contains the variables that are commmon among all controllers as they are the foundations...">
<polygon fill="white" stroke="black" points="315.5,-204 315.5,-234 446.5,-234 446.5,-204 315.5,-204"/>
<text text-anchor="start" x="323.5" y="-222" font-family="Helvetica,sans-Serif" font-size="10.00">Control::ControlInternal</text>
<text text-anchor="middle" x="381" y="-211" font-family="Helvetica,sans-Serif" font-size="10.00">Members</text>
</a>
</g>
</g>
<!-- Node4&#45;&gt;Node3 -->
<g id="edge3" class="edge">
<title>Node4&#45;&gt;Node3</title>
<path fill="none" stroke="#9a32cd" stroke-dasharray="5,2" d="M456.89,-206.04C485.14,-201.1 517.57,-195.36 547,-190 565.24,-186.68 585.81,-182.79 601.45,-179.81"/>
<polygon fill="#9a32cd" stroke="#9a32cd" points="455.93,-202.66 446.68,-207.82 457.14,-209.55 455.93,-202.66"/>
<text text-anchor="middle" x="510" y="-206" font-family="Helvetica,sans-Serif" font-size="10.00"> cim</text>
</g>
<!-- Node5 -->
<g id="node5" class="node">
<title>Node5</title>
<g id="a_node5"><a xlink:title=" ">
<polygon fill="white" stroke="#bfbfbf" points="39,-280.5 39,-299.5 98,-299.5 98,-280.5 39,-280.5"/>
<text text-anchor="middle" x="68.5" y="-287.5" font-family="Helvetica,sans-Serif" font-size="10.00">Vector3d</text>
</a>
</g>
</g>
<!-- Node5&#45;&gt;Node4 -->
<g id="edge4" class="edge">
<title>Node5&#45;&gt;Node4</title>
<path fill="none" stroke="#9a32cd" stroke-dasharray="5,2" d="M80.76,-271.8C95.03,-250.66 121.83,-216.91 155,-203 213.14,-178.62 287.15,-191.23 334.06,-203.95"/>
<polygon fill="#9a32cd" stroke="#9a32cd" points="77.78,-269.96 75.26,-280.26 83.65,-273.78 77.78,-269.96"/>
<text text-anchor="middle" x="222" y="-349" font-family="Helvetica,sans-Serif" font-size="10.00"> angular_error</text>
<text text-anchor="start" x="180" y="-338" font-family="Helvetica,sans-Serif" font-size="10.00">angular_position</text>
<text text-anchor="middle" x="222" y="-327" font-family="Helvetica,sans-Serif" font-size="10.00">_desired</text>
<text text-anchor="start" x="180" y="-316" font-family="Helvetica,sans-Serif" font-size="10.00">angular_position</text>
<text text-anchor="middle" x="222" y="-305" font-family="Helvetica,sans-Serif" font-size="10.00">_desired_dot</text>
<text text-anchor="start" x="180" y="-294" font-family="Helvetica,sans-Serif" font-size="10.00">angular_position</text>
<text text-anchor="middle" x="222" y="-283" font-family="Helvetica,sans-Serif" font-size="10.00">_desired_dot_dot</text>
<text text-anchor="start" x="180" y="-272" font-family="Helvetica,sans-Serif" font-size="10.00">euler_angles_rpy</text>
<text text-anchor="middle" x="222" y="-261" font-family="Helvetica,sans-Serif" font-size="10.00">_dot</text>
<text text-anchor="middle" x="222" y="-250" font-family="Helvetica,sans-Serif" font-size="10.00">mu_translational</text>
<text text-anchor="start" x="180" y="-239" font-family="Helvetica,sans-Serif" font-size="10.00">mu_translational</text>
<text text-anchor="middle" x="222" y="-228" font-family="Helvetica,sans-Serif" font-size="10.00">_raw</text>
<text text-anchor="start" x="180" y="-217" font-family="Helvetica,sans-Serif" font-size="10.00">translational</text>
<text text-anchor="middle" x="222" y="-206" font-family="Helvetica,sans-Serif" font-size="10.00">_position_error</text>
</g>
<!-- Node14 -->
<g id="node14" class="node">
<title>Node14</title>
<g id="a_node14"><a xlink:href="structMRAC_1_1ControllerSpecificInternalMembers.html" target="_top" xlink:title="This struct contains the variables that are used in this particular controller.">
<polygon fill="white" stroke="black" points="312.5,-364 312.5,-394 449.5,-394 449.5,-364 312.5,-364"/>
<text text-anchor="start" x="320.5" y="-382" font-family="Helvetica,sans-Serif" font-size="10.00">MRAC::ControllerSpecific</text>
<text text-anchor="middle" x="381" y="-371" font-family="Helvetica,sans-Serif" font-size="10.00">InternalMembers</text>
</a>
</g>
</g>
<!-- Node5&#45;&gt;Node14 -->
<g id="edge14" class="edge">
<title>Node5&#45;&gt;Node14</title>
<path fill="none" stroke="#9a32cd" stroke-dasharray="5,2" d="M85.73,-307.46C101.69,-323.37 127.57,-346.01 155,-357 182.69,-368.09 256.82,-373.77 312.48,-376.55"/>
<polygon fill="#9a32cd" stroke="#9a32cd" points="87.82,-304.59 78.34,-299.86 82.8,-309.47 87.82,-304.59"/>
<text text-anchor="start" x="155" y="-510" font-family="Helvetica,sans-Serif" font-size="10.00"> angular_velocity_error</text>
<text text-anchor="middle" x="222" y="-499" font-family="Helvetica,sans-Serif" font-size="10.00">_ref</text>
<text text-anchor="middle" x="222" y="-488" font-family="Helvetica,sans-Serif" font-size="10.00">inner_loop_D</text>
<text text-anchor="middle" x="222" y="-477" font-family="Helvetica,sans-Serif" font-size="10.00">inner_loop_I</text>
<text text-anchor="middle" x="222" y="-466" font-family="Helvetica,sans-Serif" font-size="10.00">inner_loop_P</text>
<text text-anchor="start" x="155" y="-455" font-family="Helvetica,sans-Serif" font-size="10.00">inner_loop_dynamic</text>
<text text-anchor="middle" x="222" y="-444" font-family="Helvetica,sans-Serif" font-size="10.00">_inversion</text>
<text text-anchor="middle" x="222" y="-433" font-family="Helvetica,sans-Serif" font-size="10.00">omega_cmd_dot_rotational</text>
<text text-anchor="middle" x="222" y="-422" font-family="Helvetica,sans-Serif" font-size="10.00">omega_cmd_rotational</text>
<text text-anchor="middle" x="222" y="-411" font-family="Helvetica,sans-Serif" font-size="10.00">omega_ref_dot_rotational</text>
<text text-anchor="middle" x="222" y="-400" font-family="Helvetica,sans-Serif" font-size="10.00">outer_loop_D</text>
<text text-anchor="middle" x="222" y="-389" font-family="Helvetica,sans-Serif" font-size="10.00">outer_loop_I</text>
<text text-anchor="middle" x="222" y="-378" font-family="Helvetica,sans-Serif" font-size="10.00">...</text>
</g>
<!-- Node6 -->
<g id="node6" class="node">
<title>Node6</title>
<g id="a_node6"><a xlink:title=" ">
<polygon fill="white" stroke="#bfbfbf" points="38.5,-591.5 38.5,-610.5 98.5,-610.5 98.5,-591.5 38.5,-591.5"/>
<text text-anchor="middle" x="68.5" y="-598.5" font-family="Helvetica,sans-Serif" font-size="10.00">Matrix3d</text>
</a>
</g>
</g>
<!-- Node6&#45;&gt;Node4 -->
<g id="edge5" class="edge">
<title>Node6&#45;&gt;Node4</title>
<path fill="none" stroke="#9a32cd" stroke-dasharray="5,2" d="M87.6,-584.8C104,-571.09 129.43,-552.1 155,-542 211.01,-519.88 247.3,-565.44 289,-522 314.85,-495.07 295.97,-390.66 307,-355 321.57,-307.89 352.91,-258.25 369.38,-234.04"/>
<polygon fill="#9a32cd" stroke="#9a32cd" points="85.21,-582.25 79.9,-591.42 89.77,-587.56 85.21,-582.25"/>
<text text-anchor="middle" x="222" y="-567" font-family="Helvetica,sans-Serif" font-size="10.00"> jacobian_matrix_inverse</text>
<text text-anchor="start" x="160" y="-556" font-family="Helvetica,sans-Serif" font-size="10.00">rotation_matrix_321</text>
<text text-anchor="middle" x="222" y="-545" font-family="Helvetica,sans-Serif" font-size="10.00">_global_to_local</text>
</g>
<!-- Node6&#45;&gt;Node14 -->
<g id="edge15" class="edge">
<title>Node6&#45;&gt;Node14</title>
<path fill="none" stroke="#9a32cd" stroke-dasharray="5,2" d="M108.73,-601.64C163.95,-601.8 261,-599.07 289,-579 352.56,-533.44 372.68,-432.6 378.17,-394.23"/>
<polygon fill="#9a32cd" stroke="#9a32cd" points="108.63,-598.14 98.6,-601.58 108.58,-605.14 108.63,-598.14"/>
<text text-anchor="middle" x="222" y="-614" font-family="Helvetica,sans-Serif" font-size="10.00"> jacobian_matrix</text>
<text text-anchor="middle" x="222" y="-603" font-family="Helvetica,sans-Serif" font-size="10.00">jacobian_matrix_dot</text>
</g>
<!-- Node16 -->
<g id="node16" class="node">
<title>Node16</title>
<g id="a_node16"><a xlink:href="structGainsMRAC.html" target="_top" xlink:title="struct containing the MRAC tuning gains coming from the .json file">
<polygon fill="white" stroke="black" points="473,-488.5 473,-507.5 547,-507.5 547,-488.5 473,-488.5"/>
<text text-anchor="middle" x="510" y="-495.5" font-family="Helvetica,sans-Serif" font-size="10.00">GainsMRAC</text>
</a>
</g>
</g>
<!-- Node6&#45;&gt;Node16 -->
<g id="edge18" class="edge">
<title>Node6&#45;&gt;Node16</title>
<path fill="none" stroke="#9a32cd" stroke-dasharray="5,2" d="M108.23,-613.37C152.6,-625.65 227.17,-640.45 289,-624 377.05,-600.57 466.55,-532.65 497.58,-507.51"/>
<polygon fill="#9a32cd" stroke="#9a32cd" points="109,-609.96 98.43,-610.57 107.08,-616.69 109,-609.96"/>
<text text-anchor="middle" x="222" y="-744" font-family="Helvetica,sans-Serif" font-size="10.00"> KD_refmod_translational</text>
<text text-anchor="middle" x="222" y="-733" font-family="Helvetica,sans-Serif" font-size="10.00">KD_rotational</text>
<text text-anchor="middle" x="222" y="-722" font-family="Helvetica,sans-Serif" font-size="10.00">KD_translational</text>
<text text-anchor="middle" x="222" y="-711" font-family="Helvetica,sans-Serif" font-size="10.00">KI_omega_cmd_rotational</text>
<text text-anchor="middle" x="222" y="-700" font-family="Helvetica,sans-Serif" font-size="10.00">KI_omega_ref_rotational</text>
<text text-anchor="middle" x="222" y="-689" font-family="Helvetica,sans-Serif" font-size="10.00">KI_refmod_translational</text>
<text text-anchor="middle" x="222" y="-678" font-family="Helvetica,sans-Serif" font-size="10.00">KI_rotational</text>
<text text-anchor="middle" x="222" y="-667" font-family="Helvetica,sans-Serif" font-size="10.00">KI_translational</text>
<text text-anchor="middle" x="222" y="-656" font-family="Helvetica,sans-Serif" font-size="10.00">KP_omega_cmd_rotational</text>
<text text-anchor="middle" x="222" y="-645" font-family="Helvetica,sans-Serif" font-size="10.00">KP_omega_ref_rotational</text>
<text text-anchor="middle" x="222" y="-634" font-family="Helvetica,sans-Serif" font-size="10.00">...</text>
</g>
<!-- Node7 -->
<g id="node7" class="node">
<title>Node7</title>
<g id="a_node7"><a xlink:href="structControl_1_1ControlReferences.html" target="_top" xlink:title="Struct that encapsulates references to external variables to be used inside the computeControlAlgorit...">
<polygon fill="white" stroke="black" points="307,-165.5 307,-184.5 455,-184.5 455,-165.5 307,-165.5"/>
<text text-anchor="middle" x="381" y="-172.5" font-family="Helvetica,sans-Serif" font-size="10.00">Control::ControlReferences</text>
</a>
</g>
</g>
<!-- Node7&#45;&gt;Node3 -->
<g id="edge6" class="edge">
<title>Node7&#45;&gt;Node3</title>
<path fill="none" stroke="#9a32cd" stroke-dasharray="5,2" d="M465.05,-175C512.73,-175 569.3,-175 601.24,-175"/>
<polygon fill="#9a32cd" stroke="#9a32cd" points="465.03,-171.5 455.03,-175 465.03,-178.5 465.03,-171.5"/>
<text text-anchor="middle" x="510" y="-178" font-family="Helvetica,sans-Serif" font-size="10.00"> cr</text>
</g>
<!-- Node8 -->
<g id="node8" class="node">
<title>Node8</title>
<g id="a_node8"><a xlink:href="structVehicleInfo.html" target="_top" xlink:title="Vehicle Info.">
<polygon fill="white" stroke="black" points="345.5,-120.5 345.5,-139.5 416.5,-139.5 416.5,-120.5 345.5,-120.5"/>
<text text-anchor="middle" x="381" y="-127.5" font-family="Helvetica,sans-Serif" font-size="10.00">VehicleInfo</text>
</a>
</g>
</g>
<!-- Node8&#45;&gt;Node3 -->
<g id="edge7" class="edge">
<title>Node8&#45;&gt;Node3</title>
<path fill="none" stroke="#9a32cd" stroke-dasharray="5,2" d="M426.64,-138.03C459.84,-144.03 506.27,-152.45 547,-160 565.23,-163.38 585.8,-167.26 601.44,-170.23"/>
<polygon fill="#9a32cd" stroke="#9a32cd" points="427.24,-134.59 416.78,-136.25 426,-141.47 427.24,-134.59"/>
<text text-anchor="middle" x="510" y="-163" font-family="Helvetica,sans-Serif" font-size="10.00"> vehicle_info</text>
</g>
<!-- Node9 -->
<g id="node9" class="node">
<title>Node9</title>
<g id="a_node9"><a xlink:title=" ">
<polygon fill="white" stroke="#bfbfbf" points="38.5,-114.5 38.5,-133.5 98.5,-133.5 98.5,-114.5 38.5,-114.5"/>
<text text-anchor="middle" x="68.5" y="-121.5" font-family="Helvetica,sans-Serif" font-size="10.00">Matrix2d</text>
</a>
</g>
</g>
<!-- Node9&#45;&gt;Node8 -->
<g id="edge8" class="edge">
<title>Node9&#45;&gt;Node8</title>
<path fill="none" stroke="#9a32cd" stroke-dasharray="5,2" d="M108.87,-123.58C152.81,-123.26 226.01,-123.13 289,-125 307.66,-125.55 328.45,-126.66 345.45,-127.69"/>
<polygon fill="#9a32cd" stroke="#9a32cd" points="108.59,-120.09 98.62,-123.67 108.65,-127.08 108.59,-120.09"/>
<text text-anchor="middle" x="222" y="-172" font-family="Helvetica,sans-Serif" font-size="10.00"> A_filter_pitch_des</text>
<text text-anchor="start" x="172" y="-161" font-family="Helvetica,sans-Serif" font-size="10.00">A_filter_pitch_dot</text>
<text text-anchor="middle" x="222" y="-150" font-family="Helvetica,sans-Serif" font-size="10.00">_des</text>
<text text-anchor="middle" x="222" y="-139" font-family="Helvetica,sans-Serif" font-size="10.00">A_filter_roll_des</text>
<text text-anchor="middle" x="222" y="-128" font-family="Helvetica,sans-Serif" font-size="10.00">A_filter_roll_dot_des</text>
</g>
<!-- Node10 -->
<g id="node10" class="node">
<title>Node10</title>
<g id="a_node10"><a xlink:href="classMultiThreadedNode.html" target="_top" xlink:title="Multithreaded Node Class.">
<polygon fill="white" stroke="black" points="324.5,-64.5 324.5,-83.5 437.5,-83.5 437.5,-64.5 324.5,-64.5"/>
<text text-anchor="middle" x="381" y="-71.5" font-family="Helvetica,sans-Serif" font-size="10.00">MultiThreadedNode</text>
</a>
</g>
</g>
<!-- Node10&#45;&gt;Node1 -->
<g id="edge19" class="edge">
<title>Node10&#45;&gt;Node1</title>
<path fill="none" stroke="#9a32cd" stroke-dasharray="5,2" d="M447.83,-75.88C563,-79.17 798.14,-85.89 896.82,-88.71"/>
<polygon fill="#9a32cd" stroke="#9a32cd" points="447.84,-72.38 437.74,-75.59 447.64,-79.38 447.84,-72.38"/>
<text text-anchor="middle" x="725" y="-88" font-family="Helvetica,sans-Serif" font-size="10.00"> node_</text>
</g>
<!-- Node10&#45;&gt;Node3 -->
<g id="edge9" class="edge">
<title>Node10&#45;&gt;Node3</title>
<path fill="none" stroke="#9a32cd" stroke-dasharray="5,2" d="M423.45,-86.56C457.25,-97.28 505.94,-113.81 547,-132 569.67,-142.04 594.64,-156.07 610.43,-165.33"/>
<polygon fill="#9a32cd" stroke="#9a32cd" points="424.49,-83.22 413.9,-83.56 422.39,-89.9 424.49,-83.22"/>
<text text-anchor="middle" x="510" y="-135" font-family="Helvetica,sans-Serif" font-size="10.00"> node_</text>
</g>
<!-- Node11 -->
<g id="node11" class="node">
<title>Node11</title>
<g id="a_node11"><a xlink:title=" ">
<polygon fill="white" stroke="#bfbfbf" points="30,-76.5 30,-95.5 107,-95.5 107,-76.5 30,-76.5"/>
<text text-anchor="middle" x="68.5" y="-83.5" font-family="Helvetica,sans-Serif" font-size="10.00">rclcpp::Node</text>
</a>
</g>
</g>
<!-- Node11&#45;&gt;Node10 -->
<g id="edge10" class="edge">
<title>Node11&#45;&gt;Node10</title>
<path fill="none" stroke="midnightblue" d="M117.6,-84.14C173.49,-81.98 265.55,-78.42 324.44,-76.15"/>
<polygon fill="midnightblue" stroke="midnightblue" points="117.12,-80.66 107.26,-84.54 117.39,-87.65 117.12,-80.66"/>
</g>
<!-- Node12 -->
<g id="node12" class="node">
<title>Node12</title>
<g id="a_node12"><a xlink:href="structConfigurationParameters.html" target="_top" xlink:title="Configurations Parameters set from config.json.">
<polygon fill="white" stroke="black" points="0,-38.5 0,-57.5 137,-57.5 137,-38.5 0,-38.5"/>
<text text-anchor="middle" x="68.5" y="-45.5" font-family="Helvetica,sans-Serif" font-size="10.00">ConfigurationParameters</text>
</a>
</g>
</g>
<!-- Node12&#45;&gt;Node10 -->
<g id="edge11" class="edge">
<title>Node12&#45;&gt;Node10</title>
<path fill="none" stroke="#9a32cd" stroke-dasharray="5,2" d="M147.47,-52.34C189.45,-54.92 242.1,-58.57 289,-63 300.41,-64.08 312.6,-65.42 324.22,-66.79"/>
<polygon fill="#9a32cd" stroke="#9a32cd" points="147.5,-48.83 137.31,-51.72 147.08,-55.82 147.5,-48.83"/>
<text text-anchor="middle" x="222" y="-66" font-family="Helvetica,sans-Serif" font-size="10.00"> config_</text>
</g>
<!-- Node13 -->
<g id="node13" class="node">
<title>Node13</title>
<g id="a_node13"><a xlink:href="structGlobalParameters.html" target="_top" xlink:title="Global parameteres shared among all the program.">
<polygon fill="white" stroke="black" points="16.5,-0.5 16.5,-19.5 120.5,-19.5 120.5,-0.5 16.5,-0.5"/>
<text text-anchor="middle" x="68.5" y="-7.5" font-family="Helvetica,sans-Serif" font-size="10.00">GlobalParameters</text>
</a>
</g>
</g>
<!-- Node13&#45;&gt;Node10 -->
<g id="edge12" class="edge">
<title>Node13&#45;&gt;Node10</title>
<path fill="none" stroke="#9a32cd" stroke-dasharray="5,2" d="M130.78,-14.2C175.21,-18.19 236.47,-25.63 289,-39 313.77,-45.31 340.98,-56.35 359.13,-64.35"/>
<polygon fill="#9a32cd" stroke="#9a32cd" points="130.97,-10.71 120.71,-13.33 130.37,-17.68 130.97,-10.71"/>
<text text-anchor="middle" x="222" y="-42" font-family="Helvetica,sans-Serif" font-size="10.00"> global_params_</text>
</g>
<!-- Node14&#45;&gt;Node2 -->
<g id="edge13" class="edge">
<title>Node14&#45;&gt;Node2</title>
<path fill="none" stroke="#9a32cd" stroke-dasharray="5,2" d="M421.75,-359.65C458.08,-343.03 513.8,-320.19 565,-310 635.06,-296.06 720.3,-298.92 759.86,-301.35"/>
<polygon fill="#9a32cd" stroke="#9a32cd" points="420.09,-356.56 412.49,-363.94 423.04,-362.91 420.09,-356.56"/>
<text text-anchor="middle" x="627.5" y="-313" font-family="Helvetica,sans-Serif" font-size="10.00"> csim_</text>
</g>
<!-- Node15 -->
<g id="node15" class="node">
<title>Node15</title>
<g id="a_node15"><a xlink:href="structMRAC_1_1StateController.html" target="_top" xlink:title="This struct represents the state of the MRAC controller differential equations that will be integrate...">
<polygon fill="white" stroke="black" points="565,-379.5 565,-398.5 690,-398.5 690,-379.5 565,-379.5"/>
<text text-anchor="middle" x="627.5" y="-386.5" font-family="Helvetica,sans-Serif" font-size="10.00">MRAC::StateController</text>
</a>
</g>
</g>
<!-- Node15&#45;&gt;Node2 -->
<g id="edge16" class="edge">
<title>Node15&#45;&gt;Node2</title>
<path fill="none" stroke="#9a32cd" stroke-dasharray="5,2" d="M700.19,-381.96C714.9,-378.19 729.65,-372.51 742,-364 760.77,-351.06 772.92,-326.16 778.48,-312.52"/>
<polygon fill="#9a32cd" stroke="#9a32cd" points="699.01,-378.64 690.04,-384.28 700.57,-385.47 699.01,-378.64"/>
<text text-anchor="middle" x="725" y="-381" font-family="Helvetica,sans-Serif" font-size="10.00"> state_</text>
</g>
<!-- Node16&#45;&gt;Node2 -->
<g id="edge17" class="edge">
<title>Node16&#45;&gt;Node2</title>
<path fill="none" stroke="#9a32cd" stroke-dasharray="5,2" d="M512.98,-477.96C517.08,-447.57 529.34,-390.06 565,-359 625.96,-305.89 664.41,-339.72 742,-317 747.79,-315.3 753.97,-313.26 759.71,-311.26"/>
<polygon fill="#9a32cd" stroke="#9a32cd" points="509.47,-477.83 511.77,-488.17 516.42,-478.65 509.47,-477.83"/>
<text text-anchor="middle" x="627.5" y="-362" font-family="Helvetica,sans-Serif" font-size="10.00"> gains_</text>
</g>
</g>
</svg>
