<?xml version="1.0" encoding="UTF-8" standalone="no"?>
<!DOCTYPE svg PUBLIC "-//W3C//DTD SVG 1.1//EN"
 "http://www.w3.org/Graphics/SVG/1.1/DTD/svg11.dtd">
<!-- Generated by graphviz version 2.43.0 (0)
 -->
<!-- Title: LogData_PID Pages: 1 -->
<svg width="1037pt" height="623pt"
 viewBox="0.00 0.00 1037.00 623.00" xmlns="http://www.w3.org/2000/svg" xmlns:xlink="http://www.w3.org/1999/xlink">
<g id="graph0" class="graph" transform="scale(1 1) rotate(0) translate(4 619)">
<title>LogData_PID</title>
<polygon fill="white" stroke="transparent" points="-4,4 -4,-619 1033,-619 1033,4 -4,4"/>
<!-- Node1 -->
<g id="node1" class="node">
<title>Node1</title>
<g id="a_node1"><a xlink:title="Delclaration of the LogData_PID class.">
<polygon fill="#bfbfbf" stroke="black" points="950,-76.5 950,-95.5 1029,-95.5 1029,-76.5 950,-76.5"/>
<text text-anchor="middle" x="989.5" y="-83.5" font-family="Helvetica,sans-Serif" font-size="10.00">LogData_PID</text>
</a>
</g>
</g>
<!-- Node2 -->
<g id="node2" class="node">
<title>Node2</title>
<g id="a_node2"><a xlink:href="classPID.html" target="_top" xlink:title="PID.">
<polygon fill="white" stroke="black" points="826,-261.5 826,-280.5 859,-280.5 859,-261.5 826,-261.5"/>
<text text-anchor="middle" x="842.5" y="-268.5" font-family="Helvetica,sans-Serif" font-size="10.00">PID</text>
</a>
</g>
</g>
<!-- Node2&#45;&gt;Node1 -->
<g id="edge1" class="edge">
<title>Node2&#45;&gt;Node1</title>
<path fill="none" stroke="#9a32cd" stroke-dasharray="5,2" d="M857.53,-253.1C887.7,-214.6 957.89,-125.06 980.98,-95.59"/>
<polygon fill="#9a32cd" stroke="#9a32cd" points="854.51,-251.28 851.09,-261.31 860.02,-255.6 854.51,-251.28"/>
<text text-anchor="middle" x="904.5" y="-230" font-family="Helvetica,sans-Serif" font-size="10.00"> controller_</text>
</g>
<!-- Node3 -->
<g id="node3" class="node">
<title>Node3</title>
<g id="a_node3"><a xlink:href="classControl.html" target="_top" xlink:title="Control class.">
<polygon fill="white" stroke="black" points="673.5,-163.5 673.5,-182.5 725.5,-182.5 725.5,-163.5 673.5,-163.5"/>
<text text-anchor="middle" x="699.5" y="-170.5" font-family="Helvetica,sans-Serif" font-size="10.00">Control</text>
</a>
</g>
</g>
<!-- Node3&#45;&gt;Node2 -->
<g id="edge2" class="edge">
<title>Node3&#45;&gt;Node2</title>
<path fill="none" stroke="midnightblue" d="M722.64,-188.39C751.98,-208.78 802.9,-244.17 827.46,-261.24"/>
<polygon fill="midnightblue" stroke="midnightblue" points="724.49,-185.41 714.28,-182.58 720.49,-191.16 724.49,-185.41"/>
</g>
<!-- Node4 -->
<g id="node4" class="node">
<title>Node4</title>
<g id="a_node4"><a xlink:href="structControl_1_1ControlInternalMembers.html" target="_top" xlink:title="This struct contains the variables that are commmon among all controllers as they are the foundations...">
<polygon fill="white" stroke="black" points="305.5,-202 305.5,-232 436.5,-232 436.5,-202 305.5,-202"/>
<text text-anchor="start" x="313.5" y="-220" font-family="Helvetica,sans-Serif" font-size="10.00">Control::ControlInternal</text>
<text text-anchor="middle" x="371" y="-209" font-family="Helvetica,sans-Serif" font-size="10.00">Members</text>
</a>
</g>
</g>
<!-- Node4&#45;&gt;Node3 -->
<g id="edge3" class="edge">
<title>Node4&#45;&gt;Node3</title>
<path fill="none" stroke="#9a32cd" stroke-dasharray="5,2" d="M446.86,-210.15C497.34,-205.1 565.36,-197.49 625,-188 641.21,-185.42 659.26,-181.75 673.43,-178.68"/>
<polygon fill="#9a32cd" stroke="#9a32cd" points="446.29,-206.69 436.68,-211.15 446.98,-213.65 446.29,-206.69"/>
<text text-anchor="middle" x="544" y="-211" font-family="Helvetica,sans-Serif" font-size="10.00"> cim</text>
</g>
<!-- Node5 -->
<g id="node5" class="node">
<title>Node5</title>
<g id="a_node5"><a xlink:title=" ">
<polygon fill="white" stroke="#bfbfbf" points="39,-280.5 39,-299.5 98,-299.5 98,-280.5 39,-280.5"/>
<text text-anchor="middle" x="68.5" y="-287.5" font-family="Helvetica,sans-Serif" font-size="10.00">Vector3d</text>
</a>
</g>
</g>
<!-- Node5&#45;&gt;Node4 -->
<g id="edge4" class="edge">
<title>Node5&#45;&gt;Node4</title>
<path fill="none" stroke="#9a32cd" stroke-dasharray="5,2" d="M80.76,-271.8C95.03,-250.66 121.83,-216.91 155,-203 208.81,-180.44 276.88,-190.57 321.84,-201.93"/>
<polygon fill="#9a32cd" stroke="#9a32cd" points="77.78,-269.96 75.26,-280.26 83.65,-273.78 77.78,-269.96"/>
<text text-anchor="middle" x="217" y="-349" font-family="Helvetica,sans-Serif" font-size="10.00"> angular_error</text>
<text text-anchor="start" x="175" y="-338" font-family="Helvetica,sans-Serif" font-size="10.00">angular_position</text>
<text text-anchor="middle" x="217" y="-327" font-family="Helvetica,sans-Serif" font-size="10.00">_desired</text>
<text text-anchor="start" x="175" y="-316" font-family="Helvetica,sans-Serif" font-size="10.00">angular_position</text>
<text text-anchor="middle" x="217" y="-305" font-family="Helvetica,sans-Serif" font-size="10.00">_desired_dot</text>
<text text-anchor="start" x="175" y="-294" font-family="Helvetica,sans-Serif" font-size="10.00">angular_position</text>
<text text-anchor="middle" x="217" y="-283" font-family="Helvetica,sans-Serif" font-size="10.00">_desired_dot_dot</text>
<text text-anchor="start" x="175" y="-272" font-family="Helvetica,sans-Serif" font-size="10.00">euler_angles_rpy</text>
<text text-anchor="middle" x="217" y="-261" font-family="Helvetica,sans-Serif" font-size="10.00">_dot</text>
<text text-anchor="middle" x="217" y="-250" font-family="Helvetica,sans-Serif" font-size="10.00">mu_translational</text>
<text text-anchor="start" x="175" y="-239" font-family="Helvetica,sans-Serif" font-size="10.00">mu_translational</text>
<text text-anchor="middle" x="217" y="-228" font-family="Helvetica,sans-Serif" font-size="10.00">_raw</text>
<text text-anchor="start" x="175" y="-217" font-family="Helvetica,sans-Serif" font-size="10.00">translational</text>
<text text-anchor="middle" x="217" y="-206" font-family="Helvetica,sans-Serif" font-size="10.00">_position_error</text>
</g>
<!-- Node16 -->
<g id="node16" class="node">
<title>Node16</title>
<g id="a_node16"><a xlink:href="structPID_1_1ControllerSpecificInternalMembers.html" target="_top" xlink:title="This struct contains the variables that are used in this particular controller.">
<polygon fill="white" stroke="black" points="463,-348 463,-378 625,-378 625,-348 463,-348"/>
<text text-anchor="start" x="471" y="-366" font-family="Helvetica,sans-Serif" font-size="10.00">PID::ControllerSpecificInternal</text>
<text text-anchor="middle" x="544" y="-355" font-family="Helvetica,sans-Serif" font-size="10.00">Members</text>
</a>
</g>
</g>
<!-- Node5&#45;&gt;Node16 -->
<g id="edge17" class="edge">
<title>Node5&#45;&gt;Node16</title>
<path fill="none" stroke="#9a32cd" stroke-dasharray="5,2" d="M84.6,-307C100.32,-323.33 126.58,-346.95 155,-357 209.62,-376.33 365.99,-372.39 462.73,-367.73"/>
<polygon fill="#9a32cd" stroke="#9a32cd" points="87.14,-304.6 77.76,-299.66 82.02,-309.37 87.14,-304.6"/>
<text text-anchor="middle" x="217" y="-472" font-family="Helvetica,sans-Serif" font-size="10.00"> inner_loop_D</text>
<text text-anchor="middle" x="217" y="-461" font-family="Helvetica,sans-Serif" font-size="10.00">inner_loop_I</text>
<text text-anchor="middle" x="217" y="-450" font-family="Helvetica,sans-Serif" font-size="10.00">inner_loop_P</text>
<text text-anchor="start" x="167" y="-439" font-family="Helvetica,sans-Serif" font-size="10.00">inner_loop_dynamic</text>
<text text-anchor="middle" x="217" y="-428" font-family="Helvetica,sans-Serif" font-size="10.00">_inversion</text>
<text text-anchor="middle" x="217" y="-417" font-family="Helvetica,sans-Serif" font-size="10.00">outer_loop_D</text>
<text text-anchor="middle" x="217" y="-406" font-family="Helvetica,sans-Serif" font-size="10.00">outer_loop_I</text>
<text text-anchor="middle" x="217" y="-395" font-family="Helvetica,sans-Serif" font-size="10.00">outer_loop_P</text>
<text text-anchor="start" x="167" y="-384" font-family="Helvetica,sans-Serif" font-size="10.00">outer_loop_dynamic</text>
<text text-anchor="middle" x="217" y="-373" font-family="Helvetica,sans-Serif" font-size="10.00">_inversion</text>
</g>
<!-- Node6 -->
<g id="node6" class="node">
<title>Node6</title>
<g id="a_node6"><a xlink:title=" ">
<polygon fill="white" stroke="#bfbfbf" points="38.5,-530.5 38.5,-549.5 98.5,-549.5 98.5,-530.5 38.5,-530.5"/>
<text text-anchor="middle" x="68.5" y="-537.5" font-family="Helvetica,sans-Serif" font-size="10.00">Matrix3d</text>
</a>
</g>
</g>
<!-- Node6&#45;&gt;Node4 -->
<g id="edge5" class="edge">
<title>Node6&#45;&gt;Node4</title>
<path fill="none" stroke="#9a32cd" stroke-dasharray="5,2" d="M106.83,-527.12C121.7,-522.27 139.05,-516.98 155,-513 209.38,-499.42 236.72,-526.8 279,-490 358.89,-420.46 368.87,-278.88 369.94,-232.26"/>
<polygon fill="#9a32cd" stroke="#9a32cd" points="105.37,-523.91 96.98,-530.38 107.57,-530.56 105.37,-523.91"/>
<text text-anchor="middle" x="217" y="-538" font-family="Helvetica,sans-Serif" font-size="10.00"> jacobian_matrix_inverse</text>
<text text-anchor="start" x="155" y="-527" font-family="Helvetica,sans-Serif" font-size="10.00">rotation_matrix_321</text>
<text text-anchor="middle" x="217" y="-516" font-family="Helvetica,sans-Serif" font-size="10.00">_global_to_local</text>
</g>
<!-- Node15 -->
<g id="node15" class="node">
<title>Node15</title>
<g id="a_node15"><a xlink:href="structGainsPID.html" target="_top" xlink:title="Struct containing the PID tuning gains coming from the .json file.">
<polygon fill="white" stroke="black" points="513.5,-463.5 513.5,-482.5 574.5,-482.5 574.5,-463.5 513.5,-463.5"/>
<text text-anchor="middle" x="544" y="-470.5" font-family="Helvetica,sans-Serif" font-size="10.00">GainsPID</text>
</a>
</g>
</g>
<!-- Node6&#45;&gt;Node15 -->
<g id="edge15" class="edge">
<title>Node6&#45;&gt;Node15</title>
<path fill="none" stroke="#9a32cd" stroke-dasharray="5,2" d="M108.89,-543.34C123.38,-544.42 139.92,-545.47 155,-546 210.08,-547.93 224.39,-553.41 279,-546 368.53,-533.85 470.59,-499.52 517.26,-482.63"/>
<polygon fill="#9a32cd" stroke="#9a32cd" points="109,-539.84 98.76,-542.56 108.46,-546.82 109,-539.84"/>
<text text-anchor="middle" x="217" y="-607" font-family="Helvetica,sans-Serif" font-size="10.00"> KD_rotational</text>
<text text-anchor="middle" x="217" y="-596" font-family="Helvetica,sans-Serif" font-size="10.00">KD_translational</text>
<text text-anchor="middle" x="217" y="-585" font-family="Helvetica,sans-Serif" font-size="10.00">KI_rotational</text>
<text text-anchor="middle" x="217" y="-574" font-family="Helvetica,sans-Serif" font-size="10.00">KI_translational</text>
<text text-anchor="middle" x="217" y="-563" font-family="Helvetica,sans-Serif" font-size="10.00">KP_rotational</text>
<text text-anchor="middle" x="217" y="-552" font-family="Helvetica,sans-Serif" font-size="10.00">KP_translational</text>
</g>
<!-- Node7 -->
<g id="node7" class="node">
<title>Node7</title>
<g id="a_node7"><a xlink:href="structControl_1_1ControlReferences.html" target="_top" xlink:title="Struct that encapsulates references to external variables to be used inside the computeControlAlgorit...">
<polygon fill="white" stroke="black" points="297,-125.5 297,-144.5 445,-144.5 445,-125.5 297,-125.5"/>
<text text-anchor="middle" x="371" y="-132.5" font-family="Helvetica,sans-Serif" font-size="10.00">Control::ControlReferences</text>
</a>
</g>
</g>
<!-- Node7&#45;&gt;Node3 -->
<g id="edge6" class="edge">
<title>Node7&#45;&gt;Node3</title>
<path fill="none" stroke="#9a32cd" stroke-dasharray="5,2" d="M455.07,-140.23C504.57,-143.92 568.56,-149.7 625,-158 641.23,-160.39 659.29,-164.06 673.45,-167.17"/>
<polygon fill="#9a32cd" stroke="#9a32cd" points="455.28,-136.73 445.05,-139.49 454.77,-143.71 455.28,-136.73"/>
<text text-anchor="middle" x="544" y="-161" font-family="Helvetica,sans-Serif" font-size="10.00"> cr</text>
</g>
<!-- Node8 -->
<g id="node8" class="node">
<title>Node8</title>
<g id="a_node8"><a xlink:href="structVehicleInfo.html" target="_top" xlink:title="Vehicle Info.">
<polygon fill="white" stroke="black" points="335.5,-163.5 335.5,-182.5 406.5,-182.5 406.5,-163.5 335.5,-163.5"/>
<text text-anchor="middle" x="371" y="-170.5" font-family="Helvetica,sans-Serif" font-size="10.00">VehicleInfo</text>
</a>
</g>
</g>
<!-- Node8&#45;&gt;Node3 -->
<g id="edge7" class="edge">
<title>Node8&#45;&gt;Node3</title>
<path fill="none" stroke="#9a32cd" stroke-dasharray="5,2" d="M416.85,-173C486.52,-173 618.44,-173 673.44,-173"/>
<polygon fill="#9a32cd" stroke="#9a32cd" points="416.63,-169.5 406.63,-173 416.63,-176.5 416.63,-169.5"/>
<text text-anchor="middle" x="544" y="-176" font-family="Helvetica,sans-Serif" font-size="10.00"> vehicle_info</text>
</g>
<!-- Node9 -->
<g id="node9" class="node">
<title>Node9</title>
<g id="a_node9"><a xlink:title=" ">
<polygon fill="white" stroke="#bfbfbf" points="38.5,-114.5 38.5,-133.5 98.5,-133.5 98.5,-114.5 38.5,-114.5"/>
<text text-anchor="middle" x="68.5" y="-121.5" font-family="Helvetica,sans-Serif" font-size="10.00">Matrix2d</text>
</a>
</g>
</g>
<!-- Node9&#45;&gt;Node8 -->
<g id="edge8" class="edge">
<title>Node9&#45;&gt;Node8</title>
<path fill="none" stroke="#9a32cd" stroke-dasharray="5,2" d="M108.64,-113.52C152.99,-103.95 225.99,-95.35 279,-125 292.24,-132.41 284.79,-145 297,-154 308.07,-162.16 322.34,-166.82 335.32,-169.48"/>
<polygon fill="#9a32cd" stroke="#9a32cd" points="107.8,-110.13 98.82,-115.76 109.35,-116.95 107.8,-110.13"/>
<text text-anchor="middle" x="217" y="-172" font-family="Helvetica,sans-Serif" font-size="10.00"> A_filter_pitch_des</text>
<text text-anchor="start" x="167" y="-161" font-family="Helvetica,sans-Serif" font-size="10.00">A_filter_pitch_dot</text>
<text text-anchor="middle" x="217" y="-150" font-family="Helvetica,sans-Serif" font-size="10.00">_des</text>
<text text-anchor="middle" x="217" y="-139" font-family="Helvetica,sans-Serif" font-size="10.00">A_filter_roll_des</text>
<text text-anchor="middle" x="217" y="-128" font-family="Helvetica,sans-Serif" font-size="10.00">A_filter_roll_dot_des</text>
</g>
<!-- Node10 -->
<g id="node10" class="node">
<title>Node10</title>
<g id="a_node10"><a xlink:href="classMultiThreadedNode.html" target="_top" xlink:title="Multithreaded Node Class.">
<polygon fill="white" stroke="black" points="314.5,-60.5 314.5,-79.5 427.5,-79.5 427.5,-60.5 314.5,-60.5"/>
<text text-anchor="middle" x="371" y="-67.5" font-family="Helvetica,sans-Serif" font-size="10.00">MultiThreadedNode</text>
</a>
</g>
</g>
<!-- Node10&#45;&gt;Node1 -->
<g id="edge18" class="edge">
<title>Node10&#45;&gt;Node1</title>
<path fill="none" stroke="#9a32cd" stroke-dasharray="5,2" d="M437.61,-71.7C565.99,-75.03 846.81,-82.32 949.72,-84.99"/>
<polygon fill="#9a32cd" stroke="#9a32cd" points="437.61,-68.2 427.52,-71.44 437.43,-75.2 437.61,-68.2"/>
<text text-anchor="middle" x="791" y="-85" font-family="Helvetica,sans-Serif" font-size="10.00"> node_</text>
</g>
<!-- Node10&#45;&gt;Node3 -->
<g id="edge9" class="edge">
<title>Node10&#45;&gt;Node3</title>
<path fill="none" stroke="#9a32cd" stroke-dasharray="5,2" d="M437.8,-78.59C489.98,-86.86 564.01,-101.9 625,-127 648.11,-136.51 672.15,-153.03 686.2,-163.47"/>
<polygon fill="#9a32cd" stroke="#9a32cd" points="438.09,-75.09 427.67,-77.02 437.02,-82.01 438.09,-75.09"/>
<text text-anchor="middle" x="544" y="-130" font-family="Helvetica,sans-Serif" font-size="10.00"> node_</text>
</g>
<!-- Node11 -->
<g id="node11" class="node">
<title>Node11</title>
<g id="a_node11"><a xlink:title=" ">
<polygon fill="white" stroke="#bfbfbf" points="30,-38.5 30,-57.5 107,-57.5 107,-38.5 30,-38.5"/>
<text text-anchor="middle" x="68.5" y="-45.5" font-family="Helvetica,sans-Serif" font-size="10.00">rclcpp::Node</text>
</a>
</g>
</g>
<!-- Node11&#45;&gt;Node10 -->
<g id="edge10" class="edge">
<title>Node11&#45;&gt;Node10</title>
<path fill="none" stroke="midnightblue" d="M117.51,-51.52C171.11,-55.44 257.73,-61.78 314.27,-65.92"/>
<polygon fill="midnightblue" stroke="midnightblue" points="117.48,-48 107.25,-50.76 116.97,-54.98 117.48,-48"/>
</g>
<!-- Node12 -->
<g id="node12" class="node">
<title>Node12</title>
<g id="a_node12"><a xlink:href="structConfigurationParameters.html" target="_top" xlink:title="Configurations Parameters set from config.json.">
<polygon fill="white" stroke="black" points="0,-0.5 0,-19.5 137,-19.5 137,-0.5 0,-0.5"/>
<text text-anchor="middle" x="68.5" y="-7.5" font-family="Helvetica,sans-Serif" font-size="10.00">ConfigurationParameters</text>
</a>
</g>
</g>
<!-- Node12&#45;&gt;Node10 -->
<g id="edge11" class="edge">
<title>Node12&#45;&gt;Node10</title>
<path fill="none" stroke="#9a32cd" stroke-dasharray="5,2" d="M147.21,-17.82C186.94,-22.65 235.89,-29.89 279,-40 301.67,-45.32 326.76,-53.79 344.85,-60.38"/>
<polygon fill="#9a32cd" stroke="#9a32cd" points="147.39,-14.32 137.05,-16.61 146.57,-21.27 147.39,-14.32"/>
<text text-anchor="middle" x="217" y="-43" font-family="Helvetica,sans-Serif" font-size="10.00"> config_</text>
</g>
<!-- Node13 -->
<g id="node13" class="node">
<title>Node13</title>
<g id="a_node13"><a xlink:href="structGlobalParameters.html" target="_top" xlink:title="Global parameteres shared among all the program.">
<polygon fill="white" stroke="black" points="16.5,-76.5 16.5,-95.5 120.5,-95.5 120.5,-76.5 16.5,-76.5"/>
<text text-anchor="middle" x="68.5" y="-83.5" font-family="Helvetica,sans-Serif" font-size="10.00">GlobalParameters</text>
</a>
</g>
</g>
<!-- Node13&#45;&gt;Node10 -->
<g id="edge12" class="edge">
<title>Node13&#45;&gt;Node10</title>
<path fill="none" stroke="#9a32cd" stroke-dasharray="5,2" d="M130.91,-82.73C184.73,-79.86 262.26,-75.74 314.31,-72.97"/>
<polygon fill="#9a32cd" stroke="#9a32cd" points="130.62,-79.24 120.82,-83.27 130.99,-86.23 130.62,-79.24"/>
<text text-anchor="middle" x="217" y="-85" font-family="Helvetica,sans-Serif" font-size="10.00"> global_params_</text>
</g>
<!-- Node14 -->
<g id="node14" class="node">
<title>Node14</title>
<g id="a_node14"><a xlink:href="structPID_1_1StateController.html" target="_top" xlink:title="This struct represents the state of the PID controller differential equations that will be at each RK...">
<polygon fill="white" stroke="black" points="643,-261.5 643,-280.5 756,-280.5 756,-261.5 643,-261.5"/>
<text text-anchor="middle" x="699.5" y="-268.5" font-family="Helvetica,sans-Serif" font-size="10.00">PID::StateController</text>
</a>
</g>
</g>
<!-- Node14&#45;&gt;Node2 -->
<g id="edge13" class="edge">
<title>Node14&#45;&gt;Node2</title>
<path fill="none" stroke="#9a32cd" stroke-dasharray="5,2" d="M766.33,-271C788.49,-271 811.26,-271 825.85,-271"/>
<polygon fill="#9a32cd" stroke="#9a32cd" points="766.23,-267.5 756.23,-271 766.23,-274.5 766.23,-267.5"/>
<text text-anchor="middle" x="791" y="-274" font-family="Helvetica,sans-Serif" font-size="10.00"> state_</text>
</g>
<!-- Node15&#45;&gt;Node2 -->
<g id="edge14" class="edge">
<title>Node15&#45;&gt;Node2</title>
<path fill="none" stroke="#9a32cd" stroke-dasharray="5,2" d="M573.42,-458.89C615.01,-437.74 694.21,-395.51 756,-351 786.68,-328.9 817.91,-296.68 832.7,-280.72"/>
<polygon fill="#9a32cd" stroke="#9a32cd" points="571.76,-455.81 564.41,-463.44 574.92,-462.06 571.76,-455.81"/>
<text text-anchor="middle" x="699.5" y="-424" font-family="Helvetica,sans-Serif" font-size="10.00"> gains_</text>
</g>
<!-- Node16&#45;&gt;Node2 -->
<g id="edge16" class="edge">
<title>Node16&#45;&gt;Node2</title>
<path fill="none" stroke="#9a32cd" stroke-dasharray="5,2" d="M614.49,-345.43C668,-331.23 743.49,-309.76 808,-286 813.86,-283.84 820.14,-281.14 825.67,-278.62"/>
<polygon fill="#9a32cd" stroke="#9a32cd" points="613.54,-342.06 604.77,-347.99 615.33,-348.83 613.54,-342.06"/>
<text text-anchor="middle" x="699.5" y="-339" font-family="Helvetica,sans-Serif" font-size="10.00"> csim_</text>
</g>
</g>
</svg>
