<?xml version="1.0" encoding="UTF-8" standalone="no"?>
<!DOCTYPE svg PUBLIC "-//W3C//DTD SVG 1.1//EN"
 "http://www.w3.org/Graphics/SVG/1.1/DTD/svg11.dtd">
<!-- Generated by graphviz version 2.43.0 (0)
 -->
<!-- Title: Control Pages: 1 -->
<svg width="604pt" height="417pt"
 viewBox="0.00 0.00 604.00 417.00" xmlns="http://www.w3.org/2000/svg" xmlns:xlink="http://www.w3.org/1999/xlink">
<g id="graph0" class="graph" transform="scale(1 1) rotate(0) translate(4 413)">
<title>Control</title>
<polygon fill="white" stroke="transparent" points="-4,4 -4,-413 600,-413 600,4 -4,4"/>
<!-- Node1 -->
<g id="node1" class="node">
<title>Node1</title>
<g id="a_node1"><a xlink:title="Control class.">
<polygon fill="#bfbfbf" stroke="black" points="544,-134.5 544,-153.5 596,-153.5 596,-134.5 544,-134.5"/>
<text text-anchor="middle" x="570" y="-141.5" font-family="Helvetica,sans-Serif" font-size="10.00">Control</text>
</a>
</g>
</g>
<!-- Node2 -->
<g id="node2" class="node">
<title>Node2</title>
<g id="a_node2"><a xlink:href="structControl_1_1ControlInternalMembers.html" target="_top" xlink:title="This struct contains the variables that are commmon among all controllers as they are the foundations...">
<polygon fill="white" stroke="black" points="305.5,-190 305.5,-220 436.5,-220 436.5,-190 305.5,-190"/>
<text text-anchor="start" x="313.5" y="-208" font-family="Helvetica,sans-Serif" font-size="10.00">Control::ControlInternal</text>
<text text-anchor="middle" x="371" y="-197" font-family="Helvetica,sans-Serif" font-size="10.00">Members</text>
</a>
</g>
</g>
<!-- Node2&#45;&gt;Node1 -->
<g id="edge1" class="edge">
<title>Node2&#45;&gt;Node1</title>
<path fill="none" stroke="#9a32cd" stroke-dasharray="5,2" d="M446.55,-191.4C472.2,-185.59 500.79,-177.85 526,-168 535.72,-164.2 545.94,-158.58 553.97,-153.72"/>
<polygon fill="#9a32cd" stroke="#9a32cd" points="445.53,-188.04 436.51,-193.61 447.03,-194.88 445.53,-188.04"/>
<text text-anchor="middle" x="494.5" y="-190" font-family="Helvetica,sans-Serif" font-size="10.00"> cim</text>
</g>
<!-- Node3 -->
<g id="node3" class="node">
<title>Node3</title>
<g id="a_node3"><a xlink:title=" ">
<polygon fill="white" stroke="#bfbfbf" points="39,-250.5 39,-269.5 98,-269.5 98,-250.5 39,-250.5"/>
<text text-anchor="middle" x="68.5" y="-257.5" font-family="Helvetica,sans-Serif" font-size="10.00">Vector3d</text>
</a>
</g>
</g>
<!-- Node3&#45;&gt;Node2 -->
<g id="edge2" class="edge">
<title>Node3&#45;&gt;Node2</title>
<path fill="none" stroke="#9a32cd" stroke-dasharray="5,2" d="M108.51,-258.73C150.93,-256.71 220.52,-251.46 279,-238 297.83,-233.66 318.11,-226.56 334.73,-220.06"/>
<polygon fill="#9a32cd" stroke="#9a32cd" points="108.16,-255.25 98.33,-259.18 108.47,-262.24 108.16,-255.25"/>
<text text-anchor="middle" x="217" y="-401" font-family="Helvetica,sans-Serif" font-size="10.00"> angular_error</text>
<text text-anchor="start" x="175" y="-390" font-family="Helvetica,sans-Serif" font-size="10.00">angular_position</text>
<text text-anchor="middle" x="217" y="-379" font-family="Helvetica,sans-Serif" font-size="10.00">_desired</text>
<text text-anchor="start" x="175" y="-368" font-family="Helvetica,sans-Serif" font-size="10.00">angular_position</text>
<text text-anchor="middle" x="217" y="-357" font-family="Helvetica,sans-Serif" font-size="10.00">_desired_dot</text>
<text text-anchor="start" x="175" y="-346" font-family="Helvetica,sans-Serif" font-size="10.00">angular_position</text>
<text text-anchor="middle" x="217" y="-335" font-family="Helvetica,sans-Serif" font-size="10.00">_desired_dot_dot</text>
<text text-anchor="start" x="175" y="-324" font-family="Helvetica,sans-Serif" font-size="10.00">euler_angles_rpy</text>
<text text-anchor="middle" x="217" y="-313" font-family="Helvetica,sans-Serif" font-size="10.00">_dot</text>
<text text-anchor="middle" x="217" y="-302" font-family="Helvetica,sans-Serif" font-size="10.00">mu_translational</text>
<text text-anchor="start" x="175" y="-291" font-family="Helvetica,sans-Serif" font-size="10.00">mu_translational</text>
<text text-anchor="middle" x="217" y="-280" font-family="Helvetica,sans-Serif" font-size="10.00">_raw</text>
<text text-anchor="start" x="175" y="-269" font-family="Helvetica,sans-Serif" font-size="10.00">translational</text>
<text text-anchor="middle" x="217" y="-258" font-family="Helvetica,sans-Serif" font-size="10.00">_position_error</text>
</g>
<!-- Node4 -->
<g id="node4" class="node">
<title>Node4</title>
<g id="a_node4"><a xlink:title=" ">
<polygon fill="white" stroke="#bfbfbf" points="38.5,-194.5 38.5,-213.5 98.5,-213.5 98.5,-194.5 38.5,-194.5"/>
<text text-anchor="middle" x="68.5" y="-201.5" font-family="Helvetica,sans-Serif" font-size="10.00">Matrix3d</text>
</a>
</g>
</g>
<!-- Node4&#45;&gt;Node2 -->
<g id="edge3" class="edge">
<title>Node4&#45;&gt;Node2</title>
<path fill="none" stroke="#9a32cd" stroke-dasharray="5,2" d="M108.64,-204.13C158.51,-204.3 245.39,-204.59 305.2,-204.78"/>
<polygon fill="#9a32cd" stroke="#9a32cd" points="108.6,-200.63 98.59,-204.1 108.57,-207.63 108.6,-200.63"/>
<text text-anchor="middle" x="217" y="-229" font-family="Helvetica,sans-Serif" font-size="10.00"> jacobian_matrix_inverse</text>
<text text-anchor="start" x="155" y="-218" font-family="Helvetica,sans-Serif" font-size="10.00">rotation_matrix_321</text>
<text text-anchor="middle" x="217" y="-207" font-family="Helvetica,sans-Serif" font-size="10.00">_global_to_local</text>
</g>
<!-- Node5 -->
<g id="node5" class="node">
<title>Node5</title>
<g id="a_node5"><a xlink:href="structControl_1_1ControlReferences.html" target="_top" xlink:title="Struct that encapsulates references to external variables to be used inside the computeControlAlgorit...">
<polygon fill="white" stroke="black" points="297,-151.5 297,-170.5 445,-170.5 445,-151.5 297,-151.5"/>
<text text-anchor="middle" x="371" y="-158.5" font-family="Helvetica,sans-Serif" font-size="10.00">Control::ControlReferences</text>
</a>
</g>
</g>
<!-- Node5&#45;&gt;Node1 -->
<g id="edge4" class="edge">
<title>Node5&#45;&gt;Node1</title>
<path fill="none" stroke="#9a32cd" stroke-dasharray="5,2" d="M455.32,-153.81C487.18,-151.06 521.2,-148.12 543.63,-146.19"/>
<polygon fill="#9a32cd" stroke="#9a32cd" points="454.74,-150.35 445.08,-154.69 455.34,-157.32 454.74,-150.35"/>
<text text-anchor="middle" x="494.5" y="-156" font-family="Helvetica,sans-Serif" font-size="10.00"> cr</text>
</g>
<!-- Node6 -->
<g id="node6" class="node">
<title>Node6</title>
<g id="a_node6"><a xlink:href="structVehicleInfo.html" target="_top" xlink:title="Vehicle Info.">
<polygon fill="white" stroke="black" points="335.5,-113.5 335.5,-132.5 406.5,-132.5 406.5,-113.5 335.5,-113.5"/>
<text text-anchor="middle" x="371" y="-120.5" font-family="Helvetica,sans-Serif" font-size="10.00">VehicleInfo</text>
</a>
</g>
</g>
<!-- Node6&#45;&gt;Node1 -->
<g id="edge5" class="edge">
<title>Node6&#45;&gt;Node1</title>
<path fill="none" stroke="#9a32cd" stroke-dasharray="5,2" d="M416.78,-123.72C447.64,-124.75 489.51,-127.2 526,-133 531.78,-133.92 537.92,-135.26 543.7,-136.7"/>
<polygon fill="#9a32cd" stroke="#9a32cd" points="416.86,-120.22 406.76,-123.42 416.65,-127.22 416.86,-120.22"/>
<text text-anchor="middle" x="494.5" y="-136" font-family="Helvetica,sans-Serif" font-size="10.00"> vehicle_info</text>
</g>
<!-- Node7 -->
<g id="node7" class="node">
<title>Node7</title>
<g id="a_node7"><a xlink:title=" ">
<polygon fill="white" stroke="#bfbfbf" points="38.5,-114.5 38.5,-133.5 98.5,-133.5 98.5,-114.5 38.5,-114.5"/>
<text text-anchor="middle" x="68.5" y="-121.5" font-family="Helvetica,sans-Serif" font-size="10.00">Matrix2d</text>
</a>
</g>
</g>
<!-- Node7&#45;&gt;Node6 -->
<g id="edge6" class="edge">
<title>Node7&#45;&gt;Node6</title>
<path fill="none" stroke="#9a32cd" stroke-dasharray="5,2" d="M108.66,-123.87C167.82,-123.67 279.05,-123.3 335.4,-123.12"/>
<polygon fill="#9a32cd" stroke="#9a32cd" points="108.57,-120.37 98.59,-123.9 108.6,-127.37 108.57,-120.37"/>
<text text-anchor="middle" x="217" y="-170" font-family="Helvetica,sans-Serif" font-size="10.00"> A_filter_pitch_des</text>
<text text-anchor="start" x="167" y="-159" font-family="Helvetica,sans-Serif" font-size="10.00">A_filter_pitch_dot</text>
<text text-anchor="middle" x="217" y="-148" font-family="Helvetica,sans-Serif" font-size="10.00">_des</text>
<text text-anchor="middle" x="217" y="-137" font-family="Helvetica,sans-Serif" font-size="10.00">A_filter_roll_des</text>
<text text-anchor="middle" x="217" y="-126" font-family="Helvetica,sans-Serif" font-size="10.00">A_filter_roll_dot_des</text>
</g>
<!-- Node8 -->
<g id="node8" class="node">
<title>Node8</title>
<g id="a_node8"><a xlink:href="classMultiThreadedNode.html" target="_top" xlink:title="Multithreaded Node Class.">
<polygon fill="white" stroke="black" points="314.5,-58.5 314.5,-77.5 427.5,-77.5 427.5,-58.5 314.5,-58.5"/>
<text text-anchor="middle" x="371" y="-65.5" font-family="Helvetica,sans-Serif" font-size="10.00">MultiThreadedNode</text>
</a>
</g>
</g>
<!-- Node8&#45;&gt;Node1 -->
<g id="edge7" class="edge">
<title>Node8&#45;&gt;Node1</title>
<path fill="none" stroke="#9a32cd" stroke-dasharray="5,2" d="M434.74,-79.79C463.5,-86.61 497.46,-96.74 526,-111 538.29,-117.14 550.55,-127.01 558.81,-134.36"/>
<polygon fill="#9a32cd" stroke="#9a32cd" points="435.33,-76.33 424.8,-77.51 433.77,-83.15 435.33,-76.33"/>
<text text-anchor="middle" x="494.5" y="-114" font-family="Helvetica,sans-Serif" font-size="10.00"> node_</text>
</g>
<!-- Node9 -->
<g id="node9" class="node">
<title>Node9</title>
<g id="a_node9"><a xlink:title=" ">
<polygon fill="white" stroke="#bfbfbf" points="30,-76.5 30,-95.5 107,-95.5 107,-76.5 30,-76.5"/>
<text text-anchor="middle" x="68.5" y="-83.5" font-family="Helvetica,sans-Serif" font-size="10.00">rclcpp::Node</text>
</a>
</g>
</g>
<!-- Node9&#45;&gt;Node8 -->
<g id="edge8" class="edge">
<title>Node9&#45;&gt;Node8</title>
<path fill="none" stroke="midnightblue" d="M117.51,-83.12C171.11,-79.91 257.73,-74.73 314.27,-71.34"/>
<polygon fill="midnightblue" stroke="midnightblue" points="117.03,-79.65 107.25,-83.74 117.45,-86.63 117.03,-79.65"/>
</g>
<!-- Node10 -->
<g id="node10" class="node">
<title>Node10</title>
<g id="a_node10"><a xlink:href="structConfigurationParameters.html" target="_top" xlink:title="Configurations Parameters set from config.json.">
<polygon fill="white" stroke="black" points="0,-38.5 0,-57.5 137,-57.5 137,-38.5 0,-38.5"/>
<text text-anchor="middle" x="68.5" y="-45.5" font-family="Helvetica,sans-Serif" font-size="10.00">ConfigurationParameters</text>
</a>
</g>
</g>
<!-- Node10&#45;&gt;Node8 -->
<g id="edge9" class="edge">
<title>Node10&#45;&gt;Node8</title>
<path fill="none" stroke="#9a32cd" stroke-dasharray="5,2" d="M147.13,-50.56C186.64,-52.16 235.42,-54.57 279,-58 290.41,-58.9 302.6,-60.08 314.23,-61.32"/>
<polygon fill="#9a32cd" stroke="#9a32cd" points="147.16,-47.06 137.03,-50.16 146.88,-54.06 147.16,-47.06"/>
<text text-anchor="middle" x="217" y="-61" font-family="Helvetica,sans-Serif" font-size="10.00"> config_</text>
</g>
<!-- Node11 -->
<g id="node11" class="node">
<title>Node11</title>
<g id="a_node11"><a xlink:href="structGlobalParameters.html" target="_top" xlink:title="Global parameteres shared among all the program.">
<polygon fill="white" stroke="black" points="16.5,-0.5 16.5,-19.5 120.5,-19.5 120.5,-0.5 16.5,-0.5"/>
<text text-anchor="middle" x="68.5" y="-7.5" font-family="Helvetica,sans-Serif" font-size="10.00">GlobalParameters</text>
</a>
</g>
</g>
<!-- Node11&#45;&gt;Node8 -->
<g id="edge10" class="edge">
<title>Node11&#45;&gt;Node8</title>
<path fill="none" stroke="#9a32cd" stroke-dasharray="5,2" d="M130.94,-14.13C173.02,-17.81 229.89,-24.46 279,-36 302.8,-41.59 329.05,-51.22 347.22,-58.45"/>
<polygon fill="#9a32cd" stroke="#9a32cd" points="131.1,-10.63 120.84,-13.28 130.51,-17.61 131.1,-10.63"/>
<text text-anchor="middle" x="217" y="-39" font-family="Helvetica,sans-Serif" font-size="10.00"> global_params_</text>
</g>
</g>
</svg>
