<?xml version="1.0" encoding="UTF-8" standalone="no"?>
<!DOCTYPE svg PUBLIC "-//W3C//DTD SVG 1.1//EN"
 "http://www.w3.org/Graphics/SVG/1.1/DTD/svg11.dtd">
<!-- Generated by graphviz version 2.43.0 (0)
 -->
<!-- Title: MultiThreadedNode Pages: 1 -->
<svg width="363pt" height="95pt"
 viewBox="0.00 0.00 362.50 95.00" xmlns="http://www.w3.org/2000/svg" xmlns:xlink="http://www.w3.org/1999/xlink">
<g id="graph0" class="graph" transform="scale(1 1) rotate(0) translate(4 91)">
<title>MultiThreadedNode</title>
<polygon fill="white" stroke="transparent" points="-4,4 -4,-91 358.5,-91 358.5,4 -4,4"/>
<!-- Node1 -->
<g id="node1" class="node">
<title>Node1</title>
<g id="a_node1"><a xlink:title="Multithreaded Node Class.">
<polygon fill="#bfbfbf" stroke="black" points="107,-0.5 107,-19.5 220,-19.5 220,-0.5 107,-0.5"/>
<text text-anchor="middle" x="163.5" y="-7.5" font-family="Helvetica,sans-Serif" font-size="10.00">MultiThreadedNode</text>
</a>
</g>
</g>
<!-- Node2 -->
<g id="node2" class="node">
<title>Node2</title>
<g id="a_node2"><a xlink:title=" ">
<polygon fill="white" stroke="#bfbfbf" points="0,-67.5 0,-86.5 77,-86.5 77,-67.5 0,-67.5"/>
<text text-anchor="middle" x="38.5" y="-74.5" font-family="Helvetica,sans-Serif" font-size="10.00">rclcpp::Node</text>
</a>
</g>
</g>
<!-- Node2&#45;&gt;Node1 -->
<g id="edge1" class="edge">
<title>Node2&#45;&gt;Node1</title>
<path fill="none" stroke="midnightblue" d="M64.26,-62.6C89.02,-49.73 125.69,-30.66 146.83,-19.67"/>
<polygon fill="midnightblue" stroke="midnightblue" points="62.36,-59.65 55.1,-67.37 65.59,-65.86 62.36,-59.65"/>
</g>
<!-- Node3 -->
<g id="node3" class="node">
<title>Node3</title>
<g id="a_node3"><a xlink:href="structConfigurationParameters.html" target="_top" xlink:title="Configurations Parameters set from config.json.">
<polygon fill="white" stroke="black" points="95,-67.5 95,-86.5 232,-86.5 232,-67.5 95,-67.5"/>
<text text-anchor="middle" x="163.5" y="-74.5" font-family="Helvetica,sans-Serif" font-size="10.00">ConfigurationParameters</text>
</a>
</g>
</g>
<!-- Node3&#45;&gt;Node1 -->
<g id="edge2" class="edge">
<title>Node3&#45;&gt;Node1</title>
<path fill="none" stroke="#9a32cd" stroke-dasharray="5,2" d="M163.5,-57.04C163.5,-44.67 163.5,-29.12 163.5,-19.63"/>
<polygon fill="#9a32cd" stroke="#9a32cd" points="160,-57.23 163.5,-67.23 167,-57.23 160,-57.23"/>
<text text-anchor="middle" x="182.5" y="-41" font-family="Helvetica,sans-Serif" font-size="10.00"> config_</text>
</g>
<!-- Node4 -->
<g id="node4" class="node">
<title>Node4</title>
<g id="a_node4"><a xlink:href="structGlobalParameters.html" target="_top" xlink:title="Global parameteres shared among all the program.">
<polygon fill="white" stroke="black" points="250.5,-67.5 250.5,-86.5 354.5,-86.5 354.5,-67.5 250.5,-67.5"/>
<text text-anchor="middle" x="302.5" y="-74.5" font-family="Helvetica,sans-Serif" font-size="10.00">GlobalParameters</text>
</a>
</g>
</g>
<!-- Node4&#45;&gt;Node1 -->
<g id="edge3" class="edge">
<title>Node4&#45;&gt;Node1</title>
<path fill="none" stroke="#9a32cd" stroke-dasharray="5,2" d="M274.94,-63.11C247.41,-50.24 205.85,-30.81 182.03,-19.67"/>
<polygon fill="#9a32cd" stroke="#9a32cd" points="273.5,-66.3 284.04,-67.37 276.47,-59.96 273.5,-66.3"/>
<text text-anchor="middle" x="281" y="-41" font-family="Helvetica,sans-Serif" font-size="10.00"> global_params_</text>
</g>
</g>
</svg>
