<?xml version="1.0" encoding="UTF-8" standalone="no"?>
<!DOCTYPE svg PUBLIC "-//W3C//DTD SVG 1.1//EN"
 "http://www.w3.org/Graphics/SVG/1.1/DTD/svg11.dtd">
<!-- Generated by graphviz version 2.43.0 (0)
 -->
<!-- Title: VehicleState Pages: 1 -->
<svg width="369pt" height="239pt"
 viewBox="0.00 0.00 368.50 239.00" xmlns="http://www.w3.org/2000/svg" xmlns:xlink="http://www.w3.org/1999/xlink">
<g id="graph0" class="graph" transform="scale(1 1) rotate(0) translate(4 235)">
<title>VehicleState</title>
<polygon fill="white" stroke="transparent" points="-4,4 -4,-235 364.5,-235 364.5,4 -4,4"/>
<!-- Node1 -->
<g id="node1" class="node">
<title>Node1</title>
<g id="a_node1"><a xlink:title="Orientation of the vehicle at a given instant of time.">
<polygon fill="#bfbfbf" stroke="black" points="61,-0.5 61,-19.5 138,-19.5 138,-0.5 61,-0.5"/>
<text text-anchor="middle" x="99.5" y="-7.5" font-family="Helvetica,sans-Serif" font-size="10.00">VehicleState</text>
</a>
</g>
</g>
<!-- Node2 -->
<g id="node2" class="node">
<title>Node2</title>
<g id="a_node2"><a xlink:title=" ">
<polygon fill="white" stroke="#bfbfbf" points="0,-144.5 0,-163.5 59,-163.5 59,-144.5 0,-144.5"/>
<text text-anchor="middle" x="29.5" y="-151.5" font-family="Helvetica,sans-Serif" font-size="10.00">Vector3d</text>
</a>
</g>
</g>
<!-- Node2&#45;&gt;Node1 -->
<g id="edge1" class="edge">
<title>Node2&#45;&gt;Node1</title>
<path fill="none" stroke="#9a32cd" stroke-dasharray="5,2" d="M23.8,-134.46C17.5,-110.03 10.66,-66.8 30.5,-38 37.58,-27.72 49.2,-21.36 60.9,-17.42"/>
<polygon fill="#9a32cd" stroke="#9a32cd" points="20.48,-135.57 26.56,-144.24 27.21,-133.67 20.48,-135.57"/>
<text text-anchor="middle" x="89" y="-118" font-family="Helvetica,sans-Serif" font-size="10.00"> angular_velocity_</text>
<text text-anchor="middle" x="89" y="-107" font-family="Helvetica,sans-Serif" font-size="10.00">euler_angles_rpy_</text>
<text text-anchor="start" x="30.5" y="-96" font-family="Helvetica,sans-Serif" font-size="10.00">euler_angles_rpy_offset</text>
<text text-anchor="middle" x="89" y="-85" font-family="Helvetica,sans-Serif" font-size="10.00">_</text>
<text text-anchor="middle" x="89" y="-74" font-family="Helvetica,sans-Serif" font-size="10.00">position_</text>
<text text-anchor="start" x="30.5" y="-63" font-family="Helvetica,sans-Serif" font-size="10.00">position_offset</text>
<text text-anchor="middle" x="89" y="-52" font-family="Helvetica,sans-Serif" font-size="10.00">_</text>
<text text-anchor="middle" x="89" y="-41" font-family="Helvetica,sans-Serif" font-size="10.00">velocity_</text>
</g>
<!-- Node3 -->
<g id="node3" class="node">
<title>Node3</title>
<g id="a_node3"><a xlink:href="classMultiThreadedNode.html" target="_top" xlink:title="Multithreaded Node Class.">
<polygon fill="white" stroke="black" points="113,-144.5 113,-163.5 226,-163.5 226,-144.5 113,-144.5"/>
<text text-anchor="middle" x="169.5" y="-151.5" font-family="Helvetica,sans-Serif" font-size="10.00">MultiThreadedNode</text>
</a>
</g>
</g>
<!-- Node3&#45;&gt;Node1 -->
<g id="edge2" class="edge">
<title>Node3&#45;&gt;Node1</title>
<path fill="none" stroke="#9a32cd" stroke-dasharray="5,2" d="M170.53,-134.16C170.91,-109.71 168.2,-66.77 147.5,-38 141.69,-29.93 132.68,-23.96 124.03,-19.72"/>
<polygon fill="#9a32cd" stroke="#9a32cd" points="167.03,-134.14 170.18,-144.26 174.02,-134.39 167.03,-134.14"/>
<text text-anchor="middle" x="188" y="-79.5" font-family="Helvetica,sans-Serif" font-size="10.00"> node_</text>
</g>
<!-- Node4 -->
<g id="node4" class="node">
<title>Node4</title>
<g id="a_node4"><a xlink:title=" ">
<polygon fill="white" stroke="#bfbfbf" points="6,-211.5 6,-230.5 83,-230.5 83,-211.5 6,-211.5"/>
<text text-anchor="middle" x="44.5" y="-218.5" font-family="Helvetica,sans-Serif" font-size="10.00">rclcpp::Node</text>
</a>
</g>
</g>
<!-- Node4&#45;&gt;Node3 -->
<g id="edge3" class="edge">
<title>Node4&#45;&gt;Node3</title>
<path fill="none" stroke="midnightblue" d="M70.26,-206.6C95.02,-193.73 131.69,-174.66 152.83,-163.67"/>
<polygon fill="midnightblue" stroke="midnightblue" points="68.36,-203.65 61.1,-211.37 71.59,-209.86 68.36,-203.65"/>
</g>
<!-- Node5 -->
<g id="node5" class="node">
<title>Node5</title>
<g id="a_node5"><a xlink:href="structConfigurationParameters.html" target="_top" xlink:title="Configurations Parameters set from config.json.">
<polygon fill="white" stroke="black" points="101,-211.5 101,-230.5 238,-230.5 238,-211.5 101,-211.5"/>
<text text-anchor="middle" x="169.5" y="-218.5" font-family="Helvetica,sans-Serif" font-size="10.00">ConfigurationParameters</text>
</a>
</g>
</g>
<!-- Node5&#45;&gt;Node3 -->
<g id="edge4" class="edge">
<title>Node5&#45;&gt;Node3</title>
<path fill="none" stroke="#9a32cd" stroke-dasharray="5,2" d="M169.5,-201.04C169.5,-188.67 169.5,-173.12 169.5,-163.63"/>
<polygon fill="#9a32cd" stroke="#9a32cd" points="166,-201.23 169.5,-211.23 173,-201.23 166,-201.23"/>
<text text-anchor="middle" x="188.5" y="-185" font-family="Helvetica,sans-Serif" font-size="10.00"> config_</text>
</g>
<!-- Node6 -->
<g id="node6" class="node">
<title>Node6</title>
<g id="a_node6"><a xlink:href="structGlobalParameters.html" target="_top" xlink:title="Global parameteres shared among all the program.">
<polygon fill="white" stroke="black" points="256.5,-211.5 256.5,-230.5 360.5,-230.5 360.5,-211.5 256.5,-211.5"/>
<text text-anchor="middle" x="308.5" y="-218.5" font-family="Helvetica,sans-Serif" font-size="10.00">GlobalParameters</text>
</a>
</g>
</g>
<!-- Node6&#45;&gt;Node3 -->
<g id="edge5" class="edge">
<title>Node6&#45;&gt;Node3</title>
<path fill="none" stroke="#9a32cd" stroke-dasharray="5,2" d="M280.94,-207.11C253.41,-194.24 211.85,-174.81 188.03,-163.67"/>
<polygon fill="#9a32cd" stroke="#9a32cd" points="279.5,-210.3 290.04,-211.37 282.47,-203.96 279.5,-210.3"/>
<text text-anchor="middle" x="287" y="-185" font-family="Helvetica,sans-Serif" font-size="10.00"> global_params_</text>
</g>
</g>
</svg>
