<?xml version="1.0" encoding="UTF-8" standalone="no"?>
<!DOCTYPE svg PUBLIC "-//W3C//DTD SVG 1.1//EN"
 "http://www.w3.org/Graphics/SVG/1.1/DTD/svg11.dtd">
<!-- Generated by graphviz version 2.43.0 (0)
 -->
<!-- Title: ACSL&#45;flightstack/include/flightstack/control/control.hpp Pages: 1 -->
<!--zoomable 218 -->
<svg id="main" version="1.1" xmlns="http://www.w3.org/2000/svg" xmlns:xlink="http://www.w3.org/1999/xlink" xml:space="preserve" onload="init(evt)">
<style type="text/css"><![CDATA[
.edge:hover path { stroke: red; }
.edge:hover polygon { stroke: red; fill: red; }
]]></style>
<script type="text/javascript"><![CDATA[
var edges = document.getElementsByTagName('g');
if (edges && edges.length) {
  for (var i=0;i<edges.length;i++) {
    if (edges[i].id.substr(0,4)=='edge') {
      edges[i].setAttribute('class','edge');
    }
  }
}
]]></script>
        <defs>
                <circle id="rim" cx="0" cy="0" r="7"/>
                <circle id="rim2" cx="0" cy="0" r="3.5"/>
                <g id="zoomPlus">
                        <use xlink:href="#rim" fill="#404040">
                                <set attributeName="fill" to="#808080" begin="zoomplus.mouseover" end="zoomplus.mouseout"/>
                        </use>
                        <path d="M-4,0h8M0,-4v8" fill="none" stroke="white" stroke-width="1.5" pointer-events="none"/>
                </g>
                <g id="zoomMin">
                        <use xlink:href="#rim" fill="#404040">
                                <set attributeName="fill" to="#808080" begin="zoomminus.mouseover" end="zoomminus.mouseout"/>
                        </use>
                        <path d="M-4,0h8" fill="none" stroke="white" stroke-width="1.5" pointer-events="none"/>
                </g>
                <g id="dirArrow">
                        <path fill="none" stroke="white" stroke-width="1.5" d="M0,-3.0v7 M-2.5,-0.5L0,-3.0L2.5,-0.5"/>
                </g>
               <g id="resetDef">
                       <use xlink:href="#rim2" fill="#404040">
                               <set attributeName="fill" to="#808080" begin="reset.mouseover" end="reset.mouseout"/>
                       </use>
               </g>
        </defs>

<script type="text/javascript">
var viewWidth = 1077;
var viewHeight = 218;
var sectionId = 'dynsection-0';
</script>
<script xlink:href="svgpan.js"/>
<svg id="graph" class="graph">
<g id="viewport">
<title>ACSL&#45;flightstack/include/flightstack/control/control.hpp</title>
<polygon fill="white" stroke="transparent" points="-4,4 -4,-214 1072.65,-214 1072.65,4 -4,4"/>
<!-- Node1 -->
<g id="node1" class="node">
<title>Node1</title>
<g id="a_node1"><a xlink:title="General class that contains common members used by most of the control algorithms.">
<polygon fill="#bfbfbf" stroke="black" points="544.65,-179.5 544.65,-209.5 709.65,-209.5 709.65,-179.5 544.65,-179.5"/>
<text text-anchor="start" x="552.65" y="-197.5" font-family="Helvetica,sans-Serif" font-size="10.00">ACSL&#45;flightstack/include</text>
<text text-anchor="middle" x="627.15" y="-186.5" font-family="Helvetica,sans-Serif" font-size="10.00">/flightstack/control/control.hpp</text>
</a>
</g>
</g>
<!-- Node2 -->
<g id="node2" class="node">
<title>Node2</title>
<g id="a_node2"><a xlink:title=" ">
<polygon fill="white" stroke="#bfbfbf" points="38.65,-0.5 38.65,-19.5 85.65,-19.5 85.65,-0.5 38.65,-0.5"/>
<text text-anchor="middle" x="62.15" y="-7.5" font-family="Helvetica,sans-Serif" font-size="10.00">cmath</text>
</a>
</g>
</g>
<!-- Node1&#45;&gt;Node2 -->
<g id="edge1" class="edge">
<title>Node1&#45;&gt;Node2</title>
<path fill="none" stroke="midnightblue" d="M544.42,-191.33C389.65,-185.25 66.34,-162.28 4.15,-76 -9.54,-57 14.56,-37.2 35.74,-24.52"/>
<polygon fill="midnightblue" stroke="midnightblue" points="37.55,-27.52 44.52,-19.55 34.09,-21.43 37.55,-27.52"/>
</g>
<!-- Node3 -->
<g id="node3" class="node">
<title>Node3</title>
<g id="a_node3"><a xlink:title=" ">
<polygon fill="white" stroke="#bfbfbf" points="128.65,-56.5 128.65,-75.5 175.65,-75.5 175.65,-56.5 128.65,-56.5"/>
<text text-anchor="middle" x="152.15" y="-63.5" font-family="Helvetica,sans-Serif" font-size="10.00">vector</text>
</a>
</g>
</g>
<!-- Node1&#45;&gt;Node3 -->
<g id="edge2" class="edge">
<title>Node1&#45;&gt;Node3</title>
<path fill="none" stroke="midnightblue" d="M573.71,-179.41C492.45,-157.96 332.65,-115.68 186.03,-76.22"/>
<polygon fill="midnightblue" stroke="midnightblue" points="186.51,-72.73 175.94,-73.51 184.69,-79.49 186.51,-72.73"/>
</g>
<!-- Node4 -->
<g id="node4" class="node">
<title>Node4</title>
<g id="a_node4"><a xlink:title=" ">
<polygon fill="white" stroke="#bfbfbf" points="775.65,-118 775.65,-137 840.65,-137 840.65,-118 775.65,-118"/>
<text text-anchor="middle" x="808.15" y="-125" font-family="Helvetica,sans-Serif" font-size="10.00">functional</text>
</a>
</g>
</g>
<!-- Node1&#45;&gt;Node4 -->
<g id="edge3" class="edge">
<title>Node1&#45;&gt;Node4</title>
<path fill="none" stroke="midnightblue" d="M666.43,-179.4C698.75,-167.79 744.07,-151.51 774.68,-140.52"/>
<polygon fill="midnightblue" stroke="midnightblue" points="776.24,-143.68 784.46,-137.01 773.87,-137.09 776.24,-143.68"/>
</g>
<!-- Node5 -->
<g id="node5" class="node">
<title>Node5</title>
<g id="a_node5"><a xlink:title=" ">
<polygon fill="white" stroke="#bfbfbf" points="859.15,-118 859.15,-137 909.15,-137 909.15,-118 859.15,-118"/>
<text text-anchor="middle" x="884.15" y="-125" font-family="Helvetica,sans-Serif" font-size="10.00">chrono</text>
</a>
</g>
</g>
<!-- Node1&#45;&gt;Node5 -->
<g id="edge4" class="edge">
<title>Node1&#45;&gt;Node5</title>
<path fill="none" stroke="midnightblue" d="M704.97,-179.47C748.23,-170.77 802.75,-158.34 850.15,-143 852.08,-142.38 854.04,-141.69 856.01,-140.96"/>
<polygon fill="midnightblue" stroke="midnightblue" points="857.69,-144.06 865.68,-137.09 855.09,-137.56 857.69,-144.06"/>
</g>
<!-- Node6 -->
<g id="node6" class="node">
<title>Node6</title>
<g id="a_node6"><a xlink:title=" ">
<polygon fill="white" stroke="#bfbfbf" points="487.65,-0.5 487.65,-19.5 564.65,-19.5 564.65,-0.5 487.65,-0.5"/>
<text text-anchor="middle" x="526.15" y="-7.5" font-family="Helvetica,sans-Serif" font-size="10.00">Eigen/Dense</text>
</a>
</g>
</g>
<!-- Node1&#45;&gt;Node6 -->
<g id="edge5" class="edge">
<title>Node1&#45;&gt;Node6</title>
<path fill="none" stroke="midnightblue" d="M651.84,-179.29C701.32,-149.97 806.03,-83.23 783.15,-56 757.12,-25.01 642.22,-15.36 575.19,-12.36"/>
<polygon fill="midnightblue" stroke="midnightblue" points="575,-8.84 564.86,-11.93 574.71,-15.84 575,-8.84"/>
</g>
<!-- Node7 -->
<g id="node7" class="node">
<title>Node7</title>
<g id="a_node7"><a xlink:title=" ">
<polygon fill="white" stroke="#bfbfbf" points="927.65,-118 927.65,-137 1068.65,-137 1068.65,-118 927.65,-118"/>
<text text-anchor="middle" x="998.15" y="-125" font-family="Helvetica,sans-Serif" font-size="10.00">boost/numeric/odeint.hpp</text>
</a>
</g>
</g>
<!-- Node1&#45;&gt;Node7 -->
<g id="edge6" class="edge">
<title>Node1&#45;&gt;Node7</title>
<path fill="none" stroke="midnightblue" d="M709.03,-179.46C767.35,-169.42 847.6,-155.52 918.15,-143 925.59,-141.68 933.42,-140.28 941.15,-138.89"/>
<polygon fill="midnightblue" stroke="midnightblue" points="941.99,-142.29 951.21,-137.07 940.75,-135.4 941.99,-142.29"/>
</g>
<!-- Node8 -->
<g id="node8" class="node">
<title>Node8</title>
<g id="a_node8"><a xlink:href="vehicle__info_8hpp.html" target="_top" xlink:title="Vehicle properties such as mass, intertia matrix, motor thrust curves, etc.">
<polygon fill="white" stroke="black" points="13.65,-56.5 13.65,-75.5 110.65,-75.5 110.65,-56.5 13.65,-56.5"/>
<text text-anchor="middle" x="62.15" y="-63.5" font-family="Helvetica,sans-Serif" font-size="10.00">vehicle_info.hpp</text>
</a>
</g>
</g>
<!-- Node1&#45;&gt;Node8 -->
<g id="edge7" class="edge">
<title>Node1&#45;&gt;Node8</title>
<path fill="none" stroke="midnightblue" d="M544.58,-182.24C483.82,-173.33 399.4,-159.63 326.15,-143 243.48,-124.23 148.33,-94.88 97.9,-78.7"/>
<polygon fill="midnightblue" stroke="midnightblue" points="98.72,-75.29 88.13,-75.55 96.57,-81.95 98.72,-75.29"/>
</g>
<!-- Node9 -->
<g id="node9" class="node">
<title>Node9</title>
<g id="a_node9"><a xlink:href="piecewise__polynomial__trajectory_8hpp.html" target="_top" xlink:title="Piecewise polynomial minimu&#45;jerk trajectory computed offline through a MATLAB script.">
<polygon fill="white" stroke="black" points="519.65,-112.5 519.65,-142.5 644.65,-142.5 644.65,-112.5 519.65,-112.5"/>
<text text-anchor="start" x="527.65" y="-130.5" font-family="Helvetica,sans-Serif" font-size="10.00">piecewise_polynomial</text>
<text text-anchor="middle" x="582.15" y="-119.5" font-family="Helvetica,sans-Serif" font-size="10.00">_trajectory.hpp</text>
</a>
</g>
</g>
<!-- Node1&#45;&gt;Node9 -->
<g id="edge10" class="edge">
<title>Node1&#45;&gt;Node9</title>
<path fill="none" stroke="midnightblue" d="M617.39,-179.4C611.61,-171.05 604.16,-160.29 597.6,-150.81"/>
<polygon fill="midnightblue" stroke="midnightblue" points="600.47,-148.81 591.9,-142.58 594.71,-152.79 600.47,-148.81"/>
</g>
<!-- Node8&#45;&gt;Node2 -->
<g id="edge8" class="edge">
<title>Node8&#45;&gt;Node2</title>
<path fill="none" stroke="midnightblue" d="M62.15,-56.08C62.15,-49.01 62.15,-38.86 62.15,-29.99"/>
<polygon fill="midnightblue" stroke="midnightblue" points="65.65,-29.75 62.15,-19.75 58.65,-29.75 65.65,-29.75"/>
</g>
<!-- Node8&#45;&gt;Node6 -->
<g id="edge9" class="edge">
<title>Node8&#45;&gt;Node6</title>
<path fill="none" stroke="midnightblue" d="M110.87,-57.28C114.01,-56.83 117.12,-56.4 120.15,-56 248.73,-38.91 400.82,-23.27 477.19,-15.73"/>
<polygon fill="midnightblue" stroke="midnightblue" points="477.85,-19.18 487.46,-14.72 477.16,-12.22 477.85,-19.18"/>
</g>
<!-- Node9&#45;&gt;Node3 -->
<g id="edge11" class="edge">
<title>Node9&#45;&gt;Node3</title>
<path fill="none" stroke="midnightblue" d="M519.49,-121.26C442.95,-114.25 309.46,-100.06 185.87,-75.88"/>
<polygon fill="midnightblue" stroke="midnightblue" points="186.34,-72.4 175.85,-73.89 184.98,-79.27 186.34,-72.4"/>
</g>
<!-- Node9&#45;&gt;Node6 -->
<g id="edge16" class="edge">
<title>Node9&#45;&gt;Node6</title>
<path fill="none" stroke="midnightblue" d="M644.81,-122.87C711.18,-116.68 801.72,-100.09 765.15,-56 741.47,-27.45 637.7,-16.89 574.94,-13.08"/>
<polygon fill="midnightblue" stroke="midnightblue" points="575.04,-9.58 564.86,-12.5 574.64,-16.57 575.04,-9.58"/>
</g>
<!-- Node10 -->
<g id="node10" class="node">
<title>Node10</title>
<g id="a_node10"><a xlink:title=" ">
<polygon fill="white" stroke="#bfbfbf" points="560.15,-56.5 560.15,-75.5 604.15,-75.5 604.15,-56.5 560.15,-56.5"/>
<text text-anchor="middle" x="582.15" y="-63.5" font-family="Helvetica,sans-Serif" font-size="10.00">string</text>
</a>
</g>
</g>
<!-- Node9&#45;&gt;Node10 -->
<g id="edge12" class="edge">
<title>Node9&#45;&gt;Node10</title>
<path fill="none" stroke="midnightblue" d="M582.15,-112.4C582.15,-104.47 582.15,-94.46 582.15,-85.86"/>
<polygon fill="midnightblue" stroke="midnightblue" points="585.65,-85.66 582.15,-75.66 578.65,-85.66 585.65,-85.66"/>
</g>
<!-- Node11 -->
<g id="node11" class="node">
<title>Node11</title>
<g id="a_node11"><a xlink:title=" ">
<polygon fill="white" stroke="#bfbfbf" points="622.65,-56.5 622.65,-75.5 677.65,-75.5 677.65,-56.5 622.65,-56.5"/>
<text text-anchor="middle" x="650.15" y="-63.5" font-family="Helvetica,sans-Serif" font-size="10.00">fstream</text>
</a>
</g>
</g>
<!-- Node9&#45;&gt;Node11 -->
<g id="edge13" class="edge">
<title>Node9&#45;&gt;Node11</title>
<path fill="none" stroke="midnightblue" d="M598.27,-112.4C608.56,-103.4 621.9,-91.72 632.48,-82.47"/>
<polygon fill="midnightblue" stroke="midnightblue" points="635.04,-84.88 640.26,-75.66 630.43,-79.61 635.04,-84.88"/>
</g>
<!-- Node12 -->
<g id="node12" class="node">
<title>Node12</title>
<g id="a_node12"><a xlink:title=" ">
<polygon fill="white" stroke="#bfbfbf" points="696.15,-56.5 696.15,-75.5 756.15,-75.5 756.15,-56.5 696.15,-56.5"/>
<text text-anchor="middle" x="726.15" y="-63.5" font-family="Helvetica,sans-Serif" font-size="10.00">iostream</text>
</a>
</g>
</g>
<!-- Node9&#45;&gt;Node12 -->
<g id="edge14" class="edge">
<title>Node9&#45;&gt;Node12</title>
<path fill="none" stroke="midnightblue" d="M616.28,-112.4C640.44,-102.42 672.55,-89.15 695.82,-79.53"/>
<polygon fill="midnightblue" stroke="midnightblue" points="697.29,-82.71 705.2,-75.66 694.62,-76.24 697.29,-82.71"/>
</g>
<!-- Node13 -->
<g id="node13" class="node">
<title>Node13</title>
<g id="a_node13"><a xlink:title=" ">
<polygon fill="white" stroke="#bfbfbf" points="362.65,-56.5 362.65,-75.5 413.65,-75.5 413.65,-56.5 362.65,-56.5"/>
<text text-anchor="middle" x="388.15" y="-63.5" font-family="Helvetica,sans-Serif" font-size="10.00">math.h</text>
</a>
</g>
</g>
<!-- Node9&#45;&gt;Node13 -->
<g id="edge15" class="edge">
<title>Node9&#45;&gt;Node13</title>
<path fill="none" stroke="midnightblue" d="M536.18,-112.4C501.7,-101.83 455.2,-87.56 423.58,-77.87"/>
<polygon fill="midnightblue" stroke="midnightblue" points="424.46,-74.47 413.87,-74.89 422.41,-81.17 424.46,-74.47"/>
</g>
<!-- Node14 -->
<g id="node14" class="node">
<title>Node14</title>
<g id="a_node14"><a xlink:title=" ">
<polygon fill="white" stroke="#bfbfbf" points="432.15,-56.5 432.15,-75.5 542.15,-75.5 542.15,-56.5 432.15,-56.5"/>
<text text-anchor="middle" x="487.15" y="-63.5" font-family="Helvetica,sans-Serif" font-size="10.00">nlohmann/json.hpp</text>
</a>
</g>
</g>
<!-- Node9&#45;&gt;Node14 -->
<g id="edge17" class="edge">
<title>Node9&#45;&gt;Node14</title>
<path fill="none" stroke="midnightblue" d="M559.64,-112.4C544.55,-102.95 524.77,-90.56 509.68,-81.11"/>
<polygon fill="midnightblue" stroke="midnightblue" points="511.31,-78 500.98,-75.66 507.59,-83.93 511.31,-78"/>
</g>
<!-- Node15 -->
<g id="node15" class="node">
<title>Node15</title>
<g id="a_node15"><a xlink:href="user__defined__trajectory_8hpp.html" target="_top" xlink:title="Class that contains the common members that each type of user&#45;defined trajectory class will inherit.">
<polygon fill="white" stroke="black" points="193.65,-56.5 193.65,-75.5 344.65,-75.5 344.65,-56.5 193.65,-56.5"/>
<text text-anchor="middle" x="269.15" y="-63.5" font-family="Helvetica,sans-Serif" font-size="10.00">user_defined_trajectory.hpp</text>
</a>
</g>
</g>
<!-- Node9&#45;&gt;Node15 -->
<g id="edge18" class="edge">
<title>Node9&#45;&gt;Node15</title>
<path fill="none" stroke="midnightblue" d="M519.57,-114.6C462.29,-103.72 378.4,-87.77 323.78,-77.38"/>
<polygon fill="midnightblue" stroke="midnightblue" points="324.41,-73.94 313.93,-75.51 323.11,-80.82 324.41,-73.94"/>
</g>
<!-- Node15&#45;&gt;Node2 -->
<g id="edge19" class="edge">
<title>Node15&#45;&gt;Node2</title>
<path fill="none" stroke="midnightblue" d="M236.35,-56.44C197.84,-46.4 134.32,-29.83 95.55,-19.71"/>
<polygon fill="midnightblue" stroke="midnightblue" points="96.34,-16.3 85.79,-17.16 94.58,-23.08 96.34,-16.3"/>
</g>
<!-- Node15&#45;&gt;Node6 -->
<g id="edge20" class="edge">
<title>Node15&#45;&gt;Node6</title>
<path fill="none" stroke="midnightblue" d="M309.88,-56.44C355.33,-46.89 428.86,-31.44 477.35,-21.25"/>
<polygon fill="midnightblue" stroke="midnightblue" points="478.24,-24.64 487.3,-19.16 476.8,-17.79 478.24,-24.64"/>
</g>
</g>
</svg>
        <g id="navigator" transform="translate(0 0)" fill="#404254">
                <rect fill="#f2f5e9" fill-opacity="0.5" stroke="#606060" stroke-width=".5" x="0" y="0" width="60" height="60"/>
                <use id="zoomplus" xlink:href="#zoomPlus" x="17" y="9" onmousedown="handleZoom(evt,'in')"/>
                <use id="zoomminus" xlink:href="#zoomMin" x="42" y="9" onmousedown="handleZoom(evt,'out')"/>
                <use id="reset" xlink:href="#resetDef" x="30" y="36" onmousedown="handleReset()"/>
                <g id="arrowUp" xlink:href="#dirArrow" transform="translate(30 24)" onmousedown="handlePan(0,-1)">
                  <use xlink:href="#rim" fill="#404040">
                        <set attributeName="fill" to="#808080" begin="arrowUp.mouseover" end="arrowUp.mouseout"/>
                  </use>
                  <path fill="none" stroke="white" stroke-width="1.5" d="M0,-3.0v7 M-2.5,-0.5L0,-3.0L2.5,-0.5"/>
                </g>
                <g id="arrowRight" xlink:href="#dirArrow" transform="rotate(90) translate(36 -43)" onmousedown="handlePan(1,0)">
                  <use xlink:href="#rim" fill="#404040">
                        <set attributeName="fill" to="#808080" begin="arrowRight.mouseover" end="arrowRight.mouseout"/>
                  </use>
                  <path fill="none" stroke="white" stroke-width="1.5" d="M0,-3.0v7 M-2.5,-0.5L0,-3.0L2.5,-0.5"/>
                </g>
                <g id="arrowDown" xlink:href="#dirArrow" transform="rotate(180) translate(-30 -48)" onmousedown="handlePan(0,1)">
                  <use xlink:href="#rim" fill="#404040">
                        <set attributeName="fill" to="#808080" begin="arrowDown.mouseover" end="arrowDown.mouseout"/>
                  </use>
                  <path fill="none" stroke="white" stroke-width="1.5" d="M0,-3.0v7 M-2.5,-0.5L0,-3.0L2.5,-0.5"/>
                </g>
                <g id="arrowLeft" xlink:href="#dirArrow" transform="rotate(270) translate(-36 17)" onmousedown="handlePan(-1,0)">
                  <use xlink:href="#rim" fill="#404040">
                        <set attributeName="fill" to="#808080" begin="arrowLeft.mouseover" end="arrowLeft.mouseout"/>
                  </use>
                  <path fill="none" stroke="white" stroke-width="1.5" d="M0,-3.0v7 M-2.5,-0.5L0,-3.0L2.5,-0.5"/>
                </g>
        </g>
        <svg viewBox="0 0 15 15" width="100%" height="30px" preserveAspectRatio="xMaxYMin meet">
         <g id="arrow_out" transform="scale(0.3 0.3)">
          <a xlink:href="control_8hpp__incl_org.svg" target="_base">
           <rect id="button" ry="5" rx="5" y="6" x="6" height="38" width="38"
                fill="#f2f5e9" fill-opacity="0.5" stroke="#606060" stroke-width="1.0"/>
           <path id="arrow"
             d="M 11.500037,31.436501 C 11.940474,20.09759 22.043105,11.32322 32.158766,21.979434 L 37.068811,17.246167 C 37.068811,17.246167 37.088388,32 37.088388,32 L 22.160133,31.978069 C 22.160133,31.978069 26.997745,27.140456 26.997745,27.140456 C 18.528582,18.264221 13.291696,25.230495 11.500037,31.436501 z"
             style="fill:#404040;"/>
          </a>
         </g>
        </svg>
</svg>
