<?xml version="1.0" encoding="UTF-8" standalone="no"?>
<!DOCTYPE svg PUBLIC "-//W3C//DTD SVG 1.1//EN"
 "http://www.w3.org/Graphics/SVG/1.1/DTD/svg11.dtd">
<!-- Generated by graphviz version 2.43.0 (0)
 -->
<!-- Title: ACSL&#45;flightstack/src Pages: 1 -->
<svg width="745pt" height="175pt"
 viewBox="0.00 0.00 745.00 175.00" xmlns="http://www.w3.org/2000/svg" xmlns:xlink="http://www.w3.org/1999/xlink">
<g id="graph0" class="graph" transform="scale(1 1) rotate(0) translate(4 171)">
<title>ACSL&#45;flightstack/src</title>
<polygon fill="white" stroke="transparent" points="-4,4 -4,-171 741,-171 741,4 -4,4"/>
<g id="clust1" class="cluster">
<title>clusterdir_e3c3a2ee6e61cf715e6b07682cda1cac</title>
<g id="a_clust1"><a xlink:href="dir_e3c3a2ee6e61cf715e6b07682cda1cac.html" target="_top" xlink:title="ACSL&#45;flightstack">
<polygon fill="#ddddee" stroke="black" points="8,-8 8,-159 729,-159 729,-8 8,-8"/>
<text text-anchor="middle" x="368.5" y="-147" font-family="Helvetica,sans-Serif" font-size="10.00">ACSL&#45;flightstack</text>
</a>
</g>
</g>
<g id="clust2" class="cluster">
<title>clusterdir_50fceda69ebfc2e8dd8cd79d6c22b54c</title>
<g id="a_clust2"><a xlink:href="dir_50fceda69ebfc2e8dd8cd79d6c22b54c.html" target="_top">
<polygon fill="#eeeeff" stroke="black" points="16,-80 16,-132 721,-132 721,-80 16,-80"/>
</a>
</g>
</g>
<!-- dir_3edc11c87957158ea7e79a05f48476a7 -->
<g id="node1" class="node">
<title>dir_3edc11c87957158ea7e79a05f48476a7</title>
<g id="a_node1"><a xlink:href="dir_3edc11c87957158ea7e79a05f48476a7.html" target="_top" xlink:title="include">
<polygon fill="white" stroke="red" points="425,-52 371,-52 371,-16 425,-16 425,-52"/>
<text text-anchor="middle" x="398" y="-31.5" font-family="Helvetica,sans-Serif" font-size="10.00">include</text>
</a>
</g>
</g>
<!-- dir_50fceda69ebfc2e8dd8cd79d6c22b54c -->
<g id="node2" class="node">
<title>dir_50fceda69ebfc2e8dd8cd79d6c22b54c</title>
<text text-anchor="middle" x="686" y="-103.5" font-family="Helvetica,sans-Serif" font-size="10.00">src</text>
</g>
<!-- dir_2e12e32304c484c3b516bfb4eaf9c7c6 -->
<g id="node3" class="node">
<title>dir_2e12e32304c484c3b516bfb4eaf9c7c6</title>
<g id="a_node3"><a xlink:href="dir_2e12e32304c484c3b516bfb4eaf9c7c6.html" target="_top" xlink:title="config">
<polygon fill="white" stroke="black" points="641,-124 587,-124 587,-88 641,-88 641,-124"/>
<text text-anchor="middle" x="614" y="-103.5" font-family="Helvetica,sans-Serif" font-size="10.00">config</text>
</a>
</g>
</g>
<!-- dir_2e12e32304c484c3b516bfb4eaf9c7c6&#45;&gt;dir_3edc11c87957158ea7e79a05f48476a7 -->
<g id="edge4" class="edge">
<title>dir_2e12e32304c484c3b516bfb4eaf9c7c6&#45;&gt;dir_3edc11c87957158ea7e79a05f48476a7</title>
<path fill="none" stroke="black" d="M591.89,-87.81C587.46,-84.9 582.71,-82.14 578,-80 531.08,-58.71 472.52,-46.46 435.18,-40.26"/>
<polygon fill="black" stroke="black" points="435.67,-36.79 425.24,-38.67 434.56,-43.7 435.67,-36.79"/>
<g id="a_edge4&#45;headlabel"><a xlink:href="dir_000013_000001.html" target="_top" xlink:title="2">
<text text-anchor="middle" x="439.67" y="-32.06" font-family="Helvetica,sans-Serif" font-size="10.00">2</text>
</a>
</g>
</g>
<!-- dir_1a4f4700726d75ca16a0697f9aa7253f -->
<g id="node4" class="node">
<title>dir_1a4f4700726d75ca16a0697f9aa7253f</title>
<g id="a_node4"><a xlink:href="dir_1a4f4700726d75ca16a0697f9aa7253f.html" target="_top" xlink:title="control">
<polygon fill="white" stroke="red" points="569,-124 515,-124 515,-88 569,-88 569,-124"/>
<text text-anchor="middle" x="542" y="-103.5" font-family="Helvetica,sans-Serif" font-size="10.00">control</text>
</a>
</g>
</g>
<!-- dir_1a4f4700726d75ca16a0697f9aa7253f&#45;&gt;dir_3edc11c87957158ea7e79a05f48476a7 -->
<g id="edge6" class="edge">
<title>dir_1a4f4700726d75ca16a0697f9aa7253f&#45;&gt;dir_3edc11c87957158ea7e79a05f48476a7</title>
<path fill="none" stroke="black" d="M518.83,-87.85C514.66,-85.07 510.27,-82.34 506,-80 483.24,-67.54 456.29,-56.31 435.01,-48.18"/>
<polygon fill="black" stroke="black" points="435.96,-44.8 425.37,-44.56 433.5,-51.35 435.96,-44.8"/>
<g id="a_edge6&#45;headlabel"><a xlink:href="dir_000014_000001.html" target="_top" xlink:title="18">
<text text-anchor="middle" x="440.32" y="-40.9" font-family="Helvetica,sans-Serif" font-size="10.00">18</text>
</a>
</g>
</g>
<!-- dir_3fcdd8b96c4dd90c55ad599dc09a0b3d -->
<g id="node5" class="node">
<title>dir_3fcdd8b96c4dd90c55ad599dc09a0b3d</title>
<g id="a_node5"><a xlink:href="dir_3fcdd8b96c4dd90c55ad599dc09a0b3d.html" target="_top" xlink:title="logging">
<polygon fill="white" stroke="black" points="497,-124 443,-124 443,-88 497,-88 497,-124"/>
<text text-anchor="middle" x="470" y="-103.5" font-family="Helvetica,sans-Serif" font-size="10.00">logging</text>
</a>
</g>
</g>
<!-- dir_3fcdd8b96c4dd90c55ad599dc09a0b3d&#45;&gt;dir_3edc11c87957158ea7e79a05f48476a7 -->
<g id="edge7" class="edge">
<title>dir_3fcdd8b96c4dd90c55ad599dc09a0b3d&#45;&gt;dir_3edc11c87957158ea7e79a05f48476a7</title>
<path fill="none" stroke="black" d="M452.2,-87.7C443.4,-79.14 432.62,-68.66 423,-59.3"/>
<polygon fill="black" stroke="black" points="425.2,-56.57 415.59,-52.1 420.32,-61.58 425.2,-56.57"/>
<g id="a_edge7&#45;headlabel"><a xlink:href="dir_000017_000001.html" target="_top" xlink:title="3">
<text text-anchor="middle" x="429.76" y="-54.54" font-family="Helvetica,sans-Serif" font-size="10.00">3</text>
</a>
</g>
</g>
<!-- dir_11f1d8b104917d1df92374366c69c57e -->
<g id="node6" class="node">
<title>dir_11f1d8b104917d1df92374366c69c57e</title>
<g id="a_node6"><a xlink:href="dir_11f1d8b104917d1df92374366c69c57e.html" target="_top" xlink:title="mocap">
<polygon fill="white" stroke="black" points="425,-124 371,-124 371,-88 425,-88 425,-124"/>
<text text-anchor="middle" x="398" y="-103.5" font-family="Helvetica,sans-Serif" font-size="10.00">mocap</text>
</a>
</g>
</g>
<!-- dir_11f1d8b104917d1df92374366c69c57e&#45;&gt;dir_3edc11c87957158ea7e79a05f48476a7 -->
<g id="edge2" class="edge">
<title>dir_11f1d8b104917d1df92374366c69c57e&#45;&gt;dir_3edc11c87957158ea7e79a05f48476a7</title>
<path fill="none" stroke="black" d="M398,-87.7C398,-79.98 398,-70.71 398,-62.11"/>
<polygon fill="black" stroke="black" points="401.5,-62.1 398,-52.1 394.5,-62.1 401.5,-62.1"/>
<g id="a_edge2&#45;headlabel"><a xlink:href="dir_000018_000001.html" target="_top" xlink:title="4">
<text text-anchor="middle" x="404.34" y="-63.2" font-family="Helvetica,sans-Serif" font-size="10.00">4</text>
</a>
</g>
</g>
<!-- dir_8e7abd664aca6aaaf25d14dfeb8b5ff1 -->
<g id="node7" class="node">
<title>dir_8e7abd664aca6aaaf25d14dfeb8b5ff1</title>
<g id="a_node7"><a xlink:href="dir_8e7abd664aca6aaaf25d14dfeb8b5ff1.html" target="_top" xlink:title="pixhawk_interface">
<polygon fill="white" stroke="black" points="352.5,-124 245.5,-124 245.5,-88 352.5,-88 352.5,-124"/>
<text text-anchor="middle" x="299" y="-103.5" font-family="Helvetica,sans-Serif" font-size="10.00">pixhawk_interface</text>
</a>
</g>
</g>
<!-- dir_8e7abd664aca6aaaf25d14dfeb8b5ff1&#45;&gt;dir_3edc11c87957158ea7e79a05f48476a7 -->
<g id="edge1" class="edge">
<title>dir_8e7abd664aca6aaaf25d14dfeb8b5ff1&#45;&gt;dir_3edc11c87957158ea7e79a05f48476a7</title>
<path fill="none" stroke="black" d="M323.22,-87.88C335.92,-78.89 351.66,-67.76 365.42,-58.03"/>
<polygon fill="black" stroke="black" points="367.54,-60.82 373.69,-52.19 363.5,-55.11 367.54,-60.82"/>
<g id="a_edge1&#45;headlabel"><a xlink:href="dir_000019_000001.html" target="_top" xlink:title="5">
<text text-anchor="middle" x="366.25" y="-62.71" font-family="Helvetica,sans-Serif" font-size="10.00">5</text>
</a>
</g>
</g>
<!-- dir_e6343b32b65987bed1de6d3eb5b6fa98 -->
<g id="node8" class="node">
<title>dir_e6343b32b65987bed1de6d3eb5b6fa98</title>
<g id="a_node8"><a xlink:href="dir_e6343b32b65987bed1de6d3eb5b6fa98.html" target="_top" xlink:title="user_defined_trajectory">
<polygon fill="white" stroke="black" points="227.5,-124 96.5,-124 96.5,-88 227.5,-88 227.5,-124"/>
<text text-anchor="middle" x="162" y="-103.5" font-family="Helvetica,sans-Serif" font-size="10.00">user_defined_trajectory</text>
</a>
</g>
</g>
<!-- dir_e6343b32b65987bed1de6d3eb5b6fa98&#45;&gt;dir_3edc11c87957158ea7e79a05f48476a7 -->
<g id="edge3" class="edge">
<title>dir_e6343b32b65987bed1de6d3eb5b6fa98&#45;&gt;dir_3edc11c87957158ea7e79a05f48476a7</title>
<path fill="none" stroke="black" d="M211.92,-87.98C220.27,-85.24 228.86,-82.49 237,-80 279.19,-67.08 328.06,-53.63 360.79,-44.84"/>
<polygon fill="black" stroke="black" points="362.06,-48.13 370.82,-42.16 360.25,-41.36 362.06,-48.13"/>
<g id="a_edge3&#45;headlabel"><a xlink:href="dir_000020_000001.html" target="_top" xlink:title="4">
<text text-anchor="middle" x="359.33" y="-49.3" font-family="Helvetica,sans-Serif" font-size="10.00">4</text>
</a>
</g>
</g>
<!-- dir_313e911af31788c7bad16106da60e134 -->
<g id="node9" class="node">
<title>dir_313e911af31788c7bad16106da60e134</title>
<g id="a_node9"><a xlink:href="dir_313e911af31788c7bad16106da60e134.html" target="_top" xlink:title="utils">
<polygon fill="white" stroke="black" points="78,-124 24,-124 24,-88 78,-88 78,-124"/>
<text text-anchor="middle" x="51" y="-103.5" font-family="Helvetica,sans-Serif" font-size="10.00">utils</text>
</a>
</g>
</g>
<!-- dir_313e911af31788c7bad16106da60e134&#45;&gt;dir_3edc11c87957158ea7e79a05f48476a7 -->
<g id="edge5" class="edge">
<title>dir_313e911af31788c7bad16106da60e134&#45;&gt;dir_3edc11c87957158ea7e79a05f48476a7</title>
<path fill="none" stroke="black" d="M72.8,-87.94C77.59,-84.87 82.79,-82.01 88,-80 181.54,-43.81 301.19,-36.41 360.79,-35.1"/>
<polygon fill="black" stroke="black" points="360.92,-38.6 370.86,-34.92 360.8,-31.6 360.92,-38.6"/>
<g id="a_edge5&#45;headlabel"><a xlink:href="dir_000021_000001.html" target="_top" xlink:title="2">
<text text-anchor="middle" x="357.37" y="-39" font-family="Helvetica,sans-Serif" font-size="10.00">2</text>
</a>
</g>
</g>
</g>
</svg>
