<?xml version="1.0" encoding="UTF-8" standalone="no"?>
<!DOCTYPE svg PUBLIC "-//W3C//DTD SVG 1.1//EN"
 "http://www.w3.org/Graphics/SVG/1.1/DTD/svg11.dtd">
<!-- Generated by graphviz version 2.43.0 (0)
 -->
<!-- Title: ACSL&#45;flightstack/include/flightstack/utils/json_parser.hpp Pages: 1 -->
<svg width="350pt" height="106pt"
 viewBox="0.00 0.00 349.50 106.00" xmlns="http://www.w3.org/2000/svg" xmlns:xlink="http://www.w3.org/1999/xlink">
<g id="graph0" class="graph" transform="scale(1 1) rotate(0) translate(4 102)">
<title>ACSL&#45;flightstack/include/flightstack/utils/json_parser.hpp</title>
<polygon fill="white" stroke="transparent" points="-4,4 -4,-102 345.5,-102 345.5,4 -4,4"/>
<!-- Node1 -->
<g id="node1" class="node">
<title>Node1</title>
<g id="a_node1"><a xlink:title="Utility functions to parse JSON files.">
<polygon fill="#bfbfbf" stroke="black" points="73,-56.5 73,-97.5 207,-97.5 207,-56.5 73,-56.5"/>
<text text-anchor="start" x="81" y="-85.5" font-family="Helvetica,sans-Serif" font-size="10.00">ACSL&#45;flightstack/include</text>
<text text-anchor="start" x="81" y="-74.5" font-family="Helvetica,sans-Serif" font-size="10.00">/flightstack/utils/json</text>
<text text-anchor="middle" x="140" y="-63.5" font-family="Helvetica,sans-Serif" font-size="10.00">_parser.hpp</text>
</a>
</g>
</g>
<!-- Node2 -->
<g id="node2" class="node">
<title>Node2</title>
<g id="a_node2"><a xlink:title=" ">
<polygon fill="white" stroke="#bfbfbf" points="0,-0.5 0,-19.5 44,-19.5 44,-0.5 0,-0.5"/>
<text text-anchor="middle" x="22" y="-7.5" font-family="Helvetica,sans-Serif" font-size="10.00">string</text>
</a>
</g>
</g>
<!-- Node1&#45;&gt;Node2 -->
<g id="edge1" class="edge">
<title>Node1&#45;&gt;Node2</title>
<path fill="none" stroke="midnightblue" d="M104.6,-56.5C85.98,-46.24 63.62,-33.93 46.86,-24.69"/>
<polygon fill="midnightblue" stroke="midnightblue" points="48.16,-21.41 37.71,-19.65 44.78,-27.54 48.16,-21.41"/>
</g>
<!-- Node3 -->
<g id="node3" class="node">
<title>Node3</title>
<g id="a_node3"><a xlink:title=" ">
<polygon fill="white" stroke="#bfbfbf" points="62.5,-0.5 62.5,-19.5 117.5,-19.5 117.5,-0.5 62.5,-0.5"/>
<text text-anchor="middle" x="90" y="-7.5" font-family="Helvetica,sans-Serif" font-size="10.00">fstream</text>
</a>
</g>
</g>
<!-- Node1&#45;&gt;Node3 -->
<g id="edge2" class="edge">
<title>Node1&#45;&gt;Node3</title>
<path fill="none" stroke="midnightblue" d="M125,-56.5C117.92,-47.3 109.57,-36.44 102.79,-27.63"/>
<polygon fill="midnightblue" stroke="midnightblue" points="105.53,-25.44 96.66,-19.65 99.98,-29.71 105.53,-25.44"/>
</g>
<!-- Node4 -->
<g id="node4" class="node">
<title>Node4</title>
<g id="a_node4"><a xlink:title=" ">
<polygon fill="white" stroke="#bfbfbf" points="136,-0.5 136,-19.5 246,-19.5 246,-0.5 136,-0.5"/>
<text text-anchor="middle" x="191" y="-7.5" font-family="Helvetica,sans-Serif" font-size="10.00">nlohmann/json.hpp</text>
</a>
</g>
</g>
<!-- Node1&#45;&gt;Node4 -->
<g id="edge3" class="edge">
<title>Node1&#45;&gt;Node4</title>
<path fill="none" stroke="midnightblue" d="M155.3,-56.5C162.52,-47.3 171.04,-36.44 177.95,-27.63"/>
<polygon fill="midnightblue" stroke="midnightblue" points="180.79,-29.68 184.21,-19.65 175.28,-25.36 180.79,-29.68"/>
</g>
<!-- Node5 -->
<g id="node5" class="node">
<title>Node5</title>
<g id="a_node5"><a xlink:title=" ">
<polygon fill="white" stroke="#bfbfbf" points="264.5,-0.5 264.5,-19.5 341.5,-19.5 341.5,-0.5 264.5,-0.5"/>
<text text-anchor="middle" x="303" y="-7.5" font-family="Helvetica,sans-Serif" font-size="10.00">Eigen/Dense</text>
</a>
</g>
</g>
<!-- Node1&#45;&gt;Node5 -->
<g id="edge4" class="edge">
<title>Node1&#45;&gt;Node5</title>
<path fill="none" stroke="midnightblue" d="M188.91,-56.5C215.82,-45.77 248.41,-32.77 271.86,-23.42"/>
<polygon fill="midnightblue" stroke="midnightblue" points="273.31,-26.61 281.3,-19.65 270.72,-20.11 273.31,-26.61"/>
</g>
</g>
</svg>
