<?xml version="1.0" encoding="UTF-8" standalone="no"?>
<!DOCTYPE svg PUBLIC "-//W3C//DTD SVG 1.1//EN"
 "http://www.w3.org/Graphics/SVG/1.1/DTD/svg11.dtd">
<!-- Generated by graphviz version 2.43.0 (0)
 -->
<!-- Title: ACSL&#45;flightstack/src/mocap/mocap.cpp Pages: 1 -->
<svg width="4407pt" height="341pt"
 viewBox="0.00 0.00 4407.26 341.00" xmlns="http://www.w3.org/2000/svg" xmlns:xlink="http://www.w3.org/1999/xlink">
<g id="graph0" class="graph" transform="scale(1 1) rotate(0) translate(4 337)">
<title>ACSL&#45;flightstack/src/mocap/mocap.cpp</title>
<polygon fill="white" stroke="transparent" points="-4,4 -4,-337 4403.26,-337 4403.26,4 -4,4"/>
<!-- Node1 -->
<g id="node1" class="node">
<title>Node1</title>
<g id="a_node1"><a xlink:title="Node definition for UDP socket as a lifecycle node. Writes messages to pixhawk mocap_odometry topic f...">
<polygon fill="#bfbfbf" stroke="black" points="2035.5,-302.5 2035.5,-332.5 2148.5,-332.5 2148.5,-302.5 2035.5,-302.5"/>
<text text-anchor="start" x="2043.5" y="-320.5" font-family="Helvetica,sans-Serif" font-size="10.00">ACSL&#45;flightstack/src</text>
<text text-anchor="middle" x="2092" y="-309.5" font-family="Helvetica,sans-Serif" font-size="10.00">/mocap/mocap.cpp</text>
</a>
</g>
</g>
<!-- Node2 -->
<g id="node2" class="node">
<title>Node2</title>
<g id="a_node2"><a xlink:href="mocap_8hpp.html" target="_top" xlink:title="Node definition for UDP socket as a lifecyle node Writes messages to pixhawk mocap_odometry topic for...">
<polygon fill="white" stroke="black" points="2056.5,-246.5 2056.5,-265.5 2127.5,-265.5 2127.5,-246.5 2056.5,-246.5"/>
<text text-anchor="middle" x="2092" y="-253.5" font-family="Helvetica,sans-Serif" font-size="10.00">mocap.hpp</text>
</a>
</g>
</g>
<!-- Node1&#45;&gt;Node2 -->
<g id="edge1" class="edge">
<title>Node1&#45;&gt;Node2</title>
<path fill="none" stroke="midnightblue" d="M2092,-302.4C2092,-294.47 2092,-284.46 2092,-275.86"/>
<polygon fill="midnightblue" stroke="midnightblue" points="2095.5,-275.66 2092,-265.66 2088.5,-275.66 2095.5,-275.66"/>
</g>
<!-- Node3 -->
<g id="node3" class="node">
<title>Node3</title>
<g id="a_node3"><a xlink:title=" ">
<polygon fill="white" stroke="#bfbfbf" points="541,-118 541,-137 591,-137 591,-118 541,-118"/>
<text text-anchor="middle" x="566" y="-125" font-family="Helvetica,sans-Serif" font-size="10.00">chrono</text>
</a>
</g>
</g>
<!-- Node2&#45;&gt;Node3 -->
<g id="edge2" class="edge">
<title>Node2&#45;&gt;Node3</title>
<path fill="none" stroke="midnightblue" d="M2056.38,-254.36C1887.26,-251.18 1164.13,-236.3 940,-210 787.03,-192.05 747.19,-188.34 600,-143 597.86,-142.34 595.67,-141.59 593.48,-140.79"/>
<polygon fill="midnightblue" stroke="midnightblue" points="594.67,-137.5 584.09,-137.04 592.08,-144 594.67,-137.5"/>
</g>
<!-- Node4 -->
<g id="node4" class="node">
<title>Node4</title>
<g id="a_node4"><a xlink:title=" ">
<polygon fill="white" stroke="#bfbfbf" points="0,-0.5 0,-19.5 58,-19.5 58,-0.5 0,-0.5"/>
<text text-anchor="middle" x="29" y="-7.5" font-family="Helvetica,sans-Serif" font-size="10.00">memory</text>
</a>
</g>
</g>
<!-- Node2&#45;&gt;Node4 -->
<g id="edge3" class="edge">
<title>Node2&#45;&gt;Node4</title>
<path fill="none" stroke="midnightblue" d="M2056.38,-254.97C1815.64,-254.68 430.44,-251.23 248,-210 176.78,-193.91 153.86,-190.02 98,-143 61.67,-112.42 41.96,-57.8 33.72,-29.35"/>
<polygon fill="midnightblue" stroke="midnightblue" points="37.04,-28.25 31.03,-19.53 30.29,-30.1 37.04,-28.25"/>
</g>
<!-- Node5 -->
<g id="node5" class="node">
<title>Node5</title>
<g id="a_node5"><a xlink:title=" ">
<polygon fill="white" stroke="#bfbfbf" points="479,-56.5 479,-75.5 523,-75.5 523,-56.5 479,-56.5"/>
<text text-anchor="middle" x="501" y="-63.5" font-family="Helvetica,sans-Serif" font-size="10.00">string</text>
</a>
</g>
</g>
<!-- Node2&#45;&gt;Node5 -->
<g id="edge4" class="edge">
<title>Node2&#45;&gt;Node5</title>
<path fill="none" stroke="midnightblue" d="M2091.26,-246.15C2090.44,-229.83 2091.38,-195.16 2112,-179 2211.72,-100.87 4303.13,-233.28 4392,-143 4401.67,-133.18 4401.69,-121.8 4392,-112 4356.05,-75.63 904.29,-67.8 533.22,-67.06"/>
<polygon fill="midnightblue" stroke="midnightblue" points="533.16,-63.56 523.15,-67.04 533.14,-70.56 533.16,-63.56"/>
</g>
<!-- Node6 -->
<g id="node6" class="node">
<title>Node6</title>
<g id="a_node6"><a xlink:title=" ">
<polygon fill="white" stroke="#bfbfbf" points="327.5,-0.5 327.5,-19.5 374.5,-19.5 374.5,-0.5 327.5,-0.5"/>
<text text-anchor="middle" x="351" y="-7.5" font-family="Helvetica,sans-Serif" font-size="10.00">vector</text>
</a>
</g>
</g>
<!-- Node2&#45;&gt;Node6 -->
<g id="edge5" class="edge">
<title>Node2&#45;&gt;Node6</title>
<path fill="none" stroke="midnightblue" d="M2056.49,-255.24C1869.19,-256.29 994.67,-258.46 729,-210 638.02,-193.41 585.85,-218.19 532,-143 509.49,-111.56 555.82,-86.46 532,-56 514.06,-33.06 431.96,-20.14 384.72,-14.48"/>
<polygon fill="midnightblue" stroke="midnightblue" points="384.98,-10.99 374.65,-13.32 384.18,-17.94 384.98,-10.99"/>
</g>
<!-- Node7 -->
<g id="node7" class="node">
<title>Node7</title>
<g id="a_node7"><a xlink:title=" ">
<polygon fill="white" stroke="#bfbfbf" points="609,-118 609,-137 665,-137 665,-118 609,-118"/>
<text text-anchor="middle" x="637" y="-125" font-family="Helvetica,sans-Serif" font-size="10.00">sstream</text>
</a>
</g>
</g>
<!-- Node2&#45;&gt;Node7 -->
<g id="edge6" class="edge">
<title>Node2&#45;&gt;Node7</title>
<path fill="none" stroke="midnightblue" d="M2056.43,-253.4C1864.86,-244.62 954.37,-200.47 679,-143 675.5,-142.27 671.88,-141.33 668.31,-140.27"/>
<polygon fill="midnightblue" stroke="midnightblue" points="669.1,-136.85 658.5,-137.09 666.94,-143.51 669.1,-136.85"/>
</g>
<!-- Node8 -->
<g id="node8" class="node">
<title>Node8</title>
<g id="a_node8"><a xlink:title=" ">
<polygon fill="white" stroke="#bfbfbf" points="2120.5,-185 2120.5,-204 2149.5,-204 2149.5,-185 2120.5,-185"/>
<text text-anchor="middle" x="2135" y="-192" font-family="Helvetica,sans-Serif" font-size="10.00">bit</text>
</a>
</g>
</g>
<!-- Node2&#45;&gt;Node8 -->
<g id="edge7" class="edge">
<title>Node2&#45;&gt;Node8</title>
<path fill="none" stroke="midnightblue" d="M2098.16,-246.48C2104.61,-237.55 2114.9,-223.31 2122.97,-212.14"/>
<polygon fill="midnightblue" stroke="midnightblue" points="2125.83,-214.16 2128.85,-204.01 2120.16,-210.06 2125.83,-214.16"/>
</g>
<!-- Node9 -->
<g id="node9" class="node">
<title>Node9</title>
<g id="a_node9"><a xlink:title=" ">
<polygon fill="white" stroke="#bfbfbf" points="2167.5,-185 2167.5,-204 2266.5,-204 2266.5,-185 2167.5,-185"/>
<text text-anchor="middle" x="2217" y="-192" font-family="Helvetica,sans-Serif" font-size="10.00">rclcpp/rclcpp.hpp</text>
</a>
</g>
</g>
<!-- Node2&#45;&gt;Node9 -->
<g id="edge8" class="edge">
<title>Node2&#45;&gt;Node9</title>
<path fill="none" stroke="midnightblue" d="M2109.91,-246.48C2130.89,-236.49 2165.85,-219.85 2190.09,-208.31"/>
<polygon fill="midnightblue" stroke="midnightblue" points="2191.6,-211.47 2199.12,-204.01 2188.59,-205.15 2191.6,-211.47"/>
</g>
<!-- Node10 -->
<g id="node10" class="node">
<title>Node10</title>
<g id="a_node10"><a xlink:title=" ">
<polygon fill="white" stroke="#bfbfbf" points="2284.5,-179.5 2284.5,-209.5 2421.5,-209.5 2421.5,-179.5 2284.5,-179.5"/>
<text text-anchor="start" x="2292.5" y="-197.5" font-family="Helvetica,sans-Serif" font-size="10.00">rclcpp_lifecycle/lifecycle</text>
<text text-anchor="middle" x="2353" y="-186.5" font-family="Helvetica,sans-Serif" font-size="10.00">_node.hpp</text>
</a>
</g>
</g>
<!-- Node2&#45;&gt;Node10 -->
<g id="edge9" class="edge">
<title>Node2&#45;&gt;Node10</title>
<path fill="none" stroke="midnightblue" d="M2127.74,-246.85C2167.21,-237.86 2231.75,-223.14 2281.65,-211.76"/>
<polygon fill="midnightblue" stroke="midnightblue" points="2282.46,-215.17 2291.43,-209.54 2280.9,-208.35 2282.46,-215.17"/>
</g>
<!-- Node11 -->
<g id="node11" class="node">
<title>Node11</title>
<g id="a_node11"><a xlink:title=" ">
<polygon fill="white" stroke="#bfbfbf" points="2439.5,-179.5 2439.5,-209.5 2552.5,-209.5 2552.5,-179.5 2439.5,-179.5"/>
<text text-anchor="start" x="2447.5" y="-197.5" font-family="Helvetica,sans-Serif" font-size="10.00">lifecycle_msgs/msg</text>
<text text-anchor="middle" x="2496" y="-186.5" font-family="Helvetica,sans-Serif" font-size="10.00">/transition.hpp</text>
</a>
</g>
</g>
<!-- Node2&#45;&gt;Node11 -->
<g id="edge10" class="edge">
<title>Node2&#45;&gt;Node11</title>
<path fill="none" stroke="midnightblue" d="M2127.79,-251.29C2188.04,-244.82 2313.72,-230.36 2429.26,-210.22"/>
<polygon fill="midnightblue" stroke="midnightblue" points="2430.1,-213.63 2439.34,-208.45 2428.88,-206.74 2430.1,-213.63"/>
</g>
<!-- Node12 -->
<g id="node12" class="node">
<title>Node12</title>
<g id="a_node12"><a xlink:title=" ">
<polygon fill="white" stroke="#bfbfbf" points="2570.5,-179.5 2570.5,-209.5 2683.5,-209.5 2683.5,-179.5 2570.5,-179.5"/>
<text text-anchor="start" x="2578.5" y="-197.5" font-family="Helvetica,sans-Serif" font-size="10.00">lifecycle_msgs/msg</text>
<text text-anchor="middle" x="2627" y="-186.5" font-family="Helvetica,sans-Serif" font-size="10.00">/state.hpp</text>
</a>
</g>
</g>
<!-- Node2&#45;&gt;Node12 -->
<g id="edge11" class="edge">
<title>Node2&#45;&gt;Node12</title>
<path fill="none" stroke="midnightblue" d="M2127.57,-253.11C2204.72,-248.67 2393.34,-236.09 2560.4,-210.14"/>
<polygon fill="midnightblue" stroke="midnightblue" points="2561.02,-213.58 2570.36,-208.57 2559.94,-206.67 2561.02,-213.58"/>
</g>
<!-- Node13 -->
<g id="node13" class="node">
<title>Node13</title>
<g id="a_node13"><a xlink:title=" ">
<polygon fill="white" stroke="#bfbfbf" points="2702,-179.5 2702,-209.5 2830,-209.5 2830,-179.5 2702,-179.5"/>
<text text-anchor="start" x="2710" y="-197.5" font-family="Helvetica,sans-Serif" font-size="10.00">px4_msgs/msg/vehicle</text>
<text text-anchor="middle" x="2766" y="-186.5" font-family="Helvetica,sans-Serif" font-size="10.00">_odometry.hpp</text>
</a>
</g>
</g>
<!-- Node2&#45;&gt;Node13 -->
<g id="edge12" class="edge">
<title>Node2&#45;&gt;Node13</title>
<path fill="none" stroke="midnightblue" d="M2127.72,-253.84C2219.63,-250.53 2471.9,-239.41 2691.86,-210.04"/>
<polygon fill="midnightblue" stroke="midnightblue" points="2692.54,-213.48 2701.98,-208.67 2691.6,-206.54 2692.54,-213.48"/>
</g>
<!-- Node14 -->
<g id="node14" class="node">
<title>Node14</title>
<g id="a_node14"><a xlink:href="udp__driver_8hpp.html" target="_top" xlink:title="Class for udp driver.">
<polygon fill="white" stroke="black" points="257.5,-185 257.5,-204 346.5,-204 346.5,-185 257.5,-185"/>
<text text-anchor="middle" x="302" y="-192" font-family="Helvetica,sans-Serif" font-size="10.00">udp_driver.hpp</text>
</a>
</g>
</g>
<!-- Node2&#45;&gt;Node14 -->
<g id="edge13" class="edge">
<title>Node2&#45;&gt;Node14</title>
<path fill="none" stroke="midnightblue" d="M2056.37,-254.59C1884.34,-252.49 1122.44,-241.73 499,-210 450.9,-207.55 396.28,-203.43 356.77,-200.2"/>
<polygon fill="midnightblue" stroke="midnightblue" points="356.81,-196.69 346.56,-199.36 356.24,-203.67 356.81,-196.69"/>
</g>
<!-- Node23 -->
<g id="node22" class="node">
<title>Node23</title>
<g id="a_node22"><a xlink:href="logging__mocap_8hpp.html" target="_top" xlink:title="Logger for the motion capture (MOCAP) system.">
<polygon fill="white" stroke="black" points="1952,-185 1952,-204 2064,-204 2064,-185 1952,-185"/>
<text text-anchor="middle" x="2008" y="-192" font-family="Helvetica,sans-Serif" font-size="10.00">logging_mocap.hpp</text>
</a>
</g>
</g>
<!-- Node2&#45;&gt;Node23 -->
<g id="edge30" class="edge">
<title>Node2&#45;&gt;Node23</title>
<path fill="none" stroke="midnightblue" d="M2079.96,-246.48C2066.49,-236.93 2044.43,-221.31 2028.28,-209.87"/>
<polygon fill="midnightblue" stroke="midnightblue" points="2030.2,-206.93 2020.01,-204.01 2026.15,-212.65 2030.2,-206.93"/>
</g>
<!-- Node14&#45;&gt;Node4 -->
<g id="edge15" class="edge">
<title>Node14&#45;&gt;Node4</title>
<path fill="none" stroke="midnightblue" d="M257.26,-187.11C222.21,-180.46 173.44,-167.46 137,-143 91.25,-112.3 54.95,-56.5 38.53,-28.3"/>
<polygon fill="midnightblue" stroke="midnightblue" points="41.55,-26.53 33.57,-19.56 35.47,-29.99 41.55,-26.53"/>
</g>
<!-- Node14&#45;&gt;Node5 -->
<g id="edge16" class="edge">
<title>Node14&#45;&gt;Node5</title>
<path fill="none" stroke="midnightblue" d="M315.68,-184.81C349.56,-163.27 437.61,-107.29 478.95,-81.01"/>
<polygon fill="midnightblue" stroke="midnightblue" points="480.93,-83.91 487.49,-75.59 477.17,-78 480.93,-83.91"/>
</g>
<!-- Node15 -->
<g id="node15" class="node">
<title>Node15</title>
<g id="a_node15"><a xlink:title=" ">
<polygon fill="white" stroke="#bfbfbf" points="76,-0.5 76,-19.5 136,-19.5 136,-0.5 76,-0.5"/>
<text text-anchor="middle" x="106" y="-7.5" font-family="Helvetica,sans-Serif" font-size="10.00">iostream</text>
</a>
</g>
</g>
<!-- Node14&#45;&gt;Node15 -->
<g id="edge14" class="edge">
<title>Node14&#45;&gt;Node15</title>
<path fill="none" stroke="midnightblue" d="M271.97,-184.88C227.79,-170.44 146.56,-136.78 110,-76 101.71,-62.22 101.4,-43.7 102.76,-29.95"/>
<polygon fill="midnightblue" stroke="midnightblue" points="106.27,-30.12 104.15,-19.73 99.33,-29.17 106.27,-30.12"/>
</g>
<!-- Node16 -->
<g id="node16" class="node">
<title>Node16</title>
<g id="a_node16"><a xlink:href="udp__socket_8hpp.html" target="_top" xlink:title="Class for UDP socket creation using IoContext.">
<polygon fill="white" stroke="black" points="256,-118 256,-137 348,-137 348,-118 256,-118"/>
<text text-anchor="middle" x="302" y="-125" font-family="Helvetica,sans-Serif" font-size="10.00">udp_socket.hpp</text>
</a>
</g>
</g>
<!-- Node14&#45;&gt;Node16 -->
<g id="edge17" class="edge">
<title>Node14&#45;&gt;Node16</title>
<path fill="none" stroke="midnightblue" d="M302,-184.73C302,-175.18 302,-159.62 302,-147.28"/>
<polygon fill="midnightblue" stroke="midnightblue" points="305.5,-147.13 302,-137.13 298.5,-147.13 305.5,-147.13"/>
</g>
<!-- Node16&#45;&gt;Node5 -->
<g id="edge19" class="edge">
<title>Node16&#45;&gt;Node5</title>
<path fill="none" stroke="midnightblue" d="M330.51,-117.98C367.31,-106.97 431.14,-87.89 469.39,-76.45"/>
<polygon fill="midnightblue" stroke="midnightblue" points="470.41,-79.8 478.99,-73.58 468.41,-73.09 470.41,-79.8"/>
</g>
<!-- Node16&#45;&gt;Node6 -->
<g id="edge20" class="edge">
<title>Node16&#45;&gt;Node6</title>
<path fill="none" stroke="midnightblue" d="M308.01,-117.92C314.64,-108.15 325.25,-91.52 332,-76 338.59,-60.84 343.68,-42.72 346.92,-29.47"/>
<polygon fill="midnightblue" stroke="midnightblue" points="350.35,-30.19 349.2,-19.65 343.53,-28.6 350.35,-30.19"/>
</g>
<!-- Node16&#45;&gt;Node15 -->
<g id="edge21" class="edge">
<title>Node16&#45;&gt;Node15</title>
<path fill="none" stroke="midnightblue" d="M255.93,-125.06C216.44,-121.37 160.6,-109.95 126,-76 113.76,-63.99 108.97,-44.7 107.12,-30.25"/>
<polygon fill="midnightblue" stroke="midnightblue" points="110.57,-29.56 106.18,-19.92 103.6,-30.2 110.57,-29.56"/>
</g>
<!-- Node17 -->
<g id="node17" class="node">
<title>Node17</title>
<g id="a_node17"><a xlink:title=" ">
<polygon fill="white" stroke="#bfbfbf" points="281,-56.5 281,-75.5 323,-75.5 323,-56.5 281,-56.5"/>
<text text-anchor="middle" x="302" y="-63.5" font-family="Helvetica,sans-Serif" font-size="10.00">array</text>
</a>
</g>
</g>
<!-- Node16&#45;&gt;Node17 -->
<g id="edge18" class="edge">
<title>Node16&#45;&gt;Node17</title>
<path fill="none" stroke="midnightblue" d="M302,-117.98C302,-109.58 302,-96.48 302,-85.66"/>
<polygon fill="midnightblue" stroke="midnightblue" points="305.5,-85.51 302,-75.51 298.5,-85.51 305.5,-85.51"/>
</g>
<!-- Node18 -->
<g id="node18" class="node">
<title>Node18</title>
<g id="a_node18"><a xlink:title=" ">
<polygon fill="white" stroke="#bfbfbf" points="230.5,-0.5 230.5,-19.5 275.5,-19.5 275.5,-0.5 230.5,-0.5"/>
<text text-anchor="middle" x="253" y="-7.5" font-family="Helvetica,sans-Serif" font-size="10.00">utility</text>
</a>
</g>
</g>
<!-- Node16&#45;&gt;Node18 -->
<g id="edge22" class="edge">
<title>Node16&#45;&gt;Node18</title>
<path fill="none" stroke="midnightblue" d="M295.99,-117.92C289.36,-108.15 278.75,-91.52 272,-76 265.41,-60.84 260.32,-42.72 257.08,-29.47"/>
<polygon fill="midnightblue" stroke="midnightblue" points="260.47,-28.6 254.8,-19.65 253.65,-30.19 260.47,-28.6"/>
</g>
<!-- Node19 -->
<g id="node19" class="node">
<title>Node19</title>
<g id="a_node19"><a xlink:title=" ">
<polygon fill="white" stroke="#bfbfbf" points="379.5,-56.5 379.5,-75.5 460.5,-75.5 460.5,-56.5 379.5,-56.5"/>
<text text-anchor="middle" x="420" y="-63.5" font-family="Helvetica,sans-Serif" font-size="10.00">system_error</text>
</a>
</g>
</g>
<!-- Node16&#45;&gt;Node19 -->
<g id="edge23" class="edge">
<title>Node16&#45;&gt;Node19</title>
<path fill="none" stroke="midnightblue" d="M318.91,-117.98C338.53,-108.08 371.13,-91.64 393.99,-80.12"/>
<polygon fill="midnightblue" stroke="midnightblue" points="395.77,-83.14 403.12,-75.51 392.62,-76.89 395.77,-83.14"/>
</g>
<!-- Node20 -->
<g id="node20" class="node">
<title>Node20</title>
<g id="a_node20"><a xlink:href="io__context_8hpp.html" target="_top" xlink:title="Class for IoContext to manage thread for udp.">
<polygon fill="white" stroke="red" points="135.5,-56.5 135.5,-75.5 224.5,-75.5 224.5,-56.5 135.5,-56.5"/>
<text text-anchor="middle" x="180" y="-63.5" font-family="Helvetica,sans-Serif" font-size="10.00">io_context.hpp</text>
</a>
</g>
</g>
<!-- Node16&#45;&gt;Node20 -->
<g id="edge24" class="edge">
<title>Node16&#45;&gt;Node20</title>
<path fill="none" stroke="midnightblue" d="M284.52,-117.98C264.14,-108.03 230.22,-91.49 206.58,-79.96"/>
<polygon fill="midnightblue" stroke="midnightblue" points="207.97,-76.75 197.45,-75.51 204.9,-83.04 207.97,-76.75"/>
</g>
<!-- Node20&#45;&gt;Node4 -->
<g id="edge25" class="edge">
<title>Node20&#45;&gt;Node4</title>
<path fill="none" stroke="midnightblue" d="M156.07,-56.44C130.78,-47.4 90.7,-33.06 62.32,-22.92"/>
<polygon fill="midnightblue" stroke="midnightblue" points="63.41,-19.59 52.81,-19.52 61.05,-26.18 63.41,-19.59"/>
</g>
<!-- Node20&#45;&gt;Node6 -->
<g id="edge26" class="edge">
<title>Node20&#45;&gt;Node6</title>
<path fill="none" stroke="midnightblue" d="M207.1,-56.44C237.01,-47 285.19,-31.78 317.46,-21.59"/>
<polygon fill="midnightblue" stroke="midnightblue" points="318.85,-24.82 327.34,-18.47 316.75,-18.15 318.85,-24.82"/>
</g>
<!-- Node20&#45;&gt;Node15 -->
<g id="edge29" class="edge">
<title>Node20&#45;&gt;Node15</title>
<path fill="none" stroke="midnightblue" d="M168.11,-56.32C156.85,-48.11 139.71,-35.6 126.29,-25.81"/>
<polygon fill="midnightblue" stroke="midnightblue" points="128.25,-22.9 118.11,-19.83 124.12,-28.56 128.25,-22.9"/>
</g>
<!-- Node20&#45;&gt;Node18 -->
<g id="edge27" class="edge">
<title>Node20&#45;&gt;Node18</title>
<path fill="none" stroke="midnightblue" d="M191.73,-56.32C202.84,-48.11 219.74,-35.6 232.98,-25.81"/>
<polygon fill="midnightblue" stroke="midnightblue" points="235.1,-28.59 241.06,-19.83 230.94,-22.97 235.1,-28.59"/>
</g>
<!-- Node21 -->
<g id="node21" class="node">
<title>Node21</title>
<g id="a_node21"><a xlink:title=" ">
<polygon fill="white" stroke="#bfbfbf" points="154,-0.5 154,-19.5 212,-19.5 212,-0.5 154,-0.5"/>
<text text-anchor="middle" x="183" y="-7.5" font-family="Helvetica,sans-Serif" font-size="10.00">asio.hpp</text>
</a>
</g>
</g>
<!-- Node20&#45;&gt;Node21 -->
<g id="edge28" class="edge">
<title>Node20&#45;&gt;Node21</title>
<path fill="none" stroke="midnightblue" d="M180.5,-56.08C180.89,-49.01 181.45,-38.86 181.95,-29.99"/>
<polygon fill="midnightblue" stroke="midnightblue" points="185.45,-29.93 182.51,-19.75 178.46,-29.54 185.45,-29.93"/>
</g>
<!-- Node23&#45;&gt;Node3 -->
<g id="edge33" class="edge">
<title>Node23&#45;&gt;Node3</title>
<path fill="none" stroke="midnightblue" d="M1951.72,-192.7C1705.97,-189.03 733.32,-172.74 600,-143 597.48,-142.44 594.91,-141.69 592.37,-140.84"/>
<polygon fill="midnightblue" stroke="midnightblue" points="593.48,-137.51 582.89,-137.15 590.94,-144.04 593.48,-137.51"/>
</g>
<!-- Node23&#45;&gt;Node5 -->
<g id="edge39" class="edge">
<title>Node23&#45;&gt;Node5</title>
<path fill="none" stroke="midnightblue" d="M1951.73,-193.36C1717.96,-192.52 830.07,-186.44 713,-143 692.24,-135.3 693.81,-121.89 674,-112 627.88,-88.97 568.78,-76.88 532.95,-71.23"/>
<polygon fill="midnightblue" stroke="midnightblue" points="533.47,-67.77 523.06,-69.74 532.43,-74.69 533.47,-67.77"/>
</g>
<!-- Node23&#45;&gt;Node7 -->
<g id="edge38" class="edge">
<title>Node23&#45;&gt;Node7</title>
<path fill="none" stroke="midnightblue" d="M1951.77,-192.34C1714.95,-187.31 805.17,-166.64 679,-143 675.29,-142.31 671.47,-141.35 667.71,-140.25"/>
<polygon fill="midnightblue" stroke="midnightblue" points="668.63,-136.87 658.04,-137.12 666.47,-143.53 668.63,-136.87"/>
</g>
<!-- Node24 -->
<g id="node23" class="node">
<title>Node24</title>
<g id="a_node23"><a xlink:title=" ">
<polygon fill="white" stroke="#bfbfbf" points="1257,-118 1257,-137 1307,-137 1307,-118 1257,-118"/>
<text text-anchor="middle" x="1282" y="-125" font-family="Helvetica,sans-Serif" font-size="10.00">atomic</text>
</a>
</g>
</g>
<!-- Node23&#45;&gt;Node24 -->
<g id="edge31" class="edge">
<title>Node23&#45;&gt;Node24</title>
<path fill="none" stroke="midnightblue" d="M1951.98,-191.71C1809.71,-186.79 1437.26,-171.52 1317,-143 1314.33,-142.37 1311.61,-141.56 1308.91,-140.64"/>
<polygon fill="midnightblue" stroke="midnightblue" points="1310.03,-137.32 1299.44,-137.01 1307.52,-143.86 1310.03,-137.32"/>
</g>
<!-- Node25 -->
<g id="node24" class="node">
<title>Node25</title>
<g id="a_node24"><a xlink:title=" ">
<polygon fill="white" stroke="#bfbfbf" points="1325.5,-118 1325.5,-137 1378.5,-137 1378.5,-118 1325.5,-118"/>
<text text-anchor="middle" x="1352" y="-125" font-family="Helvetica,sans-Serif" font-size="10.00">cstddef</text>
</a>
</g>
</g>
<!-- Node23&#45;&gt;Node25 -->
<g id="edge32" class="edge">
<title>Node23&#45;&gt;Node25</title>
<path fill="none" stroke="midnightblue" d="M1951.54,-191.08C1819.61,-185.07 1494.28,-168.12 1388,-143 1385.33,-142.37 1382.59,-141.57 1379.88,-140.67"/>
<polygon fill="midnightblue" stroke="midnightblue" points="1380.93,-137.33 1370.34,-137.12 1378.49,-143.89 1380.93,-137.33"/>
</g>
<!-- Node26 -->
<g id="node25" class="node">
<title>Node26</title>
<g id="a_node25"><a xlink:title=" ">
<polygon fill="white" stroke="#bfbfbf" points="1397,-118 1397,-137 1465,-137 1465,-118 1397,-118"/>
<text text-anchor="middle" x="1431" y="-125" font-family="Helvetica,sans-Serif" font-size="10.00">filesystem</text>
</a>
</g>
</g>
<!-- Node23&#45;&gt;Node26 -->
<g id="edge34" class="edge">
<title>Node23&#45;&gt;Node26</title>
<path fill="none" stroke="midnightblue" d="M1951.75,-192.3C1853.86,-189.29 1646.26,-178.86 1475,-143 1471.13,-142.19 1467.11,-141.15 1463.16,-140.01"/>
<polygon fill="midnightblue" stroke="midnightblue" points="1464.16,-136.66 1453.57,-137.01 1462.07,-143.34 1464.16,-136.66"/>
</g>
<!-- Node27 -->
<g id="node26" class="node">
<title>Node27</title>
<g id="a_node26"><a xlink:title=" ">
<polygon fill="white" stroke="#bfbfbf" points="1483.5,-118 1483.5,-137 1538.5,-137 1538.5,-118 1483.5,-118"/>
<text text-anchor="middle" x="1511" y="-125" font-family="Helvetica,sans-Serif" font-size="10.00">fstream</text>
</a>
</g>
</g>
<!-- Node23&#45;&gt;Node27 -->
<g id="edge35" class="edge">
<title>Node23&#45;&gt;Node27</title>
<path fill="none" stroke="midnightblue" d="M1951.94,-192.1C1864.48,-188.85 1690.76,-178.15 1548,-143 1545.17,-142.3 1542.27,-141.44 1539.4,-140.49"/>
<polygon fill="midnightblue" stroke="midnightblue" points="1540.48,-137.16 1529.89,-137.01 1538.08,-143.73 1540.48,-137.16"/>
</g>
<!-- Node28 -->
<g id="node27" class="node">
<title>Node28</title>
<g id="a_node27"><a xlink:title=" ">
<polygon fill="white" stroke="#bfbfbf" points="1557,-118 1557,-137 1613,-137 1613,-118 1557,-118"/>
<text text-anchor="middle" x="1585" y="-125" font-family="Helvetica,sans-Serif" font-size="10.00">iomanip</text>
</a>
</g>
</g>
<!-- Node23&#45;&gt;Node28 -->
<g id="edge36" class="edge">
<title>Node23&#45;&gt;Node28</title>
<path fill="none" stroke="midnightblue" d="M1951.76,-190.26C1876.08,-184.96 1737.71,-171.98 1623,-143 1620.18,-142.29 1617.28,-141.43 1614.4,-140.49"/>
<polygon fill="midnightblue" stroke="midnightblue" points="1615.43,-137.14 1604.83,-137.07 1613.07,-143.73 1615.43,-137.14"/>
</g>
<!-- Node29 -->
<g id="node28" class="node">
<title>Node29</title>
<g id="a_node28"><a xlink:title=" ">
<polygon fill="white" stroke="#bfbfbf" points="1631.5,-118 1631.5,-137 1688.5,-137 1688.5,-118 1631.5,-118"/>
<text text-anchor="middle" x="1660" y="-125" font-family="Helvetica,sans-Serif" font-size="10.00">ostream</text>
</a>
</g>
</g>
<!-- Node23&#45;&gt;Node29 -->
<g id="edge37" class="edge">
<title>Node23&#45;&gt;Node29</title>
<path fill="none" stroke="midnightblue" d="M1951.84,-187.83C1889.17,-180.69 1785.14,-166.46 1698,-143 1695.34,-142.28 1692.61,-141.45 1689.9,-140.55"/>
<polygon fill="midnightblue" stroke="midnightblue" points="1690.85,-137.18 1680.26,-137.1 1688.49,-143.77 1690.85,-137.18"/>
</g>
<!-- Node30 -->
<g id="node29" class="node">
<title>Node30</title>
<g id="a_node29"><a xlink:title=" ">
<polygon fill="white" stroke="#bfbfbf" points="1706.5,-112.5 1706.5,-142.5 1831.5,-142.5 1831.5,-112.5 1706.5,-112.5"/>
<text text-anchor="start" x="1714.5" y="-130.5" font-family="Helvetica,sans-Serif" font-size="10.00">boost/date_time/posix</text>
<text text-anchor="middle" x="1769" y="-119.5" font-family="Helvetica,sans-Serif" font-size="10.00">_time/posix_time.hpp</text>
</a>
</g>
</g>
<!-- Node23&#45;&gt;Node30 -->
<g id="edge40" class="edge">
<title>Node23&#45;&gt;Node30</title>
<path fill="none" stroke="midnightblue" d="M1976.26,-184.87C1939.16,-174.78 1876.89,-157.84 1830.28,-145.16"/>
<polygon fill="midnightblue" stroke="midnightblue" points="1831.15,-141.78 1820.58,-142.53 1829.31,-148.53 1831.15,-141.78"/>
</g>
<!-- Node31 -->
<g id="node30" class="node">
<title>Node31</title>
<g id="a_node30"><a xlink:title=" ">
<polygon fill="white" stroke="#bfbfbf" points="1849.5,-112.5 1849.5,-142.5 2004.5,-142.5 2004.5,-112.5 1849.5,-112.5"/>
<text text-anchor="start" x="1857.5" y="-130.5" font-family="Helvetica,sans-Serif" font-size="10.00">boost/date_time/posix</text>
<text text-anchor="middle" x="1927" y="-119.5" font-family="Helvetica,sans-Serif" font-size="10.00">_time/posix_time_types.hpp</text>
</a>
</g>
</g>
<!-- Node23&#45;&gt;Node31 -->
<g id="edge41" class="edge">
<title>Node23&#45;&gt;Node31</title>
<path fill="none" stroke="midnightblue" d="M1997.08,-184.73C1985.71,-175.61 1967.5,-161 1952.5,-148.96"/>
<polygon fill="midnightblue" stroke="midnightblue" points="1954.55,-146.12 1944.56,-142.59 1950.17,-151.58 1954.55,-146.12"/>
</g>
<!-- Node32 -->
<g id="node31" class="node">
<title>Node32</title>
<g id="a_node31"><a xlink:title=" ">
<polygon fill="white" stroke="#bfbfbf" points="2022.5,-118 2022.5,-137 2155.5,-137 2155.5,-118 2022.5,-118"/>
<text text-anchor="middle" x="2089" y="-125" font-family="Helvetica,sans-Serif" font-size="10.00">boost/log/attributes.hpp</text>
</a>
</g>
</g>
<!-- Node23&#45;&gt;Node32 -->
<g id="edge42" class="edge">
<title>Node23&#45;&gt;Node32</title>
<path fill="none" stroke="midnightblue" d="M2018.92,-184.73C2032.04,-174.21 2054.26,-156.38 2070.16,-143.62"/>
<polygon fill="midnightblue" stroke="midnightblue" points="2072.64,-146.12 2078.25,-137.13 2068.26,-140.66 2072.64,-146.12"/>
</g>
<!-- Node33 -->
<g id="node32" class="node">
<title>Node33</title>
<g id="a_node32"><a xlink:title=" ">
<polygon fill="white" stroke="#bfbfbf" points="2174,-112.5 2174,-142.5 2296,-142.5 2296,-112.5 2174,-112.5"/>
<text text-anchor="start" x="2182" y="-130.5" font-family="Helvetica,sans-Serif" font-size="10.00">boost/log/attributes</text>
<text text-anchor="middle" x="2235" y="-119.5" font-family="Helvetica,sans-Serif" font-size="10.00">/scoped_attribute.hpp</text>
</a>
</g>
</g>
<!-- Node23&#45;&gt;Node33 -->
<g id="edge43" class="edge">
<title>Node23&#45;&gt;Node33</title>
<path fill="none" stroke="midnightblue" d="M2038.14,-184.87C2073.24,-174.82 2132.03,-157.99 2176.24,-145.32"/>
<polygon fill="midnightblue" stroke="midnightblue" points="2177.36,-148.65 2186.01,-142.53 2175.43,-141.92 2177.36,-148.65"/>
</g>
<!-- Node34 -->
<g id="node33" class="node">
<title>Node34</title>
<g id="a_node33"><a xlink:title=" ">
<polygon fill="white" stroke="#bfbfbf" points="2314.5,-118 2314.5,-137 2421.5,-137 2421.5,-118 2314.5,-118"/>
<text text-anchor="middle" x="2368" y="-125" font-family="Helvetica,sans-Serif" font-size="10.00">boost/log/core.hpp</text>
</a>
</g>
</g>
<!-- Node23&#45;&gt;Node34 -->
<g id="edge44" class="edge">
<title>Node23&#45;&gt;Node34</title>
<path fill="none" stroke="midnightblue" d="M2047.55,-184.97C2057.47,-182.92 2068.11,-180.81 2078,-179 2178.49,-160.64 2204.72,-162.47 2305,-143 2310.79,-141.88 2316.85,-140.6 2322.84,-139.29"/>
<polygon fill="midnightblue" stroke="midnightblue" points="2323.78,-142.66 2332.77,-137.06 2322.25,-135.83 2323.78,-142.66"/>
</g>
<!-- Node35 -->
<g id="node34" class="node">
<title>Node35</title>
<g id="a_node34"><a xlink:title=" ">
<polygon fill="white" stroke="#bfbfbf" points="2440,-118 2440,-137 2584,-137 2584,-118 2440,-118"/>
<text text-anchor="middle" x="2512" y="-125" font-family="Helvetica,sans-Serif" font-size="10.00">boost/log/expressions.hpp</text>
</a>
</g>
</g>
<!-- Node23&#45;&gt;Node35 -->
<g id="edge45" class="edge">
<title>Node23&#45;&gt;Node35</title>
<path fill="none" stroke="midnightblue" d="M2045.65,-184.96C2056.09,-182.8 2067.45,-180.63 2078,-179 2233.86,-154.97 2274.83,-164.91 2431,-143 2439.74,-141.77 2448.97,-140.3 2457.96,-138.76"/>
<polygon fill="midnightblue" stroke="midnightblue" points="2458.71,-142.18 2467.96,-137.01 2457.5,-135.29 2458.71,-142.18"/>
</g>
<!-- Node36 -->
<g id="node35" class="node">
<title>Node36</title>
<g id="a_node35"><a xlink:title=" ">
<polygon fill="white" stroke="#bfbfbf" points="2602,-112.5 2602,-142.5 2718,-142.5 2718,-112.5 2602,-112.5"/>
<text text-anchor="start" x="2610" y="-130.5" font-family="Helvetica,sans-Serif" font-size="10.00">boost/log/sinks/sync</text>
<text text-anchor="middle" x="2660" y="-119.5" font-family="Helvetica,sans-Serif" font-size="10.00">_frontend.hpp</text>
</a>
</g>
</g>
<!-- Node23&#45;&gt;Node36 -->
<g id="edge46" class="edge">
<title>Node23&#45;&gt;Node36</title>
<path fill="none" stroke="midnightblue" d="M2044.53,-184.97C2055.26,-182.72 2067.06,-180.51 2078,-179 2302.08,-148.1 2364.1,-174.58 2592.06,-142.99"/>
<polygon fill="midnightblue" stroke="midnightblue" points="2592.57,-146.45 2601.99,-141.59 2591.6,-139.52 2592.57,-146.45"/>
</g>
<!-- Node37 -->
<g id="node36" class="node">
<title>Node37</title>
<g id="a_node36"><a xlink:title=" ">
<polygon fill="white" stroke="#bfbfbf" points="2736.5,-112.5 2736.5,-142.5 2865.5,-142.5 2865.5,-112.5 2736.5,-112.5"/>
<text text-anchor="start" x="2744.5" y="-130.5" font-family="Helvetica,sans-Serif" font-size="10.00">boost/log/sinks/text</text>
<text text-anchor="middle" x="2801" y="-119.5" font-family="Helvetica,sans-Serif" font-size="10.00">_ostream_backend.hpp</text>
</a>
</g>
</g>
<!-- Node23&#45;&gt;Node37 -->
<g id="edge47" class="edge">
<title>Node23&#45;&gt;Node37</title>
<path fill="none" stroke="midnightblue" d="M2044.16,-184.94C2054.98,-182.67 2066.92,-180.45 2078,-179 2361.1,-142.04 2438.54,-178 2725.8,-143.02"/>
<polygon fill="midnightblue" stroke="midnightblue" points="2726.61,-146.44 2736.11,-141.74 2725.76,-139.49 2726.61,-146.44"/>
</g>
<!-- Node38 -->
<g id="node37" class="node">
<title>Node38</title>
<g id="a_node37"><a xlink:title=" ">
<polygon fill="white" stroke="#bfbfbf" points="2883.5,-112.5 2883.5,-142.5 3014.5,-142.5 3014.5,-112.5 2883.5,-112.5"/>
<text text-anchor="start" x="2891.5" y="-130.5" font-family="Helvetica,sans-Serif" font-size="10.00">boost/log/sources/basic</text>
<text text-anchor="middle" x="2949" y="-119.5" font-family="Helvetica,sans-Serif" font-size="10.00">_logger.hpp</text>
</a>
</g>
</g>
<!-- Node23&#45;&gt;Node38 -->
<g id="edge48" class="edge">
<title>Node23&#45;&gt;Node38</title>
<path fill="none" stroke="midnightblue" d="M2043.79,-184.94C2054.71,-182.64 2066.79,-180.4 2078,-179 2426.57,-135.31 2521.19,-184.28 2873.35,-143.08"/>
<polygon fill="midnightblue" stroke="midnightblue" points="2873.79,-146.55 2883.31,-141.9 2872.97,-139.6 2873.79,-146.55"/>
</g>
<!-- Node39 -->
<g id="node38" class="node">
<title>Node39</title>
<g id="a_node38"><a xlink:title=" ">
<polygon fill="white" stroke="#bfbfbf" points="3033,-118 3033,-137 3189,-137 3189,-118 3033,-118"/>
<text text-anchor="middle" x="3111" y="-125" font-family="Helvetica,sans-Serif" font-size="10.00">boost/log/sources/logger.hpp</text>
</a>
</g>
</g>
<!-- Node23&#45;&gt;Node39 -->
<g id="edge49" class="edge">
<title>Node23&#45;&gt;Node39</title>
<path fill="none" stroke="midnightblue" d="M2043.42,-184.97C2054.44,-182.64 2066.67,-180.38 2078,-179 2495.67,-128.15 2605.42,-185.67 3024,-143 3034.51,-141.93 3045.66,-140.38 3056.36,-138.7"/>
<polygon fill="midnightblue" stroke="midnightblue" points="3057.14,-142.11 3066.44,-137.04 3056.01,-135.21 3057.14,-142.11"/>
</g>
<!-- Node40 -->
<g id="node39" class="node">
<title>Node40</title>
<g id="a_node39"><a xlink:title=" ">
<polygon fill="white" stroke="#bfbfbf" points="3207,-112.5 3207,-142.5 3343,-142.5 3343,-112.5 3207,-112.5"/>
<text text-anchor="start" x="3215" y="-130.5" font-family="Helvetica,sans-Serif" font-size="10.00">boost/log/sources/record</text>
<text text-anchor="middle" x="3275" y="-119.5" font-family="Helvetica,sans-Serif" font-size="10.00">_ostream.hpp</text>
</a>
</g>
</g>
<!-- Node23&#45;&gt;Node40 -->
<g id="edge50" class="edge">
<title>Node23&#45;&gt;Node40</title>
<path fill="none" stroke="midnightblue" d="M2043.42,-184.93C2054.43,-182.6 2066.66,-180.35 2078,-179 2569.18,-120.67 2701.13,-196.2 3196.37,-143.05"/>
<polygon fill="midnightblue" stroke="midnightblue" points="3197.08,-146.5 3206.65,-141.94 3196.33,-139.54 3197.08,-146.5"/>
</g>
<!-- Node41 -->
<g id="node40" class="node">
<title>Node41</title>
<g id="a_node40"><a xlink:title=" ">
<polygon fill="white" stroke="#bfbfbf" points="3361.5,-112.5 3361.5,-142.5 3506.5,-142.5 3506.5,-112.5 3361.5,-112.5"/>
<text text-anchor="start" x="3369.5" y="-130.5" font-family="Helvetica,sans-Serif" font-size="10.00">boost/log/sources/severity</text>
<text text-anchor="middle" x="3434" y="-119.5" font-family="Helvetica,sans-Serif" font-size="10.00">_channel_logger.hpp</text>
</a>
</g>
</g>
<!-- Node23&#45;&gt;Node41 -->
<g id="edge51" class="edge">
<title>Node23&#45;&gt;Node41</title>
<path fill="none" stroke="midnightblue" d="M2043.05,-184.98C2054.16,-182.62 2066.54,-180.34 2078,-179 2637.33,-113.68 2786.73,-199.46 3351.18,-142.96"/>
<polygon fill="midnightblue" stroke="midnightblue" points="3351.6,-146.43 3361.2,-141.94 3350.9,-139.47 3351.6,-146.43"/>
</g>
<!-- Node42 -->
<g id="node41" class="node">
<title>Node42</title>
<g id="a_node41"><a xlink:title=" ">
<polygon fill="white" stroke="#bfbfbf" points="3524.5,-112.5 3524.5,-142.5 3669.5,-142.5 3669.5,-112.5 3524.5,-112.5"/>
<text text-anchor="start" x="3532.5" y="-130.5" font-family="Helvetica,sans-Serif" font-size="10.00">boost/log/sources/severity</text>
<text text-anchor="middle" x="3597" y="-119.5" font-family="Helvetica,sans-Serif" font-size="10.00">_logger.hpp</text>
</a>
</g>
</g>
<!-- Node23&#45;&gt;Node42 -->
<g id="edge52" class="edge">
<title>Node23&#45;&gt;Node42</title>
<path fill="none" stroke="midnightblue" d="M2043.05,-184.96C2054.16,-182.59 2066.53,-180.32 2078,-179 2709.7,-106.26 2878.15,-206.43 3513.88,-143.11"/>
<polygon fill="midnightblue" stroke="midnightblue" points="3514.62,-146.55 3524.22,-142.07 3513.92,-139.59 3514.62,-146.55"/>
</g>
<!-- Node43 -->
<g id="node42" class="node">
<title>Node43</title>
<g id="a_node42"><a xlink:title=" ">
<polygon fill="white" stroke="#bfbfbf" points="3688,-112.5 3688,-142.5 3814,-142.5 3814,-112.5 3688,-112.5"/>
<text text-anchor="start" x="3696" y="-130.5" font-family="Helvetica,sans-Serif" font-size="10.00">boost/log/support/date</text>
<text text-anchor="middle" x="3751" y="-119.5" font-family="Helvetica,sans-Serif" font-size="10.00">_time.hpp</text>
</a>
</g>
</g>
<!-- Node23&#45;&gt;Node43 -->
<g id="edge53" class="edge">
<title>Node23&#45;&gt;Node43</title>
<path fill="none" stroke="midnightblue" d="M2043.05,-184.94C2054.16,-182.58 2066.53,-180.31 2078,-179 2781.8,-98.87 2969.83,-220.39 3677.69,-142.99"/>
<polygon fill="midnightblue" stroke="midnightblue" points="3678.33,-146.44 3687.88,-141.87 3677.56,-139.48 3678.33,-146.44"/>
</g>
<!-- Node44 -->
<g id="node43" class="node">
<title>Node44</title>
<g id="a_node43"><a xlink:title=" ">
<polygon fill="white" stroke="#bfbfbf" points="3832,-118 3832,-137 3946,-137 3946,-118 3832,-118"/>
<text text-anchor="middle" x="3889" y="-125" font-family="Helvetica,sans-Serif" font-size="10.00">boost/log/trivial.hpp</text>
</a>
</g>
</g>
<!-- Node23&#45;&gt;Node44 -->
<g id="edge54" class="edge">
<title>Node23&#45;&gt;Node44</title>
<path fill="none" stroke="midnightblue" d="M2043.05,-184.93C2054.16,-182.56 2066.53,-180.3 2078,-179 2848.82,-91.96 3052.71,-234.67 3823,-143 3830.61,-142.09 3838.64,-140.71 3846.38,-139.14"/>
<polygon fill="midnightblue" stroke="midnightblue" points="3847.27,-142.53 3856.32,-137.01 3845.8,-135.68 3847.27,-142.53"/>
</g>
<!-- Node45 -->
<g id="node44" class="node">
<title>Node45</title>
<g id="a_node44"><a xlink:title=" ">
<polygon fill="white" stroke="#bfbfbf" points="3964,-112.5 3964,-142.5 4100,-142.5 4100,-112.5 3964,-112.5"/>
<text text-anchor="start" x="3972" y="-130.5" font-family="Helvetica,sans-Serif" font-size="10.00">boost/log/utility/setup</text>
<text text-anchor="middle" x="4032" y="-119.5" font-family="Helvetica,sans-Serif" font-size="10.00">/common_attributes.hpp</text>
</a>
</g>
</g>
<!-- Node23&#45;&gt;Node45 -->
<g id="edge55" class="edge">
<title>Node23&#45;&gt;Node45</title>
<path fill="none" stroke="midnightblue" d="M2042.69,-184.99C2053.89,-182.6 2066.41,-180.3 2078,-179 2903.83,-86.36 3123.25,-227.36 3953.55,-143.02"/>
<polygon fill="midnightblue" stroke="midnightblue" points="3954.06,-146.48 3963.65,-141.98 3953.35,-139.52 3954.06,-146.48"/>
</g>
<!-- Node46 -->
<g id="node45" class="node">
<title>Node46</title>
<g id="a_node45"><a xlink:title=" ">
<polygon fill="white" stroke="#bfbfbf" points="4118.5,-112.5 4118.5,-142.5 4241.5,-142.5 4241.5,-112.5 4118.5,-112.5"/>
<text text-anchor="start" x="4126.5" y="-130.5" font-family="Helvetica,sans-Serif" font-size="10.00">boost/log/utility/setup</text>
<text text-anchor="middle" x="4180" y="-119.5" font-family="Helvetica,sans-Serif" font-size="10.00">/file.hpp</text>
</a>
</g>
</g>
<!-- Node23&#45;&gt;Node46 -->
<g id="edge56" class="edge">
<title>Node23&#45;&gt;Node46</title>
<path fill="none" stroke="midnightblue" d="M2042.69,-184.98C2053.89,-182.59 2066.41,-180.29 2078,-179 2971.86,-79.38 3209.81,-240.51 4107.89,-142.95"/>
<polygon fill="midnightblue" stroke="midnightblue" points="4108.59,-146.39 4118.15,-141.83 4107.83,-139.44 4108.59,-146.39"/>
</g>
<!-- Node47 -->
<g id="node46" class="node">
<title>Node47</title>
<g id="a_node46"><a xlink:title=" ">
<polygon fill="white" stroke="#bfbfbf" points="4259.5,-112.5 4259.5,-142.5 4382.5,-142.5 4382.5,-112.5 4259.5,-112.5"/>
<text text-anchor="start" x="4267.5" y="-130.5" font-family="Helvetica,sans-Serif" font-size="10.00">boost/log/utility/value</text>
<text text-anchor="middle" x="4321" y="-119.5" font-family="Helvetica,sans-Serif" font-size="10.00">_ref.hpp</text>
</a>
</g>
</g>
<!-- Node23&#45;&gt;Node47 -->
<g id="edge57" class="edge">
<title>Node23&#45;&gt;Node47</title>
<path fill="none" stroke="midnightblue" d="M2042.69,-184.97C2053.89,-182.58 2066.4,-180.29 2078,-179 3034.63,-72.95 3289.17,-248.18 4249.01,-143.07"/>
<polygon fill="midnightblue" stroke="midnightblue" points="4249.71,-146.52 4259.26,-141.94 4248.94,-139.56 4249.71,-146.52"/>
</g>
<!-- Node48 -->
<g id="node47" class="node">
<title>Node48</title>
<g id="a_node47"><a xlink:title=" ">
<polygon fill="white" stroke="#bfbfbf" points="721.5,-118 721.5,-137 852.5,-137 852.5,-118 721.5,-118"/>
<text text-anchor="middle" x="787" y="-125" font-family="Helvetica,sans-Serif" font-size="10.00">boost/phoenix/bind.hpp</text>
</a>
</g>
</g>
<!-- Node23&#45;&gt;Node48 -->
<g id="edge58" class="edge">
<title>Node23&#45;&gt;Node48</title>
<path fill="none" stroke="midnightblue" d="M1951.72,-193.94C1784.82,-194.61 1278.32,-192.15 862,-143 853.29,-141.97 844.08,-140.51 835.2,-138.9"/>
<polygon fill="midnightblue" stroke="midnightblue" points="835.85,-135.46 825.37,-137.04 834.55,-142.34 835.85,-135.46"/>
</g>
<!-- Node49 -->
<g id="node48" class="node">
<title>Node49</title>
<g id="a_node48"><a xlink:title=" ">
<polygon fill="white" stroke="#bfbfbf" points="871,-112.5 871,-142.5 995,-142.5 995,-112.5 871,-112.5"/>
<text text-anchor="start" x="879" y="-130.5" font-family="Helvetica,sans-Serif" font-size="10.00">boost/smart_ptr/make</text>
<text text-anchor="middle" x="933" y="-119.5" font-family="Helvetica,sans-Serif" font-size="10.00">_shared_object.hpp</text>
</a>
</g>
</g>
<!-- Node23&#45;&gt;Node49 -->
<g id="edge59" class="edge">
<title>Node23&#45;&gt;Node49</title>
<path fill="none" stroke="midnightblue" d="M1951.96,-193.64C1800.6,-193.4 1370.92,-188.52 1005.23,-143.02"/>
<polygon fill="midnightblue" stroke="midnightblue" points="1005.61,-139.54 995.25,-141.77 1004.74,-146.49 1005.61,-139.54"/>
</g>
<!-- Node50 -->
<g id="node49" class="node">
<title>Node50</title>
<g id="a_node49"><a xlink:title=" ">
<polygon fill="white" stroke="#bfbfbf" points="1013,-112.5 1013,-142.5 1143,-142.5 1143,-112.5 1013,-112.5"/>
<text text-anchor="start" x="1021" y="-130.5" font-family="Helvetica,sans-Serif" font-size="10.00">boost/smart_ptr/shared</text>
<text text-anchor="middle" x="1078" y="-119.5" font-family="Helvetica,sans-Serif" font-size="10.00">_ptr.hpp</text>
</a>
</g>
</g>
<!-- Node23&#45;&gt;Node50 -->
<g id="edge60" class="edge">
<title>Node23&#45;&gt;Node50</title>
<path fill="none" stroke="midnightblue" d="M1952,-192.75C1816.55,-190.37 1460.44,-180.86 1153.35,-142.91"/>
<polygon fill="midnightblue" stroke="midnightblue" points="1153.72,-139.43 1143.37,-141.66 1152.85,-146.38 1153.72,-139.43"/>
</g>
<!-- Node51 -->
<g id="node50" class="node">
<title>Node51</title>
<g id="a_node50"><a xlink:title=" ">
<polygon fill="white" stroke="#bfbfbf" points="1161.5,-118 1161.5,-137 1238.5,-137 1238.5,-118 1161.5,-118"/>
<text text-anchor="middle" x="1200" y="-125" font-family="Helvetica,sans-Serif" font-size="10.00">Eigen/Dense</text>
</a>
</g>
</g>
<!-- Node23&#45;&gt;Node51 -->
<g id="edge61" class="edge">
<title>Node23&#45;&gt;Node51</title>
<path fill="none" stroke="midnightblue" d="M1951.69,-194.1C1824.91,-194.51 1507.88,-190.25 1248,-143 1243.54,-142.19 1238.92,-141.11 1234.37,-139.9"/>
<polygon fill="midnightblue" stroke="midnightblue" points="1235.23,-136.51 1224.65,-137.12 1233.3,-143.24 1235.23,-136.51"/>
</g>
</g>
</svg>
