<?xml version="1.0" encoding="UTF-8" standalone="no"?>
<!DOCTYPE svg PUBLIC "-//W3C//DTD SVG 1.1//EN"
 "http://www.w3.org/Graphics/SVG/1.1/DTD/svg11.dtd">
<!-- Generated by graphviz version 2.43.0 (0)
 -->
<!-- Title: ACSL&#45;flightstack/include/flightstack/control/pid/pid_gains.hpp Pages: 1 -->
<svg width="233pt" height="106pt"
 viewBox="0.00 0.00 233.00 106.00" xmlns="http://www.w3.org/2000/svg" xmlns:xlink="http://www.w3.org/1999/xlink">
<g id="graph0" class="graph" transform="scale(1 1) rotate(0) translate(4 102)">
<title>ACSL&#45;flightstack/include/flightstack/control/pid/pid_gains.hpp</title>
<polygon fill="white" stroke="transparent" points="-4,4 -4,-102 229,-102 229,4 -4,4"/>
<!-- Node1 -->
<g id="node1" class="node">
<title>Node1</title>
<g id="a_node1"><a xlink:title="Tuning gains of the PID controller.">
<polygon fill="#bfbfbf" stroke="black" points="30.5,-56.5 30.5,-97.5 164.5,-97.5 164.5,-56.5 30.5,-56.5"/>
<text text-anchor="start" x="38.5" y="-85.5" font-family="Helvetica,sans-Serif" font-size="10.00">ACSL&#45;flightstack/include</text>
<text text-anchor="start" x="38.5" y="-74.5" font-family="Helvetica,sans-Serif" font-size="10.00">/flightstack/control/pid</text>
<text text-anchor="middle" x="97.5" y="-63.5" font-family="Helvetica,sans-Serif" font-size="10.00">/pid_gains.hpp</text>
</a>
</g>
</g>
<!-- Node2 -->
<g id="node2" class="node">
<title>Node2</title>
<g id="a_node2"><a xlink:title=" ">
<polygon fill="white" stroke="#bfbfbf" points="0,-0.5 0,-19.5 47,-19.5 47,-0.5 0,-0.5"/>
<text text-anchor="middle" x="23.5" y="-7.5" font-family="Helvetica,sans-Serif" font-size="10.00">cmath</text>
</a>
</g>
</g>
<!-- Node1&#45;&gt;Node2 -->
<g id="edge1" class="edge">
<title>Node1&#45;&gt;Node2</title>
<path fill="none" stroke="midnightblue" d="M75.3,-56.5C64.28,-46.82 51.16,-35.3 40.89,-26.27"/>
<polygon fill="midnightblue" stroke="midnightblue" points="43.17,-23.62 33.35,-19.65 38.55,-28.88 43.17,-23.62"/>
</g>
<!-- Node3 -->
<g id="node3" class="node">
<title>Node3</title>
<g id="a_node3"><a xlink:title=" ">
<polygon fill="white" stroke="#bfbfbf" points="65.5,-0.5 65.5,-19.5 129.5,-19.5 129.5,-0.5 65.5,-0.5"/>
<text text-anchor="middle" x="97.5" y="-7.5" font-family="Helvetica,sans-Serif" font-size="10.00">algorithm</text>
</a>
</g>
</g>
<!-- Node1&#45;&gt;Node3 -->
<g id="edge2" class="edge">
<title>Node1&#45;&gt;Node3</title>
<path fill="none" stroke="midnightblue" d="M97.5,-56.5C97.5,-48.07 97.5,-38.24 97.5,-29.87"/>
<polygon fill="midnightblue" stroke="midnightblue" points="101,-29.65 97.5,-19.65 94,-29.65 101,-29.65"/>
</g>
<!-- Node4 -->
<g id="node4" class="node">
<title>Node4</title>
<g id="a_node4"><a xlink:title=" ">
<polygon fill="white" stroke="#bfbfbf" points="148,-0.5 148,-19.5 225,-19.5 225,-0.5 148,-0.5"/>
<text text-anchor="middle" x="186.5" y="-7.5" font-family="Helvetica,sans-Serif" font-size="10.00">Eigen/Dense</text>
</a>
</g>
</g>
<!-- Node1&#45;&gt;Node4 -->
<g id="edge3" class="edge">
<title>Node1&#45;&gt;Node4</title>
<path fill="none" stroke="midnightblue" d="M124.2,-56.5C137.72,-46.63 153.85,-34.84 166.32,-25.74"/>
<polygon fill="midnightblue" stroke="midnightblue" points="168.64,-28.38 174.65,-19.65 164.51,-22.72 168.64,-28.38"/>
</g>
</g>
</svg>
