<?xml version="1.0" encoding="UTF-8" standalone="no"?>
<!DOCTYPE svg PUBLIC "-//W3C//DTD SVG 1.1//EN"
 "http://www.w3.org/Graphics/SVG/1.1/DTD/svg11.dtd">
<!-- Generated by graphviz version 2.43.0 (0)
 -->
<!-- Title: MRAC::ControllerSpecificInternalMembers Pages: 1 -->
<svg width="299pt" height="238pt"
 viewBox="0.00 0.00 298.50 238.00" xmlns="http://www.w3.org/2000/svg" xmlns:xlink="http://www.w3.org/1999/xlink">
<g id="graph0" class="graph" transform="scale(1 1) rotate(0) translate(4 234)">
<title>MRAC::ControllerSpecificInternalMembers</title>
<polygon fill="white" stroke="transparent" points="-4,4 -4,-234 294.5,-234 294.5,4 -4,4"/>
<!-- Node1 -->
<g id="node1" class="node">
<title>Node1</title>
<g id="a_node1"><a xlink:title="This struct contains the variables that are used in this particular controller.">
<polygon fill="#bfbfbf" stroke="black" points="39,-0.5 39,-30.5 176,-30.5 176,-0.5 39,-0.5"/>
<text text-anchor="start" x="47" y="-18.5" font-family="Helvetica,sans-Serif" font-size="10.00">MRAC::ControllerSpecific</text>
<text text-anchor="middle" x="107.5" y="-7.5" font-family="Helvetica,sans-Serif" font-size="10.00">InternalMembers</text>
</a>
</g>
</g>
<!-- Node2 -->
<g id="node2" class="node">
<title>Node2</title>
<g id="a_node2"><a xlink:title=" ">
<polygon fill="white" stroke="#bfbfbf" points="0,-210.5 0,-229.5 59,-229.5 59,-210.5 0,-210.5"/>
<text text-anchor="middle" x="29.5" y="-217.5" font-family="Helvetica,sans-Serif" font-size="10.00">Vector3d</text>
</a>
</g>
</g>
<!-- Node2&#45;&gt;Node1 -->
<g id="edge1" class="edge">
<title>Node2&#45;&gt;Node1</title>
<path fill="none" stroke="#9a32cd" stroke-dasharray="5,2" d="M23.53,-200.48C13.97,-167.04 -0.71,-95.75 30.5,-49 35.74,-41.16 43.28,-35.2 51.62,-30.68"/>
<polygon fill="#9a32cd" stroke="#9a32cd" points="20.25,-201.72 26.5,-210.27 26.95,-199.69 20.25,-201.72"/>
<text text-anchor="start" x="30.5" y="-184" font-family="Helvetica,sans-Serif" font-size="10.00"> angular_velocity_error</text>
<text text-anchor="middle" x="97.5" y="-173" font-family="Helvetica,sans-Serif" font-size="10.00">_ref</text>
<text text-anchor="middle" x="97.5" y="-162" font-family="Helvetica,sans-Serif" font-size="10.00">inner_loop_D</text>
<text text-anchor="middle" x="97.5" y="-151" font-family="Helvetica,sans-Serif" font-size="10.00">inner_loop_I</text>
<text text-anchor="middle" x="97.5" y="-140" font-family="Helvetica,sans-Serif" font-size="10.00">inner_loop_P</text>
<text text-anchor="start" x="30.5" y="-129" font-family="Helvetica,sans-Serif" font-size="10.00">inner_loop_dynamic</text>
<text text-anchor="middle" x="97.5" y="-118" font-family="Helvetica,sans-Serif" font-size="10.00">_inversion</text>
<text text-anchor="middle" x="97.5" y="-107" font-family="Helvetica,sans-Serif" font-size="10.00">omega_cmd_dot_rotational</text>
<text text-anchor="middle" x="97.5" y="-96" font-family="Helvetica,sans-Serif" font-size="10.00">omega_cmd_rotational</text>
<text text-anchor="middle" x="97.5" y="-85" font-family="Helvetica,sans-Serif" font-size="10.00">omega_ref_dot_rotational</text>
<text text-anchor="middle" x="97.5" y="-74" font-family="Helvetica,sans-Serif" font-size="10.00">outer_loop_D</text>
<text text-anchor="middle" x="97.5" y="-63" font-family="Helvetica,sans-Serif" font-size="10.00">outer_loop_I</text>
<text text-anchor="middle" x="97.5" y="-52" font-family="Helvetica,sans-Serif" font-size="10.00">...</text>
</g>
<!-- Node3 -->
<g id="node3" class="node">
<title>Node3</title>
<g id="a_node3"><a xlink:title=" ">
<polygon fill="white" stroke="#bfbfbf" points="156.5,-210.5 156.5,-229.5 216.5,-229.5 216.5,-210.5 156.5,-210.5"/>
<text text-anchor="middle" x="186.5" y="-217.5" font-family="Helvetica,sans-Serif" font-size="10.00">Matrix3d</text>
</a>
</g>
</g>
<!-- Node3&#45;&gt;Node1 -->
<g id="edge2" class="edge">
<title>Node3&#45;&gt;Node1</title>
<path fill="none" stroke="#9a32cd" stroke-dasharray="5,2" d="M189.17,-200.1C192.87,-166.59 195.93,-95.88 164.5,-49 159.36,-41.34 151.77,-35.27 143.79,-30.55"/>
<polygon fill="#9a32cd" stroke="#9a32cd" points="185.66,-199.95 187.89,-210.3 192.6,-200.82 185.66,-199.95"/>
<text text-anchor="middle" x="240.5" y="-123.5" font-family="Helvetica,sans-Serif" font-size="10.00"> jacobian_matrix</text>
<text text-anchor="middle" x="240.5" y="-112.5" font-family="Helvetica,sans-Serif" font-size="10.00">jacobian_matrix_dot</text>
</g>
</g>
</svg>
