<?xml version="1.0" encoding="UTF-8" standalone="no"?>
<!DOCTYPE svg PUBLIC "-//W3C//DTD SVG 1.1//EN"
 "http://www.w3.org/Graphics/SVG/1.1/DTD/svg11.dtd">
<!-- Generated by graphviz version 2.43.0 (0)
 -->
<!-- Title: Control::ControlInternalMembers Pages: 1 -->
<svg width="271pt" height="249pt"
 viewBox="0.00 0.00 270.50 249.00" xmlns="http://www.w3.org/2000/svg" xmlns:xlink="http://www.w3.org/1999/xlink">
<g id="graph0" class="graph" transform="scale(1 1) rotate(0) translate(4 245)">
<title>Control::ControlInternalMembers</title>
<polygon fill="white" stroke="transparent" points="-4,4 -4,-245 266.5,-245 266.5,4 -4,4"/>
<!-- Node1 -->
<g id="node1" class="node">
<title>Node1</title>
<g id="a_node1"><a xlink:title="This struct contains the variables that are commmon among all controllers as they are the foundations...">
<polygon fill="#bfbfbf" stroke="black" points="17,-0.5 17,-30.5 148,-30.5 148,-0.5 17,-0.5"/>
<text text-anchor="start" x="25" y="-18.5" font-family="Helvetica,sans-Serif" font-size="10.00">Control::ControlInternal</text>
<text text-anchor="middle" x="82.5" y="-7.5" font-family="Helvetica,sans-Serif" font-size="10.00">Members</text>
</a>
</g>
</g>
<!-- Node2 -->
<g id="node2" class="node">
<title>Node2</title>
<g id="a_node2"><a xlink:title=" ">
<polygon fill="white" stroke="#bfbfbf" points="0,-221.5 0,-240.5 59,-240.5 59,-221.5 0,-221.5"/>
<text text-anchor="middle" x="29.5" y="-228.5" font-family="Helvetica,sans-Serif" font-size="10.00">Vector3d</text>
</a>
</g>
</g>
<!-- Node2&#45;&gt;Node1 -->
<g id="edge1" class="edge">
<title>Node2&#45;&gt;Node1</title>
<path fill="none" stroke="#9a32cd" stroke-dasharray="5,2" d="M24.06,-211.26C15.15,-176.66 1.2,-101.52 30.5,-49 34.75,-41.38 41.62,-35.3 48.98,-30.57"/>
<polygon fill="#9a32cd" stroke="#9a32cd" points="20.8,-212.62 26.82,-221.34 27.55,-210.77 20.8,-212.62"/>
<text text-anchor="middle" x="72.5" y="-195" font-family="Helvetica,sans-Serif" font-size="10.00"> angular_error</text>
<text text-anchor="start" x="30.5" y="-184" font-family="Helvetica,sans-Serif" font-size="10.00">angular_position</text>
<text text-anchor="middle" x="72.5" y="-173" font-family="Helvetica,sans-Serif" font-size="10.00">_desired</text>
<text text-anchor="start" x="30.5" y="-162" font-family="Helvetica,sans-Serif" font-size="10.00">angular_position</text>
<text text-anchor="middle" x="72.5" y="-151" font-family="Helvetica,sans-Serif" font-size="10.00">_desired_dot</text>
<text text-anchor="start" x="30.5" y="-140" font-family="Helvetica,sans-Serif" font-size="10.00">angular_position</text>
<text text-anchor="middle" x="72.5" y="-129" font-family="Helvetica,sans-Serif" font-size="10.00">_desired_dot_dot</text>
<text text-anchor="start" x="30.5" y="-118" font-family="Helvetica,sans-Serif" font-size="10.00">euler_angles_rpy</text>
<text text-anchor="middle" x="72.5" y="-107" font-family="Helvetica,sans-Serif" font-size="10.00">_dot</text>
<text text-anchor="middle" x="72.5" y="-96" font-family="Helvetica,sans-Serif" font-size="10.00">mu_translational</text>
<text text-anchor="start" x="30.5" y="-85" font-family="Helvetica,sans-Serif" font-size="10.00">mu_translational</text>
<text text-anchor="middle" x="72.5" y="-74" font-family="Helvetica,sans-Serif" font-size="10.00">_raw</text>
<text text-anchor="start" x="30.5" y="-63" font-family="Helvetica,sans-Serif" font-size="10.00">translational</text>
<text text-anchor="middle" x="72.5" y="-52" font-family="Helvetica,sans-Serif" font-size="10.00">_position_error</text>
</g>
<!-- Node3 -->
<g id="node3" class="node">
<title>Node3</title>
<g id="a_node3"><a xlink:title=" ">
<polygon fill="white" stroke="#bfbfbf" points="106.5,-221.5 106.5,-240.5 166.5,-240.5 166.5,-221.5 106.5,-221.5"/>
<text text-anchor="middle" x="136.5" y="-228.5" font-family="Helvetica,sans-Serif" font-size="10.00">Matrix3d</text>
</a>
</g>
</g>
<!-- Node3&#45;&gt;Node1 -->
<g id="edge2" class="edge">
<title>Node3&#45;&gt;Node1</title>
<path fill="none" stroke="#9a32cd" stroke-dasharray="5,2" d="M138.06,-211.17C140.09,-177 140.69,-103.31 114.5,-49 111.2,-42.15 105.87,-35.87 100.51,-30.69"/>
<polygon fill="#9a32cd" stroke="#9a32cd" points="134.57,-210.93 137.36,-221.15 141.55,-211.43 134.57,-210.93"/>
<text text-anchor="middle" x="200.5" y="-134.5" font-family="Helvetica,sans-Serif" font-size="10.00"> jacobian_matrix_inverse</text>
<text text-anchor="start" x="138.5" y="-123.5" font-family="Helvetica,sans-Serif" font-size="10.00">rotation_matrix_321</text>
<text text-anchor="middle" x="200.5" y="-112.5" font-family="Helvetica,sans-Serif" font-size="10.00">_global_to_local</text>
</g>
</g>
</svg>
