<?xml version="1.0" encoding="UTF-8" standalone="no"?>
<!DOCTYPE svg PUBLIC "-//W3C//DTD SVG 1.1//EN"
 "http://www.w3.org/Graphics/SVG/1.1/DTD/svg11.dtd">
<!-- Generated by graphviz version 2.43.0 (0)
 -->
<!-- Title: ACSL&#45;flightstack/include/flightstack/pixhawk_interface/vehicle_state.hpp Pages: 1 -->
<svg width="282pt" height="106pt"
 viewBox="0.00 0.00 281.50 106.00" xmlns="http://www.w3.org/2000/svg" xmlns:xlink="http://www.w3.org/1999/xlink">
<g id="graph0" class="graph" transform="scale(1 1) rotate(0) translate(4 102)">
<title>ACSL&#45;flightstack/include/flightstack/pixhawk_interface/vehicle_state.hpp</title>
<polygon fill="white" stroke="transparent" points="-4,4 -4,-102 277.5,-102 277.5,4 -4,4"/>
<!-- Node1 -->
<g id="node1" class="node">
<title>Node1</title>
<g id="a_node1"><a xlink:title="Class storing the state of the vehicle coming from the flight controller (Pixhawk)">
<polygon fill="#bfbfbf" stroke="black" points="37,-56.5 37,-97.5 201,-97.5 201,-56.5 37,-56.5"/>
<text text-anchor="start" x="45" y="-85.5" font-family="Helvetica,sans-Serif" font-size="10.00">ACSL&#45;flightstack/include</text>
<text text-anchor="start" x="45" y="-74.5" font-family="Helvetica,sans-Serif" font-size="10.00">/flightstack/pixhawk_interface</text>
<text text-anchor="middle" x="119" y="-63.5" font-family="Helvetica,sans-Serif" font-size="10.00">/vehicle_state.hpp</text>
</a>
</g>
</g>
<!-- Node2 -->
<g id="node2" class="node">
<title>Node2</title>
<g id="a_node2"><a xlink:title=" ">
<polygon fill="white" stroke="#bfbfbf" points="0,-0.5 0,-19.5 44,-19.5 44,-0.5 0,-0.5"/>
<text text-anchor="middle" x="22" y="-7.5" font-family="Helvetica,sans-Serif" font-size="10.00">string</text>
</a>
</g>
</g>
<!-- Node1&#45;&gt;Node2 -->
<g id="edge1" class="edge">
<title>Node1&#45;&gt;Node2</title>
<path fill="none" stroke="midnightblue" d="M89.9,-56.5C75.02,-46.53 57.24,-34.61 43.6,-25.48"/>
<polygon fill="midnightblue" stroke="midnightblue" points="45.17,-22.31 34.91,-19.65 41.27,-28.13 45.17,-22.31"/>
</g>
<!-- Node3 -->
<g id="node3" class="node">
<title>Node3</title>
<g id="a_node3"><a xlink:title=" ">
<polygon fill="white" stroke="#bfbfbf" points="62.5,-0.5 62.5,-19.5 109.5,-19.5 109.5,-0.5 62.5,-0.5"/>
<text text-anchor="middle" x="86" y="-7.5" font-family="Helvetica,sans-Serif" font-size="10.00">cmath</text>
</a>
</g>
</g>
<!-- Node1&#45;&gt;Node3 -->
<g id="edge2" class="edge">
<title>Node1&#45;&gt;Node3</title>
<path fill="none" stroke="midnightblue" d="M109.1,-56.5C104.62,-47.68 99.37,-37.34 95.01,-28.74"/>
<polygon fill="midnightblue" stroke="midnightblue" points="98.04,-26.98 90.39,-19.65 91.8,-30.15 98.04,-26.98"/>
</g>
<!-- Node4 -->
<g id="node4" class="node">
<title>Node4</title>
<g id="a_node4"><a xlink:title=" ">
<polygon fill="white" stroke="#bfbfbf" points="128,-0.5 128,-19.5 178,-19.5 178,-0.5 128,-0.5"/>
<text text-anchor="middle" x="153" y="-7.5" font-family="Helvetica,sans-Serif" font-size="10.00">atomic</text>
</a>
</g>
</g>
<!-- Node1&#45;&gt;Node4 -->
<g id="edge3" class="edge">
<title>Node1&#45;&gt;Node4</title>
<path fill="none" stroke="midnightblue" d="M129.2,-56.5C133.81,-47.68 139.22,-37.34 143.72,-28.74"/>
<polygon fill="midnightblue" stroke="midnightblue" points="146.94,-30.14 148.47,-19.65 140.74,-26.89 146.94,-30.14"/>
</g>
<!-- Node5 -->
<g id="node5" class="node">
<title>Node5</title>
<g id="a_node5"><a xlink:title=" ">
<polygon fill="white" stroke="#bfbfbf" points="196.5,-0.5 196.5,-19.5 273.5,-19.5 273.5,-0.5 196.5,-0.5"/>
<text text-anchor="middle" x="235" y="-7.5" font-family="Helvetica,sans-Serif" font-size="10.00">Eigen/Dense</text>
</a>
</g>
</g>
<!-- Node1&#45;&gt;Node5 -->
<g id="edge4" class="edge">
<title>Node1&#45;&gt;Node5</title>
<path fill="none" stroke="midnightblue" d="M153.8,-56.5C172.1,-46.24 194.09,-33.93 210.56,-24.69"/>
<polygon fill="midnightblue" stroke="midnightblue" points="212.55,-27.59 219.56,-19.65 209.12,-21.49 212.55,-27.59"/>
</g>
</g>
</svg>
