<?xml version="1.0" encoding="UTF-8" standalone="no"?>
<!DOCTYPE svg PUBLIC "-//W3C//DTD SVG 1.1//EN"
 "http://www.w3.org/Graphics/SVG/1.1/DTD/svg11.dtd">
<!-- Generated by graphviz version 2.43.0 (0)
 -->
<!-- Title: PID Pages: 1 -->
<!--zoomable 631 -->
<svg id="main" version="1.1" xmlns="http://www.w3.org/2000/svg" xmlns:xlink="http://www.w3.org/1999/xlink" xml:space="preserve" onload="init(evt)">
<style type="text/css"><![CDATA[
.edge:hover path { stroke: red; }
.edge:hover polygon { stroke: red; fill: red; }
]]></style>
<script type="text/javascript"><![CDATA[
var edges = document.getElementsByTagName('g');
if (edges && edges.length) {
  for (var i=0;i<edges.length;i++) {
    if (edges[i].id.substr(0,4)=='edge') {
      edges[i].setAttribute('class','edge');
    }
  }
}
]]></script>
        <defs>
                <circle id="rim" cx="0" cy="0" r="7"/>
                <circle id="rim2" cx="0" cy="0" r="3.5"/>
                <g id="zoomPlus">
                        <use xlink:href="#rim" fill="#404040">
                                <set attributeName="fill" to="#808080" begin="zoomplus.mouseover" end="zoomplus.mouseout"/>
                        </use>
                        <path d="M-4,0h8M0,-4v8" fill="none" stroke="white" stroke-width="1.5" pointer-events="none"/>
                </g>
                <g id="zoomMin">
                        <use xlink:href="#rim" fill="#404040">
                                <set attributeName="fill" to="#808080" begin="zoomminus.mouseover" end="zoomminus.mouseout"/>
                        </use>
                        <path d="M-4,0h8" fill="none" stroke="white" stroke-width="1.5" pointer-events="none"/>
                </g>
                <g id="dirArrow">
                        <path fill="none" stroke="white" stroke-width="1.5" d="M0,-3.0v7 M-2.5,-0.5L0,-3.0L2.5,-0.5"/>
                </g>
               <g id="resetDef">
                       <use xlink:href="#rim2" fill="#404040">
                               <set attributeName="fill" to="#808080" begin="reset.mouseover" end="reset.mouseout"/>
                       </use>
               </g>
        </defs>

<script type="text/javascript">
var viewWidth = 867;
var viewHeight = 631;
var sectionId = 'dynsection-1';
</script>
<script xlink:href="svgpan.js"/>
<svg id="graph" class="graph">
<g id="viewport">
<title>PID</title>
<polygon fill="white" stroke="transparent" points="-4,4 -4,-627 863,-627 863,4 -4,4"/>
<!-- Node1 -->
<g id="node1" class="node">
<title>Node1</title>
<g id="a_node1"><a xlink:title="PID.">
<polygon fill="#bfbfbf" stroke="black" points="826,-185.5 826,-204.5 859,-204.5 859,-185.5 826,-185.5"/>
<text text-anchor="middle" x="842.5" y="-192.5" font-family="Helvetica,sans-Serif" font-size="10.00">PID</text>
</a>
</g>
</g>
<!-- Node2 -->
<g id="node2" class="node">
<title>Node2</title>
<g id="a_node2"><a xlink:href="classControl.html" target="_top" xlink:title="Control class.">
<polygon fill="white" stroke="black" points="673.5,-137.5 673.5,-156.5 725.5,-156.5 725.5,-137.5 673.5,-137.5"/>
<text text-anchor="middle" x="699.5" y="-144.5" font-family="Helvetica,sans-Serif" font-size="10.00">Control</text>
</a>
</g>
</g>
<!-- Node2&#45;&gt;Node1 -->
<g id="edge1" class="edge">
<title>Node2&#45;&gt;Node1</title>
<path fill="none" stroke="midnightblue" d="M735.43,-158.89C764.3,-168.72 803.97,-182.22 825.7,-189.62"/>
<polygon fill="midnightblue" stroke="midnightblue" points="736.3,-155.49 725.71,-155.58 734.05,-162.12 736.3,-155.49"/>
</g>
<!-- Node3 -->
<g id="node3" class="node">
<title>Node3</title>
<g id="a_node3"><a xlink:href="structControl_1_1ControlInternalMembers.html" target="_top" xlink:title="This struct contains the variables that are commmon among all controllers as they are the foundations...">
<polygon fill="white" stroke="black" points="305.5,-185 305.5,-215 436.5,-215 436.5,-185 305.5,-185"/>
<text text-anchor="start" x="313.5" y="-203" font-family="Helvetica,sans-Serif" font-size="10.00">Control::ControlInternal</text>
<text text-anchor="middle" x="371" y="-192" font-family="Helvetica,sans-Serif" font-size="10.00">Members</text>
</a>
</g>
</g>
<!-- Node3&#45;&gt;Node2 -->
<g id="edge2" class="edge">
<title>Node3&#45;&gt;Node2</title>
<path fill="none" stroke="#9a32cd" stroke-dasharray="5,2" d="M446.52,-187.9C519.11,-176.12 625.32,-158.88 673.31,-151.09"/>
<polygon fill="#9a32cd" stroke="#9a32cd" points="445.82,-184.47 436.51,-189.53 446.94,-191.38 445.82,-184.47"/>
<text text-anchor="middle" x="544" y="-187" font-family="Helvetica,sans-Serif" font-size="10.00"> cim</text>
</g>
<!-- Node4 -->
<g id="node4" class="node">
<title>Node4</title>
<g id="a_node4"><a xlink:title=" ">
<polygon fill="white" stroke="#bfbfbf" points="39,-423.5 39,-442.5 98,-442.5 98,-423.5 39,-423.5"/>
<text text-anchor="middle" x="68.5" y="-430.5" font-family="Helvetica,sans-Serif" font-size="10.00">Vector3d</text>
</a>
</g>
</g>
<!-- Node4&#45;&gt;Node3 -->
<g id="edge3" class="edge">
<title>Node4&#45;&gt;Node3</title>
<path fill="none" stroke="#9a32cd" stroke-dasharray="5,2" d="M81.9,-414.92C96.79,-394.71 123.71,-362.64 155,-346 204.49,-319.68 231.47,-352.71 279,-323 321.57,-296.39 350.88,-242.03 363.31,-215.4"/>
<polygon fill="#9a32cd" stroke="#9a32cd" points="78.89,-413.1 75.93,-423.27 84.59,-417.17 78.89,-413.1"/>
<text text-anchor="middle" x="217" y="-492" font-family="Helvetica,sans-Serif" font-size="10.00"> angular_error</text>
<text text-anchor="start" x="175" y="-481" font-family="Helvetica,sans-Serif" font-size="10.00">angular_position</text>
<text text-anchor="middle" x="217" y="-470" font-family="Helvetica,sans-Serif" font-size="10.00">_desired</text>
<text text-anchor="start" x="175" y="-459" font-family="Helvetica,sans-Serif" font-size="10.00">angular_position</text>
<text text-anchor="middle" x="217" y="-448" font-family="Helvetica,sans-Serif" font-size="10.00">_desired_dot</text>
<text text-anchor="start" x="175" y="-437" font-family="Helvetica,sans-Serif" font-size="10.00">angular_position</text>
<text text-anchor="middle" x="217" y="-426" font-family="Helvetica,sans-Serif" font-size="10.00">_desired_dot_dot</text>
<text text-anchor="start" x="175" y="-415" font-family="Helvetica,sans-Serif" font-size="10.00">euler_angles_rpy</text>
<text text-anchor="middle" x="217" y="-404" font-family="Helvetica,sans-Serif" font-size="10.00">_dot</text>
<text text-anchor="middle" x="217" y="-393" font-family="Helvetica,sans-Serif" font-size="10.00">mu_translational</text>
<text text-anchor="start" x="175" y="-382" font-family="Helvetica,sans-Serif" font-size="10.00">mu_translational</text>
<text text-anchor="middle" x="217" y="-371" font-family="Helvetica,sans-Serif" font-size="10.00">_raw</text>
<text text-anchor="start" x="175" y="-360" font-family="Helvetica,sans-Serif" font-size="10.00">translational</text>
<text text-anchor="middle" x="217" y="-349" font-family="Helvetica,sans-Serif" font-size="10.00">_position_error</text>
</g>
<!-- Node15 -->
<g id="node15" class="node">
<title>Node15</title>
<g id="a_node15"><a xlink:href="structPID_1_1ControllerSpecificInternalMembers.html" target="_top" xlink:title="This struct contains the variables that are used in this particular controller.">
<polygon fill="white" stroke="black" points="463,-260 463,-290 625,-290 625,-260 463,-260"/>
<text text-anchor="start" x="471" y="-278" font-family="Helvetica,sans-Serif" font-size="10.00">PID::ControllerSpecificInternal</text>
<text text-anchor="middle" x="544" y="-267" font-family="Helvetica,sans-Serif" font-size="10.00">Members</text>
</a>
</g>
</g>
<!-- Node4&#45;&gt;Node15 -->
<g id="edge16" class="edge">
<title>Node4&#45;&gt;Node15</title>
<path fill="none" stroke="#9a32cd" stroke-dasharray="5,2" d="M84.57,-450.09C100.26,-466.49 126.51,-490.17 155,-500 207.1,-517.98 227.29,-519.05 279,-500 397.39,-456.39 498.81,-333.47 531.75,-290.26"/>
<polygon fill="#9a32cd" stroke="#9a32cd" points="87.11,-447.69 77.74,-442.72 81.97,-452.44 87.11,-447.69"/>
<text text-anchor="middle" x="217" y="-615" font-family="Helvetica,sans-Serif" font-size="10.00"> inner_loop_D</text>
<text text-anchor="middle" x="217" y="-604" font-family="Helvetica,sans-Serif" font-size="10.00">inner_loop_I</text>
<text text-anchor="middle" x="217" y="-593" font-family="Helvetica,sans-Serif" font-size="10.00">inner_loop_P</text>
<text text-anchor="start" x="167" y="-582" font-family="Helvetica,sans-Serif" font-size="10.00">inner_loop_dynamic</text>
<text text-anchor="middle" x="217" y="-571" font-family="Helvetica,sans-Serif" font-size="10.00">_inversion</text>
<text text-anchor="middle" x="217" y="-560" font-family="Helvetica,sans-Serif" font-size="10.00">outer_loop_D</text>
<text text-anchor="middle" x="217" y="-549" font-family="Helvetica,sans-Serif" font-size="10.00">outer_loop_I</text>
<text text-anchor="middle" x="217" y="-538" font-family="Helvetica,sans-Serif" font-size="10.00">outer_loop_P</text>
<text text-anchor="start" x="167" y="-527" font-family="Helvetica,sans-Serif" font-size="10.00">outer_loop_dynamic</text>
<text text-anchor="middle" x="217" y="-516" font-family="Helvetica,sans-Serif" font-size="10.00">_inversion</text>
</g>
<!-- Node5 -->
<g id="node5" class="node">
<title>Node5</title>
<g id="a_node5"><a xlink:title=" ">
<polygon fill="white" stroke="#bfbfbf" points="38.5,-218.5 38.5,-237.5 98.5,-237.5 98.5,-218.5 38.5,-218.5"/>
<text text-anchor="middle" x="68.5" y="-225.5" font-family="Helvetica,sans-Serif" font-size="10.00">Matrix3d</text>
</a>
</g>
</g>
<!-- Node5&#45;&gt;Node3 -->
<g id="edge4" class="edge">
<title>Node5&#45;&gt;Node3</title>
<path fill="none" stroke="#9a32cd" stroke-dasharray="5,2" d="M102.71,-214.95C118.32,-209.48 137.34,-203.76 155,-201 204.97,-193.18 262.27,-193.36 305.15,-195.26"/>
<polygon fill="#9a32cd" stroke="#9a32cd" points="101.2,-211.77 92.99,-218.47 103.59,-218.35 101.2,-211.77"/>
<text text-anchor="middle" x="217" y="-226" font-family="Helvetica,sans-Serif" font-size="10.00"> jacobian_matrix_inverse</text>
<text text-anchor="start" x="155" y="-215" font-family="Helvetica,sans-Serif" font-size="10.00">rotation_matrix_321</text>
<text text-anchor="middle" x="217" y="-204" font-family="Helvetica,sans-Serif" font-size="10.00">_global_to_local</text>
</g>
<!-- Node14 -->
<g id="node14" class="node">
<title>Node14</title>
<g id="a_node14"><a xlink:href="structGainsPID.html" target="_top" xlink:title="Struct containing the PID tuning gains coming from the .json file.">
<polygon fill="white" stroke="black" points="513.5,-227.5 513.5,-246.5 574.5,-246.5 574.5,-227.5 513.5,-227.5"/>
<text text-anchor="middle" x="544" y="-234.5" font-family="Helvetica,sans-Serif" font-size="10.00">GainsPID</text>
</a>
</g>
</g>
<!-- Node5&#45;&gt;Node14 -->
<g id="edge14" class="edge">
<title>Node5&#45;&gt;Node14</title>
<path fill="none" stroke="#9a32cd" stroke-dasharray="5,2" d="M108.89,-231.28C123.38,-232.35 139.92,-233.41 155,-234 288.61,-239.2 448.3,-238.14 513.29,-237.4"/>
<polygon fill="#9a32cd" stroke="#9a32cd" points="109,-227.78 98.76,-230.51 108.46,-234.76 109,-227.78"/>
<text text-anchor="middle" x="217" y="-295" font-family="Helvetica,sans-Serif" font-size="10.00"> KD_rotational</text>
<text text-anchor="middle" x="217" y="-284" font-family="Helvetica,sans-Serif" font-size="10.00">KD_translational</text>
<text text-anchor="middle" x="217" y="-273" font-family="Helvetica,sans-Serif" font-size="10.00">KI_rotational</text>
<text text-anchor="middle" x="217" y="-262" font-family="Helvetica,sans-Serif" font-size="10.00">KI_translational</text>
<text text-anchor="middle" x="217" y="-251" font-family="Helvetica,sans-Serif" font-size="10.00">KP_rotational</text>
<text text-anchor="middle" x="217" y="-240" font-family="Helvetica,sans-Serif" font-size="10.00">KP_translational</text>
</g>
<!-- Node6 -->
<g id="node6" class="node">
<title>Node6</title>
<g id="a_node6"><a xlink:href="structControl_1_1ControlReferences.html" target="_top" xlink:title="Struct that encapsulates references to external variables to be used inside the computeControlAlgorit...">
<polygon fill="white" stroke="black" points="297,-38.5 297,-57.5 445,-57.5 445,-38.5 297,-38.5"/>
<text text-anchor="middle" x="371" y="-45.5" font-family="Helvetica,sans-Serif" font-size="10.00">Control::ControlReferences</text>
</a>
</g>
</g>
<!-- Node6&#45;&gt;Node2 -->
<g id="edge5" class="edge">
<title>Node6&#45;&gt;Node2</title>
<path fill="none" stroke="#9a32cd" stroke-dasharray="5,2" d="M447.54,-37.8C502.43,-34.63 575.46,-39.73 625,-79 643.18,-93.41 626.41,-111.78 643,-128 651.15,-135.98 662.8,-140.61 673.31,-143.3"/>
<polygon fill="#9a32cd" stroke="#9a32cd" points="447.26,-34.31 437.52,-38.48 447.73,-41.29 447.26,-34.31"/>
<text text-anchor="middle" x="544" y="-82" font-family="Helvetica,sans-Serif" font-size="10.00"> cr</text>
</g>
<!-- Node7 -->
<g id="node7" class="node">
<title>Node7</title>
<g id="a_node7"><a xlink:href="structVehicleInfo.html" target="_top" xlink:title="Vehicle Info.">
<polygon fill="white" stroke="black" points="335.5,-120.5 335.5,-139.5 406.5,-139.5 406.5,-120.5 335.5,-120.5"/>
<text text-anchor="middle" x="371" y="-127.5" font-family="Helvetica,sans-Serif" font-size="10.00">VehicleInfo</text>
</a>
</g>
</g>
<!-- Node7&#45;&gt;Node2 -->
<g id="edge6" class="edge">
<title>Node7&#45;&gt;Node2</title>
<path fill="none" stroke="#9a32cd" stroke-dasharray="5,2" d="M416.85,-132.34C486.52,-135.96 618.44,-142.83 673.44,-145.7"/>
<polygon fill="#9a32cd" stroke="#9a32cd" points="416.8,-128.83 406.63,-131.8 416.44,-135.82 416.8,-128.83"/>
<text text-anchor="middle" x="544" y="-146" font-family="Helvetica,sans-Serif" font-size="10.00"> vehicle_info</text>
</g>
<!-- Node8 -->
<g id="node8" class="node">
<title>Node8</title>
<g id="a_node8"><a xlink:title=" ">
<polygon fill="white" stroke="#bfbfbf" points="38.5,-114.5 38.5,-133.5 98.5,-133.5 98.5,-114.5 38.5,-114.5"/>
<text text-anchor="middle" x="68.5" y="-121.5" font-family="Helvetica,sans-Serif" font-size="10.00">Matrix2d</text>
</a>
</g>
</g>
<!-- Node8&#45;&gt;Node7 -->
<g id="edge7" class="edge">
<title>Node8&#45;&gt;Node7</title>
<path fill="none" stroke="#9a32cd" stroke-dasharray="5,2" d="M108.92,-123.44C123.41,-123.26 139.95,-123.09 155,-123 210.11,-122.68 223.93,-120.89 279,-123 297.68,-123.72 318.48,-125.26 335.47,-126.72"/>
<polygon fill="#9a32cd" stroke="#9a32cd" points="108.74,-119.94 98.78,-123.57 108.83,-126.94 108.74,-119.94"/>
<text text-anchor="middle" x="217" y="-170" font-family="Helvetica,sans-Serif" font-size="10.00"> A_filter_pitch_des</text>
<text text-anchor="start" x="167" y="-159" font-family="Helvetica,sans-Serif" font-size="10.00">A_filter_pitch_dot</text>
<text text-anchor="middle" x="217" y="-148" font-family="Helvetica,sans-Serif" font-size="10.00">_des</text>
<text text-anchor="middle" x="217" y="-137" font-family="Helvetica,sans-Serif" font-size="10.00">A_filter_roll_des</text>
<text text-anchor="middle" x="217" y="-126" font-family="Helvetica,sans-Serif" font-size="10.00">A_filter_roll_dot_des</text>
</g>
<!-- Node9 -->
<g id="node9" class="node">
<title>Node9</title>
<g id="a_node9"><a xlink:href="classMultiThreadedNode.html" target="_top" xlink:title="Multithreaded Node Class.">
<polygon fill="white" stroke="black" points="314.5,-76.5 314.5,-95.5 427.5,-95.5 427.5,-76.5 314.5,-76.5"/>
<text text-anchor="middle" x="371" y="-83.5" font-family="Helvetica,sans-Serif" font-size="10.00">MultiThreadedNode</text>
</a>
</g>
</g>
<!-- Node9&#45;&gt;Node2 -->
<g id="edge8" class="edge">
<title>Node9&#45;&gt;Node2</title>
<path fill="none" stroke="#9a32cd" stroke-dasharray="5,2" d="M437.52,-90.84C489.08,-95.65 562.43,-104.75 625,-121 633.31,-123.16 634.94,-125.05 643,-128 652.85,-131.6 663.76,-135.38 673.28,-138.61"/>
<polygon fill="#9a32cd" stroke="#9a32cd" points="437.78,-87.35 427.5,-89.93 437.15,-94.32 437.78,-87.35"/>
<text text-anchor="middle" x="544" y="-124" font-family="Helvetica,sans-Serif" font-size="10.00"> node_</text>
</g>
<!-- Node10 -->
<g id="node10" class="node">
<title>Node10</title>
<g id="a_node10"><a xlink:title=" ">
<polygon fill="white" stroke="#bfbfbf" points="30,-0.5 30,-19.5 107,-19.5 107,-0.5 30,-0.5"/>
<text text-anchor="middle" x="68.5" y="-7.5" font-family="Helvetica,sans-Serif" font-size="10.00">rclcpp::Node</text>
</a>
</g>
</g>
<!-- Node10&#45;&gt;Node9 -->
<g id="edge9" class="edge">
<title>Node10&#45;&gt;Node9</title>
<path fill="none" stroke="midnightblue" d="M117.13,-13.55C160.9,-18.22 226.71,-28.91 279,-53 288.2,-57.24 287.91,-62.52 297,-67 304.75,-70.82 313.36,-73.93 321.87,-76.45"/>
<polygon fill="midnightblue" stroke="midnightblue" points="117.35,-10.05 107.05,-12.53 116.65,-17.02 117.35,-10.05"/>
</g>
<!-- Node11 -->
<g id="node11" class="node">
<title>Node11</title>
<g id="a_node11"><a xlink:href="structConfigurationParameters.html" target="_top" xlink:title="Configurations Parameters set from config.json.">
<polygon fill="white" stroke="black" points="0,-76.5 0,-95.5 137,-95.5 137,-76.5 0,-76.5"/>
<text text-anchor="middle" x="68.5" y="-83.5" font-family="Helvetica,sans-Serif" font-size="10.00">ConfigurationParameters</text>
</a>
</g>
</g>
<!-- Node11&#45;&gt;Node9 -->
<g id="edge10" class="edge">
<title>Node11&#45;&gt;Node9</title>
<path fill="none" stroke="#9a32cd" stroke-dasharray="5,2" d="M147.57,-86C199.92,-86 267.61,-86 314.5,-86"/>
<polygon fill="#9a32cd" stroke="#9a32cd" points="147.31,-82.5 137.31,-86 147.31,-89.5 147.31,-82.5"/>
<text text-anchor="middle" x="217" y="-89" font-family="Helvetica,sans-Serif" font-size="10.00"> config_</text>
</g>
<!-- Node12 -->
<g id="node12" class="node">
<title>Node12</title>
<g id="a_node12"><a xlink:href="structGlobalParameters.html" target="_top" xlink:title="Global parameteres shared among all the program.">
<polygon fill="white" stroke="black" points="16.5,-38.5 16.5,-57.5 120.5,-57.5 120.5,-38.5 16.5,-38.5"/>
<text text-anchor="middle" x="68.5" y="-45.5" font-family="Helvetica,sans-Serif" font-size="10.00">GlobalParameters</text>
</a>
</g>
</g>
<!-- Node12&#45;&gt;Node9 -->
<g id="edge11" class="edge">
<title>Node12&#45;&gt;Node9</title>
<path fill="none" stroke="#9a32cd" stroke-dasharray="5,2" d="M130.85,-53.85C172.67,-58.06 229.27,-64.18 279,-71 290.74,-72.61 303.29,-74.54 315.21,-76.48"/>
<polygon fill="#9a32cd" stroke="#9a32cd" points="131.12,-50.36 120.82,-52.85 130.43,-57.33 131.12,-50.36"/>
<text text-anchor="middle" x="217" y="-74" font-family="Helvetica,sans-Serif" font-size="10.00"> global_params_</text>
</g>
<!-- Node13 -->
<g id="node13" class="node">
<title>Node13</title>
<g id="a_node13"><a xlink:href="structPID_1_1StateController.html" target="_top" xlink:title="This struct represents the state of the PID controller differential equations that will be at each RK...">
<polygon fill="white" stroke="black" points="643,-99.5 643,-118.5 756,-118.5 756,-99.5 643,-99.5"/>
<text text-anchor="middle" x="699.5" y="-106.5" font-family="Helvetica,sans-Serif" font-size="10.00">PID::StateController</text>
</a>
</g>
</g>
<!-- Node13&#45;&gt;Node1 -->
<g id="edge12" class="edge">
<title>Node13&#45;&gt;Node1</title>
<path fill="none" stroke="#9a32cd" stroke-dasharray="5,2" d="M742.67,-122.04C763.74,-129.93 788.77,-141.5 808,-157 818.41,-165.39 828.27,-177.21 834.56,-185.44"/>
<polygon fill="#9a32cd" stroke="#9a32cd" points="743.59,-118.66 732.99,-118.57 741.22,-125.25 743.59,-118.66"/>
<text text-anchor="middle" x="791" y="-160" font-family="Helvetica,sans-Serif" font-size="10.00"> state_</text>
</g>
<!-- Node14&#45;&gt;Node1 -->
<g id="edge13" class="edge">
<title>Node14&#45;&gt;Node1</title>
<path fill="none" stroke="#9a32cd" stroke-dasharray="5,2" d="M584.55,-231.4C650.63,-222.04 780.7,-203.61 825.72,-197.24"/>
<polygon fill="#9a32cd" stroke="#9a32cd" points="583.92,-227.95 574.51,-232.82 584.91,-234.88 583.92,-227.95"/>
<text text-anchor="middle" x="699.5" y="-226" font-family="Helvetica,sans-Serif" font-size="10.00"> gains_</text>
</g>
<!-- Node15&#45;&gt;Node1 -->
<g id="edge15" class="edge">
<title>Node15&#45;&gt;Node1</title>
<path fill="none" stroke="#9a32cd" stroke-dasharray="5,2" d="M635.11,-263.8C672.9,-257.92 717.03,-249.5 756,-238 780.07,-230.9 785.74,-227.59 808,-216 814.58,-212.58 821.56,-208.3 827.45,-204.51"/>
<polygon fill="#9a32cd" stroke="#9a32cd" points="634.5,-260.35 625.14,-265.31 635.55,-267.27 634.5,-260.35"/>
<text text-anchor="middle" x="699.5" y="-265" font-family="Helvetica,sans-Serif" font-size="10.00"> csim_</text>
</g>
</g>
</svg>
        <g id="navigator" transform="translate(0 0)" fill="#404254">
                <rect fill="#f2f5e9" fill-opacity="0.5" stroke="#606060" stroke-width=".5" x="0" y="0" width="60" height="60"/>
                <use id="zoomplus" xlink:href="#zoomPlus" x="17" y="9" onmousedown="handleZoom(evt,'in')"/>
                <use id="zoomminus" xlink:href="#zoomMin" x="42" y="9" onmousedown="handleZoom(evt,'out')"/>
                <use id="reset" xlink:href="#resetDef" x="30" y="36" onmousedown="handleReset()"/>
                <g id="arrowUp" xlink:href="#dirArrow" transform="translate(30 24)" onmousedown="handlePan(0,-1)">
                  <use xlink:href="#rim" fill="#404040">
                        <set attributeName="fill" to="#808080" begin="arrowUp.mouseover" end="arrowUp.mouseout"/>
                  </use>
                  <path fill="none" stroke="white" stroke-width="1.5" d="M0,-3.0v7 M-2.5,-0.5L0,-3.0L2.5,-0.5"/>
                </g>
                <g id="arrowRight" xlink:href="#dirArrow" transform="rotate(90) translate(36 -43)" onmousedown="handlePan(1,0)">
                  <use xlink:href="#rim" fill="#404040">
                        <set attributeName="fill" to="#808080" begin="arrowRight.mouseover" end="arrowRight.mouseout"/>
                  </use>
                  <path fill="none" stroke="white" stroke-width="1.5" d="M0,-3.0v7 M-2.5,-0.5L0,-3.0L2.5,-0.5"/>
                </g>
                <g id="arrowDown" xlink:href="#dirArrow" transform="rotate(180) translate(-30 -48)" onmousedown="handlePan(0,1)">
                  <use xlink:href="#rim" fill="#404040">
                        <set attributeName="fill" to="#808080" begin="arrowDown.mouseover" end="arrowDown.mouseout"/>
                  </use>
                  <path fill="none" stroke="white" stroke-width="1.5" d="M0,-3.0v7 M-2.5,-0.5L0,-3.0L2.5,-0.5"/>
                </g>
                <g id="arrowLeft" xlink:href="#dirArrow" transform="rotate(270) translate(-36 17)" onmousedown="handlePan(-1,0)">
                  <use xlink:href="#rim" fill="#404040">
                        <set attributeName="fill" to="#808080" begin="arrowLeft.mouseover" end="arrowLeft.mouseout"/>
                  </use>
                  <path fill="none" stroke="white" stroke-width="1.5" d="M0,-3.0v7 M-2.5,-0.5L0,-3.0L2.5,-0.5"/>
                </g>
        </g>
        <svg viewBox="0 0 15 15" width="100%" height="30px" preserveAspectRatio="xMaxYMin meet">
         <g id="arrow_out" transform="scale(0.3 0.3)">
          <a xlink:href="classPID__coll__graph_org.svg" target="_base">
           <rect id="button" ry="5" rx="5" y="6" x="6" height="38" width="38"
                fill="#f2f5e9" fill-opacity="0.5" stroke="#606060" stroke-width="1.0"/>
           <path id="arrow"
             d="M 11.500037,31.436501 C 11.940474,20.09759 22.043105,11.32322 32.158766,21.979434 L 37.068811,17.246167 C 37.068811,17.246167 37.088388,32 37.088388,32 L 22.160133,31.978069 C 22.160133,31.978069 26.997745,27.140456 26.997745,27.140456 C 18.528582,18.264221 13.291696,25.230495 11.500037,31.436501 z"
             style="fill:#404040;"/>
          </a>
         </g>
        </svg>
</svg>
