<?xml version="1.0" encoding="UTF-8" standalone="no"?>
<!DOCTYPE svg PUBLIC "-//W3C//DTD SVG 1.1//EN"
 "http://www.w3.org/Graphics/SVG/1.1/DTD/svg11.dtd">
<!-- Generated by graphviz version 2.43.0 (0)
 -->
<!-- Title: _drivers_::_udp_driver_::UdpReceiverNode Pages: 1 -->
<svg width="250pt" height="117pt"
 viewBox="0.00 0.00 250.00 117.00" xmlns="http://www.w3.org/2000/svg" xmlns:xlink="http://www.w3.org/1999/xlink">
<g id="graph0" class="graph" transform="scale(1 1) rotate(0) translate(4 113)">
<title>_drivers_::_udp_driver_::UdpReceiverNode</title>
<polygon fill="white" stroke="transparent" points="-4,4 -4,-113 246,-113 246,4 -4,4"/>
<!-- Node1 -->
<g id="node1" class="node">
<title>Node1</title>
<g id="a_node1"><a xlink:title="UdpReceiverNode class which can recieve UDP datagrams.">
<polygon fill="#bfbfbf" stroke="black" points="53,-0.5 53,-30.5 177,-30.5 177,-0.5 53,-0.5"/>
<text text-anchor="start" x="61" y="-18.5" font-family="Helvetica,sans-Serif" font-size="10.00">_drivers_::_udp_driver</text>
<text text-anchor="middle" x="115" y="-7.5" font-family="Helvetica,sans-Serif" font-size="10.00">_::UdpReceiverNode</text>
</a>
</g>
</g>
<!-- Node2 -->
<g id="node2" class="node">
<title>Node2</title>
<g id="a_node2"><a xlink:title=" ">
<polygon fill="white" stroke="#bfbfbf" points="0,-84 0,-103 100,-103 100,-84 0,-84"/>
<text text-anchor="middle" x="50" y="-91" font-family="Helvetica,sans-Serif" font-size="10.00">lc::LifecycleNode</text>
</a>
</g>
</g>
<!-- Node2&#45;&gt;Node1 -->
<g id="edge1" class="edge">
<title>Node2&#45;&gt;Node1</title>
<path fill="none" stroke="midnightblue" d="M63.99,-76.14C75.62,-62.55 91.98,-43.42 103.01,-30.52"/>
<polygon fill="midnightblue" stroke="midnightblue" points="61.3,-73.91 57.46,-83.78 66.62,-78.46 61.3,-73.91"/>
</g>
<!-- Node3 -->
<g id="node3" class="node">
<title>Node3</title>
<g id="a_node3"><a xlink:href="struct__drivers___1_1__udp__driver___1_1mocap__states.html" target="_top" xlink:title="Define struct variables to store parsed data.">
<polygon fill="white" stroke="black" points="118,-78.5 118,-108.5 242,-108.5 242,-78.5 118,-78.5"/>
<text text-anchor="start" x="126" y="-96.5" font-family="Helvetica,sans-Serif" font-size="10.00">_drivers_::_udp_driver</text>
<text text-anchor="middle" x="180" y="-85.5" font-family="Helvetica,sans-Serif" font-size="10.00">_::mocap_states</text>
</a>
</g>
</g>
<!-- Node3&#45;&gt;Node1 -->
<g id="edge2" class="edge">
<title>Node3&#45;&gt;Node1</title>
<path fill="none" stroke="#9a32cd" stroke-dasharray="5,2" d="M161.02,-70.31C150.09,-57.53 136.69,-41.86 127.17,-30.73"/>
<polygon fill="#9a32cd" stroke="#9a32cd" points="158.61,-72.88 167.77,-78.2 163.93,-68.33 158.61,-72.88"/>
<text text-anchor="middle" x="160.5" y="-52" font-family="Helvetica,sans-Serif" font-size="10.00"> mc</text>
</g>
</g>
</svg>
