<?xml version="1.0" encoding="UTF-8" standalone="no"?>
<!DOCTYPE svg PUBLIC "-//W3C//DTD SVG 1.1//EN"
 "http://www.w3.org/Graphics/SVG/1.1/DTD/svg11.dtd">
<!-- Generated by graphviz version 2.43.0 (0)
 -->
<!-- Title: Control Pages: 1 -->
<svg width="106pt" height="84pt"
 viewBox="0.00 0.00 105.50 84.00" xmlns="http://www.w3.org/2000/svg" xmlns:xlink="http://www.w3.org/1999/xlink">
<g id="graph0" class="graph" transform="scale(1 1) rotate(0) translate(4 80)">
<title>Control</title>
<polygon fill="white" stroke="transparent" points="-4,4 -4,-80 101.5,-80 101.5,4 -4,4"/>
<!-- Node1 -->
<g id="node1" class="node">
<title>Node1</title>
<g id="a_node1"><a xlink:title="Control class.">
<polygon fill="#bfbfbf" stroke="black" points="26,-56.5 26,-75.5 78,-75.5 78,-56.5 26,-56.5"/>
<text text-anchor="middle" x="52" y="-63.5" font-family="Helvetica,sans-Serif" font-size="10.00">Control</text>
</a>
</g>
</g>
<!-- Node2 -->
<g id="node2" class="node">
<title>Node2</title>
<g id="a_node2"><a xlink:href="classMRAC.html" target="_top" xlink:title=" ">
<polygon fill="white" stroke="black" points="0,-0.5 0,-19.5 46,-19.5 46,-0.5 0,-0.5"/>
<text text-anchor="middle" x="23" y="-7.5" font-family="Helvetica,sans-Serif" font-size="10.00">MRAC</text>
</a>
</g>
</g>
<!-- Node1&#45;&gt;Node2 -->
<g id="edge1" class="edge">
<title>Node1&#45;&gt;Node2</title>
<path fill="none" stroke="midnightblue" d="M42.32,-46.98C37.4,-37.82 31.64,-27.09 27.7,-19.75"/>
<polygon fill="midnightblue" stroke="midnightblue" points="39.4,-48.93 47.21,-56.08 45.56,-45.62 39.4,-48.93"/>
</g>
<!-- Node3 -->
<g id="node3" class="node">
<title>Node3</title>
<g id="a_node3"><a xlink:href="classPID.html" target="_top" xlink:title="PID.">
<polygon fill="white" stroke="black" points="64.5,-0.5 64.5,-19.5 97.5,-19.5 97.5,-0.5 64.5,-0.5"/>
<text text-anchor="middle" x="81" y="-7.5" font-family="Helvetica,sans-Serif" font-size="10.00">PID</text>
</a>
</g>
</g>
<!-- Node1&#45;&gt;Node3 -->
<g id="edge2" class="edge">
<title>Node1&#45;&gt;Node3</title>
<path fill="none" stroke="midnightblue" d="M61.68,-46.98C66.6,-37.82 72.36,-27.09 76.3,-19.75"/>
<polygon fill="midnightblue" stroke="midnightblue" points="58.44,-45.62 56.79,-56.08 64.6,-48.93 58.44,-45.62"/>
</g>
</g>
</svg>
