<?xml version="1.0" encoding="UTF-8" standalone="no"?>
<!DOCTYPE svg PUBLIC "-//W3C//DTD SVG 1.1//EN"
 "http://www.w3.org/Graphics/SVG/1.1/DTD/svg11.dtd">
<!-- Generated by graphviz version 2.43.0 (0)
 -->
<!-- Title: MRAC Pages: 1 -->
<svg width="814pt" height="778pt"
 viewBox="0.00 0.00 814.00 778.48" xmlns="http://www.w3.org/2000/svg" xmlns:xlink="http://www.w3.org/1999/xlink">
<g id="graph0" class="graph" transform="scale(1 1) rotate(0) translate(4 774.48)">
<title>MRAC</title>
<polygon fill="white" stroke="transparent" points="-4,4 -4,-774.48 810,-774.48 810,4 -4,4"/>
<!-- Node1 -->
<g id="node1" class="node">
<title>Node1</title>
<g id="a_node1"><a xlink:title=" ">
<polygon fill="#bfbfbf" stroke="black" points="760,-181.98 760,-200.98 806,-200.98 806,-181.98 760,-181.98"/>
<text text-anchor="middle" x="783" y="-188.98" font-family="Helvetica,sans-Serif" font-size="10.00">MRAC</text>
</a>
</g>
</g>
<!-- Node2 -->
<g id="node2" class="node">
<title>Node2</title>
<g id="a_node2"><a xlink:href="classControl.html" target="_top" xlink:title="Control class.">
<polygon fill="white" stroke="black" points="601.5,-531.98 601.5,-550.98 653.5,-550.98 653.5,-531.98 601.5,-531.98"/>
<text text-anchor="middle" x="627.5" y="-538.98" font-family="Helvetica,sans-Serif" font-size="10.00">Control</text>
</a>
</g>
</g>
<!-- Node2&#45;&gt;Node1 -->
<g id="edge1" class="edge">
<title>Node2&#45;&gt;Node1</title>
<path fill="none" stroke="midnightblue" d="M636.9,-522.34C665.29,-457.6 757.12,-248.21 777.83,-201"/>
<polygon fill="midnightblue" stroke="midnightblue" points="633.58,-521.19 632.77,-531.76 639.99,-524 633.58,-521.19"/>
</g>
<!-- Node3 -->
<g id="node3" class="node">
<title>Node3</title>
<g id="a_node3"><a xlink:href="structControl_1_1ControlInternalMembers.html" target="_top" xlink:title="This struct contains the variables that are commmon among all controllers as they are the foundations...">
<polygon fill="white" stroke="black" points="315.5,-416.48 315.5,-446.48 446.5,-446.48 446.5,-416.48 315.5,-416.48"/>
<text text-anchor="start" x="323.5" y="-434.48" font-family="Helvetica,sans-Serif" font-size="10.00">Control::ControlInternal</text>
<text text-anchor="middle" x="381" y="-423.48" font-family="Helvetica,sans-Serif" font-size="10.00">Members</text>
</a>
</g>
</g>
<!-- Node3&#45;&gt;Node2 -->
<g id="edge2" class="edge">
<title>Node3&#45;&gt;Node2</title>
<path fill="none" stroke="#9a32cd" stroke-dasharray="5,2" d="M424.92,-450.79C477.7,-474.54 565.21,-513.91 605.28,-531.94"/>
<polygon fill="#9a32cd" stroke="#9a32cd" points="426.04,-447.46 415.48,-446.55 423.17,-453.84 426.04,-447.46"/>
<text text-anchor="middle" x="510" y="-505.48" font-family="Helvetica,sans-Serif" font-size="10.00"> cim</text>
</g>
<!-- Node4 -->
<g id="node4" class="node">
<title>Node4</title>
<g id="a_node4"><a xlink:title=" ">
<polygon fill="white" stroke="#bfbfbf" points="39,-338.98 39,-357.98 98,-357.98 98,-338.98 39,-338.98"/>
<text text-anchor="middle" x="68.5" y="-345.98" font-family="Helvetica,sans-Serif" font-size="10.00">Vector3d</text>
</a>
</g>
</g>
<!-- Node4&#45;&gt;Node3 -->
<g id="edge3" class="edge">
<title>Node4&#45;&gt;Node3</title>
<path fill="none" stroke="#9a32cd" stroke-dasharray="5,2" d="M87.11,-365.33C103.34,-379.74 128.83,-399.67 155,-409.48 183.39,-420.12 259.47,-425.93 315.33,-428.87"/>
<polygon fill="#9a32cd" stroke="#9a32cd" points="89.25,-362.54 79.51,-358.37 84.52,-367.71 89.25,-362.54"/>
<text text-anchor="middle" x="222" y="-572.48" font-family="Helvetica,sans-Serif" font-size="10.00"> angular_error</text>
<text text-anchor="start" x="180" y="-561.48" font-family="Helvetica,sans-Serif" font-size="10.00">angular_position</text>
<text text-anchor="middle" x="222" y="-550.48" font-family="Helvetica,sans-Serif" font-size="10.00">_desired</text>
<text text-anchor="start" x="180" y="-539.48" font-family="Helvetica,sans-Serif" font-size="10.00">angular_position</text>
<text text-anchor="middle" x="222" y="-528.48" font-family="Helvetica,sans-Serif" font-size="10.00">_desired_dot</text>
<text text-anchor="start" x="180" y="-517.48" font-family="Helvetica,sans-Serif" font-size="10.00">angular_position</text>
<text text-anchor="middle" x="222" y="-506.48" font-family="Helvetica,sans-Serif" font-size="10.00">_desired_dot_dot</text>
<text text-anchor="start" x="180" y="-495.48" font-family="Helvetica,sans-Serif" font-size="10.00">euler_angles_rpy</text>
<text text-anchor="middle" x="222" y="-484.48" font-family="Helvetica,sans-Serif" font-size="10.00">_dot</text>
<text text-anchor="middle" x="222" y="-473.48" font-family="Helvetica,sans-Serif" font-size="10.00">mu_translational</text>
<text text-anchor="start" x="180" y="-462.48" font-family="Helvetica,sans-Serif" font-size="10.00">mu_translational</text>
<text text-anchor="middle" x="222" y="-451.48" font-family="Helvetica,sans-Serif" font-size="10.00">_raw</text>
<text text-anchor="start" x="180" y="-440.48" font-family="Helvetica,sans-Serif" font-size="10.00">translational</text>
<text text-anchor="middle" x="222" y="-429.48" font-family="Helvetica,sans-Serif" font-size="10.00">_position_error</text>
</g>
<!-- Node13 -->
<g id="node13" class="node">
<title>Node13</title>
<g id="a_node13"><a xlink:href="structMRAC_1_1ControllerSpecificInternalMembers.html" target="_top" xlink:title="This struct contains the variables that are used in this particular controller.">
<polygon fill="white" stroke="black" points="312.5,-199.48 312.5,-229.48 449.5,-229.48 449.5,-199.48 312.5,-199.48"/>
<text text-anchor="start" x="320.5" y="-217.48" font-family="Helvetica,sans-Serif" font-size="10.00">MRAC::ControllerSpecific</text>
<text text-anchor="middle" x="381" y="-206.48" font-family="Helvetica,sans-Serif" font-size="10.00">InternalMembers</text>
</a>
</g>
</g>
<!-- Node4&#45;&gt;Node13 -->
<g id="edge13" class="edge">
<title>Node4&#45;&gt;Node13</title>
<path fill="none" stroke="#9a32cd" stroke-dasharray="5,2" d="M81.82,-330.37C96.64,-310.17 123.5,-278.27 155,-262.48 208.78,-235.53 230.36,-256.88 289,-243.48 305.16,-239.79 322.59,-234.56 337.82,-229.55"/>
<polygon fill="#9a32cd" stroke="#9a32cd" points="78.82,-328.55 75.89,-338.73 84.53,-332.6 78.82,-328.55"/>
<text text-anchor="start" x="155" y="-397.48" font-family="Helvetica,sans-Serif" font-size="10.00"> angular_velocity_error</text>
<text text-anchor="middle" x="222" y="-386.48" font-family="Helvetica,sans-Serif" font-size="10.00">_ref</text>
<text text-anchor="middle" x="222" y="-375.48" font-family="Helvetica,sans-Serif" font-size="10.00">inner_loop_D</text>
<text text-anchor="middle" x="222" y="-364.48" font-family="Helvetica,sans-Serif" font-size="10.00">inner_loop_I</text>
<text text-anchor="middle" x="222" y="-353.48" font-family="Helvetica,sans-Serif" font-size="10.00">inner_loop_P</text>
<text text-anchor="start" x="155" y="-342.48" font-family="Helvetica,sans-Serif" font-size="10.00">inner_loop_dynamic</text>
<text text-anchor="middle" x="222" y="-331.48" font-family="Helvetica,sans-Serif" font-size="10.00">_inversion</text>
<text text-anchor="middle" x="222" y="-320.48" font-family="Helvetica,sans-Serif" font-size="10.00">omega_cmd_dot_rotational</text>
<text text-anchor="middle" x="222" y="-309.48" font-family="Helvetica,sans-Serif" font-size="10.00">omega_cmd_rotational</text>
<text text-anchor="middle" x="222" y="-298.48" font-family="Helvetica,sans-Serif" font-size="10.00">omega_ref_dot_rotational</text>
<text text-anchor="middle" x="222" y="-287.48" font-family="Helvetica,sans-Serif" font-size="10.00">outer_loop_D</text>
<text text-anchor="middle" x="222" y="-276.48" font-family="Helvetica,sans-Serif" font-size="10.00">outer_loop_I</text>
<text text-anchor="middle" x="222" y="-265.48" font-family="Helvetica,sans-Serif" font-size="10.00">...</text>
</g>
<!-- Node5 -->
<g id="node5" class="node">
<title>Node5</title>
<g id="a_node5"><a xlink:title=" ">
<polygon fill="white" stroke="#bfbfbf" points="38.5,-154.98 38.5,-173.98 98.5,-173.98 98.5,-154.98 38.5,-154.98"/>
<text text-anchor="middle" x="68.5" y="-161.98" font-family="Helvetica,sans-Serif" font-size="10.00">Matrix3d</text>
</a>
</g>
</g>
<!-- Node5&#45;&gt;Node3 -->
<g id="edge4" class="edge">
<title>Node5&#45;&gt;Node3</title>
<path fill="none" stroke="#9a32cd" stroke-dasharray="5,2" d="M108.26,-175.98C122.82,-180.02 139.58,-184.33 155,-187.48 184.47,-193.51 265.31,-187.96 289,-206.48 297.9,-213.44 355.77,-366.7 374.3,-416.21"/>
<polygon fill="#9a32cd" stroke="#9a32cd" points="109.15,-172.6 98.57,-173.25 107.25,-179.33 109.15,-172.6"/>
<text text-anchor="middle" x="222" y="-231.48" font-family="Helvetica,sans-Serif" font-size="10.00"> jacobian_matrix_inverse</text>
<text text-anchor="start" x="160" y="-220.48" font-family="Helvetica,sans-Serif" font-size="10.00">rotation_matrix_321</text>
<text text-anchor="middle" x="222" y="-209.48" font-family="Helvetica,sans-Serif" font-size="10.00">_global_to_local</text>
</g>
<!-- Node5&#45;&gt;Node13 -->
<g id="edge14" class="edge">
<title>Node5&#45;&gt;Node13</title>
<path fill="none" stroke="#9a32cd" stroke-dasharray="5,2" d="M108.94,-159C153.44,-154.1 227.63,-149.86 289,-165.48 314.91,-172.08 341.49,-187.6 359.18,-199.41"/>
<polygon fill="#9a32cd" stroke="#9a32cd" points="108.36,-155.54 98.83,-160.18 109.17,-162.49 108.36,-155.54"/>
<text text-anchor="middle" x="222" y="-179.48" font-family="Helvetica,sans-Serif" font-size="10.00"> jacobian_matrix</text>
<text text-anchor="middle" x="222" y="-168.48" font-family="Helvetica,sans-Serif" font-size="10.00">jacobian_matrix_dot</text>
</g>
<!-- Node15 -->
<g id="node15" class="node">
<title>Node15</title>
<g id="a_node15"><a xlink:href="structGainsMRAC.html" target="_top" xlink:title="struct containing the MRAC tuning gains coming from the .json file">
<polygon fill="white" stroke="black" points="473,-39.98 473,-58.98 547,-58.98 547,-39.98 473,-39.98"/>
<text text-anchor="middle" x="510" y="-46.98" font-family="Helvetica,sans-Serif" font-size="10.00">GainsMRAC</text>
</a>
</g>
</g>
<!-- Node5&#45;&gt;Node15 -->
<g id="edge17" class="edge">
<title>Node5&#45;&gt;Node15</title>
<path fill="none" stroke="#9a32cd" stroke-dasharray="5,2" d="M75.03,-145.33C85.13,-114.4 109.78,-54.37 155,-29.48 265.01,31.06 424.49,-17.59 484.73,-39.85"/>
<polygon fill="#9a32cd" stroke="#9a32cd" points="71.67,-144.37 72.06,-154.96 78.35,-146.44 71.67,-144.37"/>
<text text-anchor="middle" x="222" y="-142.48" font-family="Helvetica,sans-Serif" font-size="10.00"> KD_refmod_translational</text>
<text text-anchor="middle" x="222" y="-131.48" font-family="Helvetica,sans-Serif" font-size="10.00">KD_rotational</text>
<text text-anchor="middle" x="222" y="-120.48" font-family="Helvetica,sans-Serif" font-size="10.00">KD_translational</text>
<text text-anchor="middle" x="222" y="-109.48" font-family="Helvetica,sans-Serif" font-size="10.00">KI_omega_cmd_rotational</text>
<text text-anchor="middle" x="222" y="-98.48" font-family="Helvetica,sans-Serif" font-size="10.00">KI_omega_ref_rotational</text>
<text text-anchor="middle" x="222" y="-87.48" font-family="Helvetica,sans-Serif" font-size="10.00">KI_refmod_translational</text>
<text text-anchor="middle" x="222" y="-76.48" font-family="Helvetica,sans-Serif" font-size="10.00">KI_rotational</text>
<text text-anchor="middle" x="222" y="-65.48" font-family="Helvetica,sans-Serif" font-size="10.00">KI_translational</text>
<text text-anchor="middle" x="222" y="-54.48" font-family="Helvetica,sans-Serif" font-size="10.00">KP_omega_cmd_rotational</text>
<text text-anchor="middle" x="222" y="-43.48" font-family="Helvetica,sans-Serif" font-size="10.00">KP_omega_ref_rotational</text>
<text text-anchor="middle" x="222" y="-32.48" font-family="Helvetica,sans-Serif" font-size="10.00">...</text>
</g>
<!-- Node6 -->
<g id="node6" class="node">
<title>Node6</title>
<g id="a_node6"><a xlink:href="structControl_1_1ControlReferences.html" target="_top" xlink:title="Struct that encapsulates references to external variables to be used inside the computeControlAlgorit...">
<polygon fill="white" stroke="black" points="307,-569.98 307,-588.98 455,-588.98 455,-569.98 307,-569.98"/>
<text text-anchor="middle" x="381" y="-576.98" font-family="Helvetica,sans-Serif" font-size="10.00">Control::ControlReferences</text>
</a>
</g>
</g>
<!-- Node6&#45;&gt;Node2 -->
<g id="edge5" class="edge">
<title>Node6&#45;&gt;Node2</title>
<path fill="none" stroke="#9a32cd" stroke-dasharray="5,2" d="M465.47,-568.64C491.61,-565.03 520.54,-560.82 547,-556.48 565.3,-553.48 585.86,-549.59 601.49,-546.52"/>
<polygon fill="#9a32cd" stroke="#9a32cd" points="464.65,-565.22 455.22,-570.04 465.6,-572.16 464.65,-565.22"/>
<text text-anchor="middle" x="510" y="-569.48" font-family="Helvetica,sans-Serif" font-size="10.00"> cr</text>
</g>
<!-- Node7 -->
<g id="node7" class="node">
<title>Node7</title>
<g id="a_node7"><a xlink:href="structVehicleInfo.html" target="_top" xlink:title="Vehicle Info.">
<polygon fill="white" stroke="black" points="345.5,-531.98 345.5,-550.98 416.5,-550.98 416.5,-531.98 345.5,-531.98"/>
<text text-anchor="middle" x="381" y="-538.98" font-family="Helvetica,sans-Serif" font-size="10.00">VehicleInfo</text>
</a>
</g>
</g>
<!-- Node7&#45;&gt;Node2 -->
<g id="edge6" class="edge">
<title>Node7&#45;&gt;Node2</title>
<path fill="none" stroke="#9a32cd" stroke-dasharray="5,2" d="M426.65,-541.48C477.95,-541.48 560.33,-541.48 601.45,-541.48"/>
<polygon fill="#9a32cd" stroke="#9a32cd" points="426.51,-537.98 416.51,-541.48 426.51,-544.98 426.51,-537.98"/>
<text text-anchor="middle" x="510" y="-544.48" font-family="Helvetica,sans-Serif" font-size="10.00"> vehicle_info</text>
</g>
<!-- Node8 -->
<g id="node8" class="node">
<title>Node8</title>
<g id="a_node8"><a xlink:title=" ">
<polygon fill="white" stroke="#bfbfbf" points="38.5,-598.98 38.5,-617.98 98.5,-617.98 98.5,-598.98 38.5,-598.98"/>
<text text-anchor="middle" x="68.5" y="-605.98" font-family="Helvetica,sans-Serif" font-size="10.00">Matrix2d</text>
</a>
</g>
</g>
<!-- Node8&#45;&gt;Node7 -->
<g id="edge7" class="edge">
<title>Node8&#45;&gt;Node7</title>
<path fill="none" stroke="#9a32cd" stroke-dasharray="5,2" d="M108.45,-613.92C154.83,-618.4 233.02,-619.48 289,-586.48 301.11,-579.35 295.48,-568.53 307,-560.48 318.16,-552.68 332.3,-548.08 345.16,-545.37"/>
<polygon fill="#9a32cd" stroke="#9a32cd" points="108.82,-610.44 98.5,-612.86 108.07,-617.4 108.82,-610.44"/>
<text text-anchor="middle" x="222" y="-662.48" font-family="Helvetica,sans-Serif" font-size="10.00"> A_filter_pitch_des</text>
<text text-anchor="start" x="172" y="-651.48" font-family="Helvetica,sans-Serif" font-size="10.00">A_filter_pitch_dot</text>
<text text-anchor="middle" x="222" y="-640.48" font-family="Helvetica,sans-Serif" font-size="10.00">_des</text>
<text text-anchor="middle" x="222" y="-629.48" font-family="Helvetica,sans-Serif" font-size="10.00">A_filter_roll_des</text>
<text text-anchor="middle" x="222" y="-618.48" font-family="Helvetica,sans-Serif" font-size="10.00">A_filter_roll_dot_des</text>
</g>
<!-- Node9 -->
<g id="node9" class="node">
<title>Node9</title>
<g id="a_node9"><a xlink:href="classMultiThreadedNode.html" target="_top" xlink:title="Multithreaded Node Class.">
<polygon fill="white" stroke="black" points="324.5,-694.98 324.5,-713.98 437.5,-713.98 437.5,-694.98 324.5,-694.98"/>
<text text-anchor="middle" x="381" y="-701.98" font-family="Helvetica,sans-Serif" font-size="10.00">MultiThreadedNode</text>
</a>
</g>
</g>
<!-- Node9&#45;&gt;Node2 -->
<g id="edge8" class="edge">
<title>Node9&#45;&gt;Node2</title>
<path fill="none" stroke="#9a32cd" stroke-dasharray="5,2" d="M405.05,-689.12C454.82,-655.93 571.17,-578.37 612.01,-551.14"/>
<polygon fill="#9a32cd" stroke="#9a32cd" points="402.94,-686.32 396.56,-694.77 406.82,-692.14 402.94,-686.32"/>
<text text-anchor="middle" x="510" y="-644.48" font-family="Helvetica,sans-Serif" font-size="10.00"> node_</text>
</g>
<!-- Node10 -->
<g id="node10" class="node">
<title>Node10</title>
<g id="a_node10"><a xlink:title=" ">
<polygon fill="white" stroke="#bfbfbf" points="30,-750.98 30,-769.98 107,-769.98 107,-750.98 30,-750.98"/>
<text text-anchor="middle" x="68.5" y="-757.98" font-family="Helvetica,sans-Serif" font-size="10.00">rclcpp::Node</text>
</a>
</g>
</g>
<!-- Node10&#45;&gt;Node9 -->
<g id="edge9" class="edge">
<title>Node10&#45;&gt;Node9</title>
<path fill="none" stroke="midnightblue" d="M117.09,-756.37C161.8,-752 230.4,-743.97 289,-731.48 310.44,-726.92 334.16,-719.81 352.01,-714.03"/>
<polygon fill="midnightblue" stroke="midnightblue" points="116.71,-752.89 107.09,-757.33 117.38,-759.86 116.71,-752.89"/>
</g>
<!-- Node11 -->
<g id="node11" class="node">
<title>Node11</title>
<g id="a_node11"><a xlink:href="structConfigurationParameters.html" target="_top" xlink:title="Configurations Parameters set from config.json.">
<polygon fill="white" stroke="black" points="0,-712.98 0,-731.98 137,-731.98 137,-712.98 0,-712.98"/>
<text text-anchor="middle" x="68.5" y="-719.98" font-family="Helvetica,sans-Serif" font-size="10.00">ConfigurationParameters</text>
</a>
</g>
</g>
<!-- Node11&#45;&gt;Node9 -->
<g id="edge10" class="edge">
<title>Node11&#45;&gt;Node9</title>
<path fill="none" stroke="#9a32cd" stroke-dasharray="5,2" d="M147.33,-717.97C202.41,-714.78 274.96,-710.57 324.31,-707.71"/>
<polygon fill="#9a32cd" stroke="#9a32cd" points="147.04,-714.48 137.26,-718.56 147.44,-721.47 147.04,-714.48"/>
<text text-anchor="middle" x="222" y="-719.48" font-family="Helvetica,sans-Serif" font-size="10.00"> config_</text>
</g>
<!-- Node12 -->
<g id="node12" class="node">
<title>Node12</title>
<g id="a_node12"><a xlink:href="structGlobalParameters.html" target="_top" xlink:title="Global parameteres shared among all the program.">
<polygon fill="white" stroke="black" points="16.5,-674.98 16.5,-693.98 120.5,-693.98 120.5,-674.98 16.5,-674.98"/>
<text text-anchor="middle" x="68.5" y="-681.98" font-family="Helvetica,sans-Serif" font-size="10.00">GlobalParameters</text>
</a>
</g>
</g>
<!-- Node12&#45;&gt;Node9 -->
<g id="edge11" class="edge">
<title>Node12&#45;&gt;Node9</title>
<path fill="none" stroke="#9a32cd" stroke-dasharray="5,2" d="M130.82,-686.23C174.88,-687.74 235.66,-690.34 289,-694.48 300.41,-695.37 312.6,-696.55 324.23,-697.78"/>
<polygon fill="#9a32cd" stroke="#9a32cd" points="130.67,-682.72 120.56,-685.89 130.44,-689.72 130.67,-682.72"/>
<text text-anchor="middle" x="222" y="-697.48" font-family="Helvetica,sans-Serif" font-size="10.00"> global_params_</text>
</g>
<!-- Node13&#45;&gt;Node1 -->
<g id="edge12" class="edge">
<title>Node13&#45;&gt;Node1</title>
<path fill="none" stroke="#9a32cd" stroke-dasharray="5,2" d="M459.64,-214.73C532.74,-214.14 645.16,-211.11 742,-199.48 747.77,-198.79 753.94,-197.72 759.67,-196.59"/>
<polygon fill="#9a32cd" stroke="#9a32cd" points="459.57,-211.23 449.6,-214.8 459.62,-218.23 459.57,-211.23"/>
<text text-anchor="middle" x="627.5" y="-214.48" font-family="Helvetica,sans-Serif" font-size="10.00"> csim_</text>
</g>
<!-- Node14 -->
<g id="node14" class="node">
<title>Node14</title>
<g id="a_node14"><a xlink:href="structMRAC_1_1StateController.html" target="_top" xlink:title="This struct represents the state of the MRAC controller differential equations that will be integrate...">
<polygon fill="white" stroke="black" points="565,-158.98 565,-177.98 690,-177.98 690,-158.98 565,-158.98"/>
<text text-anchor="middle" x="627.5" y="-165.98" font-family="Helvetica,sans-Serif" font-size="10.00">MRAC::StateController</text>
</a>
</g>
</g>
<!-- Node14&#45;&gt;Node1 -->
<g id="edge15" class="edge">
<title>Node14&#45;&gt;Node1</title>
<path fill="none" stroke="#9a32cd" stroke-dasharray="5,2" d="M699.98,-179.19C721.73,-182.45 744.04,-185.8 759.89,-188.17"/>
<polygon fill="#9a32cd" stroke="#9a32cd" points="700.46,-175.73 690.05,-177.71 699.42,-182.65 700.46,-175.73"/>
<text text-anchor="middle" x="725" y="-187.48" font-family="Helvetica,sans-Serif" font-size="10.00"> state_</text>
</g>
<!-- Node15&#45;&gt;Node1 -->
<g id="edge16" class="edge">
<title>Node15&#45;&gt;Node1</title>
<path fill="none" stroke="#9a32cd" stroke-dasharray="5,2" d="M540.7,-63.56C576.45,-80.67 638.13,-110.68 690,-138.48 716.97,-152.94 747.65,-170.93 765.88,-181.8"/>
<polygon fill="#9a32cd" stroke="#9a32cd" points="541.87,-60.24 531.34,-59.1 538.86,-66.56 541.87,-60.24"/>
<text text-anchor="middle" x="627.5" y="-141.48" font-family="Helvetica,sans-Serif" font-size="10.00"> gains_</text>
</g>
</g>
</svg>
