<?xml version="1.0" encoding="UTF-8" standalone="no"?>
<!DOCTYPE svg PUBLIC "-//W3C//DTD SVG 1.1//EN"
 "http://www.w3.org/Graphics/SVG/1.1/DTD/svg11.dtd">
<!-- Generated by graphviz version 2.43.0 (0)
 -->
<!-- Title: ACSL&#45;flightstack/include/flightstack/config/config.hpp Pages: 1 -->
<svg width="2188pt" height="262pt"
 viewBox="0.00 0.00 2188.00 262.00" xmlns="http://www.w3.org/2000/svg" xmlns:xlink="http://www.w3.org/1999/xlink">
<g id="graph0" class="graph" transform="scale(1 1) rotate(0) translate(4 258)">
<title>ACSL&#45;flightstack/include/flightstack/config/config.hpp</title>
<polygon fill="white" stroke="transparent" points="-4,4 -4,-258 2184,-258 2184,4 -4,4"/>
<!-- Node1 -->
<g id="node1" class="node">
<title>Node1</title>
<g id="a_node1"><a xlink:title="Configuration file. Here you specify which cotroller you want to run at compile time.">
<polygon fill="#bfbfbf" stroke="black" points="853.5,-223.5 853.5,-253.5 1009.5,-253.5 1009.5,-223.5 853.5,-223.5"/>
<text text-anchor="start" x="861.5" y="-241.5" font-family="Helvetica,sans-Serif" font-size="10.00">ACSL&#45;flightstack/include</text>
<text text-anchor="middle" x="931.5" y="-230.5" font-family="Helvetica,sans-Serif" font-size="10.00">/flightstack/config/config.hpp</text>
</a>
</g>
</g>
<!-- Node2 -->
<g id="node2" class="node">
<title>Node2</title>
<g id="a_node2"><a xlink:href="multi__threaded__node_8hpp.html" target="_top" xlink:title="Multithreaded ROS2 node that joins together all the flight stack components.">
<polygon fill="white" stroke="black" points="857.5,-145.5 857.5,-186.5 1005.5,-186.5 1005.5,-145.5 857.5,-145.5"/>
<text text-anchor="start" x="865.5" y="-174.5" font-family="Helvetica,sans-Serif" font-size="10.00">ACSL&#45;flightstack/include</text>
<text text-anchor="start" x="865.5" y="-163.5" font-family="Helvetica,sans-Serif" font-size="10.00">/flightstack/multi_threaded</text>
<text text-anchor="middle" x="931.5" y="-152.5" font-family="Helvetica,sans-Serif" font-size="10.00">_node.hpp</text>
</a>
</g>
</g>
<!-- Node1&#45;&gt;Node2 -->
<g id="edge1" class="edge">
<title>Node1&#45;&gt;Node2</title>
<path fill="none" stroke="midnightblue" d="M931.5,-212.98C931.5,-204.35 931.5,-194.76 931.5,-186.59"/>
<polygon fill="midnightblue" stroke="midnightblue" points="928,-213.23 931.5,-223.23 935,-213.23 928,-213.23"/>
</g>
<!-- Node5 -->
<g id="node5" class="node">
<title>Node5</title>
<g id="a_node5"><a xlink:href="config_8cpp.html" target="_top" xlink:title="Contains the functions that reads the configuration parameters and assigns it to the members of the C...">
<polygon fill="white" stroke="black" points="0,-73 0,-103 113,-103 113,-73 0,-73"/>
<text text-anchor="start" x="8" y="-91" font-family="Helvetica,sans-Serif" font-size="10.00">ACSL&#45;flightstack/src</text>
<text text-anchor="middle" x="56.5" y="-80" font-family="Helvetica,sans-Serif" font-size="10.00">/config/config.cpp</text>
</a>
</g>
</g>
<!-- Node1&#45;&gt;Node5 -->
<g id="edge17" class="edge">
<title>Node1&#45;&gt;Node5</title>
<path fill="none" stroke="midnightblue" d="M843.24,-227.49C693.73,-209.65 381.62,-168.55 122.5,-109 115.15,-107.31 107.42,-105.24 99.94,-103.08"/>
<polygon fill="midnightblue" stroke="midnightblue" points="842.95,-230.98 853.29,-228.69 843.77,-224.03 842.95,-230.98"/>
</g>
<!-- Node18 -->
<g id="node18" class="node">
<title>Node18</title>
<g id="a_node18"><a xlink:href="logging__mocap_8cpp.html" target="_top" xlink:title="Logger for the motion capture (MOCAP) system.">
<polygon fill="white" stroke="black" points="1024,-151 1024,-181 1177,-181 1177,-151 1024,-151"/>
<text text-anchor="start" x="1032" y="-169" font-family="Helvetica,sans-Serif" font-size="10.00">ACSL&#45;flightstack/src</text>
<text text-anchor="middle" x="1100.5" y="-158" font-family="Helvetica,sans-Serif" font-size="10.00">/logging/logging_mocap.cpp</text>
</a>
</g>
</g>
<!-- Node1&#45;&gt;Node18 -->
<g id="edge18" class="edge">
<title>Node1&#45;&gt;Node18</title>
<path fill="none" stroke="midnightblue" d="M974.65,-219.5C1003.27,-207.56 1040.3,-192.11 1066.77,-181.07"/>
<polygon fill="midnightblue" stroke="midnightblue" points="973.18,-216.32 965.29,-223.4 975.87,-222.78 973.18,-216.32"/>
</g>
<!-- Node3 -->
<g id="node3" class="node">
<title>Node3</title>
<g id="a_node3"><a xlink:href="main_8hpp.html" target="_top" xlink:title="Main file.">
<polygon fill="white" stroke="black" points="131.5,-73 131.5,-103 265.5,-103 265.5,-73 131.5,-73"/>
<text text-anchor="start" x="139.5" y="-91" font-family="Helvetica,sans-Serif" font-size="10.00">ACSL&#45;flightstack/include</text>
<text text-anchor="middle" x="198.5" y="-80" font-family="Helvetica,sans-Serif" font-size="10.00">/flightstack/main.hpp</text>
</a>
</g>
</g>
<!-- Node2&#45;&gt;Node3 -->
<g id="edge2" class="edge">
<title>Node2&#45;&gt;Node3</title>
<path fill="none" stroke="midnightblue" d="M846.89,-162.34C721.37,-157.37 478.77,-143.82 275.5,-109 266.38,-107.44 256.76,-105.32 247.52,-103.05"/>
<polygon fill="midnightblue" stroke="midnightblue" points="847.07,-165.85 857.2,-162.74 847.34,-158.86 847.07,-165.85"/>
</g>
<!-- Node2&#45;&gt;Node5 -->
<g id="edge4" class="edge">
<title>Node2&#45;&gt;Node5</title>
<path fill="none" stroke="midnightblue" d="M847.26,-161.57C669.2,-153.94 259.69,-134.2 122.5,-109 114.37,-107.51 105.83,-105.37 97.69,-103.04"/>
<polygon fill="midnightblue" stroke="midnightblue" points="847.23,-165.08 857.37,-162.01 847.52,-158.08 847.23,-165.08"/>
</g>
<!-- Node6 -->
<g id="node6" class="node">
<title>Node6</title>
<g id="a_node6"><a xlink:href="control_8cpp.html" target="_top" xlink:title="This file contains the general class containing the common memvers used by most of the control algori...">
<polygon fill="white" stroke="black" points="284,-73 284,-103 397,-103 397,-73 284,-73"/>
<text text-anchor="start" x="292" y="-91" font-family="Helvetica,sans-Serif" font-size="10.00">ACSL&#45;flightstack/src</text>
<text text-anchor="middle" x="340.5" y="-80" font-family="Helvetica,sans-Serif" font-size="10.00">/control/control.cpp</text>
</a>
</g>
</g>
<!-- Node2&#45;&gt;Node6 -->
<g id="edge5" class="edge">
<title>Node2&#45;&gt;Node6</title>
<path fill="none" stroke="midnightblue" d="M847.2,-160.9C742.87,-154.7 560.16,-140.19 406.5,-109 398.76,-107.43 390.62,-105.34 382.8,-103.1"/>
<polygon fill="midnightblue" stroke="midnightblue" points="847.17,-164.4 857.36,-161.49 847.58,-157.41 847.17,-164.4"/>
</g>
<!-- Node7 -->
<g id="node7" class="node">
<title>Node7</title>
<g id="a_node7"><a xlink:href="control__callback_8cpp.html" target="_top" xlink:title="Callback that is executed at a fixed specified rate defined by the &quot;timer_controller_&quot;.">
<polygon fill="white" stroke="black" points="415.5,-73 415.5,-103 571.5,-103 571.5,-73 415.5,-73"/>
<text text-anchor="start" x="423.5" y="-91" font-family="Helvetica,sans-Serif" font-size="10.00">ACSL&#45;flightstack/src</text>
<text text-anchor="middle" x="493.5" y="-80" font-family="Helvetica,sans-Serif" font-size="10.00">/control/control_callback.cpp</text>
</a>
</g>
</g>
<!-- Node2&#45;&gt;Node7 -->
<g id="edge6" class="edge">
<title>Node2&#45;&gt;Node7</title>
<path fill="none" stroke="midnightblue" d="M847.02,-153.16C775.75,-142.78 671.14,-126.63 580.5,-109 571.37,-107.22 561.74,-105.18 552.35,-103.1"/>
<polygon fill="midnightblue" stroke="midnightblue" points="846.89,-156.68 857.29,-154.65 847.89,-149.75 846.89,-156.68"/>
</g>
<!-- Node8 -->
<g id="node8" class="node">
<title>Node8</title>
<g id="a_node8"><a xlink:href="logging__mrac_8cpp.html" target="_top" xlink:title="Logger for the MRAC controller.">
<polygon fill="white" stroke="black" points="589.5,-67.5 589.5,-108.5 709.5,-108.5 709.5,-67.5 589.5,-67.5"/>
<text text-anchor="start" x="597.5" y="-96.5" font-family="Helvetica,sans-Serif" font-size="10.00">ACSL&#45;flightstack/src</text>
<text text-anchor="start" x="597.5" y="-85.5" font-family="Helvetica,sans-Serif" font-size="10.00">/control/mrac/logging</text>
<text text-anchor="middle" x="649.5" y="-74.5" font-family="Helvetica,sans-Serif" font-size="10.00">_mrac.cpp</text>
</a>
</g>
</g>
<!-- Node2&#45;&gt;Node8 -->
<g id="edge7" class="edge">
<title>Node2&#45;&gt;Node8</title>
<path fill="none" stroke="midnightblue" d="M847.59,-143.25C808.59,-133.03 761.63,-120.58 719.5,-109 716.33,-108.13 713.08,-107.23 709.81,-106.31"/>
<polygon fill="midnightblue" stroke="midnightblue" points="846.77,-146.65 857.33,-145.8 848.54,-139.88 846.77,-146.65"/>
</g>
<!-- Node9 -->
<g id="node9" class="node">
<title>Node9</title>
<g id="a_node9"><a xlink:href="mrac_8cpp.html" target="_top" xlink:title="Implementation of the MRAC controller.">
<polygon fill="white" stroke="black" points="728,-73 728,-103 857,-103 857,-73 728,-73"/>
<text text-anchor="start" x="736" y="-91" font-family="Helvetica,sans-Serif" font-size="10.00">ACSL&#45;flightstack/src</text>
<text text-anchor="middle" x="792.5" y="-80" font-family="Helvetica,sans-Serif" font-size="10.00">/control/mrac/mrac.cpp</text>
</a>
</g>
</g>
<!-- Node2&#45;&gt;Node9 -->
<g id="edge8" class="edge">
<title>Node2&#45;&gt;Node9</title>
<path fill="none" stroke="midnightblue" d="M886.65,-140.48C864.14,-128.17 837.65,-113.69 818.52,-103.23"/>
<polygon fill="midnightblue" stroke="midnightblue" points="885.25,-143.7 895.7,-145.43 888.61,-137.56 885.25,-143.7"/>
</g>
<!-- Node10 -->
<g id="node10" class="node">
<title>Node10</title>
<g id="a_node10"><a xlink:href="logging__pid_8cpp.html" target="_top" xlink:title="Logger for the PID controller.">
<polygon fill="white" stroke="black" points="875,-67.5 875,-108.5 988,-108.5 988,-67.5 875,-67.5"/>
<text text-anchor="start" x="883" y="-96.5" font-family="Helvetica,sans-Serif" font-size="10.00">ACSL&#45;flightstack/src</text>
<text text-anchor="start" x="883" y="-85.5" font-family="Helvetica,sans-Serif" font-size="10.00">/control/pid/logging</text>
<text text-anchor="middle" x="931.5" y="-74.5" font-family="Helvetica,sans-Serif" font-size="10.00">_pid.cpp</text>
</a>
</g>
</g>
<!-- Node2&#45;&gt;Node10 -->
<g id="edge9" class="edge">
<title>Node2&#45;&gt;Node10</title>
<path fill="none" stroke="midnightblue" d="M931.5,-135.3C931.5,-126.3 931.5,-116.65 931.5,-108.51"/>
<polygon fill="midnightblue" stroke="midnightblue" points="928,-135.43 931.5,-145.43 935,-135.43 928,-135.43"/>
</g>
<!-- Node11 -->
<g id="node11" class="node">
<title>Node11</title>
<g id="a_node11"><a xlink:href="pid_8cpp.html" target="_top" xlink:title="Immplementation of the PID controller.">
<polygon fill="white" stroke="black" points="1006,-73 1006,-103 1119,-103 1119,-73 1006,-73"/>
<text text-anchor="start" x="1014" y="-91" font-family="Helvetica,sans-Serif" font-size="10.00">ACSL&#45;flightstack/src</text>
<text text-anchor="middle" x="1062.5" y="-80" font-family="Helvetica,sans-Serif" font-size="10.00">/control/pid/pid.cpp</text>
</a>
</g>
</g>
<!-- Node2&#45;&gt;Node11 -->
<g id="edge10" class="edge">
<title>Node2&#45;&gt;Node11</title>
<path fill="none" stroke="midnightblue" d="M974.05,-140.31C995.21,-128.04 1020.03,-113.64 1037.98,-103.23"/>
<polygon fill="midnightblue" stroke="midnightblue" points="972.13,-137.38 965.24,-145.43 975.64,-143.44 972.13,-137.38"/>
</g>
<!-- Node12 -->
<g id="node12" class="node">
<title>Node12</title>
<g id="a_node12"><a xlink:href="multi__threaded__node_8cpp.html" target="_top" xlink:title="Multithreaded ROS2 ndoe that joins together all the flight stakc components.">
<polygon fill="white" stroke="black" points="1137,-73 1137,-103 1280,-103 1280,-73 1137,-73"/>
<text text-anchor="start" x="1145" y="-91" font-family="Helvetica,sans-Serif" font-size="10.00">ACSL&#45;flightstack/src</text>
<text text-anchor="middle" x="1208.5" y="-80" font-family="Helvetica,sans-Serif" font-size="10.00">/multi_threaded_node.cpp</text>
</a>
</g>
</g>
<!-- Node2&#45;&gt;Node12 -->
<g id="edge11" class="edge">
<title>Node2&#45;&gt;Node12</title>
<path fill="none" stroke="midnightblue" d="M1012.63,-142.74C1059.31,-129.93 1116.57,-114.22 1157.09,-103.11"/>
<polygon fill="midnightblue" stroke="midnightblue" points="1011.55,-139.41 1002.83,-145.43 1013.4,-146.16 1011.55,-139.41"/>
</g>
<!-- Node13 -->
<g id="node13" class="node">
<title>Node13</title>
<g id="a_node13"><a xlink:href="pixhawk__actuator__motors_8cpp.html" target="_top" xlink:title="Callback that is executed at a fixed specified rate defined by the &quot;timer_controller_&quot;.">
<polygon fill="white" stroke="black" points="1298.5,-67.5 1298.5,-108.5 1452.5,-108.5 1452.5,-67.5 1298.5,-67.5"/>
<text text-anchor="start" x="1306.5" y="-96.5" font-family="Helvetica,sans-Serif" font-size="10.00">ACSL&#45;flightstack/src</text>
<text text-anchor="start" x="1306.5" y="-85.5" font-family="Helvetica,sans-Serif" font-size="10.00">/pixhawk_interface/pixhawk</text>
<text text-anchor="middle" x="1375.5" y="-74.5" font-family="Helvetica,sans-Serif" font-size="10.00">_actuator_motors.cpp</text>
</a>
</g>
</g>
<!-- Node2&#45;&gt;Node13 -->
<g id="edge12" class="edge">
<title>Node2&#45;&gt;Node13</title>
<path fill="none" stroke="midnightblue" d="M1015.2,-145.06C1015.3,-145.04 1015.4,-145.02 1015.5,-145 1136.29,-122.75 1168.65,-130.94 1289.5,-109 1292.37,-108.48 1295.28,-107.93 1298.22,-107.35"/>
<polygon fill="midnightblue" stroke="midnightblue" points="1014.77,-141.57 1005.62,-146.92 1016.1,-148.45 1014.77,-141.57"/>
</g>
<!-- Node14 -->
<g id="node14" class="node">
<title>Node14</title>
<g id="a_node14"><a xlink:href="pixhawk__vehicle__odometry_8cpp.html" target="_top" xlink:title="Callback that is executed everytime a VehicleOdometry message is made available by Pixhawk.">
<polygon fill="white" stroke="black" points="1470.5,-67.5 1470.5,-108.5 1624.5,-108.5 1624.5,-67.5 1470.5,-67.5"/>
<text text-anchor="start" x="1478.5" y="-96.5" font-family="Helvetica,sans-Serif" font-size="10.00">ACSL&#45;flightstack/src</text>
<text text-anchor="start" x="1478.5" y="-85.5" font-family="Helvetica,sans-Serif" font-size="10.00">/pixhawk_interface/pixhawk</text>
<text text-anchor="middle" x="1547.5" y="-74.5" font-family="Helvetica,sans-Serif" font-size="10.00">_vehicle_odometry.cpp</text>
</a>
</g>
</g>
<!-- Node2&#45;&gt;Node14 -->
<g id="edge13" class="edge">
<title>Node2&#45;&gt;Node14</title>
<path fill="none" stroke="midnightblue" d="M1015.19,-145.05C1015.3,-145.03 1015.4,-145.02 1015.5,-145 1211.92,-113.88 1265,-139.61 1461.5,-109 1464.38,-108.55 1467.3,-108.06 1470.25,-107.53"/>
<polygon fill="midnightblue" stroke="midnightblue" points="1014.84,-141.56 1005.58,-146.71 1016.03,-148.46 1014.84,-141.56"/>
</g>
<!-- Node15 -->
<g id="node15" class="node">
<title>Node15</title>
<g id="a_node15"><a xlink:href="vehicle__state_8cpp.html" target="_top" xlink:title="Class storing the state of the vehicle coming from the flight controller (Pixhawk)">
<polygon fill="white" stroke="black" points="1642.5,-67.5 1642.5,-108.5 1790.5,-108.5 1790.5,-67.5 1642.5,-67.5"/>
<text text-anchor="start" x="1650.5" y="-96.5" font-family="Helvetica,sans-Serif" font-size="10.00">ACSL&#45;flightstack/src</text>
<text text-anchor="start" x="1650.5" y="-85.5" font-family="Helvetica,sans-Serif" font-size="10.00">/pixhawk_interface/vehicle</text>
<text text-anchor="middle" x="1716.5" y="-74.5" font-family="Helvetica,sans-Serif" font-size="10.00">_state.cpp</text>
</a>
</g>
</g>
<!-- Node2&#45;&gt;Node15 -->
<g id="edge14" class="edge">
<title>Node2&#45;&gt;Node15</title>
<path fill="none" stroke="midnightblue" d="M1015.19,-145.05C1015.3,-145.03 1015.4,-145.01 1015.5,-145 1287.71,-104.98 1361.35,-149.39 1633.5,-109 1636.43,-108.56 1639.41,-108.08 1642.42,-107.54"/>
<polygon fill="midnightblue" stroke="midnightblue" points="1014.87,-141.55 1005.57,-146.62 1016,-148.46 1014.87,-141.55"/>
</g>
<!-- Node16 -->
<g id="node16" class="node">
<title>Node16</title>
<g id="a_node16"><a xlink:href="piecewise__polynomial__trajectory_8cpp.html" target="_top" xlink:title="Piecewise polynomial minimu&#45;jerk trajectory computed offline through a MATLAB script.">
<polygon fill="white" stroke="black" points="1808.5,-67.5 1808.5,-108.5 2008.5,-108.5 2008.5,-67.5 1808.5,-67.5"/>
<text text-anchor="start" x="1816.5" y="-96.5" font-family="Helvetica,sans-Serif" font-size="10.00">ACSL&#45;flightstack/src</text>
<text text-anchor="start" x="1816.5" y="-85.5" font-family="Helvetica,sans-Serif" font-size="10.00">/user_defined_trajectory</text>
<text text-anchor="middle" x="1908.5" y="-74.5" font-family="Helvetica,sans-Serif" font-size="10.00">/piecewise_polynomial_trajectory.cpp</text>
</a>
</g>
</g>
<!-- Node2&#45;&gt;Node16 -->
<g id="edge15" class="edge">
<title>Node2&#45;&gt;Node16</title>
<path fill="none" stroke="midnightblue" d="M1015.19,-145.04C1015.3,-145.03 1015.4,-145.01 1015.5,-145 1360.91,-96.39 1452.94,-148.57 1799.5,-109 1802.46,-108.66 1805.47,-108.29 1808.5,-107.89"/>
<polygon fill="midnightblue" stroke="midnightblue" points="1014.89,-141.55 1005.56,-146.57 1015.98,-148.46 1014.89,-141.55"/>
</g>
<!-- Node17 -->
<g id="node17" class="node">
<title>Node17</title>
<g id="a_node17"><a xlink:href="user__defined__trajectory_8cpp.html" target="_top" xlink:title="Class that contains the common members that each type of user&#45;defined trajectory class will inherit.">
<polygon fill="white" stroke="black" points="2027,-67.5 2027,-108.5 2180,-108.5 2180,-67.5 2027,-67.5"/>
<text text-anchor="start" x="2035" y="-96.5" font-family="Helvetica,sans-Serif" font-size="10.00">ACSL&#45;flightstack/src</text>
<text text-anchor="start" x="2035" y="-85.5" font-family="Helvetica,sans-Serif" font-size="10.00">/user_defined_trajectory</text>
<text text-anchor="middle" x="2103.5" y="-74.5" font-family="Helvetica,sans-Serif" font-size="10.00">/user_defined_trajectory.cpp</text>
</a>
</g>
</g>
<!-- Node2&#45;&gt;Node17 -->
<g id="edge16" class="edge">
<title>Node2&#45;&gt;Node17</title>
<path fill="none" stroke="midnightblue" d="M1015.19,-145.04C1015.3,-145.03 1015.4,-145.01 1015.5,-145 1457.08,-85.1 1575.77,-167.74 2017.5,-109 2020.54,-108.6 2023.63,-108.13 2026.74,-107.62"/>
<polygon fill="midnightblue" stroke="midnightblue" points="1014.9,-141.55 1005.55,-146.53 1015.97,-148.46 1014.9,-141.55"/>
</g>
<!-- Node4 -->
<g id="node4" class="node">
<title>Node4</title>
<g id="a_node4"><a xlink:href="main_8cpp.html" target="_top" xlink:title="FlightStack (Multirotor) main.cpp file.">
<polygon fill="white" stroke="black" points="142,-0.5 142,-30.5 255,-30.5 255,-0.5 142,-0.5"/>
<text text-anchor="start" x="150" y="-18.5" font-family="Helvetica,sans-Serif" font-size="10.00">ACSL&#45;flightstack/src</text>
<text text-anchor="middle" x="198.5" y="-7.5" font-family="Helvetica,sans-Serif" font-size="10.00">/main.cpp</text>
</a>
</g>
</g>
<!-- Node3&#45;&gt;Node4 -->
<g id="edge3" class="edge">
<title>Node3&#45;&gt;Node4</title>
<path fill="none" stroke="midnightblue" d="M198.5,-62.73C198.5,-52.07 198.5,-39.91 198.5,-30.75"/>
<polygon fill="midnightblue" stroke="midnightblue" points="195,-62.73 198.5,-72.73 202,-62.73 195,-62.73"/>
</g>
</g>
</svg>
