<?xml version="1.0" encoding="UTF-8" standalone="no"?>
<!DOCTYPE svg PUBLIC "-//W3C//DTD SVG 1.1//EN"
 "http://www.w3.org/Graphics/SVG/1.1/DTD/svg11.dtd">
<!-- Generated by graphviz version 2.43.0 (0)
 -->
<!-- Title: /mnt/c/Users/siddh/Onedrive/Desktop/ACSL&#45;flightstack/include/flightstack/config/config.hpp Pages: 1 -->
<!--zoomable 328 -->
<svg id="main" version="1.1" xmlns="http://www.w3.org/2000/svg" xmlns:xlink="http://www.w3.org/1999/xlink" xml:space="preserve" onload="init(evt)">
<style type="text/css"><![CDATA[
.edge:hover path { stroke: red; }
.edge:hover polygon { stroke: red; fill: red; }
]]></style>
<script type="text/javascript"><![CDATA[
var edges = document.getElementsByTagName('g');
if (edges && edges.length) {
  for (var i=0;i<edges.length;i++) {
    if (edges[i].id.substr(0,4)=='edge') {
      edges[i].setAttribute('class','edge');
    }
  }
}
]]></script>
        <defs>
                <circle id="rim" cx="0" cy="0" r="7"/>
                <circle id="rim2" cx="0" cy="0" r="3.5"/>
                <g id="zoomPlus">
                        <use xlink:href="#rim" fill="#404040">
                                <set attributeName="fill" to="#808080" begin="zoomplus.mouseover" end="zoomplus.mouseout"/>
                        </use>
                        <path d="M-4,0h8M0,-4v8" fill="none" stroke="white" stroke-width="1.5" pointer-events="none"/>
                </g>
                <g id="zoomMin">
                        <use xlink:href="#rim" fill="#404040">
                                <set attributeName="fill" to="#808080" begin="zoomminus.mouseover" end="zoomminus.mouseout"/>
                        </use>
                        <path d="M-4,0h8" fill="none" stroke="white" stroke-width="1.5" pointer-events="none"/>
                </g>
                <g id="dirArrow">
                        <path fill="none" stroke="white" stroke-width="1.5" d="M0,-3.0v7 M-2.5,-0.5L0,-3.0L2.5,-0.5"/>
                </g>
               <g id="resetDef">
                       <use xlink:href="#rim2" fill="#404040">
                               <set attributeName="fill" to="#808080" begin="reset.mouseover" end="reset.mouseout"/>
                       </use>
               </g>
        </defs>

<script type="text/javascript">
var viewWidth = 2244;
var viewHeight = 328;
var sectionId = 'dynsection-1';
</script>
<script xlink:href="svgpan.js"/>
<svg id="graph" class="graph">
<g id="viewport">
<title>/mnt/c/Users/siddh/Onedrive/Desktop/ACSL&#45;flightstack/include/flightstack/config/config.hpp</title>
<polygon fill="white" stroke="transparent" points="-4,4 -4,-324 2240,-324 2240,4 -4,4"/>
<!-- Node1 -->
<g id="node1" class="node">
<title>Node1</title>
<g id="a_node1"><a xlink:title="Configuration file. Here you specify which cotroller you want to run at compile time.">
<polygon fill="#bfbfbf" stroke="black" points="933.5,-267.5 933.5,-319.5 1097.5,-319.5 1097.5,-267.5 933.5,-267.5"/>
<text text-anchor="start" x="941.5" y="-307.5" font-family="Helvetica,sans-Serif" font-size="10.00">/mnt/c/Users/siddh</text>
<text text-anchor="start" x="941.5" y="-296.5" font-family="Helvetica,sans-Serif" font-size="10.00">/Onedrive/Desktop/ACSL</text>
<text text-anchor="start" x="941.5" y="-285.5" font-family="Helvetica,sans-Serif" font-size="10.00">&#45;flightstack/include/flightstack</text>
<text text-anchor="middle" x="1015.5" y="-274.5" font-family="Helvetica,sans-Serif" font-size="10.00">/config/config.hpp</text>
</a>
</g>
</g>
<!-- Node2 -->
<g id="node2" class="node">
<title>Node2</title>
<g id="a_node2"><a xlink:href="multi__threaded__node_8hpp.html" target="_top" xlink:title="Multithreaded ROS2 node that joins together all the flight stack components.">
<polygon fill="white" stroke="black" points="933.5,-178.5 933.5,-230.5 1097.5,-230.5 1097.5,-178.5 933.5,-178.5"/>
<text text-anchor="start" x="941.5" y="-218.5" font-family="Helvetica,sans-Serif" font-size="10.00">/mnt/c/Users/siddh</text>
<text text-anchor="start" x="941.5" y="-207.5" font-family="Helvetica,sans-Serif" font-size="10.00">/Onedrive/Desktop/ACSL</text>
<text text-anchor="start" x="941.5" y="-196.5" font-family="Helvetica,sans-Serif" font-size="10.00">&#45;flightstack/include/flightstack</text>
<text text-anchor="middle" x="1015.5" y="-185.5" font-family="Helvetica,sans-Serif" font-size="10.00">/multi_threaded_node.hpp</text>
</a>
</g>
</g>
<!-- Node1&#45;&gt;Node2 -->
<g id="edge1" class="edge">
<title>Node1&#45;&gt;Node2</title>
<path fill="none" stroke="midnightblue" d="M1015.5,-257.19C1015.5,-248.28 1015.5,-238.9 1015.5,-230.61"/>
<polygon fill="midnightblue" stroke="midnightblue" points="1012,-257.34 1015.5,-267.34 1019,-257.34 1012,-257.34"/>
</g>
<!-- Node5 -->
<g id="node5" class="node">
<title>Node5</title>
<g id="a_node5"><a xlink:href="config_8cpp.html" target="_top" xlink:title="Contains the functions that reads the configuration parameters and assigns it to the members of the C...">
<polygon fill="white" stroke="black" points="0,-84 0,-136 135,-136 135,-84 0,-84"/>
<text text-anchor="start" x="8" y="-124" font-family="Helvetica,sans-Serif" font-size="10.00">/mnt/c/Users/siddh</text>
<text text-anchor="start" x="8" y="-113" font-family="Helvetica,sans-Serif" font-size="10.00">/Onedrive/Desktop/ACSL</text>
<text text-anchor="start" x="8" y="-102" font-family="Helvetica,sans-Serif" font-size="10.00">&#45;flightstack/src/config</text>
<text text-anchor="middle" x="67.5" y="-91" font-family="Helvetica,sans-Serif" font-size="10.00">/config.cpp</text>
</a>
</g>
</g>
<!-- Node1&#45;&gt;Node5 -->
<g id="edge17" class="edge">
<title>Node1&#45;&gt;Node5</title>
<path fill="none" stroke="midnightblue" d="M923.14,-283.05C762.54,-265.18 422.36,-220.98 144.5,-142 138.4,-140.27 132.12,-138.21 125.91,-136"/>
<polygon fill="midnightblue" stroke="midnightblue" points="923.14,-286.57 933.46,-284.19 923.9,-279.61 923.14,-286.57"/>
</g>
<!-- Node18 -->
<g id="node18" class="node">
<title>Node18</title>
<g id="a_node18"><a xlink:href="logging__mocap_8cpp.html" target="_top" xlink:title="Logger for the motion capture (MOCAP) system.">
<polygon fill="white" stroke="black" points="1116,-178.5 1116,-230.5 1251,-230.5 1251,-178.5 1116,-178.5"/>
<text text-anchor="start" x="1124" y="-218.5" font-family="Helvetica,sans-Serif" font-size="10.00">/mnt/c/Users/siddh</text>
<text text-anchor="start" x="1124" y="-207.5" font-family="Helvetica,sans-Serif" font-size="10.00">/Onedrive/Desktop/ACSL</text>
<text text-anchor="start" x="1124" y="-196.5" font-family="Helvetica,sans-Serif" font-size="10.00">&#45;flightstack/src/logging</text>
<text text-anchor="middle" x="1183.5" y="-185.5" font-family="Helvetica,sans-Serif" font-size="10.00">/logging_mocap.cpp</text>
</a>
</g>
</g>
<!-- Node1&#45;&gt;Node18 -->
<g id="edge18" class="edge">
<title>Node1&#45;&gt;Node18</title>
<path fill="none" stroke="midnightblue" d="M1073.17,-262.64C1093.31,-252.2 1115.7,-240.61 1135.02,-230.61"/>
<polygon fill="midnightblue" stroke="midnightblue" points="1071.36,-259.63 1064.09,-267.34 1074.58,-265.85 1071.36,-259.63"/>
</g>
<!-- Node3 -->
<g id="node3" class="node">
<title>Node3</title>
<g id="a_node3"><a xlink:href="main_8hpp.html" target="_top" xlink:title="Main file.">
<polygon fill="white" stroke="black" points="153.5,-84 153.5,-136 317.5,-136 317.5,-84 153.5,-84"/>
<text text-anchor="start" x="161.5" y="-124" font-family="Helvetica,sans-Serif" font-size="10.00">/mnt/c/Users/siddh</text>
<text text-anchor="start" x="161.5" y="-113" font-family="Helvetica,sans-Serif" font-size="10.00">/Onedrive/Desktop/ACSL</text>
<text text-anchor="start" x="161.5" y="-102" font-family="Helvetica,sans-Serif" font-size="10.00">&#45;flightstack/include/flightstack</text>
<text text-anchor="middle" x="235.5" y="-91" font-family="Helvetica,sans-Serif" font-size="10.00">/main.hpp</text>
</a>
</g>
</g>
<!-- Node2&#45;&gt;Node3 -->
<g id="edge2" class="edge">
<title>Node2&#45;&gt;Node3</title>
<path fill="none" stroke="midnightblue" d="M923.15,-202.13C790.13,-198.61 537.53,-186.13 327.5,-142 319.83,-140.39 311.91,-138.34 304.09,-136.07"/>
<polygon fill="midnightblue" stroke="midnightblue" points="923.21,-205.63 933.3,-202.39 923.39,-198.64 923.21,-205.63"/>
</g>
<!-- Node2&#45;&gt;Node5 -->
<g id="edge4" class="edge">
<title>Node2&#45;&gt;Node5</title>
<path fill="none" stroke="midnightblue" d="M923.46,-198.63C714.95,-187.36 218.85,-159.14 144.5,-142 137.76,-140.45 130.84,-138.38 124.05,-136.06"/>
<polygon fill="midnightblue" stroke="midnightblue" points="923.3,-202.12 933.47,-199.17 923.68,-195.14 923.3,-202.12"/>
</g>
<!-- Node6 -->
<g id="node6" class="node">
<title>Node6</title>
<g id="a_node6"><a xlink:href="control_8cpp.html" target="_top" xlink:title="This file contains the general class containing the common memvers used by most of the control algori...">
<polygon fill="white" stroke="black" points="336,-84 336,-136 471,-136 471,-84 336,-84"/>
<text text-anchor="start" x="344" y="-124" font-family="Helvetica,sans-Serif" font-size="10.00">/mnt/c/Users/siddh</text>
<text text-anchor="start" x="344" y="-113" font-family="Helvetica,sans-Serif" font-size="10.00">/Onedrive/Desktop/ACSL</text>
<text text-anchor="start" x="344" y="-102" font-family="Helvetica,sans-Serif" font-size="10.00">&#45;flightstack/src/control</text>
<text text-anchor="middle" x="403.5" y="-91" font-family="Helvetica,sans-Serif" font-size="10.00">/control.cpp</text>
</a>
</g>
</g>
<!-- Node2&#45;&gt;Node6 -->
<g id="edge5" class="edge">
<title>Node2&#45;&gt;Node6</title>
<path fill="none" stroke="midnightblue" d="M922.96,-200.38C815.21,-195.03 632.59,-180.61 480.5,-142 474.07,-140.37 467.47,-138.32 460.96,-136.06"/>
<polygon fill="midnightblue" stroke="midnightblue" points="922.99,-203.88 933.15,-200.87 923.33,-196.89 922.99,-203.88"/>
</g>
<!-- Node7 -->
<g id="node7" class="node">
<title>Node7</title>
<g id="a_node7"><a xlink:href="control__callback_8cpp.html" target="_top" xlink:title="Callback that is executed at a fixed specified rate defined by the &quot;timer_controller_&quot;.">
<polygon fill="white" stroke="black" points="489,-84 489,-136 624,-136 624,-84 489,-84"/>
<text text-anchor="start" x="497" y="-124" font-family="Helvetica,sans-Serif" font-size="10.00">/mnt/c/Users/siddh</text>
<text text-anchor="start" x="497" y="-113" font-family="Helvetica,sans-Serif" font-size="10.00">/Onedrive/Desktop/ACSL</text>
<text text-anchor="start" x="497" y="-102" font-family="Helvetica,sans-Serif" font-size="10.00">&#45;flightstack/src/control</text>
<text text-anchor="middle" x="556.5" y="-91" font-family="Helvetica,sans-Serif" font-size="10.00">/control_callback.cpp</text>
</a>
</g>
</g>
<!-- Node2&#45;&gt;Node7 -->
<g id="edge6" class="edge">
<title>Node2&#45;&gt;Node7</title>
<path fill="none" stroke="midnightblue" d="M922.84,-194.44C844.7,-185.42 730.43,-168.95 633.5,-142 627.39,-140.3 621.11,-138.27 614.89,-136.07"/>
<polygon fill="midnightblue" stroke="midnightblue" points="922.81,-197.96 933.14,-195.61 923.6,-191.01 922.81,-197.96"/>
</g>
<!-- Node8 -->
<g id="node8" class="node">
<title>Node8</title>
<g id="a_node8"><a xlink:href="logging__mrac_8cpp.html" target="_top" xlink:title="Logger for the MRAC controller.">
<polygon fill="white" stroke="black" points="642,-84 642,-136 777,-136 777,-84 642,-84"/>
<text text-anchor="start" x="650" y="-124" font-family="Helvetica,sans-Serif" font-size="10.00">/mnt/c/Users/siddh</text>
<text text-anchor="start" x="650" y="-113" font-family="Helvetica,sans-Serif" font-size="10.00">/Onedrive/Desktop/ACSL</text>
<text text-anchor="start" x="650" y="-102" font-family="Helvetica,sans-Serif" font-size="10.00">&#45;flightstack/src/control</text>
<text text-anchor="middle" x="709.5" y="-91" font-family="Helvetica,sans-Serif" font-size="10.00">/mrac/logging_mrac.cpp</text>
</a>
</g>
</g>
<!-- Node2&#45;&gt;Node8 -->
<g id="edge7" class="edge">
<title>Node2&#45;&gt;Node8</title>
<path fill="none" stroke="midnightblue" d="M923.75,-181.55C881.59,-170.78 831.14,-156.92 786.5,-142 781.03,-140.17 775.39,-138.16 769.77,-136.06"/>
<polygon fill="midnightblue" stroke="midnightblue" points="922.89,-184.95 933.45,-184.01 924.62,-178.16 922.89,-184.95"/>
</g>
<!-- Node9 -->
<g id="node9" class="node">
<title>Node9</title>
<g id="a_node9"><a xlink:href="mrac_8cpp.html" target="_top" xlink:title="Implementation of the MRAC controller.">
<polygon fill="white" stroke="black" points="795,-84 795,-136 930,-136 930,-84 795,-84"/>
<text text-anchor="start" x="803" y="-124" font-family="Helvetica,sans-Serif" font-size="10.00">/mnt/c/Users/siddh</text>
<text text-anchor="start" x="803" y="-113" font-family="Helvetica,sans-Serif" font-size="10.00">/Onedrive/Desktop/ACSL</text>
<text text-anchor="start" x="803" y="-102" font-family="Helvetica,sans-Serif" font-size="10.00">&#45;flightstack/src/control</text>
<text text-anchor="middle" x="862.5" y="-91" font-family="Helvetica,sans-Serif" font-size="10.00">/mrac/mrac.cpp</text>
</a>
</g>
</g>
<!-- Node2&#45;&gt;Node9 -->
<g id="edge8" class="edge">
<title>Node2&#45;&gt;Node9</title>
<path fill="none" stroke="midnightblue" d="M965.46,-173.24C945.54,-161.21 922.91,-147.52 903.94,-136.05"/>
<polygon fill="midnightblue" stroke="midnightblue" points="963.73,-176.29 974.1,-178.47 967.35,-170.3 963.73,-176.29"/>
</g>
<!-- Node10 -->
<g id="node10" class="node">
<title>Node10</title>
<g id="a_node10"><a xlink:href="logging__pid_8cpp.html" target="_top" xlink:title="Logger for the PID controller.">
<polygon fill="white" stroke="black" points="948,-84 948,-136 1083,-136 1083,-84 948,-84"/>
<text text-anchor="start" x="956" y="-124" font-family="Helvetica,sans-Serif" font-size="10.00">/mnt/c/Users/siddh</text>
<text text-anchor="start" x="956" y="-113" font-family="Helvetica,sans-Serif" font-size="10.00">/Onedrive/Desktop/ACSL</text>
<text text-anchor="start" x="956" y="-102" font-family="Helvetica,sans-Serif" font-size="10.00">&#45;flightstack/src/control</text>
<text text-anchor="middle" x="1015.5" y="-91" font-family="Helvetica,sans-Serif" font-size="10.00">/pid/logging_pid.cpp</text>
</a>
</g>
</g>
<!-- Node2&#45;&gt;Node10 -->
<g id="edge9" class="edge">
<title>Node2&#45;&gt;Node10</title>
<path fill="none" stroke="midnightblue" d="M1015.5,-167.99C1015.5,-157.41 1015.5,-146.03 1015.5,-136.25"/>
<polygon fill="midnightblue" stroke="midnightblue" points="1012,-168.22 1015.5,-178.22 1019,-168.22 1012,-168.22"/>
</g>
<!-- Node11 -->
<g id="node11" class="node">
<title>Node11</title>
<g id="a_node11"><a xlink:href="pid_8cpp.html" target="_top" xlink:title="Immplementation of the PID controller.">
<polygon fill="white" stroke="black" points="1101,-84 1101,-136 1236,-136 1236,-84 1101,-84"/>
<text text-anchor="start" x="1109" y="-124" font-family="Helvetica,sans-Serif" font-size="10.00">/mnt/c/Users/siddh</text>
<text text-anchor="start" x="1109" y="-113" font-family="Helvetica,sans-Serif" font-size="10.00">/Onedrive/Desktop/ACSL</text>
<text text-anchor="start" x="1109" y="-102" font-family="Helvetica,sans-Serif" font-size="10.00">&#45;flightstack/src/control</text>
<text text-anchor="middle" x="1168.5" y="-91" font-family="Helvetica,sans-Serif" font-size="10.00">/pid/pid.cpp</text>
</a>
</g>
</g>
<!-- Node2&#45;&gt;Node11 -->
<g id="edge10" class="edge">
<title>Node2&#45;&gt;Node11</title>
<path fill="none" stroke="midnightblue" d="M1065.54,-173.24C1085.46,-161.21 1108.09,-147.52 1127.06,-136.05"/>
<polygon fill="midnightblue" stroke="midnightblue" points="1063.65,-170.3 1056.9,-178.47 1067.27,-176.29 1063.65,-170.3"/>
</g>
<!-- Node12 -->
<g id="node12" class="node">
<title>Node12</title>
<g id="a_node12"><a xlink:href="multi__threaded__node_8cpp.html" target="_top" xlink:title="Multithreaded ROS2 ndoe that joins together all the flight stakc components.">
<polygon fill="white" stroke="black" points="1254,-84 1254,-136 1389,-136 1389,-84 1254,-84"/>
<text text-anchor="start" x="1262" y="-124" font-family="Helvetica,sans-Serif" font-size="10.00">/mnt/c/Users/siddh</text>
<text text-anchor="start" x="1262" y="-113" font-family="Helvetica,sans-Serif" font-size="10.00">/Onedrive/Desktop/ACSL</text>
<text text-anchor="start" x="1262" y="-102" font-family="Helvetica,sans-Serif" font-size="10.00">&#45;flightstack/src/multi</text>
<text text-anchor="middle" x="1321.5" y="-91" font-family="Helvetica,sans-Serif" font-size="10.00">_threaded_node.cpp</text>
</a>
</g>
</g>
<!-- Node2&#45;&gt;Node12 -->
<g id="edge11" class="edge">
<title>Node2&#45;&gt;Node12</title>
<path fill="none" stroke="midnightblue" d="M1107.2,-178.08C1107.3,-178.05 1107.4,-178.03 1107.5,-178 1168.71,-161.53 1185.36,-162.01 1245.5,-142 1250.91,-140.2 1256.48,-138.21 1262.04,-136.12"/>
<polygon fill="midnightblue" stroke="midnightblue" points="1106.48,-174.65 1097.74,-180.64 1108.31,-181.41 1106.48,-174.65"/>
</g>
<!-- Node13 -->
<g id="node13" class="node">
<title>Node13</title>
<g id="a_node13"><a xlink:href="pixhawk__actuator__motors_8cpp.html" target="_top" xlink:title="Callback that is executed at a fixed specified rate defined by the &quot;timer_controller_&quot;.">
<polygon fill="white" stroke="black" points="1407,-78.5 1407,-141.5 1562,-141.5 1562,-78.5 1407,-78.5"/>
<text text-anchor="start" x="1415" y="-129.5" font-family="Helvetica,sans-Serif" font-size="10.00">/mnt/c/Users/siddh</text>
<text text-anchor="start" x="1415" y="-118.5" font-family="Helvetica,sans-Serif" font-size="10.00">/Onedrive/Desktop/ACSL</text>
<text text-anchor="start" x="1415" y="-107.5" font-family="Helvetica,sans-Serif" font-size="10.00">&#45;flightstack/src/pixhawk</text>
<text text-anchor="start" x="1415" y="-96.5" font-family="Helvetica,sans-Serif" font-size="10.00">_interface/pixhawk_actuator</text>
<text text-anchor="middle" x="1484.5" y="-85.5" font-family="Helvetica,sans-Serif" font-size="10.00">_motors.cpp</text>
</a>
</g>
</g>
<!-- Node2&#45;&gt;Node13 -->
<g id="edge12" class="edge">
<title>Node2&#45;&gt;Node13</title>
<path fill="none" stroke="midnightblue" d="M1107.2,-178.06C1107.3,-178.04 1107.4,-178.02 1107.5,-178 1235.31,-152.53 1271.75,-172.28 1398.5,-142 1401.28,-141.34 1404.09,-140.61 1406.92,-139.84"/>
<polygon fill="midnightblue" stroke="midnightblue" points="1106.67,-174.59 1097.61,-180.09 1108.12,-181.44 1106.67,-174.59"/>
</g>
<!-- Node14 -->
<g id="node14" class="node">
<title>Node14</title>
<g id="a_node14"><a xlink:href="pixhawk__vehicle__odometry_8cpp.html" target="_top" xlink:title="Callback that is executed everytime a VehicleOdometry message is made available by Pixhawk.">
<polygon fill="white" stroke="black" points="1580.5,-78.5 1580.5,-141.5 1730.5,-141.5 1730.5,-78.5 1580.5,-78.5"/>
<text text-anchor="start" x="1588.5" y="-129.5" font-family="Helvetica,sans-Serif" font-size="10.00">/mnt/c/Users/siddh</text>
<text text-anchor="start" x="1588.5" y="-118.5" font-family="Helvetica,sans-Serif" font-size="10.00">/Onedrive/Desktop/ACSL</text>
<text text-anchor="start" x="1588.5" y="-107.5" font-family="Helvetica,sans-Serif" font-size="10.00">&#45;flightstack/src/pixhawk</text>
<text text-anchor="start" x="1588.5" y="-96.5" font-family="Helvetica,sans-Serif" font-size="10.00">_interface/pixhawk_vehicle</text>
<text text-anchor="middle" x="1655.5" y="-85.5" font-family="Helvetica,sans-Serif" font-size="10.00">_odometry.cpp</text>
</a>
</g>
</g>
<!-- Node2&#45;&gt;Node14 -->
<g id="edge13" class="edge">
<title>Node2&#45;&gt;Node14</title>
<path fill="none" stroke="midnightblue" d="M1107.19,-178.05C1107.3,-178.04 1107.4,-178.02 1107.5,-178 1311.22,-142.21 1369.44,-186.23 1571.5,-142 1574.39,-141.37 1577.3,-140.66 1580.24,-139.89"/>
<polygon fill="midnightblue" stroke="midnightblue" points="1106.74,-174.58 1097.58,-179.9 1108.06,-181.45 1106.74,-174.58"/>
</g>
<!-- Node15 -->
<g id="node15" class="node">
<title>Node15</title>
<g id="a_node15"><a xlink:href="vehicle__state_8cpp.html" target="_top" xlink:title="Class storing the state of the vehicle coming from the flight controller (Pixhawk)">
<polygon fill="white" stroke="black" points="1748.5,-84 1748.5,-136 1902.5,-136 1902.5,-84 1748.5,-84"/>
<text text-anchor="start" x="1756.5" y="-124" font-family="Helvetica,sans-Serif" font-size="10.00">/mnt/c/Users/siddh</text>
<text text-anchor="start" x="1756.5" y="-113" font-family="Helvetica,sans-Serif" font-size="10.00">/Onedrive/Desktop/ACSL</text>
<text text-anchor="start" x="1756.5" y="-102" font-family="Helvetica,sans-Serif" font-size="10.00">&#45;flightstack/src/pixhawk</text>
<text text-anchor="middle" x="1825.5" y="-91" font-family="Helvetica,sans-Serif" font-size="10.00">_interface/vehicle_state.cpp</text>
</a>
</g>
</g>
<!-- Node2&#45;&gt;Node15 -->
<g id="edge14" class="edge">
<title>Node2&#45;&gt;Node15</title>
<path fill="none" stroke="midnightblue" d="M1107.19,-178.05C1107.3,-178.03 1107.4,-178.02 1107.5,-178 1385.09,-132.17 1463.84,-198.29 1739.5,-142 1746.96,-140.48 1754.65,-138.43 1762.22,-136.12"/>
<polygon fill="midnightblue" stroke="midnightblue" points="1106.77,-174.57 1097.56,-179.82 1108.03,-181.46 1106.77,-174.57"/>
</g>
<!-- Node16 -->
<g id="node16" class="node">
<title>Node16</title>
<g id="a_node16"><a xlink:href="piecewise__polynomial__trajectory_8cpp.html" target="_top" xlink:title="Piecewise polynomial minimu&#45;jerk trajectory computed offline through a MATLAB script.">
<polygon fill="white" stroke="black" points="1920.5,-78.5 1920.5,-141.5 2082.5,-141.5 2082.5,-78.5 1920.5,-78.5"/>
<text text-anchor="start" x="1928.5" y="-129.5" font-family="Helvetica,sans-Serif" font-size="10.00">/mnt/c/Users/siddh</text>
<text text-anchor="start" x="1928.5" y="-118.5" font-family="Helvetica,sans-Serif" font-size="10.00">/Onedrive/Desktop/ACSL</text>
<text text-anchor="start" x="1928.5" y="-107.5" font-family="Helvetica,sans-Serif" font-size="10.00">&#45;flightstack/src/user</text>
<text text-anchor="start" x="1928.5" y="-96.5" font-family="Helvetica,sans-Serif" font-size="10.00">_defined_trajectory/piecewise</text>
<text text-anchor="middle" x="2001.5" y="-85.5" font-family="Helvetica,sans-Serif" font-size="10.00">_polynomial_trajectory.cpp</text>
</a>
</g>
</g>
<!-- Node2&#45;&gt;Node16 -->
<g id="edge15" class="edge">
<title>Node2&#45;&gt;Node16</title>
<path fill="none" stroke="midnightblue" d="M1107.19,-178.05C1107.3,-178.03 1107.4,-178.02 1107.5,-178 1460.76,-121.87 1560.13,-208.93 1911.5,-142 1914.42,-141.44 1917.38,-140.81 1920.35,-140.12"/>
<polygon fill="midnightblue" stroke="midnightblue" points="1106.79,-174.57 1097.56,-179.77 1108.02,-181.46 1106.79,-174.57"/>
</g>
<!-- Node17 -->
<g id="node17" class="node">
<title>Node17</title>
<g id="a_node17"><a xlink:href="user__defined__trajectory_8cpp.html" target="_top" xlink:title="Class that contains the common members that each type of user&#45;defined trajectory class will inherit.">
<polygon fill="white" stroke="black" points="2101,-78.5 2101,-141.5 2236,-141.5 2236,-78.5 2101,-78.5"/>
<text text-anchor="start" x="2109" y="-129.5" font-family="Helvetica,sans-Serif" font-size="10.00">/mnt/c/Users/siddh</text>
<text text-anchor="start" x="2109" y="-118.5" font-family="Helvetica,sans-Serif" font-size="10.00">/Onedrive/Desktop/ACSL</text>
<text text-anchor="start" x="2109" y="-107.5" font-family="Helvetica,sans-Serif" font-size="10.00">&#45;flightstack/src/user</text>
<text text-anchor="start" x="2109" y="-96.5" font-family="Helvetica,sans-Serif" font-size="10.00">_defined_trajectory/user</text>
<text text-anchor="middle" x="2168.5" y="-85.5" font-family="Helvetica,sans-Serif" font-size="10.00">_defined_trajectory.cpp</text>
</a>
</g>
</g>
<!-- Node2&#45;&gt;Node17 -->
<g id="edge16" class="edge">
<title>Node2&#45;&gt;Node17</title>
<path fill="none" stroke="midnightblue" d="M1107.19,-178.05C1107.3,-178.03 1107.4,-178.02 1107.5,-178 1539.98,-111.1 1663.46,-233.08 2091.5,-142 2094.6,-141.34 2097.74,-140.56 2100.88,-139.7"/>
<polygon fill="midnightblue" stroke="midnightblue" points="1106.8,-174.56 1097.55,-179.73 1108,-181.46 1106.8,-174.56"/>
</g>
<!-- Node4 -->
<g id="node4" class="node">
<title>Node4</title>
<g id="a_node4"><a xlink:href="main_8cpp.html" target="_top" xlink:title="FlightStack (Multirotor) main.cpp file.">
<polygon fill="white" stroke="black" points="167,-0.5 167,-41.5 304,-41.5 304,-0.5 167,-0.5"/>
<text text-anchor="start" x="175" y="-29.5" font-family="Helvetica,sans-Serif" font-size="10.00">/mnt/c/Users/siddh</text>
<text text-anchor="start" x="175" y="-18.5" font-family="Helvetica,sans-Serif" font-size="10.00">/Onedrive/Desktop/ACSL</text>
<text text-anchor="middle" x="235.5" y="-7.5" font-family="Helvetica,sans-Serif" font-size="10.00">&#45;flightstack/src/main.cpp</text>
</a>
</g>
</g>
<!-- Node3&#45;&gt;Node4 -->
<g id="edge3" class="edge">
<title>Node3&#45;&gt;Node4</title>
<path fill="none" stroke="midnightblue" d="M235.5,-73.66C235.5,-62.71 235.5,-51.05 235.5,-41.58"/>
<polygon fill="midnightblue" stroke="midnightblue" points="232,-73.84 235.5,-83.84 239,-73.84 232,-73.84"/>
</g>
</g>
</svg>
        <g id="navigator" transform="translate(0 0)" fill="#404254">
                <rect fill="#f2f5e9" fill-opacity="0.5" stroke="#606060" stroke-width=".5" x="0" y="0" width="60" height="60"/>
                <use id="zoomplus" xlink:href="#zoomPlus" x="17" y="9" onmousedown="handleZoom(evt,'in')"/>
                <use id="zoomminus" xlink:href="#zoomMin" x="42" y="9" onmousedown="handleZoom(evt,'out')"/>
                <use id="reset" xlink:href="#resetDef" x="30" y="36" onmousedown="handleReset()"/>
                <g id="arrowUp" xlink:href="#dirArrow" transform="translate(30 24)" onmousedown="handlePan(0,-1)">
                  <use xlink:href="#rim" fill="#404040">
                        <set attributeName="fill" to="#808080" begin="arrowUp.mouseover" end="arrowUp.mouseout"/>
                  </use>
                  <path fill="none" stroke="white" stroke-width="1.5" d="M0,-3.0v7 M-2.5,-0.5L0,-3.0L2.5,-0.5"/>
                </g>
                <g id="arrowRight" xlink:href="#dirArrow" transform="rotate(90) translate(36 -43)" onmousedown="handlePan(1,0)">
                  <use xlink:href="#rim" fill="#404040">
                        <set attributeName="fill" to="#808080" begin="arrowRight.mouseover" end="arrowRight.mouseout"/>
                  </use>
                  <path fill="none" stroke="white" stroke-width="1.5" d="M0,-3.0v7 M-2.5,-0.5L0,-3.0L2.5,-0.5"/>
                </g>
                <g id="arrowDown" xlink:href="#dirArrow" transform="rotate(180) translate(-30 -48)" onmousedown="handlePan(0,1)">
                  <use xlink:href="#rim" fill="#404040">
                        <set attributeName="fill" to="#808080" begin="arrowDown.mouseover" end="arrowDown.mouseout"/>
                  </use>
                  <path fill="none" stroke="white" stroke-width="1.5" d="M0,-3.0v7 M-2.5,-0.5L0,-3.0L2.5,-0.5"/>
                </g>
                <g id="arrowLeft" xlink:href="#dirArrow" transform="rotate(270) translate(-36 17)" onmousedown="handlePan(-1,0)">
                  <use xlink:href="#rim" fill="#404040">
                        <set attributeName="fill" to="#808080" begin="arrowLeft.mouseover" end="arrowLeft.mouseout"/>
                  </use>
                  <path fill="none" stroke="white" stroke-width="1.5" d="M0,-3.0v7 M-2.5,-0.5L0,-3.0L2.5,-0.5"/>
                </g>
        </g>
        <svg viewBox="0 0 15 15" width="100%" height="30px" preserveAspectRatio="xMaxYMin meet">
         <g id="arrow_out" transform="scale(0.3 0.3)">
          <a xlink:href="config_8hpp__dep__incl_org.svg" target="_base">
           <rect id="button" ry="5" rx="5" y="6" x="6" height="38" width="38"
                fill="#f2f5e9" fill-opacity="0.5" stroke="#606060" stroke-width="1.0"/>
           <path id="arrow"
             d="M 11.500037,31.436501 C 11.940474,20.09759 22.043105,11.32322 32.158766,21.979434 L 37.068811,17.246167 C 37.068811,17.246167 37.088388,32 37.088388,32 L 22.160133,31.978069 C 22.160133,31.978069 26.997745,27.140456 26.997745,27.140456 C 18.528582,18.264221 13.291696,25.230495 11.500037,31.436501 z"
             style="fill:#404040;"/>
          </a>
         </g>
        </svg>
</svg>
