<?xml version="1.0" encoding="UTF-8" standalone="no"?>
<!DOCTYPE svg PUBLIC "-//W3C//DTD SVG 1.1//EN"
 "http://www.w3.org/Graphics/SVG/1.1/DTD/svg11.dtd">
<!-- Generated by graphviz version 2.43.0 (0)
 -->
<!-- Title: /mnt/c/Users/siddh/Onedrive/Desktop/ACSL&#45;flightstack/include/flightstack/utils/continuous_lyapunov_equation.hpp Pages: 1 -->
<svg width="2316pt" height="506pt"
 viewBox="0.00 0.00 2316.00 506.00" xmlns="http://www.w3.org/2000/svg" xmlns:xlink="http://www.w3.org/1999/xlink">
<g id="graph0" class="graph" transform="scale(1 1) rotate(0) translate(4 502)">
<title>/mnt/c/Users/siddh/Onedrive/Desktop/ACSL&#45;flightstack/include/flightstack/utils/continuous_lyapunov_equation.hpp</title>
<polygon fill="white" stroke="transparent" points="-4,4 -4,-502 2312,-502 2312,4 -4,4"/>
<!-- Node1 -->
<g id="node1" class="node">
<title>Node1</title>
<g id="a_node1"><a xlink:title=" ">
<polygon fill="#bfbfbf" stroke="black" points="2006.5,-445.5 2006.5,-497.5 2222.5,-497.5 2222.5,-445.5 2006.5,-445.5"/>
<text text-anchor="start" x="2014.5" y="-485.5" font-family="Helvetica,sans-Serif" font-size="10.00">/mnt/c/Users/siddh</text>
<text text-anchor="start" x="2014.5" y="-474.5" font-family="Helvetica,sans-Serif" font-size="10.00">/Onedrive/Desktop/ACSL</text>
<text text-anchor="start" x="2014.5" y="-463.5" font-family="Helvetica,sans-Serif" font-size="10.00">&#45;flightstack/include/flightstack</text>
<text text-anchor="middle" x="2114.5" y="-452.5" font-family="Helvetica,sans-Serif" font-size="10.00">/utils/continuous_lyapunov_equation.hpp</text>
</a>
</g>
</g>
<!-- Node2 -->
<g id="node2" class="node">
<title>Node2</title>
<g id="a_node2"><a xlink:href="mrac_8hpp.html" target="_top" xlink:title="Implementation of MRAC controller.">
<polygon fill="white" stroke="black" points="1934.5,-356.5 1934.5,-408.5 2098.5,-408.5 2098.5,-356.5 1934.5,-356.5"/>
<text text-anchor="start" x="1942.5" y="-396.5" font-family="Helvetica,sans-Serif" font-size="10.00">/mnt/c/Users/siddh</text>
<text text-anchor="start" x="1942.5" y="-385.5" font-family="Helvetica,sans-Serif" font-size="10.00">/Onedrive/Desktop/ACSL</text>
<text text-anchor="start" x="1942.5" y="-374.5" font-family="Helvetica,sans-Serif" font-size="10.00">&#45;flightstack/include/flightstack</text>
<text text-anchor="middle" x="2016.5" y="-363.5" font-family="Helvetica,sans-Serif" font-size="10.00">/control/mrac/mrac.hpp</text>
</a>
</g>
</g>
<!-- Node1&#45;&gt;Node2 -->
<g id="edge1" class="edge">
<title>Node1&#45;&gt;Node2</title>
<path fill="none" stroke="midnightblue" d="M2078.62,-438.65C2067.47,-428.75 2055.34,-417.98 2044.78,-408.61"/>
<polygon fill="midnightblue" stroke="midnightblue" points="2076.35,-441.31 2086.15,-445.34 2081,-436.08 2076.35,-441.31"/>
</g>
<!-- Node21 -->
<g id="node21" class="node">
<title>Node21</title>
<g id="a_node21"><a xlink:href="continuous__lyapunov__equation_8cpp.html" target="_top" xlink:title="Computes the solution of the continuos Lyapunov equation.">
<polygon fill="white" stroke="black" points="2117,-356.5 2117,-408.5 2308,-408.5 2308,-356.5 2117,-356.5"/>
<text text-anchor="start" x="2125" y="-396.5" font-family="Helvetica,sans-Serif" font-size="10.00">/mnt/c/Users/siddh</text>
<text text-anchor="start" x="2125" y="-385.5" font-family="Helvetica,sans-Serif" font-size="10.00">/Onedrive/Desktop/ACSL</text>
<text text-anchor="start" x="2125" y="-374.5" font-family="Helvetica,sans-Serif" font-size="10.00">&#45;flightstack/src/utils</text>
<text text-anchor="middle" x="2212.5" y="-363.5" font-family="Helvetica,sans-Serif" font-size="10.00">/continuous_lyapunov_equation.cpp</text>
</a>
</g>
</g>
<!-- Node1&#45;&gt;Node21 -->
<g id="edge23" class="edge">
<title>Node1&#45;&gt;Node21</title>
<path fill="none" stroke="midnightblue" d="M2150.38,-438.65C2161.53,-428.75 2173.66,-417.98 2184.22,-408.61"/>
<polygon fill="midnightblue" stroke="midnightblue" points="2148,-436.08 2142.85,-445.34 2152.65,-441.31 2148,-436.08"/>
</g>
<!-- Node3 -->
<g id="node3" class="node">
<title>Node3</title>
<g id="a_node3"><a xlink:href="config_8hpp.html" target="_top" xlink:title="Configuration file. Here you specify which cotroller you want to run at compile time.">
<polygon fill="white" stroke="black" points="1140.5,-267.5 1140.5,-319.5 1304.5,-319.5 1304.5,-267.5 1140.5,-267.5"/>
<text text-anchor="start" x="1148.5" y="-307.5" font-family="Helvetica,sans-Serif" font-size="10.00">/mnt/c/Users/siddh</text>
<text text-anchor="start" x="1148.5" y="-296.5" font-family="Helvetica,sans-Serif" font-size="10.00">/Onedrive/Desktop/ACSL</text>
<text text-anchor="start" x="1148.5" y="-285.5" font-family="Helvetica,sans-Serif" font-size="10.00">&#45;flightstack/include/flightstack</text>
<text text-anchor="middle" x="1222.5" y="-274.5" font-family="Helvetica,sans-Serif" font-size="10.00">/config/config.hpp</text>
</a>
</g>
</g>
<!-- Node2&#45;&gt;Node3 -->
<g id="edge2" class="edge">
<title>Node2&#45;&gt;Node3</title>
<path fill="none" stroke="midnightblue" d="M1924.08,-371.37C1767.74,-354.24 1453.56,-319.82 1304.54,-303.49"/>
<polygon fill="midnightblue" stroke="midnightblue" points="1923.83,-374.87 1934.15,-372.48 1924.59,-367.91 1923.83,-374.87"/>
</g>
<!-- Node10 -->
<g id="node10" class="node">
<title>Node10</title>
<g id="a_node10"><a xlink:href="logging__mrac_8cpp.html" target="_top" xlink:title="Logger for the MRAC controller.">
<polygon fill="white" stroke="black" points="1949,-84 1949,-136 2084,-136 2084,-84 1949,-84"/>
<text text-anchor="start" x="1957" y="-124" font-family="Helvetica,sans-Serif" font-size="10.00">/mnt/c/Users/siddh</text>
<text text-anchor="start" x="1957" y="-113" font-family="Helvetica,sans-Serif" font-size="10.00">/Onedrive/Desktop/ACSL</text>
<text text-anchor="start" x="1957" y="-102" font-family="Helvetica,sans-Serif" font-size="10.00">&#45;flightstack/src/control</text>
<text text-anchor="middle" x="2016.5" y="-91" font-family="Helvetica,sans-Serif" font-size="10.00">/mrac/logging_mrac.cpp</text>
</a>
</g>
</g>
<!-- Node2&#45;&gt;Node10 -->
<g id="edge21" class="edge">
<title>Node2&#45;&gt;Node10</title>
<path fill="none" stroke="midnightblue" d="M2016.5,-345.98C2016.5,-290.47 2016.5,-184.53 2016.5,-136.18"/>
<polygon fill="midnightblue" stroke="midnightblue" points="2013,-346.05 2016.5,-356.05 2020,-346.05 2013,-346.05"/>
</g>
<!-- Node11 -->
<g id="node11" class="node">
<title>Node11</title>
<g id="a_node11"><a xlink:href="mrac_8cpp.html" target="_top" xlink:title="Implementation of the MRAC controller.">
<polygon fill="white" stroke="black" points="2102,-84 2102,-136 2237,-136 2237,-84 2102,-84"/>
<text text-anchor="start" x="2110" y="-124" font-family="Helvetica,sans-Serif" font-size="10.00">/mnt/c/Users/siddh</text>
<text text-anchor="start" x="2110" y="-113" font-family="Helvetica,sans-Serif" font-size="10.00">/Onedrive/Desktop/ACSL</text>
<text text-anchor="start" x="2110" y="-102" font-family="Helvetica,sans-Serif" font-size="10.00">&#45;flightstack/src/control</text>
<text text-anchor="middle" x="2169.5" y="-91" font-family="Helvetica,sans-Serif" font-size="10.00">/mrac/mrac.cpp</text>
</a>
</g>
</g>
<!-- Node2&#45;&gt;Node11 -->
<g id="edge22" class="edge">
<title>Node2&#45;&gt;Node11</title>
<path fill="none" stroke="midnightblue" d="M2036.01,-347.01C2067.24,-291.79 2127.74,-184.83 2155.26,-136.18"/>
<polygon fill="midnightblue" stroke="midnightblue" points="2032.77,-345.62 2030.89,-356.05 2038.86,-349.07 2032.77,-345.62"/>
</g>
<!-- Node4 -->
<g id="node4" class="node">
<title>Node4</title>
<g id="a_node4"><a xlink:href="multi__threaded__node_8hpp.html" target="_top" xlink:title="Multithreaded ROS2 node that joins together all the flight stack components.">
<polygon fill="white" stroke="black" points="1056.5,-178.5 1056.5,-230.5 1220.5,-230.5 1220.5,-178.5 1056.5,-178.5"/>
<text text-anchor="start" x="1064.5" y="-218.5" font-family="Helvetica,sans-Serif" font-size="10.00">/mnt/c/Users/siddh</text>
<text text-anchor="start" x="1064.5" y="-207.5" font-family="Helvetica,sans-Serif" font-size="10.00">/Onedrive/Desktop/ACSL</text>
<text text-anchor="start" x="1064.5" y="-196.5" font-family="Helvetica,sans-Serif" font-size="10.00">&#45;flightstack/include/flightstack</text>
<text text-anchor="middle" x="1138.5" y="-185.5" font-family="Helvetica,sans-Serif" font-size="10.00">/multi_threaded_node.hpp</text>
</a>
</g>
</g>
<!-- Node3&#45;&gt;Node4 -->
<g id="edge3" class="edge">
<title>Node3&#45;&gt;Node4</title>
<path fill="none" stroke="midnightblue" d="M1191.19,-260.08C1181.79,-250.34 1171.62,-239.8 1162.74,-230.61"/>
<polygon fill="midnightblue" stroke="midnightblue" points="1188.74,-262.57 1198.2,-267.34 1193.78,-257.71 1188.74,-262.57"/>
</g>
<!-- Node7 -->
<g id="node7" class="node">
<title>Node7</title>
<g id="a_node7"><a xlink:href="config_8cpp.html" target="_top" xlink:title="Contains the functions that reads the configuration parameters and assigns it to the members of the C...">
<polygon fill="white" stroke="black" points="0,-84 0,-136 135,-136 135,-84 0,-84"/>
<text text-anchor="start" x="8" y="-124" font-family="Helvetica,sans-Serif" font-size="10.00">/mnt/c/Users/siddh</text>
<text text-anchor="start" x="8" y="-113" font-family="Helvetica,sans-Serif" font-size="10.00">/Onedrive/Desktop/ACSL</text>
<text text-anchor="start" x="8" y="-102" font-family="Helvetica,sans-Serif" font-size="10.00">&#45;flightstack/src/config</text>
<text text-anchor="middle" x="67.5" y="-91" font-family="Helvetica,sans-Serif" font-size="10.00">/config.cpp</text>
</a>
</g>
</g>
<!-- Node3&#45;&gt;Node7 -->
<g id="edge19" class="edge">
<title>Node3&#45;&gt;Node7</title>
<path fill="none" stroke="midnightblue" d="M1130.22,-287.22C942.02,-274.79 501.5,-237.25 144.5,-142 138.23,-140.33 131.79,-138.29 125.43,-136.06"/>
<polygon fill="midnightblue" stroke="midnightblue" points="1130.15,-290.72 1140.35,-287.88 1130.6,-283.74 1130.15,-290.72"/>
</g>
<!-- Node20 -->
<g id="node20" class="node">
<title>Node20</title>
<g id="a_node20"><a xlink:href="logging__mocap_8cpp.html" target="_top" xlink:title="Logger for the motion capture (MOCAP) system.">
<polygon fill="white" stroke="black" points="1239,-178.5 1239,-230.5 1374,-230.5 1374,-178.5 1239,-178.5"/>
<text text-anchor="start" x="1247" y="-218.5" font-family="Helvetica,sans-Serif" font-size="10.00">/mnt/c/Users/siddh</text>
<text text-anchor="start" x="1247" y="-207.5" font-family="Helvetica,sans-Serif" font-size="10.00">/Onedrive/Desktop/ACSL</text>
<text text-anchor="start" x="1247" y="-196.5" font-family="Helvetica,sans-Serif" font-size="10.00">&#45;flightstack/src/logging</text>
<text text-anchor="middle" x="1306.5" y="-185.5" font-family="Helvetica,sans-Serif" font-size="10.00">/logging_mocap.cpp</text>
</a>
</g>
</g>
<!-- Node3&#45;&gt;Node20 -->
<g id="edge20" class="edge">
<title>Node3&#45;&gt;Node20</title>
<path fill="none" stroke="midnightblue" d="M1253.81,-260.08C1263.21,-250.34 1273.38,-239.8 1282.26,-230.61"/>
<polygon fill="midnightblue" stroke="midnightblue" points="1251.22,-257.71 1246.8,-267.34 1256.26,-262.57 1251.22,-257.71"/>
</g>
<!-- Node5 -->
<g id="node5" class="node">
<title>Node5</title>
<g id="a_node5"><a xlink:href="main_8hpp.html" target="_top" xlink:title="Main file.">
<polygon fill="white" stroke="black" points="659.5,-84 659.5,-136 823.5,-136 823.5,-84 659.5,-84"/>
<text text-anchor="start" x="667.5" y="-124" font-family="Helvetica,sans-Serif" font-size="10.00">/mnt/c/Users/siddh</text>
<text text-anchor="start" x="667.5" y="-113" font-family="Helvetica,sans-Serif" font-size="10.00">/Onedrive/Desktop/ACSL</text>
<text text-anchor="start" x="667.5" y="-102" font-family="Helvetica,sans-Serif" font-size="10.00">&#45;flightstack/include/flightstack</text>
<text text-anchor="middle" x="741.5" y="-91" font-family="Helvetica,sans-Serif" font-size="10.00">/main.hpp</text>
</a>
</g>
</g>
<!-- Node4&#45;&gt;Node5 -->
<g id="edge4" class="edge">
<title>Node4&#45;&gt;Node5</title>
<path fill="none" stroke="midnightblue" d="M1046.32,-188.2C985.2,-177.27 903.5,-161.14 832.5,-142 825.89,-140.22 819.07,-138.21 812.26,-136.1"/>
<polygon fill="midnightblue" stroke="midnightblue" points="1045.87,-191.68 1056.33,-189.98 1047.09,-184.78 1045.87,-191.68"/>
</g>
<!-- Node4&#45;&gt;Node7 -->
<g id="edge6" class="edge">
<title>Node4&#45;&gt;Node7</title>
<path fill="none" stroke="midnightblue" d="M1046.42,-199.49C816.78,-189.24 230.96,-161.54 144.5,-142 137.75,-140.48 130.83,-138.43 124.03,-136.12"/>
<polygon fill="midnightblue" stroke="midnightblue" points="1046.27,-202.98 1056.42,-199.93 1046.58,-195.99 1046.27,-202.98"/>
</g>
<!-- Node8 -->
<g id="node8" class="node">
<title>Node8</title>
<g id="a_node8"><a xlink:href="control_8cpp.html" target="_top" xlink:title="This file contains the general class containing the common memvers used by most of the control algori...">
<polygon fill="white" stroke="black" points="842,-84 842,-136 977,-136 977,-84 842,-84"/>
<text text-anchor="start" x="850" y="-124" font-family="Helvetica,sans-Serif" font-size="10.00">/mnt/c/Users/siddh</text>
<text text-anchor="start" x="850" y="-113" font-family="Helvetica,sans-Serif" font-size="10.00">/Onedrive/Desktop/ACSL</text>
<text text-anchor="start" x="850" y="-102" font-family="Helvetica,sans-Serif" font-size="10.00">&#45;flightstack/src/control</text>
<text text-anchor="middle" x="909.5" y="-91" font-family="Helvetica,sans-Serif" font-size="10.00">/control.cpp</text>
</a>
</g>
</g>
<!-- Node4&#45;&gt;Node8 -->
<g id="edge7" class="edge">
<title>Node4&#45;&gt;Node8</title>
<path fill="none" stroke="midnightblue" d="M1066.33,-174.58C1040.79,-164.32 1011.85,-152.67 985.5,-142 980.75,-140.07 975.82,-138.08 970.88,-136.07"/>
<polygon fill="midnightblue" stroke="midnightblue" points="1065.36,-177.96 1075.94,-178.44 1067.97,-171.46 1065.36,-177.96"/>
</g>
<!-- Node9 -->
<g id="node9" class="node">
<title>Node9</title>
<g id="a_node9"><a xlink:href="control__callback_8cpp.html" target="_top" xlink:title="Callback that is executed at a fixed specified rate defined by the &quot;timer_controller_&quot;.">
<polygon fill="white" stroke="black" points="995,-84 995,-136 1130,-136 1130,-84 995,-84"/>
<text text-anchor="start" x="1003" y="-124" font-family="Helvetica,sans-Serif" font-size="10.00">/mnt/c/Users/siddh</text>
<text text-anchor="start" x="1003" y="-113" font-family="Helvetica,sans-Serif" font-size="10.00">/Onedrive/Desktop/ACSL</text>
<text text-anchor="start" x="1003" y="-102" font-family="Helvetica,sans-Serif" font-size="10.00">&#45;flightstack/src/control</text>
<text text-anchor="middle" x="1062.5" y="-91" font-family="Helvetica,sans-Serif" font-size="10.00">/control_callback.cpp</text>
</a>
</g>
</g>
<!-- Node4&#45;&gt;Node9 -->
<g id="edge8" class="edge">
<title>Node4&#45;&gt;Node9</title>
<path fill="none" stroke="midnightblue" d="M1111.22,-170.29C1102,-159.08 1091.87,-146.74 1083.24,-136.25"/>
<polygon fill="midnightblue" stroke="midnightblue" points="1108.68,-172.72 1117.73,-178.22 1114.09,-168.28 1108.68,-172.72"/>
</g>
<!-- Node4&#45;&gt;Node10 -->
<g id="edge9" class="edge">
<title>Node4&#45;&gt;Node10</title>
<path fill="none" stroke="midnightblue" d="M1230.91,-177.95C1543.28,-128.82 1634.24,-209.21 1939.5,-142 1946.4,-140.48 1953.47,-138.41 1960.41,-136.05"/>
<polygon fill="midnightblue" stroke="midnightblue" points="1229.97,-174.55 1220.66,-179.6 1231.08,-181.47 1229.97,-174.55"/>
</g>
<!-- Node4&#45;&gt;Node11 -->
<g id="edge10" class="edge">
<title>Node4&#45;&gt;Node11</title>
<path fill="none" stroke="midnightblue" d="M1230.54,-178.01C1610.52,-119.59 1720.43,-222.17 2092.5,-142 2099.4,-140.51 2106.48,-138.46 2113.42,-136.11"/>
<polygon fill="midnightblue" stroke="midnightblue" points="1229.99,-174.56 1220.65,-179.56 1231.07,-181.47 1229.99,-174.56"/>
</g>
<!-- Node12 -->
<g id="node12" class="node">
<title>Node12</title>
<g id="a_node12"><a xlink:href="logging__pid_8cpp.html" target="_top" xlink:title="Logger for the PID controller.">
<polygon fill="white" stroke="black" points="1148,-84 1148,-136 1283,-136 1283,-84 1148,-84"/>
<text text-anchor="start" x="1156" y="-124" font-family="Helvetica,sans-Serif" font-size="10.00">/mnt/c/Users/siddh</text>
<text text-anchor="start" x="1156" y="-113" font-family="Helvetica,sans-Serif" font-size="10.00">/Onedrive/Desktop/ACSL</text>
<text text-anchor="start" x="1156" y="-102" font-family="Helvetica,sans-Serif" font-size="10.00">&#45;flightstack/src/control</text>
<text text-anchor="middle" x="1215.5" y="-91" font-family="Helvetica,sans-Serif" font-size="10.00">/pid/logging_pid.cpp</text>
</a>
</g>
</g>
<!-- Node4&#45;&gt;Node12 -->
<g id="edge11" class="edge">
<title>Node4&#45;&gt;Node12</title>
<path fill="none" stroke="midnightblue" d="M1166.14,-170.29C1175.48,-159.08 1185.75,-146.74 1194.48,-136.25"/>
<polygon fill="midnightblue" stroke="midnightblue" points="1163.25,-168.3 1159.54,-178.22 1168.63,-172.78 1163.25,-168.3"/>
</g>
<!-- Node13 -->
<g id="node13" class="node">
<title>Node13</title>
<g id="a_node13"><a xlink:href="pid_8cpp.html" target="_top" xlink:title="Immplementation of the PID controller.">
<polygon fill="white" stroke="black" points="1301,-84 1301,-136 1436,-136 1436,-84 1301,-84"/>
<text text-anchor="start" x="1309" y="-124" font-family="Helvetica,sans-Serif" font-size="10.00">/mnt/c/Users/siddh</text>
<text text-anchor="start" x="1309" y="-113" font-family="Helvetica,sans-Serif" font-size="10.00">/Onedrive/Desktop/ACSL</text>
<text text-anchor="start" x="1309" y="-102" font-family="Helvetica,sans-Serif" font-size="10.00">&#45;flightstack/src/control</text>
<text text-anchor="middle" x="1368.5" y="-91" font-family="Helvetica,sans-Serif" font-size="10.00">/pid/pid.cpp</text>
</a>
</g>
</g>
<!-- Node4&#45;&gt;Node13 -->
<g id="edge12" class="edge">
<title>Node4&#45;&gt;Node13</title>
<path fill="none" stroke="midnightblue" d="M1210.64,-174.51C1236.19,-164.24 1265.12,-152.61 1291.5,-142 1296.31,-140.06 1301.3,-138.06 1306.3,-136.04"/>
<polygon fill="midnightblue" stroke="midnightblue" points="1209.01,-171.4 1201.03,-178.37 1211.62,-177.89 1209.01,-171.4"/>
</g>
<!-- Node14 -->
<g id="node14" class="node">
<title>Node14</title>
<g id="a_node14"><a xlink:href="multi__threaded__node_8cpp.html" target="_top" xlink:title="Multithreaded ROS2 ndoe that joins together all the flight stakc components.">
<polygon fill="white" stroke="black" points="1454,-84 1454,-136 1589,-136 1589,-84 1454,-84"/>
<text text-anchor="start" x="1462" y="-124" font-family="Helvetica,sans-Serif" font-size="10.00">/mnt/c/Users/siddh</text>
<text text-anchor="start" x="1462" y="-113" font-family="Helvetica,sans-Serif" font-size="10.00">/Onedrive/Desktop/ACSL</text>
<text text-anchor="start" x="1462" y="-102" font-family="Helvetica,sans-Serif" font-size="10.00">&#45;flightstack/src/multi</text>
<text text-anchor="middle" x="1521.5" y="-91" font-family="Helvetica,sans-Serif" font-size="10.00">_threaded_node.cpp</text>
</a>
</g>
</g>
<!-- Node4&#45;&gt;Node14 -->
<g id="edge13" class="edge">
<title>Node4&#45;&gt;Node14</title>
<path fill="none" stroke="midnightblue" d="M1230.78,-177.84C1325.94,-157.61 1354.33,-167.37 1444.5,-142 1450.6,-140.28 1456.88,-138.24 1463.1,-136.03"/>
<polygon fill="midnightblue" stroke="midnightblue" points="1229.76,-174.48 1220.74,-180.03 1231.26,-181.32 1229.76,-174.48"/>
</g>
<!-- Node15 -->
<g id="node15" class="node">
<title>Node15</title>
<g id="a_node15"><a xlink:href="pixhawk__actuator__motors_8cpp.html" target="_top" xlink:title="Callback that is executed at a fixed specified rate defined by the &quot;timer_controller_&quot;.">
<polygon fill="white" stroke="black" points="1607,-78.5 1607,-141.5 1762,-141.5 1762,-78.5 1607,-78.5"/>
<text text-anchor="start" x="1615" y="-129.5" font-family="Helvetica,sans-Serif" font-size="10.00">/mnt/c/Users/siddh</text>
<text text-anchor="start" x="1615" y="-118.5" font-family="Helvetica,sans-Serif" font-size="10.00">/Onedrive/Desktop/ACSL</text>
<text text-anchor="start" x="1615" y="-107.5" font-family="Helvetica,sans-Serif" font-size="10.00">&#45;flightstack/src/pixhawk</text>
<text text-anchor="start" x="1615" y="-96.5" font-family="Helvetica,sans-Serif" font-size="10.00">_interface/pixhawk_actuator</text>
<text text-anchor="middle" x="1684.5" y="-85.5" font-family="Helvetica,sans-Serif" font-size="10.00">_motors.cpp</text>
</a>
</g>
</g>
<!-- Node4&#45;&gt;Node15 -->
<g id="edge14" class="edge">
<title>Node4&#45;&gt;Node15</title>
<path fill="none" stroke="midnightblue" d="M1230.53,-177.96C1392.87,-148.86 1440.25,-177.15 1597.5,-142 1600.63,-141.3 1603.8,-140.52 1606.99,-139.68"/>
<polygon fill="midnightblue" stroke="midnightblue" points="1229.89,-174.52 1220.69,-179.77 1231.15,-181.41 1229.89,-174.52"/>
</g>
<!-- Node16 -->
<g id="node16" class="node">
<title>Node16</title>
<g id="a_node16"><a xlink:href="pixhawk__vehicle__odometry_8cpp.html" target="_top" xlink:title="Callback that is executed everytime a VehicleOdometry message is made available by Pixhawk.">
<polygon fill="white" stroke="black" points="1780.5,-78.5 1780.5,-141.5 1930.5,-141.5 1930.5,-78.5 1780.5,-78.5"/>
<text text-anchor="start" x="1788.5" y="-129.5" font-family="Helvetica,sans-Serif" font-size="10.00">/mnt/c/Users/siddh</text>
<text text-anchor="start" x="1788.5" y="-118.5" font-family="Helvetica,sans-Serif" font-size="10.00">/Onedrive/Desktop/ACSL</text>
<text text-anchor="start" x="1788.5" y="-107.5" font-family="Helvetica,sans-Serif" font-size="10.00">&#45;flightstack/src/pixhawk</text>
<text text-anchor="start" x="1788.5" y="-96.5" font-family="Helvetica,sans-Serif" font-size="10.00">_interface/pixhawk_vehicle</text>
<text text-anchor="middle" x="1855.5" y="-85.5" font-family="Helvetica,sans-Serif" font-size="10.00">_odometry.cpp</text>
</a>
</g>
</g>
<!-- Node4&#45;&gt;Node16 -->
<g id="edge15" class="edge">
<title>Node4&#45;&gt;Node16</title>
<path fill="none" stroke="midnightblue" d="M1230.67,-177.97C1468.89,-138.74 1537.95,-191.1 1770.5,-142 1773.73,-141.32 1777,-140.54 1780.28,-139.69"/>
<polygon fill="midnightblue" stroke="midnightblue" points="1229.95,-174.54 1220.67,-179.65 1231.11,-181.45 1229.95,-174.54"/>
</g>
<!-- Node17 -->
<g id="node17" class="node">
<title>Node17</title>
<g id="a_node17"><a xlink:href="vehicle__state_8cpp.html" target="_top" xlink:title="Class storing the state of the vehicle coming from the flight controller (Pixhawk)">
<polygon fill="white" stroke="black" points="153.5,-84 153.5,-136 307.5,-136 307.5,-84 153.5,-84"/>
<text text-anchor="start" x="161.5" y="-124" font-family="Helvetica,sans-Serif" font-size="10.00">/mnt/c/Users/siddh</text>
<text text-anchor="start" x="161.5" y="-113" font-family="Helvetica,sans-Serif" font-size="10.00">/Onedrive/Desktop/ACSL</text>
<text text-anchor="start" x="161.5" y="-102" font-family="Helvetica,sans-Serif" font-size="10.00">&#45;flightstack/src/pixhawk</text>
<text text-anchor="middle" x="230.5" y="-91" font-family="Helvetica,sans-Serif" font-size="10.00">_interface/vehicle_state.cpp</text>
</a>
</g>
</g>
<!-- Node4&#45;&gt;Node17 -->
<g id="edge16" class="edge">
<title>Node4&#45;&gt;Node17</title>
<path fill="none" stroke="midnightblue" d="M1046.24,-199.75C861.79,-191.73 453.51,-171.25 316.5,-142 309.21,-140.44 301.69,-138.41 294.28,-136.13"/>
<polygon fill="midnightblue" stroke="midnightblue" points="1046.31,-203.26 1056.46,-200.19 1046.62,-196.26 1046.31,-203.26"/>
</g>
<!-- Node18 -->
<g id="node18" class="node">
<title>Node18</title>
<g id="a_node18"><a xlink:href="piecewise__polynomial__trajectory_8cpp.html" target="_top" xlink:title="Piecewise polynomial minimu&#45;jerk trajectory computed offline through a MATLAB script.">
<polygon fill="white" stroke="black" points="325.5,-78.5 325.5,-141.5 487.5,-141.5 487.5,-78.5 325.5,-78.5"/>
<text text-anchor="start" x="333.5" y="-129.5" font-family="Helvetica,sans-Serif" font-size="10.00">/mnt/c/Users/siddh</text>
<text text-anchor="start" x="333.5" y="-118.5" font-family="Helvetica,sans-Serif" font-size="10.00">/Onedrive/Desktop/ACSL</text>
<text text-anchor="start" x="333.5" y="-107.5" font-family="Helvetica,sans-Serif" font-size="10.00">&#45;flightstack/src/user</text>
<text text-anchor="start" x="333.5" y="-96.5" font-family="Helvetica,sans-Serif" font-size="10.00">_defined_trajectory/piecewise</text>
<text text-anchor="middle" x="406.5" y="-85.5" font-family="Helvetica,sans-Serif" font-size="10.00">_polynomial_trajectory.cpp</text>
</a>
</g>
</g>
<!-- Node4&#45;&gt;Node18 -->
<g id="edge17" class="edge">
<title>Node4&#45;&gt;Node18</title>
<path fill="none" stroke="midnightblue" d="M1046.13,-201.48C920.44,-197.19 689.14,-183.79 496.5,-142 493.59,-141.37 490.65,-140.67 487.69,-139.93"/>
<polygon fill="midnightblue" stroke="midnightblue" points="1046.37,-204.99 1056.48,-201.82 1046.6,-197.99 1046.37,-204.99"/>
</g>
<!-- Node19 -->
<g id="node19" class="node">
<title>Node19</title>
<g id="a_node19"><a xlink:href="user__defined__trajectory_8cpp.html" target="_top" xlink:title="Class that contains the common members that each type of user&#45;defined trajectory class will inherit.">
<polygon fill="white" stroke="black" points="506,-78.5 506,-141.5 641,-141.5 641,-78.5 506,-78.5"/>
<text text-anchor="start" x="514" y="-129.5" font-family="Helvetica,sans-Serif" font-size="10.00">/mnt/c/Users/siddh</text>
<text text-anchor="start" x="514" y="-118.5" font-family="Helvetica,sans-Serif" font-size="10.00">/Onedrive/Desktop/ACSL</text>
<text text-anchor="start" x="514" y="-107.5" font-family="Helvetica,sans-Serif" font-size="10.00">&#45;flightstack/src/user</text>
<text text-anchor="start" x="514" y="-96.5" font-family="Helvetica,sans-Serif" font-size="10.00">_defined_trajectory/user</text>
<text text-anchor="middle" x="573.5" y="-85.5" font-family="Helvetica,sans-Serif" font-size="10.00">_defined_trajectory.cpp</text>
</a>
</g>
</g>
<!-- Node4&#45;&gt;Node19 -->
<g id="edge18" class="edge">
<title>Node4&#45;&gt;Node19</title>
<path fill="none" stroke="midnightblue" d="M1046.13,-198.94C946.99,-192.42 785.54,-177.07 650.5,-142 647.43,-141.2 644.32,-140.31 641.2,-139.36"/>
<polygon fill="midnightblue" stroke="midnightblue" points="1045.92,-202.44 1056.12,-199.59 1046.37,-195.45 1045.92,-202.44"/>
</g>
<!-- Node6 -->
<g id="node6" class="node">
<title>Node6</title>
<g id="a_node6"><a xlink:href="main_8cpp.html" target="_top" xlink:title="FlightStack (Multirotor) main.cpp file.">
<polygon fill="white" stroke="black" points="673,-0.5 673,-41.5 810,-41.5 810,-0.5 673,-0.5"/>
<text text-anchor="start" x="681" y="-29.5" font-family="Helvetica,sans-Serif" font-size="10.00">/mnt/c/Users/siddh</text>
<text text-anchor="start" x="681" y="-18.5" font-family="Helvetica,sans-Serif" font-size="10.00">/Onedrive/Desktop/ACSL</text>
<text text-anchor="middle" x="741.5" y="-7.5" font-family="Helvetica,sans-Serif" font-size="10.00">&#45;flightstack/src/main.cpp</text>
</a>
</g>
</g>
<!-- Node5&#45;&gt;Node6 -->
<g id="edge5" class="edge">
<title>Node5&#45;&gt;Node6</title>
<path fill="none" stroke="midnightblue" d="M741.5,-73.66C741.5,-62.71 741.5,-51.05 741.5,-41.58"/>
<polygon fill="midnightblue" stroke="midnightblue" points="738,-73.84 741.5,-83.84 745,-73.84 738,-73.84"/>
</g>
</g>
</svg>
