<?xml version="1.0" encoding="UTF-8" standalone="no"?>
<!DOCTYPE svg PUBLIC "-//W3C//DTD SVG 1.1//EN"
 "http://www.w3.org/Graphics/SVG/1.1/DTD/svg11.dtd">
<!-- Generated by graphviz version 2.43.0 (0)
 -->
<!-- Title: ACSL&#45;flightstack/src/utils/continuous_lyapunov_equation.cpp Pages: 1 -->
<svg width="430pt" height="173pt"
 viewBox="0.00 0.00 430.00 173.00" xmlns="http://www.w3.org/2000/svg" xmlns:xlink="http://www.w3.org/1999/xlink">
<g id="graph0" class="graph" transform="scale(1 1) rotate(0) translate(4 169)">
<title>ACSL&#45;flightstack/src/utils/continuous_lyapunov_equation.cpp</title>
<polygon fill="white" stroke="transparent" points="-4,4 -4,-169 426,-169 426,4 -4,4"/>
<!-- Node1 -->
<g id="node1" class="node">
<title>Node1</title>
<g id="a_node1"><a xlink:title="Computes the solution of the continuos Lyapunov equation.">
<polygon fill="#bfbfbf" stroke="black" points="91,-123.5 91,-164.5 238,-164.5 238,-123.5 91,-123.5"/>
<text text-anchor="start" x="99" y="-152.5" font-family="Helvetica,sans-Serif" font-size="10.00">ACSL&#45;flightstack/src</text>
<text text-anchor="start" x="99" y="-141.5" font-family="Helvetica,sans-Serif" font-size="10.00">/utils/continuous_lyapunov</text>
<text text-anchor="middle" x="164.5" y="-130.5" font-family="Helvetica,sans-Serif" font-size="10.00">_equation.cpp</text>
</a>
</g>
</g>
<!-- Node2 -->
<g id="node2" class="node">
<title>Node2</title>
<g id="a_node2"><a xlink:title=" ">
<polygon fill="white" stroke="#bfbfbf" points="0,-62 0,-81 47,-81 47,-62 0,-62"/>
<text text-anchor="middle" x="23.5" y="-69" font-family="Helvetica,sans-Serif" font-size="10.00">cmath</text>
</a>
</g>
</g>
<!-- Node1&#45;&gt;Node2 -->
<g id="edge1" class="edge">
<title>Node1&#45;&gt;Node2</title>
<path fill="none" stroke="midnightblue" d="M125.22,-123.36C101.2,-111.35 71.11,-96.3 49.91,-85.7"/>
<polygon fill="midnightblue" stroke="midnightblue" points="51.36,-82.52 40.85,-81.17 48.23,-88.78 51.36,-82.52"/>
</g>
<!-- Node3 -->
<g id="node3" class="node">
<title>Node3</title>
<g id="a_node3"><a xlink:title=" ">
<polygon fill="white" stroke="#bfbfbf" points="65,-62 65,-81 124,-81 124,-62 65,-62"/>
<text text-anchor="middle" x="94.5" y="-69" font-family="Helvetica,sans-Serif" font-size="10.00">complex</text>
</a>
</g>
</g>
<!-- Node1&#45;&gt;Node3 -->
<g id="edge2" class="edge">
<title>Node1&#45;&gt;Node3</title>
<path fill="none" stroke="midnightblue" d="M145,-123.36C134.04,-112.32 120.54,-98.72 110.25,-88.37"/>
<polygon fill="midnightblue" stroke="midnightblue" points="112.64,-85.8 103.11,-81.17 107.67,-90.74 112.64,-85.8"/>
</g>
<!-- Node4 -->
<g id="node4" class="node">
<title>Node4</title>
<g id="a_node4"><a xlink:title=" ">
<polygon fill="white" stroke="#bfbfbf" points="142.5,-62 142.5,-81 186.5,-81 186.5,-62 142.5,-62"/>
<text text-anchor="middle" x="164.5" y="-69" font-family="Helvetica,sans-Serif" font-size="10.00">limits</text>
</a>
</g>
</g>
<!-- Node1&#45;&gt;Node4 -->
<g id="edge3" class="edge">
<title>Node1&#45;&gt;Node4</title>
<path fill="none" stroke="midnightblue" d="M164.5,-123.36C164.5,-113.3 164.5,-101.1 164.5,-91.18"/>
<polygon fill="midnightblue" stroke="midnightblue" points="168,-91.17 164.5,-81.17 161,-91.17 168,-91.17"/>
</g>
<!-- Node5 -->
<g id="node5" class="node">
<title>Node5</title>
<g id="a_node5"><a xlink:title=" ">
<polygon fill="white" stroke="#bfbfbf" points="205,-62 205,-81 270,-81 270,-62 205,-62"/>
<text text-anchor="middle" x="237.5" y="-69" font-family="Helvetica,sans-Serif" font-size="10.00">stdexcept</text>
</a>
</g>
</g>
<!-- Node1&#45;&gt;Node5 -->
<g id="edge4" class="edge">
<title>Node1&#45;&gt;Node5</title>
<path fill="none" stroke="midnightblue" d="M184.83,-123.36C196.26,-112.32 210.35,-98.72 221.07,-88.37"/>
<polygon fill="midnightblue" stroke="midnightblue" points="223.76,-90.64 228.52,-81.17 218.89,-85.6 223.76,-90.64"/>
</g>
<!-- Node6 -->
<g id="node6" class="node">
<title>Node6</title>
<g id="a_node6"><a xlink:href="continuous__lyapunov__equation_8hpp.html" target="_top" xlink:title=" ">
<polygon fill="white" stroke="black" points="288.5,-56.5 288.5,-86.5 408.5,-86.5 408.5,-56.5 288.5,-56.5"/>
<text text-anchor="start" x="296.5" y="-74.5" font-family="Helvetica,sans-Serif" font-size="10.00">continuous_lyapunov</text>
<text text-anchor="middle" x="348.5" y="-63.5" font-family="Helvetica,sans-Serif" font-size="10.00">_equation.hpp</text>
</a>
</g>
</g>
<!-- Node1&#45;&gt;Node6 -->
<g id="edge5" class="edge">
<title>Node1&#45;&gt;Node6</title>
<path fill="none" stroke="midnightblue" d="M215.75,-123.36C242.93,-112.95 276.06,-100.25 302.42,-90.15"/>
<polygon fill="midnightblue" stroke="midnightblue" points="303.72,-93.41 311.81,-86.56 301.21,-86.87 303.72,-93.41"/>
</g>
<!-- Node7 -->
<g id="node7" class="node">
<title>Node7</title>
<g id="a_node7"><a xlink:title=" ">
<polygon fill="white" stroke="#bfbfbf" points="266,-0.5 266,-19.5 343,-19.5 343,-0.5 266,-0.5"/>
<text text-anchor="middle" x="304.5" y="-7.5" font-family="Helvetica,sans-Serif" font-size="10.00">Eigen/Dense</text>
</a>
</g>
</g>
<!-- Node6&#45;&gt;Node7 -->
<g id="edge6" class="edge">
<title>Node6&#45;&gt;Node7</title>
<path fill="none" stroke="midnightblue" d="M338.07,-56.4C331.74,-47.84 323.63,-36.87 316.97,-27.86"/>
<polygon fill="midnightblue" stroke="midnightblue" points="319.66,-25.62 310.9,-19.66 314.03,-29.78 319.66,-25.62"/>
</g>
<!-- Node8 -->
<g id="node8" class="node">
<title>Node8</title>
<g id="a_node8"><a xlink:title=" ">
<polygon fill="white" stroke="#bfbfbf" points="361,-0.5 361,-19.5 422,-19.5 422,-0.5 361,-0.5"/>
<text text-anchor="middle" x="391.5" y="-7.5" font-family="Helvetica,sans-Serif" font-size="10.00">Eigen/QR</text>
</a>
</g>
</g>
<!-- Node6&#45;&gt;Node8 -->
<g id="edge7" class="edge">
<title>Node6&#45;&gt;Node8</title>
<path fill="none" stroke="midnightblue" d="M358.69,-56.4C364.87,-47.84 372.8,-36.87 379.32,-27.86"/>
<polygon fill="midnightblue" stroke="midnightblue" points="382.22,-29.81 385.24,-19.66 376.55,-25.71 382.22,-29.81"/>
</g>
</g>
</svg>
