<?xml version="1.0" encoding="UTF-8" standalone="no"?>
<!DOCTYPE svg PUBLIC "-//W3C//DTD SVG 1.1//EN"
 "http://www.w3.org/Graphics/SVG/1.1/DTD/svg11.dtd">
<!-- Generated by graphviz version 2.43.0 (0)
 -->
<!-- Title: ACSL&#45;flightstack/include/flightstack/control/control.hpp Pages: 1 -->
<svg width="2190pt" height="407pt"
 viewBox="0.00 0.00 2189.50 407.00" xmlns="http://www.w3.org/2000/svg" xmlns:xlink="http://www.w3.org/1999/xlink">
<g id="graph0" class="graph" transform="scale(1 1) rotate(0) translate(4 403)">
<title>ACSL&#45;flightstack/include/flightstack/control/control.hpp</title>
<polygon fill="white" stroke="transparent" points="-4,4 -4,-403 2185.5,-403 2185.5,4 -4,4"/>
<!-- Node1 -->
<g id="node1" class="node">
<title>Node1</title>
<g id="a_node1"><a xlink:title="General class that contains common members used by most of the control algorithms.">
<polygon fill="#bfbfbf" stroke="black" points="1605.5,-368.5 1605.5,-398.5 1770.5,-398.5 1770.5,-368.5 1605.5,-368.5"/>
<text text-anchor="start" x="1613.5" y="-386.5" font-family="Helvetica,sans-Serif" font-size="10.00">ACSL&#45;flightstack/include</text>
<text text-anchor="middle" x="1688" y="-375.5" font-family="Helvetica,sans-Serif" font-size="10.00">/flightstack/control/control.hpp</text>
</a>
</g>
</g>
<!-- Node2 -->
<g id="node2" class="node">
<title>Node2</title>
<g id="a_node2"><a xlink:href="mrac_8hpp.html" target="_top" xlink:title="Implementation of MRAC controller.">
<polygon fill="white" stroke="black" points="290.5,-290.5 290.5,-331.5 425.5,-331.5 425.5,-290.5 290.5,-290.5"/>
<text text-anchor="start" x="298.5" y="-319.5" font-family="Helvetica,sans-Serif" font-size="10.00">ACSL&#45;flightstack/include</text>
<text text-anchor="start" x="298.5" y="-308.5" font-family="Helvetica,sans-Serif" font-size="10.00">/flightstack/control/mrac</text>
<text text-anchor="middle" x="358" y="-297.5" font-family="Helvetica,sans-Serif" font-size="10.00">/mrac.hpp</text>
</a>
</g>
</g>
<!-- Node1&#45;&gt;Node2 -->
<g id="edge1" class="edge">
<title>Node1&#45;&gt;Node2</title>
<path fill="none" stroke="midnightblue" d="M1595.05,-377.57C1342.16,-364.17 645.97,-327.26 425.73,-315.59"/>
<polygon fill="midnightblue" stroke="midnightblue" points="1595.13,-381.08 1605.31,-378.12 1595.5,-374.09 1595.13,-381.08"/>
</g>
<!-- Node4 -->
<g id="node4" class="node">
<title>Node4</title>
<g id="a_node4"><a xlink:href="multi__threaded__node_8hpp.html" target="_top" xlink:title="Multithreaded ROS2 node that joins together all the flight stack components.">
<polygon fill="white" stroke="black" points="1040,-145.5 1040,-186.5 1188,-186.5 1188,-145.5 1040,-145.5"/>
<text text-anchor="start" x="1048" y="-174.5" font-family="Helvetica,sans-Serif" font-size="10.00">ACSL&#45;flightstack/include</text>
<text text-anchor="start" x="1048" y="-163.5" font-family="Helvetica,sans-Serif" font-size="10.00">/flightstack/multi_threaded</text>
<text text-anchor="middle" x="1114" y="-152.5" font-family="Helvetica,sans-Serif" font-size="10.00">_node.hpp</text>
</a>
</g>
</g>
<!-- Node1&#45;&gt;Node4 -->
<g id="edge26" class="edge">
<title>Node1&#45;&gt;Node4</title>
<path fill="none" stroke="midnightblue" d="M1640.84,-364.79C1534.61,-324.91 1277.23,-228.28 1166.3,-186.64"/>
<polygon fill="midnightblue" stroke="midnightblue" points="1639.75,-368.12 1650.34,-368.36 1642.21,-361.57 1639.75,-368.12"/>
</g>
<!-- Node8 -->
<g id="node8" class="node">
<title>Node8</title>
<g id="a_node8"><a xlink:href="control_8cpp.html" target="_top" xlink:title="This file contains the general class containing the common memvers used by most of the control algori...">
<polygon fill="white" stroke="black" points="1631.5,-73 1631.5,-103 1744.5,-103 1744.5,-73 1631.5,-73"/>
<text text-anchor="start" x="1639.5" y="-91" font-family="Helvetica,sans-Serif" font-size="10.00">ACSL&#45;flightstack/src</text>
<text text-anchor="middle" x="1688" y="-80" font-family="Helvetica,sans-Serif" font-size="10.00">/control/control.cpp</text>
</a>
</g>
</g>
<!-- Node1&#45;&gt;Node8 -->
<g id="edge27" class="edge">
<title>Node1&#45;&gt;Node8</title>
<path fill="none" stroke="midnightblue" d="M1688,-358.09C1688,-298.95 1688,-149.49 1688,-103.01"/>
<polygon fill="midnightblue" stroke="midnightblue" points="1684.5,-358.34 1688,-368.34 1691.5,-358.34 1684.5,-358.34"/>
</g>
<!-- Node9 -->
<g id="node9" class="node">
<title>Node9</title>
<g id="a_node9"><a xlink:href="control__callback_8cpp.html" target="_top" xlink:title="Callback that is executed at a fixed specified rate defined by the &quot;timer_controller_&quot;.">
<polygon fill="white" stroke="black" points="1763,-73 1763,-103 1919,-103 1919,-73 1763,-73"/>
<text text-anchor="start" x="1771" y="-91" font-family="Helvetica,sans-Serif" font-size="10.00">ACSL&#45;flightstack/src</text>
<text text-anchor="middle" x="1841" y="-80" font-family="Helvetica,sans-Serif" font-size="10.00">/control/control_callback.cpp</text>
</a>
</g>
</g>
<!-- Node1&#45;&gt;Node9 -->
<g id="edge28" class="edge">
<title>Node1&#45;&gt;Node9</title>
<path fill="none" stroke="midnightblue" d="M1700.15,-359.18C1730.58,-300.82 1809.31,-149.78 1833.69,-103.01"/>
<polygon fill="midnightblue" stroke="midnightblue" points="1696.9,-357.86 1695.38,-368.34 1703.11,-361.09 1696.9,-357.86"/>
</g>
<!-- Node21 -->
<g id="node21" class="node">
<title>Node21</title>
<g id="a_node21"><a xlink:href="pid_8hpp.html" target="_top" xlink:title="Implementation of the PID controller.">
<polygon fill="white" stroke="black" points="1927,-145.5 1927,-186.5 2061,-186.5 2061,-145.5 1927,-145.5"/>
<text text-anchor="start" x="1935" y="-174.5" font-family="Helvetica,sans-Serif" font-size="10.00">ACSL&#45;flightstack/include</text>
<text text-anchor="start" x="1935" y="-163.5" font-family="Helvetica,sans-Serif" font-size="10.00">/flightstack/control/pid</text>
<text text-anchor="middle" x="1994" y="-152.5" font-family="Helvetica,sans-Serif" font-size="10.00">/pid.hpp</text>
</a>
</g>
</g>
<!-- Node1&#45;&gt;Node21 -->
<g id="edge23" class="edge">
<title>Node1&#45;&gt;Node21</title>
<path fill="none" stroke="midnightblue" d="M1734.27,-364.56C1754.49,-355.89 1778.08,-344.63 1798,-332 1868.44,-287.34 1940.84,-219.59 1974.54,-186.53"/>
<polygon fill="midnightblue" stroke="midnightblue" points="1732.81,-361.37 1724.94,-368.47 1735.52,-367.83 1732.81,-361.37"/>
</g>
<!-- Node3 -->
<g id="node3" class="node">
<title>Node3</title>
<g id="a_node3"><a xlink:href="config_8hpp.html" target="_top" xlink:title="Configuration file. Here you specify which cotroller you want to run at compile time.">
<polygon fill="white" stroke="black" points="351,-223.5 351,-253.5 507,-253.5 507,-223.5 351,-223.5"/>
<text text-anchor="start" x="359" y="-241.5" font-family="Helvetica,sans-Serif" font-size="10.00">ACSL&#45;flightstack/include</text>
<text text-anchor="middle" x="429" y="-230.5" font-family="Helvetica,sans-Serif" font-size="10.00">/flightstack/config/config.hpp</text>
</a>
</g>
</g>
<!-- Node2&#45;&gt;Node3 -->
<g id="edge2" class="edge">
<title>Node2&#45;&gt;Node3</title>
<path fill="none" stroke="midnightblue" d="M384.88,-283.31C394.94,-273.32 405.98,-262.35 414.51,-253.89"/>
<polygon fill="midnightblue" stroke="midnightblue" points="382.41,-280.83 377.78,-290.36 387.34,-285.8 382.41,-280.83"/>
</g>
<!-- Node10 -->
<g id="node10" class="node">
<title>Node10</title>
<g id="a_node10"><a xlink:href="logging__mrac_8cpp.html" target="_top" xlink:title="Logger for the MRAC controller.">
<polygon fill="white" stroke="black" points="0,-67.5 0,-108.5 120,-108.5 120,-67.5 0,-67.5"/>
<text text-anchor="start" x="8" y="-96.5" font-family="Helvetica,sans-Serif" font-size="10.00">ACSL&#45;flightstack/src</text>
<text text-anchor="start" x="8" y="-85.5" font-family="Helvetica,sans-Serif" font-size="10.00">/control/mrac/logging</text>
<text text-anchor="middle" x="60" y="-74.5" font-family="Helvetica,sans-Serif" font-size="10.00">_mrac.cpp</text>
</a>
</g>
</g>
<!-- Node2&#45;&gt;Node10 -->
<g id="edge21" class="edge">
<title>Node2&#45;&gt;Node10</title>
<path fill="none" stroke="midnightblue" d="M323.49,-284.41C263.29,-239.76 140.35,-148.59 86.39,-108.57"/>
<polygon fill="midnightblue" stroke="midnightblue" points="321.44,-287.24 331.55,-290.39 325.61,-281.62 321.44,-287.24"/>
</g>
<!-- Node11 -->
<g id="node11" class="node">
<title>Node11</title>
<g id="a_node11"><a xlink:href="mrac_8cpp.html" target="_top" xlink:title="Implementation of the MRAC controller.">
<polygon fill="white" stroke="black" points="138.5,-73 138.5,-103 267.5,-103 267.5,-73 138.5,-73"/>
<text text-anchor="start" x="146.5" y="-91" font-family="Helvetica,sans-Serif" font-size="10.00">ACSL&#45;flightstack/src</text>
<text text-anchor="middle" x="203" y="-80" font-family="Helvetica,sans-Serif" font-size="10.00">/control/mrac/mrac.cpp</text>
</a>
</g>
</g>
<!-- Node2&#45;&gt;Node11 -->
<g id="edge22" class="edge">
<title>Node2&#45;&gt;Node11</title>
<path fill="none" stroke="midnightblue" d="M338.42,-282.08C305.02,-234.46 238.23,-139.23 212.98,-103.23"/>
<polygon fill="midnightblue" stroke="midnightblue" points="335.64,-284.21 344.24,-290.39 341.37,-280.19 335.64,-284.21"/>
</g>
<!-- Node3&#45;&gt;Node4 -->
<g id="edge3" class="edge">
<title>Node3&#45;&gt;Node4</title>
<path fill="none" stroke="midnightblue" d="M517.24,-228.42C653.52,-214.39 912.73,-187.72 1039.89,-174.63"/>
<polygon fill="midnightblue" stroke="midnightblue" points="516.83,-224.94 507.24,-229.45 517.55,-231.9 516.83,-224.94"/>
</g>
<!-- Node7 -->
<g id="node7" class="node">
<title>Node7</title>
<g id="a_node7"><a xlink:href="config_8cpp.html" target="_top" xlink:title="Contains the functions that reads the configuration parameters and assigns it to the members of the C...">
<polygon fill="white" stroke="black" points="285.5,-73 285.5,-103 398.5,-103 398.5,-73 285.5,-73"/>
<text text-anchor="start" x="293.5" y="-91" font-family="Helvetica,sans-Serif" font-size="10.00">ACSL&#45;flightstack/src</text>
<text text-anchor="middle" x="342" y="-80" font-family="Helvetica,sans-Serif" font-size="10.00">/config/config.cpp</text>
</a>
</g>
</g>
<!-- Node3&#45;&gt;Node7 -->
<g id="edge19" class="edge">
<title>Node3&#45;&gt;Node7</title>
<path fill="none" stroke="midnightblue" d="M392.67,-217.91C380.87,-209.83 368.82,-199.42 361,-187 344.48,-160.75 341.77,-123.29 341.64,-103.14"/>
<polygon fill="midnightblue" stroke="midnightblue" points="390.85,-220.9 401.15,-223.38 394.64,-215.02 390.85,-220.9"/>
</g>
<!-- Node20 -->
<g id="node20" class="node">
<title>Node20</title>
<g id="a_node20"><a xlink:href="logging__mocap_8cpp.html" target="_top" xlink:title="Logger for the motion capture (MOCAP) system.">
<polygon fill="white" stroke="black" points="370.5,-151 370.5,-181 523.5,-181 523.5,-151 370.5,-151"/>
<text text-anchor="start" x="378.5" y="-169" font-family="Helvetica,sans-Serif" font-size="10.00">ACSL&#45;flightstack/src</text>
<text text-anchor="middle" x="447" y="-158" font-family="Helvetica,sans-Serif" font-size="10.00">/logging/logging_mocap.cpp</text>
</a>
</g>
</g>
<!-- Node3&#45;&gt;Node20 -->
<g id="edge20" class="edge">
<title>Node3&#45;&gt;Node20</title>
<path fill="none" stroke="midnightblue" d="M435.2,-213.23C437.92,-202.57 441.02,-190.41 443.36,-181.25"/>
<polygon fill="midnightblue" stroke="midnightblue" points="431.73,-212.68 432.64,-223.23 438.51,-214.41 431.73,-212.68"/>
</g>
<!-- Node5 -->
<g id="node5" class="node">
<title>Node5</title>
<g id="a_node5"><a xlink:href="main_8hpp.html" target="_top" xlink:title="Main file.">
<polygon fill="white" stroke="black" points="807,-73 807,-103 941,-103 941,-73 807,-73"/>
<text text-anchor="start" x="815" y="-91" font-family="Helvetica,sans-Serif" font-size="10.00">ACSL&#45;flightstack/include</text>
<text text-anchor="middle" x="874" y="-80" font-family="Helvetica,sans-Serif" font-size="10.00">/flightstack/main.hpp</text>
</a>
</g>
</g>
<!-- Node4&#45;&gt;Node5 -->
<g id="edge4" class="edge">
<title>Node4&#45;&gt;Node5</title>
<path fill="none" stroke="midnightblue" d="M1042.44,-142.34C1002.22,-129.6 953.29,-114.11 918.55,-103.11"/>
<polygon fill="midnightblue" stroke="midnightblue" points="1041.6,-145.75 1052.19,-145.43 1043.72,-139.07 1041.6,-145.75"/>
</g>
<!-- Node4&#45;&gt;Node7 -->
<g id="edge6" class="edge">
<title>Node4&#45;&gt;Node7</title>
<path fill="none" stroke="midnightblue" d="M1029.74,-164.15C896.58,-161.5 629.81,-150.9 408,-109 400,-107.49 391.59,-105.37 383.56,-103.07"/>
<polygon fill="midnightblue" stroke="midnightblue" points="1029.81,-167.65 1039.88,-164.34 1029.94,-160.65 1029.81,-167.65"/>
</g>
<!-- Node4&#45;&gt;Node8 -->
<g id="edge7" class="edge">
<title>Node4&#45;&gt;Node8</title>
<path fill="none" stroke="midnightblue" d="M1198.46,-160.47C1299.87,-153.93 1474.72,-139.16 1622,-109 1629.74,-107.41 1637.88,-105.32 1645.69,-103.08"/>
<polygon fill="midnightblue" stroke="midnightblue" points="1198.03,-156.99 1188.28,-161.11 1198.48,-163.97 1198.03,-156.99"/>
</g>
<!-- Node4&#45;&gt;Node9 -->
<g id="edge8" class="edge">
<title>Node4&#45;&gt;Node9</title>
<path fill="none" stroke="midnightblue" d="M1198.41,-161.35C1321.28,-155.19 1556.29,-140.22 1754,-109 1764.1,-107.4 1774.78,-105.3 1785.06,-103.06"/>
<polygon fill="midnightblue" stroke="midnightblue" points="1198.13,-157.86 1188.32,-161.85 1198.48,-164.85 1198.13,-157.86"/>
</g>
<!-- Node4&#45;&gt;Node10 -->
<g id="edge9" class="edge">
<title>Node4&#45;&gt;Node10</title>
<path fill="none" stroke="midnightblue" d="M1029.7,-162.65C824.1,-156.52 301.15,-138.45 129,-109 126.05,-108.5 123.05,-107.91 120.02,-107.26"/>
<polygon fill="midnightblue" stroke="midnightblue" points="1029.74,-166.15 1039.84,-162.95 1029.94,-159.15 1029.74,-166.15"/>
</g>
<!-- Node4&#45;&gt;Node11 -->
<g id="edge10" class="edge">
<title>Node4&#45;&gt;Node11</title>
<path fill="none" stroke="midnightblue" d="M1029.53,-164.93C877.65,-163.58 548.84,-155.01 276,-109 267.06,-107.49 257.63,-105.34 248.64,-103.01"/>
<polygon fill="midnightblue" stroke="midnightblue" points="1029.69,-168.44 1039.72,-165.02 1029.75,-161.44 1029.69,-168.44"/>
</g>
<!-- Node12 -->
<g id="node12" class="node">
<title>Node12</title>
<g id="a_node12"><a xlink:href="logging__pid_8cpp.html" target="_top" xlink:title="Logger for the PID controller.">
<polygon fill="white" stroke="black" points="1937.5,-67.5 1937.5,-108.5 2050.5,-108.5 2050.5,-67.5 1937.5,-67.5"/>
<text text-anchor="start" x="1945.5" y="-96.5" font-family="Helvetica,sans-Serif" font-size="10.00">ACSL&#45;flightstack/src</text>
<text text-anchor="start" x="1945.5" y="-85.5" font-family="Helvetica,sans-Serif" font-size="10.00">/control/pid/logging</text>
<text text-anchor="middle" x="1994" y="-74.5" font-family="Helvetica,sans-Serif" font-size="10.00">_pid.cpp</text>
</a>
</g>
</g>
<!-- Node4&#45;&gt;Node12 -->
<g id="edge11" class="edge">
<title>Node4&#45;&gt;Node12</title>
<path fill="none" stroke="midnightblue" d="M1198.63,-165.43C1347.43,-164.79 1665.06,-157.24 1928,-109 1931.06,-108.44 1934.18,-107.78 1937.32,-107.06"/>
<polygon fill="midnightblue" stroke="midnightblue" points="1198.2,-161.93 1188.21,-165.46 1198.23,-168.93 1198.2,-161.93"/>
</g>
<!-- Node13 -->
<g id="node13" class="node">
<title>Node13</title>
<g id="a_node13"><a xlink:href="pid_8cpp.html" target="_top" xlink:title="Immplementation of the PID controller.">
<polygon fill="white" stroke="black" points="2068.5,-73 2068.5,-103 2181.5,-103 2181.5,-73 2068.5,-73"/>
<text text-anchor="start" x="2076.5" y="-91" font-family="Helvetica,sans-Serif" font-size="10.00">ACSL&#45;flightstack/src</text>
<text text-anchor="middle" x="2125" y="-80" font-family="Helvetica,sans-Serif" font-size="10.00">/control/pid/pid.cpp</text>
</a>
</g>
</g>
<!-- Node4&#45;&gt;Node13 -->
<g id="edge12" class="edge">
<title>Node4&#45;&gt;Node13</title>
<path fill="none" stroke="midnightblue" d="M1198.17,-162.6C1397.86,-156.48 1895.79,-138.68 2060,-109 2068.13,-107.53 2076.68,-105.37 2084.8,-103"/>
<polygon fill="midnightblue" stroke="midnightblue" points="1197.92,-159.1 1188.03,-162.91 1198.13,-166.1 1197.92,-159.1"/>
</g>
<!-- Node14 -->
<g id="node14" class="node">
<title>Node14</title>
<g id="a_node14"><a xlink:href="multi__threaded__node_8cpp.html" target="_top" xlink:title="Multithreaded ROS2 ndoe that joins together all the flight stakc components.">
<polygon fill="white" stroke="black" points="959.5,-73 959.5,-103 1102.5,-103 1102.5,-73 959.5,-73"/>
<text text-anchor="start" x="967.5" y="-91" font-family="Helvetica,sans-Serif" font-size="10.00">ACSL&#45;flightstack/src</text>
<text text-anchor="middle" x="1031" y="-80" font-family="Helvetica,sans-Serif" font-size="10.00">/multi_threaded_node.cpp</text>
</a>
</g>
</g>
<!-- Node4&#45;&gt;Node14 -->
<g id="edge13" class="edge">
<title>Node4&#45;&gt;Node14</title>
<path fill="none" stroke="midnightblue" d="M1085.23,-138.66C1072.24,-126.76 1057.4,-113.18 1046.54,-103.23"/>
<polygon fill="midnightblue" stroke="midnightblue" points="1082.89,-141.26 1092.63,-145.43 1087.61,-136.09 1082.89,-141.26"/>
</g>
<!-- Node15 -->
<g id="node15" class="node">
<title>Node15</title>
<g id="a_node15"><a xlink:href="pixhawk__actuator__motors_8cpp.html" target="_top" xlink:title="Callback that is executed at a fixed specified rate defined by the &quot;timer_controller_&quot;.">
<polygon fill="white" stroke="black" points="1121,-67.5 1121,-108.5 1275,-108.5 1275,-67.5 1121,-67.5"/>
<text text-anchor="start" x="1129" y="-96.5" font-family="Helvetica,sans-Serif" font-size="10.00">ACSL&#45;flightstack/src</text>
<text text-anchor="start" x="1129" y="-85.5" font-family="Helvetica,sans-Serif" font-size="10.00">/pixhawk_interface/pixhawk</text>
<text text-anchor="middle" x="1198" y="-74.5" font-family="Helvetica,sans-Serif" font-size="10.00">_actuator_motors.cpp</text>
</a>
</g>
</g>
<!-- Node4&#45;&gt;Node15 -->
<g id="edge14" class="edge">
<title>Node4&#45;&gt;Node15</title>
<path fill="none" stroke="midnightblue" d="M1143.3,-138.49C1154.2,-128.63 1166.36,-117.63 1176.44,-108.51"/>
<polygon fill="midnightblue" stroke="midnightblue" points="1140.7,-136.12 1135.63,-145.43 1145.4,-141.31 1140.7,-136.12"/>
</g>
<!-- Node16 -->
<g id="node16" class="node">
<title>Node16</title>
<g id="a_node16"><a xlink:href="pixhawk__vehicle__odometry_8cpp.html" target="_top" xlink:title="Callback that is executed everytime a VehicleOdometry message is made available by Pixhawk.">
<polygon fill="white" stroke="black" points="1293,-67.5 1293,-108.5 1447,-108.5 1447,-67.5 1293,-67.5"/>
<text text-anchor="start" x="1301" y="-96.5" font-family="Helvetica,sans-Serif" font-size="10.00">ACSL&#45;flightstack/src</text>
<text text-anchor="start" x="1301" y="-85.5" font-family="Helvetica,sans-Serif" font-size="10.00">/pixhawk_interface/pixhawk</text>
<text text-anchor="middle" x="1370" y="-74.5" font-family="Helvetica,sans-Serif" font-size="10.00">_vehicle_odometry.cpp</text>
</a>
</g>
</g>
<!-- Node4&#45;&gt;Node16 -->
<g id="edge15" class="edge">
<title>Node4&#45;&gt;Node16</title>
<path fill="none" stroke="midnightblue" d="M1189.52,-142.58C1225.95,-131.76 1269.25,-118.91 1304.3,-108.51"/>
<polygon fill="midnightblue" stroke="midnightblue" points="1188.52,-139.23 1179.93,-145.43 1190.51,-145.94 1188.52,-139.23"/>
</g>
<!-- Node17 -->
<g id="node17" class="node">
<title>Node17</title>
<g id="a_node17"><a xlink:href="vehicle__state_8cpp.html" target="_top" xlink:title="Class storing the state of the vehicle coming from the flight controller (Pixhawk)">
<polygon fill="white" stroke="black" points="1465,-67.5 1465,-108.5 1613,-108.5 1613,-67.5 1465,-67.5"/>
<text text-anchor="start" x="1473" y="-96.5" font-family="Helvetica,sans-Serif" font-size="10.00">ACSL&#45;flightstack/src</text>
<text text-anchor="start" x="1473" y="-85.5" font-family="Helvetica,sans-Serif" font-size="10.00">/pixhawk_interface/vehicle</text>
<text text-anchor="middle" x="1539" y="-74.5" font-family="Helvetica,sans-Serif" font-size="10.00">_state.cpp</text>
</a>
</g>
</g>
<!-- Node4&#45;&gt;Node17 -->
<g id="edge16" class="edge">
<title>Node4&#45;&gt;Node17</title>
<path fill="none" stroke="midnightblue" d="M1198.01,-153.02C1267.44,-142.69 1368.45,-126.69 1456,-109 1458.91,-108.41 1461.86,-107.8 1464.85,-107.16"/>
<polygon fill="midnightblue" stroke="midnightblue" points="1197.39,-149.57 1188.01,-154.5 1198.41,-156.5 1197.39,-149.57"/>
</g>
<!-- Node18 -->
<g id="node18" class="node">
<title>Node18</title>
<g id="a_node18"><a xlink:href="piecewise__polynomial__trajectory_8cpp.html" target="_top" xlink:title="Piecewise polynomial minimu&#45;jerk trajectory computed offline through a MATLAB script.">
<polygon fill="white" stroke="black" points="417,-67.5 417,-108.5 617,-108.5 617,-67.5 417,-67.5"/>
<text text-anchor="start" x="425" y="-96.5" font-family="Helvetica,sans-Serif" font-size="10.00">ACSL&#45;flightstack/src</text>
<text text-anchor="start" x="425" y="-85.5" font-family="Helvetica,sans-Serif" font-size="10.00">/user_defined_trajectory</text>
<text text-anchor="middle" x="517" y="-74.5" font-family="Helvetica,sans-Serif" font-size="10.00">/piecewise_polynomial_trajectory.cpp</text>
</a>
</g>
</g>
<!-- Node4&#45;&gt;Node18 -->
<g id="edge17" class="edge">
<title>Node4&#45;&gt;Node18</title>
<path fill="none" stroke="midnightblue" d="M1029.71,-157.06C932.26,-147.49 767.14,-130.02 626,-109 623.05,-108.56 620.06,-108.1 617.04,-107.63"/>
<polygon fill="midnightblue" stroke="midnightblue" points="1029.51,-160.56 1039.8,-158.05 1030.19,-153.59 1029.51,-160.56"/>
</g>
<!-- Node19 -->
<g id="node19" class="node">
<title>Node19</title>
<g id="a_node19"><a xlink:href="user__defined__trajectory_8cpp.html" target="_top" xlink:title="Class that contains the common members that each type of user&#45;defined trajectory class will inherit.">
<polygon fill="white" stroke="black" points="635.5,-67.5 635.5,-108.5 788.5,-108.5 788.5,-67.5 635.5,-67.5"/>
<text text-anchor="start" x="643.5" y="-96.5" font-family="Helvetica,sans-Serif" font-size="10.00">ACSL&#45;flightstack/src</text>
<text text-anchor="start" x="643.5" y="-85.5" font-family="Helvetica,sans-Serif" font-size="10.00">/user_defined_trajectory</text>
<text text-anchor="middle" x="712" y="-74.5" font-family="Helvetica,sans-Serif" font-size="10.00">/user_defined_trajectory.cpp</text>
</a>
</g>
</g>
<!-- Node4&#45;&gt;Node19 -->
<g id="edge18" class="edge">
<title>Node4&#45;&gt;Node19</title>
<path fill="none" stroke="midnightblue" d="M1029.71,-151.31C965.92,-140.65 876.24,-125.02 798,-109 795,-108.39 791.94,-107.74 788.85,-107.09"/>
<polygon fill="midnightblue" stroke="midnightblue" points="1029.29,-154.79 1039.72,-152.98 1030.44,-147.89 1029.29,-154.79"/>
</g>
<!-- Node6 -->
<g id="node6" class="node">
<title>Node6</title>
<g id="a_node6"><a xlink:href="main_8cpp.html" target="_top" xlink:title="FlightStack (Multirotor) main.cpp file.">
<polygon fill="white" stroke="black" points="817.5,-0.5 817.5,-30.5 930.5,-30.5 930.5,-0.5 817.5,-0.5"/>
<text text-anchor="start" x="825.5" y="-18.5" font-family="Helvetica,sans-Serif" font-size="10.00">ACSL&#45;flightstack/src</text>
<text text-anchor="middle" x="874" y="-7.5" font-family="Helvetica,sans-Serif" font-size="10.00">/main.cpp</text>
</a>
</g>
</g>
<!-- Node5&#45;&gt;Node6 -->
<g id="edge5" class="edge">
<title>Node5&#45;&gt;Node6</title>
<path fill="none" stroke="midnightblue" d="M874,-62.73C874,-52.07 874,-39.91 874,-30.75"/>
<polygon fill="midnightblue" stroke="midnightblue" points="870.5,-62.73 874,-72.73 877.5,-62.73 870.5,-62.73"/>
</g>
<!-- Node21&#45;&gt;Node12 -->
<g id="edge24" class="edge">
<title>Node21&#45;&gt;Node12</title>
<path fill="none" stroke="midnightblue" d="M1994,-135.3C1994,-126.3 1994,-116.65 1994,-108.51"/>
<polygon fill="midnightblue" stroke="midnightblue" points="1990.5,-135.43 1994,-145.43 1997.5,-135.43 1990.5,-135.43"/>
</g>
<!-- Node21&#45;&gt;Node13 -->
<g id="edge25" class="edge">
<title>Node21&#45;&gt;Node13</title>
<path fill="none" stroke="midnightblue" d="M2036.55,-140.31C2057.71,-128.04 2082.53,-113.64 2100.48,-103.23"/>
<polygon fill="midnightblue" stroke="midnightblue" points="2034.63,-137.38 2027.74,-145.43 2038.14,-143.44 2034.63,-137.38"/>
</g>
</g>
</svg>
