<?xml version="1.0" encoding="UTF-8" standalone="no"?>
<!DOCTYPE svg PUBLIC "-//W3C//DTD SVG 1.1//EN"
 "http://www.w3.org/Graphics/SVG/1.1/DTD/svg11.dtd">
<!-- Generated by graphviz version 2.43.0 (0)
 -->
<!-- Title: /mnt/c/Users/siddh/OneDrive/Desktop/ACSL&#45;flightstack/include/flightstack/utils/continuous_lyapunov_equation.hpp Pages: 1 -->
<svg width="224pt" height="117pt"
 viewBox="0.00 0.00 224.00 117.00" xmlns="http://www.w3.org/2000/svg" xmlns:xlink="http://www.w3.org/1999/xlink">
<g id="graph0" class="graph" transform="scale(1 1) rotate(0) translate(4 113)">
<title>/mnt/c/Users/siddh/OneDrive/Desktop/ACSL&#45;flightstack/include/flightstack/utils/continuous_lyapunov_equation.hpp</title>
<polygon fill="white" stroke="transparent" points="-4,4 -4,-113 220,-113 220,4 -4,4"/>
<!-- Node1 -->
<g id="node1" class="node">
<title>Node1</title>
<g id="a_node1"><a xlink:title=" ">
<polygon fill="#bfbfbf" stroke="black" points="0,-56.5 0,-108.5 216,-108.5 216,-56.5 0,-56.5"/>
<text text-anchor="start" x="8" y="-96.5" font-family="Helvetica,sans-Serif" font-size="10.00">/mnt/c/Users/siddh</text>
<text text-anchor="start" x="8" y="-85.5" font-family="Helvetica,sans-Serif" font-size="10.00">/OneDrive/Desktop/ACSL</text>
<text text-anchor="start" x="8" y="-74.5" font-family="Helvetica,sans-Serif" font-size="10.00">&#45;flightstack/include/flightstack</text>
<text text-anchor="middle" x="108" y="-63.5" font-family="Helvetica,sans-Serif" font-size="10.00">/utils/continuous_lyapunov_equation.hpp</text>
</a>
</g>
</g>
<!-- Node2 -->
<g id="node2" class="node">
<title>Node2</title>
<g id="a_node2"><a xlink:title=" ">
<polygon fill="white" stroke="#bfbfbf" points="26.5,-0.5 26.5,-19.5 103.5,-19.5 103.5,-0.5 26.5,-0.5"/>
<text text-anchor="middle" x="65" y="-7.5" font-family="Helvetica,sans-Serif" font-size="10.00">Eigen/Dense</text>
</a>
</g>
</g>
<!-- Node1&#45;&gt;Node2 -->
<g id="edge1" class="edge">
<title>Node1&#45;&gt;Node2</title>
<path fill="none" stroke="midnightblue" d="M92.72,-56.45C87.04,-47.13 80.72,-36.77 75.55,-28.3"/>
<polygon fill="midnightblue" stroke="midnightblue" points="78.5,-26.41 70.3,-19.7 72.52,-30.06 78.5,-26.41"/>
</g>
<!-- Node3 -->
<g id="node3" class="node">
<title>Node3</title>
<g id="a_node3"><a xlink:title=" ">
<polygon fill="white" stroke="#bfbfbf" points="121.5,-0.5 121.5,-19.5 182.5,-19.5 182.5,-0.5 121.5,-0.5"/>
<text text-anchor="middle" x="152" y="-7.5" font-family="Helvetica,sans-Serif" font-size="10.00">Eigen/QR</text>
</a>
</g>
</g>
<!-- Node1&#45;&gt;Node3 -->
<g id="edge2" class="edge">
<title>Node1&#45;&gt;Node3</title>
<path fill="none" stroke="midnightblue" d="M123.64,-56.45C129.45,-47.13 135.92,-36.77 141.2,-28.3"/>
<polygon fill="midnightblue" stroke="midnightblue" points="144.25,-30.03 146.57,-19.7 138.31,-26.33 144.25,-30.03"/>
</g>
</g>
</svg>
