<?xml version="1.0" encoding="UTF-8" standalone="no"?>
<!DOCTYPE svg PUBLIC "-//W3C//DTD SVG 1.1//EN"
 "http://www.w3.org/Graphics/SVG/1.1/DTD/svg11.dtd">
<!-- Generated by graphviz version 2.43.0 (0)
 -->
<!-- Title: /mnt/c/Users/siddh/Onedrive/Desktop/ACSL&#45;flightstack/include/flightstack/control/control.hpp Pages: 1 -->
<svg width="1077pt" height="240pt"
 viewBox="0.00 0.00 1076.61 240.00" xmlns="http://www.w3.org/2000/svg" xmlns:xlink="http://www.w3.org/1999/xlink">
<g id="graph0" class="graph" transform="scale(1 1) rotate(0) translate(4 236)">
<title>/mnt/c/Users/siddh/Onedrive/Desktop/ACSL&#45;flightstack/include/flightstack/control/control.hpp</title>
<polygon fill="white" stroke="transparent" points="-4,4 -4,-236 1072.61,-236 1072.61,4 -4,4"/>
<!-- Node1 -->
<g id="node1" class="node">
<title>Node1</title>
<g id="a_node1"><a xlink:title="General class that contains common members used by most of the control algorithms.">
<polygon fill="#bfbfbf" stroke="black" points="545.11,-179.5 545.11,-231.5 709.11,-231.5 709.11,-179.5 545.11,-179.5"/>
<text text-anchor="start" x="553.11" y="-219.5" font-family="Helvetica,sans-Serif" font-size="10.00">/mnt/c/Users/siddh</text>
<text text-anchor="start" x="553.11" y="-208.5" font-family="Helvetica,sans-Serif" font-size="10.00">/Onedrive/Desktop/ACSL</text>
<text text-anchor="start" x="553.11" y="-197.5" font-family="Helvetica,sans-Serif" font-size="10.00">&#45;flightstack/include/flightstack</text>
<text text-anchor="middle" x="627.11" y="-186.5" font-family="Helvetica,sans-Serif" font-size="10.00">/control/control.hpp</text>
</a>
</g>
</g>
<!-- Node2 -->
<g id="node2" class="node">
<title>Node2</title>
<g id="a_node2"><a xlink:title=" ">
<polygon fill="white" stroke="#bfbfbf" points="38.61,-0.5 38.61,-19.5 85.61,-19.5 85.61,-0.5 38.61,-0.5"/>
<text text-anchor="middle" x="62.11" y="-7.5" font-family="Helvetica,sans-Serif" font-size="10.00">cmath</text>
</a>
</g>
</g>
<!-- Node1&#45;&gt;Node2 -->
<g id="edge1" class="edge">
<title>Node1&#45;&gt;Node2</title>
<path fill="none" stroke="midnightblue" d="M544.94,-200.81C390.36,-191.88 66.19,-162.97 4.11,-76 -9.5,-56.94 14.59,-37.15 35.74,-24.49"/>
<polygon fill="midnightblue" stroke="midnightblue" points="37.53,-27.5 44.51,-19.52 34.08,-21.41 37.53,-27.5"/>
</g>
<!-- Node3 -->
<g id="node3" class="node">
<title>Node3</title>
<g id="a_node3"><a xlink:title=" ">
<polygon fill="white" stroke="#bfbfbf" points="128.61,-56.5 128.61,-75.5 175.61,-75.5 175.61,-56.5 128.61,-56.5"/>
<text text-anchor="middle" x="152.11" y="-63.5" font-family="Helvetica,sans-Serif" font-size="10.00">vector</text>
</a>
</g>
</g>
<!-- Node1&#45;&gt;Node3 -->
<g id="edge2" class="edge">
<title>Node1&#45;&gt;Node3</title>
<path fill="none" stroke="midnightblue" d="M544.91,-180.71C438.91,-150.02 259.4,-98.06 185.46,-76.65"/>
<polygon fill="midnightblue" stroke="midnightblue" points="186.33,-73.26 175.75,-73.84 184.38,-79.98 186.33,-73.26"/>
</g>
<!-- Node4 -->
<g id="node4" class="node">
<title>Node4</title>
<g id="a_node4"><a xlink:title=" ">
<polygon fill="white" stroke="#bfbfbf" points="775.61,-118 775.61,-137 840.61,-137 840.61,-118 775.61,-118"/>
<text text-anchor="middle" x="808.11" y="-125" font-family="Helvetica,sans-Serif" font-size="10.00">functional</text>
</a>
</g>
</g>
<!-- Node1&#45;&gt;Node4 -->
<g id="edge3" class="edge">
<title>Node1&#45;&gt;Node4</title>
<path fill="none" stroke="midnightblue" d="M686.88,-179.4C717.6,-166.5 753.69,-151.35 778.46,-140.95"/>
<polygon fill="midnightblue" stroke="midnightblue" points="779.82,-144.18 787.68,-137.08 777.11,-137.72 779.82,-144.18"/>
</g>
<!-- Node5 -->
<g id="node5" class="node">
<title>Node5</title>
<g id="a_node5"><a xlink:title=" ">
<polygon fill="white" stroke="#bfbfbf" points="859.11,-118 859.11,-137 909.11,-137 909.11,-118 859.11,-118"/>
<text text-anchor="middle" x="884.11" y="-125" font-family="Helvetica,sans-Serif" font-size="10.00">chrono</text>
</a>
</g>
</g>
<!-- Node1&#45;&gt;Node5 -->
<g id="edge4" class="edge">
<title>Node1&#45;&gt;Node5</title>
<path fill="none" stroke="midnightblue" d="M709.21,-184.67C751.69,-173.7 804.14,-159.06 850.11,-143 851.97,-142.35 853.88,-141.65 855.79,-140.91"/>
<polygon fill="midnightblue" stroke="midnightblue" points="857.27,-144.09 865.23,-137.08 854.64,-137.6 857.27,-144.09"/>
</g>
<!-- Node6 -->
<g id="node6" class="node">
<title>Node6</title>
<g id="a_node6"><a xlink:title=" ">
<polygon fill="white" stroke="#bfbfbf" points="487.61,-0.5 487.61,-19.5 564.61,-19.5 564.61,-0.5 487.61,-0.5"/>
<text text-anchor="middle" x="526.11" y="-7.5" font-family="Helvetica,sans-Serif" font-size="10.00">Eigen/Dense</text>
</a>
</g>
</g>
<!-- Node1&#45;&gt;Node6 -->
<g id="edge5" class="edge">
<title>Node1&#45;&gt;Node6</title>
<path fill="none" stroke="midnightblue" d="M666.8,-179.23C719.79,-144.02 804.64,-81.62 783.11,-56 757.08,-25.01 642.17,-15.36 575.15,-12.36"/>
<polygon fill="midnightblue" stroke="midnightblue" points="574.96,-8.84 564.82,-11.93 574.67,-15.84 574.96,-8.84"/>
</g>
<!-- Node7 -->
<g id="node7" class="node">
<title>Node7</title>
<g id="a_node7"><a xlink:title=" ">
<polygon fill="white" stroke="#bfbfbf" points="927.61,-118 927.61,-137 1068.61,-137 1068.61,-118 927.61,-118"/>
<text text-anchor="middle" x="998.11" y="-125" font-family="Helvetica,sans-Serif" font-size="10.00">boost/numeric/odeint.hpp</text>
</a>
</g>
</g>
<!-- Node1&#45;&gt;Node7 -->
<g id="edge6" class="edge">
<title>Node1&#45;&gt;Node7</title>
<path fill="none" stroke="midnightblue" d="M709.45,-187.63C781.84,-172.8 884.97,-151.68 946.37,-139.1"/>
<polygon fill="midnightblue" stroke="midnightblue" points="947.12,-142.52 956.22,-137.08 945.72,-135.66 947.12,-142.52"/>
</g>
<!-- Node8 -->
<g id="node8" class="node">
<title>Node8</title>
<g id="a_node8"><a xlink:href="vehicle__info_8hpp.html" target="_top" xlink:title="Vehicle properties such as mass, intertia matrix, motor thrust curves, etc.">
<polygon fill="white" stroke="black" points="13.61,-56.5 13.61,-75.5 110.61,-75.5 110.61,-56.5 13.61,-56.5"/>
<text text-anchor="middle" x="62.11" y="-63.5" font-family="Helvetica,sans-Serif" font-size="10.00">vehicle_info.hpp</text>
</a>
</g>
</g>
<!-- Node1&#45;&gt;Node8 -->
<g id="edge7" class="edge">
<title>Node1&#45;&gt;Node8</title>
<path fill="none" stroke="midnightblue" d="M544.84,-190.54C481.65,-179.27 392.41,-162.18 315.11,-143 236.57,-123.51 146.1,-94.78 97.47,-78.81"/>
<polygon fill="midnightblue" stroke="midnightblue" points="98.33,-75.41 87.74,-75.6 96.14,-82.06 98.33,-75.41"/>
</g>
<!-- Node9 -->
<g id="node9" class="node">
<title>Node9</title>
<g id="a_node9"><a xlink:href="piecewise__polynomial__trajectory_8hpp.html" target="_top" xlink:title="Piecewise polynomial minimu&#45;jerk trajectory computed offline through a MATLAB script.">
<polygon fill="white" stroke="black" points="519.61,-112.5 519.61,-142.5 644.61,-142.5 644.61,-112.5 519.61,-112.5"/>
<text text-anchor="start" x="527.61" y="-130.5" font-family="Helvetica,sans-Serif" font-size="10.00">piecewise_polynomial</text>
<text text-anchor="middle" x="582.11" y="-119.5" font-family="Helvetica,sans-Serif" font-size="10.00">_trajectory.hpp</text>
</a>
</g>
</g>
<!-- Node1&#45;&gt;Node9 -->
<g id="edge10" class="edge">
<title>Node1&#45;&gt;Node9</title>
<path fill="none" stroke="midnightblue" d="M612.13,-179.19C606.87,-170.31 600.99,-160.39 595.84,-151.69"/>
<polygon fill="midnightblue" stroke="midnightblue" points="598.71,-149.67 590.6,-142.85 592.69,-153.23 598.71,-149.67"/>
</g>
<!-- Node8&#45;&gt;Node2 -->
<g id="edge8" class="edge">
<title>Node8&#45;&gt;Node2</title>
<path fill="none" stroke="midnightblue" d="M62.11,-56.08C62.11,-49.01 62.11,-38.86 62.11,-29.99"/>
<polygon fill="midnightblue" stroke="midnightblue" points="65.61,-29.75 62.11,-19.75 58.61,-29.75 65.61,-29.75"/>
</g>
<!-- Node8&#45;&gt;Node6 -->
<g id="edge9" class="edge">
<title>Node8&#45;&gt;Node6</title>
<path fill="none" stroke="midnightblue" d="M110.82,-57.28C113.96,-56.83 117.08,-56.4 120.11,-56 248.69,-38.91 400.78,-23.27 477.15,-15.73"/>
<polygon fill="midnightblue" stroke="midnightblue" points="477.81,-19.18 487.42,-14.72 477.12,-12.22 477.81,-19.18"/>
</g>
<!-- Node9&#45;&gt;Node3 -->
<g id="edge11" class="edge">
<title>Node9&#45;&gt;Node3</title>
<path fill="none" stroke="midnightblue" d="M519.45,-121.26C442.91,-114.25 309.42,-100.06 185.83,-75.88"/>
<polygon fill="midnightblue" stroke="midnightblue" points="186.3,-72.4 175.81,-73.89 184.94,-79.27 186.3,-72.4"/>
</g>
<!-- Node9&#45;&gt;Node6 -->
<g id="edge16" class="edge">
<title>Node9&#45;&gt;Node6</title>
<path fill="none" stroke="midnightblue" d="M644.76,-122.87C711.13,-116.68 801.68,-100.09 765.11,-56 741.43,-27.45 637.66,-16.89 574.9,-13.08"/>
<polygon fill="midnightblue" stroke="midnightblue" points="575,-9.58 564.82,-12.5 574.6,-16.57 575,-9.58"/>
</g>
<!-- Node10 -->
<g id="node10" class="node">
<title>Node10</title>
<g id="a_node10"><a xlink:title=" ">
<polygon fill="white" stroke="#bfbfbf" points="560.11,-56.5 560.11,-75.5 604.11,-75.5 604.11,-56.5 560.11,-56.5"/>
<text text-anchor="middle" x="582.11" y="-63.5" font-family="Helvetica,sans-Serif" font-size="10.00">string</text>
</a>
</g>
</g>
<!-- Node9&#45;&gt;Node10 -->
<g id="edge12" class="edge">
<title>Node9&#45;&gt;Node10</title>
<path fill="none" stroke="midnightblue" d="M582.11,-112.4C582.11,-104.47 582.11,-94.46 582.11,-85.86"/>
<polygon fill="midnightblue" stroke="midnightblue" points="585.61,-85.66 582.11,-75.66 578.61,-85.66 585.61,-85.66"/>
</g>
<!-- Node11 -->
<g id="node11" class="node">
<title>Node11</title>
<g id="a_node11"><a xlink:title=" ">
<polygon fill="white" stroke="#bfbfbf" points="622.61,-56.5 622.61,-75.5 677.61,-75.5 677.61,-56.5 622.61,-56.5"/>
<text text-anchor="middle" x="650.11" y="-63.5" font-family="Helvetica,sans-Serif" font-size="10.00">fstream</text>
</a>
</g>
</g>
<!-- Node9&#45;&gt;Node11 -->
<g id="edge13" class="edge">
<title>Node9&#45;&gt;Node11</title>
<path fill="none" stroke="midnightblue" d="M598.23,-112.4C608.51,-103.4 621.86,-91.72 632.44,-82.47"/>
<polygon fill="midnightblue" stroke="midnightblue" points="635,-84.88 640.22,-75.66 630.39,-79.61 635,-84.88"/>
</g>
<!-- Node12 -->
<g id="node12" class="node">
<title>Node12</title>
<g id="a_node12"><a xlink:title=" ">
<polygon fill="white" stroke="#bfbfbf" points="696.11,-56.5 696.11,-75.5 756.11,-75.5 756.11,-56.5 696.11,-56.5"/>
<text text-anchor="middle" x="726.11" y="-63.5" font-family="Helvetica,sans-Serif" font-size="10.00">iostream</text>
</a>
</g>
</g>
<!-- Node9&#45;&gt;Node12 -->
<g id="edge14" class="edge">
<title>Node9&#45;&gt;Node12</title>
<path fill="none" stroke="midnightblue" d="M616.24,-112.4C640.4,-102.42 672.51,-89.15 695.78,-79.53"/>
<polygon fill="midnightblue" stroke="midnightblue" points="697.25,-82.71 705.16,-75.66 694.58,-76.24 697.25,-82.71"/>
</g>
<!-- Node13 -->
<g id="node13" class="node">
<title>Node13</title>
<g id="a_node13"><a xlink:title=" ">
<polygon fill="white" stroke="#bfbfbf" points="362.61,-56.5 362.61,-75.5 413.61,-75.5 413.61,-56.5 362.61,-56.5"/>
<text text-anchor="middle" x="388.11" y="-63.5" font-family="Helvetica,sans-Serif" font-size="10.00">math.h</text>
</a>
</g>
</g>
<!-- Node9&#45;&gt;Node13 -->
<g id="edge15" class="edge">
<title>Node9&#45;&gt;Node13</title>
<path fill="none" stroke="midnightblue" d="M536.14,-112.4C501.66,-101.83 455.16,-87.56 423.54,-77.87"/>
<polygon fill="midnightblue" stroke="midnightblue" points="424.42,-74.47 413.83,-74.89 422.36,-81.17 424.42,-74.47"/>
</g>
<!-- Node14 -->
<g id="node14" class="node">
<title>Node14</title>
<g id="a_node14"><a xlink:title=" ">
<polygon fill="white" stroke="#bfbfbf" points="432.11,-56.5 432.11,-75.5 542.11,-75.5 542.11,-56.5 432.11,-56.5"/>
<text text-anchor="middle" x="487.11" y="-63.5" font-family="Helvetica,sans-Serif" font-size="10.00">nlohmann/json.hpp</text>
</a>
</g>
</g>
<!-- Node9&#45;&gt;Node14 -->
<g id="edge17" class="edge">
<title>Node9&#45;&gt;Node14</title>
<path fill="none" stroke="midnightblue" d="M559.6,-112.4C544.51,-102.95 524.73,-90.56 509.64,-81.11"/>
<polygon fill="midnightblue" stroke="midnightblue" points="511.27,-78 500.93,-75.66 507.55,-83.93 511.27,-78"/>
</g>
<!-- Node15 -->
<g id="node15" class="node">
<title>Node15</title>
<g id="a_node15"><a xlink:href="user__defined__trajectory_8hpp.html" target="_top" xlink:title="Class that contains the common members that each type of user&#45;defined trajectory class will inherit.">
<polygon fill="white" stroke="black" points="193.61,-56.5 193.61,-75.5 344.61,-75.5 344.61,-56.5 193.61,-56.5"/>
<text text-anchor="middle" x="269.11" y="-63.5" font-family="Helvetica,sans-Serif" font-size="10.00">user_defined_trajectory.hpp</text>
</a>
</g>
</g>
<!-- Node9&#45;&gt;Node15 -->
<g id="edge18" class="edge">
<title>Node9&#45;&gt;Node15</title>
<path fill="none" stroke="midnightblue" d="M519.52,-114.6C462.25,-103.72 378.36,-87.77 323.74,-77.38"/>
<polygon fill="midnightblue" stroke="midnightblue" points="324.37,-73.94 313.89,-75.51 323.06,-80.82 324.37,-73.94"/>
</g>
<!-- Node15&#45;&gt;Node2 -->
<g id="edge19" class="edge">
<title>Node15&#45;&gt;Node2</title>
<path fill="none" stroke="midnightblue" d="M236.31,-56.44C197.8,-46.4 134.27,-29.83 95.51,-19.71"/>
<polygon fill="midnightblue" stroke="midnightblue" points="96.3,-16.3 85.74,-17.16 94.54,-23.08 96.3,-16.3"/>
</g>
<!-- Node15&#45;&gt;Node6 -->
<g id="edge20" class="edge">
<title>Node15&#45;&gt;Node6</title>
<path fill="none" stroke="midnightblue" d="M309.83,-56.44C355.29,-46.89 428.81,-31.44 477.31,-21.25"/>
<polygon fill="midnightblue" stroke="midnightblue" points="478.19,-24.64 487.26,-19.16 476.76,-17.79 478.19,-24.64"/>
</g>
</g>
</svg>
