<?xml version="1.0" encoding="UTF-8" standalone="no"?>
<!DOCTYPE svg PUBLIC "-//W3C//DTD SVG 1.1//EN"
 "http://www.w3.org/Graphics/SVG/1.1/DTD/svg11.dtd">
<!-- Generated by graphviz version 2.43.0 (0)
 -->
<!-- Title: ACSL&#45;flightstack/include/flightstack/utils/continuous_lyapunov_equation.hpp Pages: 1 -->
<!--zoomable 418 -->
<svg id="main" version="1.1" xmlns="http://www.w3.org/2000/svg" xmlns:xlink="http://www.w3.org/1999/xlink" xml:space="preserve" onload="init(evt)">
<style type="text/css"><![CDATA[
.edge:hover path { stroke: red; }
.edge:hover polygon { stroke: red; fill: red; }
]]></style>
<script type="text/javascript"><![CDATA[
var edges = document.getElementsByTagName('g');
if (edges && edges.length) {
  for (var i=0;i<edges.length;i++) {
    if (edges[i].id.substr(0,4)=='edge') {
      edges[i].setAttribute('class','edge');
    }
  }
}
]]></script>
        <defs>
                <circle id="rim" cx="0" cy="0" r="7"/>
                <circle id="rim2" cx="0" cy="0" r="3.5"/>
                <g id="zoomPlus">
                        <use xlink:href="#rim" fill="#404040">
                                <set attributeName="fill" to="#808080" begin="zoomplus.mouseover" end="zoomplus.mouseout"/>
                        </use>
                        <path d="M-4,0h8M0,-4v8" fill="none" stroke="white" stroke-width="1.5" pointer-events="none"/>
                </g>
                <g id="zoomMin">
                        <use xlink:href="#rim" fill="#404040">
                                <set attributeName="fill" to="#808080" begin="zoomminus.mouseover" end="zoomminus.mouseout"/>
                        </use>
                        <path d="M-4,0h8" fill="none" stroke="white" stroke-width="1.5" pointer-events="none"/>
                </g>
                <g id="dirArrow">
                        <path fill="none" stroke="white" stroke-width="1.5" d="M0,-3.0v7 M-2.5,-0.5L0,-3.0L2.5,-0.5"/>
                </g>
               <g id="resetDef">
                       <use xlink:href="#rim2" fill="#404040">
                               <set attributeName="fill" to="#808080" begin="reset.mouseover" end="reset.mouseout"/>
                       </use>
               </g>
        </defs>

<script type="text/javascript">
var viewWidth = 2214;
var viewHeight = 418;
var sectionId = 'dynsection-1';
</script>
<script xlink:href="svgpan.js"/>
<svg id="graph" class="graph">
<g id="viewport">
<title>ACSL&#45;flightstack/include/flightstack/utils/continuous_lyapunov_equation.hpp</title>
<polygon fill="white" stroke="transparent" points="-4,4 -4,-414 2210,-414 2210,4 -4,4"/>
<!-- Node1 -->
<g id="node1" class="node">
<title>Node1</title>
<g id="a_node1"><a xlink:title=" ">
<polygon fill="#bfbfbf" stroke="black" points="1977,-368.5 1977,-409.5 2128,-409.5 2128,-368.5 1977,-368.5"/>
<text text-anchor="start" x="1985" y="-397.5" font-family="Helvetica,sans-Serif" font-size="10.00">ACSL&#45;flightstack/include</text>
<text text-anchor="start" x="1985" y="-386.5" font-family="Helvetica,sans-Serif" font-size="10.00">/flightstack/utils/continuous</text>
<text text-anchor="middle" x="2052.5" y="-375.5" font-family="Helvetica,sans-Serif" font-size="10.00">_lyapunov_equation.hpp</text>
</a>
</g>
</g>
<!-- Node2 -->
<g id="node2" class="node">
<title>Node2</title>
<g id="a_node2"><a xlink:href="mrac_8hpp.html" target="_top" xlink:title="Implementation of MRAC controller.">
<polygon fill="white" stroke="black" points="1906,-290.5 1906,-331.5 2041,-331.5 2041,-290.5 1906,-290.5"/>
<text text-anchor="start" x="1914" y="-319.5" font-family="Helvetica,sans-Serif" font-size="10.00">ACSL&#45;flightstack/include</text>
<text text-anchor="start" x="1914" y="-308.5" font-family="Helvetica,sans-Serif" font-size="10.00">/flightstack/control/mrac</text>
<text text-anchor="middle" x="1973.5" y="-297.5" font-family="Helvetica,sans-Serif" font-size="10.00">/mrac.hpp</text>
</a>
</g>
</g>
<!-- Node1&#45;&gt;Node2 -->
<g id="edge1" class="edge">
<title>Node1&#45;&gt;Node2</title>
<path fill="none" stroke="midnightblue" d="M2024.95,-361.49C2014.69,-351.63 2003.26,-340.63 1993.78,-331.51"/>
<polygon fill="midnightblue" stroke="midnightblue" points="2022.52,-364.02 2032.16,-368.43 2027.38,-358.97 2022.52,-364.02"/>
</g>
<!-- Node21 -->
<g id="node21" class="node">
<title>Node21</title>
<g id="a_node21"><a xlink:href="continuous__lyapunov__equation_8cpp.html" target="_top" xlink:title="Computes the solution of the continuos Lyapunov equation.">
<polygon fill="white" stroke="black" points="2059,-290.5 2059,-331.5 2206,-331.5 2206,-290.5 2059,-290.5"/>
<text text-anchor="start" x="2067" y="-319.5" font-family="Helvetica,sans-Serif" font-size="10.00">ACSL&#45;flightstack/src</text>
<text text-anchor="start" x="2067" y="-308.5" font-family="Helvetica,sans-Serif" font-size="10.00">/utils/continuous_lyapunov</text>
<text text-anchor="middle" x="2132.5" y="-297.5" font-family="Helvetica,sans-Serif" font-size="10.00">_equation.cpp</text>
</a>
</g>
</g>
<!-- Node1&#45;&gt;Node21 -->
<g id="edge23" class="edge">
<title>Node1&#45;&gt;Node21</title>
<path fill="none" stroke="midnightblue" d="M2080.4,-361.49C2090.78,-351.63 2102.37,-340.63 2111.97,-331.51"/>
<polygon fill="midnightblue" stroke="midnightblue" points="2077.94,-359 2073.1,-368.43 2082.76,-364.08 2077.94,-359"/>
</g>
<!-- Node3 -->
<g id="node3" class="node">
<title>Node3</title>
<g id="a_node3"><a xlink:href="config_8hpp.html" target="_top" xlink:title="Configuration file. Here you specify which cotroller you want to run at compile time.">
<polygon fill="white" stroke="black" points="1132.5,-223.5 1132.5,-253.5 1288.5,-253.5 1288.5,-223.5 1132.5,-223.5"/>
<text text-anchor="start" x="1140.5" y="-241.5" font-family="Helvetica,sans-Serif" font-size="10.00">ACSL&#45;flightstack/include</text>
<text text-anchor="middle" x="1210.5" y="-230.5" font-family="Helvetica,sans-Serif" font-size="10.00">/flightstack/config/config.hpp</text>
</a>
</g>
</g>
<!-- Node2&#45;&gt;Node3 -->
<g id="edge2" class="edge">
<title>Node2&#45;&gt;Node3</title>
<path fill="none" stroke="midnightblue" d="M1895.55,-302.8C1749.29,-289.28 1435.28,-260.27 1288.77,-246.73"/>
<polygon fill="midnightblue" stroke="midnightblue" points="1895.51,-306.31 1905.79,-303.74 1896.15,-299.34 1895.51,-306.31"/>
</g>
<!-- Node10 -->
<g id="node10" class="node">
<title>Node10</title>
<g id="a_node10"><a xlink:href="logging__mrac_8cpp.html" target="_top" xlink:title="Logger for the MRAC controller.">
<polygon fill="white" stroke="black" points="1913.5,-67.5 1913.5,-108.5 2033.5,-108.5 2033.5,-67.5 1913.5,-67.5"/>
<text text-anchor="start" x="1921.5" y="-96.5" font-family="Helvetica,sans-Serif" font-size="10.00">ACSL&#45;flightstack/src</text>
<text text-anchor="start" x="1921.5" y="-85.5" font-family="Helvetica,sans-Serif" font-size="10.00">/control/mrac/logging</text>
<text text-anchor="middle" x="1973.5" y="-74.5" font-family="Helvetica,sans-Serif" font-size="10.00">_mrac.cpp</text>
</a>
</g>
</g>
<!-- Node2&#45;&gt;Node10 -->
<g id="edge21" class="edge">
<title>Node2&#45;&gt;Node10</title>
<path fill="none" stroke="midnightblue" d="M1973.5,-280.17C1973.5,-234.21 1973.5,-147.36 1973.5,-108.57"/>
<polygon fill="midnightblue" stroke="midnightblue" points="1970,-280.39 1973.5,-290.39 1977,-280.39 1970,-280.39"/>
</g>
<!-- Node11 -->
<g id="node11" class="node">
<title>Node11</title>
<g id="a_node11"><a xlink:href="mrac_8cpp.html" target="_top" xlink:title="Implementation of the MRAC controller.">
<polygon fill="white" stroke="black" points="2052,-73 2052,-103 2181,-103 2181,-73 2052,-73"/>
<text text-anchor="start" x="2060" y="-91" font-family="Helvetica,sans-Serif" font-size="10.00">ACSL&#45;flightstack/src</text>
<text text-anchor="middle" x="2116.5" y="-80" font-family="Helvetica,sans-Serif" font-size="10.00">/control/mrac/mrac.cpp</text>
</a>
</g>
</g>
<!-- Node2&#45;&gt;Node11 -->
<g id="edge22" class="edge">
<title>Node2&#45;&gt;Node11</title>
<path fill="none" stroke="midnightblue" d="M1991.76,-281.78C2022.63,-234.07 2084.05,-139.15 2107.3,-103.23"/>
<polygon fill="midnightblue" stroke="midnightblue" points="1988.68,-280.09 1986.19,-290.39 1994.56,-283.89 1988.68,-280.09"/>
</g>
<!-- Node4 -->
<g id="node4" class="node">
<title>Node4</title>
<g id="a_node4"><a xlink:href="multi__threaded__node_8hpp.html" target="_top" xlink:title="Multithreaded ROS2 node that joins together all the flight stack components.">
<polygon fill="white" stroke="black" points="1051.5,-145.5 1051.5,-186.5 1199.5,-186.5 1199.5,-145.5 1051.5,-145.5"/>
<text text-anchor="start" x="1059.5" y="-174.5" font-family="Helvetica,sans-Serif" font-size="10.00">ACSL&#45;flightstack/include</text>
<text text-anchor="start" x="1059.5" y="-163.5" font-family="Helvetica,sans-Serif" font-size="10.00">/flightstack/multi_threaded</text>
<text text-anchor="middle" x="1125.5" y="-152.5" font-family="Helvetica,sans-Serif" font-size="10.00">_node.hpp</text>
</a>
</g>
</g>
<!-- Node3&#45;&gt;Node4 -->
<g id="edge3" class="edge">
<title>Node3&#45;&gt;Node4</title>
<path fill="none" stroke="midnightblue" d="M1185.37,-216.66C1173.9,-207.15 1160.4,-195.94 1149.12,-186.59"/>
<polygon fill="midnightblue" stroke="midnightblue" points="1183.37,-219.54 1193.3,-223.23 1187.84,-214.16 1183.37,-219.54"/>
</g>
<!-- Node7 -->
<g id="node7" class="node">
<title>Node7</title>
<g id="a_node7"><a xlink:href="config_8cpp.html" target="_top" xlink:title="Contains the functions that reads the configuration parameters and assigns it to the members of the C...">
<polygon fill="white" stroke="black" points="0,-73 0,-103 113,-103 113,-73 0,-73"/>
<text text-anchor="start" x="8" y="-91" font-family="Helvetica,sans-Serif" font-size="10.00">ACSL&#45;flightstack/src</text>
<text text-anchor="middle" x="56.5" y="-80" font-family="Helvetica,sans-Serif" font-size="10.00">/config/config.cpp</text>
</a>
</g>
</g>
<!-- Node3&#45;&gt;Node7 -->
<g id="edge19" class="edge">
<title>Node3&#45;&gt;Node7</title>
<path fill="none" stroke="midnightblue" d="M1122.21,-232.38C935.86,-220.41 489.28,-185.61 122.5,-109 114.76,-107.38 106.63,-105.27 98.82,-103.03"/>
<polygon fill="midnightblue" stroke="midnightblue" points="1122.03,-235.87 1132.23,-233.01 1122.48,-228.89 1122.03,-235.87"/>
</g>
<!-- Node20 -->
<g id="node20" class="node">
<title>Node20</title>
<g id="a_node20"><a xlink:href="logging__mocap_8cpp.html" target="_top" xlink:title="Logger for the motion capture (MOCAP) system.">
<polygon fill="white" stroke="black" points="1218,-151 1218,-181 1371,-181 1371,-151 1218,-151"/>
<text text-anchor="start" x="1226" y="-169" font-family="Helvetica,sans-Serif" font-size="10.00">ACSL&#45;flightstack/src</text>
<text text-anchor="middle" x="1294.5" y="-158" font-family="Helvetica,sans-Serif" font-size="10.00">/logging/logging_mocap.cpp</text>
</a>
</g>
</g>
<!-- Node3&#45;&gt;Node20 -->
<g id="edge20" class="edge">
<title>Node3&#45;&gt;Node20</title>
<path fill="none" stroke="midnightblue" d="M1235.18,-216.79C1248.91,-205.27 1265.63,-191.23 1277.81,-181"/>
<polygon fill="midnightblue" stroke="midnightblue" points="1232.91,-214.12 1227.5,-223.23 1237.41,-219.49 1232.91,-214.12"/>
</g>
<!-- Node5 -->
<g id="node5" class="node">
<title>Node5</title>
<g id="a_node5"><a xlink:href="main_8hpp.html" target="_top" xlink:title="Main file.">
<polygon fill="white" stroke="black" points="687.5,-73 687.5,-103 821.5,-103 821.5,-73 687.5,-73"/>
<text text-anchor="start" x="695.5" y="-91" font-family="Helvetica,sans-Serif" font-size="10.00">ACSL&#45;flightstack/include</text>
<text text-anchor="middle" x="754.5" y="-80" font-family="Helvetica,sans-Serif" font-size="10.00">/flightstack/main.hpp</text>
</a>
</g>
</g>
<!-- Node4&#45;&gt;Node5 -->
<g id="edge4" class="edge">
<title>Node4&#45;&gt;Node5</title>
<path fill="none" stroke="midnightblue" d="M1041.2,-150.61C982.03,-140.11 901.16,-124.98 830.5,-109 822.52,-107.19 814.1,-105.14 805.89,-103.04"/>
<polygon fill="midnightblue" stroke="midnightblue" points="1040.79,-154.09 1051.25,-152.38 1042.01,-147.2 1040.79,-154.09"/>
</g>
<!-- Node4&#45;&gt;Node7 -->
<g id="edge6" class="edge">
<title>Node4&#45;&gt;Node7</title>
<path fill="none" stroke="midnightblue" d="M1041.33,-161.45C816.28,-151.81 211.67,-124.77 122.5,-109 114.25,-107.54 105.57,-105.38 97.32,-103.02"/>
<polygon fill="midnightblue" stroke="midnightblue" points="1041.29,-164.95 1051.43,-161.89 1041.59,-157.96 1041.29,-164.95"/>
</g>
<!-- Node8 -->
<g id="node8" class="node">
<title>Node8</title>
<g id="a_node8"><a xlink:href="control_8cpp.html" target="_top" xlink:title="This file contains the general class containing the common memvers used by most of the control algori...">
<polygon fill="white" stroke="black" points="840,-73 840,-103 953,-103 953,-73 840,-73"/>
<text text-anchor="start" x="848" y="-91" font-family="Helvetica,sans-Serif" font-size="10.00">ACSL&#45;flightstack/src</text>
<text text-anchor="middle" x="896.5" y="-80" font-family="Helvetica,sans-Serif" font-size="10.00">/control/control.cpp</text>
</a>
</g>
</g>
<!-- Node4&#45;&gt;Node8 -->
<g id="edge7" class="edge">
<title>Node4&#45;&gt;Node8</title>
<path fill="none" stroke="midnightblue" d="M1056.97,-142.26C1018.65,-129.54 972.08,-114.08 939.01,-103.11"/>
<polygon fill="midnightblue" stroke="midnightblue" points="1055.93,-145.6 1066.53,-145.43 1058.14,-138.96 1055.93,-145.6"/>
</g>
<!-- Node9 -->
<g id="node9" class="node">
<title>Node9</title>
<g id="a_node9"><a xlink:href="control__callback_8cpp.html" target="_top" xlink:title="Callback that is executed at a fixed specified rate defined by the &quot;timer_controller_&quot;.">
<polygon fill="white" stroke="black" points="971.5,-73 971.5,-103 1127.5,-103 1127.5,-73 971.5,-73"/>
<text text-anchor="start" x="979.5" y="-91" font-family="Helvetica,sans-Serif" font-size="10.00">ACSL&#45;flightstack/src</text>
<text text-anchor="middle" x="1049.5" y="-80" font-family="Helvetica,sans-Serif" font-size="10.00">/control/control_callback.cpp</text>
</a>
</g>
</g>
<!-- Node4&#45;&gt;Node9 -->
<g id="edge8" class="edge">
<title>Node4&#45;&gt;Node9</title>
<path fill="none" stroke="midnightblue" d="M1098.82,-138.32C1087.01,-126.51 1073.58,-113.08 1063.73,-103.23"/>
<polygon fill="midnightblue" stroke="midnightblue" points="1096.38,-140.83 1105.93,-145.43 1101.33,-135.88 1096.38,-140.83"/>
</g>
<!-- Node4&#45;&gt;Node10 -->
<g id="edge9" class="edge">
<title>Node4&#45;&gt;Node10</title>
<path fill="none" stroke="midnightblue" d="M1209.67,-144.99C1516.87,-101.8 1602.34,-159.9 1904.5,-109 1907.45,-108.5 1910.46,-107.92 1913.48,-107.28"/>
<polygon fill="midnightblue" stroke="midnightblue" points="1208.98,-141.55 1199.58,-146.43 1209.97,-148.48 1208.98,-141.55"/>
</g>
<!-- Node4&#45;&gt;Node11 -->
<g id="edge10" class="edge">
<title>Node4&#45;&gt;Node11</title>
<path fill="none" stroke="midnightblue" d="M1209.71,-144.99C1577.72,-94.6 1679.17,-165.23 2042.5,-109 2051.71,-107.58 2061.41,-105.43 2070.65,-103.08"/>
<polygon fill="midnightblue" stroke="midnightblue" points="1209,-141.56 1199.58,-146.4 1209.96,-148.49 1209,-141.56"/>
</g>
<!-- Node12 -->
<g id="node12" class="node">
<title>Node12</title>
<g id="a_node12"><a xlink:href="logging__pid_8cpp.html" target="_top" xlink:title="Logger for the PID controller.">
<polygon fill="white" stroke="black" points="1146,-67.5 1146,-108.5 1259,-108.5 1259,-67.5 1146,-67.5"/>
<text text-anchor="start" x="1154" y="-96.5" font-family="Helvetica,sans-Serif" font-size="10.00">ACSL&#45;flightstack/src</text>
<text text-anchor="start" x="1154" y="-85.5" font-family="Helvetica,sans-Serif" font-size="10.00">/control/pid/logging</text>
<text text-anchor="middle" x="1202.5" y="-74.5" font-family="Helvetica,sans-Serif" font-size="10.00">_pid.cpp</text>
</a>
</g>
</g>
<!-- Node4&#45;&gt;Node12 -->
<g id="edge11" class="edge">
<title>Node4&#45;&gt;Node12</title>
<path fill="none" stroke="midnightblue" d="M1152.65,-138.2C1162.57,-128.42 1173.59,-117.54 1182.74,-108.51"/>
<polygon fill="midnightblue" stroke="midnightblue" points="1149.99,-135.91 1145.33,-145.43 1154.91,-140.89 1149.99,-135.91"/>
</g>
<!-- Node13 -->
<g id="node13" class="node">
<title>Node13</title>
<g id="a_node13"><a xlink:href="pid_8cpp.html" target="_top" xlink:title="Immplementation of the PID controller.">
<polygon fill="white" stroke="black" points="1277,-73 1277,-103 1390,-103 1390,-73 1277,-73"/>
<text text-anchor="start" x="1285" y="-91" font-family="Helvetica,sans-Serif" font-size="10.00">ACSL&#45;flightstack/src</text>
<text text-anchor="middle" x="1333.5" y="-80" font-family="Helvetica,sans-Serif" font-size="10.00">/control/pid/pid.cpp</text>
</a>
</g>
</g>
<!-- Node4&#45;&gt;Node13 -->
<g id="edge12" class="edge">
<title>Node4&#45;&gt;Node13</title>
<path fill="none" stroke="midnightblue" d="M1188.63,-141.93C1223.27,-129.28 1265.1,-113.99 1294.89,-103.11"/>
<polygon fill="midnightblue" stroke="midnightblue" points="1187.26,-138.71 1179.07,-145.43 1189.66,-145.28 1187.26,-138.71"/>
</g>
<!-- Node14 -->
<g id="node14" class="node">
<title>Node14</title>
<g id="a_node14"><a xlink:href="multi__threaded__node_8cpp.html" target="_top" xlink:title="Multithreaded ROS2 ndoe that joins together all the flight stakc components.">
<polygon fill="white" stroke="black" points="1408,-73 1408,-103 1551,-103 1551,-73 1408,-73"/>
<text text-anchor="start" x="1416" y="-91" font-family="Helvetica,sans-Serif" font-size="10.00">ACSL&#45;flightstack/src</text>
<text text-anchor="middle" x="1479.5" y="-80" font-family="Helvetica,sans-Serif" font-size="10.00">/multi_threaded_node.cpp</text>
</a>
</g>
</g>
<!-- Node4&#45;&gt;Node14 -->
<g id="edge13" class="edge">
<title>Node4&#45;&gt;Node14</title>
<path fill="none" stroke="midnightblue" d="M1209.46,-144.85C1294.2,-126.93 1317.56,-126.65 1398.5,-109 1406.85,-107.18 1415.65,-105.14 1424.26,-103.07"/>
<polygon fill="midnightblue" stroke="midnightblue" points="1208.72,-141.43 1199.67,-146.94 1210.18,-148.27 1208.72,-141.43"/>
</g>
<!-- Node15 -->
<g id="node15" class="node">
<title>Node15</title>
<g id="a_node15"><a xlink:href="pixhawk__actuator__motors_8cpp.html" target="_top" xlink:title="Callback that is executed at a fixed specified rate defined by the &quot;timer_controller_&quot;.">
<polygon fill="white" stroke="black" points="1569.5,-67.5 1569.5,-108.5 1723.5,-108.5 1723.5,-67.5 1569.5,-67.5"/>
<text text-anchor="start" x="1577.5" y="-96.5" font-family="Helvetica,sans-Serif" font-size="10.00">ACSL&#45;flightstack/src</text>
<text text-anchor="start" x="1577.5" y="-85.5" font-family="Helvetica,sans-Serif" font-size="10.00">/pixhawk_interface/pixhawk</text>
<text text-anchor="middle" x="1646.5" y="-74.5" font-family="Helvetica,sans-Serif" font-size="10.00">_actuator_motors.cpp</text>
</a>
</g>
</g>
<!-- Node4&#45;&gt;Node15 -->
<g id="edge14" class="edge">
<title>Node4&#45;&gt;Node15</title>
<path fill="none" stroke="midnightblue" d="M1209.51,-144.95C1364.83,-119.21 1407.96,-134.09 1559.5,-109 1562.71,-108.47 1565.98,-107.89 1569.28,-107.27"/>
<polygon fill="midnightblue" stroke="midnightblue" points="1208.89,-141.51 1199.61,-146.62 1210.05,-148.41 1208.89,-141.51"/>
</g>
<!-- Node16 -->
<g id="node16" class="node">
<title>Node16</title>
<g id="a_node16"><a xlink:href="pixhawk__vehicle__odometry_8cpp.html" target="_top" xlink:title="Callback that is executed everytime a VehicleOdometry message is made available by Pixhawk.">
<polygon fill="white" stroke="black" points="1741.5,-67.5 1741.5,-108.5 1895.5,-108.5 1895.5,-67.5 1741.5,-67.5"/>
<text text-anchor="start" x="1749.5" y="-96.5" font-family="Helvetica,sans-Serif" font-size="10.00">ACSL&#45;flightstack/src</text>
<text text-anchor="start" x="1749.5" y="-85.5" font-family="Helvetica,sans-Serif" font-size="10.00">/pixhawk_interface/pixhawk</text>
<text text-anchor="middle" x="1818.5" y="-74.5" font-family="Helvetica,sans-Serif" font-size="10.00">_vehicle_odometry.cpp</text>
</a>
</g>
</g>
<!-- Node4&#45;&gt;Node16 -->
<g id="edge15" class="edge">
<title>Node4&#45;&gt;Node16</title>
<path fill="none" stroke="midnightblue" d="M1209.66,-144.97C1441.03,-110.48 1504.9,-143.06 1732.5,-109 1735.38,-108.57 1738.31,-108.09 1741.26,-107.58"/>
<polygon fill="midnightblue" stroke="midnightblue" points="1208.95,-141.54 1199.59,-146.5 1210,-148.46 1208.95,-141.54"/>
</g>
<!-- Node17 -->
<g id="node17" class="node">
<title>Node17</title>
<g id="a_node17"><a xlink:href="vehicle__state_8cpp.html" target="_top" xlink:title="Class storing the state of the vehicle coming from the flight controller (Pixhawk)">
<polygon fill="white" stroke="black" points="131.5,-67.5 131.5,-108.5 279.5,-108.5 279.5,-67.5 131.5,-67.5"/>
<text text-anchor="start" x="139.5" y="-96.5" font-family="Helvetica,sans-Serif" font-size="10.00">ACSL&#45;flightstack/src</text>
<text text-anchor="start" x="139.5" y="-85.5" font-family="Helvetica,sans-Serif" font-size="10.00">/pixhawk_interface/vehicle</text>
<text text-anchor="middle" x="205.5" y="-74.5" font-family="Helvetica,sans-Serif" font-size="10.00">_state.cpp</text>
</a>
</g>
</g>
<!-- Node4&#45;&gt;Node17 -->
<g id="edge16" class="edge">
<title>Node4&#45;&gt;Node17</title>
<path fill="none" stroke="midnightblue" d="M1041.27,-164.08C889.78,-161.37 561.7,-150.75 288.5,-109 285.57,-108.55 282.59,-108.05 279.59,-107.51"/>
<polygon fill="midnightblue" stroke="midnightblue" points="1041.37,-167.58 1051.43,-164.25 1041.49,-160.58 1041.37,-167.58"/>
</g>
<!-- Node18 -->
<g id="node18" class="node">
<title>Node18</title>
<g id="a_node18"><a xlink:href="piecewise__polynomial__trajectory_8cpp.html" target="_top" xlink:title="Piecewise polynomial minimu&#45;jerk trajectory computed offline through a MATLAB script.">
<polygon fill="white" stroke="black" points="297.5,-67.5 297.5,-108.5 497.5,-108.5 497.5,-67.5 297.5,-67.5"/>
<text text-anchor="start" x="305.5" y="-96.5" font-family="Helvetica,sans-Serif" font-size="10.00">ACSL&#45;flightstack/src</text>
<text text-anchor="start" x="305.5" y="-85.5" font-family="Helvetica,sans-Serif" font-size="10.00">/user_defined_trajectory</text>
<text text-anchor="middle" x="397.5" y="-74.5" font-family="Helvetica,sans-Serif" font-size="10.00">/piecewise_polynomial_trajectory.cpp</text>
</a>
</g>
</g>
<!-- Node4&#45;&gt;Node18 -->
<g id="edge17" class="edge">
<title>Node4&#45;&gt;Node18</title>
<path fill="none" stroke="midnightblue" d="M1041.24,-159.82C921.88,-151.94 696.86,-135.02 506.5,-109 503.55,-108.6 500.55,-108.17 497.53,-107.72"/>
<polygon fill="midnightblue" stroke="midnightblue" points="1041.2,-163.33 1051.41,-160.49 1041.66,-156.34 1041.2,-163.33"/>
</g>
<!-- Node19 -->
<g id="node19" class="node">
<title>Node19</title>
<g id="a_node19"><a xlink:href="user__defined__trajectory_8cpp.html" target="_top" xlink:title="Class that contains the common members that each type of user&#45;defined trajectory class will inherit.">
<polygon fill="white" stroke="black" points="516,-67.5 516,-108.5 669,-108.5 669,-67.5 516,-67.5"/>
<text text-anchor="start" x="524" y="-96.5" font-family="Helvetica,sans-Serif" font-size="10.00">ACSL&#45;flightstack/src</text>
<text text-anchor="start" x="524" y="-85.5" font-family="Helvetica,sans-Serif" font-size="10.00">/user_defined_trajectory</text>
<text text-anchor="middle" x="592.5" y="-74.5" font-family="Helvetica,sans-Serif" font-size="10.00">/user_defined_trajectory.cpp</text>
</a>
</g>
</g>
<!-- Node4&#45;&gt;Node19 -->
<g id="edge18" class="edge">
<title>Node4&#45;&gt;Node19</title>
<path fill="none" stroke="midnightblue" d="M1041.02,-157.06C950.85,-147.97 803.98,-131.39 678.5,-109 675.48,-108.46 672.41,-107.89 669.31,-107.28"/>
<polygon fill="midnightblue" stroke="midnightblue" points="1040.89,-160.56 1051.19,-158.08 1041.59,-153.6 1040.89,-160.56"/>
</g>
<!-- Node6 -->
<g id="node6" class="node">
<title>Node6</title>
<g id="a_node6"><a xlink:href="main_8cpp.html" target="_top" xlink:title="FlightStack (Multirotor) main.cpp file.">
<polygon fill="white" stroke="black" points="698,-0.5 698,-30.5 811,-30.5 811,-0.5 698,-0.5"/>
<text text-anchor="start" x="706" y="-18.5" font-family="Helvetica,sans-Serif" font-size="10.00">ACSL&#45;flightstack/src</text>
<text text-anchor="middle" x="754.5" y="-7.5" font-family="Helvetica,sans-Serif" font-size="10.00">/main.cpp</text>
</a>
</g>
</g>
<!-- Node5&#45;&gt;Node6 -->
<g id="edge5" class="edge">
<title>Node5&#45;&gt;Node6</title>
<path fill="none" stroke="midnightblue" d="M754.5,-62.73C754.5,-52.07 754.5,-39.91 754.5,-30.75"/>
<polygon fill="midnightblue" stroke="midnightblue" points="751,-62.73 754.5,-72.73 758,-62.73 751,-62.73"/>
</g>
</g>
</svg>
        <g id="navigator" transform="translate(0 0)" fill="#404254">
                <rect fill="#f2f5e9" fill-opacity="0.5" stroke="#606060" stroke-width=".5" x="0" y="0" width="60" height="60"/>
                <use id="zoomplus" xlink:href="#zoomPlus" x="17" y="9" onmousedown="handleZoom(evt,'in')"/>
                <use id="zoomminus" xlink:href="#zoomMin" x="42" y="9" onmousedown="handleZoom(evt,'out')"/>
                <use id="reset" xlink:href="#resetDef" x="30" y="36" onmousedown="handleReset()"/>
                <g id="arrowUp" xlink:href="#dirArrow" transform="translate(30 24)" onmousedown="handlePan(0,-1)">
                  <use xlink:href="#rim" fill="#404040">
                        <set attributeName="fill" to="#808080" begin="arrowUp.mouseover" end="arrowUp.mouseout"/>
                  </use>
                  <path fill="none" stroke="white" stroke-width="1.5" d="M0,-3.0v7 M-2.5,-0.5L0,-3.0L2.5,-0.5"/>
                </g>
                <g id="arrowRight" xlink:href="#dirArrow" transform="rotate(90) translate(36 -43)" onmousedown="handlePan(1,0)">
                  <use xlink:href="#rim" fill="#404040">
                        <set attributeName="fill" to="#808080" begin="arrowRight.mouseover" end="arrowRight.mouseout"/>
                  </use>
                  <path fill="none" stroke="white" stroke-width="1.5" d="M0,-3.0v7 M-2.5,-0.5L0,-3.0L2.5,-0.5"/>
                </g>
                <g id="arrowDown" xlink:href="#dirArrow" transform="rotate(180) translate(-30 -48)" onmousedown="handlePan(0,1)">
                  <use xlink:href="#rim" fill="#404040">
                        <set attributeName="fill" to="#808080" begin="arrowDown.mouseover" end="arrowDown.mouseout"/>
                  </use>
                  <path fill="none" stroke="white" stroke-width="1.5" d="M0,-3.0v7 M-2.5,-0.5L0,-3.0L2.5,-0.5"/>
                </g>
                <g id="arrowLeft" xlink:href="#dirArrow" transform="rotate(270) translate(-36 17)" onmousedown="handlePan(-1,0)">
                  <use xlink:href="#rim" fill="#404040">
                        <set attributeName="fill" to="#808080" begin="arrowLeft.mouseover" end="arrowLeft.mouseout"/>
                  </use>
                  <path fill="none" stroke="white" stroke-width="1.5" d="M0,-3.0v7 M-2.5,-0.5L0,-3.0L2.5,-0.5"/>
                </g>
        </g>
        <svg viewBox="0 0 15 15" width="100%" height="30px" preserveAspectRatio="xMaxYMin meet">
         <g id="arrow_out" transform="scale(0.3 0.3)">
          <a xlink:href="continuous__lyapunov__equation_8hpp__dep__incl_org.svg" target="_base">
           <rect id="button" ry="5" rx="5" y="6" x="6" height="38" width="38"
                fill="#f2f5e9" fill-opacity="0.5" stroke="#606060" stroke-width="1.0"/>
           <path id="arrow"
             d="M 11.500037,31.436501 C 11.940474,20.09759 22.043105,11.32322 32.158766,21.979434 L 37.068811,17.246167 C 37.068811,17.246167 37.088388,32 37.088388,32 L 22.160133,31.978069 C 22.160133,31.978069 26.997745,27.140456 26.997745,27.140456 C 18.528582,18.264221 13.291696,25.230495 11.500037,31.436501 z"
             style="fill:#404040;"/>
          </a>
         </g>
        </svg>
</svg>
