<?xml version="1.0" encoding="UTF-8" standalone="no"?>
<!DOCTYPE svg PUBLIC "-//W3C//DTD SVG 1.1//EN"
 "http://www.w3.org/Graphics/SVG/1.1/DTD/svg11.dtd">
<!-- Generated by graphviz version 2.43.0 (0)
 -->
<!-- Title: /mnt/c/Users/siddh/Onedrive/Desktop/ACSL&#45;flightstack/include/flightstack/control/control.hpp Pages: 1 -->
<svg width="2245pt" height="506pt"
 viewBox="0.00 0.00 2245.00 506.00" xmlns="http://www.w3.org/2000/svg" xmlns:xlink="http://www.w3.org/1999/xlink">
<g id="graph0" class="graph" transform="scale(1 1) rotate(0) translate(4 502)">
<title>/mnt/c/Users/siddh/Onedrive/Desktop/ACSL&#45;flightstack/include/flightstack/control/control.hpp</title>
<polygon fill="white" stroke="transparent" points="-4,4 -4,-502 2241,-502 2241,4 -4,4"/>
<!-- Node1 -->
<g id="node1" class="node">
<title>Node1</title>
<g id="a_node1"><a xlink:title="General class that contains common members used by most of the control algorithms.">
<polygon fill="#bfbfbf" stroke="black" points="1628.5,-445.5 1628.5,-497.5 1792.5,-497.5 1792.5,-445.5 1628.5,-445.5"/>
<text text-anchor="start" x="1636.5" y="-485.5" font-family="Helvetica,sans-Serif" font-size="10.00">/mnt/c/Users/siddh</text>
<text text-anchor="start" x="1636.5" y="-474.5" font-family="Helvetica,sans-Serif" font-size="10.00">/Onedrive/Desktop/ACSL</text>
<text text-anchor="start" x="1636.5" y="-463.5" font-family="Helvetica,sans-Serif" font-size="10.00">&#45;flightstack/include/flightstack</text>
<text text-anchor="middle" x="1710.5" y="-452.5" font-family="Helvetica,sans-Serif" font-size="10.00">/control/control.hpp</text>
</a>
</g>
</g>
<!-- Node2 -->
<g id="node2" class="node">
<title>Node2</title>
<g id="a_node2"><a xlink:href="mrac_8hpp.html" target="_top" xlink:title="Implementation of MRAC controller.">
<polygon fill="white" stroke="black" points="308.5,-356.5 308.5,-408.5 472.5,-408.5 472.5,-356.5 308.5,-356.5"/>
<text text-anchor="start" x="316.5" y="-396.5" font-family="Helvetica,sans-Serif" font-size="10.00">/mnt/c/Users/siddh</text>
<text text-anchor="start" x="316.5" y="-385.5" font-family="Helvetica,sans-Serif" font-size="10.00">/Onedrive/Desktop/ACSL</text>
<text text-anchor="start" x="316.5" y="-374.5" font-family="Helvetica,sans-Serif" font-size="10.00">&#45;flightstack/include/flightstack</text>
<text text-anchor="middle" x="390.5" y="-363.5" font-family="Helvetica,sans-Serif" font-size="10.00">/control/mrac/mrac.hpp</text>
</a>
</g>
</g>
<!-- Node1&#45;&gt;Node2 -->
<g id="edge1" class="edge">
<title>Node1&#45;&gt;Node2</title>
<path fill="none" stroke="midnightblue" d="M1618.11,-464.41C1372.49,-448.22 706.23,-404.31 472.71,-388.92"/>
<polygon fill="midnightblue" stroke="midnightblue" points="1618.22,-467.93 1628.43,-465.09 1618.68,-460.94 1618.22,-467.93"/>
</g>
<!-- Node4 -->
<g id="node4" class="node">
<title>Node4</title>
<g id="a_node4"><a xlink:href="multi__threaded__node_8hpp.html" target="_top" xlink:title="Multithreaded ROS2 node that joins together all the flight stack components.">
<polygon fill="white" stroke="black" points="1042.5,-178.5 1042.5,-230.5 1206.5,-230.5 1206.5,-178.5 1042.5,-178.5"/>
<text text-anchor="start" x="1050.5" y="-218.5" font-family="Helvetica,sans-Serif" font-size="10.00">/mnt/c/Users/siddh</text>
<text text-anchor="start" x="1050.5" y="-207.5" font-family="Helvetica,sans-Serif" font-size="10.00">/Onedrive/Desktop/ACSL</text>
<text text-anchor="start" x="1050.5" y="-196.5" font-family="Helvetica,sans-Serif" font-size="10.00">&#45;flightstack/include/flightstack</text>
<text text-anchor="middle" x="1124.5" y="-185.5" font-family="Helvetica,sans-Serif" font-size="10.00">/multi_threaded_node.hpp</text>
</a>
</g>
</g>
<!-- Node1&#45;&gt;Node4 -->
<g id="edge26" class="edge">
<title>Node1&#45;&gt;Node4</title>
<path fill="none" stroke="midnightblue" d="M1645.97,-441.32C1530.1,-388.92 1288.7,-279.76 1179.85,-230.53"/>
<polygon fill="midnightblue" stroke="midnightblue" points="1644.55,-444.52 1655.11,-445.45 1647.44,-438.14 1644.55,-444.52"/>
</g>
<!-- Node8 -->
<g id="node8" class="node">
<title>Node8</title>
<g id="a_node8"><a xlink:href="control_8cpp.html" target="_top" xlink:title="This file contains the general class containing the common memvers used by most of the control algori...">
<polygon fill="white" stroke="black" points="1643,-84 1643,-136 1778,-136 1778,-84 1643,-84"/>
<text text-anchor="start" x="1651" y="-124" font-family="Helvetica,sans-Serif" font-size="10.00">/mnt/c/Users/siddh</text>
<text text-anchor="start" x="1651" y="-113" font-family="Helvetica,sans-Serif" font-size="10.00">/Onedrive/Desktop/ACSL</text>
<text text-anchor="start" x="1651" y="-102" font-family="Helvetica,sans-Serif" font-size="10.00">&#45;flightstack/src/control</text>
<text text-anchor="middle" x="1710.5" y="-91" font-family="Helvetica,sans-Serif" font-size="10.00">/control.cpp</text>
</a>
</g>
</g>
<!-- Node1&#45;&gt;Node8 -->
<g id="edge27" class="edge">
<title>Node1&#45;&gt;Node8</title>
<path fill="none" stroke="midnightblue" d="M1710.5,-434.78C1710.5,-362.19 1710.5,-199.01 1710.5,-136.25"/>
<polygon fill="midnightblue" stroke="midnightblue" points="1707,-435.22 1710.5,-445.22 1714,-435.22 1707,-435.22"/>
</g>
<!-- Node9 -->
<g id="node9" class="node">
<title>Node9</title>
<g id="a_node9"><a xlink:href="control__callback_8cpp.html" target="_top" xlink:title="Callback that is executed at a fixed specified rate defined by the &quot;timer_controller_&quot;.">
<polygon fill="white" stroke="black" points="1796,-84 1796,-136 1931,-136 1931,-84 1796,-84"/>
<text text-anchor="start" x="1804" y="-124" font-family="Helvetica,sans-Serif" font-size="10.00">/mnt/c/Users/siddh</text>
<text text-anchor="start" x="1804" y="-113" font-family="Helvetica,sans-Serif" font-size="10.00">/Onedrive/Desktop/ACSL</text>
<text text-anchor="start" x="1804" y="-102" font-family="Helvetica,sans-Serif" font-size="10.00">&#45;flightstack/src/control</text>
<text text-anchor="middle" x="1863.5" y="-91" font-family="Helvetica,sans-Serif" font-size="10.00">/control_callback.cpp</text>
</a>
</g>
</g>
<!-- Node1&#45;&gt;Node9 -->
<g id="edge28" class="edge">
<title>Node1&#45;&gt;Node9</title>
<path fill="none" stroke="midnightblue" d="M1725.32,-435.67C1756.02,-363.54 1825.94,-199.26 1852.75,-136.25"/>
<polygon fill="midnightblue" stroke="midnightblue" points="1721.95,-434.65 1721.26,-445.22 1728.4,-437.39 1721.95,-434.65"/>
</g>
<!-- Node21 -->
<g id="node21" class="node">
<title>Node21</title>
<g id="a_node21"><a xlink:href="pid_8hpp.html" target="_top" xlink:title="Implementation of the PID controller.">
<polygon fill="white" stroke="black" points="1934.5,-178.5 1934.5,-230.5 2098.5,-230.5 2098.5,-178.5 1934.5,-178.5"/>
<text text-anchor="start" x="1942.5" y="-218.5" font-family="Helvetica,sans-Serif" font-size="10.00">/mnt/c/Users/siddh</text>
<text text-anchor="start" x="1942.5" y="-207.5" font-family="Helvetica,sans-Serif" font-size="10.00">/Onedrive/Desktop/ACSL</text>
<text text-anchor="start" x="1942.5" y="-196.5" font-family="Helvetica,sans-Serif" font-size="10.00">&#45;flightstack/include/flightstack</text>
<text text-anchor="middle" x="2016.5" y="-185.5" font-family="Helvetica,sans-Serif" font-size="10.00">/control/pid/pid.hpp</text>
</a>
</g>
</g>
<!-- Node1&#45;&gt;Node21 -->
<g id="edge23" class="edge">
<title>Node1&#45;&gt;Node21</title>
<path fill="none" stroke="midnightblue" d="M1771.61,-440.52C1788.1,-431.32 1805.52,-420.56 1820.5,-409 1892.55,-353.43 1963.1,-271.54 1996.49,-230.66"/>
<polygon fill="midnightblue" stroke="midnightblue" points="1769.66,-437.59 1762.56,-445.46 1773.02,-443.73 1769.66,-437.59"/>
</g>
<!-- Node3 -->
<g id="node3" class="node">
<title>Node3</title>
<g id="a_node3"><a xlink:href="config_8hpp.html" target="_top" xlink:title="Configuration file. Here you specify which cotroller you want to run at compile time.">
<polygon fill="white" stroke="black" points="375.5,-267.5 375.5,-319.5 539.5,-319.5 539.5,-267.5 375.5,-267.5"/>
<text text-anchor="start" x="383.5" y="-307.5" font-family="Helvetica,sans-Serif" font-size="10.00">/mnt/c/Users/siddh</text>
<text text-anchor="start" x="383.5" y="-296.5" font-family="Helvetica,sans-Serif" font-size="10.00">/Onedrive/Desktop/ACSL</text>
<text text-anchor="start" x="383.5" y="-285.5" font-family="Helvetica,sans-Serif" font-size="10.00">&#45;flightstack/include/flightstack</text>
<text text-anchor="middle" x="457.5" y="-274.5" font-family="Helvetica,sans-Serif" font-size="10.00">/config/config.hpp</text>
</a>
</g>
</g>
<!-- Node2&#45;&gt;Node3 -->
<g id="edge2" class="edge">
<title>Node2&#45;&gt;Node3</title>
<path fill="none" stroke="midnightblue" d="M416.13,-348.22C423.45,-338.72 431.29,-328.53 438.16,-319.61"/>
<polygon fill="midnightblue" stroke="midnightblue" points="413.21,-346.28 409.88,-356.34 418.75,-350.55 413.21,-346.28"/>
</g>
<!-- Node10 -->
<g id="node10" class="node">
<title>Node10</title>
<g id="a_node10"><a xlink:href="logging__mrac_8cpp.html" target="_top" xlink:title="Logger for the MRAC controller.">
<polygon fill="white" stroke="black" points="0,-84 0,-136 135,-136 135,-84 0,-84"/>
<text text-anchor="start" x="8" y="-124" font-family="Helvetica,sans-Serif" font-size="10.00">/mnt/c/Users/siddh</text>
<text text-anchor="start" x="8" y="-113" font-family="Helvetica,sans-Serif" font-size="10.00">/Onedrive/Desktop/ACSL</text>
<text text-anchor="start" x="8" y="-102" font-family="Helvetica,sans-Serif" font-size="10.00">&#45;flightstack/src/control</text>
<text text-anchor="middle" x="67.5" y="-91" font-family="Helvetica,sans-Serif" font-size="10.00">/mrac/logging_mrac.cpp</text>
</a>
</g>
</g>
<!-- Node2&#45;&gt;Node10 -->
<g id="edge21" class="edge">
<title>Node2&#45;&gt;Node10</title>
<path fill="none" stroke="midnightblue" d="M352.44,-349.93C340.89,-340.33 328.17,-329.74 316.5,-320 237.23,-253.79 144.05,-175.44 97.36,-136.14"/>
<polygon fill="midnightblue" stroke="midnightblue" points="350.3,-352.7 360.23,-356.4 354.77,-347.32 350.3,-352.7"/>
</g>
<!-- Node11 -->
<g id="node11" class="node">
<title>Node11</title>
<g id="a_node11"><a xlink:href="mrac_8cpp.html" target="_top" xlink:title="Implementation of the MRAC controller.">
<polygon fill="white" stroke="black" points="153,-84 153,-136 288,-136 288,-84 153,-84"/>
<text text-anchor="start" x="161" y="-124" font-family="Helvetica,sans-Serif" font-size="10.00">/mnt/c/Users/siddh</text>
<text text-anchor="start" x="161" y="-113" font-family="Helvetica,sans-Serif" font-size="10.00">/Onedrive/Desktop/ACSL</text>
<text text-anchor="start" x="161" y="-102" font-family="Helvetica,sans-Serif" font-size="10.00">&#45;flightstack/src/control</text>
<text text-anchor="middle" x="220.5" y="-91" font-family="Helvetica,sans-Serif" font-size="10.00">/mrac/mrac.cpp</text>
</a>
</g>
</g>
<!-- Node2&#45;&gt;Node11 -->
<g id="edge22" class="edge">
<title>Node2&#45;&gt;Node11</title>
<path fill="none" stroke="midnightblue" d="M369.04,-347.35C334.4,-292.24 266.96,-184.93 236.33,-136.18"/>
<polygon fill="midnightblue" stroke="midnightblue" points="366.22,-349.45 374.51,-356.05 372.15,-345.72 366.22,-349.45"/>
</g>
<!-- Node3&#45;&gt;Node4 -->
<g id="edge3" class="edge">
<title>Node3&#45;&gt;Node4</title>
<path fill="none" stroke="midnightblue" d="M549.61,-280.49C680.28,-263.44 917.44,-232.51 1042.4,-216.21"/>
<polygon fill="midnightblue" stroke="midnightblue" points="549.08,-277.02 539.62,-281.79 549.99,-283.97 549.08,-277.02"/>
</g>
<!-- Node7 -->
<g id="node7" class="node">
<title>Node7</title>
<g id="a_node7"><a xlink:href="config_8cpp.html" target="_top" xlink:title="Contains the functions that reads the configuration parameters and assigns it to the members of the C...">
<polygon fill="white" stroke="black" points="306,-84 306,-136 441,-136 441,-84 306,-84"/>
<text text-anchor="start" x="314" y="-124" font-family="Helvetica,sans-Serif" font-size="10.00">/mnt/c/Users/siddh</text>
<text text-anchor="start" x="314" y="-113" font-family="Helvetica,sans-Serif" font-size="10.00">/Onedrive/Desktop/ACSL</text>
<text text-anchor="start" x="314" y="-102" font-family="Helvetica,sans-Serif" font-size="10.00">&#45;flightstack/src/config</text>
<text text-anchor="middle" x="373.5" y="-91" font-family="Helvetica,sans-Serif" font-size="10.00">/config.cpp</text>
</a>
</g>
</g>
<!-- Node3&#45;&gt;Node7 -->
<g id="edge19" class="edge">
<title>Node3&#45;&gt;Node7</title>
<path fill="none" stroke="midnightblue" d="M415.42,-260.5C406.58,-251.85 398.22,-241.84 392.5,-231 376.76,-201.14 373.28,-161.73 372.87,-136.37"/>
<polygon fill="midnightblue" stroke="midnightblue" points="413.2,-263.2 422.91,-267.43 417.96,-258.07 413.2,-263.2"/>
</g>
<!-- Node20 -->
<g id="node20" class="node">
<title>Node20</title>
<g id="a_node20"><a xlink:href="logging__mocap_8cpp.html" target="_top" xlink:title="Logger for the motion capture (MOCAP) system.">
<polygon fill="white" stroke="black" points="402,-178.5 402,-230.5 537,-230.5 537,-178.5 402,-178.5"/>
<text text-anchor="start" x="410" y="-218.5" font-family="Helvetica,sans-Serif" font-size="10.00">/mnt/c/Users/siddh</text>
<text text-anchor="start" x="410" y="-207.5" font-family="Helvetica,sans-Serif" font-size="10.00">/Onedrive/Desktop/ACSL</text>
<text text-anchor="start" x="410" y="-196.5" font-family="Helvetica,sans-Serif" font-size="10.00">&#45;flightstack/src/logging</text>
<text text-anchor="middle" x="469.5" y="-185.5" font-family="Helvetica,sans-Serif" font-size="10.00">/logging_mocap.cpp</text>
</a>
</g>
</g>
<!-- Node3&#45;&gt;Node20 -->
<g id="edge20" class="edge">
<title>Node3&#45;&gt;Node20</title>
<path fill="none" stroke="midnightblue" d="M462.37,-257.19C463.6,-248.28 464.89,-238.9 466.04,-230.61"/>
<polygon fill="midnightblue" stroke="midnightblue" points="458.87,-256.95 460.97,-267.34 465.8,-257.91 458.87,-256.95"/>
</g>
<!-- Node5 -->
<g id="node5" class="node">
<title>Node5</title>
<g id="a_node5"><a xlink:href="main_8hpp.html" target="_top" xlink:title="Main file.">
<polygon fill="white" stroke="black" points="793.5,-84 793.5,-136 957.5,-136 957.5,-84 793.5,-84"/>
<text text-anchor="start" x="801.5" y="-124" font-family="Helvetica,sans-Serif" font-size="10.00">/mnt/c/Users/siddh</text>
<text text-anchor="start" x="801.5" y="-113" font-family="Helvetica,sans-Serif" font-size="10.00">/Onedrive/Desktop/ACSL</text>
<text text-anchor="start" x="801.5" y="-102" font-family="Helvetica,sans-Serif" font-size="10.00">&#45;flightstack/include/flightstack</text>
<text text-anchor="middle" x="875.5" y="-91" font-family="Helvetica,sans-Serif" font-size="10.00">/main.hpp</text>
</a>
</g>
</g>
<!-- Node4&#45;&gt;Node5 -->
<g id="edge4" class="edge">
<title>Node4&#45;&gt;Node5</title>
<path fill="none" stroke="midnightblue" d="M1047.39,-174.85C1013.97,-162.44 975.19,-148.03 942.94,-136.05"/>
<polygon fill="midnightblue" stroke="midnightblue" points="1046.52,-178.27 1057.12,-178.47 1048.96,-171.7 1046.52,-178.27"/>
</g>
<!-- Node4&#45;&gt;Node7 -->
<g id="edge6" class="edge">
<title>Node4&#45;&gt;Node7</title>
<path fill="none" stroke="midnightblue" d="M1032.32,-203.53C901.22,-201.68 654.21,-191.18 450.5,-142 443.92,-140.41 437.15,-138.36 430.5,-136.07"/>
<polygon fill="midnightblue" stroke="midnightblue" points="1032.28,-207.03 1042.33,-203.66 1032.37,-200.03 1032.28,-207.03"/>
</g>
<!-- Node4&#45;&gt;Node8 -->
<g id="edge7" class="edge">
<title>Node4&#45;&gt;Node8</title>
<path fill="none" stroke="midnightblue" d="M1216.89,-199.62C1319.91,-193.62 1490.83,-178.66 1633.5,-142 1639.92,-140.35 1646.52,-138.29 1653.03,-136.03"/>
<polygon fill="midnightblue" stroke="midnightblue" points="1216.61,-196.13 1206.82,-200.19 1217.01,-203.12 1216.61,-196.13"/>
</g>
<!-- Node4&#45;&gt;Node9 -->
<g id="edge8" class="edge">
<title>Node4&#45;&gt;Node9</title>
<path fill="none" stroke="midnightblue" d="M1216.92,-203.45C1346.35,-201.47 1588.11,-190.77 1787.5,-142 1794.01,-140.41 1800.68,-138.36 1807.25,-136.07"/>
<polygon fill="midnightblue" stroke="midnightblue" points="1216.61,-199.96 1206.66,-203.6 1216.7,-206.96 1216.61,-199.96"/>
</g>
<!-- Node4&#45;&gt;Node10 -->
<g id="edge9" class="edge">
<title>Node4&#45;&gt;Node10</title>
<path fill="none" stroke="midnightblue" d="M1032.05,-199.41C804.31,-189.1 228.59,-161.47 143.5,-142 136.83,-140.47 129.99,-138.43 123.28,-136.12"/>
<polygon fill="midnightblue" stroke="midnightblue" points="1032.15,-202.92 1042.3,-199.88 1032.47,-195.93 1032.15,-202.92"/>
</g>
<!-- Node4&#45;&gt;Node11 -->
<g id="edge10" class="edge">
<title>Node4&#45;&gt;Node11</title>
<path fill="none" stroke="midnightblue" d="M1032.43,-200.29C846.92,-193.22 434.12,-174.33 296.5,-142 289.84,-140.44 283.01,-138.37 276.3,-136.04"/>
<polygon fill="midnightblue" stroke="midnightblue" points="1032.31,-203.79 1042.44,-200.67 1032.58,-196.79 1032.31,-203.79"/>
</g>
<!-- Node12 -->
<g id="node12" class="node">
<title>Node12</title>
<g id="a_node12"><a xlink:href="logging__pid_8cpp.html" target="_top" xlink:title="Logger for the PID controller.">
<polygon fill="white" stroke="black" points="1949,-84 1949,-136 2084,-136 2084,-84 1949,-84"/>
<text text-anchor="start" x="1957" y="-124" font-family="Helvetica,sans-Serif" font-size="10.00">/mnt/c/Users/siddh</text>
<text text-anchor="start" x="1957" y="-113" font-family="Helvetica,sans-Serif" font-size="10.00">/Onedrive/Desktop/ACSL</text>
<text text-anchor="start" x="1957" y="-102" font-family="Helvetica,sans-Serif" font-size="10.00">&#45;flightstack/src/control</text>
<text text-anchor="middle" x="2016.5" y="-91" font-family="Helvetica,sans-Serif" font-size="10.00">/pid/logging_pid.cpp</text>
</a>
</g>
</g>
<!-- Node4&#45;&gt;Node12 -->
<g id="edge11" class="edge">
<title>Node4&#45;&gt;Node12</title>
<path fill="none" stroke="midnightblue" d="M1216.88,-200.16C1400.5,-192.92 1805.29,-173.84 1940.5,-142 1947.16,-140.43 1953.99,-138.36 1960.7,-136.03"/>
<polygon fill="midnightblue" stroke="midnightblue" points="1216.57,-196.67 1206.71,-200.56 1216.84,-203.66 1216.57,-196.67"/>
</g>
<!-- Node13 -->
<g id="node13" class="node">
<title>Node13</title>
<g id="a_node13"><a xlink:href="pid_8cpp.html" target="_top" xlink:title="Immplementation of the PID controller.">
<polygon fill="white" stroke="black" points="2102,-84 2102,-136 2237,-136 2237,-84 2102,-84"/>
<text text-anchor="start" x="2110" y="-124" font-family="Helvetica,sans-Serif" font-size="10.00">/mnt/c/Users/siddh</text>
<text text-anchor="start" x="2110" y="-113" font-family="Helvetica,sans-Serif" font-size="10.00">/Onedrive/Desktop/ACSL</text>
<text text-anchor="start" x="2110" y="-102" font-family="Helvetica,sans-Serif" font-size="10.00">&#45;flightstack/src/control</text>
<text text-anchor="middle" x="2169.5" y="-91" font-family="Helvetica,sans-Serif" font-size="10.00">/pid/pid.cpp</text>
</a>
</g>
</g>
<!-- Node4&#45;&gt;Node13 -->
<g id="edge12" class="edge">
<title>Node4&#45;&gt;Node13</title>
<path fill="none" stroke="midnightblue" d="M1216.72,-201.44C1425.39,-196.17 1928.41,-179.84 2093.5,-142 2100.17,-140.47 2107.01,-138.43 2113.72,-136.11"/>
<polygon fill="midnightblue" stroke="midnightblue" points="1216.62,-197.94 1206.71,-201.69 1216.8,-204.94 1216.62,-197.94"/>
</g>
<!-- Node14 -->
<g id="node14" class="node">
<title>Node14</title>
<g id="a_node14"><a xlink:href="multi__threaded__node_8cpp.html" target="_top" xlink:title="Multithreaded ROS2 ndoe that joins together all the flight stakc components.">
<polygon fill="white" stroke="black" points="976,-84 976,-136 1111,-136 1111,-84 976,-84"/>
<text text-anchor="start" x="984" y="-124" font-family="Helvetica,sans-Serif" font-size="10.00">/mnt/c/Users/siddh</text>
<text text-anchor="start" x="984" y="-113" font-family="Helvetica,sans-Serif" font-size="10.00">/Onedrive/Desktop/ACSL</text>
<text text-anchor="start" x="984" y="-102" font-family="Helvetica,sans-Serif" font-size="10.00">&#45;flightstack/src/multi</text>
<text text-anchor="middle" x="1043.5" y="-91" font-family="Helvetica,sans-Serif" font-size="10.00">_threaded_node.cpp</text>
</a>
</g>
</g>
<!-- Node4&#45;&gt;Node14 -->
<g id="edge13" class="edge">
<title>Node4&#45;&gt;Node14</title>
<path fill="none" stroke="midnightblue" d="M1095.71,-170.62C1085.81,-159.32 1074.89,-146.85 1065.61,-136.25"/>
<polygon fill="midnightblue" stroke="midnightblue" points="1093.15,-173.01 1102.37,-178.22 1098.41,-168.39 1093.15,-173.01"/>
</g>
<!-- Node15 -->
<g id="node15" class="node">
<title>Node15</title>
<g id="a_node15"><a xlink:href="pixhawk__actuator__motors_8cpp.html" target="_top" xlink:title="Callback that is executed at a fixed specified rate defined by the &quot;timer_controller_&quot;.">
<polygon fill="white" stroke="black" points="1129,-78.5 1129,-141.5 1284,-141.5 1284,-78.5 1129,-78.5"/>
<text text-anchor="start" x="1137" y="-129.5" font-family="Helvetica,sans-Serif" font-size="10.00">/mnt/c/Users/siddh</text>
<text text-anchor="start" x="1137" y="-118.5" font-family="Helvetica,sans-Serif" font-size="10.00">/Onedrive/Desktop/ACSL</text>
<text text-anchor="start" x="1137" y="-107.5" font-family="Helvetica,sans-Serif" font-size="10.00">&#45;flightstack/src/pixhawk</text>
<text text-anchor="start" x="1137" y="-96.5" font-family="Helvetica,sans-Serif" font-size="10.00">_interface/pixhawk_actuator</text>
<text text-anchor="middle" x="1206.5" y="-85.5" font-family="Helvetica,sans-Serif" font-size="10.00">_motors.cpp</text>
</a>
</g>
</g>
<!-- Node4&#45;&gt;Node15 -->
<g id="edge14" class="edge">
<title>Node4&#45;&gt;Node15</title>
<path fill="none" stroke="midnightblue" d="M1153.74,-170.51C1162.12,-161.06 1171.21,-150.81 1179.45,-141.51"/>
<polygon fill="midnightblue" stroke="midnightblue" points="1150.92,-168.42 1146.91,-178.22 1156.16,-173.06 1150.92,-168.42"/>
</g>
<!-- Node16 -->
<g id="node16" class="node">
<title>Node16</title>
<g id="a_node16"><a xlink:href="pixhawk__vehicle__odometry_8cpp.html" target="_top" xlink:title="Callback that is executed everytime a VehicleOdometry message is made available by Pixhawk.">
<polygon fill="white" stroke="black" points="1302.5,-78.5 1302.5,-141.5 1452.5,-141.5 1452.5,-78.5 1302.5,-78.5"/>
<text text-anchor="start" x="1310.5" y="-129.5" font-family="Helvetica,sans-Serif" font-size="10.00">/mnt/c/Users/siddh</text>
<text text-anchor="start" x="1310.5" y="-118.5" font-family="Helvetica,sans-Serif" font-size="10.00">/Onedrive/Desktop/ACSL</text>
<text text-anchor="start" x="1310.5" y="-107.5" font-family="Helvetica,sans-Serif" font-size="10.00">&#45;flightstack/src/pixhawk</text>
<text text-anchor="start" x="1310.5" y="-96.5" font-family="Helvetica,sans-Serif" font-size="10.00">_interface/pixhawk_vehicle</text>
<text text-anchor="middle" x="1377.5" y="-85.5" font-family="Helvetica,sans-Serif" font-size="10.00">_odometry.cpp</text>
</a>
</g>
</g>
<!-- Node4&#45;&gt;Node16 -->
<g id="edge15" class="edge">
<title>Node4&#45;&gt;Node16</title>
<path fill="none" stroke="midnightblue" d="M1202.65,-174.93C1234.38,-163.33 1270.89,-149.98 1302.31,-138.49"/>
<polygon fill="midnightblue" stroke="midnightblue" points="1201.16,-171.75 1192.97,-178.47 1203.56,-178.32 1201.16,-171.75"/>
</g>
<!-- Node17 -->
<g id="node17" class="node">
<title>Node17</title>
<g id="a_node17"><a xlink:href="vehicle__state_8cpp.html" target="_top" xlink:title="Class storing the state of the vehicle coming from the flight controller (Pixhawk)">
<polygon fill="white" stroke="black" points="1470.5,-84 1470.5,-136 1624.5,-136 1624.5,-84 1470.5,-84"/>
<text text-anchor="start" x="1478.5" y="-124" font-family="Helvetica,sans-Serif" font-size="10.00">/mnt/c/Users/siddh</text>
<text text-anchor="start" x="1478.5" y="-113" font-family="Helvetica,sans-Serif" font-size="10.00">/Onedrive/Desktop/ACSL</text>
<text text-anchor="start" x="1478.5" y="-102" font-family="Helvetica,sans-Serif" font-size="10.00">&#45;flightstack/src/pixhawk</text>
<text text-anchor="middle" x="1547.5" y="-91" font-family="Helvetica,sans-Serif" font-size="10.00">_interface/vehicle_state.cpp</text>
</a>
</g>
</g>
<!-- Node4&#45;&gt;Node17 -->
<g id="edge16" class="edge">
<title>Node4&#45;&gt;Node17</title>
<path fill="none" stroke="midnightblue" d="M1217.01,-190.84C1285.24,-180.48 1379.98,-163.97 1461.5,-142 1467.94,-140.27 1474.58,-138.27 1481.18,-136.13"/>
<polygon fill="midnightblue" stroke="midnightblue" points="1216.09,-187.44 1206.72,-192.39 1217.13,-194.36 1216.09,-187.44"/>
</g>
<!-- Node18 -->
<g id="node18" class="node">
<title>Node18</title>
<g id="a_node18"><a xlink:href="piecewise__polynomial__trajectory_8cpp.html" target="_top" xlink:title="Piecewise polynomial minimu&#45;jerk trajectory computed offline through a MATLAB script.">
<polygon fill="white" stroke="black" points="459.5,-78.5 459.5,-141.5 621.5,-141.5 621.5,-78.5 459.5,-78.5"/>
<text text-anchor="start" x="467.5" y="-129.5" font-family="Helvetica,sans-Serif" font-size="10.00">/mnt/c/Users/siddh</text>
<text text-anchor="start" x="467.5" y="-118.5" font-family="Helvetica,sans-Serif" font-size="10.00">/Onedrive/Desktop/ACSL</text>
<text text-anchor="start" x="467.5" y="-107.5" font-family="Helvetica,sans-Serif" font-size="10.00">&#45;flightstack/src/user</text>
<text text-anchor="start" x="467.5" y="-96.5" font-family="Helvetica,sans-Serif" font-size="10.00">_defined_trajectory/piecewise</text>
<text text-anchor="middle" x="540.5" y="-85.5" font-family="Helvetica,sans-Serif" font-size="10.00">_polynomial_trajectory.cpp</text>
</a>
</g>
</g>
<!-- Node4&#45;&gt;Node18 -->
<g id="edge17" class="edge">
<title>Node4&#45;&gt;Node18</title>
<path fill="none" stroke="midnightblue" d="M1032.22,-197.76C932.23,-190.22 768.47,-173.98 630.5,-142 627.6,-141.33 624.67,-140.6 621.71,-139.82"/>
<polygon fill="midnightblue" stroke="midnightblue" points="1032.06,-201.26 1042.29,-198.51 1032.58,-194.28 1032.06,-201.26"/>
</g>
<!-- Node19 -->
<g id="node19" class="node">
<title>Node19</title>
<g id="a_node19"><a xlink:href="user__defined__trajectory_8cpp.html" target="_top" xlink:title="Class that contains the common members that each type of user&#45;defined trajectory class will inherit.">
<polygon fill="white" stroke="black" points="640,-78.5 640,-141.5 775,-141.5 775,-78.5 640,-78.5"/>
<text text-anchor="start" x="648" y="-129.5" font-family="Helvetica,sans-Serif" font-size="10.00">/mnt/c/Users/siddh</text>
<text text-anchor="start" x="648" y="-118.5" font-family="Helvetica,sans-Serif" font-size="10.00">/Onedrive/Desktop/ACSL</text>
<text text-anchor="start" x="648" y="-107.5" font-family="Helvetica,sans-Serif" font-size="10.00">&#45;flightstack/src/user</text>
<text text-anchor="start" x="648" y="-96.5" font-family="Helvetica,sans-Serif" font-size="10.00">_defined_trajectory/user</text>
<text text-anchor="middle" x="707.5" y="-85.5" font-family="Helvetica,sans-Serif" font-size="10.00">_defined_trajectory.cpp</text>
</a>
</g>
</g>
<!-- Node4&#45;&gt;Node19 -->
<g id="edge18" class="edge">
<title>Node4&#45;&gt;Node19</title>
<path fill="none" stroke="midnightblue" d="M1032.38,-192.02C963.31,-182.17 866.9,-165.77 784.5,-142 781.45,-141.12 778.36,-140.16 775.26,-139.15"/>
<polygon fill="midnightblue" stroke="midnightblue" points="1031.97,-195.5 1042.36,-193.43 1032.95,-188.57 1031.97,-195.5"/>
</g>
<!-- Node6 -->
<g id="node6" class="node">
<title>Node6</title>
<g id="a_node6"><a xlink:href="main_8cpp.html" target="_top" xlink:title="FlightStack (Multirotor) main.cpp file.">
<polygon fill="white" stroke="black" points="807,-0.5 807,-41.5 944,-41.5 944,-0.5 807,-0.5"/>
<text text-anchor="start" x="815" y="-29.5" font-family="Helvetica,sans-Serif" font-size="10.00">/mnt/c/Users/siddh</text>
<text text-anchor="start" x="815" y="-18.5" font-family="Helvetica,sans-Serif" font-size="10.00">/Onedrive/Desktop/ACSL</text>
<text text-anchor="middle" x="875.5" y="-7.5" font-family="Helvetica,sans-Serif" font-size="10.00">&#45;flightstack/src/main.cpp</text>
</a>
</g>
</g>
<!-- Node5&#45;&gt;Node6 -->
<g id="edge5" class="edge">
<title>Node5&#45;&gt;Node6</title>
<path fill="none" stroke="midnightblue" d="M875.5,-73.66C875.5,-62.71 875.5,-51.05 875.5,-41.58"/>
<polygon fill="midnightblue" stroke="midnightblue" points="872,-73.84 875.5,-83.84 879,-73.84 872,-73.84"/>
</g>
<!-- Node21&#45;&gt;Node12 -->
<g id="edge24" class="edge">
<title>Node21&#45;&gt;Node12</title>
<path fill="none" stroke="midnightblue" d="M2016.5,-167.99C2016.5,-157.41 2016.5,-146.03 2016.5,-136.25"/>
<polygon fill="midnightblue" stroke="midnightblue" points="2013,-168.22 2016.5,-178.22 2020,-168.22 2013,-168.22"/>
</g>
<!-- Node21&#45;&gt;Node13 -->
<g id="edge25" class="edge">
<title>Node21&#45;&gt;Node13</title>
<path fill="none" stroke="midnightblue" d="M2066.54,-173.24C2086.46,-161.21 2109.09,-147.52 2128.06,-136.05"/>
<polygon fill="midnightblue" stroke="midnightblue" points="2064.65,-170.3 2057.9,-178.47 2068.27,-176.29 2064.65,-170.3"/>
</g>
</g>
</svg>
