<?xml version="1.0" encoding="UTF-8" standalone="no"?>
<!DOCTYPE svg PUBLIC "-//W3C//DTD SVG 1.1//EN"
 "http://www.w3.org/Graphics/SVG/1.1/DTD/svg11.dtd">
<!-- Generated by graphviz version 2.43.0 (0)
 -->
<!-- Title: /mnt/c/Users/siddh/OneDrive/Desktop/ACSL&#45;flightstack/include/flightstack/control Pages: 1 -->
<svg width="254pt" height="175pt"
 viewBox="0.00 0.00 254.00 175.00" xmlns="http://www.w3.org/2000/svg" xmlns:xlink="http://www.w3.org/1999/xlink">
<g id="graph0" class="graph" transform="scale(1 1) rotate(0) translate(4 171)">
<title>/mnt/c/Users/siddh/OneDrive/Desktop/ACSL&#45;flightstack/include/flightstack/control</title>
<polygon fill="white" stroke="transparent" points="-4,4 -4,-171 250,-171 250,4 -4,4"/>
<g id="clust1" class="cluster">
<title>clusterdir_b3718a5b9243a5beb0b1ed52b7acfae0</title>
<g id="a_clust1"><a xlink:href="dir_b3718a5b9243a5beb0b1ed52b7acfae0.html" target="_top" xlink:title="flightstack">
<polygon fill="#ddddee" stroke="black" points="8,-8 8,-159 238,-159 238,-8 8,-8"/>
<text text-anchor="middle" x="123" y="-147" font-family="Helvetica,sans-Serif" font-size="10.00">flightstack</text>
</a>
</g>
</g>
<g id="clust2" class="cluster">
<title>clusterdir_cef24d03f213de90457a619409a342bf</title>
<g id="a_clust2"><a xlink:href="dir_cef24d03f213de90457a619409a342bf.html" target="_top">
<polygon fill="#eeeeff" stroke="black" points="16,-80 16,-132 230,-132 230,-80 16,-80"/>
</a>
</g>
</g>
<!-- dir_1a52e058fb132ee44ae51a858d55a195 -->
<g id="node1" class="node">
<title>dir_1a52e058fb132ee44ae51a858d55a195</title>
<g id="a_node1"><a xlink:href="dir_1a52e058fb132ee44ae51a858d55a195.html" target="_top" xlink:title="user_defined_trajectory">
<polygon fill="none" stroke="black" points="153.5,-52 22.5,-52 22.5,-16 153.5,-16 153.5,-52"/>
<text text-anchor="middle" x="88" y="-31.5" font-family="Helvetica,sans-Serif" font-size="10.00">user_defined_trajectory</text>
</a>
</g>
</g>
<!-- dir_f6341ff669c7bea8b7c1e0f18b0a65a9 -->
<g id="node2" class="node">
<title>dir_f6341ff669c7bea8b7c1e0f18b0a65a9</title>
<g id="a_node2"><a xlink:href="dir_f6341ff669c7bea8b7c1e0f18b0a65a9.html" target="_top" xlink:title="utils">
<polygon fill="none" stroke="black" points="226,-52 172,-52 172,-16 226,-16 226,-52"/>
<text text-anchor="middle" x="199" y="-31.5" font-family="Helvetica,sans-Serif" font-size="10.00">utils</text>
</a>
</g>
</g>
<!-- dir_cef24d03f213de90457a619409a342bf -->
<g id="node3" class="node">
<title>dir_cef24d03f213de90457a619409a342bf</title>
<text text-anchor="middle" x="123" y="-103.5" font-family="Helvetica,sans-Serif" font-size="10.00">control</text>
</g>
<!-- dir_cef24d03f213de90457a619409a342bf&#45;&gt;dir_1a52e058fb132ee44ae51a858d55a195 -->
<g id="edge1" class="edge">
<title>dir_cef24d03f213de90457a619409a342bf&#45;&gt;dir_1a52e058fb132ee44ae51a858d55a195</title>
<path fill="none" stroke="black" d="M114.35,-87.7C110.36,-79.73 105.55,-70.1 101.13,-61.26"/>
<polygon fill="black" stroke="black" points="104.15,-59.48 96.55,-52.1 97.89,-62.61 104.15,-59.48"/>
<g id="a_edge1&#45;headlabel"><a xlink:href="dir_000003_000009.html" target="_top" xlink:title="1">
<text text-anchor="middle" x="108.3" y="-58.93" font-family="Helvetica,sans-Serif" font-size="10.00">1</text>
</a>
</g>
</g>
<!-- dir_f430e4946b282afb772cab3c822a97c5 -->
<g id="node4" class="node">
<title>dir_f430e4946b282afb772cab3c822a97c5</title>
<g id="a_node4"><a xlink:href="dir_f430e4946b282afb772cab3c822a97c5.html" target="_top" xlink:title="mrac">
<polygon fill="white" stroke="black" points="222,-124 168,-124 168,-88 222,-88 222,-124"/>
<text text-anchor="middle" x="195" y="-103.5" font-family="Helvetica,sans-Serif" font-size="10.00">mrac</text>
</a>
</g>
</g>
<!-- dir_f430e4946b282afb772cab3c822a97c5&#45;&gt;dir_f6341ff669c7bea8b7c1e0f18b0a65a9 -->
<g id="edge2" class="edge">
<title>dir_f430e4946b282afb772cab3c822a97c5&#45;&gt;dir_f6341ff669c7bea8b7c1e0f18b0a65a9</title>
<path fill="none" stroke="black" d="M195.99,-87.7C196.43,-79.98 196.96,-70.71 197.45,-62.11"/>
<polygon fill="black" stroke="black" points="200.95,-62.29 198.02,-52.1 193.96,-61.89 200.95,-62.29"/>
<g id="a_edge2&#45;headlabel"><a xlink:href="dir_000004_000010.html" target="_top" xlink:title="1">
<text text-anchor="middle" x="203.58" y="-63.54" font-family="Helvetica,sans-Serif" font-size="10.00">1</text>
</a>
</g>
</g>
<!-- dir_152ef618f3f13ccd1fe2763f07b4d21a -->
<g id="node5" class="node">
<title>dir_152ef618f3f13ccd1fe2763f07b4d21a</title>
<g id="a_node5"><a xlink:href="dir_152ef618f3f13ccd1fe2763f07b4d21a.html" target="_top" xlink:title="pid">
<polygon fill="white" stroke="black" points="78,-124 24,-124 24,-88 78,-88 78,-124"/>
<text text-anchor="middle" x="51" y="-103.5" font-family="Helvetica,sans-Serif" font-size="10.00">pid</text>
</a>
</g>
</g>
</g>
</svg>
