<?xml version="1.0" encoding="UTF-8" standalone="no"?>
<!DOCTYPE svg PUBLIC "-//W3C//DTD SVG 1.1//EN"
 "http://www.w3.org/Graphics/SVG/1.1/DTD/svg11.dtd">
<!-- Generated by graphviz version 2.43.0 (0)
 -->
<!-- Title: ACSL&#45;flightstack/src/pixhawk_interface Pages: 1 -->
<svg width="146pt" height="151pt"
 viewBox="0.00 0.00 146.00 151.00" xmlns="http://www.w3.org/2000/svg" xmlns:xlink="http://www.w3.org/1999/xlink">
<g id="graph0" class="graph" transform="scale(1 1) rotate(0) translate(4 147)">
<title>ACSL&#45;flightstack/src/pixhawk_interface</title>
<polygon fill="white" stroke="transparent" points="-4,4 -4,-147 142,-147 142,4 -4,4"/>
<g id="clust1" class="cluster">
<title>clusterdir_50fceda69ebfc2e8dd8cd79d6c22b54c</title>
<g id="a_clust1"><a xlink:href="dir_50fceda69ebfc2e8dd8cd79d6c22b54c.html" target="_top" xlink:title="src">
<polygon fill="#ddddee" stroke="black" points="8,-64 8,-135 130,-135 130,-64 8,-64"/>
<text text-anchor="middle" x="69" y="-123" font-family="Helvetica,sans-Serif" font-size="10.00">src</text>
</a>
</g>
</g>
<!-- dir_8e7abd664aca6aaaf25d14dfeb8b5ff1 -->
<g id="node1" class="node">
<title>dir_8e7abd664aca6aaaf25d14dfeb8b5ff1</title>
<g id="a_node1"><a xlink:href="dir_8e7abd664aca6aaaf25d14dfeb8b5ff1.html" target="_top" xlink:title="pixhawk_interface">
<polygon fill="#eeeeff" stroke="black" points="122.5,-108 15.5,-108 15.5,-72 122.5,-72 122.5,-108"/>
<text text-anchor="middle" x="69" y="-87.5" font-family="Helvetica,sans-Serif" font-size="10.00">pixhawk_interface</text>
</a>
</g>
</g>
<!-- dir_3edc11c87957158ea7e79a05f48476a7 -->
<g id="node2" class="node">
<title>dir_3edc11c87957158ea7e79a05f48476a7</title>
<g id="a_node2"><a xlink:href="dir_3edc11c87957158ea7e79a05f48476a7.html" target="_top" xlink:title="include">
<polygon fill="white" stroke="red" points="96,-36 42,-36 42,0 96,0 96,-36"/>
<text text-anchor="middle" x="69" y="-15.5" font-family="Helvetica,sans-Serif" font-size="10.00">include</text>
</a>
</g>
</g>
<!-- dir_8e7abd664aca6aaaf25d14dfeb8b5ff1&#45;&gt;dir_3edc11c87957158ea7e79a05f48476a7 -->
<g id="edge1" class="edge">
<title>dir_8e7abd664aca6aaaf25d14dfeb8b5ff1&#45;&gt;dir_3edc11c87957158ea7e79a05f48476a7</title>
<path fill="none" stroke="black" d="M69,-71.7C69,-63.98 69,-54.71 69,-46.11"/>
<polygon fill="black" stroke="black" points="72.5,-46.1 69,-36.1 65.5,-46.1 72.5,-46.1"/>
<g id="a_edge1&#45;headlabel"><a xlink:href="dir_000019_000001.html" target="_top" xlink:title="5">
<text text-anchor="middle" x="75.34" y="-47.2" font-family="Helvetica,sans-Serif" font-size="10.00">5</text>
</a>
</g>
</g>
</g>
</svg>
