<?xml version="1.0" encoding="UTF-8" standalone="no"?>
<!DOCTYPE svg PUBLIC "-//W3C//DTD SVG 1.1//EN"
 "http://www.w3.org/Graphics/SVG/1.1/DTD/svg11.dtd">
<!-- Generated by graphviz version 2.43.0 (0)
 -->
<!-- Title: ACSL&#45;flightstack/include/flightstack Pages: 1 -->
<svg width="328pt" height="327pt"
 viewBox="0.00 0.00 328.00 327.00" xmlns="http://www.w3.org/2000/svg" xmlns:xlink="http://www.w3.org/1999/xlink">
<g id="graph0" class="graph" transform="scale(1 1) rotate(0) translate(4 323)">
<title>ACSL&#45;flightstack/include/flightstack</title>
<polygon fill="white" stroke="transparent" points="-4,4 -4,-323 324,-323 324,4 -4,4"/>
<g id="clust1" class="cluster">
<title>clusterdir_3edc11c87957158ea7e79a05f48476a7</title>
<g id="a_clust1"><a xlink:href="dir_3edc11c87957158ea7e79a05f48476a7.html" target="_top" xlink:title="include">
<polygon fill="#ddddee" stroke="black" points="8,-8 8,-311 312,-311 312,-8 8,-8"/>
<text text-anchor="middle" x="160" y="-299" font-family="Helvetica,sans-Serif" font-size="10.00">include</text>
</a>
</g>
</g>
<g id="clust2" class="cluster">
<title>clusterdir_1041cd6cffafe0361025efbe63082af2</title>
<g id="a_clust2"><a xlink:href="dir_1041cd6cffafe0361025efbe63082af2.html" target="_top">
<polygon fill="#eeeeff" stroke="black" points="16,-16 16,-284 304,-284 304,-16 16,-16"/>
</a>
</g>
</g>
<!-- dir_1041cd6cffafe0361025efbe63082af2 -->
<g id="node1" class="node">
<title>dir_1041cd6cffafe0361025efbe63082af2</title>
<text text-anchor="middle" x="172" y="-255.5" font-family="Helvetica,sans-Serif" font-size="10.00">flightstack</text>
</g>
<!-- dir_5878a4fb4d1617d176758e649e8875a2 -->
<g id="node2" class="node">
<title>dir_5878a4fb4d1617d176758e649e8875a2</title>
<g id="a_node2"><a xlink:href="dir_5878a4fb4d1617d176758e649e8875a2.html" target="_top" xlink:title="config">
<polygon fill="white" stroke="black" points="78,-204 24,-204 24,-168 78,-168 78,-204"/>
<text text-anchor="middle" x="51" y="-183.5" font-family="Helvetica,sans-Serif" font-size="10.00">config</text>
</a>
</g>
</g>
<!-- dir_1041cd6cffafe0361025efbe63082af2&#45;&gt;dir_5878a4fb4d1617d176758e649e8875a2 -->
<g id="edge3" class="edge">
<title>dir_1041cd6cffafe0361025efbe63082af2&#45;&gt;dir_5878a4fb4d1617d176758e649e8875a2</title>
<path fill="none" stroke="black" d="M142.4,-239.88C125.72,-230.23 104.75,-218.1 87.11,-207.89"/>
<polygon fill="black" stroke="black" points="88.63,-204.73 78.23,-202.75 85.13,-210.79 88.63,-204.73"/>
<g id="a_edge3&#45;headlabel"><a xlink:href="dir_000002_000003.html" target="_top" xlink:title="1">
<text text-anchor="middle" x="93.17" y="-201.57" font-family="Helvetica,sans-Serif" font-size="10.00">1</text>
</a>
</g>
</g>
<!-- dir_12264e2dcd9d07556050ad8ba1d980be -->
<g id="node5" class="node">
<title>dir_12264e2dcd9d07556050ad8ba1d980be</title>
<g id="a_node5"><a xlink:href="dir_12264e2dcd9d07556050ad8ba1d980be.html" target="_top" xlink:title="mocap">
<polygon fill="white" stroke="black" points="150,-204 96,-204 96,-168 150,-168 150,-204"/>
<text text-anchor="middle" x="123" y="-183.5" font-family="Helvetica,sans-Serif" font-size="10.00">mocap</text>
</a>
</g>
</g>
<!-- dir_1041cd6cffafe0361025efbe63082af2&#45;&gt;dir_12264e2dcd9d07556050ad8ba1d980be -->
<g id="edge1" class="edge">
<title>dir_1041cd6cffafe0361025efbe63082af2&#45;&gt;dir_12264e2dcd9d07556050ad8ba1d980be</title>
<path fill="none" stroke="black" d="M159.89,-239.7C154.13,-231.47 147.14,-221.48 140.79,-212.42"/>
<polygon fill="black" stroke="black" points="143.58,-210.29 134.97,-204.1 137.84,-214.3 143.58,-210.29"/>
<g id="a_edge1&#45;headlabel"><a xlink:href="dir_000002_000008.html" target="_top" xlink:title="1">
<text text-anchor="middle" x="147.96" y="-209.11" font-family="Helvetica,sans-Serif" font-size="10.00">1</text>
</a>
</g>
</g>
<!-- dir_f61cfbc79c36da136de17f4cb83172d2 -->
<g id="node6" class="node">
<title>dir_f61cfbc79c36da136de17f4cb83172d2</title>
<g id="a_node6"><a xlink:href="dir_f61cfbc79c36da136de17f4cb83172d2.html" target="_top" xlink:title="pixhawk_interface">
<polygon fill="white" stroke="black" points="275.5,-204 168.5,-204 168.5,-168 275.5,-168 275.5,-204"/>
<text text-anchor="middle" x="222" y="-183.5" font-family="Helvetica,sans-Serif" font-size="10.00">pixhawk_interface</text>
</a>
</g>
</g>
<!-- dir_1041cd6cffafe0361025efbe63082af2&#45;&gt;dir_f61cfbc79c36da136de17f4cb83172d2 -->
<g id="edge4" class="edge">
<title>dir_1041cd6cffafe0361025efbe63082af2&#45;&gt;dir_f61cfbc79c36da136de17f4cb83172d2</title>
<path fill="none" stroke="black" d="M184.36,-239.7C190.23,-231.47 197.37,-221.48 203.84,-212.42"/>
<polygon fill="black" stroke="black" points="206.82,-214.28 209.78,-204.1 201.12,-210.21 206.82,-214.28"/>
<g id="a_edge4&#45;headlabel"><a xlink:href="dir_000002_000009.html" target="_top" xlink:title="1">
<text text-anchor="middle" x="207.04" y="-216.35" font-family="Helvetica,sans-Serif" font-size="10.00">1</text>
</a>
</g>
</g>
<!-- dir_240ce7b34546b19c8217b7c53dd7a9da -->
<g id="node8" class="node">
<title>dir_240ce7b34546b19c8217b7c53dd7a9da</title>
<g id="a_node8"><a xlink:href="dir_240ce7b34546b19c8217b7c53dd7a9da.html" target="_top" xlink:title="utils">
<polygon fill="white" stroke="black" points="262,-60 208,-60 208,-24 262,-24 262,-60"/>
<text text-anchor="middle" x="235" y="-39.5" font-family="Helvetica,sans-Serif" font-size="10.00">utils</text>
</a>
</g>
</g>
<!-- dir_1041cd6cffafe0361025efbe63082af2&#45;&gt;dir_240ce7b34546b19c8217b7c53dd7a9da -->
<g id="edge2" class="edge">
<title>dir_1041cd6cffafe0361025efbe63082af2&#45;&gt;dir_240ce7b34546b19c8217b7c53dd7a9da</title>
<path fill="none" stroke="black" d="M206.18,-251.11C232.72,-244.55 267.8,-231.07 285,-204 312.38,-160.92 279.24,-101.81 255.34,-68.51"/>
<polygon fill="black" stroke="black" points="257.97,-66.18 249.2,-60.23 252.35,-70.35 257.97,-66.18"/>
<g id="a_edge2&#45;headlabel"><a xlink:href="dir_000002_000011.html" target="_top" xlink:title="3">
<text text-anchor="middle" x="262.39" y="-64.87" font-family="Helvetica,sans-Serif" font-size="10.00">3</text>
</a>
</g>
</g>
<!-- dir_b610ec2f49d1e17a6dd8fdb106cb4e2e -->
<g id="node3" class="node">
<title>dir_b610ec2f49d1e17a6dd8fdb106cb4e2e</title>
<g id="a_node3"><a xlink:href="dir_b610ec2f49d1e17a6dd8fdb106cb4e2e.html" target="_top" xlink:title="control">
<polygon fill="white" stroke="red" points="98,-132 44,-132 44,-96 98,-96 98,-132"/>
<text text-anchor="middle" x="71" y="-111.5" font-family="Helvetica,sans-Serif" font-size="10.00">control</text>
</a>
</g>
</g>
<!-- dir_5878a4fb4d1617d176758e649e8875a2&#45;&gt;dir_b610ec2f49d1e17a6dd8fdb106cb4e2e -->
<g id="edge7" class="edge">
<title>dir_5878a4fb4d1617d176758e649e8875a2&#45;&gt;dir_b610ec2f49d1e17a6dd8fdb106cb4e2e</title>
<path fill="none" stroke="black" d="M55.94,-167.7C58.17,-159.9 60.85,-150.51 63.33,-141.83"/>
<polygon fill="black" stroke="black" points="66.73,-142.68 66.11,-132.1 60,-140.76 66.73,-142.68"/>
<g id="a_edge7&#45;headlabel"><a xlink:href="dir_000003_000004.html" target="_top" xlink:title="2">
<text text-anchor="middle" x="68.47" y="-144.42" font-family="Helvetica,sans-Serif" font-size="10.00">2</text>
</a>
</g>
</g>
<!-- dir_d8dbe37700a280f6d54976ac7304f172 -->
<g id="node7" class="node">
<title>dir_d8dbe37700a280f6d54976ac7304f172</title>
<g id="a_node7"><a xlink:href="dir_d8dbe37700a280f6d54976ac7304f172.html" target="_top" xlink:title="user_defined_trajectory">
<polygon fill="white" stroke="black" points="155.5,-60 24.5,-60 24.5,-24 155.5,-24 155.5,-60"/>
<text text-anchor="middle" x="90" y="-39.5" font-family="Helvetica,sans-Serif" font-size="10.00">user_defined_trajectory</text>
</a>
</g>
</g>
<!-- dir_b610ec2f49d1e17a6dd8fdb106cb4e2e&#45;&gt;dir_d8dbe37700a280f6d54976ac7304f172 -->
<g id="edge5" class="edge">
<title>dir_b610ec2f49d1e17a6dd8fdb106cb4e2e&#45;&gt;dir_d8dbe37700a280f6d54976ac7304f172</title>
<path fill="none" stroke="black" d="M75.7,-95.7C77.81,-87.9 80.36,-78.51 82.72,-69.83"/>
<polygon fill="black" stroke="black" points="86.12,-70.67 85.36,-60.1 79.36,-68.84 86.12,-70.67"/>
<g id="a_edge5&#45;headlabel"><a xlink:href="dir_000004_000010.html" target="_top" xlink:title="1">
<text text-anchor="middle" x="87.91" y="-72.38" font-family="Helvetica,sans-Serif" font-size="10.00">1</text>
</a>
</g>
</g>
<!-- dir_b610ec2f49d1e17a6dd8fdb106cb4e2e&#45;&gt;dir_240ce7b34546b19c8217b7c53dd7a9da -->
<g id="edge6" class="edge">
<title>dir_b610ec2f49d1e17a6dd8fdb106cb4e2e&#45;&gt;dir_240ce7b34546b19c8217b7c53dd7a9da</title>
<path fill="none" stroke="black" d="M98.06,-100.05C101.07,-98.66 104.09,-97.29 107,-96 137.62,-82.44 172.79,-67.96 198.5,-57.56"/>
<polygon fill="black" stroke="black" points="199.9,-60.77 207.87,-53.79 197.29,-54.28 199.9,-60.77"/>
<g id="a_edge6&#45;headlabel"><a xlink:href="dir_000004_000011.html" target="_top" xlink:title="1">
<text text-anchor="middle" x="197.63" y="-62.25" font-family="Helvetica,sans-Serif" font-size="10.00">1</text>
</a>
</g>
</g>
<!-- dir_3804a6c23e785dab4d4c47b120b97e06 -->
<g id="node4" class="node">
<title>dir_3804a6c23e785dab4d4c47b120b97e06</title>
<g id="a_node4"><a xlink:href="dir_3804a6c23e785dab4d4c47b120b97e06.html" target="_top" xlink:title="logging">
<polygon fill="white" stroke="black" points="170,-132 116,-132 116,-96 170,-96 170,-132"/>
<text text-anchor="middle" x="143" y="-111.5" font-family="Helvetica,sans-Serif" font-size="10.00">logging</text>
</a>
</g>
</g>
<!-- dir_12264e2dcd9d07556050ad8ba1d980be&#45;&gt;dir_3804a6c23e785dab4d4c47b120b97e06 -->
<g id="edge8" class="edge">
<title>dir_12264e2dcd9d07556050ad8ba1d980be&#45;&gt;dir_3804a6c23e785dab4d4c47b120b97e06</title>
<path fill="none" stroke="black" d="M127.94,-167.7C130.17,-159.9 132.85,-150.51 135.33,-141.83"/>
<polygon fill="black" stroke="black" points="138.73,-142.68 138.11,-132.1 132,-140.76 138.73,-142.68"/>
<g id="a_edge8&#45;headlabel"><a xlink:href="dir_000008_000007.html" target="_top" xlink:title="1">
<text text-anchor="middle" x="140.47" y="-144.42" font-family="Helvetica,sans-Serif" font-size="10.00">1</text>
</a>
</g>
</g>
</g>
</svg>
