<?xml version="1.0" encoding="UTF-8" standalone="no"?>
<!DOCTYPE svg PUBLIC "-//W3C//DTD SVG 1.1//EN"
 "http://www.w3.org/Graphics/SVG/1.1/DTD/svg11.dtd">
<!-- Generated by graphviz version 2.43.0 (0)
 -->
<!-- Title: ACSL&#45;flightstack/include/flightstack/control Pages: 1 -->
<svg width="254pt" height="175pt"
 viewBox="0.00 0.00 254.00 175.00" xmlns="http://www.w3.org/2000/svg" xmlns:xlink="http://www.w3.org/1999/xlink">
<g id="graph0" class="graph" transform="scale(1 1) rotate(0) translate(4 171)">
<title>ACSL&#45;flightstack/include/flightstack/control</title>
<polygon fill="white" stroke="transparent" points="-4,4 -4,-171 250,-171 250,4 -4,4"/>
<g id="clust1" class="cluster">
<title>clusterdir_1041cd6cffafe0361025efbe63082af2</title>
<g id="a_clust1"><a xlink:href="dir_1041cd6cffafe0361025efbe63082af2.html" target="_top" xlink:title="flightstack">
<polygon fill="#ddddee" stroke="black" points="8,-8 8,-159 238,-159 238,-8 8,-8"/>
<text text-anchor="middle" x="123" y="-147" font-family="Helvetica,sans-Serif" font-size="10.00">flightstack</text>
</a>
</g>
</g>
<g id="clust2" class="cluster">
<title>clusterdir_b610ec2f49d1e17a6dd8fdb106cb4e2e</title>
<g id="a_clust2"><a xlink:href="dir_b610ec2f49d1e17a6dd8fdb106cb4e2e.html" target="_top">
<polygon fill="#eeeeff" stroke="black" points="16,-80 16,-132 230,-132 230,-80 16,-80"/>
</a>
</g>
</g>
<!-- dir_d8dbe37700a280f6d54976ac7304f172 -->
<g id="node1" class="node">
<title>dir_d8dbe37700a280f6d54976ac7304f172</title>
<g id="a_node1"><a xlink:href="dir_d8dbe37700a280f6d54976ac7304f172.html" target="_top" xlink:title="user_defined_trajectory">
<polygon fill="none" stroke="black" points="153.5,-52 22.5,-52 22.5,-16 153.5,-16 153.5,-52"/>
<text text-anchor="middle" x="88" y="-31.5" font-family="Helvetica,sans-Serif" font-size="10.00">user_defined_trajectory</text>
</a>
</g>
</g>
<!-- dir_240ce7b34546b19c8217b7c53dd7a9da -->
<g id="node2" class="node">
<title>dir_240ce7b34546b19c8217b7c53dd7a9da</title>
<g id="a_node2"><a xlink:href="dir_240ce7b34546b19c8217b7c53dd7a9da.html" target="_top" xlink:title="utils">
<polygon fill="none" stroke="black" points="226,-52 172,-52 172,-16 226,-16 226,-52"/>
<text text-anchor="middle" x="199" y="-31.5" font-family="Helvetica,sans-Serif" font-size="10.00">utils</text>
</a>
</g>
</g>
<!-- dir_b610ec2f49d1e17a6dd8fdb106cb4e2e -->
<g id="node3" class="node">
<title>dir_b610ec2f49d1e17a6dd8fdb106cb4e2e</title>
<text text-anchor="middle" x="123" y="-103.5" font-family="Helvetica,sans-Serif" font-size="10.00">control</text>
</g>
<!-- dir_b610ec2f49d1e17a6dd8fdb106cb4e2e&#45;&gt;dir_d8dbe37700a280f6d54976ac7304f172 -->
<g id="edge1" class="edge">
<title>dir_b610ec2f49d1e17a6dd8fdb106cb4e2e&#45;&gt;dir_d8dbe37700a280f6d54976ac7304f172</title>
<path fill="none" stroke="black" d="M114.35,-87.7C110.36,-79.73 105.55,-70.1 101.13,-61.26"/>
<polygon fill="black" stroke="black" points="104.15,-59.48 96.55,-52.1 97.89,-62.61 104.15,-59.48"/>
<g id="a_edge1&#45;headlabel"><a xlink:href="dir_000004_000010.html" target="_top" xlink:title="1">
<text text-anchor="middle" x="108.3" y="-58.93" font-family="Helvetica,sans-Serif" font-size="10.00">1</text>
</a>
</g>
</g>
<!-- dir_49b13f976e7b6a637b06098db8873dfc -->
<g id="node4" class="node">
<title>dir_49b13f976e7b6a637b06098db8873dfc</title>
<g id="a_node4"><a xlink:href="dir_49b13f976e7b6a637b06098db8873dfc.html" target="_top" xlink:title="mrac">
<polygon fill="white" stroke="black" points="222,-124 168,-124 168,-88 222,-88 222,-124"/>
<text text-anchor="middle" x="195" y="-103.5" font-family="Helvetica,sans-Serif" font-size="10.00">mrac</text>
</a>
</g>
</g>
<!-- dir_49b13f976e7b6a637b06098db8873dfc&#45;&gt;dir_240ce7b34546b19c8217b7c53dd7a9da -->
<g id="edge2" class="edge">
<title>dir_49b13f976e7b6a637b06098db8873dfc&#45;&gt;dir_240ce7b34546b19c8217b7c53dd7a9da</title>
<path fill="none" stroke="black" d="M195.99,-87.7C196.43,-79.98 196.96,-70.71 197.45,-62.11"/>
<polygon fill="black" stroke="black" points="200.95,-62.29 198.02,-52.1 193.96,-61.89 200.95,-62.29"/>
<g id="a_edge2&#45;headlabel"><a xlink:href="dir_000005_000011.html" target="_top" xlink:title="1">
<text text-anchor="middle" x="203.58" y="-63.54" font-family="Helvetica,sans-Serif" font-size="10.00">1</text>
</a>
</g>
</g>
<!-- dir_929c1ea0eee4b1918c2779a83873fa71 -->
<g id="node5" class="node">
<title>dir_929c1ea0eee4b1918c2779a83873fa71</title>
<g id="a_node5"><a xlink:href="dir_929c1ea0eee4b1918c2779a83873fa71.html" target="_top" xlink:title="pid">
<polygon fill="white" stroke="black" points="78,-124 24,-124 24,-88 78,-88 78,-124"/>
<text text-anchor="middle" x="51" y="-103.5" font-family="Helvetica,sans-Serif" font-size="10.00">pid</text>
</a>
</g>
</g>
</g>
</svg>
