<?xml version="1.0" encoding="UTF-8" standalone="no"?>
<!DOCTYPE svg PUBLIC "-//W3C//DTD SVG 1.1//EN"
 "http://www.w3.org/Graphics/SVG/1.1/DTD/svg11.dtd">
<!-- Generated by graphviz version 2.43.0 (0)
 -->
<!-- Title: ACSL&#45;flightstack/include/flightstack/mocap Pages: 1 -->
<svg width="94pt" height="167pt"
 viewBox="0.00 0.00 94.00 167.00" xmlns="http://www.w3.org/2000/svg" xmlns:xlink="http://www.w3.org/1999/xlink">
<g id="graph0" class="graph" transform="scale(1 1) rotate(0) translate(4 163)">
<title>ACSL&#45;flightstack/include/flightstack/mocap</title>
<polygon fill="white" stroke="transparent" points="-4,4 -4,-163 90,-163 90,4 -4,4"/>
<g id="clust1" class="cluster">
<title>clusterdir_1041cd6cffafe0361025efbe63082af2</title>
<g id="a_clust1"><a xlink:href="dir_1041cd6cffafe0361025efbe63082af2.html" target="_top" xlink:title="flightstack">
<polygon fill="#ddddee" stroke="black" points="8,-8 8,-151 78,-151 78,-8 8,-8"/>
<text text-anchor="middle" x="43" y="-139" font-family="Helvetica,sans-Serif" font-size="10.00">flightstack</text>
</a>
</g>
</g>
<!-- dir_3804a6c23e785dab4d4c47b120b97e06 -->
<g id="node1" class="node">
<title>dir_3804a6c23e785dab4d4c47b120b97e06</title>
<g id="a_node1"><a xlink:href="dir_3804a6c23e785dab4d4c47b120b97e06.html" target="_top" xlink:title="logging">
<polygon fill="none" stroke="black" points="70,-52 16,-52 16,-16 70,-16 70,-52"/>
<text text-anchor="middle" x="43" y="-31.5" font-family="Helvetica,sans-Serif" font-size="10.00">logging</text>
</a>
</g>
</g>
<!-- dir_12264e2dcd9d07556050ad8ba1d980be -->
<g id="node2" class="node">
<title>dir_12264e2dcd9d07556050ad8ba1d980be</title>
<g id="a_node2"><a xlink:href="dir_12264e2dcd9d07556050ad8ba1d980be.html" target="_top" xlink:title="mocap">
<polygon fill="#eeeeff" stroke="black" points="70,-124 16,-124 16,-88 70,-88 70,-124"/>
<text text-anchor="middle" x="43" y="-103.5" font-family="Helvetica,sans-Serif" font-size="10.00">mocap</text>
</a>
</g>
</g>
<!-- dir_12264e2dcd9d07556050ad8ba1d980be&#45;&gt;dir_3804a6c23e785dab4d4c47b120b97e06 -->
<g id="edge1" class="edge">
<title>dir_12264e2dcd9d07556050ad8ba1d980be&#45;&gt;dir_3804a6c23e785dab4d4c47b120b97e06</title>
<path fill="none" stroke="black" d="M43,-87.7C43,-79.98 43,-70.71 43,-62.11"/>
<polygon fill="black" stroke="black" points="46.5,-62.1 43,-52.1 39.5,-62.1 46.5,-62.1"/>
<g id="a_edge1&#45;headlabel"><a xlink:href="dir_000008_000007.html" target="_top" xlink:title="1">
<text text-anchor="middle" x="49.34" y="-63.2" font-family="Helvetica,sans-Serif" font-size="10.00">1</text>
</a>
</g>
</g>
</g>
</svg>
