<?xml version="1.0" encoding="UTF-8" standalone="no"?>
<!DOCTYPE svg PUBLIC "-//W3C//DTD SVG 1.1//EN"
 "http://www.w3.org/Graphics/SVG/1.1/DTD/svg11.dtd">
<!-- Generated by graphviz version 2.43.0 (0)
 -->
<!-- Title: /mnt/c/Users/siddh/OneDrive/Desktop/ACSL&#45;flightstack/src Pages: 1 -->
<svg width="729pt" height="132pt"
 viewBox="0.00 0.00 729.00 132.00" xmlns="http://www.w3.org/2000/svg" xmlns:xlink="http://www.w3.org/1999/xlink">
<g id="graph0" class="graph" transform="scale(1 1) rotate(0) translate(4 128)">
<title>/mnt/c/Users/siddh/OneDrive/Desktop/ACSL&#45;flightstack/src</title>
<polygon fill="white" stroke="transparent" points="-4,4 -4,-128 725,-128 725,4 -4,4"/>
<g id="clust1" class="cluster">
<title>clusterdir_68267d1309a1af8e8297ef4c3efbcdba</title>
<g id="a_clust1"><a xlink:href="dir_68267d1309a1af8e8297ef4c3efbcdba.html" target="_top">
<polygon fill="#eeeeff" stroke="black" points="8,-64 8,-116 713,-116 713,-64 8,-64"/>
</a>
</g>
</g>
<!-- dir_68267d1309a1af8e8297ef4c3efbcdba -->
<g id="node1" class="node">
<title>dir_68267d1309a1af8e8297ef4c3efbcdba</title>
<text text-anchor="middle" x="678" y="-87.5" font-family="Helvetica,sans-Serif" font-size="10.00">src</text>
</g>
<!-- dir_7e83d1792d529f4aa7126ac7e0b3b699 -->
<g id="node2" class="node">
<title>dir_7e83d1792d529f4aa7126ac7e0b3b699</title>
<g id="a_node2"><a xlink:href="dir_7e83d1792d529f4aa7126ac7e0b3b699.html" target="_top" xlink:title="config">
<polygon fill="white" stroke="black" points="633,-108 579,-108 579,-72 633,-72 633,-108"/>
<text text-anchor="middle" x="606" y="-87.5" font-family="Helvetica,sans-Serif" font-size="10.00">config</text>
</a>
</g>
</g>
<!-- dir_d44c64559bbebec7f509842c48db8b23 -->
<g id="node9" class="node">
<title>dir_d44c64559bbebec7f509842c48db8b23</title>
<g id="a_node9"><a xlink:href="dir_d44c64559bbebec7f509842c48db8b23.html" target="_top" xlink:title="include">
<polygon fill="white" stroke="red" points="417,-36 363,-36 363,0 417,0 417,-36"/>
<text text-anchor="middle" x="390" y="-15.5" font-family="Helvetica,sans-Serif" font-size="10.00">include</text>
</a>
</g>
</g>
<!-- dir_7e83d1792d529f4aa7126ac7e0b3b699&#45;&gt;dir_d44c64559bbebec7f509842c48db8b23 -->
<g id="edge2" class="edge">
<title>dir_7e83d1792d529f4aa7126ac7e0b3b699&#45;&gt;dir_d44c64559bbebec7f509842c48db8b23</title>
<path fill="none" stroke="black" d="M583.89,-71.81C579.46,-68.9 574.71,-66.14 570,-64 523.08,-42.71 464.52,-30.46 427.18,-24.26"/>
<polygon fill="black" stroke="black" points="427.67,-20.79 417.24,-22.67 426.56,-27.7 427.67,-20.79"/>
<g id="a_edge2&#45;headlabel"><a xlink:href="dir_000012_000000.html" target="_top" xlink:title="2">
<text text-anchor="middle" x="431.67" y="-16.06" font-family="Helvetica,sans-Serif" font-size="10.00">2</text>
</a>
</g>
</g>
<!-- dir_b81b067251166617f9d0a8c0cfc3a4a9 -->
<g id="node3" class="node">
<title>dir_b81b067251166617f9d0a8c0cfc3a4a9</title>
<g id="a_node3"><a xlink:href="dir_b81b067251166617f9d0a8c0cfc3a4a9.html" target="_top" xlink:title="control">
<polygon fill="white" stroke="red" points="561,-108 507,-108 507,-72 561,-72 561,-108"/>
<text text-anchor="middle" x="534" y="-87.5" font-family="Helvetica,sans-Serif" font-size="10.00">control</text>
</a>
</g>
</g>
<!-- dir_b81b067251166617f9d0a8c0cfc3a4a9&#45;&gt;dir_d44c64559bbebec7f509842c48db8b23 -->
<g id="edge4" class="edge">
<title>dir_b81b067251166617f9d0a8c0cfc3a4a9&#45;&gt;dir_d44c64559bbebec7f509842c48db8b23</title>
<path fill="none" stroke="black" d="M510.83,-71.85C506.66,-69.07 502.27,-66.34 498,-64 475.24,-51.54 448.29,-40.31 427.01,-32.18"/>
<polygon fill="black" stroke="black" points="427.96,-28.8 417.37,-28.56 425.5,-35.35 427.96,-28.8"/>
<g id="a_edge4&#45;headlabel"><a xlink:href="dir_000013_000000.html" target="_top" xlink:title="18">
<text text-anchor="middle" x="432.32" y="-24.9" font-family="Helvetica,sans-Serif" font-size="10.00">18</text>
</a>
</g>
</g>
<!-- dir_b3320b59a4aa4a7431bc8488b87009bf -->
<g id="node4" class="node">
<title>dir_b3320b59a4aa4a7431bc8488b87009bf</title>
<g id="a_node4"><a xlink:href="dir_b3320b59a4aa4a7431bc8488b87009bf.html" target="_top" xlink:title="logging">
<polygon fill="white" stroke="black" points="489,-108 435,-108 435,-72 489,-72 489,-108"/>
<text text-anchor="middle" x="462" y="-87.5" font-family="Helvetica,sans-Serif" font-size="10.00">logging</text>
</a>
</g>
</g>
<!-- dir_b3320b59a4aa4a7431bc8488b87009bf&#45;&gt;dir_d44c64559bbebec7f509842c48db8b23 -->
<g id="edge6" class="edge">
<title>dir_b3320b59a4aa4a7431bc8488b87009bf&#45;&gt;dir_d44c64559bbebec7f509842c48db8b23</title>
<path fill="none" stroke="black" d="M444.2,-71.7C435.4,-63.14 424.62,-52.66 415,-43.3"/>
<polygon fill="black" stroke="black" points="417.2,-40.57 407.59,-36.1 412.32,-45.58 417.2,-40.57"/>
<g id="a_edge6&#45;headlabel"><a xlink:href="dir_000016_000000.html" target="_top" xlink:title="3">
<text text-anchor="middle" x="421.76" y="-38.54" font-family="Helvetica,sans-Serif" font-size="10.00">3</text>
</a>
</g>
</g>
<!-- dir_f1d694183c2bfe5a331996824b4961d8 -->
<g id="node5" class="node">
<title>dir_f1d694183c2bfe5a331996824b4961d8</title>
<g id="a_node5"><a xlink:href="dir_f1d694183c2bfe5a331996824b4961d8.html" target="_top" xlink:title="mocap">
<polygon fill="white" stroke="black" points="417,-108 363,-108 363,-72 417,-72 417,-108"/>
<text text-anchor="middle" x="390" y="-87.5" font-family="Helvetica,sans-Serif" font-size="10.00">mocap</text>
</a>
</g>
</g>
<!-- dir_f1d694183c2bfe5a331996824b4961d8&#45;&gt;dir_d44c64559bbebec7f509842c48db8b23 -->
<g id="edge3" class="edge">
<title>dir_f1d694183c2bfe5a331996824b4961d8&#45;&gt;dir_d44c64559bbebec7f509842c48db8b23</title>
<path fill="none" stroke="black" d="M390,-71.7C390,-63.98 390,-54.71 390,-46.11"/>
<polygon fill="black" stroke="black" points="393.5,-46.1 390,-36.1 386.5,-46.1 393.5,-46.1"/>
<g id="a_edge3&#45;headlabel"><a xlink:href="dir_000017_000000.html" target="_top" xlink:title="4">
<text text-anchor="middle" x="396.34" y="-47.2" font-family="Helvetica,sans-Serif" font-size="10.00">4</text>
</a>
</g>
</g>
<!-- dir_5a1e684e8d57cbbafe63e87d8299d127 -->
<g id="node6" class="node">
<title>dir_5a1e684e8d57cbbafe63e87d8299d127</title>
<g id="a_node6"><a xlink:href="dir_5a1e684e8d57cbbafe63e87d8299d127.html" target="_top" xlink:title="pixhawk_interface">
<polygon fill="white" stroke="black" points="344.5,-108 237.5,-108 237.5,-72 344.5,-72 344.5,-108"/>
<text text-anchor="middle" x="291" y="-87.5" font-family="Helvetica,sans-Serif" font-size="10.00">pixhawk_interface</text>
</a>
</g>
</g>
<!-- dir_5a1e684e8d57cbbafe63e87d8299d127&#45;&gt;dir_d44c64559bbebec7f509842c48db8b23 -->
<g id="edge5" class="edge">
<title>dir_5a1e684e8d57cbbafe63e87d8299d127&#45;&gt;dir_d44c64559bbebec7f509842c48db8b23</title>
<path fill="none" stroke="black" d="M315.22,-71.88C327.92,-62.89 343.66,-51.76 357.42,-42.03"/>
<polygon fill="black" stroke="black" points="359.54,-44.82 365.69,-36.19 355.5,-39.11 359.54,-44.82"/>
<g id="a_edge5&#45;headlabel"><a xlink:href="dir_000018_000000.html" target="_top" xlink:title="5">
<text text-anchor="middle" x="358.25" y="-46.71" font-family="Helvetica,sans-Serif" font-size="10.00">5</text>
</a>
</g>
</g>
<!-- dir_7505186304271f6c196c2083fd3e022f -->
<g id="node7" class="node">
<title>dir_7505186304271f6c196c2083fd3e022f</title>
<g id="a_node7"><a xlink:href="dir_7505186304271f6c196c2083fd3e022f.html" target="_top" xlink:title="user_defined_trajectory">
<polygon fill="white" stroke="black" points="219.5,-108 88.5,-108 88.5,-72 219.5,-72 219.5,-108"/>
<text text-anchor="middle" x="154" y="-87.5" font-family="Helvetica,sans-Serif" font-size="10.00">user_defined_trajectory</text>
</a>
</g>
</g>
<!-- dir_7505186304271f6c196c2083fd3e022f&#45;&gt;dir_d44c64559bbebec7f509842c48db8b23 -->
<g id="edge1" class="edge">
<title>dir_7505186304271f6c196c2083fd3e022f&#45;&gt;dir_d44c64559bbebec7f509842c48db8b23</title>
<path fill="none" stroke="black" d="M203.92,-71.98C212.27,-69.24 220.86,-66.49 229,-64 271.19,-51.08 320.06,-37.63 352.79,-28.84"/>
<polygon fill="black" stroke="black" points="354.06,-32.13 362.82,-26.16 352.25,-25.36 354.06,-32.13"/>
<g id="a_edge1&#45;headlabel"><a xlink:href="dir_000019_000000.html" target="_top" xlink:title="4">
<text text-anchor="middle" x="351.33" y="-33.3" font-family="Helvetica,sans-Serif" font-size="10.00">4</text>
</a>
</g>
</g>
<!-- dir_313caf1132e152dd9b58bea13a4052ca -->
<g id="node8" class="node">
<title>dir_313caf1132e152dd9b58bea13a4052ca</title>
<g id="a_node8"><a xlink:href="dir_313caf1132e152dd9b58bea13a4052ca.html" target="_top" xlink:title="utils">
<polygon fill="white" stroke="black" points="70,-108 16,-108 16,-72 70,-72 70,-108"/>
<text text-anchor="middle" x="43" y="-87.5" font-family="Helvetica,sans-Serif" font-size="10.00">utils</text>
</a>
</g>
</g>
<!-- dir_313caf1132e152dd9b58bea13a4052ca&#45;&gt;dir_d44c64559bbebec7f509842c48db8b23 -->
<g id="edge7" class="edge">
<title>dir_313caf1132e152dd9b58bea13a4052ca&#45;&gt;dir_d44c64559bbebec7f509842c48db8b23</title>
<path fill="none" stroke="black" d="M64.8,-71.94C69.59,-68.87 74.79,-66.01 80,-64 173.54,-27.81 293.19,-20.41 352.79,-19.1"/>
<polygon fill="black" stroke="black" points="352.92,-22.6 362.86,-18.92 352.8,-15.6 352.92,-22.6"/>
<g id="a_edge7&#45;headlabel"><a xlink:href="dir_000020_000000.html" target="_top" xlink:title="2">
<text text-anchor="middle" x="349.37" y="-23" font-family="Helvetica,sans-Serif" font-size="10.00">2</text>
</a>
</g>
</g>
</g>
</svg>
