<?xml version="1.0" encoding="UTF-8" standalone="no"?>
<!DOCTYPE svg PUBLIC "-//W3C//DTD SVG 1.1//EN"
 "http://www.w3.org/Graphics/SVG/1.1/DTD/svg11.dtd">
<!-- Generated by graphviz version 2.43.0 (0)
 -->
<!-- Title: ACSL&#45;flightstack/src/control Pages: 1 -->
<svg width="254pt" height="159pt"
 viewBox="0.00 0.00 254.00 159.00" xmlns="http://www.w3.org/2000/svg" xmlns:xlink="http://www.w3.org/1999/xlink">
<g id="graph0" class="graph" transform="scale(1 1) rotate(0) translate(4 155)">
<title>ACSL&#45;flightstack/src/control</title>
<polygon fill="white" stroke="transparent" points="-4,4 -4,-155 250,-155 250,4 -4,4"/>
<g id="clust1" class="cluster">
<title>clusterdir_50fceda69ebfc2e8dd8cd79d6c22b54c</title>
<g id="a_clust1"><a xlink:href="dir_50fceda69ebfc2e8dd8cd79d6c22b54c.html" target="_top" xlink:title="src">
<polygon fill="#ddddee" stroke="black" points="8,-56 8,-143 238,-143 238,-56 8,-56"/>
<text text-anchor="middle" x="123" y="-131" font-family="Helvetica,sans-Serif" font-size="10.00">src</text>
</a>
</g>
</g>
<g id="clust2" class="cluster">
<title>clusterdir_1a4f4700726d75ca16a0697f9aa7253f</title>
<g id="a_clust2"><a xlink:href="dir_1a4f4700726d75ca16a0697f9aa7253f.html" target="_top">
<polygon fill="#eeeeff" stroke="black" points="16,-64 16,-116 230,-116 230,-64 16,-64"/>
</a>
</g>
</g>
<!-- dir_1a4f4700726d75ca16a0697f9aa7253f -->
<g id="node1" class="node">
<title>dir_1a4f4700726d75ca16a0697f9aa7253f</title>
<text text-anchor="middle" x="195" y="-87.5" font-family="Helvetica,sans-Serif" font-size="10.00">control</text>
</g>
<!-- dir_3edc11c87957158ea7e79a05f48476a7 -->
<g id="node4" class="node">
<title>dir_3edc11c87957158ea7e79a05f48476a7</title>
<g id="a_node4"><a xlink:href="dir_3edc11c87957158ea7e79a05f48476a7.html" target="_top" xlink:title="include">
<polygon fill="white" stroke="red" points="150,-36 96,-36 96,0 150,0 150,-36"/>
<text text-anchor="middle" x="123" y="-15.5" font-family="Helvetica,sans-Serif" font-size="10.00">include</text>
</a>
</g>
</g>
<!-- dir_1a4f4700726d75ca16a0697f9aa7253f&#45;&gt;dir_3edc11c87957158ea7e79a05f48476a7 -->
<g id="edge2" class="edge">
<title>dir_1a4f4700726d75ca16a0697f9aa7253f&#45;&gt;dir_3edc11c87957158ea7e79a05f48476a7</title>
<path fill="none" stroke="black" d="M177.2,-71.7C168.4,-63.14 157.62,-52.66 148,-43.3"/>
<polygon fill="black" stroke="black" points="150.2,-40.57 140.59,-36.1 145.32,-45.58 150.2,-40.57"/>
<g id="a_edge2&#45;headlabel"><a xlink:href="dir_000014_000001.html" target="_top" xlink:title="18">
<text text-anchor="middle" x="154.76" y="-38.54" font-family="Helvetica,sans-Serif" font-size="10.00">18</text>
</a>
</g>
</g>
<!-- dir_383a58eabe2f75847e46aea346564448 -->
<g id="node2" class="node">
<title>dir_383a58eabe2f75847e46aea346564448</title>
<g id="a_node2"><a xlink:href="dir_383a58eabe2f75847e46aea346564448.html" target="_top" xlink:title="mrac">
<polygon fill="white" stroke="black" points="150,-108 96,-108 96,-72 150,-72 150,-108"/>
<text text-anchor="middle" x="123" y="-87.5" font-family="Helvetica,sans-Serif" font-size="10.00">mrac</text>
</a>
</g>
</g>
<!-- dir_383a58eabe2f75847e46aea346564448&#45;&gt;dir_3edc11c87957158ea7e79a05f48476a7 -->
<g id="edge1" class="edge">
<title>dir_383a58eabe2f75847e46aea346564448&#45;&gt;dir_3edc11c87957158ea7e79a05f48476a7</title>
<path fill="none" stroke="black" d="M123,-71.7C123,-63.98 123,-54.71 123,-46.11"/>
<polygon fill="black" stroke="black" points="126.5,-46.1 123,-36.1 119.5,-46.1 126.5,-46.1"/>
<g id="a_edge1&#45;headlabel"><a xlink:href="dir_000015_000001.html" target="_top" xlink:title="7">
<text text-anchor="middle" x="129.34" y="-47.2" font-family="Helvetica,sans-Serif" font-size="10.00">7</text>
</a>
</g>
</g>
<!-- dir_94ab816e8c0321b167b99f9775814318 -->
<g id="node3" class="node">
<title>dir_94ab816e8c0321b167b99f9775814318</title>
<g id="a_node3"><a xlink:href="dir_94ab816e8c0321b167b99f9775814318.html" target="_top" xlink:title="pid">
<polygon fill="white" stroke="black" points="78,-108 24,-108 24,-72 78,-72 78,-108"/>
<text text-anchor="middle" x="51" y="-87.5" font-family="Helvetica,sans-Serif" font-size="10.00">pid</text>
</a>
</g>
</g>
<!-- dir_94ab816e8c0321b167b99f9775814318&#45;&gt;dir_3edc11c87957158ea7e79a05f48476a7 -->
<g id="edge3" class="edge">
<title>dir_94ab816e8c0321b167b99f9775814318&#45;&gt;dir_3edc11c87957158ea7e79a05f48476a7</title>
<path fill="none" stroke="black" d="M68.8,-71.7C77.6,-63.14 88.38,-52.66 98,-43.3"/>
<polygon fill="black" stroke="black" points="100.68,-45.58 105.41,-36.1 95.8,-40.57 100.68,-45.58"/>
<g id="a_edge3&#45;headlabel"><a xlink:href="dir_000016_000001.html" target="_top" xlink:title="7">
<text text-anchor="middle" x="100.08" y="-47.63" font-family="Helvetica,sans-Serif" font-size="10.00">7</text>
</a>
</g>
</g>
</g>
</svg>
