<?xml version="1.0" encoding="UTF-8" standalone="no"?>
<!DOCTYPE svg PUBLIC "-//W3C//DTD SVG 1.1//EN"
 "http://www.w3.org/Graphics/SVG/1.1/DTD/svg11.dtd">
<!-- Generated by graphviz version 2.43.0 (0)
 -->
<!-- Title: /mnt/c/Users/siddh/OneDrive/Desktop/ACSL&#45;flightstack/src/user_defined_trajectory Pages: 1 -->
<svg width="172pt" height="151pt"
 viewBox="0.00 0.00 172.00 151.00" xmlns="http://www.w3.org/2000/svg" xmlns:xlink="http://www.w3.org/1999/xlink">
<g id="graph0" class="graph" transform="scale(1 1) rotate(0) translate(4 147)">
<title>/mnt/c/Users/siddh/OneDrive/Desktop/ACSL&#45;flightstack/src/user_defined_trajectory</title>
<polygon fill="white" stroke="transparent" points="-4,4 -4,-147 168,-147 168,4 -4,4"/>
<g id="clust1" class="cluster">
<title>clusterdir_68267d1309a1af8e8297ef4c3efbcdba</title>
<g id="a_clust1"><a xlink:href="dir_68267d1309a1af8e8297ef4c3efbcdba.html" target="_top" xlink:title="src">
<polygon fill="#ddddee" stroke="black" points="8,-64 8,-135 156,-135 156,-64 8,-64"/>
<text text-anchor="middle" x="82" y="-123" font-family="Helvetica,sans-Serif" font-size="10.00">src</text>
</a>
</g>
</g>
<!-- dir_7505186304271f6c196c2083fd3e022f -->
<g id="node1" class="node">
<title>dir_7505186304271f6c196c2083fd3e022f</title>
<g id="a_node1"><a xlink:href="dir_7505186304271f6c196c2083fd3e022f.html" target="_top" xlink:title="user_defined_trajectory">
<polygon fill="#eeeeff" stroke="black" points="147.5,-108 16.5,-108 16.5,-72 147.5,-72 147.5,-108"/>
<text text-anchor="middle" x="82" y="-87.5" font-family="Helvetica,sans-Serif" font-size="10.00">user_defined_trajectory</text>
</a>
</g>
</g>
<!-- dir_d44c64559bbebec7f509842c48db8b23 -->
<g id="node2" class="node">
<title>dir_d44c64559bbebec7f509842c48db8b23</title>
<g id="a_node2"><a xlink:href="dir_d44c64559bbebec7f509842c48db8b23.html" target="_top" xlink:title="include">
<polygon fill="white" stroke="red" points="109,-36 55,-36 55,0 109,0 109,-36"/>
<text text-anchor="middle" x="82" y="-15.5" font-family="Helvetica,sans-Serif" font-size="10.00">include</text>
</a>
</g>
</g>
<!-- dir_7505186304271f6c196c2083fd3e022f&#45;&gt;dir_d44c64559bbebec7f509842c48db8b23 -->
<g id="edge1" class="edge">
<title>dir_7505186304271f6c196c2083fd3e022f&#45;&gt;dir_d44c64559bbebec7f509842c48db8b23</title>
<path fill="none" stroke="black" d="M82,-71.7C82,-63.98 82,-54.71 82,-46.11"/>
<polygon fill="black" stroke="black" points="85.5,-46.1 82,-36.1 78.5,-46.1 85.5,-46.1"/>
<g id="a_edge1&#45;headlabel"><a xlink:href="dir_000019_000000.html" target="_top" xlink:title="4">
<text text-anchor="middle" x="88.34" y="-47.2" font-family="Helvetica,sans-Serif" font-size="10.00">4</text>
</a>
</g>
</g>
</g>
</svg>
