<?xml version="1.0" encoding="UTF-8" standalone="no"?>
<!DOCTYPE svg PUBLIC "-//W3C//DTD SVG 1.1//EN"
 "http://www.w3.org/Graphics/SVG/1.1/DTD/svg11.dtd">
<!-- Generated by graphviz version 2.43.0 (0)
 -->
<!-- Title: ACSL&#45;flightstack/include/flightstack/mocap/io_context.hpp Pages: 1 -->
<svg width="2188pt" height="485pt"
 viewBox="0.00 0.00 2187.50 485.00" xmlns="http://www.w3.org/2000/svg" xmlns:xlink="http://www.w3.org/1999/xlink">
<g id="graph0" class="graph" transform="scale(1 1) rotate(0) translate(4 481)">
<title>ACSL&#45;flightstack/include/flightstack/mocap/io_context.hpp</title>
<polygon fill="white" stroke="transparent" points="-4,4 -4,-481 2183.5,-481 2183.5,4 -4,4"/>
<!-- Node1 -->
<g id="node1" class="node">
<title>Node1</title>
<g id="a_node1"><a xlink:title="Class for IoContext to manage thread for udp.">
<polygon fill="#bfbfbf" stroke="black" points="1305,-446.5 1305,-476.5 1487,-476.5 1487,-446.5 1305,-446.5"/>
<text text-anchor="start" x="1313" y="-464.5" font-family="Helvetica,sans-Serif" font-size="10.00">ACSL&#45;flightstack/include</text>
<text text-anchor="middle" x="1396" y="-453.5" font-family="Helvetica,sans-Serif" font-size="10.00">/flightstack/mocap/io_context.hpp</text>
</a>
</g>
</g>
<!-- Node2 -->
<g id="node2" class="node">
<title>Node2</title>
<g id="a_node2"><a xlink:href="udp__socket_8hpp.html" target="_top" xlink:title="Class for UDP socket creation using IoContext.">
<polygon fill="white" stroke="black" points="1255,-368.5 1255,-409.5 1389,-409.5 1389,-368.5 1255,-368.5"/>
<text text-anchor="start" x="1263" y="-397.5" font-family="Helvetica,sans-Serif" font-size="10.00">ACSL&#45;flightstack/include</text>
<text text-anchor="start" x="1263" y="-386.5" font-family="Helvetica,sans-Serif" font-size="10.00">/flightstack/mocap/udp</text>
<text text-anchor="middle" x="1322" y="-375.5" font-family="Helvetica,sans-Serif" font-size="10.00">_socket.hpp</text>
</a>
</g>
</g>
<!-- Node1&#45;&gt;Node2 -->
<g id="edge1" class="edge">
<title>Node1&#45;&gt;Node2</title>
<path fill="none" stroke="midnightblue" d="M1373.54,-439.1C1363.68,-429.71 1352.19,-418.76 1342.56,-409.59"/>
<polygon fill="midnightblue" stroke="midnightblue" points="1371.37,-441.87 1381.02,-446.23 1376.2,-436.8 1371.37,-441.87"/>
</g>
<!-- Node25 -->
<g id="node25" class="node">
<title>Node25</title>
<g id="a_node25"><a xlink:href="io__context_8cpp.html" target="_top" xlink:title="Class for IoContext to manage thread for udp.">
<polygon fill="white" stroke="black" points="1407.5,-374 1407.5,-404 1534.5,-404 1534.5,-374 1407.5,-374"/>
<text text-anchor="start" x="1415.5" y="-392" font-family="Helvetica,sans-Serif" font-size="10.00">ACSL&#45;flightstack/src</text>
<text text-anchor="middle" x="1471" y="-381" font-family="Helvetica,sans-Serif" font-size="10.00">/mocap/io_context.cpp</text>
</a>
</g>
</g>
<!-- Node1&#45;&gt;Node25 -->
<g id="edge24" class="edge">
<title>Node1&#45;&gt;Node25</title>
<path fill="none" stroke="midnightblue" d="M1418.72,-439.14C1430.85,-427.74 1445.42,-414.04 1456.1,-404"/>
<polygon fill="midnightblue" stroke="midnightblue" points="1416.07,-436.83 1411.18,-446.23 1420.86,-441.93 1416.07,-436.83"/>
</g>
<!-- Node3 -->
<g id="node3" class="node">
<title>Node3</title>
<g id="a_node3"><a xlink:href="udp__driver_8hpp.html" target="_top" xlink:title="Class for udp driver.">
<polygon fill="white" stroke="black" points="1180,-290.5 1180,-331.5 1314,-331.5 1314,-290.5 1180,-290.5"/>
<text text-anchor="start" x="1188" y="-319.5" font-family="Helvetica,sans-Serif" font-size="10.00">ACSL&#45;flightstack/include</text>
<text text-anchor="start" x="1188" y="-308.5" font-family="Helvetica,sans-Serif" font-size="10.00">/flightstack/mocap/udp</text>
<text text-anchor="middle" x="1247" y="-297.5" font-family="Helvetica,sans-Serif" font-size="10.00">_driver.hpp</text>
</a>
</g>
</g>
<!-- Node2&#45;&gt;Node3 -->
<g id="edge2" class="edge">
<title>Node2&#45;&gt;Node3</title>
<path fill="none" stroke="midnightblue" d="M1295.56,-361.2C1285.9,-351.42 1275.16,-340.54 1266.25,-331.51"/>
<polygon fill="midnightblue" stroke="midnightblue" points="1293.17,-363.77 1302.69,-368.43 1298.15,-358.85 1293.17,-363.77"/>
</g>
<!-- Node24 -->
<g id="node24" class="node">
<title>Node24</title>
<g id="a_node24"><a xlink:href="udp__socket_8cpp.html" target="_top" xlink:title="Class for UDP socket creation using IoContext.">
<polygon fill="white" stroke="black" points="1332.5,-296 1332.5,-326 1463.5,-326 1463.5,-296 1332.5,-296"/>
<text text-anchor="start" x="1340.5" y="-314" font-family="Helvetica,sans-Serif" font-size="10.00">ACSL&#45;flightstack/src</text>
<text text-anchor="middle" x="1398" y="-303" font-family="Helvetica,sans-Serif" font-size="10.00">/mocap/udp_socket.cpp</text>
</a>
</g>
</g>
<!-- Node2&#45;&gt;Node24 -->
<g id="edge23" class="edge">
<title>Node2&#45;&gt;Node24</title>
<path fill="none" stroke="midnightblue" d="M1348.68,-361.32C1360.49,-349.51 1373.92,-336.08 1383.77,-326.23"/>
<polygon fill="midnightblue" stroke="midnightblue" points="1346.17,-358.88 1341.57,-368.43 1351.12,-363.83 1346.17,-358.88"/>
</g>
<!-- Node4 -->
<g id="node4" class="node">
<title>Node4</title>
<g id="a_node4"><a xlink:href="mocap_8hpp.html" target="_top" xlink:title="Node definition for UDP socket as a lifecyle node Writes messages to pixhawk mocap_odometry topic for...">
<polygon fill="white" stroke="black" points="1083,-223.5 1083,-253.5 1247,-253.5 1247,-223.5 1083,-223.5"/>
<text text-anchor="start" x="1091" y="-241.5" font-family="Helvetica,sans-Serif" font-size="10.00">ACSL&#45;flightstack/include</text>
<text text-anchor="middle" x="1165" y="-230.5" font-family="Helvetica,sans-Serif" font-size="10.00">/flightstack/mocap/mocap.hpp</text>
</a>
</g>
</g>
<!-- Node3&#45;&gt;Node4 -->
<g id="edge3" class="edge">
<title>Node3&#45;&gt;Node4</title>
<path fill="none" stroke="midnightblue" d="M1216.24,-283.55C1204.44,-273.41 1191.44,-262.23 1181.48,-253.67"/>
<polygon fill="midnightblue" stroke="midnightblue" points="1214.29,-286.5 1224.16,-290.36 1218.86,-281.19 1214.29,-286.5"/>
</g>
<!-- Node23 -->
<g id="node23" class="node">
<title>Node23</title>
<g id="a_node23"><a xlink:href="udp__driver_8cpp.html" target="_top" xlink:title="Class for UDP driver.">
<polygon fill="white" stroke="black" points="1265.5,-223.5 1265.5,-253.5 1392.5,-253.5 1392.5,-223.5 1265.5,-223.5"/>
<text text-anchor="start" x="1273.5" y="-241.5" font-family="Helvetica,sans-Serif" font-size="10.00">ACSL&#45;flightstack/src</text>
<text text-anchor="middle" x="1329" y="-230.5" font-family="Helvetica,sans-Serif" font-size="10.00">/mocap/udp_driver.cpp</text>
</a>
</g>
</g>
<!-- Node3&#45;&gt;Node23 -->
<g id="edge22" class="edge">
<title>Node3&#45;&gt;Node23</title>
<path fill="none" stroke="midnightblue" d="M1277.76,-283.55C1289.56,-273.41 1302.56,-262.23 1312.52,-253.67"/>
<polygon fill="midnightblue" stroke="midnightblue" points="1275.14,-281.19 1269.84,-290.36 1279.71,-286.5 1275.14,-281.19"/>
</g>
<!-- Node5 -->
<g id="node5" class="node">
<title>Node5</title>
<g id="a_node5"><a xlink:href="multi__threaded__node_8hpp.html" target="_top" xlink:title="Multithreaded ROS2 node that joins together all the flight stack components.">
<polygon fill="white" stroke="black" points="922,-145.5 922,-186.5 1070,-186.5 1070,-145.5 922,-145.5"/>
<text text-anchor="start" x="930" y="-174.5" font-family="Helvetica,sans-Serif" font-size="10.00">ACSL&#45;flightstack/include</text>
<text text-anchor="start" x="930" y="-163.5" font-family="Helvetica,sans-Serif" font-size="10.00">/flightstack/multi_threaded</text>
<text text-anchor="middle" x="996" y="-152.5" font-family="Helvetica,sans-Serif" font-size="10.00">_node.hpp</text>
</a>
</g>
</g>
<!-- Node4&#45;&gt;Node5 -->
<g id="edge4" class="edge">
<title>Node4&#45;&gt;Node5</title>
<path fill="none" stroke="midnightblue" d="M1121.93,-219.53C1097.77,-209.45 1067.6,-196.87 1042.86,-186.55"/>
<polygon fill="midnightblue" stroke="midnightblue" points="1120.63,-222.78 1131.21,-223.4 1123.32,-216.32 1120.63,-222.78"/>
</g>
<!-- Node21 -->
<g id="node21" class="node">
<title>Node21</title>
<g id="a_node21"><a xlink:href="logging__mocap_8cpp.html" target="_top" xlink:title="Logger for the motion capture (MOCAP) system.">
<polygon fill="white" stroke="black" points="1088.5,-151 1088.5,-181 1241.5,-181 1241.5,-151 1088.5,-151"/>
<text text-anchor="start" x="1096.5" y="-169" font-family="Helvetica,sans-Serif" font-size="10.00">ACSL&#45;flightstack/src</text>
<text text-anchor="middle" x="1165" y="-158" font-family="Helvetica,sans-Serif" font-size="10.00">/logging/logging_mocap.cpp</text>
</a>
</g>
</g>
<!-- Node4&#45;&gt;Node21 -->
<g id="edge20" class="edge">
<title>Node4&#45;&gt;Node21</title>
<path fill="none" stroke="midnightblue" d="M1165,-213.23C1165,-202.57 1165,-190.41 1165,-181.25"/>
<polygon fill="midnightblue" stroke="midnightblue" points="1161.5,-213.23 1165,-223.23 1168.5,-213.23 1161.5,-213.23"/>
</g>
<!-- Node22 -->
<g id="node22" class="node">
<title>Node22</title>
<g id="a_node22"><a xlink:href="mocap_8cpp.html" target="_top" xlink:title="Node definition for UDP socket as a lifecycle node. Writes messages to pixhawk mocap_odometry topic f...">
<polygon fill="white" stroke="black" points="1259.5,-151 1259.5,-181 1372.5,-181 1372.5,-151 1259.5,-151"/>
<text text-anchor="start" x="1267.5" y="-169" font-family="Helvetica,sans-Serif" font-size="10.00">ACSL&#45;flightstack/src</text>
<text text-anchor="middle" x="1316" y="-158" font-family="Helvetica,sans-Serif" font-size="10.00">/mocap/mocap.cpp</text>
</a>
</g>
</g>
<!-- Node4&#45;&gt;Node22 -->
<g id="edge21" class="edge">
<title>Node4&#45;&gt;Node22</title>
<path fill="none" stroke="midnightblue" d="M1204.56,-219.03C1229.99,-207.16 1262.52,-191.97 1285.86,-181.07"/>
<polygon fill="midnightblue" stroke="midnightblue" points="1202.77,-216 1195.19,-223.4 1205.74,-222.34 1202.77,-216"/>
</g>
<!-- Node6 -->
<g id="node6" class="node">
<title>Node6</title>
<g id="a_node6"><a xlink:href="main_8hpp.html" target="_top" xlink:title="Main file.">
<polygon fill="white" stroke="black" points="0,-73 0,-103 134,-103 134,-73 0,-73"/>
<text text-anchor="start" x="8" y="-91" font-family="Helvetica,sans-Serif" font-size="10.00">ACSL&#45;flightstack/include</text>
<text text-anchor="middle" x="67" y="-80" font-family="Helvetica,sans-Serif" font-size="10.00">/flightstack/main.hpp</text>
</a>
</g>
</g>
<!-- Node5&#45;&gt;Node6 -->
<g id="edge5" class="edge">
<title>Node5&#45;&gt;Node6</title>
<path fill="none" stroke="midnightblue" d="M911.67,-164.7C758.01,-163 422.61,-153.93 144,-109 134.73,-107.5 124.95,-105.39 115.59,-103.1"/>
<polygon fill="midnightblue" stroke="midnightblue" points="911.93,-168.21 921.97,-164.81 912,-161.21 911.93,-168.21"/>
</g>
<!-- Node8 -->
<g id="node8" class="node">
<title>Node8</title>
<g id="a_node8"><a xlink:href="config_8cpp.html" target="_top" xlink:title="Contains the functions that reads the configuration parameters and assigns it to the members of the C...">
<polygon fill="white" stroke="black" points="152.5,-73 152.5,-103 265.5,-103 265.5,-73 152.5,-73"/>
<text text-anchor="start" x="160.5" y="-91" font-family="Helvetica,sans-Serif" font-size="10.00">ACSL&#45;flightstack/src</text>
<text text-anchor="middle" x="209" y="-80" font-family="Helvetica,sans-Serif" font-size="10.00">/config/config.cpp</text>
</a>
</g>
</g>
<!-- Node5&#45;&gt;Node8 -->
<g id="edge7" class="edge">
<title>Node5&#45;&gt;Node8</title>
<path fill="none" stroke="midnightblue" d="M911.57,-164.35C776.14,-161.98 502.43,-151.77 275,-109 267,-107.5 258.59,-105.38 250.56,-103.08"/>
<polygon fill="midnightblue" stroke="midnightblue" points="911.82,-167.85 921.87,-164.52 911.93,-160.85 911.82,-167.85"/>
</g>
<!-- Node9 -->
<g id="node9" class="node">
<title>Node9</title>
<g id="a_node9"><a xlink:href="control_8cpp.html" target="_top" xlink:title="This file contains the general class containing the common memvers used by most of the control algori...">
<polygon fill="white" stroke="black" points="283.5,-73 283.5,-103 396.5,-103 396.5,-73 283.5,-73"/>
<text text-anchor="start" x="291.5" y="-91" font-family="Helvetica,sans-Serif" font-size="10.00">ACSL&#45;flightstack/src</text>
<text text-anchor="middle" x="340" y="-80" font-family="Helvetica,sans-Serif" font-size="10.00">/control/control.cpp</text>
</a>
</g>
</g>
<!-- Node5&#45;&gt;Node9 -->
<g id="edge8" class="edge">
<title>Node5&#45;&gt;Node9</title>
<path fill="none" stroke="midnightblue" d="M911.57,-162.28C796.36,-157.36 583.86,-144.02 406,-109 398.13,-107.45 389.86,-105.34 381.93,-103.07"/>
<polygon fill="midnightblue" stroke="midnightblue" points="911.6,-165.78 921.73,-162.7 911.89,-158.79 911.6,-165.78"/>
</g>
<!-- Node10 -->
<g id="node10" class="node">
<title>Node10</title>
<g id="a_node10"><a xlink:href="control__callback_8cpp.html" target="_top" xlink:title="Callback that is executed at a fixed specified rate defined by the &quot;timer_controller_&quot;.">
<polygon fill="white" stroke="black" points="415,-73 415,-103 571,-103 571,-73 415,-73"/>
<text text-anchor="start" x="423" y="-91" font-family="Helvetica,sans-Serif" font-size="10.00">ACSL&#45;flightstack/src</text>
<text text-anchor="middle" x="493" y="-80" font-family="Helvetica,sans-Serif" font-size="10.00">/control/control_callback.cpp</text>
</a>
</g>
</g>
<!-- Node5&#45;&gt;Node10 -->
<g id="edge9" class="edge">
<title>Node5&#45;&gt;Node10</title>
<path fill="none" stroke="midnightblue" d="M911.62,-155.95C827.33,-146.37 694.2,-129.77 580,-109 570.55,-107.28 560.57,-105.22 550.88,-103.09"/>
<polygon fill="midnightblue" stroke="midnightblue" points="911.33,-159.44 921.66,-157.09 912.11,-152.48 911.33,-159.44"/>
</g>
<!-- Node11 -->
<g id="node11" class="node">
<title>Node11</title>
<g id="a_node11"><a xlink:href="logging__mrac_8cpp.html" target="_top" xlink:title="Logger for the MRAC controller.">
<polygon fill="white" stroke="black" points="589,-67.5 589,-108.5 709,-108.5 709,-67.5 589,-67.5"/>
<text text-anchor="start" x="597" y="-96.5" font-family="Helvetica,sans-Serif" font-size="10.00">ACSL&#45;flightstack/src</text>
<text text-anchor="start" x="597" y="-85.5" font-family="Helvetica,sans-Serif" font-size="10.00">/control/mrac/logging</text>
<text text-anchor="middle" x="649" y="-74.5" font-family="Helvetica,sans-Serif" font-size="10.00">_mrac.cpp</text>
</a>
</g>
</g>
<!-- Node5&#45;&gt;Node11 -->
<g id="edge10" class="edge">
<title>Node5&#45;&gt;Node11</title>
<path fill="none" stroke="midnightblue" d="M911.81,-149.77C856.71,-139.36 783.29,-124.66 719,-109 715.81,-108.22 712.54,-107.4 709.25,-106.54"/>
<polygon fill="midnightblue" stroke="midnightblue" points="911.4,-153.25 921.87,-151.66 912.69,-146.37 911.4,-153.25"/>
</g>
<!-- Node12 -->
<g id="node12" class="node">
<title>Node12</title>
<g id="a_node12"><a xlink:href="mrac_8cpp.html" target="_top" xlink:title="Implementation of the MRAC controller.">
<polygon fill="white" stroke="black" points="727.5,-73 727.5,-103 856.5,-103 856.5,-73 727.5,-73"/>
<text text-anchor="start" x="735.5" y="-91" font-family="Helvetica,sans-Serif" font-size="10.00">ACSL&#45;flightstack/src</text>
<text text-anchor="middle" x="792" y="-80" font-family="Helvetica,sans-Serif" font-size="10.00">/control/mrac/mrac.cpp</text>
</a>
</g>
</g>
<!-- Node5&#45;&gt;Node12 -->
<g id="edge11" class="edge">
<title>Node5&#45;&gt;Node12</title>
<path fill="none" stroke="midnightblue" d="M934.09,-141.93C900.11,-129.28 859.08,-113.99 829.86,-103.11"/>
<polygon fill="midnightblue" stroke="midnightblue" points="932.87,-145.22 943.46,-145.43 935.32,-138.66 932.87,-145.22"/>
</g>
<!-- Node13 -->
<g id="node13" class="node">
<title>Node13</title>
<g id="a_node13"><a xlink:href="logging__pid_8cpp.html" target="_top" xlink:title="Logger for the PID controller.">
<polygon fill="white" stroke="black" points="874.5,-67.5 874.5,-108.5 987.5,-108.5 987.5,-67.5 874.5,-67.5"/>
<text text-anchor="start" x="882.5" y="-96.5" font-family="Helvetica,sans-Serif" font-size="10.00">ACSL&#45;flightstack/src</text>
<text text-anchor="start" x="882.5" y="-85.5" font-family="Helvetica,sans-Serif" font-size="10.00">/control/pid/logging</text>
<text text-anchor="middle" x="931" y="-74.5" font-family="Helvetica,sans-Serif" font-size="10.00">_pid.cpp</text>
</a>
</g>
</g>
<!-- Node5&#45;&gt;Node13 -->
<g id="edge12" class="edge">
<title>Node5&#45;&gt;Node13</title>
<path fill="none" stroke="midnightblue" d="M972.59,-137.63C964.35,-127.99 955.26,-117.36 947.68,-108.51"/>
<polygon fill="midnightblue" stroke="midnightblue" points="970.1,-140.1 979.26,-145.43 975.42,-135.55 970.1,-140.1"/>
</g>
<!-- Node14 -->
<g id="node14" class="node">
<title>Node14</title>
<g id="a_node14"><a xlink:href="pid_8cpp.html" target="_top" xlink:title="Immplementation of the PID controller.">
<polygon fill="white" stroke="black" points="1005.5,-73 1005.5,-103 1118.5,-103 1118.5,-73 1005.5,-73"/>
<text text-anchor="start" x="1013.5" y="-91" font-family="Helvetica,sans-Serif" font-size="10.00">ACSL&#45;flightstack/src</text>
<text text-anchor="middle" x="1062" y="-80" font-family="Helvetica,sans-Serif" font-size="10.00">/control/pid/pid.cpp</text>
</a>
</g>
</g>
<!-- Node5&#45;&gt;Node14 -->
<g id="edge13" class="edge">
<title>Node5&#45;&gt;Node14</title>
<path fill="none" stroke="midnightblue" d="M1019.75,-137.65C1029.87,-126 1041.25,-112.9 1049.65,-103.23"/>
<polygon fill="midnightblue" stroke="midnightblue" points="1016.91,-135.58 1013,-145.43 1022.2,-140.17 1016.91,-135.58"/>
</g>
<!-- Node15 -->
<g id="node15" class="node">
<title>Node15</title>
<g id="a_node15"><a xlink:href="multi__threaded__node_8cpp.html" target="_top" xlink:title="Multithreaded ROS2 ndoe that joins together all the flight stakc components.">
<polygon fill="white" stroke="black" points="1136.5,-73 1136.5,-103 1279.5,-103 1279.5,-73 1136.5,-73"/>
<text text-anchor="start" x="1144.5" y="-91" font-family="Helvetica,sans-Serif" font-size="10.00">ACSL&#45;flightstack/src</text>
<text text-anchor="middle" x="1208" y="-80" font-family="Helvetica,sans-Serif" font-size="10.00">/multi_threaded_node.cpp</text>
</a>
</g>
</g>
<!-- Node5&#45;&gt;Node15 -->
<g id="edge14" class="edge">
<title>Node5&#45;&gt;Node15</title>
<path fill="none" stroke="midnightblue" d="M1060.34,-141.93C1095.65,-129.28 1138.29,-113.99 1168.65,-103.11"/>
<polygon fill="midnightblue" stroke="midnightblue" points="1058.83,-138.76 1050.6,-145.43 1061.19,-145.35 1058.83,-138.76"/>
</g>
<!-- Node16 -->
<g id="node16" class="node">
<title>Node16</title>
<g id="a_node16"><a xlink:href="pixhawk__actuator__motors_8cpp.html" target="_top" xlink:title="Callback that is executed at a fixed specified rate defined by the &quot;timer_controller_&quot;.">
<polygon fill="white" stroke="black" points="1298,-67.5 1298,-108.5 1452,-108.5 1452,-67.5 1298,-67.5"/>
<text text-anchor="start" x="1306" y="-96.5" font-family="Helvetica,sans-Serif" font-size="10.00">ACSL&#45;flightstack/src</text>
<text text-anchor="start" x="1306" y="-85.5" font-family="Helvetica,sans-Serif" font-size="10.00">/pixhawk_interface/pixhawk</text>
<text text-anchor="middle" x="1375" y="-74.5" font-family="Helvetica,sans-Serif" font-size="10.00">_actuator_motors.cpp</text>
</a>
</g>
</g>
<!-- Node5&#45;&gt;Node16 -->
<g id="edge15" class="edge">
<title>Node5&#45;&gt;Node16</title>
<path fill="none" stroke="midnightblue" d="M1079.7,-145.06C1079.8,-145.04 1079.9,-145.02 1080,-145 1172.34,-126.07 1196.61,-127.68 1289,-109 1291.85,-108.42 1294.76,-107.82 1297.69,-107.2"/>
<polygon fill="midnightblue" stroke="midnightblue" points="1079.21,-141.59 1070.15,-147.08 1080.65,-148.44 1079.21,-141.59"/>
</g>
<!-- Node17 -->
<g id="node17" class="node">
<title>Node17</title>
<g id="a_node17"><a xlink:href="pixhawk__vehicle__odometry_8cpp.html" target="_top" xlink:title="Callback that is executed everytime a VehicleOdometry message is made available by Pixhawk.">
<polygon fill="white" stroke="black" points="1470,-67.5 1470,-108.5 1624,-108.5 1624,-67.5 1470,-67.5"/>
<text text-anchor="start" x="1478" y="-96.5" font-family="Helvetica,sans-Serif" font-size="10.00">ACSL&#45;flightstack/src</text>
<text text-anchor="start" x="1478" y="-85.5" font-family="Helvetica,sans-Serif" font-size="10.00">/pixhawk_interface/pixhawk</text>
<text text-anchor="middle" x="1547" y="-74.5" font-family="Helvetica,sans-Serif" font-size="10.00">_vehicle_odometry.cpp</text>
</a>
</g>
</g>
<!-- Node5&#45;&gt;Node17 -->
<g id="edge16" class="edge">
<title>Node5&#45;&gt;Node17</title>
<path fill="none" stroke="midnightblue" d="M1079.69,-145.05C1079.8,-145.03 1079.9,-145.02 1080,-145 1247.81,-117.23 1293.12,-136.33 1461,-109 1463.87,-108.53 1466.8,-108.02 1469.74,-107.48"/>
<polygon fill="midnightblue" stroke="midnightblue" points="1079.32,-141.56 1070.09,-146.77 1080.55,-148.45 1079.32,-141.56"/>
</g>
<!-- Node18 -->
<g id="node18" class="node">
<title>Node18</title>
<g id="a_node18"><a xlink:href="vehicle__state_8cpp.html" target="_top" xlink:title="Class storing the state of the vehicle coming from the flight controller (Pixhawk)">
<polygon fill="white" stroke="black" points="1642,-67.5 1642,-108.5 1790,-108.5 1790,-67.5 1642,-67.5"/>
<text text-anchor="start" x="1650" y="-96.5" font-family="Helvetica,sans-Serif" font-size="10.00">ACSL&#45;flightstack/src</text>
<text text-anchor="start" x="1650" y="-85.5" font-family="Helvetica,sans-Serif" font-size="10.00">/pixhawk_interface/vehicle</text>
<text text-anchor="middle" x="1716" y="-74.5" font-family="Helvetica,sans-Serif" font-size="10.00">_state.cpp</text>
</a>
</g>
</g>
<!-- Node5&#45;&gt;Node18 -->
<g id="edge17" class="edge">
<title>Node5&#45;&gt;Node18</title>
<path fill="none" stroke="midnightblue" d="M1079.69,-145.05C1079.8,-145.03 1079.9,-145.02 1080,-145 1323.56,-108.35 1389.49,-145.98 1633,-109 1635.93,-108.55 1638.91,-108.06 1641.91,-107.52"/>
<polygon fill="midnightblue" stroke="midnightblue" points="1079.36,-141.55 1070.07,-146.65 1080.51,-148.46 1079.36,-141.55"/>
</g>
<!-- Node19 -->
<g id="node19" class="node">
<title>Node19</title>
<g id="a_node19"><a xlink:href="piecewise__polynomial__trajectory_8cpp.html" target="_top" xlink:title="Piecewise polynomial minimu&#45;jerk trajectory computed offline through a MATLAB script.">
<polygon fill="white" stroke="black" points="1808,-67.5 1808,-108.5 2008,-108.5 2008,-67.5 1808,-67.5"/>
<text text-anchor="start" x="1816" y="-96.5" font-family="Helvetica,sans-Serif" font-size="10.00">ACSL&#45;flightstack/src</text>
<text text-anchor="start" x="1816" y="-85.5" font-family="Helvetica,sans-Serif" font-size="10.00">/user_defined_trajectory</text>
<text text-anchor="middle" x="1908" y="-74.5" font-family="Helvetica,sans-Serif" font-size="10.00">/piecewise_polynomial_trajectory.cpp</text>
</a>
</g>
</g>
<!-- Node5&#45;&gt;Node19 -->
<g id="edge18" class="edge">
<title>Node5&#45;&gt;Node19</title>
<path fill="none" stroke="midnightblue" d="M1079.69,-145.04C1079.8,-145.03 1079.9,-145.01 1080,-145 1396.74,-99.76 1481.19,-145.95 1799,-109 1801.96,-108.66 1804.97,-108.28 1807.99,-107.88"/>
<polygon fill="midnightblue" stroke="midnightblue" points="1079.38,-141.55 1070.06,-146.59 1080.49,-148.46 1079.38,-141.55"/>
</g>
<!-- Node20 -->
<g id="node20" class="node">
<title>Node20</title>
<g id="a_node20"><a xlink:href="user__defined__trajectory_8cpp.html" target="_top" xlink:title="Class that contains the common members that each type of user&#45;defined trajectory class will inherit.">
<polygon fill="white" stroke="black" points="2026.5,-67.5 2026.5,-108.5 2179.5,-108.5 2179.5,-67.5 2026.5,-67.5"/>
<text text-anchor="start" x="2034.5" y="-96.5" font-family="Helvetica,sans-Serif" font-size="10.00">ACSL&#45;flightstack/src</text>
<text text-anchor="start" x="2034.5" y="-85.5" font-family="Helvetica,sans-Serif" font-size="10.00">/user_defined_trajectory</text>
<text text-anchor="middle" x="2103" y="-74.5" font-family="Helvetica,sans-Serif" font-size="10.00">/user_defined_trajectory.cpp</text>
</a>
</g>
</g>
<!-- Node5&#45;&gt;Node20 -->
<g id="edge19" class="edge">
<title>Node5&#45;&gt;Node20</title>
<path fill="none" stroke="midnightblue" d="M1079.69,-145.04C1079.8,-145.03 1079.9,-145.01 1080,-145 1492.9,-88.47 1603.95,-164.45 2017,-109 2020.04,-108.59 2023.13,-108.13 2026.24,-107.61"/>
<polygon fill="midnightblue" stroke="midnightblue" points="1079.4,-141.55 1070.06,-146.54 1080.47,-148.46 1079.4,-141.55"/>
</g>
<!-- Node7 -->
<g id="node7" class="node">
<title>Node7</title>
<g id="a_node7"><a xlink:href="main_8cpp.html" target="_top" xlink:title="FlightStack (Multirotor) main.cpp file.">
<polygon fill="white" stroke="black" points="10.5,-0.5 10.5,-30.5 123.5,-30.5 123.5,-0.5 10.5,-0.5"/>
<text text-anchor="start" x="18.5" y="-18.5" font-family="Helvetica,sans-Serif" font-size="10.00">ACSL&#45;flightstack/src</text>
<text text-anchor="middle" x="67" y="-7.5" font-family="Helvetica,sans-Serif" font-size="10.00">/main.cpp</text>
</a>
</g>
</g>
<!-- Node6&#45;&gt;Node7 -->
<g id="edge6" class="edge">
<title>Node6&#45;&gt;Node7</title>
<path fill="none" stroke="midnightblue" d="M67,-62.73C67,-52.07 67,-39.91 67,-30.75"/>
<polygon fill="midnightblue" stroke="midnightblue" points="63.5,-62.73 67,-72.73 70.5,-62.73 63.5,-62.73"/>
</g>
</g>
</svg>
