<?xml version="1.0" encoding="UTF-8" standalone="no"?>
<!DOCTYPE svg PUBLIC "-//W3C//DTD SVG 1.1//EN"
 "http://www.w3.org/Graphics/SVG/1.1/DTD/svg11.dtd">
<!-- Generated by graphviz version 2.43.0 (0)
 -->
<!-- Title: /mnt/c/Users/siddh/OneDrive/Desktop/ACSL&#45;flightstack/src/utils/json_parser.cpp Pages: 1 -->
<svg width="349pt" height="173pt"
 viewBox="0.00 0.00 349.00 173.00" xmlns="http://www.w3.org/2000/svg" xmlns:xlink="http://www.w3.org/1999/xlink">
<g id="graph0" class="graph" transform="scale(1 1) rotate(0) translate(4 169)">
<title>/mnt/c/Users/siddh/OneDrive/Desktop/ACSL&#45;flightstack/src/utils/json_parser.cpp</title>
<polygon fill="white" stroke="transparent" points="-4,4 -4,-169 345,-169 345,4 -4,4"/>
<!-- Node1 -->
<g id="node1" class="node">
<title>Node1</title>
<g id="a_node1"><a xlink:title="Utility functions to parse JSON files.">
<polygon fill="#bfbfbf" stroke="black" points="44,-112.5 44,-164.5 181,-164.5 181,-112.5 44,-112.5"/>
<text text-anchor="start" x="52" y="-152.5" font-family="Helvetica,sans-Serif" font-size="10.00">/mnt/c/Users/siddh</text>
<text text-anchor="start" x="52" y="-141.5" font-family="Helvetica,sans-Serif" font-size="10.00">/OneDrive/Desktop/ACSL</text>
<text text-anchor="start" x="52" y="-130.5" font-family="Helvetica,sans-Serif" font-size="10.00">&#45;flightstack/src/utils</text>
<text text-anchor="middle" x="112.5" y="-119.5" font-family="Helvetica,sans-Serif" font-size="10.00">/json_parser.cpp</text>
</a>
</g>
</g>
<!-- Node2 -->
<g id="node2" class="node">
<title>Node2</title>
<g id="a_node2"><a xlink:title=" ">
<polygon fill="white" stroke="#bfbfbf" points="0,-0.5 0,-19.5 55,-19.5 55,-0.5 0,-0.5"/>
<text text-anchor="middle" x="27.5" y="-7.5" font-family="Helvetica,sans-Serif" font-size="10.00">fstream</text>
</a>
</g>
</g>
<!-- Node1&#45;&gt;Node2 -->
<g id="edge1" class="edge">
<title>Node1&#45;&gt;Node2</title>
<path fill="none" stroke="midnightblue" d="M95.5,-112.2C78.71,-87.21 53.48,-49.66 38.94,-28.02"/>
<polygon fill="midnightblue" stroke="midnightblue" points="41.73,-25.9 33.24,-19.55 35.92,-29.8 41.73,-25.9"/>
</g>
<!-- Node3 -->
<g id="node3" class="node">
<title>Node3</title>
<g id="a_node3"><a xlink:title=" ">
<polygon fill="white" stroke="#bfbfbf" points="73.5,-0.5 73.5,-19.5 183.5,-19.5 183.5,-0.5 73.5,-0.5"/>
<text text-anchor="middle" x="128.5" y="-7.5" font-family="Helvetica,sans-Serif" font-size="10.00">nlohmann/json.hpp</text>
</a>
</g>
</g>
<!-- Node1&#45;&gt;Node3 -->
<g id="edge2" class="edge">
<title>Node1&#45;&gt;Node3</title>
<path fill="none" stroke="midnightblue" d="M115.7,-112.2C118.79,-87.77 123.4,-51.34 126.16,-29.5"/>
<polygon fill="midnightblue" stroke="midnightblue" points="129.64,-29.91 127.42,-19.55 122.69,-29.03 129.64,-29.91"/>
</g>
<!-- Node4 -->
<g id="node4" class="node">
<title>Node4</title>
<g id="a_node4"><a xlink:href="json__parser_8hpp.html" target="_top" xlink:title="Utility functions to parse JSON files.">
<polygon fill="white" stroke="black" points="141,-56.5 141,-75.5 234,-75.5 234,-56.5 141,-56.5"/>
<text text-anchor="middle" x="187.5" y="-63.5" font-family="Helvetica,sans-Serif" font-size="10.00">json_parser.hpp</text>
</a>
</g>
</g>
<!-- Node1&#45;&gt;Node4 -->
<g id="edge3" class="edge">
<title>Node1&#45;&gt;Node4</title>
<path fill="none" stroke="midnightblue" d="M139.15,-112.45C149.7,-102.53 161.51,-91.43 170.81,-82.69"/>
<polygon fill="midnightblue" stroke="midnightblue" points="173.36,-85.09 178.25,-75.7 168.57,-79.99 173.36,-85.09"/>
</g>
<!-- Node4&#45;&gt;Node2 -->
<g id="edge5" class="edge">
<title>Node4&#45;&gt;Node2</title>
<path fill="none" stroke="midnightblue" d="M162.15,-56.44C135.23,-47.36 92.5,-32.94 62.41,-22.78"/>
<polygon fill="midnightblue" stroke="midnightblue" points="63.33,-19.4 52.73,-19.52 61.09,-26.03 63.33,-19.4"/>
</g>
<!-- Node4&#45;&gt;Node3 -->
<g id="edge6" class="edge">
<title>Node4&#45;&gt;Node3</title>
<path fill="none" stroke="midnightblue" d="M178.02,-56.32C169.3,-48.34 156.16,-36.31 145.6,-26.65"/>
<polygon fill="midnightblue" stroke="midnightblue" points="147.89,-24 138.15,-19.83 143.17,-29.17 147.89,-24"/>
</g>
<!-- Node5 -->
<g id="node5" class="node">
<title>Node5</title>
<g id="a_node5"><a xlink:title=" ">
<polygon fill="white" stroke="#bfbfbf" points="201.5,-0.5 201.5,-19.5 245.5,-19.5 245.5,-0.5 201.5,-0.5"/>
<text text-anchor="middle" x="223.5" y="-7.5" font-family="Helvetica,sans-Serif" font-size="10.00">string</text>
</a>
</g>
</g>
<!-- Node4&#45;&gt;Node5 -->
<g id="edge4" class="edge">
<title>Node4&#45;&gt;Node5</title>
<path fill="none" stroke="midnightblue" d="M193.44,-56.08C198.48,-48.53 205.84,-37.49 212.01,-28.23"/>
<polygon fill="midnightblue" stroke="midnightblue" points="215.03,-30.01 217.67,-19.75 209.21,-26.13 215.03,-30.01"/>
</g>
<!-- Node6 -->
<g id="node6" class="node">
<title>Node6</title>
<g id="a_node6"><a xlink:title=" ">
<polygon fill="white" stroke="#bfbfbf" points="264,-0.5 264,-19.5 341,-19.5 341,-0.5 264,-0.5"/>
<text text-anchor="middle" x="302.5" y="-7.5" font-family="Helvetica,sans-Serif" font-size="10.00">Eigen/Dense</text>
</a>
</g>
</g>
<!-- Node4&#45;&gt;Node6 -->
<g id="edge7" class="edge">
<title>Node4&#45;&gt;Node6</title>
<path fill="none" stroke="midnightblue" d="M205.72,-56.44C224.4,-47.68 253.66,-33.94 275.12,-23.86"/>
<polygon fill="midnightblue" stroke="midnightblue" points="276.8,-26.93 284.36,-19.52 273.82,-20.6 276.8,-26.93"/>
</g>
</g>
</svg>
