<?xml version="1.0" encoding="UTF-8" standalone="no"?>
<!DOCTYPE svg PUBLIC "-//W3C//DTD SVG 1.1//EN"
 "http://www.w3.org/Graphics/SVG/1.1/DTD/svg11.dtd">
<!-- Generated by graphviz version 2.43.0 (0)
 -->
<!-- Title: /mnt/c/Users/siddh/OneDrive/Desktop/ACSL&#45;flightstack/include/flightstack/utils/json_parser.hpp Pages: 1 -->
<svg width="2262pt" height="328pt"
 viewBox="0.00 0.00 2262.00 328.00" xmlns="http://www.w3.org/2000/svg" xmlns:xlink="http://www.w3.org/1999/xlink">
<g id="graph0" class="graph" transform="scale(1 1) rotate(0) translate(4 324)">
<title>/mnt/c/Users/siddh/OneDrive/Desktop/ACSL&#45;flightstack/include/flightstack/utils/json_parser.hpp</title>
<polygon fill="white" stroke="transparent" points="-4,4 -4,-324 2258,-324 2258,4 -4,4"/>
<!-- Node1 -->
<g id="node1" class="node">
<title>Node1</title>
<g id="a_node1"><a xlink:title="Utility functions to parse JSON files.">
<polygon fill="#bfbfbf" stroke="black" points="1076.5,-267.5 1076.5,-319.5 1240.5,-319.5 1240.5,-267.5 1076.5,-267.5"/>
<text text-anchor="start" x="1084.5" y="-307.5" font-family="Helvetica,sans-Serif" font-size="10.00">/mnt/c/Users/siddh</text>
<text text-anchor="start" x="1084.5" y="-296.5" font-family="Helvetica,sans-Serif" font-size="10.00">/OneDrive/Desktop/ACSL</text>
<text text-anchor="start" x="1084.5" y="-285.5" font-family="Helvetica,sans-Serif" font-size="10.00">&#45;flightstack/include/flightstack</text>
<text text-anchor="middle" x="1158.5" y="-274.5" font-family="Helvetica,sans-Serif" font-size="10.00">/utils/json_parser.hpp</text>
</a>
</g>
</g>
<!-- Node2 -->
<g id="node2" class="node">
<title>Node2</title>
<g id="a_node2"><a xlink:href="multi__threaded__node_8hpp.html" target="_top" xlink:title="Multithreaded ROS2 node that joins together all the flight stack components.">
<polygon fill="white" stroke="black" points="1021.5,-178.5 1021.5,-230.5 1185.5,-230.5 1185.5,-178.5 1021.5,-178.5"/>
<text text-anchor="start" x="1029.5" y="-218.5" font-family="Helvetica,sans-Serif" font-size="10.00">/mnt/c/Users/siddh</text>
<text text-anchor="start" x="1029.5" y="-207.5" font-family="Helvetica,sans-Serif" font-size="10.00">/OneDrive/Desktop/ACSL</text>
<text text-anchor="start" x="1029.5" y="-196.5" font-family="Helvetica,sans-Serif" font-size="10.00">&#45;flightstack/include/flightstack</text>
<text text-anchor="middle" x="1103.5" y="-185.5" font-family="Helvetica,sans-Serif" font-size="10.00">/multi_threaded_node.hpp</text>
</a>
</g>
</g>
<!-- Node1&#45;&gt;Node2 -->
<g id="edge1" class="edge">
<title>Node1&#45;&gt;Node2</title>
<path fill="none" stroke="midnightblue" d="M1137.09,-258.64C1131.19,-249.31 1124.9,-239.35 1119.37,-230.61"/>
<polygon fill="midnightblue" stroke="midnightblue" points="1134.29,-260.75 1142.59,-267.34 1140.21,-257.01 1134.29,-260.75"/>
</g>
<!-- Node9 -->
<g id="node9" class="node">
<title>Node9</title>
<g id="a_node9"><a xlink:href="mrac_8cpp.html" target="_top" xlink:title="Implementation of the MRAC controller.">
<polygon fill="white" stroke="black" points="0,-84 0,-136 137,-136 137,-84 0,-84"/>
<text text-anchor="start" x="8" y="-124" font-family="Helvetica,sans-Serif" font-size="10.00">/mnt/c/Users/siddh</text>
<text text-anchor="start" x="8" y="-113" font-family="Helvetica,sans-Serif" font-size="10.00">/OneDrive/Desktop/ACSL</text>
<text text-anchor="start" x="8" y="-102" font-family="Helvetica,sans-Serif" font-size="10.00">&#45;flightstack/src/control</text>
<text text-anchor="middle" x="68.5" y="-91" font-family="Helvetica,sans-Serif" font-size="10.00">/mrac/mrac.cpp</text>
</a>
</g>
</g>
<!-- Node1&#45;&gt;Node9 -->
<g id="edge17" class="edge">
<title>Node1&#45;&gt;Node9</title>
<path fill="none" stroke="midnightblue" d="M1065.98,-285.92C886.19,-271.56 478.17,-231.29 146.5,-142 140.31,-140.33 133.94,-138.32 127.64,-136.14"/>
<polygon fill="midnightblue" stroke="midnightblue" points="1065.95,-289.42 1076.19,-286.72 1066.5,-282.45 1065.95,-289.42"/>
</g>
<!-- Node11 -->
<g id="node11" class="node">
<title>Node11</title>
<g id="a_node11"><a xlink:href="pid_8cpp.html" target="_top" xlink:title="Immplementation of the PID controller.">
<polygon fill="white" stroke="black" points="2117,-84 2117,-136 2254,-136 2254,-84 2117,-84"/>
<text text-anchor="start" x="2125" y="-124" font-family="Helvetica,sans-Serif" font-size="10.00">/mnt/c/Users/siddh</text>
<text text-anchor="start" x="2125" y="-113" font-family="Helvetica,sans-Serif" font-size="10.00">/OneDrive/Desktop/ACSL</text>
<text text-anchor="start" x="2125" y="-102" font-family="Helvetica,sans-Serif" font-size="10.00">&#45;flightstack/src/control</text>
<text text-anchor="middle" x="2185.5" y="-91" font-family="Helvetica,sans-Serif" font-size="10.00">/pid/pid.cpp</text>
</a>
</g>
</g>
<!-- Node1&#45;&gt;Node11 -->
<g id="edge18" class="edge">
<title>Node1&#45;&gt;Node11</title>
<path fill="none" stroke="midnightblue" d="M1178.43,-258.77C1197.7,-226.72 1225.19,-182.72 1233.5,-178 1318.13,-129.99 2013.37,-162.47 2108.5,-142 2115.4,-140.51 2122.48,-138.46 2129.42,-136.11"/>
<polygon fill="midnightblue" stroke="midnightblue" points="1175.36,-257.08 1173.23,-267.46 1181.37,-260.67 1175.36,-257.08"/>
</g>
<!-- Node18 -->
<g id="node18" class="node">
<title>Node18</title>
<g id="a_node18"><a xlink:href="json__parser_8cpp.html" target="_top" xlink:title="Utility functions to parse JSON files.">
<polygon fill="white" stroke="black" points="1242,-178.5 1242,-230.5 1379,-230.5 1379,-178.5 1242,-178.5"/>
<text text-anchor="start" x="1250" y="-218.5" font-family="Helvetica,sans-Serif" font-size="10.00">/mnt/c/Users/siddh</text>
<text text-anchor="start" x="1250" y="-207.5" font-family="Helvetica,sans-Serif" font-size="10.00">/OneDrive/Desktop/ACSL</text>
<text text-anchor="start" x="1250" y="-196.5" font-family="Helvetica,sans-Serif" font-size="10.00">&#45;flightstack/src/utils</text>
<text text-anchor="middle" x="1310.5" y="-185.5" font-family="Helvetica,sans-Serif" font-size="10.00">/json_parser.cpp</text>
</a>
</g>
</g>
<!-- Node1&#45;&gt;Node18 -->
<g id="edge19" class="edge">
<title>Node1&#45;&gt;Node18</title>
<path fill="none" stroke="midnightblue" d="M1211.17,-262.35C1229.27,-252 1249.31,-240.52 1266.63,-230.61"/>
<polygon fill="midnightblue" stroke="midnightblue" points="1209.4,-259.33 1202.46,-267.34 1212.88,-265.41 1209.4,-259.33"/>
</g>
<!-- Node3 -->
<g id="node3" class="node">
<title>Node3</title>
<g id="a_node3"><a xlink:href="main_8hpp.html" target="_top" xlink:title="Main file.">
<polygon fill="white" stroke="black" points="155.5,-84 155.5,-136 319.5,-136 319.5,-84 155.5,-84"/>
<text text-anchor="start" x="163.5" y="-124" font-family="Helvetica,sans-Serif" font-size="10.00">/mnt/c/Users/siddh</text>
<text text-anchor="start" x="163.5" y="-113" font-family="Helvetica,sans-Serif" font-size="10.00">/OneDrive/Desktop/ACSL</text>
<text text-anchor="start" x="163.5" y="-102" font-family="Helvetica,sans-Serif" font-size="10.00">&#45;flightstack/include/flightstack</text>
<text text-anchor="middle" x="237.5" y="-91" font-family="Helvetica,sans-Serif" font-size="10.00">/main.hpp</text>
</a>
</g>
</g>
<!-- Node2&#45;&gt;Node3 -->
<g id="edge2" class="edge">
<title>Node2&#45;&gt;Node3</title>
<path fill="none" stroke="midnightblue" d="M1011.33,-199.07C835.13,-190.12 456.62,-168.47 328.5,-142 320.82,-140.41 312.89,-138.36 305.06,-136.08"/>
<polygon fill="midnightblue" stroke="midnightblue" points="1011.2,-202.57 1021.36,-199.57 1011.55,-195.57 1011.2,-202.57"/>
</g>
<!-- Node5 -->
<g id="node5" class="node">
<title>Node5</title>
<g id="a_node5"><a xlink:href="config_8cpp.html" target="_top" xlink:title="Contains the functions that reads the configuration parameters and assigns it to the members of the C...">
<polygon fill="white" stroke="black" points="338,-84 338,-136 475,-136 475,-84 338,-84"/>
<text text-anchor="start" x="346" y="-124" font-family="Helvetica,sans-Serif" font-size="10.00">/mnt/c/Users/siddh</text>
<text text-anchor="start" x="346" y="-113" font-family="Helvetica,sans-Serif" font-size="10.00">/OneDrive/Desktop/ACSL</text>
<text text-anchor="start" x="346" y="-102" font-family="Helvetica,sans-Serif" font-size="10.00">&#45;flightstack/src/config</text>
<text text-anchor="middle" x="406.5" y="-91" font-family="Helvetica,sans-Serif" font-size="10.00">/config.cpp</text>
</a>
</g>
</g>
<!-- Node2&#45;&gt;Node5 -->
<g id="edge4" class="edge">
<title>Node2&#45;&gt;Node5</title>
<path fill="none" stroke="midnightblue" d="M1011.18,-202.47C888.83,-199.27 667.03,-187.07 483.5,-142 476.92,-140.38 470.16,-138.32 463.51,-136.02"/>
<polygon fill="midnightblue" stroke="midnightblue" points="1011.18,-205.97 1021.26,-202.72 1011.35,-198.97 1011.18,-205.97"/>
</g>
<!-- Node6 -->
<g id="node6" class="node">
<title>Node6</title>
<g id="a_node6"><a xlink:href="control_8cpp.html" target="_top" xlink:title="This file contains the general class containing the common memvers used by most of the control algori...">
<polygon fill="white" stroke="black" points="493,-84 493,-136 630,-136 630,-84 493,-84"/>
<text text-anchor="start" x="501" y="-124" font-family="Helvetica,sans-Serif" font-size="10.00">/mnt/c/Users/siddh</text>
<text text-anchor="start" x="501" y="-113" font-family="Helvetica,sans-Serif" font-size="10.00">/OneDrive/Desktop/ACSL</text>
<text text-anchor="start" x="501" y="-102" font-family="Helvetica,sans-Serif" font-size="10.00">&#45;flightstack/src/control</text>
<text text-anchor="middle" x="561.5" y="-91" font-family="Helvetica,sans-Serif" font-size="10.00">/control.cpp</text>
</a>
</g>
</g>
<!-- Node2&#45;&gt;Node6 -->
<g id="edge5" class="edge">
<title>Node2&#45;&gt;Node6</title>
<path fill="none" stroke="midnightblue" d="M1011.11,-198.14C916.31,-191.05 765.21,-175.32 638.5,-142 632.23,-140.35 625.78,-138.32 619.42,-136.1"/>
<polygon fill="midnightblue" stroke="midnightblue" points="1011.01,-201.64 1021.24,-198.88 1011.52,-194.66 1011.01,-201.64"/>
</g>
<!-- Node7 -->
<g id="node7" class="node">
<title>Node7</title>
<g id="a_node7"><a xlink:href="control__callback_8cpp.html" target="_top" xlink:title="Callback that is executed at a fixed specified rate defined by the &quot;timer_controller_&quot;.">
<polygon fill="white" stroke="black" points="648,-84 648,-136 785,-136 785,-84 648,-84"/>
<text text-anchor="start" x="656" y="-124" font-family="Helvetica,sans-Serif" font-size="10.00">/mnt/c/Users/siddh</text>
<text text-anchor="start" x="656" y="-113" font-family="Helvetica,sans-Serif" font-size="10.00">/OneDrive/Desktop/ACSL</text>
<text text-anchor="start" x="656" y="-102" font-family="Helvetica,sans-Serif" font-size="10.00">&#45;flightstack/src/control</text>
<text text-anchor="middle" x="716.5" y="-91" font-family="Helvetica,sans-Serif" font-size="10.00">/control_callback.cpp</text>
</a>
</g>
</g>
<!-- Node2&#45;&gt;Node7 -->
<g id="edge6" class="edge">
<title>Node2&#45;&gt;Node7</title>
<path fill="none" stroke="midnightblue" d="M1011.04,-189.81C948.83,-179.47 865.36,-163.39 793.5,-142 787.7,-140.27 781.73,-138.28 775.8,-136.15"/>
<polygon fill="midnightblue" stroke="midnightblue" points="1010.79,-193.31 1021.22,-191.48 1011.92,-186.41 1010.79,-193.31"/>
</g>
<!-- Node8 -->
<g id="node8" class="node">
<title>Node8</title>
<g id="a_node8"><a xlink:href="logging__mrac_8cpp.html" target="_top" xlink:title="Logger for the MRAC controller.">
<polygon fill="white" stroke="black" points="803,-84 803,-136 940,-136 940,-84 803,-84"/>
<text text-anchor="start" x="811" y="-124" font-family="Helvetica,sans-Serif" font-size="10.00">/mnt/c/Users/siddh</text>
<text text-anchor="start" x="811" y="-113" font-family="Helvetica,sans-Serif" font-size="10.00">/OneDrive/Desktop/ACSL</text>
<text text-anchor="start" x="811" y="-102" font-family="Helvetica,sans-Serif" font-size="10.00">&#45;flightstack/src/control</text>
<text text-anchor="middle" x="871.5" y="-91" font-family="Helvetica,sans-Serif" font-size="10.00">/mrac/logging_mrac.cpp</text>
</a>
</g>
</g>
<!-- Node2&#45;&gt;Node8 -->
<g id="edge7" class="edge">
<title>Node2&#45;&gt;Node8</title>
<path fill="none" stroke="midnightblue" d="M1030.73,-174.71C1004.77,-164.42 975.32,-152.72 948.5,-142 943.68,-140.07 938.7,-138.08 933.69,-136.07"/>
<polygon fill="midnightblue" stroke="midnightblue" points="1029.54,-178.01 1040.12,-178.44 1032.12,-171.5 1029.54,-178.01"/>
</g>
<!-- Node2&#45;&gt;Node9 -->
<g id="edge8" class="edge">
<title>Node2&#45;&gt;Node9</title>
<path fill="none" stroke="midnightblue" d="M1011.3,-199.22C787.8,-188.62 229.34,-160.63 146.5,-142 139.68,-140.47 132.67,-138.42 125.79,-136.1"/>
<polygon fill="midnightblue" stroke="midnightblue" points="1011.22,-202.72 1021.37,-199.7 1011.55,-195.73 1011.22,-202.72"/>
</g>
<!-- Node10 -->
<g id="node10" class="node">
<title>Node10</title>
<g id="a_node10"><a xlink:href="logging__pid_8cpp.html" target="_top" xlink:title="Logger for the PID controller.">
<polygon fill="white" stroke="black" points="958,-84 958,-136 1095,-136 1095,-84 958,-84"/>
<text text-anchor="start" x="966" y="-124" font-family="Helvetica,sans-Serif" font-size="10.00">/mnt/c/Users/siddh</text>
<text text-anchor="start" x="966" y="-113" font-family="Helvetica,sans-Serif" font-size="10.00">/OneDrive/Desktop/ACSL</text>
<text text-anchor="start" x="966" y="-102" font-family="Helvetica,sans-Serif" font-size="10.00">&#45;flightstack/src/control</text>
<text text-anchor="middle" x="1026.5" y="-91" font-family="Helvetica,sans-Serif" font-size="10.00">/pid/logging_pid.cpp</text>
</a>
</g>
</g>
<!-- Node2&#45;&gt;Node10 -->
<g id="edge9" class="edge">
<title>Node2&#45;&gt;Node10</title>
<path fill="none" stroke="midnightblue" d="M1075.86,-170.29C1066.52,-159.08 1056.25,-146.74 1047.52,-136.25"/>
<polygon fill="midnightblue" stroke="midnightblue" points="1073.37,-172.78 1082.46,-178.22 1078.75,-168.3 1073.37,-172.78"/>
</g>
<!-- Node2&#45;&gt;Node11 -->
<g id="edge10" class="edge">
<title>Node2&#45;&gt;Node11</title>
<path fill="none" stroke="midnightblue" d="M1195.67,-178.61C1196.95,-178.39 1198.23,-178.19 1199.5,-178 1599.3,-117.74 1713.16,-226.74 2108.5,-142 2115.4,-140.52 2122.49,-138.47 2129.43,-136.12"/>
<polygon fill="midnightblue" stroke="midnightblue" points="1194.95,-175.18 1185.73,-180.41 1196.2,-182.07 1194.95,-175.18"/>
</g>
<!-- Node12 -->
<g id="node12" class="node">
<title>Node12</title>
<g id="a_node12"><a xlink:href="multi__threaded__node_8cpp.html" target="_top" xlink:title="Multithreaded ROS2 ndoe that joins together all the flight stakc components.">
<polygon fill="white" stroke="black" points="1113,-84 1113,-136 1250,-136 1250,-84 1113,-84"/>
<text text-anchor="start" x="1121" y="-124" font-family="Helvetica,sans-Serif" font-size="10.00">/mnt/c/Users/siddh</text>
<text text-anchor="start" x="1121" y="-113" font-family="Helvetica,sans-Serif" font-size="10.00">/OneDrive/Desktop/ACSL</text>
<text text-anchor="start" x="1121" y="-102" font-family="Helvetica,sans-Serif" font-size="10.00">&#45;flightstack/src/multi</text>
<text text-anchor="middle" x="1181.5" y="-91" font-family="Helvetica,sans-Serif" font-size="10.00">_threaded_node.cpp</text>
</a>
</g>
</g>
<!-- Node2&#45;&gt;Node12 -->
<g id="edge11" class="edge">
<title>Node2&#45;&gt;Node12</title>
<path fill="none" stroke="midnightblue" d="M1131.5,-170.29C1140.96,-159.08 1151.36,-146.74 1160.21,-136.25"/>
<polygon fill="midnightblue" stroke="midnightblue" points="1128.58,-168.32 1124.81,-178.22 1133.94,-172.84 1128.58,-168.32"/>
</g>
<!-- Node13 -->
<g id="node13" class="node">
<title>Node13</title>
<g id="a_node13"><a xlink:href="pixhawk__actuator__motors_8cpp.html" target="_top" xlink:title="Callback that is executed at a fixed specified rate defined by the &quot;timer_controller_&quot;.">
<polygon fill="white" stroke="black" points="1268,-78.5 1268,-141.5 1423,-141.5 1423,-78.5 1268,-78.5"/>
<text text-anchor="start" x="1276" y="-129.5" font-family="Helvetica,sans-Serif" font-size="10.00">/mnt/c/Users/siddh</text>
<text text-anchor="start" x="1276" y="-118.5" font-family="Helvetica,sans-Serif" font-size="10.00">/OneDrive/Desktop/ACSL</text>
<text text-anchor="start" x="1276" y="-107.5" font-family="Helvetica,sans-Serif" font-size="10.00">&#45;flightstack/src/pixhawk</text>
<text text-anchor="start" x="1276" y="-96.5" font-family="Helvetica,sans-Serif" font-size="10.00">_interface/pixhawk_actuator</text>
<text text-anchor="middle" x="1345.5" y="-85.5" font-family="Helvetica,sans-Serif" font-size="10.00">_motors.cpp</text>
</a>
</g>
</g>
<!-- Node2&#45;&gt;Node13 -->
<g id="edge12" class="edge">
<title>Node2&#45;&gt;Node13</title>
<path fill="none" stroke="midnightblue" d="M1178.46,-174.85C1206.88,-163.99 1239.27,-151.6 1267.92,-140.65"/>
<polygon fill="midnightblue" stroke="midnightblue" points="1177.08,-171.63 1168.99,-178.47 1179.58,-178.17 1177.08,-171.63"/>
</g>
<!-- Node14 -->
<g id="node14" class="node">
<title>Node14</title>
<g id="a_node14"><a xlink:href="pixhawk__vehicle__odometry_8cpp.html" target="_top" xlink:title="Callback that is executed everytime a VehicleOdometry message is made available by Pixhawk.">
<polygon fill="white" stroke="black" points="1441.5,-78.5 1441.5,-141.5 1591.5,-141.5 1591.5,-78.5 1441.5,-78.5"/>
<text text-anchor="start" x="1449.5" y="-129.5" font-family="Helvetica,sans-Serif" font-size="10.00">/mnt/c/Users/siddh</text>
<text text-anchor="start" x="1449.5" y="-118.5" font-family="Helvetica,sans-Serif" font-size="10.00">/OneDrive/Desktop/ACSL</text>
<text text-anchor="start" x="1449.5" y="-107.5" font-family="Helvetica,sans-Serif" font-size="10.00">&#45;flightstack/src/pixhawk</text>
<text text-anchor="start" x="1449.5" y="-96.5" font-family="Helvetica,sans-Serif" font-size="10.00">_interface/pixhawk_vehicle</text>
<text text-anchor="middle" x="1516.5" y="-85.5" font-family="Helvetica,sans-Serif" font-size="10.00">_odometry.cpp</text>
</a>
</g>
</g>
<!-- Node2&#45;&gt;Node14 -->
<g id="edge13" class="edge">
<title>Node2&#45;&gt;Node14</title>
<path fill="none" stroke="midnightblue" d="M1195.63,-178.82C1196.93,-178.54 1198.22,-178.27 1199.5,-178 1302.06,-156.52 1331.06,-168.27 1432.5,-142 1435.36,-141.26 1438.26,-140.46 1441.17,-139.61"/>
<polygon fill="midnightblue" stroke="midnightblue" points="1194.57,-175.48 1185.58,-181.08 1196.11,-182.3 1194.57,-175.48"/>
</g>
<!-- Node15 -->
<g id="node15" class="node">
<title>Node15</title>
<g id="a_node15"><a xlink:href="vehicle__state_8cpp.html" target="_top" xlink:title="Class storing the state of the vehicle coming from the flight controller (Pixhawk)">
<polygon fill="white" stroke="black" points="1609.5,-84 1609.5,-136 1763.5,-136 1763.5,-84 1609.5,-84"/>
<text text-anchor="start" x="1617.5" y="-124" font-family="Helvetica,sans-Serif" font-size="10.00">/mnt/c/Users/siddh</text>
<text text-anchor="start" x="1617.5" y="-113" font-family="Helvetica,sans-Serif" font-size="10.00">/OneDrive/Desktop/ACSL</text>
<text text-anchor="start" x="1617.5" y="-102" font-family="Helvetica,sans-Serif" font-size="10.00">&#45;flightstack/src/pixhawk</text>
<text text-anchor="middle" x="1686.5" y="-91" font-family="Helvetica,sans-Serif" font-size="10.00">_interface/vehicle_state.cpp</text>
</a>
</g>
</g>
<!-- Node2&#45;&gt;Node15 -->
<g id="edge14" class="edge">
<title>Node2&#45;&gt;Node15</title>
<path fill="none" stroke="midnightblue" d="M1195.61,-178.71C1196.91,-178.46 1198.21,-178.23 1199.5,-178 1375.72,-146.92 1425.79,-180.66 1600.5,-142 1607.78,-140.39 1615.29,-138.32 1622.7,-136.03"/>
<polygon fill="midnightblue" stroke="midnightblue" points="1194.63,-175.33 1185.51,-180.73 1196.01,-182.2 1194.63,-175.33"/>
</g>
<!-- Node16 -->
<g id="node16" class="node">
<title>Node16</title>
<g id="a_node16"><a xlink:href="piecewise__polynomial__trajectory_8cpp.html" target="_top" xlink:title="Piecewise polynomial minimu&#45;jerk trajectory computed offline through a MATLAB script.">
<polygon fill="white" stroke="black" points="1781.5,-78.5 1781.5,-141.5 1943.5,-141.5 1943.5,-78.5 1781.5,-78.5"/>
<text text-anchor="start" x="1789.5" y="-129.5" font-family="Helvetica,sans-Serif" font-size="10.00">/mnt/c/Users/siddh</text>
<text text-anchor="start" x="1789.5" y="-118.5" font-family="Helvetica,sans-Serif" font-size="10.00">/OneDrive/Desktop/ACSL</text>
<text text-anchor="start" x="1789.5" y="-107.5" font-family="Helvetica,sans-Serif" font-size="10.00">&#45;flightstack/src/user</text>
<text text-anchor="start" x="1789.5" y="-96.5" font-family="Helvetica,sans-Serif" font-size="10.00">_defined_trajectory/piecewise</text>
<text text-anchor="middle" x="1862.5" y="-85.5" font-family="Helvetica,sans-Serif" font-size="10.00">_polynomial_trajectory.cpp</text>
</a>
</g>
</g>
<!-- Node2&#45;&gt;Node16 -->
<g id="edge15" class="edge">
<title>Node2&#45;&gt;Node16</title>
<path fill="none" stroke="midnightblue" d="M1195.67,-178.65C1196.96,-178.42 1198.23,-178.21 1199.5,-178 1451.36,-137.05 1522.28,-192 1772.5,-142 1775.42,-141.42 1778.37,-140.76 1781.34,-140.05"/>
<polygon fill="midnightblue" stroke="midnightblue" points="1194.92,-175.23 1185.75,-180.53 1196.23,-182.1 1194.92,-175.23"/>
</g>
<!-- Node17 -->
<g id="node17" class="node">
<title>Node17</title>
<g id="a_node17"><a xlink:href="user__defined__trajectory_8cpp.html" target="_top" xlink:title="Class that contains the common members that each type of user&#45;defined trajectory class will inherit.">
<polygon fill="white" stroke="black" points="1962,-78.5 1962,-141.5 2099,-141.5 2099,-78.5 1962,-78.5"/>
<text text-anchor="start" x="1970" y="-129.5" font-family="Helvetica,sans-Serif" font-size="10.00">/mnt/c/Users/siddh</text>
<text text-anchor="start" x="1970" y="-118.5" font-family="Helvetica,sans-Serif" font-size="10.00">/OneDrive/Desktop/ACSL</text>
<text text-anchor="start" x="1970" y="-107.5" font-family="Helvetica,sans-Serif" font-size="10.00">&#45;flightstack/src/user</text>
<text text-anchor="start" x="1970" y="-96.5" font-family="Helvetica,sans-Serif" font-size="10.00">_defined_trajectory/user</text>
<text text-anchor="middle" x="2030.5" y="-85.5" font-family="Helvetica,sans-Serif" font-size="10.00">_defined_trajectory.cpp</text>
</a>
</g>
</g>
<!-- Node2&#45;&gt;Node17 -->
<g id="edge16" class="edge">
<title>Node2&#45;&gt;Node17</title>
<path fill="none" stroke="midnightblue" d="M1195.67,-178.62C1196.95,-178.4 1198.23,-178.2 1199.5,-178 1530.6,-126.71 1625.03,-212.84 1952.5,-142 1955.63,-141.32 1958.8,-140.53 1961.98,-139.65"/>
<polygon fill="midnightblue" stroke="midnightblue" points="1194.94,-175.2 1185.74,-180.45 1196.21,-182.08 1194.94,-175.2"/>
</g>
<!-- Node4 -->
<g id="node4" class="node">
<title>Node4</title>
<g id="a_node4"><a xlink:href="main_8cpp.html" target="_top" xlink:title="FlightStack (Multirotor) main.cpp file.">
<polygon fill="white" stroke="black" points="169,-0.5 169,-41.5 306,-41.5 306,-0.5 169,-0.5"/>
<text text-anchor="start" x="177" y="-29.5" font-family="Helvetica,sans-Serif" font-size="10.00">/mnt/c/Users/siddh</text>
<text text-anchor="start" x="177" y="-18.5" font-family="Helvetica,sans-Serif" font-size="10.00">/OneDrive/Desktop/ACSL</text>
<text text-anchor="middle" x="237.5" y="-7.5" font-family="Helvetica,sans-Serif" font-size="10.00">&#45;flightstack/src/main.cpp</text>
</a>
</g>
</g>
<!-- Node3&#45;&gt;Node4 -->
<g id="edge3" class="edge">
<title>Node3&#45;&gt;Node4</title>
<path fill="none" stroke="midnightblue" d="M237.5,-73.66C237.5,-62.71 237.5,-51.05 237.5,-41.58"/>
<polygon fill="midnightblue" stroke="midnightblue" points="234,-73.84 237.5,-83.84 241,-73.84 234,-73.84"/>
</g>
</g>
</svg>
