<?xml version="1.0" encoding="UTF-8" standalone="no"?>
<!DOCTYPE svg PUBLIC "-//W3C//DTD SVG 1.1//EN"
 "http://www.w3.org/Graphics/SVG/1.1/DTD/svg11.dtd">
<!-- Generated by graphviz version 2.43.0 (0)
 -->
<!-- Title: ACSL&#45;flightstack/include/flightstack/control/pid/logging_pid.hpp Pages: 1 -->
<svg width="3874pt" height="117pt"
 viewBox="0.00 0.00 3873.50 117.00" xmlns="http://www.w3.org/2000/svg" xmlns:xlink="http://www.w3.org/1999/xlink">
<g id="graph0" class="graph" transform="scale(1 1) rotate(0) translate(4 113)">
<title>ACSL&#45;flightstack/include/flightstack/control/pid/logging_pid.hpp</title>
<polygon fill="white" stroke="transparent" points="-4,4 -4,-113 3869.5,-113 3869.5,4 -4,4"/>
<!-- Node1 -->
<g id="node1" class="node">
<title>Node1</title>
<g id="a_node1"><a xlink:title="Logger for the PID controller.">
<polygon fill="#bfbfbf" stroke="black" points="1541,-67.5 1541,-108.5 1675,-108.5 1675,-67.5 1541,-67.5"/>
<text text-anchor="start" x="1549" y="-96.5" font-family="Helvetica,sans-Serif" font-size="10.00">ACSL&#45;flightstack/include</text>
<text text-anchor="start" x="1549" y="-85.5" font-family="Helvetica,sans-Serif" font-size="10.00">/flightstack/control/pid</text>
<text text-anchor="middle" x="1608" y="-74.5" font-family="Helvetica,sans-Serif" font-size="10.00">/logging_pid.hpp</text>
</a>
</g>
</g>
<!-- Node2 -->
<g id="node2" class="node">
<title>Node2</title>
<g id="a_node2"><a xlink:title=" ">
<polygon fill="white" stroke="#bfbfbf" points="0,-6 0,-25 50,-25 50,-6 0,-6"/>
<text text-anchor="middle" x="25" y="-13" font-family="Helvetica,sans-Serif" font-size="10.00">atomic</text>
</a>
</g>
</g>
<!-- Node1&#45;&gt;Node2 -->
<g id="edge1" class="edge">
<title>Node1&#45;&gt;Node2</title>
<path fill="none" stroke="midnightblue" d="M1540.53,-86.01C1261.4,-81.74 204.68,-63.52 59,-31 56.48,-30.44 53.91,-29.69 51.37,-28.84"/>
<polygon fill="midnightblue" stroke="midnightblue" points="52.48,-25.51 41.89,-25.14 49.94,-32.04 52.48,-25.51"/>
</g>
<!-- Node3 -->
<g id="node3" class="node">
<title>Node3</title>
<g id="a_node3"><a xlink:title=" ">
<polygon fill="white" stroke="#bfbfbf" points="68.5,-6 68.5,-25 121.5,-25 121.5,-6 68.5,-6"/>
<text text-anchor="middle" x="95" y="-13" font-family="Helvetica,sans-Serif" font-size="10.00">cstddef</text>
</a>
</g>
</g>
<!-- Node1&#45;&gt;Node3 -->
<g id="edge2" class="edge">
<title>Node1&#45;&gt;Node3</title>
<path fill="none" stroke="midnightblue" d="M1540.72,-87.51C1289.32,-88.95 405.48,-89.62 131,-31 128.16,-30.39 125.25,-29.58 122.38,-28.65"/>
<polygon fill="midnightblue" stroke="midnightblue" points="123.52,-25.33 112.93,-25.13 121.09,-31.9 123.52,-25.33"/>
</g>
<!-- Node4 -->
<g id="node4" class="node">
<title>Node4</title>
<g id="a_node4"><a xlink:title=" ">
<polygon fill="white" stroke="#bfbfbf" points="140,-6 140,-25 190,-25 190,-6 140,-6"/>
<text text-anchor="middle" x="165" y="-13" font-family="Helvetica,sans-Serif" font-size="10.00">chrono</text>
</a>
</g>
</g>
<!-- Node1&#45;&gt;Node4 -->
<g id="edge3" class="edge">
<title>Node1&#45;&gt;Node4</title>
<path fill="none" stroke="midnightblue" d="M1540.87,-87.54C1297.07,-89.01 459.18,-89.57 199,-31 196.48,-30.43 193.91,-29.69 191.37,-28.83"/>
<polygon fill="midnightblue" stroke="midnightblue" points="192.48,-25.5 181.89,-25.13 189.94,-32.03 192.48,-25.5"/>
</g>
<!-- Node5 -->
<g id="node5" class="node">
<title>Node5</title>
<g id="a_node5"><a xlink:title=" ">
<polygon fill="white" stroke="#bfbfbf" points="208,-6 208,-25 276,-25 276,-6 208,-6"/>
<text text-anchor="middle" x="242" y="-13" font-family="Helvetica,sans-Serif" font-size="10.00">filesystem</text>
</a>
</g>
</g>
<!-- Node1&#45;&gt;Node5 -->
<g id="edge4" class="edge">
<title>Node1&#45;&gt;Node5</title>
<path fill="none" stroke="midnightblue" d="M1540.7,-86.66C1306.73,-85.09 529.67,-76.48 285,-31 281.1,-30.28 277.08,-29.28 273.12,-28.14"/>
<polygon fill="midnightblue" stroke="midnightblue" points="274.15,-24.79 263.56,-25.1 272.03,-31.46 274.15,-24.79"/>
</g>
<!-- Node6 -->
<g id="node6" class="node">
<title>Node6</title>
<g id="a_node6"><a xlink:title=" ">
<polygon fill="white" stroke="#bfbfbf" points="294.5,-6 294.5,-25 349.5,-25 349.5,-6 294.5,-6"/>
<text text-anchor="middle" x="322" y="-13" font-family="Helvetica,sans-Serif" font-size="10.00">fstream</text>
</a>
</g>
</g>
<!-- Node1&#45;&gt;Node6 -->
<g id="edge5" class="edge">
<title>Node1&#45;&gt;Node6</title>
<path fill="none" stroke="midnightblue" d="M1540.9,-86.88C1315.61,-86.04 587.65,-79.53 359,-31 355.99,-30.36 352.91,-29.51 349.87,-28.53"/>
<polygon fill="midnightblue" stroke="midnightblue" points="351.05,-25.23 340.45,-25.11 348.66,-31.81 351.05,-25.23"/>
</g>
<!-- Node7 -->
<g id="node7" class="node">
<title>Node7</title>
<g id="a_node7"><a xlink:title=" ">
<polygon fill="white" stroke="#bfbfbf" points="368,-6 368,-25 424,-25 424,-6 368,-6"/>
<text text-anchor="middle" x="396" y="-13" font-family="Helvetica,sans-Serif" font-size="10.00">iomanip</text>
</a>
</g>
</g>
<!-- Node1&#45;&gt;Node7 -->
<g id="edge6" class="edge">
<title>Node1&#45;&gt;Node7</title>
<path fill="none" stroke="midnightblue" d="M1540.75,-86.66C1324.2,-85.12 646.69,-76.67 433,-31 429.99,-30.36 426.91,-29.5 423.87,-28.52"/>
<polygon fill="midnightblue" stroke="midnightblue" points="425.05,-25.22 414.46,-25.09 422.66,-31.8 425.05,-25.22"/>
</g>
<!-- Node8 -->
<g id="node8" class="node">
<title>Node8</title>
<g id="a_node8"><a xlink:title=" ">
<polygon fill="white" stroke="#bfbfbf" points="442.5,-6 442.5,-25 499.5,-25 499.5,-6 442.5,-6"/>
<text text-anchor="middle" x="471" y="-13" font-family="Helvetica,sans-Serif" font-size="10.00">ostream</text>
</a>
</g>
</g>
<!-- Node1&#45;&gt;Node8 -->
<g id="edge7" class="edge">
<title>Node1&#45;&gt;Node8</title>
<path fill="none" stroke="midnightblue" d="M1540.79,-86.32C1333.74,-83.81 707.62,-72.86 509,-31 505.92,-30.35 502.76,-29.49 499.65,-28.51"/>
<polygon fill="midnightblue" stroke="midnightblue" points="500.57,-25.12 489.98,-25.08 498.23,-31.72 500.57,-25.12"/>
</g>
<!-- Node9 -->
<g id="node9" class="node">
<title>Node9</title>
<g id="a_node9"><a xlink:title=" ">
<polygon fill="white" stroke="#bfbfbf" points="518,-6 518,-25 574,-25 574,-6 518,-6"/>
<text text-anchor="middle" x="546" y="-13" font-family="Helvetica,sans-Serif" font-size="10.00">sstream</text>
</a>
</g>
</g>
<!-- Node1&#45;&gt;Node9 -->
<g id="edge8" class="edge">
<title>Node1&#45;&gt;Node9</title>
<path fill="none" stroke="midnightblue" d="M1540.8,-86.11C1343.23,-83.07 766.62,-70.91 583,-31 580,-30.35 576.92,-29.48 573.88,-28.5"/>
<polygon fill="midnightblue" stroke="midnightblue" points="575.06,-25.2 564.46,-25.07 572.66,-31.78 575.06,-25.2"/>
</g>
<!-- Node10 -->
<g id="node10" class="node">
<title>Node10</title>
<g id="a_node10"><a xlink:title=" ">
<polygon fill="white" stroke="#bfbfbf" points="592,-6 592,-25 636,-25 636,-6 592,-6"/>
<text text-anchor="middle" x="614" y="-13" font-family="Helvetica,sans-Serif" font-size="10.00">string</text>
</a>
</g>
</g>
<!-- Node1&#45;&gt;Node10 -->
<g id="edge9" class="edge">
<title>Node1&#45;&gt;Node10</title>
<path fill="none" stroke="midnightblue" d="M1540.72,-86.38C1351.07,-84.12 814.96,-74 645,-31 643.01,-30.5 641,-29.87 639,-29.15"/>
<polygon fill="midnightblue" stroke="midnightblue" points="639.92,-25.74 629.34,-25.08 637.2,-32.19 639.92,-25.74"/>
</g>
<!-- Node11 -->
<g id="node11" class="node">
<title>Node11</title>
<g id="a_node11"><a xlink:title=" ">
<polygon fill="white" stroke="#bfbfbf" points="654.5,-0.5 654.5,-30.5 779.5,-30.5 779.5,-0.5 654.5,-0.5"/>
<text text-anchor="start" x="662.5" y="-18.5" font-family="Helvetica,sans-Serif" font-size="10.00">boost/date_time/posix</text>
<text text-anchor="middle" x="717" y="-7.5" font-family="Helvetica,sans-Serif" font-size="10.00">_time/posix_time.hpp</text>
</a>
</g>
</g>
<!-- Node1&#45;&gt;Node11 -->
<g id="edge10" class="edge">
<title>Node1&#45;&gt;Node11</title>
<path fill="none" stroke="midnightblue" d="M1541,-85.45C1402.35,-81.58 1073.84,-69.01 789.73,-31.12"/>
<polygon fill="midnightblue" stroke="midnightblue" points="790.02,-27.63 779.64,-29.76 789.09,-34.57 790.02,-27.63"/>
</g>
<!-- Node12 -->
<g id="node12" class="node">
<title>Node12</title>
<g id="a_node12"><a xlink:title=" ">
<polygon fill="white" stroke="#bfbfbf" points="797.5,-0.5 797.5,-30.5 952.5,-30.5 952.5,-0.5 797.5,-0.5"/>
<text text-anchor="start" x="805.5" y="-18.5" font-family="Helvetica,sans-Serif" font-size="10.00">boost/date_time/posix</text>
<text text-anchor="middle" x="875" y="-7.5" font-family="Helvetica,sans-Serif" font-size="10.00">_time/posix_time_types.hpp</text>
</a>
</g>
</g>
<!-- Node1&#45;&gt;Node12 -->
<g id="edge11" class="edge">
<title>Node1&#45;&gt;Node12</title>
<path fill="none" stroke="midnightblue" d="M1540.75,-82.97C1424.75,-75.64 1179.4,-58.38 962.74,-31.16"/>
<polygon fill="midnightblue" stroke="midnightblue" points="963.13,-27.69 952.77,-29.9 962.26,-34.63 963.13,-27.69"/>
</g>
<!-- Node13 -->
<g id="node13" class="node">
<title>Node13</title>
<g id="a_node13"><a xlink:title=" ">
<polygon fill="white" stroke="#bfbfbf" points="970.5,-6 970.5,-25 1103.5,-25 1103.5,-6 970.5,-6"/>
<text text-anchor="middle" x="1037" y="-13" font-family="Helvetica,sans-Serif" font-size="10.00">boost/log/attributes.hpp</text>
</a>
</g>
</g>
<!-- Node1&#45;&gt;Node13 -->
<g id="edge12" class="edge">
<title>Node1&#45;&gt;Node13</title>
<path fill="none" stroke="midnightblue" d="M1540.93,-81.04C1445.57,-72.2 1265.42,-54.13 1113,-31 1105.16,-29.81 1096.89,-28.4 1088.8,-26.93"/>
<polygon fill="midnightblue" stroke="midnightblue" points="1089.19,-23.44 1078.71,-25.05 1087.9,-30.32 1089.19,-23.44"/>
</g>
<!-- Node14 -->
<g id="node14" class="node">
<title>Node14</title>
<g id="a_node14"><a xlink:title=" ">
<polygon fill="white" stroke="#bfbfbf" points="1122,-0.5 1122,-30.5 1244,-30.5 1244,-0.5 1122,-0.5"/>
<text text-anchor="start" x="1130" y="-18.5" font-family="Helvetica,sans-Serif" font-size="10.00">boost/log/attributes</text>
<text text-anchor="middle" x="1183" y="-7.5" font-family="Helvetica,sans-Serif" font-size="10.00">/scoped_attribute.hpp</text>
</a>
</g>
</g>
<!-- Node1&#45;&gt;Node14 -->
<g id="edge13" class="edge">
<title>Node1&#45;&gt;Node14</title>
<path fill="none" stroke="midnightblue" d="M1540.77,-77.37C1471.42,-67.22 1359.9,-50.28 1253.95,-31.13"/>
<polygon fill="midnightblue" stroke="midnightblue" points="1254.51,-27.67 1244.05,-29.33 1253.26,-34.56 1254.51,-27.67"/>
</g>
<!-- Node15 -->
<g id="node15" class="node">
<title>Node15</title>
<g id="a_node15"><a xlink:title=" ">
<polygon fill="white" stroke="#bfbfbf" points="1262.5,-6 1262.5,-25 1369.5,-25 1369.5,-6 1262.5,-6"/>
<text text-anchor="middle" x="1316" y="-13" font-family="Helvetica,sans-Serif" font-size="10.00">boost/log/core.hpp</text>
</a>
</g>
</g>
<!-- Node1&#45;&gt;Node15 -->
<g id="edge14" class="edge">
<title>Node1&#45;&gt;Node15</title>
<path fill="none" stroke="midnightblue" d="M1540.64,-70.74C1485.61,-57.45 1409.32,-39.03 1361.33,-27.44"/>
<polygon fill="midnightblue" stroke="midnightblue" points="1362.07,-24.02 1351.53,-25.08 1360.43,-30.83 1362.07,-24.02"/>
</g>
<!-- Node16 -->
<g id="node16" class="node">
<title>Node16</title>
<g id="a_node16"><a xlink:title=" ">
<polygon fill="white" stroke="#bfbfbf" points="1388,-6 1388,-25 1532,-25 1532,-6 1388,-6"/>
<text text-anchor="middle" x="1460" y="-13" font-family="Helvetica,sans-Serif" font-size="10.00">boost/log/expressions.hpp</text>
</a>
</g>
</g>
<!-- Node1&#45;&gt;Node16 -->
<g id="edge15" class="edge">
<title>Node1&#45;&gt;Node16</title>
<path fill="none" stroke="midnightblue" d="M1566.77,-67.36C1541.44,-55.29 1509.69,-40.17 1487.42,-29.56"/>
<polygon fill="midnightblue" stroke="midnightblue" points="1488.74,-26.31 1478.21,-25.17 1485.73,-32.63 1488.74,-26.31"/>
</g>
<!-- Node17 -->
<g id="node17" class="node">
<title>Node17</title>
<g id="a_node17"><a xlink:title=" ">
<polygon fill="white" stroke="#bfbfbf" points="1550,-0.5 1550,-30.5 1666,-30.5 1666,-0.5 1550,-0.5"/>
<text text-anchor="start" x="1558" y="-18.5" font-family="Helvetica,sans-Serif" font-size="10.00">boost/log/sinks/sync</text>
<text text-anchor="middle" x="1608" y="-7.5" font-family="Helvetica,sans-Serif" font-size="10.00">_frontend.hpp</text>
</a>
</g>
</g>
<!-- Node1&#45;&gt;Node17 -->
<g id="edge16" class="edge">
<title>Node1&#45;&gt;Node17</title>
<path fill="none" stroke="midnightblue" d="M1608,-67.36C1608,-59.23 1608,-49.7 1608,-41.11"/>
<polygon fill="midnightblue" stroke="midnightblue" points="1611.5,-40.89 1608,-30.89 1604.5,-40.89 1611.5,-40.89"/>
</g>
<!-- Node18 -->
<g id="node18" class="node">
<title>Node18</title>
<g id="a_node18"><a xlink:title=" ">
<polygon fill="white" stroke="#bfbfbf" points="1684.5,-0.5 1684.5,-30.5 1813.5,-30.5 1813.5,-0.5 1684.5,-0.5"/>
<text text-anchor="start" x="1692.5" y="-18.5" font-family="Helvetica,sans-Serif" font-size="10.00">boost/log/sinks/text</text>
<text text-anchor="middle" x="1749" y="-7.5" font-family="Helvetica,sans-Serif" font-size="10.00">_ostream_backend.hpp</text>
</a>
</g>
</g>
<!-- Node1&#45;&gt;Node18 -->
<g id="edge17" class="edge">
<title>Node1&#45;&gt;Node18</title>
<path fill="none" stroke="midnightblue" d="M1647.28,-67.36C1667.4,-57.3 1691.77,-45.12 1711.61,-35.2"/>
<polygon fill="midnightblue" stroke="midnightblue" points="1713.28,-38.27 1720.66,-30.67 1710.15,-32.01 1713.28,-38.27"/>
</g>
<!-- Node19 -->
<g id="node19" class="node">
<title>Node19</title>
<g id="a_node19"><a xlink:title=" ">
<polygon fill="white" stroke="#bfbfbf" points="1831.5,-0.5 1831.5,-30.5 1962.5,-30.5 1962.5,-0.5 1831.5,-0.5"/>
<text text-anchor="start" x="1839.5" y="-18.5" font-family="Helvetica,sans-Serif" font-size="10.00">boost/log/sources/basic</text>
<text text-anchor="middle" x="1897" y="-7.5" font-family="Helvetica,sans-Serif" font-size="10.00">_logger.hpp</text>
</a>
</g>
</g>
<!-- Node1&#45;&gt;Node19 -->
<g id="edge18" class="edge">
<title>Node1&#45;&gt;Node19</title>
<path fill="none" stroke="midnightblue" d="M1675.03,-70.65C1721.48,-59.32 1783.09,-44.29 1829.61,-32.94"/>
<polygon fill="midnightblue" stroke="midnightblue" points="1830.71,-36.27 1839.6,-30.5 1829.06,-29.47 1830.71,-36.27"/>
</g>
<!-- Node20 -->
<g id="node20" class="node">
<title>Node20</title>
<g id="a_node20"><a xlink:title=" ">
<polygon fill="white" stroke="#bfbfbf" points="1981,-6 1981,-25 2137,-25 2137,-6 1981,-6"/>
<text text-anchor="middle" x="2059" y="-13" font-family="Helvetica,sans-Serif" font-size="10.00">boost/log/sources/logger.hpp</text>
</a>
</g>
</g>
<!-- Node1&#45;&gt;Node20 -->
<g id="edge19" class="edge">
<title>Node1&#45;&gt;Node20</title>
<path fill="none" stroke="midnightblue" d="M1675.13,-76.93C1748.2,-65.91 1868.46,-47.59 1972,-31 1980.57,-29.63 1989.61,-28.15 1998.49,-26.69"/>
<polygon fill="midnightblue" stroke="midnightblue" points="1999.12,-30.13 2008.41,-25.04 1997.98,-23.22 1999.12,-30.13"/>
</g>
<!-- Node21 -->
<g id="node21" class="node">
<title>Node21</title>
<g id="a_node21"><a xlink:title=" ">
<polygon fill="white" stroke="#bfbfbf" points="2155,-0.5 2155,-30.5 2291,-30.5 2291,-0.5 2155,-0.5"/>
<text text-anchor="start" x="2163" y="-18.5" font-family="Helvetica,sans-Serif" font-size="10.00">boost/log/sources/record</text>
<text text-anchor="middle" x="2223" y="-7.5" font-family="Helvetica,sans-Serif" font-size="10.00">_ostream.hpp</text>
</a>
</g>
</g>
<!-- Node1&#45;&gt;Node21 -->
<g id="edge20" class="edge">
<title>Node1&#45;&gt;Node21</title>
<path fill="none" stroke="midnightblue" d="M1675.32,-81.79C1775.46,-73.63 1969.77,-56.29 2144.46,-31.15"/>
<polygon fill="midnightblue" stroke="midnightblue" points="2145.22,-34.58 2154.62,-29.68 2144.22,-27.65 2145.22,-34.58"/>
</g>
<!-- Node22 -->
<g id="node22" class="node">
<title>Node22</title>
<g id="a_node22"><a xlink:title=" ">
<polygon fill="white" stroke="#bfbfbf" points="2309.5,-0.5 2309.5,-30.5 2454.5,-30.5 2454.5,-0.5 2309.5,-0.5"/>
<text text-anchor="start" x="2317.5" y="-18.5" font-family="Helvetica,sans-Serif" font-size="10.00">boost/log/sources/severity</text>
<text text-anchor="middle" x="2382" y="-7.5" font-family="Helvetica,sans-Serif" font-size="10.00">_channel_logger.hpp</text>
</a>
</g>
</g>
<!-- Node1&#45;&gt;Node22 -->
<g id="edge21" class="edge">
<title>Node1&#45;&gt;Node22</title>
<path fill="none" stroke="midnightblue" d="M1675.02,-83.68C1797.09,-77.18 2063.97,-60.83 2299.07,-31.04"/>
<polygon fill="midnightblue" stroke="midnightblue" points="2299.7,-34.48 2309.18,-29.74 2298.81,-27.54 2299.7,-34.48"/>
</g>
<!-- Node23 -->
<g id="node23" class="node">
<title>Node23</title>
<g id="a_node23"><a xlink:title=" ">
<polygon fill="white" stroke="#bfbfbf" points="2472.5,-0.5 2472.5,-30.5 2617.5,-30.5 2617.5,-0.5 2472.5,-0.5"/>
<text text-anchor="start" x="2480.5" y="-18.5" font-family="Helvetica,sans-Serif" font-size="10.00">boost/log/sources/severity</text>
<text text-anchor="middle" x="2545" y="-7.5" font-family="Helvetica,sans-Serif" font-size="10.00">_logger.hpp</text>
</a>
</g>
</g>
<!-- Node1&#45;&gt;Node23 -->
<g id="edge22" class="edge">
<title>Node1&#45;&gt;Node23</title>
<path fill="none" stroke="midnightblue" d="M1675.11,-85.16C1818.12,-80.69 2163.6,-66.95 2462.05,-31.16"/>
<polygon fill="midnightblue" stroke="midnightblue" points="2462.69,-34.6 2472.2,-29.93 2461.85,-27.65 2462.69,-34.6"/>
</g>
<!-- Node24 -->
<g id="node24" class="node">
<title>Node24</title>
<g id="a_node24"><a xlink:title=" ">
<polygon fill="white" stroke="#bfbfbf" points="2636,-0.5 2636,-30.5 2762,-30.5 2762,-0.5 2636,-0.5"/>
<text text-anchor="start" x="2644" y="-18.5" font-family="Helvetica,sans-Serif" font-size="10.00">boost/log/support/date</text>
<text text-anchor="middle" x="2699" y="-7.5" font-family="Helvetica,sans-Serif" font-size="10.00">_time.hpp</text>
</a>
</g>
</g>
<!-- Node1&#45;&gt;Node24 -->
<g id="edge23" class="edge">
<title>Node1&#45;&gt;Node24</title>
<path fill="none" stroke="midnightblue" d="M1675.07,-86.64C1837.05,-85.06 2262.44,-76.64 2625.94,-31.01"/>
<polygon fill="midnightblue" stroke="midnightblue" points="2626.39,-34.48 2635.87,-29.75 2625.51,-27.53 2626.39,-34.48"/>
</g>
<!-- Node25 -->
<g id="node25" class="node">
<title>Node25</title>
<g id="a_node25"><a xlink:title=" ">
<polygon fill="white" stroke="#bfbfbf" points="2780,-6 2780,-25 2894,-25 2894,-6 2780,-6"/>
<text text-anchor="middle" x="2837" y="-13" font-family="Helvetica,sans-Serif" font-size="10.00">boost/log/trivial.hpp</text>
</a>
</g>
</g>
<!-- Node1&#45;&gt;Node25 -->
<g id="edge24" class="edge">
<title>Node1&#45;&gt;Node25</title>
<path fill="none" stroke="midnightblue" d="M1675.22,-87.7C1854.25,-88.71 2357.22,-86.02 2771,-31 2778.28,-30.03 2785.94,-28.67 2793.36,-27.17"/>
<polygon fill="midnightblue" stroke="midnightblue" points="2794.23,-30.56 2803.28,-25.05 2792.77,-23.72 2794.23,-30.56"/>
</g>
<!-- Node26 -->
<g id="node26" class="node">
<title>Node26</title>
<g id="a_node26"><a xlink:title=" ">
<polygon fill="white" stroke="#bfbfbf" points="2912,-0.5 2912,-30.5 3048,-30.5 3048,-0.5 2912,-0.5"/>
<text text-anchor="start" x="2920" y="-18.5" font-family="Helvetica,sans-Serif" font-size="10.00">boost/log/utility/setup</text>
<text text-anchor="middle" x="2980" y="-7.5" font-family="Helvetica,sans-Serif" font-size="10.00">/common_attributes.hpp</text>
</a>
</g>
</g>
<!-- Node1&#45;&gt;Node26 -->
<g id="edge25" class="edge">
<title>Node1&#45;&gt;Node26</title>
<path fill="none" stroke="midnightblue" d="M1675.33,-87.47C1866.25,-88.09 2427.46,-84.89 2901.52,-31.06"/>
<polygon fill="midnightblue" stroke="midnightblue" points="2902.11,-34.51 2911.64,-29.9 2901.31,-27.56 2902.11,-34.51"/>
</g>
<!-- Node27 -->
<g id="node27" class="node">
<title>Node27</title>
<g id="a_node27"><a xlink:title=" ">
<polygon fill="white" stroke="#bfbfbf" points="3066.5,-0.5 3066.5,-30.5 3189.5,-30.5 3189.5,-0.5 3066.5,-0.5"/>
<text text-anchor="start" x="3074.5" y="-18.5" font-family="Helvetica,sans-Serif" font-size="10.00">boost/log/utility/setup</text>
<text text-anchor="middle" x="3128" y="-7.5" font-family="Helvetica,sans-Serif" font-size="10.00">/file.hpp</text>
</a>
</g>
</g>
<!-- Node1&#45;&gt;Node27 -->
<g id="edge26" class="edge">
<title>Node1&#45;&gt;Node27</title>
<path fill="none" stroke="midnightblue" d="M1675.01,-85.86C1919.51,-81.48 2763.99,-64.33 3055.99,-30.95"/>
<polygon fill="midnightblue" stroke="midnightblue" points="3056.62,-34.4 3066.14,-29.75 3055.8,-27.44 3056.62,-34.4"/>
</g>
<!-- Node28 -->
<g id="node28" class="node">
<title>Node28</title>
<g id="a_node28"><a xlink:title=" ">
<polygon fill="white" stroke="#bfbfbf" points="3207.5,-0.5 3207.5,-30.5 3330.5,-30.5 3330.5,-0.5 3207.5,-0.5"/>
<text text-anchor="start" x="3215.5" y="-18.5" font-family="Helvetica,sans-Serif" font-size="10.00">boost/log/utility/value</text>
<text text-anchor="middle" x="3269" y="-7.5" font-family="Helvetica,sans-Serif" font-size="10.00">_ref.hpp</text>
</a>
</g>
</g>
<!-- Node1&#45;&gt;Node28 -->
<g id="edge27" class="edge">
<title>Node1&#45;&gt;Node28</title>
<path fill="none" stroke="midnightblue" d="M1675.18,-86.15C1935.2,-82.63 2876.46,-67.66 3197.03,-31.08"/>
<polygon fill="midnightblue" stroke="midnightblue" points="3197.73,-34.52 3207.26,-29.88 3196.92,-27.57 3197.73,-34.52"/>
</g>
<!-- Node29 -->
<g id="node29" class="node">
<title>Node29</title>
<g id="a_node29"><a xlink:title=" ">
<polygon fill="white" stroke="#bfbfbf" points="3348.5,-6 3348.5,-25 3479.5,-25 3479.5,-6 3348.5,-6"/>
<text text-anchor="middle" x="3414" y="-13" font-family="Helvetica,sans-Serif" font-size="10.00">boost/phoenix/bind.hpp</text>
</a>
</g>
</g>
<!-- Node1&#45;&gt;Node29 -->
<g id="edge28" class="edge">
<title>Node1&#45;&gt;Node29</title>
<path fill="none" stroke="midnightblue" d="M1675.38,-86.27C1952.95,-83.06 3008.74,-68.56 3340,-31 3348.6,-30.02 3357.7,-28.59 3366.46,-26.99"/>
<polygon fill="midnightblue" stroke="midnightblue" points="3367.37,-30.38 3376.54,-25.06 3366.06,-23.5 3367.37,-30.38"/>
</g>
<!-- Node30 -->
<g id="node30" class="node">
<title>Node30</title>
<g id="a_node30"><a xlink:title=" ">
<polygon fill="white" stroke="#bfbfbf" points="3498,-0.5 3498,-30.5 3622,-30.5 3622,-0.5 3498,-0.5"/>
<text text-anchor="start" x="3506" y="-18.5" font-family="Helvetica,sans-Serif" font-size="10.00">boost/smart_ptr/make</text>
<text text-anchor="middle" x="3560" y="-7.5" font-family="Helvetica,sans-Serif" font-size="10.00">_shared_object.hpp</text>
</a>
</g>
</g>
<!-- Node1&#45;&gt;Node30 -->
<g id="edge29" class="edge">
<title>Node1&#45;&gt;Node30</title>
<path fill="none" stroke="midnightblue" d="M1675.18,-86.55C1964.54,-84.36 3106.63,-73.24 3487.8,-30.97"/>
<polygon fill="midnightblue" stroke="midnightblue" points="3488.22,-34.45 3497.76,-29.84 3487.43,-27.49 3488.22,-34.45"/>
</g>
<!-- Node31 -->
<g id="node31" class="node">
<title>Node31</title>
<g id="a_node31"><a xlink:title=" ">
<polygon fill="white" stroke="#bfbfbf" points="3640,-0.5 3640,-30.5 3770,-30.5 3770,-0.5 3640,-0.5"/>
<text text-anchor="start" x="3648" y="-18.5" font-family="Helvetica,sans-Serif" font-size="10.00">boost/smart_ptr/shared</text>
<text text-anchor="middle" x="3705" y="-7.5" font-family="Helvetica,sans-Serif" font-size="10.00">_ptr.hpp</text>
</a>
</g>
</g>
<!-- Node1&#45;&gt;Node31 -->
<g id="edge30" class="edge">
<title>Node1&#45;&gt;Node31</title>
<path fill="none" stroke="midnightblue" d="M1675.05,-86.64C1977.62,-84.78 3218.4,-74.67 3629.57,-31"/>
<polygon fill="midnightblue" stroke="midnightblue" points="3630.16,-34.46 3639.72,-29.9 3629.4,-27.5 3630.16,-34.46"/>
</g>
<!-- Node32 -->
<g id="node32" class="node">
<title>Node32</title>
<g id="a_node32"><a xlink:title=" ">
<polygon fill="white" stroke="#bfbfbf" points="3788.5,-6 3788.5,-25 3865.5,-25 3865.5,-6 3788.5,-6"/>
<text text-anchor="middle" x="3827" y="-13" font-family="Helvetica,sans-Serif" font-size="10.00">Eigen/Dense</text>
</a>
</g>
</g>
<!-- Node1&#45;&gt;Node32 -->
<g id="edge31" class="edge">
<title>Node1&#45;&gt;Node32</title>
<path fill="none" stroke="midnightblue" d="M1675.14,-86.34C2018.19,-82.8 3567.34,-65.07 3779,-31 3783.8,-30.23 3788.78,-29.1 3793.65,-27.82"/>
<polygon fill="midnightblue" stroke="midnightblue" points="3794.73,-31.15 3803.37,-25.01 3792.79,-24.42 3794.73,-31.15"/>
</g>
</g>
</svg>
