<?xml version="1.0" encoding="UTF-8" standalone="no"?>
<!DOCTYPE svg PUBLIC "-//W3C//DTD SVG 1.1//EN"
 "http://www.w3.org/Graphics/SVG/1.1/DTD/svg11.dtd">
<!-- Generated by graphviz version 2.43.0 (0)
 -->
<!-- Title: ACSL&#45;flightstack/include/flightstack/logging/logging_mocap.hpp Pages: 1 -->
<!--zoomable 117 -->
<svg id="main" version="1.1" xmlns="http://www.w3.org/2000/svg" xmlns:xlink="http://www.w3.org/1999/xlink" xml:space="preserve" onload="init(evt)">
<style type="text/css"><![CDATA[
.edge:hover path { stroke: red; }
.edge:hover polygon { stroke: red; fill: red; }
]]></style>
<script type="text/javascript"><![CDATA[
var edges = document.getElementsByTagName('g');
if (edges && edges.length) {
  for (var i=0;i<edges.length;i++) {
    if (edges[i].id.substr(0,4)=='edge') {
      edges[i].setAttribute('class','edge');
    }
  }
}
]]></script>
        <defs>
                <circle id="rim" cx="0" cy="0" r="7"/>
                <circle id="rim2" cx="0" cy="0" r="3.5"/>
                <g id="zoomPlus">
                        <use xlink:href="#rim" fill="#404040">
                                <set attributeName="fill" to="#808080" begin="zoomplus.mouseover" end="zoomplus.mouseout"/>
                        </use>
                        <path d="M-4,0h8M0,-4v8" fill="none" stroke="white" stroke-width="1.5" pointer-events="none"/>
                </g>
                <g id="zoomMin">
                        <use xlink:href="#rim" fill="#404040">
                                <set attributeName="fill" to="#808080" begin="zoomminus.mouseover" end="zoomminus.mouseout"/>
                        </use>
                        <path d="M-4,0h8" fill="none" stroke="white" stroke-width="1.5" pointer-events="none"/>
                </g>
                <g id="dirArrow">
                        <path fill="none" stroke="white" stroke-width="1.5" d="M0,-3.0v7 M-2.5,-0.5L0,-3.0L2.5,-0.5"/>
                </g>
               <g id="resetDef">
                       <use xlink:href="#rim2" fill="#404040">
                               <set attributeName="fill" to="#808080" begin="reset.mouseover" end="reset.mouseout"/>
                       </use>
               </g>
        </defs>

<script type="text/javascript">
var viewWidth = 3874;
var viewHeight = 117;
var sectionId = 'dynsection-0';
</script>
<script xlink:href="svgpan.js"/>
<svg id="graph" class="graph">
<g id="viewport">
<title>ACSL&#45;flightstack/include/flightstack/logging/logging_mocap.hpp</title>
<polygon fill="white" stroke="transparent" points="-4,4 -4,-113 3869.5,-113 3869.5,4 -4,4"/>
<!-- Node1 -->
<g id="node1" class="node">
<title>Node1</title>
<g id="a_node1"><a xlink:title="Logger for the motion capture (MOCAP) system.">
<polygon fill="#bfbfbf" stroke="black" points="1533.5,-67.5 1533.5,-108.5 1682.5,-108.5 1682.5,-67.5 1533.5,-67.5"/>
<text text-anchor="start" x="1541.5" y="-96.5" font-family="Helvetica,sans-Serif" font-size="10.00">ACSL&#45;flightstack/include</text>
<text text-anchor="start" x="1541.5" y="-85.5" font-family="Helvetica,sans-Serif" font-size="10.00">/flightstack/logging/logging</text>
<text text-anchor="middle" x="1608" y="-74.5" font-family="Helvetica,sans-Serif" font-size="10.00">_mocap.hpp</text>
</a>
</g>
</g>
<!-- Node2 -->
<g id="node2" class="node">
<title>Node2</title>
<g id="a_node2"><a xlink:title=" ">
<polygon fill="white" stroke="#bfbfbf" points="0,-6 0,-25 50,-25 50,-6 0,-6"/>
<text text-anchor="middle" x="25" y="-13" font-family="Helvetica,sans-Serif" font-size="10.00">atomic</text>
</a>
</g>
</g>
<!-- Node1&#45;&gt;Node2 -->
<g id="edge1" class="edge">
<title>Node1&#45;&gt;Node2</title>
<path fill="none" stroke="midnightblue" d="M1533.29,-85.9C1243.6,-81.43 203.45,-63.24 59,-31 56.48,-30.44 53.91,-29.69 51.37,-28.84"/>
<polygon fill="midnightblue" stroke="midnightblue" points="52.48,-25.51 41.89,-25.14 49.94,-32.04 52.48,-25.51"/>
</g>
<!-- Node3 -->
<g id="node3" class="node">
<title>Node3</title>
<g id="a_node3"><a xlink:title=" ">
<polygon fill="white" stroke="#bfbfbf" points="68.5,-6 68.5,-25 121.5,-25 121.5,-6 68.5,-6"/>
<text text-anchor="middle" x="95" y="-13" font-family="Helvetica,sans-Serif" font-size="10.00">cstddef</text>
</a>
</g>
</g>
<!-- Node1&#45;&gt;Node3 -->
<g id="edge2" class="edge">
<title>Node1&#45;&gt;Node3</title>
<path fill="none" stroke="midnightblue" d="M1533.21,-87.55C1272.2,-88.95 402.81,-89.05 131,-31 128.16,-30.39 125.25,-29.58 122.38,-28.65"/>
<polygon fill="midnightblue" stroke="midnightblue" points="123.52,-25.33 112.93,-25.13 121.09,-31.9 123.52,-25.33"/>
</g>
<!-- Node4 -->
<g id="node4" class="node">
<title>Node4</title>
<g id="a_node4"><a xlink:title=" ">
<polygon fill="white" stroke="#bfbfbf" points="140,-6 140,-25 190,-25 190,-6 140,-6"/>
<text text-anchor="middle" x="165" y="-13" font-family="Helvetica,sans-Serif" font-size="10.00">chrono</text>
</a>
</g>
</g>
<!-- Node1&#45;&gt;Node4 -->
<g id="edge3" class="edge">
<title>Node1&#45;&gt;Node4</title>
<path fill="none" stroke="midnightblue" d="M1533.13,-87.59C1279.83,-89.01 456.49,-88.96 199,-31 196.48,-30.43 193.91,-29.69 191.37,-28.83"/>
<polygon fill="midnightblue" stroke="midnightblue" points="192.48,-25.5 181.89,-25.13 189.94,-32.03 192.48,-25.5"/>
</g>
<!-- Node5 -->
<g id="node5" class="node">
<title>Node5</title>
<g id="a_node5"><a xlink:title=" ">
<polygon fill="white" stroke="#bfbfbf" points="208,-6 208,-25 276,-25 276,-6 208,-6"/>
<text text-anchor="middle" x="242" y="-13" font-family="Helvetica,sans-Serif" font-size="10.00">filesystem</text>
</a>
</g>
</g>
<!-- Node1&#45;&gt;Node5 -->
<g id="edge4" class="edge">
<title>Node1&#45;&gt;Node5</title>
<path fill="none" stroke="midnightblue" d="M1533.23,-86.61C1290.64,-84.9 527.13,-76 285,-31 281.1,-30.28 277.08,-29.28 273.12,-28.14"/>
<polygon fill="midnightblue" stroke="midnightblue" points="274.15,-24.79 263.56,-25.1 272.03,-31.46 274.15,-24.79"/>
</g>
<!-- Node6 -->
<g id="node6" class="node">
<title>Node6</title>
<g id="a_node6"><a xlink:title=" ">
<polygon fill="white" stroke="#bfbfbf" points="294.5,-6 294.5,-25 349.5,-25 349.5,-6 294.5,-6"/>
<text text-anchor="middle" x="322" y="-13" font-family="Helvetica,sans-Serif" font-size="10.00">fstream</text>
</a>
</g>
</g>
<!-- Node1&#45;&gt;Node6 -->
<g id="edge5" class="edge">
<title>Node1&#45;&gt;Node6</title>
<path fill="none" stroke="midnightblue" d="M1533.26,-86.85C1299.62,-85.89 585.13,-79 359,-31 355.99,-30.36 352.91,-29.51 349.87,-28.53"/>
<polygon fill="midnightblue" stroke="midnightblue" points="351.05,-25.23 340.45,-25.11 348.66,-31.81 351.05,-25.23"/>
</g>
<!-- Node7 -->
<g id="node7" class="node">
<title>Node7</title>
<g id="a_node7"><a xlink:title=" ">
<polygon fill="white" stroke="#bfbfbf" points="368,-6 368,-25 424,-25 424,-6 368,-6"/>
<text text-anchor="middle" x="396" y="-13" font-family="Helvetica,sans-Serif" font-size="10.00">iomanip</text>
</a>
</g>
</g>
<!-- Node1&#45;&gt;Node7 -->
<g id="edge6" class="edge">
<title>Node1&#45;&gt;Node7</title>
<path fill="none" stroke="midnightblue" d="M1533.37,-86.61C1309.22,-84.93 644.32,-76.17 433,-31 429.99,-30.36 426.91,-29.5 423.87,-28.52"/>
<polygon fill="midnightblue" stroke="midnightblue" points="425.05,-25.22 414.46,-25.09 422.66,-31.8 425.05,-25.22"/>
</g>
<!-- Node8 -->
<g id="node8" class="node">
<title>Node8</title>
<g id="a_node8"><a xlink:title=" ">
<polygon fill="white" stroke="#bfbfbf" points="442.5,-6 442.5,-25 499.5,-25 499.5,-6 442.5,-6"/>
<text text-anchor="middle" x="471" y="-13" font-family="Helvetica,sans-Serif" font-size="10.00">ostream</text>
</a>
</g>
</g>
<!-- Node1&#45;&gt;Node8 -->
<g id="edge7" class="edge">
<title>Node1&#45;&gt;Node8</title>
<path fill="none" stroke="midnightblue" d="M1533.31,-86.23C1319.07,-83.55 705.29,-72.37 509,-31 505.92,-30.35 502.76,-29.49 499.65,-28.51"/>
<polygon fill="midnightblue" stroke="midnightblue" points="500.57,-25.12 489.98,-25.08 498.23,-31.72 500.57,-25.12"/>
</g>
<!-- Node9 -->
<g id="node9" class="node">
<title>Node9</title>
<g id="a_node9"><a xlink:title=" ">
<polygon fill="white" stroke="#bfbfbf" points="518,-6 518,-25 574,-25 574,-6 518,-6"/>
<text text-anchor="middle" x="546" y="-13" font-family="Helvetica,sans-Serif" font-size="10.00">sstream</text>
</a>
</g>
</g>
<!-- Node1&#45;&gt;Node9 -->
<g id="edge8" class="edge">
<title>Node1&#45;&gt;Node9</title>
<path fill="none" stroke="midnightblue" d="M1533.25,-86C1328.93,-82.76 764.33,-70.42 583,-31 580,-30.35 576.92,-29.48 573.88,-28.5"/>
<polygon fill="midnightblue" stroke="midnightblue" points="575.06,-25.2 564.46,-25.07 572.66,-31.78 575.06,-25.2"/>
</g>
<!-- Node10 -->
<g id="node10" class="node">
<title>Node10</title>
<g id="a_node10"><a xlink:title=" ">
<polygon fill="white" stroke="#bfbfbf" points="592,-6 592,-25 636,-25 636,-6 592,-6"/>
<text text-anchor="middle" x="614" y="-13" font-family="Helvetica,sans-Serif" font-size="10.00">string</text>
</a>
</g>
</g>
<!-- Node1&#45;&gt;Node10 -->
<g id="edge9" class="edge">
<title>Node1&#45;&gt;Node10</title>
<path fill="none" stroke="midnightblue" d="M1533.42,-86.29C1337.69,-83.86 812.83,-73.46 645,-31 643.01,-30.5 641,-29.87 639,-29.15"/>
<polygon fill="midnightblue" stroke="midnightblue" points="639.92,-25.74 629.34,-25.08 637.2,-32.19 639.92,-25.74"/>
</g>
<!-- Node11 -->
<g id="node11" class="node">
<title>Node11</title>
<g id="a_node11"><a xlink:title=" ">
<polygon fill="white" stroke="#bfbfbf" points="654.5,-0.5 654.5,-30.5 779.5,-30.5 779.5,-0.5 654.5,-0.5"/>
<text text-anchor="start" x="662.5" y="-18.5" font-family="Helvetica,sans-Serif" font-size="10.00">boost/date_time/posix</text>
<text text-anchor="middle" x="717" y="-7.5" font-family="Helvetica,sans-Serif" font-size="10.00">_time/posix_time.hpp</text>
</a>
</g>
</g>
<!-- Node1&#45;&gt;Node11 -->
<g id="edge10" class="edge">
<title>Node1&#45;&gt;Node11</title>
<path fill="none" stroke="midnightblue" d="M1533.32,-85.23C1390.5,-81.11 1068.73,-68.34 789.56,-31.1"/>
<polygon fill="midnightblue" stroke="midnightblue" points="790.02,-27.63 779.64,-29.76 789.09,-34.57 790.02,-27.63"/>
</g>
<!-- Node12 -->
<g id="node12" class="node">
<title>Node12</title>
<g id="a_node12"><a xlink:title=" ">
<polygon fill="white" stroke="#bfbfbf" points="797.5,-0.5 797.5,-30.5 952.5,-30.5 952.5,-0.5 797.5,-0.5"/>
<text text-anchor="start" x="805.5" y="-18.5" font-family="Helvetica,sans-Serif" font-size="10.00">boost/date_time/posix</text>
<text text-anchor="middle" x="875" y="-7.5" font-family="Helvetica,sans-Serif" font-size="10.00">_time/posix_time_types.hpp</text>
</a>
</g>
</g>
<!-- Node1&#45;&gt;Node12 -->
<g id="edge11" class="edge">
<title>Node1&#45;&gt;Node12</title>
<path fill="none" stroke="midnightblue" d="M1533.07,-82.49C1414.21,-74.89 1174.98,-57.83 962.85,-31.18"/>
<polygon fill="midnightblue" stroke="midnightblue" points="963.13,-27.69 952.77,-29.9 962.26,-34.63 963.13,-27.69"/>
</g>
<!-- Node13 -->
<g id="node13" class="node">
<title>Node13</title>
<g id="a_node13"><a xlink:title=" ">
<polygon fill="white" stroke="#bfbfbf" points="970.5,-6 970.5,-25 1103.5,-25 1103.5,-6 970.5,-6"/>
<text text-anchor="middle" x="1037" y="-13" font-family="Helvetica,sans-Serif" font-size="10.00">boost/log/attributes.hpp</text>
</a>
</g>
</g>
<!-- Node1&#45;&gt;Node13 -->
<g id="edge12" class="edge">
<title>Node1&#45;&gt;Node13</title>
<path fill="none" stroke="midnightblue" d="M1533.13,-80.31C1435.98,-71.23 1261.35,-53.51 1113,-31 1105.16,-29.81 1096.89,-28.4 1088.8,-26.93"/>
<polygon fill="midnightblue" stroke="midnightblue" points="1089.19,-23.44 1078.71,-25.05 1087.9,-30.32 1089.19,-23.44"/>
</g>
<!-- Node14 -->
<g id="node14" class="node">
<title>Node14</title>
<g id="a_node14"><a xlink:title=" ">
<polygon fill="white" stroke="#bfbfbf" points="1122,-0.5 1122,-30.5 1244,-30.5 1244,-0.5 1122,-0.5"/>
<text text-anchor="start" x="1130" y="-18.5" font-family="Helvetica,sans-Serif" font-size="10.00">boost/log/attributes</text>
<text text-anchor="middle" x="1183" y="-7.5" font-family="Helvetica,sans-Serif" font-size="10.00">/scoped_attribute.hpp</text>
</a>
</g>
</g>
<!-- Node1&#45;&gt;Node14 -->
<g id="edge13" class="edge">
<title>Node1&#45;&gt;Node14</title>
<path fill="none" stroke="midnightblue" d="M1533.37,-76.29C1463.66,-66.04 1356.48,-49.66 1253.96,-31.13"/>
<polygon fill="midnightblue" stroke="midnightblue" points="1254.51,-27.67 1244.05,-29.33 1253.26,-34.56 1254.51,-27.67"/>
</g>
<!-- Node15 -->
<g id="node15" class="node">
<title>Node15</title>
<g id="a_node15"><a xlink:title=" ">
<polygon fill="white" stroke="#bfbfbf" points="1262.5,-6 1262.5,-25 1369.5,-25 1369.5,-6 1262.5,-6"/>
<text text-anchor="middle" x="1316" y="-13" font-family="Helvetica,sans-Serif" font-size="10.00">boost/log/core.hpp</text>
</a>
</g>
</g>
<!-- Node1&#45;&gt;Node15 -->
<g id="edge14" class="edge">
<title>Node1&#45;&gt;Node15</title>
<path fill="none" stroke="midnightblue" d="M1533.18,-68.94C1478.83,-55.81 1407.05,-38.48 1361.19,-27.41"/>
<polygon fill="midnightblue" stroke="midnightblue" points="1361.79,-23.96 1351.25,-25.01 1360.15,-30.76 1361.79,-23.96"/>
</g>
<!-- Node16 -->
<g id="node16" class="node">
<title>Node16</title>
<g id="a_node16"><a xlink:title=" ">
<polygon fill="white" stroke="#bfbfbf" points="1388,-6 1388,-25 1532,-25 1532,-6 1388,-6"/>
<text text-anchor="middle" x="1460" y="-13" font-family="Helvetica,sans-Serif" font-size="10.00">boost/log/expressions.hpp</text>
</a>
</g>
</g>
<!-- Node1&#45;&gt;Node16 -->
<g id="edge15" class="edge">
<title>Node1&#45;&gt;Node16</title>
<path fill="none" stroke="midnightblue" d="M1566.77,-67.36C1541.44,-55.29 1509.69,-40.17 1487.42,-29.56"/>
<polygon fill="midnightblue" stroke="midnightblue" points="1488.74,-26.31 1478.21,-25.17 1485.73,-32.63 1488.74,-26.31"/>
</g>
<!-- Node17 -->
<g id="node17" class="node">
<title>Node17</title>
<g id="a_node17"><a xlink:title=" ">
<polygon fill="white" stroke="#bfbfbf" points="1550,-0.5 1550,-30.5 1666,-30.5 1666,-0.5 1550,-0.5"/>
<text text-anchor="start" x="1558" y="-18.5" font-family="Helvetica,sans-Serif" font-size="10.00">boost/log/sinks/sync</text>
<text text-anchor="middle" x="1608" y="-7.5" font-family="Helvetica,sans-Serif" font-size="10.00">_frontend.hpp</text>
</a>
</g>
</g>
<!-- Node1&#45;&gt;Node17 -->
<g id="edge16" class="edge">
<title>Node1&#45;&gt;Node17</title>
<path fill="none" stroke="midnightblue" d="M1608,-67.36C1608,-59.23 1608,-49.7 1608,-41.11"/>
<polygon fill="midnightblue" stroke="midnightblue" points="1611.5,-40.89 1608,-30.89 1604.5,-40.89 1611.5,-40.89"/>
</g>
<!-- Node18 -->
<g id="node18" class="node">
<title>Node18</title>
<g id="a_node18"><a xlink:title=" ">
<polygon fill="white" stroke="#bfbfbf" points="1684.5,-0.5 1684.5,-30.5 1813.5,-30.5 1813.5,-0.5 1684.5,-0.5"/>
<text text-anchor="start" x="1692.5" y="-18.5" font-family="Helvetica,sans-Serif" font-size="10.00">boost/log/sinks/text</text>
<text text-anchor="middle" x="1749" y="-7.5" font-family="Helvetica,sans-Serif" font-size="10.00">_ostream_backend.hpp</text>
</a>
</g>
</g>
<!-- Node1&#45;&gt;Node18 -->
<g id="edge17" class="edge">
<title>Node1&#45;&gt;Node18</title>
<path fill="none" stroke="midnightblue" d="M1647.28,-67.36C1667.4,-57.3 1691.77,-45.12 1711.61,-35.2"/>
<polygon fill="midnightblue" stroke="midnightblue" points="1713.28,-38.27 1720.66,-30.67 1710.15,-32.01 1713.28,-38.27"/>
</g>
<!-- Node19 -->
<g id="node19" class="node">
<title>Node19</title>
<g id="a_node19"><a xlink:title=" ">
<polygon fill="white" stroke="#bfbfbf" points="1831.5,-0.5 1831.5,-30.5 1962.5,-30.5 1962.5,-0.5 1831.5,-0.5"/>
<text text-anchor="start" x="1839.5" y="-18.5" font-family="Helvetica,sans-Serif" font-size="10.00">boost/log/sources/basic</text>
<text text-anchor="middle" x="1897" y="-7.5" font-family="Helvetica,sans-Serif" font-size="10.00">_logger.hpp</text>
</a>
</g>
</g>
<!-- Node1&#45;&gt;Node19 -->
<g id="edge18" class="edge">
<title>Node1&#45;&gt;Node19</title>
<path fill="none" stroke="midnightblue" d="M1682.8,-68.75C1728.2,-57.68 1785.68,-43.66 1829.66,-32.93"/>
<polygon fill="midnightblue" stroke="midnightblue" points="1830.51,-36.32 1839.39,-30.55 1828.85,-29.52 1830.51,-36.32"/>
</g>
<!-- Node20 -->
<g id="node20" class="node">
<title>Node20</title>
<g id="a_node20"><a xlink:title=" ">
<polygon fill="white" stroke="#bfbfbf" points="1981,-6 1981,-25 2137,-25 2137,-6 1981,-6"/>
<text text-anchor="middle" x="2059" y="-13" font-family="Helvetica,sans-Serif" font-size="10.00">boost/log/sources/logger.hpp</text>
</a>
</g>
</g>
<!-- Node1&#45;&gt;Node20 -->
<g id="edge19" class="edge">
<title>Node1&#45;&gt;Node20</title>
<path fill="none" stroke="midnightblue" d="M1682.64,-75.8C1756.24,-64.68 1871.94,-47.04 1972,-31 1980.57,-29.63 1989.61,-28.15 1998.49,-26.69"/>
<polygon fill="midnightblue" stroke="midnightblue" points="1999.12,-30.13 2008.41,-25.04 1997.98,-23.22 1999.12,-30.13"/>
</g>
<!-- Node21 -->
<g id="node21" class="node">
<title>Node21</title>
<g id="a_node21"><a xlink:title=" ">
<polygon fill="white" stroke="#bfbfbf" points="2155,-0.5 2155,-30.5 2291,-30.5 2291,-0.5 2155,-0.5"/>
<text text-anchor="start" x="2163" y="-18.5" font-family="Helvetica,sans-Serif" font-size="10.00">boost/log/sources/record</text>
<text text-anchor="middle" x="2223" y="-7.5" font-family="Helvetica,sans-Serif" font-size="10.00">_ostream.hpp</text>
</a>
</g>
</g>
<!-- Node1&#45;&gt;Node21 -->
<g id="edge20" class="edge">
<title>Node1&#45;&gt;Node21</title>
<path fill="none" stroke="midnightblue" d="M1682.65,-81.19C1784.77,-72.8 1973.92,-55.71 2144.69,-31.12"/>
<polygon fill="midnightblue" stroke="midnightblue" points="2145.22,-34.58 2154.62,-29.68 2144.22,-27.65 2145.22,-34.58"/>
</g>
<!-- Node22 -->
<g id="node22" class="node">
<title>Node22</title>
<g id="a_node22"><a xlink:title=" ">
<polygon fill="white" stroke="#bfbfbf" points="2309.5,-0.5 2309.5,-30.5 2454.5,-30.5 2454.5,-0.5 2309.5,-0.5"/>
<text text-anchor="start" x="2317.5" y="-18.5" font-family="Helvetica,sans-Serif" font-size="10.00">boost/log/sources/severity</text>
<text text-anchor="middle" x="2382" y="-7.5" font-family="Helvetica,sans-Serif" font-size="10.00">_channel_logger.hpp</text>
</a>
</g>
</g>
<!-- Node1&#45;&gt;Node22 -->
<g id="edge21" class="edge">
<title>Node1&#45;&gt;Node22</title>
<path fill="none" stroke="midnightblue" d="M1682.74,-83.27C1808.03,-76.5 2068.52,-60.25 2298.92,-31.06"/>
<polygon fill="midnightblue" stroke="midnightblue" points="2299.7,-34.48 2309.18,-29.74 2298.81,-27.54 2299.7,-34.48"/>
</g>
<!-- Node23 -->
<g id="node23" class="node">
<title>Node23</title>
<g id="a_node23"><a xlink:title=" ">
<polygon fill="white" stroke="#bfbfbf" points="2472.5,-0.5 2472.5,-30.5 2617.5,-30.5 2617.5,-0.5 2472.5,-0.5"/>
<text text-anchor="start" x="2480.5" y="-18.5" font-family="Helvetica,sans-Serif" font-size="10.00">boost/log/sources/severity</text>
<text text-anchor="middle" x="2545" y="-7.5" font-family="Helvetica,sans-Serif" font-size="10.00">_logger.hpp</text>
</a>
</g>
</g>
<!-- Node1&#45;&gt;Node23 -->
<g id="edge22" class="edge">
<title>Node1&#45;&gt;Node23</title>
<path fill="none" stroke="midnightblue" d="M1682.69,-84.92C1830.05,-80.21 2168.74,-66.35 2462.22,-31.14"/>
<polygon fill="midnightblue" stroke="midnightblue" points="2462.69,-34.6 2472.2,-29.93 2461.85,-27.66 2462.69,-34.6"/>
</g>
<!-- Node24 -->
<g id="node24" class="node">
<title>Node24</title>
<g id="a_node24"><a xlink:title=" ">
<polygon fill="white" stroke="#bfbfbf" points="2636,-0.5 2636,-30.5 2762,-30.5 2762,-0.5 2636,-0.5"/>
<text text-anchor="start" x="2644" y="-18.5" font-family="Helvetica,sans-Serif" font-size="10.00">boost/log/support/date</text>
<text text-anchor="middle" x="2699" y="-7.5" font-family="Helvetica,sans-Serif" font-size="10.00">_time.hpp</text>
</a>
</g>
</g>
<!-- Node1&#45;&gt;Node24 -->
<g id="edge23" class="edge">
<title>Node1&#45;&gt;Node24</title>
<path fill="none" stroke="midnightblue" d="M1682.81,-86.56C1850.23,-84.79 2267.87,-75.96 2625.83,-31.02"/>
<polygon fill="midnightblue" stroke="midnightblue" points="2626.39,-34.48 2635.87,-29.75 2625.51,-27.53 2626.39,-34.48"/>
</g>
<!-- Node25 -->
<g id="node25" class="node">
<title>Node25</title>
<g id="a_node25"><a xlink:title=" ">
<polygon fill="white" stroke="#bfbfbf" points="2780,-6 2780,-25 2894,-25 2894,-6 2780,-6"/>
<text text-anchor="middle" x="2837" y="-13" font-family="Helvetica,sans-Serif" font-size="10.00">boost/log/trivial.hpp</text>
</a>
</g>
</g>
<!-- Node1&#45;&gt;Node25 -->
<g id="edge24" class="edge">
<title>Node1&#45;&gt;Node25</title>
<path fill="none" stroke="midnightblue" d="M1682.54,-87.74C1867.63,-88.63 2362.73,-85.29 2771,-31 2778.28,-30.03 2785.94,-28.67 2793.36,-27.17"/>
<polygon fill="midnightblue" stroke="midnightblue" points="2794.23,-30.56 2803.28,-25.05 2792.77,-23.72 2794.23,-30.56"/>
</g>
<!-- Node26 -->
<g id="node26" class="node">
<title>Node26</title>
<g id="a_node26"><a xlink:title=" ">
<polygon fill="white" stroke="#bfbfbf" points="2912,-0.5 2912,-30.5 3048,-30.5 3048,-0.5 2912,-0.5"/>
<text text-anchor="start" x="2920" y="-18.5" font-family="Helvetica,sans-Serif" font-size="10.00">boost/log/utility/setup</text>
<text text-anchor="middle" x="2980" y="-7.5" font-family="Helvetica,sans-Serif" font-size="10.00">/common_attributes.hpp</text>
</a>
</g>
</g>
<!-- Node1&#45;&gt;Node26 -->
<g id="edge25" class="edge">
<title>Node1&#45;&gt;Node26</title>
<path fill="none" stroke="midnightblue" d="M1682.75,-87.49C1880.45,-88 2433.45,-84.23 2901.64,-31.04"/>
<polygon fill="midnightblue" stroke="midnightblue" points="2902.11,-34.51 2911.64,-29.9 2901.31,-27.56 2902.11,-34.51"/>
</g>
<!-- Node27 -->
<g id="node27" class="node">
<title>Node27</title>
<g id="a_node27"><a xlink:title=" ">
<polygon fill="white" stroke="#bfbfbf" points="3066.5,-0.5 3066.5,-30.5 3189.5,-30.5 3189.5,-0.5 3066.5,-0.5"/>
<text text-anchor="start" x="3074.5" y="-18.5" font-family="Helvetica,sans-Serif" font-size="10.00">boost/log/utility/setup</text>
<text text-anchor="middle" x="3128" y="-7.5" font-family="Helvetica,sans-Serif" font-size="10.00">/file.hpp</text>
</a>
</g>
</g>
<!-- Node1&#45;&gt;Node27 -->
<g id="edge26" class="edge">
<title>Node1&#45;&gt;Node27</title>
<path fill="none" stroke="midnightblue" d="M1682.86,-85.72C1937.09,-81.12 2767.14,-63.99 3056.09,-30.93"/>
<polygon fill="midnightblue" stroke="midnightblue" points="3056.62,-34.4 3066.14,-29.75 3055.8,-27.44 3056.62,-34.4"/>
</g>
<!-- Node28 -->
<g id="node28" class="node">
<title>Node28</title>
<g id="a_node28"><a xlink:title=" ">
<polygon fill="white" stroke="#bfbfbf" points="3207.5,-0.5 3207.5,-30.5 3330.5,-30.5 3330.5,-0.5 3207.5,-0.5"/>
<text text-anchor="start" x="3215.5" y="-18.5" font-family="Helvetica,sans-Serif" font-size="10.00">boost/log/utility/value</text>
<text text-anchor="middle" x="3269" y="-7.5" font-family="Helvetica,sans-Serif" font-size="10.00">_ref.hpp</text>
</a>
</g>
</g>
<!-- Node1&#45;&gt;Node28 -->
<g id="edge27" class="edge">
<title>Node1&#45;&gt;Node28</title>
<path fill="none" stroke="midnightblue" d="M1682.52,-86.05C1952.46,-82.35 2879.51,-67.33 3197.13,-31.07"/>
<polygon fill="midnightblue" stroke="midnightblue" points="3197.73,-34.52 3207.26,-29.88 3196.92,-27.57 3197.73,-34.52"/>
</g>
<!-- Node29 -->
<g id="node29" class="node">
<title>Node29</title>
<g id="a_node29"><a xlink:title=" ">
<polygon fill="white" stroke="#bfbfbf" points="3348.5,-6 3348.5,-25 3479.5,-25 3479.5,-6 3348.5,-6"/>
<text text-anchor="middle" x="3414" y="-13" font-family="Helvetica,sans-Serif" font-size="10.00">boost/phoenix/bind.hpp</text>
</a>
</g>
</g>
<!-- Node1&#45;&gt;Node29 -->
<g id="edge28" class="edge">
<title>Node1&#45;&gt;Node29</title>
<path fill="none" stroke="midnightblue" d="M1682.59,-86.19C1970.76,-82.81 3011.54,-68.24 3340,-31 3348.6,-30.02 3357.7,-28.59 3366.46,-26.99"/>
<polygon fill="midnightblue" stroke="midnightblue" points="3367.37,-30.38 3376.54,-25.06 3366.06,-23.5 3367.37,-30.38"/>
</g>
<!-- Node30 -->
<g id="node30" class="node">
<title>Node30</title>
<g id="a_node30"><a xlink:title=" ">
<polygon fill="white" stroke="#bfbfbf" points="3498,-0.5 3498,-30.5 3622,-30.5 3622,-0.5 3498,-0.5"/>
<text text-anchor="start" x="3506" y="-18.5" font-family="Helvetica,sans-Serif" font-size="10.00">boost/smart_ptr/make</text>
<text text-anchor="middle" x="3560" y="-7.5" font-family="Helvetica,sans-Serif" font-size="10.00">_shared_object.hpp</text>
</a>
</g>
</g>
<!-- Node1&#45;&gt;Node30 -->
<g id="edge29" class="edge">
<title>Node1&#45;&gt;Node30</title>
<path fill="none" stroke="midnightblue" d="M1682.72,-86.49C1983.79,-84.17 3109.4,-72.9 3487.6,-30.99"/>
<polygon fill="midnightblue" stroke="midnightblue" points="3488.22,-34.45 3497.76,-29.84 3487.43,-27.49 3488.22,-34.45"/>
</g>
<!-- Node31 -->
<g id="node31" class="node">
<title>Node31</title>
<g id="a_node31"><a xlink:title=" ">
<polygon fill="white" stroke="#bfbfbf" points="3640,-0.5 3640,-30.5 3770,-30.5 3770,-0.5 3640,-0.5"/>
<text text-anchor="start" x="3648" y="-18.5" font-family="Helvetica,sans-Serif" font-size="10.00">boost/smart_ptr/shared</text>
<text text-anchor="middle" x="3705" y="-7.5" font-family="Helvetica,sans-Serif" font-size="10.00">_ptr.hpp</text>
</a>
</g>
</g>
<!-- Node1&#45;&gt;Node31 -->
<g id="edge30" class="edge">
<title>Node1&#45;&gt;Node31</title>
<path fill="none" stroke="midnightblue" d="M1682.63,-86.59C1997.8,-84.61 3221.85,-74.32 3629.65,-31"/>
<polygon fill="midnightblue" stroke="midnightblue" points="3630.16,-34.46 3639.72,-29.9 3629.4,-27.5 3630.16,-34.46"/>
</g>
<!-- Node32 -->
<g id="node32" class="node">
<title>Node32</title>
<g id="a_node32"><a xlink:title=" ">
<polygon fill="white" stroke="#bfbfbf" points="3788.5,-6 3788.5,-25 3865.5,-25 3865.5,-6 3788.5,-6"/>
<text text-anchor="middle" x="3827" y="-13" font-family="Helvetica,sans-Serif" font-size="10.00">Eigen/Dense</text>
</a>
</g>
</g>
<!-- Node1&#45;&gt;Node32 -->
<g id="edge31" class="edge">
<title>Node1&#45;&gt;Node32</title>
<path fill="none" stroke="midnightblue" d="M1682.68,-86.26C2040.26,-82.55 3568.86,-64.82 3779,-31 3783.8,-30.23 3788.78,-29.1 3793.65,-27.82"/>
<polygon fill="midnightblue" stroke="midnightblue" points="3794.73,-31.15 3803.37,-25.01 3792.79,-24.42 3794.73,-31.15"/>
</g>
</g>
</svg>
        <g id="navigator" transform="translate(0 0)" fill="#404254">
                <rect fill="#f2f5e9" fill-opacity="0.5" stroke="#606060" stroke-width=".5" x="0" y="0" width="60" height="60"/>
                <use id="zoomplus" xlink:href="#zoomPlus" x="17" y="9" onmousedown="handleZoom(evt,'in')"/>
                <use id="zoomminus" xlink:href="#zoomMin" x="42" y="9" onmousedown="handleZoom(evt,'out')"/>
                <use id="reset" xlink:href="#resetDef" x="30" y="36" onmousedown="handleReset()"/>
                <g id="arrowUp" xlink:href="#dirArrow" transform="translate(30 24)" onmousedown="handlePan(0,-1)">
                  <use xlink:href="#rim" fill="#404040">
                        <set attributeName="fill" to="#808080" begin="arrowUp.mouseover" end="arrowUp.mouseout"/>
                  </use>
                  <path fill="none" stroke="white" stroke-width="1.5" d="M0,-3.0v7 M-2.5,-0.5L0,-3.0L2.5,-0.5"/>
                </g>
                <g id="arrowRight" xlink:href="#dirArrow" transform="rotate(90) translate(36 -43)" onmousedown="handlePan(1,0)">
                  <use xlink:href="#rim" fill="#404040">
                        <set attributeName="fill" to="#808080" begin="arrowRight.mouseover" end="arrowRight.mouseout"/>
                  </use>
                  <path fill="none" stroke="white" stroke-width="1.5" d="M0,-3.0v7 M-2.5,-0.5L0,-3.0L2.5,-0.5"/>
                </g>
                <g id="arrowDown" xlink:href="#dirArrow" transform="rotate(180) translate(-30 -48)" onmousedown="handlePan(0,1)">
                  <use xlink:href="#rim" fill="#404040">
                        <set attributeName="fill" to="#808080" begin="arrowDown.mouseover" end="arrowDown.mouseout"/>
                  </use>
                  <path fill="none" stroke="white" stroke-width="1.5" d="M0,-3.0v7 M-2.5,-0.5L0,-3.0L2.5,-0.5"/>
                </g>
                <g id="arrowLeft" xlink:href="#dirArrow" transform="rotate(270) translate(-36 17)" onmousedown="handlePan(-1,0)">
                  <use xlink:href="#rim" fill="#404040">
                        <set attributeName="fill" to="#808080" begin="arrowLeft.mouseover" end="arrowLeft.mouseout"/>
                  </use>
                  <path fill="none" stroke="white" stroke-width="1.5" d="M0,-3.0v7 M-2.5,-0.5L0,-3.0L2.5,-0.5"/>
                </g>
        </g>
        <svg viewBox="0 0 15 15" width="100%" height="30px" preserveAspectRatio="xMaxYMin meet">
         <g id="arrow_out" transform="scale(0.3 0.3)">
          <a xlink:href="logging__mocap_8hpp__incl_org.svg" target="_base">
           <rect id="button" ry="5" rx="5" y="6" x="6" height="38" width="38"
                fill="#f2f5e9" fill-opacity="0.5" stroke="#606060" stroke-width="1.0"/>
           <path id="arrow"
             d="M 11.500037,31.436501 C 11.940474,20.09759 22.043105,11.32322 32.158766,21.979434 L 37.068811,17.246167 C 37.068811,17.246167 37.088388,32 37.088388,32 L 22.160133,31.978069 C 22.160133,31.978069 26.997745,27.140456 26.997745,27.140456 C 18.528582,18.264221 13.291696,25.230495 11.500037,31.436501 z"
             style="fill:#404040;"/>
          </a>
         </g>
        </svg>
</svg>
