<?xml version="1.0" encoding="UTF-8" standalone="no"?>
<!DOCTYPE svg PUBLIC "-//W3C//DTD SVG 1.1//EN"
 "http://www.w3.org/Graphics/SVG/1.1/DTD/svg11.dtd">
<!-- Generated by graphviz version 2.43.0 (0)
 -->
<!-- Title: ACSL&#45;flightstack/src/control/mrac/logging_mrac.cpp Pages: 1 -->
<svg width="5085pt" height="229pt"
 viewBox="0.00 0.00 5084.87 229.00" xmlns="http://www.w3.org/2000/svg" xmlns:xlink="http://www.w3.org/1999/xlink">
<g id="graph0" class="graph" transform="scale(1 1) rotate(0) translate(4 225)">
<title>ACSL&#45;flightstack/src/control/mrac/logging_mrac.cpp</title>
<polygon fill="white" stroke="transparent" points="-4,4 -4,-225 5080.87,-225 5080.87,4 -4,4"/>
<!-- Node1 -->
<g id="node1" class="node">
<title>Node1</title>
<g id="a_node1"><a xlink:title="Logger for the MRAC controller.">
<polygon fill="#bfbfbf" stroke="black" points="941.37,-179.5 941.37,-220.5 1061.37,-220.5 1061.37,-179.5 941.37,-179.5"/>
<text text-anchor="start" x="949.37" y="-208.5" font-family="Helvetica,sans-Serif" font-size="10.00">ACSL&#45;flightstack/src</text>
<text text-anchor="start" x="949.37" y="-197.5" font-family="Helvetica,sans-Serif" font-size="10.00">/control/mrac/logging</text>
<text text-anchor="middle" x="1001.37" y="-186.5" font-family="Helvetica,sans-Serif" font-size="10.00">_mrac.cpp</text>
</a>
</g>
</g>
<!-- Node2 -->
<g id="node2" class="node">
<title>Node2</title>
<g id="a_node2"><a xlink:href="mrac_8hpp.html" target="_top" xlink:title="Implementation of MRAC controller.">
<polygon fill="white" stroke="black" points="329.37,-123.5 329.37,-142.5 391.37,-142.5 391.37,-123.5 329.37,-123.5"/>
<text text-anchor="middle" x="360.37" y="-130.5" font-family="Helvetica,sans-Serif" font-size="10.00">mrac.hpp</text>
</a>
</g>
</g>
<!-- Node1&#45;&gt;Node2 -->
<g id="edge1" class="edge">
<title>Node1&#45;&gt;Node2</title>
<path fill="none" stroke="midnightblue" d="M941.35,-192.91C812.31,-179.83 511.26,-149.3 401.41,-138.16"/>
<polygon fill="midnightblue" stroke="midnightblue" points="401.7,-134.67 391.39,-137.15 400.99,-141.64 401.7,-134.67"/>
</g>
<!-- Node23 -->
<g id="node14" class="node">
<title>Node23</title>
<g id="a_node14"><a xlink:href="logging__mrac_8hpp.html" target="_top" xlink:title="Logger for the MRAC controller.">
<polygon fill="white" stroke="black" points="2655.37,-123.5 2655.37,-142.5 2759.37,-142.5 2759.37,-123.5 2655.37,-123.5"/>
<text text-anchor="middle" x="2707.37" y="-130.5" font-family="Helvetica,sans-Serif" font-size="10.00">logging_mrac.hpp</text>
</a>
</g>
</g>
<!-- Node1&#45;&gt;Node23 -->
<g id="edge20" class="edge">
<title>Node1&#45;&gt;Node23</title>
<path fill="none" stroke="midnightblue" d="M1061.58,-196.71C1325.2,-186.66 2376.31,-146.61 2644.71,-136.39"/>
<polygon fill="midnightblue" stroke="midnightblue" points="2645.19,-139.87 2655.05,-135.99 2644.92,-132.88 2645.19,-139.87"/>
</g>
<!-- Node51 -->
<g id="node43" class="node">
<title>Node51</title>
<g id="a_node43"><a xlink:href="multi__threaded__node_8hpp.html" target="_top" xlink:title="Multithreaded ROS2 node that joins together all the flight stack components.">
<polygon fill="white" stroke="red" points="930.87,-123.5 930.87,-142.5 1071.87,-142.5 1071.87,-123.5 930.87,-123.5"/>
<text text-anchor="middle" x="1001.37" y="-130.5" font-family="Helvetica,sans-Serif" font-size="10.00">multi_threaded_node.hpp</text>
</a>
</g>
</g>
<!-- Node1&#45;&gt;Node51 -->
<g id="edge52" class="edge">
<title>Node1&#45;&gt;Node51</title>
<path fill="none" stroke="midnightblue" d="M1001.37,-179.5C1001.37,-171.07 1001.37,-161.24 1001.37,-152.87"/>
<polygon fill="midnightblue" stroke="midnightblue" points="1004.87,-152.65 1001.37,-142.65 997.87,-152.65 1004.87,-152.65"/>
</g>
<!-- Node3 -->
<g id="node3" class="node">
<title>Node3</title>
<g id="a_node3"><a xlink:title=" ">
<polygon fill="white" stroke="#bfbfbf" points="411.87,-0.5 411.87,-19.5 458.87,-19.5 458.87,-0.5 411.87,-0.5"/>
<text text-anchor="middle" x="435.37" y="-7.5" font-family="Helvetica,sans-Serif" font-size="10.00">cmath</text>
</a>
</g>
</g>
<!-- Node2&#45;&gt;Node3 -->
<g id="edge2" class="edge">
<title>Node2&#45;&gt;Node3</title>
<path fill="none" stroke="midnightblue" d="M376.03,-123.35C388.79,-115.5 406.28,-102.76 416.37,-87 427.46,-69.67 432.08,-46.28 434,-30.05"/>
<polygon fill="midnightblue" stroke="midnightblue" points="437.52,-29.96 434.98,-19.68 430.55,-29.31 437.52,-29.96"/>
</g>
<!-- Node4 -->
<g id="node4" class="node">
<title>Node4</title>
<g id="a_node4"><a xlink:title=" ">
<polygon fill="white" stroke="#bfbfbf" points="81.37,-0.5 81.37,-19.5 145.37,-19.5 145.37,-0.5 81.37,-0.5"/>
<text text-anchor="middle" x="113.37" y="-7.5" font-family="Helvetica,sans-Serif" font-size="10.00">algorithm</text>
</a>
</g>
</g>
<!-- Node2&#45;&gt;Node4 -->
<g id="edge3" class="edge">
<title>Node2&#45;&gt;Node4</title>
<path fill="none" stroke="midnightblue" d="M329.35,-130.36C246.99,-125.7 27.61,-111.12 6.37,-87 -2.74,-76.66 -1.26,-67.48 6.37,-56 20.74,-34.36 47.78,-23.1 71.07,-17.26"/>
<polygon fill="midnightblue" stroke="midnightblue" points="72.12,-20.61 81.12,-15 70.59,-13.78 72.12,-20.61"/>
</g>
<!-- Node5 -->
<g id="node5" class="node">
<title>Node5</title>
<g id="a_node5"><a xlink:title=" ">
<polygon fill="white" stroke="#bfbfbf" points="1029.37,-62 1029.37,-81 1073.37,-81 1073.37,-62 1029.37,-62"/>
<text text-anchor="middle" x="1051.37" y="-69" font-family="Helvetica,sans-Serif" font-size="10.00">string</text>
</a>
</g>
</g>
<!-- Node2&#45;&gt;Node5 -->
<g id="edge4" class="edge">
<title>Node2&#45;&gt;Node5</title>
<path fill="none" stroke="midnightblue" d="M391.54,-131.19C482.69,-128.53 756.53,-118.29 981.37,-87 993.82,-85.27 1007.38,-82.63 1019.22,-80.09"/>
<polygon fill="midnightblue" stroke="midnightblue" points="1020.11,-83.47 1029.11,-77.89 1018.59,-76.64 1020.11,-83.47"/>
</g>
<!-- Node6 -->
<g id="node6" class="node">
<title>Node6</title>
<g id="a_node6"><a xlink:title=" ">
<polygon fill="white" stroke="#bfbfbf" points="253.87,-0.5 253.87,-19.5 330.87,-19.5 330.87,-0.5 253.87,-0.5"/>
<text text-anchor="middle" x="292.37" y="-7.5" font-family="Helvetica,sans-Serif" font-size="10.00">Eigen/Dense</text>
</a>
</g>
</g>
<!-- Node2&#45;&gt;Node6 -->
<g id="edge5" class="edge">
<title>Node2&#45;&gt;Node6</title>
<path fill="none" stroke="midnightblue" d="M329.35,-130.24C248.64,-125.35 36.9,-110.4 16.37,-87 7.28,-76.65 7.44,-66.5 16.37,-56 30.9,-38.91 168.28,-23.04 243.57,-15.54"/>
<polygon fill="midnightblue" stroke="midnightblue" points="244.16,-19 253.77,-14.54 243.47,-12.03 244.16,-19"/>
</g>
<!-- Node7 -->
<g id="node7" class="node">
<title>Node7</title>
<g id="a_node7"><a xlink:href="control_8hpp.html" target="_top" xlink:title="General class that contains common members used by most of the control algorithms.">
<polygon fill="white" stroke="red" points="463.87,-62 463.87,-81 534.87,-81 534.87,-62 463.87,-62"/>
<text text-anchor="middle" x="499.37" y="-69" font-family="Helvetica,sans-Serif" font-size="10.00">control.hpp</text>
</a>
</g>
</g>
<!-- Node2&#45;&gt;Node7 -->
<g id="edge6" class="edge">
<title>Node2&#45;&gt;Node7</title>
<path fill="none" stroke="midnightblue" d="M380.28,-123.48C403.82,-113.4 443.18,-96.55 470.16,-85"/>
<polygon fill="midnightblue" stroke="midnightblue" points="471.67,-88.16 479.49,-81.01 468.92,-81.73 471.67,-88.16"/>
</g>
<!-- Node19 -->
<g id="node11" class="node">
<title>Node19</title>
<g id="a_node11"><a xlink:href="mrac__gains_8hpp.html" target="_top" xlink:title="Tuning gains of the MRAC controller.">
<polygon fill="white" stroke="black" points="313.37,-62 313.37,-81 407.37,-81 407.37,-62 313.37,-62"/>
<text text-anchor="middle" x="360.37" y="-69" font-family="Helvetica,sans-Serif" font-size="10.00">mrac_gains.hpp</text>
</a>
</g>
</g>
<!-- Node2&#45;&gt;Node19 -->
<g id="edge12" class="edge">
<title>Node2&#45;&gt;Node19</title>
<path fill="none" stroke="midnightblue" d="M360.37,-123.48C360.37,-115.08 360.37,-101.98 360.37,-91.16"/>
<polygon fill="midnightblue" stroke="midnightblue" points="363.87,-91.01 360.37,-81.01 356.87,-91.01 363.87,-91.01"/>
</g>
<!-- Node20 -->
<g id="node12" class="node">
<title>Node20</title>
<g id="a_node12"><a xlink:href="continuous__lyapunov__equation_8hpp.html" target="_top" xlink:title=" ">
<polygon fill="white" stroke="red" points="25.37,-56.5 25.37,-86.5 145.37,-86.5 145.37,-56.5 25.37,-56.5"/>
<text text-anchor="start" x="33.37" y="-74.5" font-family="Helvetica,sans-Serif" font-size="10.00">continuous_lyapunov</text>
<text text-anchor="middle" x="85.37" y="-63.5" font-family="Helvetica,sans-Serif" font-size="10.00">_equation.hpp</text>
</a>
</g>
</g>
<!-- Node2&#45;&gt;Node20 -->
<g id="edge16" class="edge">
<title>Node2&#45;&gt;Node20</title>
<path fill="none" stroke="midnightblue" d="M329.36,-125.29C287.42,-116.22 211.42,-99.77 155.35,-87.64"/>
<polygon fill="midnightblue" stroke="midnightblue" points="155.99,-84.2 145.47,-85.51 154.51,-91.04 155.99,-84.2"/>
</g>
<!-- Node22 -->
<g id="node13" class="node">
<title>Node22</title>
<g id="a_node13"><a xlink:href="projection__operator_8hpp.html" target="_top" xlink:title="Implementation of the projection operator to be used in the MRAC controllers.">
<polygon fill="white" stroke="black" points="163.37,-62 163.37,-81 295.37,-81 295.37,-62 163.37,-62"/>
<text text-anchor="middle" x="229.37" y="-69" font-family="Helvetica,sans-Serif" font-size="10.00">projection_operator.hpp</text>
</a>
</g>
</g>
<!-- Node2&#45;&gt;Node22 -->
<g id="edge18" class="edge">
<title>Node2&#45;&gt;Node22</title>
<path fill="none" stroke="midnightblue" d="M341.6,-123.48C319.52,-113.45 282.65,-96.7 257.23,-85.15"/>
<polygon fill="midnightblue" stroke="midnightblue" points="258.65,-81.96 248.1,-81.01 255.76,-88.33 258.65,-81.96"/>
</g>
<!-- Node7&#45;&gt;Node3 -->
<g id="edge7" class="edge">
<title>Node7&#45;&gt;Node3</title>
<path fill="none" stroke="midnightblue" d="M490.2,-61.98C480.22,-52.7 464.05,-37.67 451.86,-26.33"/>
<polygon fill="midnightblue" stroke="midnightblue" points="454.23,-23.75 444.52,-19.51 449.46,-28.88 454.23,-23.75"/>
</g>
<!-- Node7&#45;&gt;Node6 -->
<g id="edge11" class="edge">
<title>Node7&#45;&gt;Node6</title>
<path fill="none" stroke="midnightblue" d="M469.71,-61.98C433.43,-51.55 371.9,-33.86 331.7,-22.31"/>
<polygon fill="midnightblue" stroke="midnightblue" points="332.55,-18.91 321.97,-19.51 330.61,-25.64 332.55,-18.91"/>
</g>
<!-- Node8 -->
<g id="node8" class="node">
<title>Node8</title>
<g id="a_node8"><a xlink:title=" ">
<polygon fill="white" stroke="#bfbfbf" points="941.87,-0.5 941.87,-19.5 988.87,-19.5 988.87,-0.5 941.87,-0.5"/>
<text text-anchor="middle" x="965.37" y="-7.5" font-family="Helvetica,sans-Serif" font-size="10.00">vector</text>
</a>
</g>
</g>
<!-- Node7&#45;&gt;Node8 -->
<g id="edge8" class="edge">
<title>Node7&#45;&gt;Node8</title>
<path fill="none" stroke="midnightblue" d="M522.94,-61.9C529.78,-59.68 537.3,-57.5 544.37,-56 686.29,-25.88 859.61,-15.46 931.56,-12.26"/>
<polygon fill="midnightblue" stroke="midnightblue" points="931.98,-15.75 941.83,-11.82 931.69,-8.75 931.98,-15.75"/>
</g>
<!-- Node9 -->
<g id="node9" class="node">
<title>Node9</title>
<g id="a_node9"><a xlink:title=" ">
<polygon fill="white" stroke="#bfbfbf" points="722.87,-0.5 722.87,-19.5 787.87,-19.5 787.87,-0.5 722.87,-0.5"/>
<text text-anchor="middle" x="755.37" y="-7.5" font-family="Helvetica,sans-Serif" font-size="10.00">functional</text>
</a>
</g>
</g>
<!-- Node7&#45;&gt;Node9 -->
<g id="edge9" class="edge">
<title>Node7&#45;&gt;Node9</title>
<path fill="none" stroke="midnightblue" d="M524.46,-61.92C530.91,-59.85 537.86,-57.74 544.37,-56 602.04,-40.6 669.67,-26.94 712.52,-18.81"/>
<polygon fill="midnightblue" stroke="midnightblue" points="713.41,-22.21 722.59,-16.92 712.12,-15.33 713.41,-22.21"/>
</g>
<!-- Node10 -->
<g id="node10" class="node">
<title>Node10</title>
<g id="a_node10"><a xlink:title=" ">
<polygon fill="white" stroke="#bfbfbf" points="1307.37,-0.5 1307.37,-19.5 1357.37,-19.5 1357.37,-0.5 1307.37,-0.5"/>
<text text-anchor="middle" x="1332.37" y="-7.5" font-family="Helvetica,sans-Serif" font-size="10.00">chrono</text>
</a>
</g>
</g>
<!-- Node7&#45;&gt;Node10 -->
<g id="edge10" class="edge">
<title>Node7&#45;&gt;Node10</title>
<path fill="none" stroke="midnightblue" d="M521.97,-61.98C529.04,-59.65 536.94,-57.38 544.37,-56 691.92,-28.48 1163.97,-15.11 1297.11,-11.82"/>
<polygon fill="midnightblue" stroke="midnightblue" points="1297.26,-15.32 1307.17,-11.58 1297.08,-8.32 1297.26,-15.32"/>
</g>
<!-- Node19&#45;&gt;Node3 -->
<g id="edge13" class="edge">
<title>Node19&#45;&gt;Node3</title>
<path fill="none" stroke="midnightblue" d="M371.11,-61.98C382.92,-52.61 402.11,-37.38 416.45,-26.01"/>
<polygon fill="midnightblue" stroke="midnightblue" points="418.98,-28.47 424.64,-19.51 414.63,-22.98 418.98,-28.47"/>
</g>
<!-- Node19&#45;&gt;Node4 -->
<g id="edge14" class="edge">
<title>Node19&#45;&gt;Node4</title>
<path fill="none" stroke="midnightblue" d="M327.82,-61.94C320.14,-59.96 311.97,-57.88 304.37,-56 253.21,-43.35 194.15,-29.56 155.4,-20.62"/>
<polygon fill="midnightblue" stroke="midnightblue" points="156.05,-17.18 145.52,-18.35 154.48,-24 156.05,-17.18"/>
</g>
<!-- Node19&#45;&gt;Node6 -->
<g id="edge15" class="edge">
<title>Node19&#45;&gt;Node6</title>
<path fill="none" stroke="midnightblue" d="M350.62,-61.98C340.02,-52.7 322.85,-37.67 309.89,-26.33"/>
<polygon fill="midnightblue" stroke="midnightblue" points="311.92,-23.46 302.09,-19.51 307.31,-28.73 311.92,-23.46"/>
</g>
<!-- Node20&#45;&gt;Node6 -->
<g id="edge17" class="edge">
<title>Node20&#45;&gt;Node6</title>
<path fill="none" stroke="midnightblue" d="M134.16,-56.47C170.34,-46.08 219.04,-32.08 252.8,-22.37"/>
<polygon fill="midnightblue" stroke="midnightblue" points="254.13,-25.63 262.77,-19.51 252.2,-18.91 254.13,-25.63"/>
</g>
<!-- Node22&#45;&gt;Node6 -->
<g id="edge19" class="edge">
<title>Node22&#45;&gt;Node6</title>
<path fill="none" stroke="midnightblue" d="M238.39,-61.98C248.12,-52.78 263.82,-37.96 275.79,-26.66"/>
<polygon fill="midnightblue" stroke="midnightblue" points="278.49,-28.92 283.36,-19.51 273.68,-23.83 278.49,-28.92"/>
</g>
<!-- Node23&#45;&gt;Node5 -->
<g id="edge29" class="edge">
<title>Node23&#45;&gt;Node5</title>
<path fill="none" stroke="midnightblue" d="M2655.15,-131.77C2416.46,-130.55 1427.62,-123.34 1120.37,-87 1108.27,-85.57 1095.15,-83.06 1083.63,-80.52"/>
<polygon fill="midnightblue" stroke="midnightblue" points="1084.1,-77.04 1073.57,-78.22 1082.54,-83.87 1084.1,-77.04"/>
</g>
<!-- Node23&#45;&gt;Node6 -->
<g id="edge51" class="edge">
<title>Node23&#45;&gt;Node6</title>
<path fill="none" stroke="midnightblue" d="M2655.19,-132.07C2433.5,-132.09 1575.93,-129.4 1463.37,-87 1442.97,-79.32 1445.77,-63.67 1425.37,-56 1318.91,-15.96 515.91,-26.64 402.37,-20 382.26,-18.82 360.12,-17.1 341.01,-15.47"/>
<polygon fill="midnightblue" stroke="midnightblue" points="341.29,-11.98 331.03,-14.6 340.69,-18.95 341.29,-11.98"/>
</g>
<!-- Node23&#45;&gt;Node10 -->
<g id="edge23" class="edge">
<title>Node23&#45;&gt;Node10</title>
<path fill="none" stroke="midnightblue" d="M2655.17,-128.04C2576.99,-121.54 2433.62,-107.28 2386.37,-87 2366.02,-78.27 2368.11,-63.76 2347.37,-56 2254.16,-21.14 1536.6,-12.77 1367.83,-11.28"/>
<polygon fill="midnightblue" stroke="midnightblue" points="1367.77,-7.78 1357.74,-11.19 1367.71,-14.78 1367.77,-7.78"/>
</g>
<!-- Node24 -->
<g id="node15" class="node">
<title>Node24</title>
<g id="a_node15"><a xlink:title=" ">
<polygon fill="white" stroke="#bfbfbf" points="1762.37,-62 1762.37,-81 1812.37,-81 1812.37,-62 1762.37,-62"/>
<text text-anchor="middle" x="1787.37" y="-69" font-family="Helvetica,sans-Serif" font-size="10.00">atomic</text>
</a>
</g>
</g>
<!-- Node23&#45;&gt;Node24 -->
<g id="edge21" class="edge">
<title>Node23&#45;&gt;Node24</title>
<path fill="none" stroke="midnightblue" d="M2655.25,-131.68C2490.51,-130.29 1982.48,-123.1 1822.37,-87 1819.69,-86.4 1816.96,-85.61 1814.26,-84.7"/>
<polygon fill="midnightblue" stroke="midnightblue" points="1815.38,-81.38 1804.79,-81.09 1812.88,-87.92 1815.38,-81.38"/>
</g>
<!-- Node25 -->
<g id="node16" class="node">
<title>Node25</title>
<g id="a_node16"><a xlink:title=" ">
<polygon fill="white" stroke="#bfbfbf" points="1830.87,-62 1830.87,-81 1883.87,-81 1883.87,-62 1830.87,-62"/>
<text text-anchor="middle" x="1857.37" y="-69" font-family="Helvetica,sans-Serif" font-size="10.00">cstddef</text>
</a>
</g>
</g>
<!-- Node23&#45;&gt;Node25 -->
<g id="edge22" class="edge">
<title>Node23&#45;&gt;Node25</title>
<path fill="none" stroke="midnightblue" d="M2655.1,-131.34C2499.22,-129.01 2039.38,-119.51 1893.37,-87 1890.53,-86.37 1887.63,-85.54 1884.76,-84.59"/>
<polygon fill="midnightblue" stroke="midnightblue" points="1885.9,-81.28 1875.31,-81.07 1883.46,-87.84 1885.9,-81.28"/>
</g>
<!-- Node26 -->
<g id="node17" class="node">
<title>Node26</title>
<g id="a_node17"><a xlink:title=" ">
<polygon fill="white" stroke="#bfbfbf" points="1902.37,-62 1902.37,-81 1970.37,-81 1970.37,-62 1902.37,-62"/>
<text text-anchor="middle" x="1936.37" y="-69" font-family="Helvetica,sans-Serif" font-size="10.00">filesystem</text>
</a>
</g>
</g>
<!-- Node23&#45;&gt;Node26 -->
<g id="edge24" class="edge">
<title>Node23&#45;&gt;Node26</title>
<path fill="none" stroke="midnightblue" d="M2655.12,-130.56C2510.83,-126.29 2108.99,-112.4 1979.37,-87 1975.48,-86.24 1971.46,-85.22 1967.5,-84.06"/>
<polygon fill="midnightblue" stroke="midnightblue" points="1968.53,-80.72 1957.94,-81.01 1966.4,-87.39 1968.53,-80.72"/>
</g>
<!-- Node14 -->
<g id="node18" class="node">
<title>Node14</title>
<g id="a_node18"><a xlink:title=" ">
<polygon fill="white" stroke="#bfbfbf" points="1360.87,-62 1360.87,-81 1415.87,-81 1415.87,-62 1360.87,-62"/>
<text text-anchor="middle" x="1388.37" y="-69" font-family="Helvetica,sans-Serif" font-size="10.00">fstream</text>
</a>
</g>
</g>
<!-- Node23&#45;&gt;Node14 -->
<g id="edge25" class="edge">
<title>Node23&#45;&gt;Node14</title>
<path fill="none" stroke="midnightblue" d="M2655.09,-132.22C2446.2,-132.79 1671.1,-131.76 1430.37,-87 1426.66,-86.31 1422.84,-85.36 1419.08,-84.26"/>
<polygon fill="midnightblue" stroke="midnightblue" points="1419.99,-80.88 1409.4,-81.13 1417.84,-87.54 1419.99,-80.88"/>
</g>
<!-- Node27 -->
<g id="node19" class="node">
<title>Node27</title>
<g id="a_node19"><a xlink:title=" ">
<polygon fill="white" stroke="#bfbfbf" points="1988.37,-62 1988.37,-81 2044.37,-81 2044.37,-62 1988.37,-62"/>
<text text-anchor="middle" x="2016.37" y="-69" font-family="Helvetica,sans-Serif" font-size="10.00">iomanip</text>
</a>
</g>
</g>
<!-- Node23&#45;&gt;Node27 -->
<g id="edge26" class="edge">
<title>Node23&#45;&gt;Node27</title>
<path fill="none" stroke="midnightblue" d="M2654.96,-130.38C2520.99,-125.93 2168.54,-112.13 2054.37,-87 2051.29,-86.32 2048.14,-85.44 2045.02,-84.45"/>
<polygon fill="midnightblue" stroke="midnightblue" points="2045.95,-81.07 2035.36,-81.01 2043.61,-87.66 2045.95,-81.07"/>
</g>
<!-- Node28 -->
<g id="node20" class="node">
<title>Node28</title>
<g id="a_node20"><a xlink:title=" ">
<polygon fill="white" stroke="#bfbfbf" points="2062.87,-62 2062.87,-81 2119.87,-81 2119.87,-62 2062.87,-62"/>
<text text-anchor="middle" x="2091.37" y="-69" font-family="Helvetica,sans-Serif" font-size="10.00">ostream</text>
</a>
</g>
</g>
<!-- Node23&#45;&gt;Node28 -->
<g id="edge27" class="edge">
<title>Node23&#45;&gt;Node28</title>
<path fill="none" stroke="midnightblue" d="M2655.21,-132.9C2552.98,-133.58 2319.63,-129.77 2129.37,-87 2126.36,-86.32 2123.28,-85.46 2120.23,-84.49"/>
<polygon fill="midnightblue" stroke="midnightblue" points="2121.35,-81.17 2110.76,-81.13 2119.01,-87.77 2121.35,-81.17"/>
</g>
<!-- Node29 -->
<g id="node21" class="node">
<title>Node29</title>
<g id="a_node21"><a xlink:title=" ">
<polygon fill="white" stroke="#bfbfbf" points="2138.37,-62 2138.37,-81 2194.37,-81 2194.37,-62 2138.37,-62"/>
<text text-anchor="middle" x="2166.37" y="-69" font-family="Helvetica,sans-Serif" font-size="10.00">sstream</text>
</a>
</g>
</g>
<!-- Node23&#45;&gt;Node29 -->
<g id="edge28" class="edge">
<title>Node23&#45;&gt;Node29</title>
<path fill="none" stroke="midnightblue" d="M2655.22,-132.03C2563.05,-131.04 2365.83,-124.27 2204.37,-87 2201.37,-86.31 2198.29,-85.43 2195.24,-84.45"/>
<polygon fill="midnightblue" stroke="midnightblue" points="2196.36,-81.14 2185.77,-81.08 2194.02,-87.73 2196.36,-81.14"/>
</g>
<!-- Node30 -->
<g id="node22" class="node">
<title>Node30</title>
<g id="a_node22"><a xlink:title=" ">
<polygon fill="white" stroke="#bfbfbf" points="2212.87,-56.5 2212.87,-86.5 2337.87,-86.5 2337.87,-56.5 2212.87,-56.5"/>
<text text-anchor="start" x="2220.87" y="-74.5" font-family="Helvetica,sans-Serif" font-size="10.00">boost/date_time/posix</text>
<text text-anchor="middle" x="2275.37" y="-63.5" font-family="Helvetica,sans-Serif" font-size="10.00">_time/posix_time.hpp</text>
</a>
</g>
</g>
<!-- Node23&#45;&gt;Node30 -->
<g id="edge30" class="edge">
<title>Node23&#45;&gt;Node30</title>
<path fill="none" stroke="midnightblue" d="M2655.2,-126.38C2585.86,-118.68 2459.61,-103.88 2352.37,-87 2350.9,-86.77 2349.41,-86.53 2347.92,-86.29"/>
<polygon fill="midnightblue" stroke="midnightblue" points="2348.37,-82.81 2337.93,-84.61 2347.21,-89.72 2348.37,-82.81"/>
</g>
<!-- Node31 -->
<g id="node23" class="node">
<title>Node31</title>
<g id="a_node23"><a xlink:title=" ">
<polygon fill="white" stroke="#bfbfbf" points="2394.87,-56.5 2394.87,-86.5 2549.87,-86.5 2549.87,-56.5 2394.87,-56.5"/>
<text text-anchor="start" x="2402.87" y="-74.5" font-family="Helvetica,sans-Serif" font-size="10.00">boost/date_time/posix</text>
<text text-anchor="middle" x="2472.37" y="-63.5" font-family="Helvetica,sans-Serif" font-size="10.00">_time/posix_time_types.hpp</text>
</a>
</g>
</g>
<!-- Node23&#45;&gt;Node31 -->
<g id="edge31" class="edge">
<title>Node23&#45;&gt;Node31</title>
<path fill="none" stroke="midnightblue" d="M2673.7,-123.48C2638.3,-114.51 2581.72,-100.19 2537.55,-89"/>
<polygon fill="midnightblue" stroke="midnightblue" points="2538.3,-85.58 2527.75,-86.52 2536.59,-92.37 2538.3,-85.58"/>
</g>
<!-- Node32 -->
<g id="node24" class="node">
<title>Node32</title>
<g id="a_node24"><a xlink:title=" ">
<polygon fill="white" stroke="#bfbfbf" points="2567.87,-62 2567.87,-81 2700.87,-81 2700.87,-62 2567.87,-62"/>
<text text-anchor="middle" x="2634.37" y="-69" font-family="Helvetica,sans-Serif" font-size="10.00">boost/log/attributes.hpp</text>
</a>
</g>
</g>
<!-- Node23&#45;&gt;Node32 -->
<g id="edge32" class="edge">
<title>Node23&#45;&gt;Node32</title>
<path fill="none" stroke="midnightblue" d="M2696.91,-123.48C2685.42,-114.11 2666.74,-98.88 2652.78,-87.51"/>
<polygon fill="midnightblue" stroke="midnightblue" points="2654.77,-84.61 2644.81,-81.01 2650.35,-90.04 2654.77,-84.61"/>
</g>
<!-- Node33 -->
<g id="node25" class="node">
<title>Node33</title>
<g id="a_node25"><a xlink:title=" ">
<polygon fill="white" stroke="#bfbfbf" points="2719.37,-56.5 2719.37,-86.5 2841.37,-86.5 2841.37,-56.5 2719.37,-56.5"/>
<text text-anchor="start" x="2727.37" y="-74.5" font-family="Helvetica,sans-Serif" font-size="10.00">boost/log/attributes</text>
<text text-anchor="middle" x="2780.37" y="-63.5" font-family="Helvetica,sans-Serif" font-size="10.00">/scoped_attribute.hpp</text>
</a>
</g>
</g>
<!-- Node23&#45;&gt;Node33 -->
<g id="edge33" class="edge">
<title>Node23&#45;&gt;Node33</title>
<path fill="none" stroke="midnightblue" d="M2717.83,-123.48C2727.53,-115.57 2742.35,-103.48 2755.13,-93.07"/>
<polygon fill="midnightblue" stroke="midnightblue" points="2757.62,-95.55 2763.16,-86.52 2753.2,-90.13 2757.62,-95.55"/>
</g>
<!-- Node34 -->
<g id="node26" class="node">
<title>Node34</title>
<g id="a_node26"><a xlink:title=" ">
<polygon fill="white" stroke="#bfbfbf" points="2859.87,-62 2859.87,-81 2966.87,-81 2966.87,-62 2859.87,-62"/>
<text text-anchor="middle" x="2913.37" y="-69" font-family="Helvetica,sans-Serif" font-size="10.00">boost/log/core.hpp</text>
</a>
</g>
</g>
<!-- Node23&#45;&gt;Node34 -->
<g id="edge34" class="edge">
<title>Node23&#45;&gt;Node34</title>
<path fill="none" stroke="midnightblue" d="M2736.88,-123.48C2772.98,-113.05 2834.21,-95.36 2874.22,-83.81"/>
<polygon fill="midnightblue" stroke="midnightblue" points="2875.27,-87.15 2883.91,-81.01 2873.33,-80.42 2875.27,-87.15"/>
</g>
<!-- Node35 -->
<g id="node27" class="node">
<title>Node35</title>
<g id="a_node27"><a xlink:title=" ">
<polygon fill="white" stroke="#bfbfbf" points="2985.37,-62 2985.37,-81 3129.37,-81 3129.37,-62 2985.37,-62"/>
<text text-anchor="middle" x="3057.37" y="-69" font-family="Helvetica,sans-Serif" font-size="10.00">boost/log/expressions.hpp</text>
</a>
</g>
</g>
<!-- Node23&#45;&gt;Node35 -->
<g id="edge35" class="edge">
<title>Node23&#45;&gt;Node35</title>
<path fill="none" stroke="midnightblue" d="M2759.47,-123.46C2813.68,-114.54 2901.02,-100.05 2976.37,-87 2984.09,-85.66 2992.22,-84.23 3000.23,-82.81"/>
<polygon fill="midnightblue" stroke="midnightblue" points="3001.04,-86.22 3010.27,-81.02 2999.81,-79.33 3001.04,-86.22"/>
</g>
<!-- Node36 -->
<g id="node28" class="node">
<title>Node36</title>
<g id="a_node28"><a xlink:title=" ">
<polygon fill="white" stroke="#bfbfbf" points="3147.37,-56.5 3147.37,-86.5 3263.37,-86.5 3263.37,-56.5 3147.37,-56.5"/>
<text text-anchor="start" x="3155.37" y="-74.5" font-family="Helvetica,sans-Serif" font-size="10.00">boost/log/sinks/sync</text>
<text text-anchor="middle" x="3205.37" y="-63.5" font-family="Helvetica,sans-Serif" font-size="10.00">_frontend.hpp</text>
</a>
</g>
</g>
<!-- Node23&#45;&gt;Node36 -->
<g id="edge36" class="edge">
<title>Node23&#45;&gt;Node36</title>
<path fill="none" stroke="midnightblue" d="M2759.69,-128.39C2839.13,-122.5 2995.07,-109.35 3137.13,-87.08"/>
<polygon fill="midnightblue" stroke="midnightblue" points="3138.01,-90.49 3147.34,-85.46 3136.91,-83.57 3138.01,-90.49"/>
</g>
<!-- Node37 -->
<g id="node29" class="node">
<title>Node37</title>
<g id="a_node29"><a xlink:title=" ">
<polygon fill="white" stroke="#bfbfbf" points="3281.87,-56.5 3281.87,-86.5 3410.87,-86.5 3410.87,-56.5 3281.87,-56.5"/>
<text text-anchor="start" x="3289.87" y="-74.5" font-family="Helvetica,sans-Serif" font-size="10.00">boost/log/sinks/text</text>
<text text-anchor="middle" x="3346.37" y="-63.5" font-family="Helvetica,sans-Serif" font-size="10.00">_ostream_backend.hpp</text>
</a>
</g>
</g>
<!-- Node23&#45;&gt;Node37 -->
<g id="edge37" class="edge">
<title>Node23&#45;&gt;Node37</title>
<path fill="none" stroke="midnightblue" d="M2759.38,-129.84C2857.51,-125.34 3076.8,-113.23 3271.72,-86.97"/>
<polygon fill="midnightblue" stroke="midnightblue" points="3272.43,-90.41 3281.87,-85.59 3271.48,-83.47 3272.43,-90.41"/>
</g>
<!-- Node38 -->
<g id="node30" class="node">
<title>Node38</title>
<g id="a_node30"><a xlink:title=" ">
<polygon fill="white" stroke="#bfbfbf" points="3428.87,-56.5 3428.87,-86.5 3559.87,-86.5 3559.87,-56.5 3428.87,-56.5"/>
<text text-anchor="start" x="3436.87" y="-74.5" font-family="Helvetica,sans-Serif" font-size="10.00">boost/log/sources/basic</text>
<text text-anchor="middle" x="3494.37" y="-63.5" font-family="Helvetica,sans-Serif" font-size="10.00">_logger.hpp</text>
</a>
</g>
</g>
<!-- Node23&#45;&gt;Node38 -->
<g id="edge38" class="edge">
<title>Node23&#45;&gt;Node38</title>
<path fill="none" stroke="midnightblue" d="M2759.48,-131.04C2875.99,-128.38 3166.55,-118.98 3418.59,-87.12"/>
<polygon fill="midnightblue" stroke="midnightblue" points="3419.2,-90.57 3428.67,-85.83 3418.31,-83.63 3419.2,-90.57"/>
</g>
<!-- Node39 -->
<g id="node31" class="node">
<title>Node39</title>
<g id="a_node31"><a xlink:title=" ">
<polygon fill="white" stroke="#bfbfbf" points="3578.37,-62 3578.37,-81 3734.37,-81 3734.37,-62 3578.37,-62"/>
<text text-anchor="middle" x="3656.37" y="-69" font-family="Helvetica,sans-Serif" font-size="10.00">boost/log/sources/logger.hpp</text>
</a>
</g>
</g>
<!-- Node23&#45;&gt;Node39 -->
<g id="edge39" class="edge">
<title>Node23&#45;&gt;Node39</title>
<path fill="none" stroke="midnightblue" d="M2759.52,-131.33C2894.03,-129.15 3263.6,-120.35 3569.37,-87 3579.63,-85.88 3590.53,-84.34 3601.01,-82.69"/>
<polygon fill="midnightblue" stroke="midnightblue" points="3601.59,-86.14 3610.9,-81.07 3600.46,-79.23 3601.59,-86.14"/>
</g>
<!-- Node40 -->
<g id="node32" class="node">
<title>Node40</title>
<g id="a_node32"><a xlink:title=" ">
<polygon fill="white" stroke="#bfbfbf" points="3752.37,-56.5 3752.37,-86.5 3888.37,-86.5 3888.37,-56.5 3752.37,-56.5"/>
<text text-anchor="start" x="3760.37" y="-74.5" font-family="Helvetica,sans-Serif" font-size="10.00">boost/log/sources/record</text>
<text text-anchor="middle" x="3820.37" y="-63.5" font-family="Helvetica,sans-Serif" font-size="10.00">_ostream.hpp</text>
</a>
</g>
</g>
<!-- Node23&#45;&gt;Node40 -->
<g id="edge40" class="edge">
<title>Node23&#45;&gt;Node40</title>
<path fill="none" stroke="midnightblue" d="M2759.59,-132.36C2910.46,-132.83 3360.02,-130.31 3741.87,-87.06"/>
<polygon fill="midnightblue" stroke="midnightblue" points="3742.47,-90.51 3752.01,-85.9 3741.68,-83.56 3742.47,-90.51"/>
</g>
<!-- Node41 -->
<g id="node33" class="node">
<title>Node41</title>
<g id="a_node33"><a xlink:title=" ">
<polygon fill="white" stroke="#bfbfbf" points="3906.87,-56.5 3906.87,-86.5 4051.87,-86.5 4051.87,-56.5 3906.87,-56.5"/>
<text text-anchor="start" x="3914.87" y="-74.5" font-family="Helvetica,sans-Serif" font-size="10.00">boost/log/sources/severity</text>
<text text-anchor="middle" x="3979.37" y="-63.5" font-family="Helvetica,sans-Serif" font-size="10.00">_channel_logger.hpp</text>
</a>
</g>
</g>
<!-- Node23&#45;&gt;Node41 -->
<g id="edge41" class="edge">
<title>Node23&#45;&gt;Node41</title>
<path fill="none" stroke="midnightblue" d="M2759.46,-132.57C2924.57,-133.85 3451.18,-133.8 3896.39,-86.99"/>
<polygon fill="midnightblue" stroke="midnightblue" points="3896.99,-90.44 3906.56,-85.91 3896.25,-83.48 3896.99,-90.44"/>
</g>
<!-- Node42 -->
<g id="node34" class="node">
<title>Node42</title>
<g id="a_node34"><a xlink:title=" ">
<polygon fill="white" stroke="#bfbfbf" points="4069.87,-56.5 4069.87,-86.5 4214.87,-86.5 4214.87,-56.5 4069.87,-56.5"/>
<text text-anchor="start" x="4077.87" y="-74.5" font-family="Helvetica,sans-Serif" font-size="10.00">boost/log/sources/severity</text>
<text text-anchor="middle" x="4142.37" y="-63.5" font-family="Helvetica,sans-Serif" font-size="10.00">_logger.hpp</text>
</a>
</g>
</g>
<!-- Node23&#45;&gt;Node42 -->
<g id="edge42" class="edge">
<title>Node23&#45;&gt;Node42</title>
<path fill="none" stroke="midnightblue" d="M2759.66,-131.27C2973.4,-128.13 3781.96,-114.71 4059.53,-87.07"/>
<polygon fill="midnightblue" stroke="midnightblue" points="4059.99,-90.54 4069.58,-86.04 4059.27,-83.58 4059.99,-90.54"/>
</g>
<!-- Node43 -->
<g id="node35" class="node">
<title>Node43</title>
<g id="a_node35"><a xlink:title=" ">
<polygon fill="white" stroke="#bfbfbf" points="4233.37,-56.5 4233.37,-86.5 4359.37,-86.5 4359.37,-56.5 4233.37,-56.5"/>
<text text-anchor="start" x="4241.37" y="-74.5" font-family="Helvetica,sans-Serif" font-size="10.00">boost/log/support/date</text>
<text text-anchor="middle" x="4296.37" y="-63.5" font-family="Helvetica,sans-Serif" font-size="10.00">_time.hpp</text>
</a>
</g>
</g>
<!-- Node23&#45;&gt;Node43 -->
<g id="edge43" class="edge">
<title>Node23&#45;&gt;Node43</title>
<path fill="none" stroke="midnightblue" d="M2759.58,-131.64C2989.23,-129.86 3911.4,-120.79 4223.3,-86.95"/>
<polygon fill="midnightblue" stroke="midnightblue" points="4223.7,-90.43 4233.25,-85.84 4222.92,-83.47 4223.7,-90.43"/>
</g>
<!-- Node44 -->
<g id="node36" class="node">
<title>Node44</title>
<g id="a_node36"><a xlink:title=" ">
<polygon fill="white" stroke="#bfbfbf" points="4377.37,-62 4377.37,-81 4491.37,-81 4491.37,-62 4377.37,-62"/>
<text text-anchor="middle" x="4434.37" y="-69" font-family="Helvetica,sans-Serif" font-size="10.00">boost/log/trivial.hpp</text>
</a>
</g>
</g>
<!-- Node23&#45;&gt;Node44 -->
<g id="edge44" class="edge">
<title>Node23&#45;&gt;Node44</title>
<path fill="none" stroke="midnightblue" d="M2759.55,-131.92C3004.96,-131.31 4045.88,-126.43 4368.37,-87 4375.9,-86.08 4383.83,-84.7 4391.49,-83.15"/>
<polygon fill="midnightblue" stroke="midnightblue" points="4392.3,-86.56 4401.34,-81.04 4390.83,-79.71 4392.3,-86.56"/>
</g>
<!-- Node45 -->
<g id="node37" class="node">
<title>Node45</title>
<g id="a_node37"><a xlink:title=" ">
<polygon fill="white" stroke="#bfbfbf" points="4509.37,-56.5 4509.37,-86.5 4645.37,-86.5 4645.37,-56.5 4509.37,-56.5"/>
<text text-anchor="start" x="4517.37" y="-74.5" font-family="Helvetica,sans-Serif" font-size="10.00">boost/log/utility/setup</text>
<text text-anchor="middle" x="4577.37" y="-63.5" font-family="Helvetica,sans-Serif" font-size="10.00">/common_attributes.hpp</text>
</a>
</g>
</g>
<!-- Node23&#45;&gt;Node45 -->
<g id="edge45" class="edge">
<title>Node23&#45;&gt;Node45</title>
<path fill="none" stroke="midnightblue" d="M2759.76,-131.82C3014.83,-130.8 4128.94,-124.28 4498.82,-87.02"/>
<polygon fill="midnightblue" stroke="midnightblue" points="4499.43,-90.47 4509.02,-85.96 4498.71,-83.51 4499.43,-90.47"/>
</g>
<!-- Node46 -->
<g id="node38" class="node">
<title>Node46</title>
<g id="a_node38"><a xlink:title=" ">
<polygon fill="white" stroke="#bfbfbf" points="4663.87,-56.5 4663.87,-86.5 4786.87,-86.5 4786.87,-56.5 4663.87,-56.5"/>
<text text-anchor="start" x="4671.87" y="-74.5" font-family="Helvetica,sans-Serif" font-size="10.00">boost/log/utility/setup</text>
<text text-anchor="middle" x="4725.37" y="-63.5" font-family="Helvetica,sans-Serif" font-size="10.00">/file.hpp</text>
</a>
</g>
</g>
<!-- Node23&#45;&gt;Node46 -->
<g id="edge46" class="edge">
<title>Node23&#45;&gt;Node46</title>
<path fill="none" stroke="midnightblue" d="M2759.73,-132.05C3027.98,-132.13 4250.83,-130.15 4653.29,-86.93"/>
<polygon fill="midnightblue" stroke="midnightblue" points="4653.96,-90.38 4663.51,-85.81 4653.19,-83.42 4653.96,-90.38"/>
</g>
<!-- Node47 -->
<g id="node39" class="node">
<title>Node47</title>
<g id="a_node39"><a xlink:title=" ">
<polygon fill="white" stroke="#bfbfbf" points="4804.87,-56.5 4804.87,-86.5 4927.87,-86.5 4927.87,-56.5 4804.87,-56.5"/>
<text text-anchor="start" x="4812.87" y="-74.5" font-family="Helvetica,sans-Serif" font-size="10.00">boost/log/utility/value</text>
<text text-anchor="middle" x="4866.37" y="-63.5" font-family="Helvetica,sans-Serif" font-size="10.00">_ref.hpp</text>
</a>
</g>
</g>
<!-- Node23&#45;&gt;Node47 -->
<g id="edge47" class="edge">
<title>Node23&#45;&gt;Node47</title>
<path fill="none" stroke="midnightblue" d="M2759.79,-132.17C3039.92,-132.88 4363.42,-133.7 4794.61,-87.04"/>
<polygon fill="midnightblue" stroke="midnightblue" points="4795.08,-90.51 4804.63,-85.93 4794.3,-83.55 4795.08,-90.51"/>
</g>
<!-- Node48 -->
<g id="node40" class="node">
<title>Node48</title>
<g id="a_node40"><a xlink:title=" ">
<polygon fill="white" stroke="#bfbfbf" points="4945.87,-62 4945.87,-81 5076.87,-81 5076.87,-62 4945.87,-62"/>
<text text-anchor="middle" x="5011.37" y="-69" font-family="Helvetica,sans-Serif" font-size="10.00">boost/phoenix/bind.hpp</text>
</a>
</g>
</g>
<!-- Node23&#45;&gt;Node48 -->
<g id="edge48" class="edge">
<title>Node23&#45;&gt;Node48</title>
<path fill="none" stroke="midnightblue" d="M2759.42,-132.18C3052.11,-132.97 4495.31,-134.41 4937.37,-87 4946.16,-86.06 4955.47,-84.6 4964.41,-82.97"/>
<polygon fill="midnightblue" stroke="midnightblue" points="4965.13,-86.39 4974.29,-81.07 4963.81,-79.52 4965.13,-86.39"/>
</g>
<!-- Node49 -->
<g id="node41" class="node">
<title>Node49</title>
<g id="a_node41"><a xlink:title=" ">
<polygon fill="white" stroke="#bfbfbf" points="1472.37,-56.5 1472.37,-86.5 1596.37,-86.5 1596.37,-56.5 1472.37,-56.5"/>
<text text-anchor="start" x="1480.37" y="-74.5" font-family="Helvetica,sans-Serif" font-size="10.00">boost/smart_ptr/make</text>
<text text-anchor="middle" x="1534.37" y="-63.5" font-family="Helvetica,sans-Serif" font-size="10.00">_shared_object.hpp</text>
</a>
</g>
</g>
<!-- Node23&#45;&gt;Node49 -->
<g id="edge49" class="edge">
<title>Node23&#45;&gt;Node49</title>
<path fill="none" stroke="midnightblue" d="M2655.1,-130.98C2468.12,-127.16 1832.09,-112.65 1606.71,-86.99"/>
<polygon fill="midnightblue" stroke="midnightblue" points="1606.95,-83.5 1596.61,-85.8 1606.13,-90.45 1606.95,-83.5"/>
</g>
<!-- Node50 -->
<g id="node42" class="node">
<title>Node50</title>
<g id="a_node42"><a xlink:title=" ">
<polygon fill="white" stroke="#bfbfbf" points="1614.37,-56.5 1614.37,-86.5 1744.37,-86.5 1744.37,-56.5 1614.37,-56.5"/>
<text text-anchor="start" x="1622.37" y="-74.5" font-family="Helvetica,sans-Serif" font-size="10.00">boost/smart_ptr/shared</text>
<text text-anchor="middle" x="1679.37" y="-63.5" font-family="Helvetica,sans-Serif" font-size="10.00">_ptr.hpp</text>
</a>
</g>
</g>
<!-- Node23&#45;&gt;Node50 -->
<g id="edge50" class="edge">
<title>Node23&#45;&gt;Node50</title>
<path fill="none" stroke="midnightblue" d="M2655.18,-132.21C2512.42,-132.23 2103.44,-128.44 1754.69,-87.04"/>
<polygon fill="midnightblue" stroke="midnightblue" points="1755,-83.55 1744.65,-85.83 1754.17,-90.5 1755,-83.55"/>
</g>
<!-- Node51&#45;&gt;Node5 -->
<g id="edge56" class="edge">
<title>Node51&#45;&gt;Node5</title>
<path fill="none" stroke="midnightblue" d="M1008.53,-123.48C1016.1,-114.46 1028.24,-100.02 1037.66,-88.81"/>
<polygon fill="midnightblue" stroke="midnightblue" points="1040.46,-90.92 1044.22,-81.01 1035.1,-86.41 1040.46,-90.92"/>
</g>
<!-- Node51&#45;&gt;Node7 -->
<g id="edge65" class="edge">
<title>Node51&#45;&gt;Node7</title>
<path fill="none" stroke="midnightblue" d="M930.59,-129.71C840.17,-125.72 679.21,-115.03 544.37,-87 540.5,-86.2 536.5,-85.18 532.54,-84.07"/>
<polygon fill="midnightblue" stroke="midnightblue" points="533.52,-80.7 522.93,-81.14 531.48,-87.4 533.52,-80.7"/>
</g>
<!-- Node51&#45;&gt;Node8 -->
<g id="edge61" class="edge">
<title>Node51&#45;&gt;Node8</title>
<path fill="none" stroke="midnightblue" d="M1032.39,-123.44C1050.4,-116.69 1071.6,-105.3 1082.37,-87 1089.35,-75.13 1090.17,-67.36 1082.37,-56 1063.79,-28.96 1026.53,-18.16 999.02,-13.85"/>
<polygon fill="midnightblue" stroke="midnightblue" points="999.39,-10.37 989.02,-12.5 998.46,-17.31 999.39,-10.37"/>
</g>
<!-- Node51&#45;&gt;Node9 -->
<g id="edge54" class="edge">
<title>Node51&#45;&gt;Node9</title>
<path fill="none" stroke="midnightblue" d="M1001.82,-123.49C1002.16,-107.73 1000.44,-73.95 981.37,-56 955.39,-31.56 855.97,-19.33 798.01,-14.17"/>
<polygon fill="midnightblue" stroke="midnightblue" points="798.31,-10.68 788.05,-13.31 797.71,-17.65 798.31,-10.68"/>
</g>
<!-- Node51&#45;&gt;Node10 -->
<g id="edge53" class="edge">
<title>Node51&#45;&gt;Node10</title>
<path fill="none" stroke="midnightblue" d="M1072.08,-130.6C1152.72,-127.53 1277.87,-117.78 1312.37,-87 1328.4,-72.69 1332.28,-47.22 1332.88,-29.74"/>
<polygon fill="midnightblue" stroke="midnightblue" points="1336.38,-29.61 1332.91,-19.6 1329.38,-29.6 1336.38,-29.61"/>
</g>
<!-- Node51&#45;&gt;Node14 -->
<g id="edge59" class="edge">
<title>Node51&#45;&gt;Node14</title>
<path fill="none" stroke="midnightblue" d="M1072.16,-126.99C1142.43,-121.03 1252.88,-108.99 1346.37,-87 1349.77,-86.2 1353.29,-85.23 1356.78,-84.17"/>
<polygon fill="midnightblue" stroke="midnightblue" points="1357.96,-87.46 1366.38,-81.03 1355.79,-80.81 1357.96,-87.46"/>
</g>
<!-- Node52 -->
<g id="node44" class="node">
<title>Node52</title>
<g id="a_node44"><a xlink:title=" ">
<polygon fill="white" stroke="#bfbfbf" points="777.37,-62 777.37,-81 835.37,-81 835.37,-62 777.37,-62"/>
<text text-anchor="middle" x="806.37" y="-69" font-family="Helvetica,sans-Serif" font-size="10.00">memory</text>
</a>
</g>
</g>
<!-- Node51&#45;&gt;Node52 -->
<g id="edge55" class="edge">
<title>Node51&#45;&gt;Node52</title>
<path fill="none" stroke="midnightblue" d="M968.64,-123.5C936.71,-114.99 886.87,-101.17 844.37,-87 842.11,-86.25 839.78,-85.44 837.45,-84.61"/>
<polygon fill="midnightblue" stroke="midnightblue" points="838.55,-81.28 827.95,-81.1 836.12,-87.85 838.55,-81.28"/>
</g>
<!-- Node53 -->
<g id="node45" class="node">
<title>Node53</title>
<g id="a_node45"><a xlink:title=" ">
<polygon fill="white" stroke="#bfbfbf" points="853.37,-62 853.37,-81 901.37,-81 901.37,-62 853.37,-62"/>
<text text-anchor="middle" x="877.37" y="-69" font-family="Helvetica,sans-Serif" font-size="10.00">thread</text>
</a>
</g>
</g>
<!-- Node51&#45;&gt;Node53 -->
<g id="edge57" class="edge">
<title>Node51&#45;&gt;Node53</title>
<path fill="none" stroke="midnightblue" d="M983.6,-123.48C962.88,-113.53 928.41,-96.99 904.38,-85.46"/>
<polygon fill="midnightblue" stroke="midnightblue" points="905.63,-82.18 895.1,-81.01 902.6,-88.49 905.63,-82.18"/>
</g>
<!-- Node54 -->
<g id="node46" class="node">
<title>Node54</title>
<g id="a_node46"><a xlink:title=" ">
<polygon fill="white" stroke="#bfbfbf" points="919.87,-62 919.87,-81 972.87,-81 972.87,-62 919.87,-62"/>
<text text-anchor="middle" x="946.37" y="-69" font-family="Helvetica,sans-Serif" font-size="10.00">stdint.h</text>
</a>
</g>
</g>
<!-- Node51&#45;&gt;Node54 -->
<g id="edge58" class="edge">
<title>Node51&#45;&gt;Node54</title>
<path fill="none" stroke="midnightblue" d="M993.49,-123.48C985.07,-114.37 971.55,-99.74 961.14,-88.48"/>
<polygon fill="midnightblue" stroke="midnightblue" points="963.59,-85.98 954.23,-81.01 958.45,-90.73 963.59,-85.98"/>
</g>
<!-- Node15 -->
<g id="node47" class="node">
<title>Node15</title>
<g id="a_node47"><a xlink:title=" ">
<polygon fill="white" stroke="#bfbfbf" points="699.37,-62 699.37,-81 759.37,-81 759.37,-62 699.37,-62"/>
<text text-anchor="middle" x="729.37" y="-69" font-family="Helvetica,sans-Serif" font-size="10.00">iostream</text>
</a>
</g>
</g>
<!-- Node51&#45;&gt;Node15 -->
<g id="edge60" class="edge">
<title>Node51&#45;&gt;Node15</title>
<path fill="none" stroke="midnightblue" d="M942.81,-123.44C895.31,-115.85 826.88,-103.41 768.37,-87 765.72,-86.26 763,-85.42 760.28,-84.52"/>
<polygon fill="midnightblue" stroke="midnightblue" points="761.21,-81.14 750.61,-81.12 758.89,-87.74 761.21,-81.14"/>
</g>
<!-- Node55 -->
<g id="node48" class="node">
<title>Node55</title>
<g id="a_node48"><a xlink:title=" ">
<polygon fill="white" stroke="#bfbfbf" points="1129.87,-62 1129.87,-81 1186.87,-81 1186.87,-62 1129.87,-62"/>
<text text-anchor="middle" x="1158.37" y="-69" font-family="Helvetica,sans-Serif" font-size="10.00">typeinfo</text>
</a>
</g>
</g>
<!-- Node51&#45;&gt;Node55 -->
<g id="edge62" class="edge">
<title>Node51&#45;&gt;Node55</title>
<path fill="none" stroke="midnightblue" d="M1023.86,-123.48C1050.68,-113.31 1095.68,-96.26 1126.18,-84.7"/>
<polygon fill="midnightblue" stroke="midnightblue" points="1127.8,-87.83 1135.91,-81.01 1125.32,-81.28 1127.8,-87.83"/>
</g>
<!-- Node56 -->
<g id="node49" class="node">
<title>Node56</title>
<g id="a_node49"><a xlink:title=" ">
<polygon fill="white" stroke="#bfbfbf" points="1204.87,-62 1204.87,-81 1303.87,-81 1303.87,-62 1204.87,-62"/>
<text text-anchor="middle" x="1254.37" y="-69" font-family="Helvetica,sans-Serif" font-size="10.00">rclcpp/rclcpp.hpp</text>
</a>
</g>
</g>
<!-- Node51&#45;&gt;Node56 -->
<g id="edge63" class="edge">
<title>Node51&#45;&gt;Node56</title>
<path fill="none" stroke="midnightblue" d="M1038.95,-123.43C1078.06,-114.49 1141.06,-99.97 1195.37,-87 1200.12,-85.87 1205.08,-84.67 1210.02,-83.46"/>
<polygon fill="midnightblue" stroke="midnightblue" points="1211.18,-86.78 1220.07,-81.01 1209.52,-79.98 1211.18,-86.78"/>
</g>
<!-- Node57 -->
<g id="node50" class="node">
<title>Node57</title>
<g id="a_node50"><a xlink:title=" ">
<polygon fill="white" stroke="#bfbfbf" points="553.37,-56.5 553.37,-86.5 681.37,-86.5 681.37,-56.5 553.37,-56.5"/>
<text text-anchor="start" x="561.37" y="-74.5" font-family="Helvetica,sans-Serif" font-size="10.00">px4_msgs/msg/vehicle</text>
<text text-anchor="middle" x="617.37" y="-63.5" font-family="Helvetica,sans-Serif" font-size="10.00">_odometry.hpp</text>
</a>
</g>
</g>
<!-- Node51&#45;&gt;Node57 -->
<g id="edge64" class="edge">
<title>Node51&#45;&gt;Node57</title>
<path fill="none" stroke="midnightblue" d="M935.38,-123.47C874.6,-115.39 781.66,-102.44 691.55,-87.15"/>
<polygon fill="midnightblue" stroke="midnightblue" points="691.87,-83.66 681.43,-85.42 690.69,-90.56 691.87,-83.66"/>
</g>
</g>
</svg>
