<?xml version="1.0" encoding="UTF-8" standalone="no"?>
<!DOCTYPE svg PUBLIC "-//W3C//DTD SVG 1.1//EN"
 "http://www.w3.org/Graphics/SVG/1.1/DTD/svg11.dtd">
<!-- Generated by graphviz version 2.43.0 (0)
 -->
<!-- Title: /mnt/c/Users/siddh/OneDrive/Desktop/ACSL&#45;flightstack/include/flightstack/logging/logging_mocap.hpp Pages: 1 -->
<svg width="3874pt" height="128pt"
 viewBox="0.00 0.00 3873.50 128.00" xmlns="http://www.w3.org/2000/svg" xmlns:xlink="http://www.w3.org/1999/xlink">
<g id="graph0" class="graph" transform="scale(1 1) rotate(0) translate(4 124)">
<title>/mnt/c/Users/siddh/OneDrive/Desktop/ACSL&#45;flightstack/include/flightstack/logging/logging_mocap.hpp</title>
<polygon fill="white" stroke="transparent" points="-4,4 -4,-124 3869.5,-124 3869.5,4 -4,4"/>
<!-- Node1 -->
<g id="node1" class="node">
<title>Node1</title>
<g id="a_node1"><a xlink:title="Logger for the motion capture (MOCAP) system.">
<polygon fill="#bfbfbf" stroke="black" points="1526,-67.5 1526,-119.5 1690,-119.5 1690,-67.5 1526,-67.5"/>
<text text-anchor="start" x="1534" y="-107.5" font-family="Helvetica,sans-Serif" font-size="10.00">/mnt/c/Users/siddh</text>
<text text-anchor="start" x="1534" y="-96.5" font-family="Helvetica,sans-Serif" font-size="10.00">/OneDrive/Desktop/ACSL</text>
<text text-anchor="start" x="1534" y="-85.5" font-family="Helvetica,sans-Serif" font-size="10.00">&#45;flightstack/include/flightstack</text>
<text text-anchor="middle" x="1608" y="-74.5" font-family="Helvetica,sans-Serif" font-size="10.00">/logging/logging_mocap.hpp</text>
</a>
</g>
</g>
<!-- Node2 -->
<g id="node2" class="node">
<title>Node2</title>
<g id="a_node2"><a xlink:title=" ">
<polygon fill="white" stroke="#bfbfbf" points="0,-6 0,-25 50,-25 50,-6 0,-6"/>
<text text-anchor="middle" x="25" y="-13" font-family="Helvetica,sans-Serif" font-size="10.00">atomic</text>
</a>
</g>
</g>
<!-- Node1&#45;&gt;Node2 -->
<g id="edge1" class="edge">
<title>Node1&#45;&gt;Node2</title>
<path fill="none" stroke="midnightblue" d="M1525.97,-90.98C1226.51,-85.2 202.22,-63.24 59,-31 56.48,-30.43 53.91,-29.69 51.37,-28.83"/>
<polygon fill="midnightblue" stroke="midnightblue" points="52.48,-25.5 41.89,-25.13 49.94,-32.03 52.48,-25.5"/>
</g>
<!-- Node3 -->
<g id="node3" class="node">
<title>Node3</title>
<g id="a_node3"><a xlink:title=" ">
<polygon fill="white" stroke="#bfbfbf" points="68.5,-6 68.5,-25 121.5,-25 121.5,-6 68.5,-6"/>
<text text-anchor="middle" x="95" y="-13" font-family="Helvetica,sans-Serif" font-size="10.00">cstddef</text>
</a>
</g>
</g>
<!-- Node1&#45;&gt;Node3 -->
<g id="edge2" class="edge">
<title>Node1&#45;&gt;Node3</title>
<path fill="none" stroke="midnightblue" d="M1525.83,-92.75C1256.18,-92.98 400.23,-89.02 131,-31 128.16,-30.39 125.25,-29.57 122.39,-28.63"/>
<polygon fill="midnightblue" stroke="midnightblue" points="123.53,-25.32 112.93,-25.12 121.09,-31.89 123.53,-25.32"/>
</g>
<!-- Node4 -->
<g id="node4" class="node">
<title>Node4</title>
<g id="a_node4"><a xlink:title=" ">
<polygon fill="white" stroke="#bfbfbf" points="140,-6 140,-25 190,-25 190,-6 140,-6"/>
<text text-anchor="middle" x="165" y="-13" font-family="Helvetica,sans-Serif" font-size="10.00">chrono</text>
</a>
</g>
</g>
<!-- Node1&#45;&gt;Node4 -->
<g id="edge3" class="edge">
<title>Node1&#45;&gt;Node4</title>
<path fill="none" stroke="midnightblue" d="M1525.93,-92.76C1264.58,-93 454.03,-88.93 199,-31 196.48,-30.43 193.91,-29.68 191.38,-28.82"/>
<polygon fill="midnightblue" stroke="midnightblue" points="192.48,-25.49 181.89,-25.12 189.94,-32.01 192.48,-25.49"/>
</g>
<!-- Node5 -->
<g id="node5" class="node">
<title>Node5</title>
<g id="a_node5"><a xlink:title=" ">
<polygon fill="white" stroke="#bfbfbf" points="208,-6 208,-25 276,-25 276,-6 208,-6"/>
<text text-anchor="middle" x="242" y="-13" font-family="Helvetica,sans-Serif" font-size="10.00">filesystem</text>
</a>
</g>
</g>
<!-- Node1&#45;&gt;Node5 -->
<g id="edge4" class="edge">
<title>Node1&#45;&gt;Node5</title>
<path fill="none" stroke="midnightblue" d="M1525.86,-91.67C1275.53,-88.67 524.68,-76.06 285,-31 281.1,-30.27 277.08,-29.26 273.13,-28.12"/>
<polygon fill="midnightblue" stroke="midnightblue" points="274.15,-24.78 263.56,-25.08 272.03,-31.45 274.15,-24.78"/>
</g>
<!-- Node6 -->
<g id="node6" class="node">
<title>Node6</title>
<g id="a_node6"><a xlink:title=" ">
<polygon fill="white" stroke="#bfbfbf" points="294.5,-6 294.5,-25 349.5,-25 349.5,-6 294.5,-6"/>
<text text-anchor="middle" x="322" y="-13" font-family="Helvetica,sans-Serif" font-size="10.00">fstream</text>
</a>
</g>
</g>
<!-- Node1&#45;&gt;Node6 -->
<g id="edge5" class="edge">
<title>Node1&#45;&gt;Node6</title>
<path fill="none" stroke="midnightblue" d="M1525.69,-91.91C1284.56,-89.65 582.68,-78.99 359,-31 355.99,-30.36 352.91,-29.5 349.88,-28.51"/>
<polygon fill="midnightblue" stroke="midnightblue" points="351.05,-25.22 340.46,-25.09 348.66,-31.8 351.05,-25.22"/>
</g>
<!-- Node7 -->
<g id="node7" class="node">
<title>Node7</title>
<g id="a_node7"><a xlink:title=" ">
<polygon fill="white" stroke="#bfbfbf" points="368,-6 368,-25 424,-25 424,-6 368,-6"/>
<text text-anchor="middle" x="396" y="-13" font-family="Helvetica,sans-Serif" font-size="10.00">iomanip</text>
</a>
</g>
</g>
<!-- Node1&#45;&gt;Node7 -->
<g id="edge6" class="edge">
<title>Node1&#45;&gt;Node7</title>
<path fill="none" stroke="midnightblue" d="M1525.66,-91.61C1294.33,-88.58 641.89,-76.16 433,-31 429.99,-30.35 426.91,-29.49 423.88,-28.51"/>
<polygon fill="midnightblue" stroke="midnightblue" points="425.05,-25.21 414.46,-25.08 422.66,-31.79 425.05,-25.21"/>
</g>
<!-- Node8 -->
<g id="node8" class="node">
<title>Node8</title>
<g id="a_node8"><a xlink:title=" ">
<polygon fill="white" stroke="#bfbfbf" points="442.5,-6 442.5,-25 499.5,-25 499.5,-6 442.5,-6"/>
<text text-anchor="middle" x="471" y="-13" font-family="Helvetica,sans-Serif" font-size="10.00">ostream</text>
</a>
</g>
</g>
<!-- Node1&#45;&gt;Node8 -->
<g id="edge7" class="edge">
<title>Node1&#45;&gt;Node8</title>
<path fill="none" stroke="midnightblue" d="M1525.89,-91.18C1305.22,-87.1 703.02,-72.4 509,-31 505.92,-30.34 502.77,-29.48 499.65,-28.49"/>
<polygon fill="midnightblue" stroke="midnightblue" points="500.58,-25.11 489.98,-25.06 498.23,-31.7 500.58,-25.11"/>
</g>
<!-- Node9 -->
<g id="node9" class="node">
<title>Node9</title>
<g id="a_node9"><a xlink:title=" ">
<polygon fill="white" stroke="#bfbfbf" points="518,-6 518,-25 574,-25 574,-6 518,-6"/>
<text text-anchor="middle" x="546" y="-13" font-family="Helvetica,sans-Serif" font-size="10.00">sstream</text>
</a>
</g>
</g>
<!-- Node1&#45;&gt;Node9 -->
<g id="edge8" class="edge">
<title>Node1&#45;&gt;Node9</title>
<path fill="none" stroke="midnightblue" d="M1525.73,-90.88C1315.41,-86.21 762.11,-70.43 583,-31 580,-30.34 576.92,-29.47 573.88,-28.48"/>
<polygon fill="midnightblue" stroke="midnightblue" points="575.06,-25.19 564.47,-25.05 572.66,-31.76 575.06,-25.19"/>
</g>
<!-- Node10 -->
<g id="node10" class="node">
<title>Node10</title>
<g id="a_node10"><a xlink:title=" ">
<polygon fill="white" stroke="#bfbfbf" points="592,-6 592,-25 636,-25 636,-6 592,-6"/>
<text text-anchor="middle" x="614" y="-13" font-family="Helvetica,sans-Serif" font-size="10.00">string</text>
</a>
</g>
</g>
<!-- Node1&#45;&gt;Node10 -->
<g id="edge9" class="edge">
<title>Node1&#45;&gt;Node10</title>
<path fill="none" stroke="midnightblue" d="M1525.8,-91.17C1324.39,-87.29 810.64,-73.41 645,-31 643.01,-30.49 641,-29.86 639,-29.14"/>
<polygon fill="midnightblue" stroke="midnightblue" points="639.92,-25.73 629.35,-25.06 637.2,-32.18 639.92,-25.73"/>
</g>
<!-- Node11 -->
<g id="node11" class="node">
<title>Node11</title>
<g id="a_node11"><a xlink:title=" ">
<polygon fill="white" stroke="#bfbfbf" points="654.5,-0.5 654.5,-30.5 779.5,-30.5 779.5,-0.5 654.5,-0.5"/>
<text text-anchor="start" x="662.5" y="-18.5" font-family="Helvetica,sans-Serif" font-size="10.00">boost/date_time/posix</text>
<text text-anchor="middle" x="717" y="-7.5" font-family="Helvetica,sans-Serif" font-size="10.00">_time/posix_time.hpp</text>
</a>
</g>
</g>
<!-- Node1&#45;&gt;Node11 -->
<g id="edge10" class="edge">
<title>Node1&#45;&gt;Node11</title>
<path fill="none" stroke="midnightblue" d="M1525.87,-89.78C1379.6,-84.19 1064.3,-68.71 789.8,-31.14"/>
<polygon fill="midnightblue" stroke="midnightblue" points="790.03,-27.64 779.65,-29.74 789.07,-34.58 790.03,-27.64"/>
</g>
<!-- Node12 -->
<g id="node12" class="node">
<title>Node12</title>
<g id="a_node12"><a xlink:title=" ">
<polygon fill="white" stroke="#bfbfbf" points="797.5,-0.5 797.5,-30.5 952.5,-30.5 952.5,-0.5 797.5,-0.5"/>
<text text-anchor="start" x="805.5" y="-18.5" font-family="Helvetica,sans-Serif" font-size="10.00">boost/date_time/posix</text>
<text text-anchor="middle" x="875" y="-7.5" font-family="Helvetica,sans-Serif" font-size="10.00">_time/posix_time_types.hpp</text>
</a>
</g>
</g>
<!-- Node1&#45;&gt;Node12 -->
<g id="edge11" class="edge">
<title>Node1&#45;&gt;Node12</title>
<path fill="none" stroke="midnightblue" d="M1525.82,-86.6C1404.72,-77.49 1171.02,-58.27 962.98,-31.21"/>
<polygon fill="midnightblue" stroke="midnightblue" points="963.15,-27.7 952.78,-29.87 962.24,-34.64 963.15,-27.7"/>
</g>
<!-- Node13 -->
<g id="node13" class="node">
<title>Node13</title>
<g id="a_node13"><a xlink:title=" ">
<polygon fill="white" stroke="#bfbfbf" points="970.5,-6 970.5,-25 1103.5,-25 1103.5,-6 970.5,-6"/>
<text text-anchor="middle" x="1037" y="-13" font-family="Helvetica,sans-Serif" font-size="10.00">boost/log/attributes.hpp</text>
</a>
</g>
</g>
<!-- Node1&#45;&gt;Node13 -->
<g id="edge12" class="edge">
<title>Node1&#45;&gt;Node13</title>
<path fill="none" stroke="midnightblue" d="M1525.88,-83.95C1427.49,-73.32 1257.79,-53.78 1113,-31 1105.26,-29.78 1097.09,-28.37 1089.11,-26.9"/>
<polygon fill="midnightblue" stroke="midnightblue" points="1089.6,-23.44 1079.12,-25.04 1088.31,-30.32 1089.6,-23.44"/>
</g>
<!-- Node14 -->
<g id="node14" class="node">
<title>Node14</title>
<g id="a_node14"><a xlink:title=" ">
<polygon fill="white" stroke="#bfbfbf" points="1122,-0.5 1122,-30.5 1244,-30.5 1244,-0.5 1122,-0.5"/>
<text text-anchor="start" x="1130" y="-18.5" font-family="Helvetica,sans-Serif" font-size="10.00">boost/log/attributes</text>
<text text-anchor="middle" x="1183" y="-7.5" font-family="Helvetica,sans-Serif" font-size="10.00">/scoped_attribute.hpp</text>
</a>
</g>
</g>
<!-- Node1&#45;&gt;Node14 -->
<g id="edge13" class="edge">
<title>Node1&#45;&gt;Node14</title>
<path fill="none" stroke="midnightblue" d="M1525.73,-79.03C1456.01,-67.44 1353.14,-49.9 1253.95,-31.15"/>
<polygon fill="midnightblue" stroke="midnightblue" points="1254.54,-27.7 1244.06,-29.27 1253.23,-34.57 1254.54,-27.7"/>
</g>
<!-- Node15 -->
<g id="node15" class="node">
<title>Node15</title>
<g id="a_node15"><a xlink:title=" ">
<polygon fill="white" stroke="#bfbfbf" points="1262.5,-6 1262.5,-25 1369.5,-25 1369.5,-6 1262.5,-6"/>
<text text-anchor="middle" x="1316" y="-13" font-family="Helvetica,sans-Serif" font-size="10.00">boost/log/core.hpp</text>
</a>
</g>
</g>
<!-- Node1&#45;&gt;Node15 -->
<g id="edge14" class="edge">
<title>Node1&#45;&gt;Node15</title>
<path fill="none" stroke="midnightblue" d="M1525.88,-71.13C1471.42,-56.95 1402.19,-38.93 1358.47,-27.55"/>
<polygon fill="midnightblue" stroke="midnightblue" points="1359.3,-24.15 1348.74,-25.02 1357.53,-30.93 1359.3,-24.15"/>
</g>
<!-- Node16 -->
<g id="node16" class="node">
<title>Node16</title>
<g id="a_node16"><a xlink:title=" ">
<polygon fill="white" stroke="#bfbfbf" points="1388,-6 1388,-25 1532,-25 1532,-6 1388,-6"/>
<text text-anchor="middle" x="1460" y="-13" font-family="Helvetica,sans-Serif" font-size="10.00">boost/log/expressions.hpp</text>
</a>
</g>
</g>
<!-- Node1&#45;&gt;Node16 -->
<g id="edge15" class="edge">
<title>Node1&#45;&gt;Node16</title>
<path fill="none" stroke="midnightblue" d="M1559.13,-67.4C1534.56,-54.79 1505.8,-40.02 1485.6,-29.65"/>
<polygon fill="midnightblue" stroke="midnightblue" points="1487.2,-26.53 1476.7,-25.08 1484,-32.76 1487.2,-26.53"/>
</g>
<!-- Node17 -->
<g id="node17" class="node">
<title>Node17</title>
<g id="a_node17"><a xlink:title=" ">
<polygon fill="white" stroke="#bfbfbf" points="1550,-0.5 1550,-30.5 1666,-30.5 1666,-0.5 1550,-0.5"/>
<text text-anchor="start" x="1558" y="-18.5" font-family="Helvetica,sans-Serif" font-size="10.00">boost/log/sinks/sync</text>
<text text-anchor="middle" x="1608" y="-7.5" font-family="Helvetica,sans-Serif" font-size="10.00">_frontend.hpp</text>
</a>
</g>
</g>
<!-- Node1&#45;&gt;Node17 -->
<g id="edge16" class="edge">
<title>Node1&#45;&gt;Node17</title>
<path fill="none" stroke="midnightblue" d="M1608,-67.19C1608,-58.79 1608,-49.44 1608,-41.09"/>
<polygon fill="midnightblue" stroke="midnightblue" points="1611.5,-40.85 1608,-30.85 1604.5,-40.85 1611.5,-40.85"/>
</g>
<!-- Node18 -->
<g id="node18" class="node">
<title>Node18</title>
<g id="a_node18"><a xlink:title=" ">
<polygon fill="white" stroke="#bfbfbf" points="1684.5,-0.5 1684.5,-30.5 1813.5,-30.5 1813.5,-0.5 1684.5,-0.5"/>
<text text-anchor="start" x="1692.5" y="-18.5" font-family="Helvetica,sans-Serif" font-size="10.00">boost/log/sinks/text</text>
<text text-anchor="middle" x="1749" y="-7.5" font-family="Helvetica,sans-Serif" font-size="10.00">_ostream_backend.hpp</text>
</a>
</g>
</g>
<!-- Node1&#45;&gt;Node18 -->
<g id="edge17" class="edge">
<title>Node1&#45;&gt;Node18</title>
<path fill="none" stroke="midnightblue" d="M1654.56,-67.4C1673.82,-57.02 1695.79,-45.18 1713.69,-35.53"/>
<polygon fill="midnightblue" stroke="midnightblue" points="1715.5,-38.53 1722.64,-30.71 1712.18,-32.37 1715.5,-38.53"/>
</g>
<!-- Node19 -->
<g id="node19" class="node">
<title>Node19</title>
<g id="a_node19"><a xlink:title=" ">
<polygon fill="white" stroke="#bfbfbf" points="1831.5,-0.5 1831.5,-30.5 1962.5,-30.5 1962.5,-0.5 1831.5,-0.5"/>
<text text-anchor="start" x="1839.5" y="-18.5" font-family="Helvetica,sans-Serif" font-size="10.00">boost/log/sources/basic</text>
<text text-anchor="middle" x="1897" y="-7.5" font-family="Helvetica,sans-Serif" font-size="10.00">_logger.hpp</text>
</a>
</g>
</g>
<!-- Node1&#45;&gt;Node19 -->
<g id="edge18" class="edge">
<title>Node1&#45;&gt;Node19</title>
<path fill="none" stroke="midnightblue" d="M1690.04,-70.92C1735.62,-58.94 1791.46,-44.26 1833.64,-33.16"/>
<polygon fill="midnightblue" stroke="midnightblue" points="1834.73,-36.49 1843.51,-30.57 1832.95,-29.72 1834.73,-36.49"/>
</g>
<!-- Node20 -->
<g id="node20" class="node">
<title>Node20</title>
<g id="a_node20"><a xlink:title=" ">
<polygon fill="white" stroke="#bfbfbf" points="1981,-6 1981,-25 2137,-25 2137,-6 1981,-6"/>
<text text-anchor="middle" x="2059" y="-13" font-family="Helvetica,sans-Serif" font-size="10.00">boost/log/sources/logger.hpp</text>
</a>
</g>
</g>
<!-- Node1&#45;&gt;Node20 -->
<g id="edge19" class="edge">
<title>Node1&#45;&gt;Node20</title>
<path fill="none" stroke="midnightblue" d="M1690.2,-78.65C1779.07,-63.67 1918.65,-40.15 1998.17,-26.75"/>
<polygon fill="midnightblue" stroke="midnightblue" points="1999.22,-30.12 2008.5,-25.01 1998.06,-23.22 1999.22,-30.12"/>
</g>
<!-- Node21 -->
<g id="node21" class="node">
<title>Node21</title>
<g id="a_node21"><a xlink:title=" ">
<polygon fill="white" stroke="#bfbfbf" points="2155,-0.5 2155,-30.5 2291,-30.5 2291,-0.5 2155,-0.5"/>
<text text-anchor="start" x="2163" y="-18.5" font-family="Helvetica,sans-Serif" font-size="10.00">boost/log/sources/record</text>
<text text-anchor="middle" x="2223" y="-7.5" font-family="Helvetica,sans-Serif" font-size="10.00">_ostream.hpp</text>
</a>
</g>
</g>
<!-- Node1&#45;&gt;Node21 -->
<g id="edge20" class="edge">
<title>Node1&#45;&gt;Node21</title>
<path fill="none" stroke="midnightblue" d="M1690.28,-84.96C1793.96,-75.04 1977.83,-56.06 2144.66,-31.14"/>
<polygon fill="midnightblue" stroke="midnightblue" points="2145.24,-34.59 2154.61,-29.64 2144.2,-27.67 2145.24,-34.59"/>
</g>
<!-- Node22 -->
<g id="node22" class="node">
<title>Node22</title>
<g id="a_node22"><a xlink:title=" ">
<polygon fill="white" stroke="#bfbfbf" points="2309.5,-0.5 2309.5,-30.5 2454.5,-30.5 2454.5,-0.5 2309.5,-0.5"/>
<text text-anchor="start" x="2317.5" y="-18.5" font-family="Helvetica,sans-Serif" font-size="10.00">boost/log/sources/severity</text>
<text text-anchor="middle" x="2382" y="-7.5" font-family="Helvetica,sans-Serif" font-size="10.00">_channel_logger.hpp</text>
</a>
</g>
</g>
<!-- Node1&#45;&gt;Node22 -->
<g id="edge21" class="edge">
<title>Node1&#45;&gt;Node22</title>
<path fill="none" stroke="midnightblue" d="M1690.01,-87.51C1817.92,-79.23 2072.84,-60.67 2299.1,-31.04"/>
<polygon fill="midnightblue" stroke="midnightblue" points="2299.72,-34.49 2309.17,-29.71 2298.8,-27.55 2299.72,-34.49"/>
</g>
<!-- Node23 -->
<g id="node23" class="node">
<title>Node23</title>
<g id="a_node23"><a xlink:title=" ">
<polygon fill="white" stroke="#bfbfbf" points="2472.5,-0.5 2472.5,-30.5 2617.5,-30.5 2617.5,-0.5 2472.5,-0.5"/>
<text text-anchor="start" x="2480.5" y="-18.5" font-family="Helvetica,sans-Serif" font-size="10.00">boost/log/sources/severity</text>
<text text-anchor="middle" x="2545" y="-7.5" font-family="Helvetica,sans-Serif" font-size="10.00">_logger.hpp</text>
</a>
</g>
</g>
<!-- Node1&#45;&gt;Node23 -->
<g id="edge22" class="edge">
<title>Node1&#45;&gt;Node23</title>
<path fill="none" stroke="midnightblue" d="M1690.02,-89.49C1840.99,-83.31 2173.16,-66.78 2461.94,-31.18"/>
<polygon fill="midnightblue" stroke="midnightblue" points="2462.71,-34.61 2472.2,-29.91 2461.84,-27.67 2462.71,-34.61"/>
</g>
<!-- Node24 -->
<g id="node24" class="node">
<title>Node24</title>
<g id="a_node24"><a xlink:title=" ">
<polygon fill="white" stroke="#bfbfbf" points="2636,-0.5 2636,-30.5 2762,-30.5 2762,-0.5 2636,-0.5"/>
<text text-anchor="start" x="2644" y="-18.5" font-family="Helvetica,sans-Serif" font-size="10.00">boost/log/support/date</text>
<text text-anchor="middle" x="2699" y="-7.5" font-family="Helvetica,sans-Serif" font-size="10.00">_time.hpp</text>
</a>
</g>
</g>
<!-- Node1&#45;&gt;Node24 -->
<g id="edge23" class="edge">
<title>Node1&#45;&gt;Node24</title>
<path fill="none" stroke="midnightblue" d="M1690.26,-91.39C1862.33,-88.23 2272.86,-76.32 2625.71,-31.04"/>
<polygon fill="midnightblue" stroke="midnightblue" points="2626.4,-34.48 2635.87,-29.73 2625.5,-27.54 2626.4,-34.48"/>
</g>
<!-- Node25 -->
<g id="node25" class="node">
<title>Node25</title>
<g id="a_node25"><a xlink:title=" ">
<polygon fill="white" stroke="#bfbfbf" points="2780,-6 2780,-25 2894,-25 2894,-6 2780,-6"/>
<text text-anchor="middle" x="2837" y="-13" font-family="Helvetica,sans-Serif" font-size="10.00">boost/log/trivial.hpp</text>
</a>
</g>
</g>
<!-- Node1&#45;&gt;Node25 -->
<g id="edge24" class="edge">
<title>Node1&#45;&gt;Node25</title>
<path fill="none" stroke="midnightblue" d="M1690.21,-92.75C1881,-92.34 2368.27,-85.52 2771,-31 2778.27,-30.02 2785.93,-28.65 2793.36,-27.14"/>
<polygon fill="midnightblue" stroke="midnightblue" points="2794.23,-30.53 2803.27,-25.02 2792.76,-23.69 2794.23,-30.53"/>
</g>
<!-- Node26 -->
<g id="node26" class="node">
<title>Node26</title>
<g id="a_node26"><a xlink:title=" ">
<polygon fill="white" stroke="#bfbfbf" points="2912,-0.5 2912,-30.5 3048,-30.5 3048,-0.5 2912,-0.5"/>
<text text-anchor="start" x="2920" y="-18.5" font-family="Helvetica,sans-Serif" font-size="10.00">boost/log/utility/setup</text>
<text text-anchor="middle" x="2980" y="-7.5" font-family="Helvetica,sans-Serif" font-size="10.00">/common_attributes.hpp</text>
</a>
</g>
</g>
<!-- Node1&#45;&gt;Node26 -->
<g id="edge25" class="edge">
<title>Node1&#45;&gt;Node26</title>
<path fill="none" stroke="midnightblue" d="M1690.14,-92.54C1893.89,-91.8 2438.9,-84.61 2901.42,-31.07"/>
<polygon fill="midnightblue" stroke="midnightblue" points="2902.11,-34.52 2911.64,-29.88 2901.3,-27.56 2902.11,-34.52"/>
</g>
<!-- Node27 -->
<g id="node27" class="node">
<title>Node27</title>
<g id="a_node27"><a xlink:title=" ">
<polygon fill="white" stroke="#bfbfbf" points="3066.5,-0.5 3066.5,-30.5 3189.5,-30.5 3189.5,-0.5 3066.5,-0.5"/>
<text text-anchor="start" x="3074.5" y="-18.5" font-family="Helvetica,sans-Serif" font-size="10.00">boost/log/utility/setup</text>
<text text-anchor="middle" x="3128" y="-7.5" font-family="Helvetica,sans-Serif" font-size="10.00">/file.hpp</text>
</a>
</g>
</g>
<!-- Node1&#45;&gt;Node27 -->
<g id="edge26" class="edge">
<title>Node1&#45;&gt;Node27</title>
<path fill="none" stroke="midnightblue" d="M1690.15,-90.73C1952.62,-84.82 2769.97,-64.28 3056.18,-30.93"/>
<polygon fill="midnightblue" stroke="midnightblue" points="3056.63,-34.4 3066.14,-29.74 3055.79,-27.45 3056.63,-34.4"/>
</g>
<!-- Node28 -->
<g id="node28" class="node">
<title>Node28</title>
<g id="a_node28"><a xlink:title=" ">
<polygon fill="white" stroke="#bfbfbf" points="3207.5,-0.5 3207.5,-30.5 3330.5,-30.5 3330.5,-0.5 3207.5,-0.5"/>
<text text-anchor="start" x="3215.5" y="-18.5" font-family="Helvetica,sans-Serif" font-size="10.00">boost/log/utility/value</text>
<text text-anchor="middle" x="3269" y="-7.5" font-family="Helvetica,sans-Serif" font-size="10.00">_ref.hpp</text>
</a>
</g>
</g>
<!-- Node1&#45;&gt;Node28 -->
<g id="edge27" class="edge">
<title>Node1&#45;&gt;Node28</title>
<path fill="none" stroke="midnightblue" d="M1690.19,-91.12C1969.63,-86.16 2882.59,-67.59 3197.22,-31.06"/>
<polygon fill="midnightblue" stroke="midnightblue" points="3197.74,-34.53 3207.26,-29.87 3196.91,-27.58 3197.74,-34.53"/>
</g>
<!-- Node29 -->
<g id="node29" class="node">
<title>Node29</title>
<g id="a_node29"><a xlink:title=" ">
<polygon fill="white" stroke="#bfbfbf" points="3348.5,-6 3348.5,-25 3479.5,-25 3479.5,-6 3348.5,-6"/>
<text text-anchor="middle" x="3414" y="-13" font-family="Helvetica,sans-Serif" font-size="10.00">boost/phoenix/bind.hpp</text>
</a>
</g>
</g>
<!-- Node1&#45;&gt;Node29 -->
<g id="edge28" class="edge">
<title>Node1&#45;&gt;Node29</title>
<path fill="none" stroke="midnightblue" d="M1690.13,-91.31C1988.48,-86.7 3014.37,-68.45 3340,-31 3348.6,-30.01 3357.69,-28.57 3366.45,-26.97"/>
<polygon fill="midnightblue" stroke="midnightblue" points="3367.37,-30.35 3376.53,-25.03 3366.05,-23.48 3367.37,-30.35"/>
</g>
<!-- Node30 -->
<g id="node30" class="node">
<title>Node30</title>
<g id="a_node30"><a xlink:title=" ">
<polygon fill="white" stroke="#bfbfbf" points="3498,-0.5 3498,-30.5 3622,-30.5 3622,-0.5 3498,-0.5"/>
<text text-anchor="start" x="3506" y="-18.5" font-family="Helvetica,sans-Serif" font-size="10.00">boost/smart_ptr/make</text>
<text text-anchor="middle" x="3560" y="-7.5" font-family="Helvetica,sans-Serif" font-size="10.00">_shared_object.hpp</text>
</a>
</g>
</g>
<!-- Node1&#45;&gt;Node30 -->
<g id="edge29" class="edge">
<title>Node1&#45;&gt;Node30</title>
<path fill="none" stroke="midnightblue" d="M1690.09,-91.66C2001.74,-88.19 3112.54,-73.16 3487.68,-30.99"/>
<polygon fill="midnightblue" stroke="midnightblue" points="3488.22,-34.45 3497.76,-29.83 3487.42,-27.5 3488.22,-34.45"/>
</g>
<!-- Node31 -->
<g id="node31" class="node">
<title>Node31</title>
<g id="a_node31"><a xlink:title=" ">
<polygon fill="white" stroke="#bfbfbf" points="3640,-0.5 3640,-30.5 3770,-30.5 3770,-0.5 3640,-0.5"/>
<text text-anchor="start" x="3648" y="-18.5" font-family="Helvetica,sans-Serif" font-size="10.00">boost/smart_ptr/shared</text>
<text text-anchor="middle" x="3705" y="-7.5" font-family="Helvetica,sans-Serif" font-size="10.00">_ptr.hpp</text>
</a>
</g>
</g>
<!-- Node1&#45;&gt;Node31 -->
<g id="edge30" class="edge">
<title>Node1&#45;&gt;Node31</title>
<path fill="none" stroke="midnightblue" d="M1690.02,-91.79C2016.5,-88.7 3225.08,-74.59 3629.73,-30.99"/>
<polygon fill="midnightblue" stroke="midnightblue" points="3630.16,-34.46 3639.72,-29.89 3629.4,-27.51 3630.16,-34.46"/>
</g>
<!-- Node32 -->
<g id="node32" class="node">
<title>Node32</title>
<g id="a_node32"><a xlink:title=" ">
<polygon fill="white" stroke="#bfbfbf" points="3788.5,-6 3788.5,-25 3865.5,-25 3865.5,-6 3788.5,-6"/>
<text text-anchor="middle" x="3827" y="-13" font-family="Helvetica,sans-Serif" font-size="10.00">Eigen/Dense</text>
</a>
</g>
</g>
<!-- Node1&#45;&gt;Node32 -->
<g id="edge31" class="edge">
<title>Node1&#45;&gt;Node32</title>
<path fill="none" stroke="midnightblue" d="M1690.27,-91.46C2061.36,-86.59 3570.34,-64.85 3779,-31 3783.57,-30.26 3788.31,-29.2 3792.96,-27.99"/>
<polygon fill="midnightblue" stroke="midnightblue" points="3794.22,-31.27 3802.88,-25.15 3792.3,-24.54 3794.22,-31.27"/>
</g>
</g>
</svg>
