<?xml version="1.0" encoding="UTF-8" standalone="no"?>
<!DOCTYPE svg PUBLIC "-//W3C//DTD SVG 1.1//EN"
 "http://www.w3.org/Graphics/SVG/1.1/DTD/svg11.dtd">
<!-- Generated by graphviz version 2.43.0 (0)
 -->
<!-- Title: ACSL&#45;flightstack/include/flightstack/control/pid/logging_pid.hpp Pages: 1 -->
<svg width="252pt" height="128pt"
 viewBox="0.00 0.00 252.00 128.00" xmlns="http://www.w3.org/2000/svg" xmlns:xlink="http://www.w3.org/1999/xlink">
<g id="graph0" class="graph" transform="scale(1 1) rotate(0) translate(4 124)">
<title>ACSL&#45;flightstack/include/flightstack/control/pid/logging_pid.hpp</title>
<polygon fill="white" stroke="transparent" points="-4,4 -4,-124 248,-124 248,4 -4,4"/>
<!-- Node1 -->
<g id="node1" class="node">
<title>Node1</title>
<g id="a_node1"><a xlink:title="Logger for the PID controller.">
<polygon fill="#bfbfbf" stroke="black" points="54.5,-78.5 54.5,-119.5 188.5,-119.5 188.5,-78.5 54.5,-78.5"/>
<text text-anchor="start" x="62.5" y="-107.5" font-family="Helvetica,sans-Serif" font-size="10.00">ACSL&#45;flightstack/include</text>
<text text-anchor="start" x="62.5" y="-96.5" font-family="Helvetica,sans-Serif" font-size="10.00">/flightstack/control/pid</text>
<text text-anchor="middle" x="121.5" y="-85.5" font-family="Helvetica,sans-Serif" font-size="10.00">/logging_pid.hpp</text>
</a>
</g>
</g>
<!-- Node2 -->
<g id="node2" class="node">
<title>Node2</title>
<g id="a_node2"><a xlink:href="logging__pid_8cpp.html" target="_top" xlink:title="Logger for the PID controller.">
<polygon fill="white" stroke="black" points="0,-0.5 0,-41.5 113,-41.5 113,-0.5 0,-0.5"/>
<text text-anchor="start" x="8" y="-29.5" font-family="Helvetica,sans-Serif" font-size="10.00">ACSL&#45;flightstack/src</text>
<text text-anchor="start" x="8" y="-18.5" font-family="Helvetica,sans-Serif" font-size="10.00">/control/pid/logging</text>
<text text-anchor="middle" x="56.5" y="-7.5" font-family="Helvetica,sans-Serif" font-size="10.00">_pid.cpp</text>
</a>
</g>
</g>
<!-- Node1&#45;&gt;Node2 -->
<g id="edge1" class="edge">
<title>Node1&#45;&gt;Node2</title>
<path fill="none" stroke="midnightblue" d="M98.09,-70.63C89.85,-60.99 80.76,-50.36 73.18,-41.51"/>
<polygon fill="midnightblue" stroke="midnightblue" points="95.6,-73.1 104.76,-78.43 100.92,-68.55 95.6,-73.1"/>
</g>
<!-- Node3 -->
<g id="node3" class="node">
<title>Node3</title>
<g id="a_node3"><a xlink:href="pid_8cpp.html" target="_top" xlink:title="Immplementation of the PID controller.">
<polygon fill="white" stroke="black" points="131,-6 131,-36 244,-36 244,-6 131,-6"/>
<text text-anchor="start" x="139" y="-24" font-family="Helvetica,sans-Serif" font-size="10.00">ACSL&#45;flightstack/src</text>
<text text-anchor="middle" x="187.5" y="-13" font-family="Helvetica,sans-Serif" font-size="10.00">/control/pid/pid.cpp</text>
</a>
</g>
</g>
<!-- Node1&#45;&gt;Node3 -->
<g id="edge2" class="edge">
<title>Node1&#45;&gt;Node3</title>
<path fill="none" stroke="midnightblue" d="M145.25,-70.65C155.37,-59 166.75,-45.9 175.15,-36.23"/>
<polygon fill="midnightblue" stroke="midnightblue" points="142.41,-68.58 138.5,-78.43 147.7,-73.17 142.41,-68.58"/>
</g>
</g>
</svg>
