<?xml version="1.0" encoding="UTF-8" standalone="no"?>
<!DOCTYPE svg PUBLIC "-//W3C//DTD SVG 1.1//EN"
 "http://www.w3.org/Graphics/SVG/1.1/DTD/svg11.dtd">
<!-- Generated by graphviz version 2.43.0 (0)
 -->
<!-- Title: /mnt/c/Users/siddh/OneDrive/Desktop/ACSL&#45;flightstack/include/flightstack/control/mrac/logging_mrac.hpp Pages: 1 -->
<svg width="2263pt" height="417pt"
 viewBox="0.00 0.00 2263.00 417.00" xmlns="http://www.w3.org/2000/svg" xmlns:xlink="http://www.w3.org/1999/xlink">
<g id="graph0" class="graph" transform="scale(1 1) rotate(0) translate(4 413)">
<title>/mnt/c/Users/siddh/OneDrive/Desktop/ACSL&#45;flightstack/include/flightstack/control/mrac/logging_mrac.hpp</title>
<polygon fill="white" stroke="transparent" points="-4,4 -4,-413 2259,-413 2259,4 -4,4"/>
<!-- Node1 -->
<g id="node1" class="node">
<title>Node1</title>
<g id="a_node1"><a xlink:title="Logger for the MRAC controller.">
<polygon fill="#bfbfbf" stroke="black" points="1946,-356.5 1946,-408.5 2117,-408.5 2117,-356.5 1946,-356.5"/>
<text text-anchor="start" x="1954" y="-396.5" font-family="Helvetica,sans-Serif" font-size="10.00">/mnt/c/Users/siddh</text>
<text text-anchor="start" x="1954" y="-385.5" font-family="Helvetica,sans-Serif" font-size="10.00">/OneDrive/Desktop/ACSL</text>
<text text-anchor="start" x="1954" y="-374.5" font-family="Helvetica,sans-Serif" font-size="10.00">&#45;flightstack/include/flightstack</text>
<text text-anchor="middle" x="2031.5" y="-363.5" font-family="Helvetica,sans-Serif" font-size="10.00">/control/mrac/logging_mrac.hpp</text>
</a>
</g>
</g>
<!-- Node2 -->
<g id="node2" class="node">
<title>Node2</title>
<g id="a_node2"><a xlink:href="config_8hpp.html" target="_top" xlink:title="Configuration file. Here you specify which cotroller you want to run at compile time.">
<polygon fill="white" stroke="black" points="1149.5,-267.5 1149.5,-319.5 1313.5,-319.5 1313.5,-267.5 1149.5,-267.5"/>
<text text-anchor="start" x="1157.5" y="-307.5" font-family="Helvetica,sans-Serif" font-size="10.00">/mnt/c/Users/siddh</text>
<text text-anchor="start" x="1157.5" y="-296.5" font-family="Helvetica,sans-Serif" font-size="10.00">/OneDrive/Desktop/ACSL</text>
<text text-anchor="start" x="1157.5" y="-285.5" font-family="Helvetica,sans-Serif" font-size="10.00">&#45;flightstack/include/flightstack</text>
<text text-anchor="middle" x="1231.5" y="-274.5" font-family="Helvetica,sans-Serif" font-size="10.00">/config/config.hpp</text>
</a>
</g>
</g>
<!-- Node1&#45;&gt;Node2 -->
<g id="edge1" class="edge">
<title>Node1&#45;&gt;Node2</title>
<path fill="none" stroke="midnightblue" d="M1935.66,-371.08C1777.01,-353.82 1462.53,-319.63 1313.51,-303.42"/>
<polygon fill="midnightblue" stroke="midnightblue" points="1935.57,-374.59 1945.89,-372.19 1936.32,-367.63 1935.57,-374.59"/>
</g>
<!-- Node9 -->
<g id="node9" class="node">
<title>Node9</title>
<g id="a_node9"><a xlink:href="logging__mrac_8cpp.html" target="_top" xlink:title="Logger for the MRAC controller.">
<polygon fill="white" stroke="black" points="1963,-84 1963,-136 2100,-136 2100,-84 1963,-84"/>
<text text-anchor="start" x="1971" y="-124" font-family="Helvetica,sans-Serif" font-size="10.00">/mnt/c/Users/siddh</text>
<text text-anchor="start" x="1971" y="-113" font-family="Helvetica,sans-Serif" font-size="10.00">/OneDrive/Desktop/ACSL</text>
<text text-anchor="start" x="1971" y="-102" font-family="Helvetica,sans-Serif" font-size="10.00">&#45;flightstack/src/control</text>
<text text-anchor="middle" x="2031.5" y="-91" font-family="Helvetica,sans-Serif" font-size="10.00">/mrac/logging_mrac.cpp</text>
</a>
</g>
</g>
<!-- Node1&#45;&gt;Node9 -->
<g id="edge20" class="edge">
<title>Node1&#45;&gt;Node9</title>
<path fill="none" stroke="midnightblue" d="M2031.5,-345.98C2031.5,-290.47 2031.5,-184.53 2031.5,-136.18"/>
<polygon fill="midnightblue" stroke="midnightblue" points="2028,-346.05 2031.5,-356.05 2035,-346.05 2028,-346.05"/>
</g>
<!-- Node10 -->
<g id="node10" class="node">
<title>Node10</title>
<g id="a_node10"><a xlink:href="mrac_8cpp.html" target="_top" xlink:title="Implementation of the MRAC controller.">
<polygon fill="white" stroke="black" points="2118,-84 2118,-136 2255,-136 2255,-84 2118,-84"/>
<text text-anchor="start" x="2126" y="-124" font-family="Helvetica,sans-Serif" font-size="10.00">/mnt/c/Users/siddh</text>
<text text-anchor="start" x="2126" y="-113" font-family="Helvetica,sans-Serif" font-size="10.00">/OneDrive/Desktop/ACSL</text>
<text text-anchor="start" x="2126" y="-102" font-family="Helvetica,sans-Serif" font-size="10.00">&#45;flightstack/src/control</text>
<text text-anchor="middle" x="2186.5" y="-91" font-family="Helvetica,sans-Serif" font-size="10.00">/mrac/mrac.cpp</text>
</a>
</g>
</g>
<!-- Node1&#45;&gt;Node10 -->
<g id="edge21" class="edge">
<title>Node1&#45;&gt;Node10</title>
<path fill="none" stroke="midnightblue" d="M2051.07,-347.35C2082.65,-292.24 2144.14,-184.93 2172.07,-136.18"/>
<polygon fill="midnightblue" stroke="midnightblue" points="2048.02,-345.64 2046.08,-356.05 2054.09,-349.12 2048.02,-345.64"/>
</g>
<!-- Node3 -->
<g id="node3" class="node">
<title>Node3</title>
<g id="a_node3"><a xlink:href="multi__threaded__node_8hpp.html" target="_top" xlink:title="Multithreaded ROS2 node that joins together all the flight stack components.">
<polygon fill="white" stroke="black" points="1064.5,-178.5 1064.5,-230.5 1228.5,-230.5 1228.5,-178.5 1064.5,-178.5"/>
<text text-anchor="start" x="1072.5" y="-218.5" font-family="Helvetica,sans-Serif" font-size="10.00">/mnt/c/Users/siddh</text>
<text text-anchor="start" x="1072.5" y="-207.5" font-family="Helvetica,sans-Serif" font-size="10.00">/OneDrive/Desktop/ACSL</text>
<text text-anchor="start" x="1072.5" y="-196.5" font-family="Helvetica,sans-Serif" font-size="10.00">&#45;flightstack/include/flightstack</text>
<text text-anchor="middle" x="1146.5" y="-185.5" font-family="Helvetica,sans-Serif" font-size="10.00">/multi_threaded_node.hpp</text>
</a>
</g>
</g>
<!-- Node2&#45;&gt;Node3 -->
<g id="edge2" class="edge">
<title>Node2&#45;&gt;Node3</title>
<path fill="none" stroke="midnightblue" d="M1199.82,-260.08C1190.3,-250.34 1180.01,-239.8 1171.03,-230.61"/>
<polygon fill="midnightblue" stroke="midnightblue" points="1197.42,-262.63 1206.91,-267.34 1202.43,-257.74 1197.42,-262.63"/>
</g>
<!-- Node6 -->
<g id="node6" class="node">
<title>Node6</title>
<g id="a_node6"><a xlink:href="config_8cpp.html" target="_top" xlink:title="Contains the functions that reads the configuration parameters and assigns it to the members of the C...">
<polygon fill="white" stroke="black" points="0,-84 0,-136 137,-136 137,-84 0,-84"/>
<text text-anchor="start" x="8" y="-124" font-family="Helvetica,sans-Serif" font-size="10.00">/mnt/c/Users/siddh</text>
<text text-anchor="start" x="8" y="-113" font-family="Helvetica,sans-Serif" font-size="10.00">/OneDrive/Desktop/ACSL</text>
<text text-anchor="start" x="8" y="-102" font-family="Helvetica,sans-Serif" font-size="10.00">&#45;flightstack/src/config</text>
<text text-anchor="middle" x="68.5" y="-91" font-family="Helvetica,sans-Serif" font-size="10.00">/config.cpp</text>
</a>
</g>
</g>
<!-- Node2&#45;&gt;Node6 -->
<g id="edge18" class="edge">
<title>Node2&#45;&gt;Node6</title>
<path fill="none" stroke="midnightblue" d="M1139.01,-287.18C949.86,-274.68 506.25,-236.96 146.5,-142 140.16,-140.33 133.64,-138.28 127.2,-136.05"/>
<polygon fill="midnightblue" stroke="midnightblue" points="1138.99,-290.69 1149.19,-287.85 1139.44,-283.7 1138.99,-290.69"/>
</g>
<!-- Node19 -->
<g id="node19" class="node">
<title>Node19</title>
<g id="a_node19"><a xlink:href="logging__mocap_8cpp.html" target="_top" xlink:title="Logger for the motion capture (MOCAP) system.">
<polygon fill="white" stroke="black" points="1247,-178.5 1247,-230.5 1384,-230.5 1384,-178.5 1247,-178.5"/>
<text text-anchor="start" x="1255" y="-218.5" font-family="Helvetica,sans-Serif" font-size="10.00">/mnt/c/Users/siddh</text>
<text text-anchor="start" x="1255" y="-207.5" font-family="Helvetica,sans-Serif" font-size="10.00">/OneDrive/Desktop/ACSL</text>
<text text-anchor="start" x="1255" y="-196.5" font-family="Helvetica,sans-Serif" font-size="10.00">&#45;flightstack/src/logging</text>
<text text-anchor="middle" x="1315.5" y="-185.5" font-family="Helvetica,sans-Serif" font-size="10.00">/logging_mocap.cpp</text>
</a>
</g>
</g>
<!-- Node2&#45;&gt;Node19 -->
<g id="edge19" class="edge">
<title>Node2&#45;&gt;Node19</title>
<path fill="none" stroke="midnightblue" d="M1262.81,-260.08C1272.21,-250.34 1282.38,-239.8 1291.26,-230.61"/>
<polygon fill="midnightblue" stroke="midnightblue" points="1260.22,-257.71 1255.8,-267.34 1265.26,-262.57 1260.22,-257.71"/>
</g>
<!-- Node4 -->
<g id="node4" class="node">
<title>Node4</title>
<g id="a_node4"><a xlink:href="main_8hpp.html" target="_top" xlink:title="Main file.">
<polygon fill="white" stroke="black" points="663.5,-84 663.5,-136 827.5,-136 827.5,-84 663.5,-84"/>
<text text-anchor="start" x="671.5" y="-124" font-family="Helvetica,sans-Serif" font-size="10.00">/mnt/c/Users/siddh</text>
<text text-anchor="start" x="671.5" y="-113" font-family="Helvetica,sans-Serif" font-size="10.00">/OneDrive/Desktop/ACSL</text>
<text text-anchor="start" x="671.5" y="-102" font-family="Helvetica,sans-Serif" font-size="10.00">&#45;flightstack/include/flightstack</text>
<text text-anchor="middle" x="745.5" y="-91" font-family="Helvetica,sans-Serif" font-size="10.00">/main.hpp</text>
</a>
</g>
</g>
<!-- Node3&#45;&gt;Node4 -->
<g id="edge3" class="edge">
<title>Node3&#45;&gt;Node4</title>
<path fill="none" stroke="midnightblue" d="M1054.08,-188.47C992.05,-177.58 908.79,-161.39 836.5,-142 829.89,-140.23 823.06,-138.23 816.26,-136.12"/>
<polygon fill="midnightblue" stroke="midnightblue" points="1053.78,-191.97 1064.23,-190.24 1054.98,-185.08 1053.78,-191.97"/>
</g>
<!-- Node3&#45;&gt;Node6 -->
<g id="edge5" class="edge">
<title>Node3&#45;&gt;Node6</title>
<path fill="none" stroke="midnightblue" d="M1054.28,-199.49C823.56,-189.24 233.58,-161.46 146.5,-142 139.67,-140.47 132.67,-138.43 125.78,-136.12"/>
<polygon fill="midnightblue" stroke="midnightblue" points="1054.18,-202.99 1064.33,-199.94 1054.49,-196 1054.18,-202.99"/>
</g>
<!-- Node7 -->
<g id="node7" class="node">
<title>Node7</title>
<g id="a_node7"><a xlink:href="control_8cpp.html" target="_top" xlink:title="This file contains the general class containing the common memvers used by most of the control algori...">
<polygon fill="white" stroke="black" points="846,-84 846,-136 983,-136 983,-84 846,-84"/>
<text text-anchor="start" x="854" y="-124" font-family="Helvetica,sans-Serif" font-size="10.00">/mnt/c/Users/siddh</text>
<text text-anchor="start" x="854" y="-113" font-family="Helvetica,sans-Serif" font-size="10.00">/OneDrive/Desktop/ACSL</text>
<text text-anchor="start" x="854" y="-102" font-family="Helvetica,sans-Serif" font-size="10.00">&#45;flightstack/src/control</text>
<text text-anchor="middle" x="914.5" y="-91" font-family="Helvetica,sans-Serif" font-size="10.00">/control.cpp</text>
</a>
</g>
</g>
<!-- Node3&#45;&gt;Node7 -->
<g id="edge6" class="edge">
<title>Node3&#45;&gt;Node7</title>
<path fill="none" stroke="midnightblue" d="M1073.73,-174.71C1047.77,-164.42 1018.32,-152.72 991.5,-142 986.68,-140.07 981.7,-138.08 976.69,-136.07"/>
<polygon fill="midnightblue" stroke="midnightblue" points="1072.54,-178.01 1083.12,-178.44 1075.12,-171.5 1072.54,-178.01"/>
</g>
<!-- Node8 -->
<g id="node8" class="node">
<title>Node8</title>
<g id="a_node8"><a xlink:href="control__callback_8cpp.html" target="_top" xlink:title="Callback that is executed at a fixed specified rate defined by the &quot;timer_controller_&quot;.">
<polygon fill="white" stroke="black" points="1001,-84 1001,-136 1138,-136 1138,-84 1001,-84"/>
<text text-anchor="start" x="1009" y="-124" font-family="Helvetica,sans-Serif" font-size="10.00">/mnt/c/Users/siddh</text>
<text text-anchor="start" x="1009" y="-113" font-family="Helvetica,sans-Serif" font-size="10.00">/OneDrive/Desktop/ACSL</text>
<text text-anchor="start" x="1009" y="-102" font-family="Helvetica,sans-Serif" font-size="10.00">&#45;flightstack/src/control</text>
<text text-anchor="middle" x="1069.5" y="-91" font-family="Helvetica,sans-Serif" font-size="10.00">/control_callback.cpp</text>
</a>
</g>
</g>
<!-- Node3&#45;&gt;Node8 -->
<g id="edge7" class="edge">
<title>Node3&#45;&gt;Node8</title>
<path fill="none" stroke="midnightblue" d="M1118.86,-170.29C1109.52,-159.08 1099.25,-146.74 1090.52,-136.25"/>
<polygon fill="midnightblue" stroke="midnightblue" points="1116.37,-172.78 1125.46,-178.22 1121.75,-168.3 1116.37,-172.78"/>
</g>
<!-- Node3&#45;&gt;Node9 -->
<g id="edge8" class="edge">
<title>Node3&#45;&gt;Node9</title>
<path fill="none" stroke="midnightblue" d="M1238.99,-177.94C1553.93,-128.46 1645.51,-209.02 1953.5,-142 1960.48,-140.48 1967.64,-138.41 1974.66,-136.05"/>
<polygon fill="midnightblue" stroke="midnightblue" points="1237.98,-174.55 1228.66,-179.59 1239.08,-181.47 1237.98,-174.55"/>
</g>
<!-- Node3&#45;&gt;Node10 -->
<g id="edge9" class="edge">
<title>Node3&#45;&gt;Node10</title>
<path fill="none" stroke="midnightblue" d="M1238.63,-178C1622.05,-119.11 1732.79,-222 2108.5,-142 2115.48,-140.51 2122.65,-138.46 2129.68,-136.11"/>
<polygon fill="midnightblue" stroke="midnightblue" points="1237.99,-174.56 1228.65,-179.56 1239.07,-181.47 1237.99,-174.56"/>
</g>
<!-- Node11 -->
<g id="node11" class="node">
<title>Node11</title>
<g id="a_node11"><a xlink:href="logging__pid_8cpp.html" target="_top" xlink:title="Logger for the PID controller.">
<polygon fill="white" stroke="black" points="1156,-84 1156,-136 1293,-136 1293,-84 1156,-84"/>
<text text-anchor="start" x="1164" y="-124" font-family="Helvetica,sans-Serif" font-size="10.00">/mnt/c/Users/siddh</text>
<text text-anchor="start" x="1164" y="-113" font-family="Helvetica,sans-Serif" font-size="10.00">/OneDrive/Desktop/ACSL</text>
<text text-anchor="start" x="1164" y="-102" font-family="Helvetica,sans-Serif" font-size="10.00">&#45;flightstack/src/control</text>
<text text-anchor="middle" x="1224.5" y="-91" font-family="Helvetica,sans-Serif" font-size="10.00">/pid/logging_pid.cpp</text>
</a>
</g>
</g>
<!-- Node3&#45;&gt;Node11 -->
<g id="edge10" class="edge">
<title>Node3&#45;&gt;Node11</title>
<path fill="none" stroke="midnightblue" d="M1174.5,-170.29C1183.96,-159.08 1194.36,-146.74 1203.21,-136.25"/>
<polygon fill="midnightblue" stroke="midnightblue" points="1171.58,-168.32 1167.81,-178.22 1176.94,-172.84 1171.58,-168.32"/>
</g>
<!-- Node12 -->
<g id="node12" class="node">
<title>Node12</title>
<g id="a_node12"><a xlink:href="pid_8cpp.html" target="_top" xlink:title="Immplementation of the PID controller.">
<polygon fill="white" stroke="black" points="1311,-84 1311,-136 1448,-136 1448,-84 1311,-84"/>
<text text-anchor="start" x="1319" y="-124" font-family="Helvetica,sans-Serif" font-size="10.00">/mnt/c/Users/siddh</text>
<text text-anchor="start" x="1319" y="-113" font-family="Helvetica,sans-Serif" font-size="10.00">/OneDrive/Desktop/ACSL</text>
<text text-anchor="start" x="1319" y="-102" font-family="Helvetica,sans-Serif" font-size="10.00">&#45;flightstack/src/control</text>
<text text-anchor="middle" x="1379.5" y="-91" font-family="Helvetica,sans-Serif" font-size="10.00">/pid/pid.cpp</text>
</a>
</g>
</g>
<!-- Node3&#45;&gt;Node12 -->
<g id="edge11" class="edge">
<title>Node3&#45;&gt;Node12</title>
<path fill="none" stroke="midnightblue" d="M1219.24,-174.65C1245.2,-164.35 1274.66,-152.66 1301.5,-142 1306.38,-140.06 1311.42,-138.06 1316.5,-136.04"/>
<polygon fill="midnightblue" stroke="midnightblue" points="1217.85,-171.43 1209.85,-178.37 1220.44,-177.94 1217.85,-171.43"/>
</g>
<!-- Node13 -->
<g id="node13" class="node">
<title>Node13</title>
<g id="a_node13"><a xlink:href="multi__threaded__node_8cpp.html" target="_top" xlink:title="Multithreaded ROS2 ndoe that joins together all the flight stakc components.">
<polygon fill="white" stroke="black" points="1466,-84 1466,-136 1603,-136 1603,-84 1466,-84"/>
<text text-anchor="start" x="1474" y="-124" font-family="Helvetica,sans-Serif" font-size="10.00">/mnt/c/Users/siddh</text>
<text text-anchor="start" x="1474" y="-113" font-family="Helvetica,sans-Serif" font-size="10.00">/OneDrive/Desktop/ACSL</text>
<text text-anchor="start" x="1474" y="-102" font-family="Helvetica,sans-Serif" font-size="10.00">&#45;flightstack/src/multi</text>
<text text-anchor="middle" x="1534.5" y="-91" font-family="Helvetica,sans-Serif" font-size="10.00">_threaded_node.cpp</text>
</a>
</g>
</g>
<!-- Node3&#45;&gt;Node13 -->
<g id="edge12" class="edge">
<title>Node3&#45;&gt;Node13</title>
<path fill="none" stroke="midnightblue" d="M1238.66,-177.87C1335.66,-157.37 1364.51,-167.52 1456.5,-142 1462.68,-140.29 1469.04,-138.25 1475.33,-136.04"/>
<polygon fill="midnightblue" stroke="midnightblue" points="1237.77,-174.48 1228.74,-180.02 1239.25,-181.32 1237.77,-174.48"/>
</g>
<!-- Node14 -->
<g id="node14" class="node">
<title>Node14</title>
<g id="a_node14"><a xlink:href="pixhawk__actuator__motors_8cpp.html" target="_top" xlink:title="Callback that is executed at a fixed specified rate defined by the &quot;timer_controller_&quot;.">
<polygon fill="white" stroke="black" points="1621,-78.5 1621,-141.5 1776,-141.5 1776,-78.5 1621,-78.5"/>
<text text-anchor="start" x="1629" y="-129.5" font-family="Helvetica,sans-Serif" font-size="10.00">/mnt/c/Users/siddh</text>
<text text-anchor="start" x="1629" y="-118.5" font-family="Helvetica,sans-Serif" font-size="10.00">/OneDrive/Desktop/ACSL</text>
<text text-anchor="start" x="1629" y="-107.5" font-family="Helvetica,sans-Serif" font-size="10.00">&#45;flightstack/src/pixhawk</text>
<text text-anchor="start" x="1629" y="-96.5" font-family="Helvetica,sans-Serif" font-size="10.00">_interface/pixhawk_actuator</text>
<text text-anchor="middle" x="1698.5" y="-85.5" font-family="Helvetica,sans-Serif" font-size="10.00">_motors.cpp</text>
</a>
</g>
</g>
<!-- Node3&#45;&gt;Node14 -->
<g id="edge13" class="edge">
<title>Node3&#45;&gt;Node14</title>
<path fill="none" stroke="midnightblue" d="M1238.68,-177.94C1403.53,-148.53 1451.69,-177.59 1611.5,-142 1614.63,-141.3 1617.8,-140.53 1620.99,-139.68"/>
<polygon fill="midnightblue" stroke="midnightblue" points="1237.89,-174.52 1228.69,-179.77 1239.15,-181.41 1237.89,-174.52"/>
</g>
<!-- Node15 -->
<g id="node15" class="node">
<title>Node15</title>
<g id="a_node15"><a xlink:href="pixhawk__vehicle__odometry_8cpp.html" target="_top" xlink:title="Callback that is executed everytime a VehicleOdometry message is made available by Pixhawk.">
<polygon fill="white" stroke="black" points="1794.5,-78.5 1794.5,-141.5 1944.5,-141.5 1944.5,-78.5 1794.5,-78.5"/>
<text text-anchor="start" x="1802.5" y="-129.5" font-family="Helvetica,sans-Serif" font-size="10.00">/mnt/c/Users/siddh</text>
<text text-anchor="start" x="1802.5" y="-118.5" font-family="Helvetica,sans-Serif" font-size="10.00">/OneDrive/Desktop/ACSL</text>
<text text-anchor="start" x="1802.5" y="-107.5" font-family="Helvetica,sans-Serif" font-size="10.00">&#45;flightstack/src/pixhawk</text>
<text text-anchor="start" x="1802.5" y="-96.5" font-family="Helvetica,sans-Serif" font-size="10.00">_interface/pixhawk_vehicle</text>
<text text-anchor="middle" x="1869.5" y="-85.5" font-family="Helvetica,sans-Serif" font-size="10.00">_odometry.cpp</text>
</a>
</g>
</g>
<!-- Node3&#45;&gt;Node15 -->
<g id="edge14" class="edge">
<title>Node3&#45;&gt;Node15</title>
<path fill="none" stroke="midnightblue" d="M1238.78,-177.95C1479.55,-138.4 1549.36,-191.56 1784.5,-142 1787.73,-141.32 1791,-140.54 1794.28,-139.69"/>
<polygon fill="midnightblue" stroke="midnightblue" points="1237.95,-174.54 1228.67,-179.65 1239.11,-181.45 1237.95,-174.54"/>
</g>
<!-- Node16 -->
<g id="node16" class="node">
<title>Node16</title>
<g id="a_node16"><a xlink:href="vehicle__state_8cpp.html" target="_top" xlink:title="Class storing the state of the vehicle coming from the flight controller (Pixhawk)">
<polygon fill="white" stroke="black" points="155.5,-84 155.5,-136 309.5,-136 309.5,-84 155.5,-84"/>
<text text-anchor="start" x="163.5" y="-124" font-family="Helvetica,sans-Serif" font-size="10.00">/mnt/c/Users/siddh</text>
<text text-anchor="start" x="163.5" y="-113" font-family="Helvetica,sans-Serif" font-size="10.00">/OneDrive/Desktop/ACSL</text>
<text text-anchor="start" x="163.5" y="-102" font-family="Helvetica,sans-Serif" font-size="10.00">&#45;flightstack/src/pixhawk</text>
<text text-anchor="middle" x="232.5" y="-91" font-family="Helvetica,sans-Serif" font-size="10.00">_interface/vehicle_state.cpp</text>
</a>
</g>
</g>
<!-- Node3&#45;&gt;Node16 -->
<g id="edge15" class="edge">
<title>Node3&#45;&gt;Node16</title>
<path fill="none" stroke="midnightblue" d="M1054.19,-199.8C868.7,-191.86 456.67,-171.46 318.5,-142 311.2,-140.44 303.69,-138.42 296.28,-136.14"/>
<polygon fill="midnightblue" stroke="midnightblue" points="1054.06,-203.3 1064.2,-200.23 1054.35,-196.31 1054.06,-203.3"/>
</g>
<!-- Node17 -->
<g id="node17" class="node">
<title>Node17</title>
<g id="a_node17"><a xlink:href="piecewise__polynomial__trajectory_8cpp.html" target="_top" xlink:title="Piecewise polynomial minimu&#45;jerk trajectory computed offline through a MATLAB script.">
<polygon fill="white" stroke="black" points="327.5,-78.5 327.5,-141.5 489.5,-141.5 489.5,-78.5 327.5,-78.5"/>
<text text-anchor="start" x="335.5" y="-129.5" font-family="Helvetica,sans-Serif" font-size="10.00">/mnt/c/Users/siddh</text>
<text text-anchor="start" x="335.5" y="-118.5" font-family="Helvetica,sans-Serif" font-size="10.00">/OneDrive/Desktop/ACSL</text>
<text text-anchor="start" x="335.5" y="-107.5" font-family="Helvetica,sans-Serif" font-size="10.00">&#45;flightstack/src/user</text>
<text text-anchor="start" x="335.5" y="-96.5" font-family="Helvetica,sans-Serif" font-size="10.00">_defined_trajectory/piecewise</text>
<text text-anchor="middle" x="408.5" y="-85.5" font-family="Helvetica,sans-Serif" font-size="10.00">_polynomial_trajectory.cpp</text>
</a>
</g>
</g>
<!-- Node3&#45;&gt;Node17 -->
<g id="edge16" class="edge">
<title>Node3&#45;&gt;Node17</title>
<path fill="none" stroke="midnightblue" d="M1054.43,-201.61C927.85,-197.46 693.54,-184.22 498.5,-142 495.59,-141.37 492.65,-140.68 489.69,-139.93"/>
<polygon fill="midnightblue" stroke="midnightblue" points="1054.37,-205.11 1064.48,-201.92 1054.6,-198.11 1054.37,-205.11"/>
</g>
<!-- Node18 -->
<g id="node18" class="node">
<title>Node18</title>
<g id="a_node18"><a xlink:href="user__defined__trajectory_8cpp.html" target="_top" xlink:title="Class that contains the common members that each type of user&#45;defined trajectory class will inherit.">
<polygon fill="white" stroke="black" points="508,-78.5 508,-141.5 645,-141.5 645,-78.5 508,-78.5"/>
<text text-anchor="start" x="516" y="-129.5" font-family="Helvetica,sans-Serif" font-size="10.00">/mnt/c/Users/siddh</text>
<text text-anchor="start" x="516" y="-118.5" font-family="Helvetica,sans-Serif" font-size="10.00">/OneDrive/Desktop/ACSL</text>
<text text-anchor="start" x="516" y="-107.5" font-family="Helvetica,sans-Serif" font-size="10.00">&#45;flightstack/src/user</text>
<text text-anchor="start" x="516" y="-96.5" font-family="Helvetica,sans-Serif" font-size="10.00">_defined_trajectory/user</text>
<text text-anchor="middle" x="576.5" y="-85.5" font-family="Helvetica,sans-Serif" font-size="10.00">_defined_trajectory.cpp</text>
</a>
</g>
</g>
<!-- Node3&#45;&gt;Node18 -->
<g id="edge17" class="edge">
<title>Node3&#45;&gt;Node18</title>
<path fill="none" stroke="midnightblue" d="M1054.29,-198.97C954.44,-192.45 791.13,-177.08 654.5,-142 651.39,-141.2 648.25,-140.31 645.09,-139.35"/>
<polygon fill="midnightblue" stroke="midnightblue" points="1054.15,-202.47 1064.35,-199.61 1054.59,-195.48 1054.15,-202.47"/>
</g>
<!-- Node5 -->
<g id="node5" class="node">
<title>Node5</title>
<g id="a_node5"><a xlink:href="main_8cpp.html" target="_top" xlink:title="FlightStack (Multirotor) main.cpp file.">
<polygon fill="white" stroke="black" points="677,-0.5 677,-41.5 814,-41.5 814,-0.5 677,-0.5"/>
<text text-anchor="start" x="685" y="-29.5" font-family="Helvetica,sans-Serif" font-size="10.00">/mnt/c/Users/siddh</text>
<text text-anchor="start" x="685" y="-18.5" font-family="Helvetica,sans-Serif" font-size="10.00">/OneDrive/Desktop/ACSL</text>
<text text-anchor="middle" x="745.5" y="-7.5" font-family="Helvetica,sans-Serif" font-size="10.00">&#45;flightstack/src/main.cpp</text>
</a>
</g>
</g>
<!-- Node4&#45;&gt;Node5 -->
<g id="edge4" class="edge">
<title>Node4&#45;&gt;Node5</title>
<path fill="none" stroke="midnightblue" d="M745.5,-73.66C745.5,-62.71 745.5,-51.05 745.5,-41.58"/>
<polygon fill="midnightblue" stroke="midnightblue" points="742,-73.84 745.5,-83.84 749,-73.84 742,-73.84"/>
</g>
</g>
</svg>
