<?xml version="1.0" encoding="UTF-8" standalone="no"?>
<!DOCTYPE svg PUBLIC "-//W3C//DTD SVG 1.1//EN"
 "http://www.w3.org/Graphics/SVG/1.1/DTD/svg11.dtd">
<!-- Generated by graphviz version 2.43.0 (0)
 -->
<!-- Title: /mnt/c/Users/siddh/Onedrive/Desktop/ACSL&#45;flightstack/src/control/pid/logging_pid.cpp Pages: 1 -->
<svg width="5130pt" height="240pt"
 viewBox="0.00 0.00 5129.50 240.00" xmlns="http://www.w3.org/2000/svg" xmlns:xlink="http://www.w3.org/1999/xlink">
<g id="graph0" class="graph" transform="scale(1 1) rotate(0) translate(4 236)">
<title>/mnt/c/Users/siddh/Onedrive/Desktop/ACSL&#45;flightstack/src/control/pid/logging_pid.cpp</title>
<polygon fill="white" stroke="transparent" points="-4,4 -4,-236 5125.5,-236 5125.5,4 -4,4"/>
<!-- Node1 -->
<g id="node1" class="node">
<title>Node1</title>
<g id="a_node1"><a xlink:title="Logger for the PID controller.">
<polygon fill="#bfbfbf" stroke="black" points="934.5,-179.5 934.5,-231.5 1069.5,-231.5 1069.5,-179.5 934.5,-179.5"/>
<text text-anchor="start" x="942.5" y="-219.5" font-family="Helvetica,sans-Serif" font-size="10.00">/mnt/c/Users/siddh</text>
<text text-anchor="start" x="942.5" y="-208.5" font-family="Helvetica,sans-Serif" font-size="10.00">/Onedrive/Desktop/ACSL</text>
<text text-anchor="start" x="942.5" y="-197.5" font-family="Helvetica,sans-Serif" font-size="10.00">&#45;flightstack/src/control</text>
<text text-anchor="middle" x="1002" y="-186.5" font-family="Helvetica,sans-Serif" font-size="10.00">/pid/logging_pid.cpp</text>
</a>
</g>
</g>
<!-- Node2 -->
<g id="node2" class="node">
<title>Node2</title>
<g id="a_node2"><a xlink:href="pid_8hpp.html" target="_top" xlink:title="Implementation of the PID controller.">
<polygon fill="white" stroke="black" points="150.5,-123.5 150.5,-142.5 203.5,-142.5 203.5,-123.5 150.5,-123.5"/>
<text text-anchor="middle" x="177" y="-130.5" font-family="Helvetica,sans-Serif" font-size="10.00">pid.hpp</text>
</a>
</g>
</g>
<!-- Node1&#45;&gt;Node2 -->
<g id="edge1" class="edge">
<title>Node1&#45;&gt;Node2</title>
<path fill="none" stroke="midnightblue" d="M934.49,-198.73C767.92,-184.5 341.63,-148.07 213.78,-137.14"/>
<polygon fill="midnightblue" stroke="midnightblue" points="213.98,-133.65 203.72,-136.28 213.39,-140.62 213.98,-133.65"/>
</g>
<!-- Node20 -->
<g id="node12" class="node">
<title>Node20</title>
<g id="a_node12"><a xlink:href="logging__pid_8hpp.html" target="_top" xlink:title="Logger for the PID controller.">
<polygon fill="white" stroke="black" points="2705,-123.5 2705,-142.5 2799,-142.5 2799,-123.5 2705,-123.5"/>
<text text-anchor="middle" x="2752" y="-130.5" font-family="Helvetica,sans-Serif" font-size="10.00">logging_pid.hpp</text>
</a>
</g>
</g>
<!-- Node1&#45;&gt;Node20 -->
<g id="edge16" class="edge">
<title>Node1&#45;&gt;Node20</title>
<path fill="none" stroke="midnightblue" d="M1069.53,-201.78C1351.57,-190.42 2432.84,-146.86 2694.66,-136.31"/>
<polygon fill="midnightblue" stroke="midnightblue" points="2694.86,-139.8 2704.71,-135.91 2694.58,-132.81 2694.86,-139.8"/>
</g>
<!-- Node48 -->
<g id="node41" class="node">
<title>Node48</title>
<g id="a_node41"><a xlink:href="multi__threaded__node_8hpp.html" target="_top" xlink:title="Multithreaded ROS2 node that joins together all the flight stack components.">
<polygon fill="white" stroke="red" points="931.5,-123.5 931.5,-142.5 1072.5,-142.5 1072.5,-123.5 931.5,-123.5"/>
<text text-anchor="middle" x="1002" y="-130.5" font-family="Helvetica,sans-Serif" font-size="10.00">multi_threaded_node.hpp</text>
</a>
</g>
</g>
<!-- Node1&#45;&gt;Node48 -->
<g id="edge48" class="edge">
<title>Node1&#45;&gt;Node48</title>
<path fill="none" stroke="midnightblue" d="M1002,-179.45C1002,-170.73 1002,-161.1 1002,-152.96"/>
<polygon fill="midnightblue" stroke="midnightblue" points="1005.5,-152.7 1002,-142.7 998.5,-152.7 1005.5,-152.7"/>
</g>
<!-- Node3 -->
<g id="node3" class="node">
<title>Node3</title>
<g id="a_node3"><a xlink:title=" ">
<polygon fill="white" stroke="#bfbfbf" points="115.5,-0.5 115.5,-19.5 162.5,-19.5 162.5,-0.5 115.5,-0.5"/>
<text text-anchor="middle" x="139" y="-7.5" font-family="Helvetica,sans-Serif" font-size="10.00">cmath</text>
</a>
</g>
</g>
<!-- Node2&#45;&gt;Node3 -->
<g id="edge2" class="edge">
<title>Node2&#45;&gt;Node3</title>
<path fill="none" stroke="midnightblue" d="M174.27,-123.3C168.1,-103.68 153.02,-55.64 144.71,-29.19"/>
<polygon fill="midnightblue" stroke="midnightblue" points="148.04,-28.12 141.71,-19.62 141.37,-30.21 148.04,-28.12"/>
</g>
<!-- Node4 -->
<g id="node4" class="node">
<title>Node4</title>
<g id="a_node4"><a xlink:title=" ">
<polygon fill="white" stroke="#bfbfbf" points="0,-0.5 0,-19.5 64,-19.5 64,-0.5 0,-0.5"/>
<text text-anchor="middle" x="32" y="-7.5" font-family="Helvetica,sans-Serif" font-size="10.00">algorithm</text>
</a>
</g>
</g>
<!-- Node2&#45;&gt;Node4 -->
<g id="edge3" class="edge">
<title>Node2&#45;&gt;Node4</title>
<path fill="none" stroke="midnightblue" d="M150.45,-128.37C109.5,-122.16 33.96,-108.11 18,-87 5.4,-70.34 13.3,-45.83 21.43,-29.19"/>
<polygon fill="midnightblue" stroke="midnightblue" points="24.73,-30.45 26.34,-19.98 18.55,-27.16 24.73,-30.45"/>
</g>
<!-- Node5 -->
<g id="node5" class="node">
<title>Node5</title>
<g id="a_node5"><a xlink:title=" ">
<polygon fill="white" stroke="#bfbfbf" points="1201,-62 1201,-81 1245,-81 1245,-62 1201,-62"/>
<text text-anchor="middle" x="1223" y="-69" font-family="Helvetica,sans-Serif" font-size="10.00">string</text>
</a>
</g>
</g>
<!-- Node2&#45;&gt;Node5 -->
<g id="edge4" class="edge">
<title>Node2&#45;&gt;Node5</title>
<path fill="none" stroke="midnightblue" d="M203.76,-132.22C344.17,-133.19 996.72,-134.98 1192,-87 1193.99,-86.51 1196.01,-85.89 1198.01,-85.18"/>
<polygon fill="midnightblue" stroke="midnightblue" points="1199.81,-88.22 1207.67,-81.12 1197.09,-81.77 1199.81,-88.22"/>
</g>
<!-- Node6 -->
<g id="node6" class="node">
<title>Node6</title>
<g id="a_node6"><a xlink:title=" ">
<polygon fill="white" stroke="#bfbfbf" points="191.5,-0.5 191.5,-19.5 268.5,-19.5 268.5,-0.5 191.5,-0.5"/>
<text text-anchor="middle" x="230" y="-7.5" font-family="Helvetica,sans-Serif" font-size="10.00">Eigen/Dense</text>
</a>
</g>
</g>
<!-- Node2&#45;&gt;Node6 -->
<g id="edge5" class="edge">
<title>Node2&#45;&gt;Node6</title>
<path fill="none" stroke="midnightblue" d="M178.04,-123.18C180,-108.6 185.09,-78.82 196,-56 200.95,-45.64 208.5,-35.33 215.23,-27.2"/>
<polygon fill="midnightblue" stroke="midnightblue" points="217.91,-29.45 221.8,-19.6 212.61,-24.87 217.91,-29.45"/>
</g>
<!-- Node7 -->
<g id="node7" class="node">
<title>Node7</title>
<g id="a_node7"><a xlink:href="control_8hpp.html" target="_top" xlink:title="General class that contains common members used by most of the control algorithms.">
<polygon fill="white" stroke="red" points="205.5,-62 205.5,-81 276.5,-81 276.5,-62 205.5,-62"/>
<text text-anchor="middle" x="241" y="-69" font-family="Helvetica,sans-Serif" font-size="10.00">control.hpp</text>
</a>
</g>
</g>
<!-- Node2&#45;&gt;Node7 -->
<g id="edge6" class="edge">
<title>Node2&#45;&gt;Node7</title>
<path fill="none" stroke="midnightblue" d="M186.17,-123.48C196.15,-114.2 212.31,-99.17 224.51,-87.83"/>
<polygon fill="midnightblue" stroke="midnightblue" points="226.91,-90.38 231.85,-81.01 222.14,-85.25 226.91,-90.38"/>
</g>
<!-- Node19 -->
<g id="node11" class="node">
<title>Node19</title>
<g id="a_node11"><a xlink:href="pid__gains_8hpp.html" target="_top" xlink:title="Tuning gains of the PID controller.">
<polygon fill="white" stroke="black" points="27,-62 27,-81 111,-81 111,-62 27,-62"/>
<text text-anchor="middle" x="69" y="-69" font-family="Helvetica,sans-Serif" font-size="10.00">pid_gains.hpp</text>
</a>
</g>
</g>
<!-- Node2&#45;&gt;Node19 -->
<g id="edge12" class="edge">
<title>Node2&#45;&gt;Node19</title>
<path fill="none" stroke="midnightblue" d="M161.53,-123.48C143.72,-113.67 114.26,-97.43 93.37,-85.92"/>
<polygon fill="midnightblue" stroke="midnightblue" points="94.89,-82.77 84.45,-81.01 91.51,-88.9 94.89,-82.77"/>
</g>
<!-- Node7&#45;&gt;Node3 -->
<g id="edge7" class="edge">
<title>Node7&#45;&gt;Node3</title>
<path fill="none" stroke="midnightblue" d="M226.39,-61.98C209.65,-52.21 182,-36.08 162.28,-24.58"/>
<polygon fill="midnightblue" stroke="midnightblue" points="163.99,-21.52 153.59,-19.51 160.46,-27.57 163.99,-21.52"/>
</g>
<!-- Node7&#45;&gt;Node6 -->
<g id="edge11" class="edge">
<title>Node7&#45;&gt;Node6</title>
<path fill="none" stroke="midnightblue" d="M239.42,-61.98C237.87,-53.58 235.45,-40.48 233.45,-29.66"/>
<polygon fill="midnightblue" stroke="midnightblue" points="236.83,-28.71 231.57,-19.51 229.95,-29.98 236.83,-28.71"/>
</g>
<!-- Node8 -->
<g id="node8" class="node">
<title>Node8</title>
<g id="a_node8"><a xlink:title=" ">
<polygon fill="white" stroke="#bfbfbf" points="680.5,-0.5 680.5,-19.5 727.5,-19.5 727.5,-0.5 680.5,-0.5"/>
<text text-anchor="middle" x="704" y="-7.5" font-family="Helvetica,sans-Serif" font-size="10.00">vector</text>
</a>
</g>
</g>
<!-- Node7&#45;&gt;Node8 -->
<g id="edge8" class="edge">
<title>Node7&#45;&gt;Node8</title>
<path fill="none" stroke="midnightblue" d="M264.04,-61.89C270.72,-59.67 278.08,-57.49 285,-56 425.8,-25.6 597.87,-15.34 669.82,-12.23"/>
<polygon fill="midnightblue" stroke="midnightblue" points="670.25,-15.71 680.09,-11.8 669.96,-8.72 670.25,-15.71"/>
</g>
<!-- Node9 -->
<g id="node9" class="node">
<title>Node9</title>
<g id="a_node9"><a xlink:title=" ">
<polygon fill="white" stroke="#bfbfbf" points="1007.5,-0.5 1007.5,-19.5 1072.5,-19.5 1072.5,-0.5 1007.5,-0.5"/>
<text text-anchor="middle" x="1040" y="-7.5" font-family="Helvetica,sans-Serif" font-size="10.00">functional</text>
</a>
</g>
</g>
<!-- Node7&#45;&gt;Node9 -->
<g id="edge9" class="edge">
<title>Node7&#45;&gt;Node9</title>
<path fill="none" stroke="midnightblue" d="M263.09,-61.98C270.01,-59.65 277.73,-57.39 285,-56 423.11,-29.59 858.56,-15.87 997.18,-12.1"/>
<polygon fill="midnightblue" stroke="midnightblue" points="997.49,-15.59 1007.4,-11.82 997.31,-8.59 997.49,-15.59"/>
</g>
<!-- Node10 -->
<g id="node10" class="node">
<title>Node10</title>
<g id="a_node10"><a xlink:title=" ">
<polygon fill="white" stroke="#bfbfbf" points="1352,-0.5 1352,-19.5 1402,-19.5 1402,-0.5 1352,-0.5"/>
<text text-anchor="middle" x="1377" y="-7.5" font-family="Helvetica,sans-Serif" font-size="10.00">chrono</text>
</a>
</g>
</g>
<!-- Node7&#45;&gt;Node10 -->
<g id="edge10" class="edge">
<title>Node7&#45;&gt;Node10</title>
<path fill="none" stroke="midnightblue" d="M263.07,-61.9C269.99,-59.57 277.72,-57.32 285,-56 338.14,-46.34 1160.76,-18.26 1341.9,-12.17"/>
<polygon fill="midnightblue" stroke="midnightblue" points="1342.07,-15.67 1351.95,-11.84 1341.84,-8.67 1342.07,-15.67"/>
</g>
<!-- Node19&#45;&gt;Node3 -->
<g id="edge13" class="edge">
<title>Node19&#45;&gt;Node3</title>
<path fill="none" stroke="midnightblue" d="M79.03,-61.98C90.05,-52.61 107.96,-37.38 121.34,-26.01"/>
<polygon fill="midnightblue" stroke="midnightblue" points="123.64,-28.65 128.99,-19.51 119.1,-23.32 123.64,-28.65"/>
</g>
<!-- Node19&#45;&gt;Node4 -->
<g id="edge14" class="edge">
<title>Node19&#45;&gt;Node4</title>
<path fill="none" stroke="midnightblue" d="M63.7,-61.98C58.26,-53.23 49.64,-39.37 42.76,-28.31"/>
<polygon fill="midnightblue" stroke="midnightblue" points="45.54,-26.15 37.29,-19.51 39.6,-29.85 45.54,-26.15"/>
</g>
<!-- Node19&#45;&gt;Node6 -->
<g id="edge15" class="edge">
<title>Node19&#45;&gt;Node6</title>
<path fill="none" stroke="midnightblue" d="M92.07,-61.98C119.68,-51.77 166.12,-34.61 197.4,-23.05"/>
<polygon fill="midnightblue" stroke="midnightblue" points="198.81,-26.26 206.98,-19.51 196.38,-19.69 198.81,-26.26"/>
</g>
<!-- Node20&#45;&gt;Node5 -->
<g id="edge25" class="edge">
<title>Node20&#45;&gt;Node5</title>
<path fill="none" stroke="midnightblue" d="M2704.61,-131.72C2465.55,-130.14 1397.72,-121.22 1254,-87 1251.79,-86.47 1249.55,-85.78 1247.34,-84.99"/>
<polygon fill="midnightblue" stroke="midnightblue" points="1248.58,-81.71 1238,-81.02 1245.84,-88.15 1248.58,-81.71"/>
</g>
<!-- Node20&#45;&gt;Node6 -->
<g id="edge47" class="edge">
<title>Node20&#45;&gt;Node6</title>
<path fill="none" stroke="midnightblue" d="M2704.93,-132.07C2491.66,-132.13 1621.45,-129.73 1508,-87 1487.6,-79.32 1490.4,-63.68 1470,-56 1413.38,-34.67 500.97,-16.12 278.59,-11.9"/>
<polygon fill="midnightblue" stroke="midnightblue" points="278.59,-8.4 268.52,-11.71 278.46,-15.4 278.59,-8.4"/>
</g>
<!-- Node20&#45;&gt;Node10 -->
<g id="edge19" class="edge">
<title>Node20&#45;&gt;Node10</title>
<path fill="none" stroke="midnightblue" d="M2704.84,-128.45C2627.95,-122.16 2479.29,-107.73 2431,-87 2410.65,-78.27 2412.74,-63.76 2392,-56 2298.8,-21.14 1581.24,-12.77 1412.46,-11.28"/>
<polygon fill="midnightblue" stroke="midnightblue" points="1412.4,-7.78 1402.37,-11.19 1412.34,-14.78 1412.4,-7.78"/>
</g>
<!-- Node21 -->
<g id="node13" class="node">
<title>Node21</title>
<g id="a_node13"><a xlink:title=" ">
<polygon fill="white" stroke="#bfbfbf" points="1807,-62 1807,-81 1857,-81 1857,-62 1807,-62"/>
<text text-anchor="middle" x="1832" y="-69" font-family="Helvetica,sans-Serif" font-size="10.00">atomic</text>
</a>
</g>
</g>
<!-- Node20&#45;&gt;Node21 -->
<g id="edge17" class="edge">
<title>Node20&#45;&gt;Node21</title>
<path fill="none" stroke="midnightblue" d="M2704.98,-131.72C2545.9,-130.43 2028.8,-123.48 1867,-87 1864.33,-86.4 1861.59,-85.61 1858.89,-84.7"/>
<polygon fill="midnightblue" stroke="midnightblue" points="1860.01,-81.38 1849.42,-81.09 1857.52,-87.92 1860.01,-81.38"/>
</g>
<!-- Node22 -->
<g id="node14" class="node">
<title>Node22</title>
<g id="a_node14"><a xlink:title=" ">
<polygon fill="white" stroke="#bfbfbf" points="1875.5,-62 1875.5,-81 1928.5,-81 1928.5,-62 1875.5,-62"/>
<text text-anchor="middle" x="1902" y="-69" font-family="Helvetica,sans-Serif" font-size="10.00">cstddef</text>
</a>
</g>
</g>
<!-- Node20&#45;&gt;Node22 -->
<g id="edge18" class="edge">
<title>Node20&#45;&gt;Node22</title>
<path fill="none" stroke="midnightblue" d="M2704.87,-131.41C2554.22,-129.22 2085.65,-119.87 1938,-87 1935.16,-86.37 1932.26,-85.54 1929.4,-84.59"/>
<polygon fill="midnightblue" stroke="midnightblue" points="1930.54,-81.28 1919.94,-81.07 1928.09,-87.84 1930.54,-81.28"/>
</g>
<!-- Node23 -->
<g id="node15" class="node">
<title>Node23</title>
<g id="a_node15"><a xlink:title=" ">
<polygon fill="white" stroke="#bfbfbf" points="1947,-62 1947,-81 2015,-81 2015,-62 1947,-62"/>
<text text-anchor="middle" x="1981" y="-69" font-family="Helvetica,sans-Serif" font-size="10.00">filesystem</text>
</a>
</g>
</g>
<!-- Node20&#45;&gt;Node23 -->
<g id="edge20" class="edge">
<title>Node20&#45;&gt;Node23</title>
<path fill="none" stroke="midnightblue" d="M2704.58,-130.7C2564.65,-126.6 2155.1,-112.69 2024,-87 2020.11,-86.24 2016.09,-85.22 2012.14,-84.06"/>
<polygon fill="midnightblue" stroke="midnightblue" points="2013.16,-80.72 2002.57,-81.01 2011.04,-87.39 2013.16,-80.72"/>
</g>
<!-- Node14 -->
<g id="node16" class="node">
<title>Node14</title>
<g id="a_node16"><a xlink:title=" ">
<polygon fill="white" stroke="#bfbfbf" points="1405.5,-62 1405.5,-81 1460.5,-81 1460.5,-62 1405.5,-62"/>
<text text-anchor="middle" x="1433" y="-69" font-family="Helvetica,sans-Serif" font-size="10.00">fstream</text>
</a>
</g>
</g>
<!-- Node20&#45;&gt;Node14 -->
<g id="edge21" class="edge">
<title>Node20&#45;&gt;Node14</title>
<path fill="none" stroke="midnightblue" d="M2704.92,-132.21C2504.04,-132.8 1717.77,-132.14 1475,-87 1471.29,-86.31 1467.47,-85.36 1463.71,-84.26"/>
<polygon fill="midnightblue" stroke="midnightblue" points="1464.63,-80.88 1454.04,-81.13 1462.47,-87.54 1464.63,-80.88"/>
</g>
<!-- Node24 -->
<g id="node17" class="node">
<title>Node24</title>
<g id="a_node17"><a xlink:title=" ">
<polygon fill="white" stroke="#bfbfbf" points="2033,-62 2033,-81 2089,-81 2089,-62 2033,-62"/>
<text text-anchor="middle" x="2061" y="-69" font-family="Helvetica,sans-Serif" font-size="10.00">iomanip</text>
</a>
</g>
</g>
<!-- Node20&#45;&gt;Node24 -->
<g id="edge22" class="edge">
<title>Node20&#45;&gt;Node24</title>
<path fill="none" stroke="midnightblue" d="M2704.85,-130.56C2575.09,-126.3 2214.7,-112.47 2099,-87 2095.93,-86.32 2092.77,-85.44 2089.66,-84.45"/>
<polygon fill="midnightblue" stroke="midnightblue" points="2090.59,-81.07 2079.99,-81.01 2088.24,-87.66 2090.59,-81.07"/>
</g>
<!-- Node25 -->
<g id="node18" class="node">
<title>Node25</title>
<g id="a_node18"><a xlink:title=" ">
<polygon fill="white" stroke="#bfbfbf" points="2107.5,-62 2107.5,-81 2164.5,-81 2164.5,-62 2107.5,-62"/>
<text text-anchor="middle" x="2136" y="-69" font-family="Helvetica,sans-Serif" font-size="10.00">ostream</text>
</a>
</g>
</g>
<!-- Node20&#45;&gt;Node25 -->
<g id="edge23" class="edge">
<title>Node20&#45;&gt;Node25</title>
<path fill="none" stroke="midnightblue" d="M2704.87,-132.86C2605.45,-133.69 2367.45,-130.49 2174,-87 2171,-86.32 2167.91,-85.46 2164.87,-84.49"/>
<polygon fill="midnightblue" stroke="midnightblue" points="2165.99,-81.17 2155.39,-81.13 2163.65,-87.77 2165.99,-81.17"/>
</g>
<!-- Node26 -->
<g id="node19" class="node">
<title>Node26</title>
<g id="a_node19"><a xlink:title=" ">
<polygon fill="white" stroke="#bfbfbf" points="2183,-62 2183,-81 2239,-81 2239,-62 2183,-62"/>
<text text-anchor="middle" x="2211" y="-69" font-family="Helvetica,sans-Serif" font-size="10.00">sstream</text>
</a>
</g>
</g>
<!-- Node20&#45;&gt;Node26 -->
<g id="edge24" class="edge">
<title>Node20&#45;&gt;Node26</title>
<path fill="none" stroke="midnightblue" d="M2704.86,-132.07C2615,-131.28 2413.45,-124.96 2249,-87 2246,-86.31 2242.92,-85.43 2239.88,-84.45"/>
<polygon fill="midnightblue" stroke="midnightblue" points="2241,-81.14 2230.4,-81.08 2238.65,-87.73 2241,-81.14"/>
</g>
<!-- Node27 -->
<g id="node20" class="node">
<title>Node27</title>
<g id="a_node20"><a xlink:title=" ">
<polygon fill="white" stroke="#bfbfbf" points="2257.5,-56.5 2257.5,-86.5 2382.5,-86.5 2382.5,-56.5 2257.5,-56.5"/>
<text text-anchor="start" x="2265.5" y="-74.5" font-family="Helvetica,sans-Serif" font-size="10.00">boost/date_time/posix</text>
<text text-anchor="middle" x="2320" y="-63.5" font-family="Helvetica,sans-Serif" font-size="10.00">_time/posix_time.hpp</text>
</a>
</g>
</g>
<!-- Node20&#45;&gt;Node27 -->
<g id="edge26" class="edge">
<title>Node20&#45;&gt;Node27</title>
<path fill="none" stroke="midnightblue" d="M2704.78,-126.93C2636.64,-119.4 2506.85,-104.29 2397,-87 2395.53,-86.77 2394.05,-86.53 2392.55,-86.29"/>
<polygon fill="midnightblue" stroke="midnightblue" points="2393,-82.81 2382.56,-84.61 2391.84,-89.72 2393,-82.81"/>
</g>
<!-- Node28 -->
<g id="node21" class="node">
<title>Node28</title>
<g id="a_node21"><a xlink:title=" ">
<polygon fill="white" stroke="#bfbfbf" points="2439.5,-56.5 2439.5,-86.5 2594.5,-86.5 2594.5,-56.5 2439.5,-56.5"/>
<text text-anchor="start" x="2447.5" y="-74.5" font-family="Helvetica,sans-Serif" font-size="10.00">boost/date_time/posix</text>
<text text-anchor="middle" x="2517" y="-63.5" font-family="Helvetica,sans-Serif" font-size="10.00">_time/posix_time_types.hpp</text>
</a>
</g>
</g>
<!-- Node20&#45;&gt;Node28 -->
<g id="edge27" class="edge">
<title>Node20&#45;&gt;Node28</title>
<path fill="none" stroke="midnightblue" d="M2718.33,-123.48C2682.93,-114.51 2626.36,-100.19 2582.18,-89"/>
<polygon fill="midnightblue" stroke="midnightblue" points="2582.94,-85.58 2572.38,-86.52 2581.22,-92.37 2582.94,-85.58"/>
</g>
<!-- Node29 -->
<g id="node22" class="node">
<title>Node29</title>
<g id="a_node22"><a xlink:title=" ">
<polygon fill="white" stroke="#bfbfbf" points="2612.5,-62 2612.5,-81 2745.5,-81 2745.5,-62 2612.5,-62"/>
<text text-anchor="middle" x="2679" y="-69" font-family="Helvetica,sans-Serif" font-size="10.00">boost/log/attributes.hpp</text>
</a>
</g>
</g>
<!-- Node20&#45;&gt;Node29 -->
<g id="edge28" class="edge">
<title>Node20&#45;&gt;Node29</title>
<path fill="none" stroke="midnightblue" d="M2741.54,-123.48C2730.05,-114.11 2711.37,-98.88 2697.41,-87.51"/>
<polygon fill="midnightblue" stroke="midnightblue" points="2699.4,-84.61 2689.44,-81.01 2694.98,-90.04 2699.4,-84.61"/>
</g>
<!-- Node30 -->
<g id="node23" class="node">
<title>Node30</title>
<g id="a_node23"><a xlink:title=" ">
<polygon fill="white" stroke="#bfbfbf" points="2764,-56.5 2764,-86.5 2886,-86.5 2886,-56.5 2764,-56.5"/>
<text text-anchor="start" x="2772" y="-74.5" font-family="Helvetica,sans-Serif" font-size="10.00">boost/log/attributes</text>
<text text-anchor="middle" x="2825" y="-63.5" font-family="Helvetica,sans-Serif" font-size="10.00">/scoped_attribute.hpp</text>
</a>
</g>
</g>
<!-- Node20&#45;&gt;Node30 -->
<g id="edge29" class="edge">
<title>Node20&#45;&gt;Node30</title>
<path fill="none" stroke="midnightblue" d="M2762.46,-123.48C2772.16,-115.57 2786.99,-103.48 2799.77,-93.07"/>
<polygon fill="midnightblue" stroke="midnightblue" points="2802.26,-95.55 2807.8,-86.52 2797.83,-90.13 2802.26,-95.55"/>
</g>
<!-- Node31 -->
<g id="node24" class="node">
<title>Node31</title>
<g id="a_node24"><a xlink:title=" ">
<polygon fill="white" stroke="#bfbfbf" points="2904.5,-62 2904.5,-81 3011.5,-81 3011.5,-62 2904.5,-62"/>
<text text-anchor="middle" x="2958" y="-69" font-family="Helvetica,sans-Serif" font-size="10.00">boost/log/core.hpp</text>
</a>
</g>
</g>
<!-- Node20&#45;&gt;Node31 -->
<g id="edge30" class="edge">
<title>Node20&#45;&gt;Node31</title>
<path fill="none" stroke="midnightblue" d="M2781.51,-123.48C2817.62,-113.05 2878.85,-95.36 2918.85,-83.81"/>
<polygon fill="midnightblue" stroke="midnightblue" points="2919.9,-87.15 2928.54,-81.01 2917.96,-80.42 2919.9,-87.15"/>
</g>
<!-- Node32 -->
<g id="node25" class="node">
<title>Node32</title>
<g id="a_node25"><a xlink:title=" ">
<polygon fill="white" stroke="#bfbfbf" points="3030,-62 3030,-81 3174,-81 3174,-62 3030,-62"/>
<text text-anchor="middle" x="3102" y="-69" font-family="Helvetica,sans-Serif" font-size="10.00">boost/log/expressions.hpp</text>
</a>
</g>
</g>
<!-- Node20&#45;&gt;Node32 -->
<g id="edge31" class="edge">
<title>Node20&#45;&gt;Node32</title>
<path fill="none" stroke="midnightblue" d="M2799.16,-124.28C2852.89,-115.44 2943.32,-100.45 3021,-87 3028.72,-85.66 3036.85,-84.23 3044.86,-82.81"/>
<polygon fill="midnightblue" stroke="midnightblue" points="3045.67,-86.22 3054.9,-81.02 3044.44,-79.33 3045.67,-86.22"/>
</g>
<!-- Node33 -->
<g id="node26" class="node">
<title>Node33</title>
<g id="a_node26"><a xlink:title=" ">
<polygon fill="white" stroke="#bfbfbf" points="3192,-56.5 3192,-86.5 3308,-86.5 3308,-56.5 3192,-56.5"/>
<text text-anchor="start" x="3200" y="-74.5" font-family="Helvetica,sans-Serif" font-size="10.00">boost/log/sinks/sync</text>
<text text-anchor="middle" x="3250" y="-63.5" font-family="Helvetica,sans-Serif" font-size="10.00">_frontend.hpp</text>
</a>
</g>
</g>
<!-- Node20&#45;&gt;Node33 -->
<g id="edge32" class="edge">
<title>Node20&#45;&gt;Node33</title>
<path fill="none" stroke="midnightblue" d="M2799.1,-128.77C2876.8,-123.08 3036.87,-109.8 3181.99,-87.05"/>
<polygon fill="midnightblue" stroke="midnightblue" points="3182.64,-90.49 3191.97,-85.46 3181.54,-83.58 3182.64,-90.49"/>
</g>
<!-- Node34 -->
<g id="node27" class="node">
<title>Node34</title>
<g id="a_node27"><a xlink:title=" ">
<polygon fill="white" stroke="#bfbfbf" points="3326.5,-56.5 3326.5,-86.5 3455.5,-86.5 3455.5,-56.5 3326.5,-56.5"/>
<text text-anchor="start" x="3334.5" y="-74.5" font-family="Helvetica,sans-Serif" font-size="10.00">boost/log/sinks/text</text>
<text text-anchor="middle" x="3391" y="-63.5" font-family="Helvetica,sans-Serif" font-size="10.00">_ostream_backend.hpp</text>
</a>
</g>
</g>
<!-- Node20&#45;&gt;Node34 -->
<g id="edge33" class="edge">
<title>Node20&#45;&gt;Node34</title>
<path fill="none" stroke="midnightblue" d="M2799.07,-130.07C2894.63,-125.75 3118.34,-113.65 3316.49,-86.95"/>
<polygon fill="midnightblue" stroke="midnightblue" points="3317.06,-90.41 3326.5,-85.59 3316.12,-83.47 3317.06,-90.41"/>
</g>
<!-- Node35 -->
<g id="node28" class="node">
<title>Node35</title>
<g id="a_node28"><a xlink:title=" ">
<polygon fill="white" stroke="#bfbfbf" points="3473.5,-56.5 3473.5,-86.5 3604.5,-86.5 3604.5,-56.5 3473.5,-56.5"/>
<text text-anchor="start" x="3481.5" y="-74.5" font-family="Helvetica,sans-Serif" font-size="10.00">boost/log/sources/basic</text>
<text text-anchor="middle" x="3539" y="-63.5" font-family="Helvetica,sans-Serif" font-size="10.00">_logger.hpp</text>
</a>
</g>
</g>
<!-- Node20&#45;&gt;Node35 -->
<g id="edge34" class="edge">
<title>Node20&#45;&gt;Node35</title>
<path fill="none" stroke="midnightblue" d="M2799.34,-131.14C2912.5,-128.64 3207.67,-119.41 3463.09,-87.14"/>
<polygon fill="midnightblue" stroke="midnightblue" points="3463.83,-90.57 3473.31,-85.83 3462.94,-83.63 3463.83,-90.57"/>
</g>
<!-- Node36 -->
<g id="node29" class="node">
<title>Node36</title>
<g id="a_node29"><a xlink:title=" ">
<polygon fill="white" stroke="#bfbfbf" points="3623,-62 3623,-81 3779,-81 3779,-62 3623,-62"/>
<text text-anchor="middle" x="3701" y="-69" font-family="Helvetica,sans-Serif" font-size="10.00">boost/log/sources/logger.hpp</text>
</a>
</g>
</g>
<!-- Node20&#45;&gt;Node36 -->
<g id="edge35" class="edge">
<title>Node20&#45;&gt;Node36</title>
<path fill="none" stroke="midnightblue" d="M2799.34,-131.4C2929.65,-129.36 3304.51,-120.76 3614,-87 3624.27,-85.88 3635.16,-84.34 3645.64,-82.69"/>
<polygon fill="midnightblue" stroke="midnightblue" points="3646.22,-86.14 3655.53,-81.07 3645.1,-79.23 3646.22,-86.14"/>
</g>
<!-- Node37 -->
<g id="node30" class="node">
<title>Node37</title>
<g id="a_node30"><a xlink:title=" ">
<polygon fill="white" stroke="#bfbfbf" points="3797,-56.5 3797,-86.5 3933,-86.5 3933,-56.5 3797,-56.5"/>
<text text-anchor="start" x="3805" y="-74.5" font-family="Helvetica,sans-Serif" font-size="10.00">boost/log/sources/record</text>
<text text-anchor="middle" x="3865" y="-63.5" font-family="Helvetica,sans-Serif" font-size="10.00">_ostream.hpp</text>
</a>
</g>
</g>
<!-- Node20&#45;&gt;Node37 -->
<g id="edge36" class="edge">
<title>Node20&#45;&gt;Node37</title>
<path fill="none" stroke="midnightblue" d="M2799.17,-132.34C2944.84,-132.89 3400.52,-130.8 3786.67,-87.04"/>
<polygon fill="midnightblue" stroke="midnightblue" points="3787.11,-90.51 3796.64,-85.9 3786.31,-83.56 3787.11,-90.51"/>
</g>
<!-- Node38 -->
<g id="node31" class="node">
<title>Node38</title>
<g id="a_node31"><a xlink:title=" ">
<polygon fill="white" stroke="#bfbfbf" points="3951.5,-56.5 3951.5,-86.5 4096.5,-86.5 4096.5,-56.5 3951.5,-56.5"/>
<text text-anchor="start" x="3959.5" y="-74.5" font-family="Helvetica,sans-Serif" font-size="10.00">boost/log/sources/severity</text>
<text text-anchor="middle" x="4024" y="-63.5" font-family="Helvetica,sans-Serif" font-size="10.00">_channel_logger.hpp</text>
</a>
</g>
</g>
<!-- Node20&#45;&gt;Node38 -->
<g id="edge37" class="edge">
<title>Node20&#45;&gt;Node38</title>
<path fill="none" stroke="midnightblue" d="M2799.22,-132.54C2958.61,-133.85 3491.35,-134.26 3940.93,-87"/>
<polygon fill="midnightblue" stroke="midnightblue" points="3941.62,-90.44 3951.2,-85.91 3940.88,-83.48 3941.62,-90.44"/>
</g>
<!-- Node39 -->
<g id="node32" class="node">
<title>Node39</title>
<g id="a_node32"><a xlink:title=" ">
<polygon fill="white" stroke="#bfbfbf" points="4114.5,-56.5 4114.5,-86.5 4259.5,-86.5 4259.5,-56.5 4114.5,-56.5"/>
<text text-anchor="start" x="4122.5" y="-74.5" font-family="Helvetica,sans-Serif" font-size="10.00">boost/log/sources/severity</text>
<text text-anchor="middle" x="4187" y="-63.5" font-family="Helvetica,sans-Serif" font-size="10.00">_logger.hpp</text>
</a>
</g>
</g>
<!-- Node20&#45;&gt;Node39 -->
<g id="edge38" class="edge">
<title>Node20&#45;&gt;Node39</title>
<path fill="none" stroke="midnightblue" d="M2799.29,-131.34C3005.06,-128.34 3824.28,-114.93 4104.09,-87.08"/>
<polygon fill="midnightblue" stroke="midnightblue" points="4104.62,-90.54 4114.21,-86.04 4103.91,-83.58 4104.62,-90.54"/>
</g>
<!-- Node40 -->
<g id="node33" class="node">
<title>Node40</title>
<g id="a_node33"><a xlink:title=" ">
<polygon fill="white" stroke="#bfbfbf" points="4278,-56.5 4278,-86.5 4404,-86.5 4404,-56.5 4278,-56.5"/>
<text text-anchor="start" x="4286" y="-74.5" font-family="Helvetica,sans-Serif" font-size="10.00">boost/log/support/date</text>
<text text-anchor="middle" x="4341" y="-63.5" font-family="Helvetica,sans-Serif" font-size="10.00">_time.hpp</text>
</a>
</g>
</g>
<!-- Node20&#45;&gt;Node40 -->
<g id="edge39" class="edge">
<title>Node20&#45;&gt;Node40</title>
<path fill="none" stroke="midnightblue" d="M2799.27,-131.67C3020.27,-129.99 3953.67,-121.03 4267.87,-86.96"/>
<polygon fill="midnightblue" stroke="midnightblue" points="4268.33,-90.43 4277.88,-85.84 4267.55,-83.47 4268.33,-90.43"/>
</g>
<!-- Node41 -->
<g id="node34" class="node">
<title>Node41</title>
<g id="a_node34"><a xlink:title=" ">
<polygon fill="white" stroke="#bfbfbf" points="4422,-62 4422,-81 4536,-81 4536,-62 4422,-62"/>
<text text-anchor="middle" x="4479" y="-69" font-family="Helvetica,sans-Serif" font-size="10.00">boost/log/trivial.hpp</text>
</a>
</g>
</g>
<!-- Node20&#45;&gt;Node41 -->
<g id="edge40" class="edge">
<title>Node20&#45;&gt;Node41</title>
<path fill="none" stroke="midnightblue" d="M2799.38,-131.93C3035.7,-131.38 4088.36,-126.7 4413,-87 4420.53,-86.08 4428.47,-84.7 4436.12,-83.15"/>
<polygon fill="midnightblue" stroke="midnightblue" points="4436.93,-86.56 4445.97,-81.04 4435.46,-79.71 4436.93,-86.56"/>
</g>
<!-- Node42 -->
<g id="node35" class="node">
<title>Node42</title>
<g id="a_node35"><a xlink:title=" ">
<polygon fill="white" stroke="#bfbfbf" points="4554,-56.5 4554,-86.5 4690,-86.5 4690,-56.5 4554,-56.5"/>
<text text-anchor="start" x="4562" y="-74.5" font-family="Helvetica,sans-Serif" font-size="10.00">boost/log/utility/setup</text>
<text text-anchor="middle" x="4622" y="-63.5" font-family="Helvetica,sans-Serif" font-size="10.00">/common_attributes.hpp</text>
</a>
</g>
</g>
<!-- Node20&#45;&gt;Node42 -->
<g id="edge41" class="edge">
<title>Node20&#45;&gt;Node42</title>
<path fill="none" stroke="midnightblue" d="M2799.39,-131.84C3044.57,-130.88 4171.58,-124.52 4543.66,-87"/>
<polygon fill="midnightblue" stroke="midnightblue" points="4544.06,-90.47 4553.65,-85.96 4543.34,-83.51 4544.06,-90.47"/>
</g>
<!-- Node43 -->
<g id="node36" class="node">
<title>Node43</title>
<g id="a_node36"><a xlink:title=" ">
<polygon fill="white" stroke="#bfbfbf" points="4708.5,-56.5 4708.5,-86.5 4831.5,-86.5 4831.5,-56.5 4708.5,-56.5"/>
<text text-anchor="start" x="4716.5" y="-74.5" font-family="Helvetica,sans-Serif" font-size="10.00">boost/log/utility/setup</text>
<text text-anchor="middle" x="4770" y="-63.5" font-family="Helvetica,sans-Serif" font-size="10.00">/file.hpp</text>
</a>
</g>
</g>
<!-- Node20&#45;&gt;Node43 -->
<g id="edge42" class="edge">
<title>Node20&#45;&gt;Node43</title>
<path fill="none" stroke="midnightblue" d="M2799.14,-132.05C3056.37,-132.16 4293.31,-130.43 4698.16,-86.91"/>
<polygon fill="midnightblue" stroke="midnightblue" points="4698.59,-90.38 4708.15,-85.81 4697.82,-83.43 4698.59,-90.38"/>
</g>
<!-- Node44 -->
<g id="node37" class="node">
<title>Node44</title>
<g id="a_node37"><a xlink:title=" ">
<polygon fill="white" stroke="#bfbfbf" points="4849.5,-56.5 4849.5,-86.5 4972.5,-86.5 4972.5,-56.5 4849.5,-56.5"/>
<text text-anchor="start" x="4857.5" y="-74.5" font-family="Helvetica,sans-Serif" font-size="10.00">boost/log/utility/value</text>
<text text-anchor="middle" x="4911" y="-63.5" font-family="Helvetica,sans-Serif" font-size="10.00">_ref.hpp</text>
</a>
</g>
</g>
<!-- Node20&#45;&gt;Node44 -->
<g id="edge43" class="edge">
<title>Node20&#45;&gt;Node44</title>
<path fill="none" stroke="midnightblue" d="M2799.44,-132.16C3068.46,-132.86 4405.36,-133.98 4839.18,-87.04"/>
<polygon fill="midnightblue" stroke="midnightblue" points="4839.71,-90.51 4849.26,-85.93 4838.94,-83.55 4839.71,-90.51"/>
</g>
<!-- Node45 -->
<g id="node38" class="node">
<title>Node45</title>
<g id="a_node38"><a xlink:title=" ">
<polygon fill="white" stroke="#bfbfbf" points="4990.5,-62 4990.5,-81 5121.5,-81 5121.5,-62 4990.5,-62"/>
<text text-anchor="middle" x="5056" y="-69" font-family="Helvetica,sans-Serif" font-size="10.00">boost/phoenix/bind.hpp</text>
</a>
</g>
</g>
<!-- Node20&#45;&gt;Node45 -->
<g id="edge44" class="edge">
<title>Node20&#45;&gt;Node45</title>
<path fill="none" stroke="midnightblue" d="M2799.38,-132.16C3081,-132.96 4537.54,-134.67 4982,-87 4990.8,-86.06 5000.1,-84.6 5009.04,-82.97"/>
<polygon fill="midnightblue" stroke="midnightblue" points="5009.77,-86.39 5018.93,-81.07 5008.45,-79.52 5009.77,-86.39"/>
</g>
<!-- Node46 -->
<g id="node39" class="node">
<title>Node46</title>
<g id="a_node39"><a xlink:title=" ">
<polygon fill="white" stroke="#bfbfbf" points="1517,-56.5 1517,-86.5 1641,-86.5 1641,-56.5 1517,-56.5"/>
<text text-anchor="start" x="1525" y="-74.5" font-family="Helvetica,sans-Serif" font-size="10.00">boost/smart_ptr/make</text>
<text text-anchor="middle" x="1579" y="-63.5" font-family="Helvetica,sans-Serif" font-size="10.00">_shared_object.hpp</text>
</a>
</g>
</g>
<!-- Node20&#45;&gt;Node46 -->
<g id="edge45" class="edge">
<title>Node20&#45;&gt;Node46</title>
<path fill="none" stroke="midnightblue" d="M2704.84,-131.08C2524.67,-127.43 1878.92,-112.89 1651.43,-87"/>
<polygon fill="midnightblue" stroke="midnightblue" points="1651.59,-83.5 1641.25,-85.8 1650.77,-90.45 1651.59,-83.5"/>
</g>
<!-- Node47 -->
<g id="node40" class="node">
<title>Node47</title>
<g id="a_node40"><a xlink:title=" ">
<polygon fill="white" stroke="#bfbfbf" points="1659,-56.5 1659,-86.5 1789,-86.5 1789,-56.5 1659,-56.5"/>
<text text-anchor="start" x="1667" y="-74.5" font-family="Helvetica,sans-Serif" font-size="10.00">boost/smart_ptr/shared</text>
<text text-anchor="middle" x="1724" y="-63.5" font-family="Helvetica,sans-Serif" font-size="10.00">_ptr.hpp</text>
</a>
</g>
</g>
<!-- Node20&#45;&gt;Node47 -->
<g id="edge46" class="edge">
<title>Node20&#45;&gt;Node47</title>
<path fill="none" stroke="midnightblue" d="M2704.64,-132.21C2566.52,-132.31 2152.09,-128.91 1799.44,-87.05"/>
<polygon fill="midnightblue" stroke="midnightblue" points="1799.63,-83.55 1789.29,-85.83 1798.8,-90.5 1799.63,-83.55"/>
</g>
<!-- Node48&#45;&gt;Node5 -->
<g id="edge52" class="edge">
<title>Node48&#45;&gt;Node5</title>
<path fill="none" stroke="midnightblue" d="M1050.01,-123.46C1088.9,-115.87 1144.78,-103.44 1192,-87 1193.62,-86.44 1195.27,-85.81 1196.92,-85.16"/>
<polygon fill="midnightblue" stroke="midnightblue" points="1198.43,-88.32 1206.21,-81.12 1195.64,-81.9 1198.43,-88.32"/>
</g>
<!-- Node48&#45;&gt;Node7 -->
<g id="edge63" class="edge">
<title>Node48&#45;&gt;Node7</title>
<path fill="none" stroke="midnightblue" d="M931.37,-129.86C775.74,-124.78 407.39,-110.6 285,-87 281.03,-86.23 276.92,-85.21 272.87,-84.06"/>
<polygon fill="midnightblue" stroke="midnightblue" points="273.68,-80.64 263.09,-81 271.59,-87.32 273.68,-80.64"/>
</g>
<!-- Node48&#45;&gt;Node8 -->
<g id="edge57" class="edge">
<title>Node48&#45;&gt;Node8</title>
<path fill="none" stroke="midnightblue" d="M1030.02,-123.4C1047.17,-116.51 1067.75,-104.98 1078,-87 1084.82,-75.03 1087.14,-66.31 1078,-56 1055.58,-30.72 825.69,-16.93 737.86,-12.56"/>
<polygon fill="midnightblue" stroke="midnightblue" points="737.8,-9.05 727.64,-12.06 737.45,-16.04 737.8,-9.05"/>
</g>
<!-- Node48&#45;&gt;Node9 -->
<g id="edge50" class="edge">
<title>Node48&#45;&gt;Node9</title>
<path fill="none" stroke="midnightblue" d="M1072.82,-132.33C1156.59,-131.03 1288.65,-123.1 1320,-87 1329.03,-76.6 1328.94,-66.49 1320,-56 1290.08,-20.89 1153.95,-13.07 1083.12,-11.4"/>
<polygon fill="midnightblue" stroke="midnightblue" points="1082.82,-7.89 1072.75,-11.19 1082.68,-14.89 1082.82,-7.89"/>
</g>
<!-- Node48&#45;&gt;Node10 -->
<g id="edge49" class="edge">
<title>Node48&#45;&gt;Node10</title>
<path fill="none" stroke="midnightblue" d="M1072.69,-130.11C1158.39,-126.53 1296.54,-116.28 1338,-87 1357.26,-73.4 1367.64,-47.37 1372.74,-29.61"/>
<polygon fill="midnightblue" stroke="midnightblue" points="1376.16,-30.35 1375.27,-19.8 1369.38,-28.61 1376.16,-30.35"/>
</g>
<!-- Node48&#45;&gt;Node14 -->
<g id="edge55" class="edge">
<title>Node48&#45;&gt;Node14</title>
<path fill="none" stroke="midnightblue" d="M1072.7,-128.44C1151.25,-123.43 1281.46,-111.93 1391,-87 1394.41,-86.22 1397.94,-85.27 1401.42,-84.22"/>
<polygon fill="midnightblue" stroke="midnightblue" points="1402.6,-87.51 1411.03,-81.09 1400.44,-80.86 1402.6,-87.51"/>
</g>
<!-- Node49 -->
<g id="node42" class="node">
<title>Node49</title>
<g id="a_node42"><a xlink:title=" ">
<polygon fill="white" stroke="#bfbfbf" points="1125,-62 1125,-81 1183,-81 1183,-62 1125,-62"/>
<text text-anchor="middle" x="1154" y="-69" font-family="Helvetica,sans-Serif" font-size="10.00">memory</text>
</a>
</g>
</g>
<!-- Node48&#45;&gt;Node49 -->
<g id="edge51" class="edge">
<title>Node48&#45;&gt;Node49</title>
<path fill="none" stroke="midnightblue" d="M1023.78,-123.48C1049.74,-113.31 1093.31,-96.26 1122.83,-84.7"/>
<polygon fill="midnightblue" stroke="midnightblue" points="1124.23,-87.91 1132.26,-81.01 1121.67,-81.4 1124.23,-87.91"/>
</g>
<!-- Node50 -->
<g id="node43" class="node">
<title>Node50</title>
<g id="a_node43"><a xlink:title=" ">
<polygon fill="white" stroke="#bfbfbf" points="1263,-62 1263,-81 1311,-81 1311,-62 1263,-62"/>
<text text-anchor="middle" x="1287" y="-69" font-family="Helvetica,sans-Serif" font-size="10.00">thread</text>
</a>
</g>
</g>
<!-- Node48&#45;&gt;Node50 -->
<g id="edge53" class="edge">
<title>Node48&#45;&gt;Node50</title>
<path fill="none" stroke="midnightblue" d="M1072.58,-123.96C1123.69,-117.04 1194.05,-105.24 1254,-87 1255.93,-86.41 1257.9,-85.74 1259.86,-85.02"/>
<polygon fill="midnightblue" stroke="midnightblue" points="1261.53,-88.12 1269.48,-81.12 1258.9,-81.64 1261.53,-88.12"/>
</g>
<!-- Node51 -->
<g id="node44" class="node">
<title>Node51</title>
<g id="a_node44"><a xlink:title=" ">
<polygon fill="white" stroke="#bfbfbf" points="294.5,-62 294.5,-81 347.5,-81 347.5,-62 294.5,-62"/>
<text text-anchor="middle" x="321" y="-69" font-family="Helvetica,sans-Serif" font-size="10.00">stdint.h</text>
</a>
</g>
</g>
<!-- Node48&#45;&gt;Node51 -->
<g id="edge54" class="edge">
<title>Node48&#45;&gt;Node51</title>
<path fill="none" stroke="midnightblue" d="M931.36,-129.86C787.39,-125.03 464.54,-111.76 357,-87 354.17,-86.35 351.27,-85.5 348.41,-84.55"/>
<polygon fill="midnightblue" stroke="midnightblue" points="349.55,-81.24 338.96,-81.02 347.09,-87.8 349.55,-81.24"/>
</g>
<!-- Node15 -->
<g id="node45" class="node">
<title>Node15</title>
<g id="a_node45"><a xlink:title=" ">
<polygon fill="white" stroke="#bfbfbf" points="366,-62 366,-81 426,-81 426,-62 366,-62"/>
<text text-anchor="middle" x="396" y="-69" font-family="Helvetica,sans-Serif" font-size="10.00">iostream</text>
</a>
</g>
</g>
<!-- Node48&#45;&gt;Node15 -->
<g id="edge56" class="edge">
<title>Node48&#45;&gt;Node15</title>
<path fill="none" stroke="midnightblue" d="M931.25,-132.62C823.03,-132.17 610.48,-125.8 435,-87 431.93,-86.32 428.77,-85.45 425.64,-84.48"/>
<polygon fill="midnightblue" stroke="midnightblue" points="426.52,-81.08 415.92,-81.11 424.23,-87.69 426.52,-81.08"/>
</g>
<!-- Node52 -->
<g id="node46" class="node">
<title>Node52</title>
<g id="a_node46"><a xlink:title=" ">
<polygon fill="white" stroke="#bfbfbf" points="444.5,-62 444.5,-81 501.5,-81 501.5,-62 444.5,-62"/>
<text text-anchor="middle" x="473" y="-69" font-family="Helvetica,sans-Serif" font-size="10.00">typeinfo</text>
</a>
</g>
</g>
<!-- Node48&#45;&gt;Node52 -->
<g id="edge58" class="edge">
<title>Node48&#45;&gt;Node52</title>
<path fill="none" stroke="midnightblue" d="M931.34,-131.75C834.87,-130.02 657.11,-121.81 510,-87 507.17,-86.33 504.26,-85.49 501.39,-84.55"/>
<polygon fill="midnightblue" stroke="midnightblue" points="502.47,-81.21 491.87,-81.08 500.07,-87.79 502.47,-81.21"/>
</g>
<!-- Node53 -->
<g id="node47" class="node">
<title>Node53</title>
<g id="a_node47"><a xlink:title=" ">
<polygon fill="white" stroke="#bfbfbf" points="519.5,-62 519.5,-81 618.5,-81 618.5,-62 519.5,-62"/>
<text text-anchor="middle" x="569" y="-69" font-family="Helvetica,sans-Serif" font-size="10.00">rclcpp/rclcpp.hpp</text>
</a>
</g>
</g>
<!-- Node48&#45;&gt;Node53 -->
<g id="edge59" class="edge">
<title>Node48&#45;&gt;Node53</title>
<path fill="none" stroke="midnightblue" d="M931.31,-126.07C855.82,-119.14 732.87,-106.12 628,-87 622.42,-85.98 616.59,-84.75 610.85,-83.45"/>
<polygon fill="midnightblue" stroke="midnightblue" points="611.23,-79.94 600.69,-81.04 609.61,-86.75 611.23,-79.94"/>
</g>
<!-- Node54 -->
<g id="node48" class="node">
<title>Node54</title>
<g id="a_node48"><a xlink:title=" ">
<polygon fill="white" stroke="#bfbfbf" points="637,-56.5 637,-86.5 765,-86.5 765,-56.5 637,-56.5"/>
<text text-anchor="start" x="645" y="-74.5" font-family="Helvetica,sans-Serif" font-size="10.00">px4_msgs/msg/vehicle</text>
<text text-anchor="middle" x="701" y="-63.5" font-family="Helvetica,sans-Serif" font-size="10.00">_odometry.hpp</text>
</a>
</g>
</g>
<!-- Node48&#45;&gt;Node54 -->
<g id="edge60" class="edge">
<title>Node48&#45;&gt;Node54</title>
<path fill="none" stroke="midnightblue" d="M958.71,-123.47C914.91,-114.84 844.95,-101.04 774.97,-87.19"/>
<polygon fill="midnightblue" stroke="midnightblue" points="775.58,-83.74 765.09,-85.24 774.22,-90.61 775.58,-83.74"/>
</g>
<!-- Node55 -->
<g id="node49" class="node">
<title>Node55</title>
<g id="a_node49"><a xlink:title=" ">
<polygon fill="white" stroke="#bfbfbf" points="783,-56.5 783,-86.5 917,-86.5 917,-56.5 783,-56.5"/>
<text text-anchor="start" x="791" y="-74.5" font-family="Helvetica,sans-Serif" font-size="10.00">px4_msgs/msg/actuator</text>
<text text-anchor="middle" x="850" y="-63.5" font-family="Helvetica,sans-Serif" font-size="10.00">_motors.hpp</text>
</a>
</g>
</g>
<!-- Node48&#45;&gt;Node55 -->
<g id="edge61" class="edge">
<title>Node48&#45;&gt;Node55</title>
<path fill="none" stroke="midnightblue" d="M980.22,-123.48C958.19,-114.85 923.48,-101.26 895.43,-90.29"/>
<polygon fill="midnightblue" stroke="midnightblue" points="896.41,-86.91 885.82,-86.52 893.86,-93.43 896.41,-86.91"/>
</g>
<!-- Node56 -->
<g id="node50" class="node">
<title>Node56</title>
<g id="a_node50"><a xlink:title=" ">
<polygon fill="white" stroke="#bfbfbf" points="935,-56.5 935,-86.5 1069,-86.5 1069,-56.5 935,-56.5"/>
<text text-anchor="start" x="943" y="-74.5" font-family="Helvetica,sans-Serif" font-size="10.00">px4_msgs/msg/offboard</text>
<text text-anchor="middle" x="1002" y="-63.5" font-family="Helvetica,sans-Serif" font-size="10.00">_control_mode.hpp</text>
</a>
</g>
</g>
<!-- Node48&#45;&gt;Node56 -->
<g id="edge62" class="edge">
<title>Node48&#45;&gt;Node56</title>
<path fill="none" stroke="midnightblue" d="M1002,-123.48C1002,-116.47 1002,-106.19 1002,-96.7"/>
<polygon fill="midnightblue" stroke="midnightblue" points="1005.5,-96.52 1002,-86.52 998.5,-96.52 1005.5,-96.52"/>
</g>
</g>
</svg>
