<?xml version="1.0" encoding="UTF-8" standalone="no"?>
<!DOCTYPE svg PUBLIC "-//W3C//DTD SVG 1.1//EN"
 "http://www.w3.org/Graphics/SVG/1.1/DTD/svg11.dtd">
<!-- Generated by graphviz version 2.43.0 (0)
 -->
<!-- Title: /mnt/c/Users/siddh/Onedrive/Desktop/ACSL&#45;flightstack/include/flightstack/mocap/mocap.hpp Pages: 1 -->
<!--zoomable 307 -->
<svg id="main" version="1.1" xmlns="http://www.w3.org/2000/svg" xmlns:xlink="http://www.w3.org/1999/xlink" xml:space="preserve" onload="init(evt)">
<style type="text/css"><![CDATA[
.edge:hover path { stroke: red; }
.edge:hover polygon { stroke: red; fill: red; }
]]></style>
<script type="text/javascript"><![CDATA[
var edges = document.getElementsByTagName('g');
if (edges && edges.length) {
  for (var i=0;i<edges.length;i++) {
    if (edges[i].id.substr(0,4)=='edge') {
      edges[i].setAttribute('class','edge');
    }
  }
}
]]></script>
        <defs>
                <circle id="rim" cx="0" cy="0" r="7"/>
                <circle id="rim2" cx="0" cy="0" r="3.5"/>
                <g id="zoomPlus">
                        <use xlink:href="#rim" fill="#404040">
                                <set attributeName="fill" to="#808080" begin="zoomplus.mouseover" end="zoomplus.mouseout"/>
                        </use>
                        <path d="M-4,0h8M0,-4v8" fill="none" stroke="white" stroke-width="1.5" pointer-events="none"/>
                </g>
                <g id="zoomMin">
                        <use xlink:href="#rim" fill="#404040">
                                <set attributeName="fill" to="#808080" begin="zoomminus.mouseover" end="zoomminus.mouseout"/>
                        </use>
                        <path d="M-4,0h8" fill="none" stroke="white" stroke-width="1.5" pointer-events="none"/>
                </g>
                <g id="dirArrow">
                        <path fill="none" stroke="white" stroke-width="1.5" d="M0,-3.0v7 M-2.5,-0.5L0,-3.0L2.5,-0.5"/>
                </g>
               <g id="resetDef">
                       <use xlink:href="#rim2" fill="#404040">
                               <set attributeName="fill" to="#808080" begin="reset.mouseover" end="reset.mouseout"/>
                       </use>
               </g>
        </defs>

<script type="text/javascript">
var viewWidth = 4387;
var viewHeight = 307;
var sectionId = 'dynsection-0';
</script>
<script xlink:href="svgpan.js"/>
<svg id="graph" class="graph">
<g id="viewport">
<title>/mnt/c/Users/siddh/Onedrive/Desktop/ACSL&#45;flightstack/include/flightstack/mocap/mocap.hpp</title>
<polygon fill="white" stroke="transparent" points="-4,4 -4,-303 4382.7,-303 4382.7,4 -4,4"/>
<!-- Node1 -->
<g id="node1" class="node">
<title>Node1</title>
<g id="a_node1"><a xlink:title="Node definition for UDP socket as a lifecyle node Writes messages to pixhawk mocap_odometry topic for...">
<polygon fill="#bfbfbf" stroke="black" points="626.5,-246.5 626.5,-298.5 790.5,-298.5 790.5,-246.5 626.5,-246.5"/>
<text text-anchor="start" x="634.5" y="-286.5" font-family="Helvetica,sans-Serif" font-size="10.00">/mnt/c/Users/siddh</text>
<text text-anchor="start" x="634.5" y="-275.5" font-family="Helvetica,sans-Serif" font-size="10.00">/Onedrive/Desktop/ACSL</text>
<text text-anchor="start" x="634.5" y="-264.5" font-family="Helvetica,sans-Serif" font-size="10.00">&#45;flightstack/include/flightstack</text>
<text text-anchor="middle" x="708.5" y="-253.5" font-family="Helvetica,sans-Serif" font-size="10.00">/mocap/mocap.hpp</text>
</a>
</g>
</g>
<!-- Node2 -->
<g id="node2" class="node">
<title>Node2</title>
<g id="a_node2"><a xlink:title=" ">
<polygon fill="white" stroke="#bfbfbf" points="520.5,-118 520.5,-137 570.5,-137 570.5,-118 520.5,-118"/>
<text text-anchor="middle" x="545.5" y="-125" font-family="Helvetica,sans-Serif" font-size="10.00">chrono</text>
</a>
</g>
</g>
<!-- Node1&#45;&gt;Node2 -->
<g id="edge1" class="edge">
<title>Node1&#45;&gt;Node2</title>
<path fill="none" stroke="midnightblue" d="M647.08,-246.49C628.44,-236.94 608.86,-224.74 593.5,-210 574.48,-191.75 560.44,-164.35 552.62,-146.44"/>
<polygon fill="midnightblue" stroke="midnightblue" points="555.82,-145.02 548.73,-137.14 549.36,-147.72 555.82,-145.02"/>
</g>
<!-- Node3 -->
<g id="node3" class="node">
<title>Node3</title>
<g id="a_node3"><a xlink:title=" ">
<polygon fill="white" stroke="#bfbfbf" points="429.5,-0.5 429.5,-19.5 487.5,-19.5 487.5,-0.5 429.5,-0.5"/>
<text text-anchor="middle" x="458.5" y="-7.5" font-family="Helvetica,sans-Serif" font-size="10.00">memory</text>
</a>
</g>
</g>
<!-- Node1&#45;&gt;Node3 -->
<g id="edge2" class="edge">
<title>Node1&#45;&gt;Node3</title>
<path fill="none" stroke="midnightblue" d="M790.9,-271.81C1321.85,-273.41 4242.94,-276.15 4371.5,-143 4381.07,-133.09 4381.12,-121.87 4371.5,-112 4300.14,-38.77 902.58,-13.95 497.79,-11.25"/>
<polygon fill="midnightblue" stroke="midnightblue" points="497.76,-7.75 487.73,-11.19 497.71,-14.75 497.76,-7.75"/>
</g>
<!-- Node4 -->
<g id="node4" class="node">
<title>Node4</title>
<g id="a_node4"><a xlink:title=" ">
<polygon fill="white" stroke="#bfbfbf" points="470.5,-56.5 470.5,-75.5 514.5,-75.5 514.5,-56.5 470.5,-56.5"/>
<text text-anchor="middle" x="492.5" y="-63.5" font-family="Helvetica,sans-Serif" font-size="10.00">string</text>
</a>
</g>
</g>
<!-- Node1&#45;&gt;Node4 -->
<g id="edge3" class="edge">
<title>Node1&#45;&gt;Node4</title>
<path fill="none" stroke="midnightblue" d="M632.63,-246.44C610.12,-237.01 586.23,-224.88 566.5,-210 535.74,-186.81 528.82,-177.42 511.5,-143 502.35,-124.82 497.41,-101.92 494.88,-86.03"/>
<polygon fill="midnightblue" stroke="midnightblue" points="498.3,-85.28 493.43,-75.87 491.37,-86.26 498.3,-85.28"/>
</g>
<!-- Node5 -->
<g id="node5" class="node">
<title>Node5</title>
<g id="a_node5"><a xlink:title=" ">
<polygon fill="white" stroke="#bfbfbf" points="0,-0.5 0,-19.5 47,-19.5 47,-0.5 0,-0.5"/>
<text text-anchor="middle" x="23.5" y="-7.5" font-family="Helvetica,sans-Serif" font-size="10.00">vector</text>
</a>
</g>
</g>
<!-- Node1&#45;&gt;Node5 -->
<g id="edge4" class="edge">
<title>Node1&#45;&gt;Node5</title>
<path fill="none" stroke="midnightblue" d="M626.43,-270.87C505.19,-266.36 275.07,-243.87 112.5,-143 68.78,-115.88 41.59,-58.41 30,-29.06"/>
<polygon fill="midnightblue" stroke="midnightblue" points="33.24,-27.75 26.43,-19.63 26.7,-30.23 33.24,-27.75"/>
</g>
<!-- Node6 -->
<g id="node6" class="node">
<title>Node6</title>
<g id="a_node6"><a xlink:title=" ">
<polygon fill="white" stroke="#bfbfbf" points="588.5,-118 588.5,-137 644.5,-137 644.5,-118 588.5,-118"/>
<text text-anchor="middle" x="616.5" y="-125" font-family="Helvetica,sans-Serif" font-size="10.00">sstream</text>
</a>
</g>
</g>
<!-- Node1&#45;&gt;Node6 -->
<g id="edge5" class="edge">
<title>Node1&#45;&gt;Node6</title>
<path fill="none" stroke="midnightblue" d="M641.33,-246.49C625.9,-237.43 611.42,-225.49 602.5,-210 591.12,-190.24 599.25,-163.63 607.06,-146.27"/>
<polygon fill="midnightblue" stroke="midnightblue" points="610.23,-147.77 611.47,-137.24 603.94,-144.69 610.23,-147.77"/>
</g>
<!-- Node7 -->
<g id="node7" class="node">
<title>Node7</title>
<g id="a_node7"><a xlink:title=" ">
<polygon fill="white" stroke="#bfbfbf" points="612,-185 612,-204 641,-204 641,-185 612,-185"/>
<text text-anchor="middle" x="626.5" y="-192" font-family="Helvetica,sans-Serif" font-size="10.00">bit</text>
</a>
</g>
</g>
<!-- Node1&#45;&gt;Node7 -->
<g id="edge6" class="edge">
<title>Node1&#45;&gt;Node7</title>
<path fill="none" stroke="midnightblue" d="M681.2,-246.19C668.72,-234.63 654.34,-221.3 643.45,-211.21"/>
<polygon fill="midnightblue" stroke="midnightblue" points="645.61,-208.44 635.9,-204.21 640.85,-213.57 645.61,-208.44"/>
</g>
<!-- Node8 -->
<g id="node8" class="node">
<title>Node8</title>
<g id="a_node8"><a xlink:title=" ">
<polygon fill="white" stroke="#bfbfbf" points="659,-185 659,-204 758,-204 758,-185 659,-185"/>
<text text-anchor="middle" x="708.5" y="-192" font-family="Helvetica,sans-Serif" font-size="10.00">rclcpp/rclcpp.hpp</text>
</a>
</g>
</g>
<!-- Node1&#45;&gt;Node8 -->
<g id="edge7" class="edge">
<title>Node1&#45;&gt;Node8</title>
<path fill="none" stroke="midnightblue" d="M708.5,-246.19C708.5,-235.76 708.5,-223.9 708.5,-214.27"/>
<polygon fill="midnightblue" stroke="midnightblue" points="712,-214.21 708.5,-204.21 705,-214.21 712,-214.21"/>
</g>
<!-- Node9 -->
<g id="node9" class="node">
<title>Node9</title>
<g id="a_node9"><a xlink:title=" ">
<polygon fill="white" stroke="#bfbfbf" points="776,-179.5 776,-209.5 913,-209.5 913,-179.5 776,-179.5"/>
<text text-anchor="start" x="784" y="-197.5" font-family="Helvetica,sans-Serif" font-size="10.00">rclcpp_lifecycle/lifecycle</text>
<text text-anchor="middle" x="844.5" y="-186.5" font-family="Helvetica,sans-Serif" font-size="10.00">_node.hpp</text>
</a>
</g>
</g>
<!-- Node1&#45;&gt;Node9 -->
<g id="edge8" class="edge">
<title>Node1&#45;&gt;Node9</title>
<path fill="none" stroke="midnightblue" d="M753.41,-246.4C771.82,-236.12 792.79,-224.4 809.97,-214.8"/>
<polygon fill="midnightblue" stroke="midnightblue" points="812.06,-217.64 819.08,-209.71 808.64,-211.53 812.06,-217.64"/>
</g>
<!-- Node10 -->
<g id="node10" class="node">
<title>Node10</title>
<g id="a_node10"><a xlink:title=" ">
<polygon fill="white" stroke="#bfbfbf" points="931,-179.5 931,-209.5 1044,-209.5 1044,-179.5 931,-179.5"/>
<text text-anchor="start" x="939" y="-197.5" font-family="Helvetica,sans-Serif" font-size="10.00">lifecycle_msgs/msg</text>
<text text-anchor="middle" x="987.5" y="-186.5" font-family="Helvetica,sans-Serif" font-size="10.00">/transition.hpp</text>
</a>
</g>
</g>
<!-- Node1&#45;&gt;Node10 -->
<g id="edge9" class="edge">
<title>Node1&#45;&gt;Node10</title>
<path fill="none" stroke="midnightblue" d="M790.7,-249.11C833.97,-237.32 886.14,-223.11 925.89,-212.28"/>
<polygon fill="midnightblue" stroke="midnightblue" points="926.99,-215.61 935.72,-209.61 925.15,-208.86 926.99,-215.61"/>
</g>
<!-- Node11 -->
<g id="node11" class="node">
<title>Node11</title>
<g id="a_node11"><a xlink:title=" ">
<polygon fill="white" stroke="#bfbfbf" points="1062,-179.5 1062,-209.5 1175,-209.5 1175,-179.5 1062,-179.5"/>
<text text-anchor="start" x="1070" y="-197.5" font-family="Helvetica,sans-Serif" font-size="10.00">lifecycle_msgs/msg</text>
<text text-anchor="middle" x="1118.5" y="-186.5" font-family="Helvetica,sans-Serif" font-size="10.00">/state.hpp</text>
</a>
</g>
</g>
<!-- Node1&#45;&gt;Node11 -->
<g id="edge10" class="edge">
<title>Node1&#45;&gt;Node11</title>
<path fill="none" stroke="midnightblue" d="M790.59,-257.89C858.22,-246.44 956.85,-229.2 1051.75,-210.31"/>
<polygon fill="midnightblue" stroke="midnightblue" points="1052.69,-213.69 1061.81,-208.3 1051.32,-206.83 1052.69,-213.69"/>
</g>
<!-- Node12 -->
<g id="node12" class="node">
<title>Node12</title>
<g id="a_node12"><a xlink:title=" ">
<polygon fill="white" stroke="#bfbfbf" points="1193.5,-179.5 1193.5,-209.5 1321.5,-209.5 1321.5,-179.5 1193.5,-179.5"/>
<text text-anchor="start" x="1201.5" y="-197.5" font-family="Helvetica,sans-Serif" font-size="10.00">px4_msgs/msg/vehicle</text>
<text text-anchor="middle" x="1257.5" y="-186.5" font-family="Helvetica,sans-Serif" font-size="10.00">_odometry.hpp</text>
</a>
</g>
</g>
<!-- Node1&#45;&gt;Node12 -->
<g id="edge11" class="edge">
<title>Node1&#45;&gt;Node12</title>
<path fill="none" stroke="midnightblue" d="M790.87,-262.57C883.84,-252.1 1039.77,-233.38 1183.56,-210.09"/>
<polygon fill="midnightblue" stroke="midnightblue" points="1184.14,-213.54 1193.45,-208.48 1183.02,-206.63 1184.14,-213.54"/>
</g>
<!-- Node13 -->
<g id="node13" class="node">
<title>Node13</title>
<g id="a_node13"><a xlink:href="udp__driver_8hpp.html" target="_top" xlink:title="Class for udp driver.">
<polygon fill="white" stroke="black" points="372,-185 372,-204 461,-204 461,-185 372,-185"/>
<text text-anchor="middle" x="416.5" y="-192" font-family="Helvetica,sans-Serif" font-size="10.00">udp_driver.hpp</text>
</a>
</g>
</g>
<!-- Node1&#45;&gt;Node13 -->
<g id="edge12" class="edge">
<title>Node1&#45;&gt;Node13</title>
<path fill="none" stroke="midnightblue" d="M626.38,-250.13C571.92,-235.95 502.69,-217.93 458.97,-206.55"/>
<polygon fill="midnightblue" stroke="midnightblue" points="459.8,-203.15 449.24,-204.02 458.03,-209.93 459.8,-203.15"/>
</g>
<!-- Node22 -->
<g id="node22" class="node">
<title>Node22</title>
<g id="a_node22"><a xlink:href="logging__mocap_8hpp.html" target="_top" xlink:title="Logger for the motion capture (MOCAP) system.">
<polygon fill="white" stroke="black" points="1931.5,-185 1931.5,-204 2043.5,-204 2043.5,-185 1931.5,-185"/>
<text text-anchor="middle" x="1987.5" y="-192" font-family="Helvetica,sans-Serif" font-size="10.00">logging_mocap.hpp</text>
</a>
</g>
</g>
<!-- Node1&#45;&gt;Node22 -->
<g id="edge30" class="edge">
<title>Node1&#45;&gt;Node22</title>
<path fill="none" stroke="midnightblue" d="M790.94,-266.6C1027.66,-252.54 1706.2,-212.22 1921.27,-199.44"/>
<polygon fill="midnightblue" stroke="midnightblue" points="1921.68,-202.92 1931.46,-198.83 1921.27,-195.93 1921.68,-202.92"/>
</g>
<!-- Node13&#45;&gt;Node3 -->
<g id="edge14" class="edge">
<title>Node13&#45;&gt;Node3</title>
<path fill="none" stroke="midnightblue" d="M418.53,-184.7C425,-156.57 445.28,-68.46 454.21,-29.66"/>
<polygon fill="midnightblue" stroke="midnightblue" points="457.66,-30.24 456.49,-19.71 450.84,-28.67 457.66,-30.24"/>
</g>
<!-- Node13&#45;&gt;Node4 -->
<g id="edge15" class="edge">
<title>Node13&#45;&gt;Node4</title>
<path fill="none" stroke="midnightblue" d="M421.72,-184.81C434.09,-164.22 465.35,-112.19 481.88,-84.68"/>
<polygon fill="midnightblue" stroke="midnightblue" points="485.09,-86.13 487.24,-75.76 479.09,-82.53 485.09,-86.13"/>
</g>
<!-- Node14 -->
<g id="node14" class="node">
<title>Node14</title>
<g id="a_node14"><a xlink:title=" ">
<polygon fill="white" stroke="#bfbfbf" points="87.5,-0.5 87.5,-19.5 147.5,-19.5 147.5,-0.5 87.5,-0.5"/>
<text text-anchor="middle" x="117.5" y="-7.5" font-family="Helvetica,sans-Serif" font-size="10.00">iostream</text>
</a>
</g>
</g>
<!-- Node13&#45;&gt;Node14 -->
<g id="edge13" class="edge">
<title>Node13&#45;&gt;Node14</title>
<path fill="none" stroke="midnightblue" d="M371.91,-193.72C295.97,-191.33 143.64,-173.89 80.5,-76 69.81,-59.43 84.83,-39.64 98.81,-26.29"/>
<polygon fill="midnightblue" stroke="midnightblue" points="101.18,-28.86 106.3,-19.59 96.51,-23.65 101.18,-28.86"/>
</g>
<!-- Node15 -->
<g id="node15" class="node">
<title>Node15</title>
<g id="a_node15"><a xlink:href="udp__socket_8hpp.html" target="_top" xlink:title="Class for UDP socket creation using IoContext.">
<polygon fill="white" stroke="black" points="237.5,-118 237.5,-137 329.5,-137 329.5,-118 237.5,-118"/>
<text text-anchor="middle" x="283.5" y="-125" font-family="Helvetica,sans-Serif" font-size="10.00">udp_socket.hpp</text>
</a>
</g>
</g>
<!-- Node13&#45;&gt;Node15 -->
<g id="edge16" class="edge">
<title>Node13&#45;&gt;Node15</title>
<path fill="none" stroke="midnightblue" d="M398.84,-184.87C376.18,-173.8 336.67,-154.49 310.3,-141.6"/>
<polygon fill="midnightblue" stroke="midnightblue" points="311.76,-138.41 301.23,-137.17 308.68,-144.7 311.76,-138.41"/>
</g>
<!-- Node15&#45;&gt;Node4 -->
<g id="edge18" class="edge">
<title>Node15&#45;&gt;Node4</title>
<path fill="none" stroke="midnightblue" d="M313.44,-117.98C352.49,-106.86 420.5,-87.5 460.52,-76.11"/>
<polygon fill="midnightblue" stroke="midnightblue" points="461.63,-79.43 470.29,-73.32 459.72,-72.69 461.63,-79.43"/>
</g>
<!-- Node15&#45;&gt;Node5 -->
<g id="edge19" class="edge">
<title>Node15&#45;&gt;Node5</title>
<path fill="none" stroke="midnightblue" d="M237.33,-122.95C194.09,-117.87 129.03,-105.58 80.5,-76 60.95,-64.08 44.45,-43.28 34.32,-28.42"/>
<polygon fill="midnightblue" stroke="midnightblue" points="37,-26.13 28.61,-19.66 31.14,-29.95 37,-26.13"/>
</g>
<!-- Node15&#45;&gt;Node14 -->
<g id="edge20" class="edge">
<title>Node15&#45;&gt;Node14</title>
<path fill="none" stroke="midnightblue" d="M259.6,-117.94C237.37,-109.33 203.95,-94.66 178.5,-76 159.48,-62.06 141.49,-41.68 130.05,-27.47"/>
<polygon fill="midnightblue" stroke="midnightblue" points="132.74,-25.24 123.81,-19.54 127.24,-29.56 132.74,-25.24"/>
</g>
<!-- Node16 -->
<g id="node16" class="node">
<title>Node16</title>
<g id="a_node16"><a xlink:title=" ">
<polygon fill="white" stroke="#bfbfbf" points="89.5,-56.5 89.5,-75.5 131.5,-75.5 131.5,-56.5 89.5,-56.5"/>
<text text-anchor="middle" x="110.5" y="-63.5" font-family="Helvetica,sans-Serif" font-size="10.00">array</text>
</a>
</g>
</g>
<!-- Node15&#45;&gt;Node16 -->
<g id="edge17" class="edge">
<title>Node15&#45;&gt;Node16</title>
<path fill="none" stroke="midnightblue" d="M258.71,-117.98C227.81,-107.35 174.97,-89.17 141.44,-77.64"/>
<polygon fill="midnightblue" stroke="midnightblue" points="142.3,-74.24 131.7,-74.29 140.02,-80.85 142.3,-74.24"/>
</g>
<!-- Node17 -->
<g id="node17" class="node">
<title>Node17</title>
<g id="a_node17"><a xlink:title=" ">
<polygon fill="white" stroke="#bfbfbf" points="366,-0.5 366,-19.5 411,-19.5 411,-0.5 366,-0.5"/>
<text text-anchor="middle" x="388.5" y="-7.5" font-family="Helvetica,sans-Serif" font-size="10.00">utility</text>
</a>
</g>
</g>
<!-- Node15&#45;&gt;Node17 -->
<g id="edge21" class="edge">
<title>Node15&#45;&gt;Node17</title>
<path fill="none" stroke="midnightblue" d="M320.58,-117.95C343.02,-110.72 370.01,-97.91 384.5,-76 393.46,-62.46 393.62,-43.65 392.04,-29.75"/>
<polygon fill="midnightblue" stroke="midnightblue" points="395.5,-29.21 390.54,-19.85 388.58,-30.26 395.5,-29.21"/>
</g>
<!-- Node18 -->
<g id="node18" class="node">
<title>Node18</title>
<g id="a_node18"><a xlink:title=" ">
<polygon fill="white" stroke="#bfbfbf" points="295,-56.5 295,-75.5 376,-75.5 376,-56.5 295,-56.5"/>
<text text-anchor="middle" x="335.5" y="-63.5" font-family="Helvetica,sans-Serif" font-size="10.00">system_error</text>
</a>
</g>
</g>
<!-- Node15&#45;&gt;Node18 -->
<g id="edge22" class="edge">
<title>Node15&#45;&gt;Node18</title>
<path fill="none" stroke="midnightblue" d="M290.95,-117.98C298.83,-108.96 311.44,-94.52 321.24,-83.31"/>
<polygon fill="midnightblue" stroke="midnightblue" points="324.12,-85.34 328.06,-75.51 318.85,-80.74 324.12,-85.34"/>
</g>
<!-- Node19 -->
<g id="node19" class="node">
<title>Node19</title>
<g id="a_node19"><a xlink:href="io__context_8hpp.html" target="_top" xlink:title="Class for IoContext to manage thread for udp.">
<polygon fill="white" stroke="black" points="188,-56.5 188,-75.5 277,-75.5 277,-56.5 188,-56.5"/>
<text text-anchor="middle" x="232.5" y="-63.5" font-family="Helvetica,sans-Serif" font-size="10.00">io_context.hpp</text>
</a>
</g>
</g>
<!-- Node15&#45;&gt;Node19 -->
<g id="edge23" class="edge">
<title>Node15&#45;&gt;Node19</title>
<path fill="none" stroke="midnightblue" d="M276.19,-117.98C268.47,-108.96 256.09,-94.52 246.48,-83.31"/>
<polygon fill="midnightblue" stroke="midnightblue" points="248.96,-80.82 239.79,-75.51 243.64,-85.38 248.96,-80.82"/>
</g>
<!-- Node19&#45;&gt;Node3 -->
<g id="edge24" class="edge">
<title>Node19&#45;&gt;Node3</title>
<path fill="none" stroke="midnightblue" d="M268.31,-56.44C309.47,-46.61 376.82,-30.52 419.34,-20.36"/>
<polygon fill="midnightblue" stroke="midnightblue" points="420.41,-23.7 429.33,-17.97 418.79,-16.89 420.41,-23.7"/>
</g>
<!-- Node19&#45;&gt;Node5 -->
<g id="edge25" class="edge">
<title>Node19&#45;&gt;Node5</title>
<path fill="none" stroke="midnightblue" d="M199.38,-56.44C160.39,-46.37 96.01,-29.74 56.9,-19.63"/>
<polygon fill="midnightblue" stroke="midnightblue" points="57.61,-16.2 47.06,-17.09 55.86,-22.98 57.61,-16.2"/>
</g>
<!-- Node19&#45;&gt;Node14 -->
<g id="edge28" class="edge">
<title>Node19&#45;&gt;Node14</title>
<path fill="none" stroke="midnightblue" d="M214.28,-56.44C195.6,-47.68 166.34,-33.94 144.88,-23.86"/>
<polygon fill="midnightblue" stroke="midnightblue" points="146.18,-20.6 135.64,-19.52 143.2,-26.93 146.18,-20.6"/>
</g>
<!-- Node19&#45;&gt;Node17 -->
<g id="edge26" class="edge">
<title>Node19&#45;&gt;Node17</title>
<path fill="none" stroke="midnightblue" d="M257.22,-56.44C283.96,-47.19 326.72,-32.39 356.13,-22.21"/>
<polygon fill="midnightblue" stroke="midnightblue" points="357.62,-25.39 365.92,-18.82 355.33,-18.78 357.62,-25.39"/>
</g>
<!-- Node20 -->
<g id="node20" class="node">
<title>Node20</title>
<g id="a_node20"><a xlink:title=" ">
<polygon fill="white" stroke="#bfbfbf" points="165.5,-0.5 165.5,-19.5 223.5,-19.5 223.5,-0.5 165.5,-0.5"/>
<text text-anchor="middle" x="194.5" y="-7.5" font-family="Helvetica,sans-Serif" font-size="10.00">asio.hpp</text>
</a>
</g>
</g>
<!-- Node19&#45;&gt;Node20 -->
<g id="edge27" class="edge">
<title>Node19&#45;&gt;Node20</title>
<path fill="none" stroke="midnightblue" d="M226.23,-56.08C220.86,-48.46 212.98,-37.26 206.42,-27.94"/>
<polygon fill="midnightblue" stroke="midnightblue" points="209.28,-25.91 200.66,-19.75 203.55,-29.94 209.28,-25.91"/>
</g>
<!-- Node21 -->
<g id="node21" class="node">
<title>Node21</title>
<g id="a_node21"><a xlink:title=" ">
<polygon fill="white" stroke="#bfbfbf" points="241.5,-0.5 241.5,-19.5 347.5,-19.5 347.5,-0.5 241.5,-0.5"/>
<text text-anchor="middle" x="294.5" y="-7.5" font-family="Helvetica,sans-Serif" font-size="10.00">rclcpp/logging.hpp</text>
</a>
</g>
</g>
<!-- Node19&#45;&gt;Node21 -->
<g id="edge29" class="edge">
<title>Node19&#45;&gt;Node21</title>
<path fill="none" stroke="midnightblue" d="M242.46,-56.32C251.63,-48.34 265.44,-36.31 276.53,-26.65"/>
<polygon fill="midnightblue" stroke="midnightblue" points="279.12,-29.04 284.36,-19.83 274.52,-23.76 279.12,-29.04"/>
</g>
<!-- Node22&#45;&gt;Node2 -->
<g id="edge33" class="edge">
<title>Node22&#45;&gt;Node2</title>
<path fill="none" stroke="midnightblue" d="M1931.41,-192.06C1677.66,-185.48 646.46,-157.94 579.5,-143 576.98,-142.44 574.41,-141.69 571.87,-140.84"/>
<polygon fill="midnightblue" stroke="midnightblue" points="572.98,-137.51 562.39,-137.15 570.44,-144.04 572.98,-137.51"/>
</g>
<!-- Node22&#45;&gt;Node4 -->
<g id="edge39" class="edge">
<title>Node22&#45;&gt;Node4</title>
<path fill="none" stroke="midnightblue" d="M1931.37,-192.31C1690.05,-187.04 750.21,-165.21 691.5,-143 671.11,-135.29 672.85,-122.03 653.5,-112 611.77,-90.36 558.4,-78.09 524.82,-71.99"/>
<polygon fill="midnightblue" stroke="midnightblue" points="525.1,-68.49 514.65,-70.23 523.9,-75.39 525.1,-68.49"/>
</g>
<!-- Node22&#45;&gt;Node6 -->
<g id="edge38" class="edge">
<title>Node22&#45;&gt;Node6</title>
<path fill="none" stroke="midnightblue" d="M1931.27,-192.34C1694.45,-187.31 784.67,-166.64 658.5,-143 654.79,-142.31 650.97,-141.35 647.21,-140.25"/>
<polygon fill="midnightblue" stroke="midnightblue" points="648.13,-136.87 637.54,-137.12 645.97,-143.53 648.13,-136.87"/>
</g>
<!-- Node23 -->
<g id="node23" class="node">
<title>Node23</title>
<g id="a_node23"><a xlink:title=" ">
<polygon fill="white" stroke="#bfbfbf" points="1236.5,-118 1236.5,-137 1286.5,-137 1286.5,-118 1236.5,-118"/>
<text text-anchor="middle" x="1261.5" y="-125" font-family="Helvetica,sans-Serif" font-size="10.00">atomic</text>
</a>
</g>
</g>
<!-- Node22&#45;&gt;Node23 -->
<g id="edge31" class="edge">
<title>Node22&#45;&gt;Node23</title>
<path fill="none" stroke="midnightblue" d="M1931.48,-191.71C1789.21,-186.79 1416.76,-171.52 1296.5,-143 1293.83,-142.37 1291.11,-141.56 1288.41,-140.64"/>
<polygon fill="midnightblue" stroke="midnightblue" points="1289.53,-137.32 1278.94,-137.01 1287.02,-143.86 1289.53,-137.32"/>
</g>
<!-- Node24 -->
<g id="node24" class="node">
<title>Node24</title>
<g id="a_node24"><a xlink:title=" ">
<polygon fill="white" stroke="#bfbfbf" points="1305,-118 1305,-137 1358,-137 1358,-118 1305,-118"/>
<text text-anchor="middle" x="1331.5" y="-125" font-family="Helvetica,sans-Serif" font-size="10.00">cstddef</text>
</a>
</g>
</g>
<!-- Node22&#45;&gt;Node24 -->
<g id="edge32" class="edge">
<title>Node22&#45;&gt;Node24</title>
<path fill="none" stroke="midnightblue" d="M1931.04,-191.08C1799.11,-185.07 1473.78,-168.12 1367.5,-143 1364.83,-142.37 1362.09,-141.57 1359.38,-140.67"/>
<polygon fill="midnightblue" stroke="midnightblue" points="1360.43,-137.33 1349.84,-137.12 1357.99,-143.89 1360.43,-137.33"/>
</g>
<!-- Node25 -->
<g id="node25" class="node">
<title>Node25</title>
<g id="a_node25"><a xlink:title=" ">
<polygon fill="white" stroke="#bfbfbf" points="1376.5,-118 1376.5,-137 1444.5,-137 1444.5,-118 1376.5,-118"/>
<text text-anchor="middle" x="1410.5" y="-125" font-family="Helvetica,sans-Serif" font-size="10.00">filesystem</text>
</a>
</g>
</g>
<!-- Node22&#45;&gt;Node25 -->
<g id="edge34" class="edge">
<title>Node22&#45;&gt;Node25</title>
<path fill="none" stroke="midnightblue" d="M1931.25,-192.3C1833.36,-189.29 1625.76,-178.86 1454.5,-143 1450.63,-142.19 1446.61,-141.15 1442.66,-140.01"/>
<polygon fill="midnightblue" stroke="midnightblue" points="1443.66,-136.66 1433.07,-137.01 1441.57,-143.34 1443.66,-136.66"/>
</g>
<!-- Node26 -->
<g id="node26" class="node">
<title>Node26</title>
<g id="a_node26"><a xlink:title=" ">
<polygon fill="white" stroke="#bfbfbf" points="1463,-118 1463,-137 1518,-137 1518,-118 1463,-118"/>
<text text-anchor="middle" x="1490.5" y="-125" font-family="Helvetica,sans-Serif" font-size="10.00">fstream</text>
</a>
</g>
</g>
<!-- Node22&#45;&gt;Node26 -->
<g id="edge35" class="edge">
<title>Node22&#45;&gt;Node26</title>
<path fill="none" stroke="midnightblue" d="M1931.44,-192.1C1843.98,-188.85 1670.26,-178.15 1527.5,-143 1524.67,-142.3 1521.77,-141.44 1518.9,-140.49"/>
<polygon fill="midnightblue" stroke="midnightblue" points="1519.98,-137.16 1509.39,-137.01 1517.58,-143.73 1519.98,-137.16"/>
</g>
<!-- Node27 -->
<g id="node27" class="node">
<title>Node27</title>
<g id="a_node27"><a xlink:title=" ">
<polygon fill="white" stroke="#bfbfbf" points="1536.5,-118 1536.5,-137 1592.5,-137 1592.5,-118 1536.5,-118"/>
<text text-anchor="middle" x="1564.5" y="-125" font-family="Helvetica,sans-Serif" font-size="10.00">iomanip</text>
</a>
</g>
</g>
<!-- Node22&#45;&gt;Node27 -->
<g id="edge36" class="edge">
<title>Node22&#45;&gt;Node27</title>
<path fill="none" stroke="midnightblue" d="M1931.26,-190.26C1855.58,-184.96 1717.21,-171.98 1602.5,-143 1599.68,-142.29 1596.78,-141.43 1593.9,-140.49"/>
<polygon fill="midnightblue" stroke="midnightblue" points="1594.93,-137.14 1584.33,-137.07 1592.57,-143.73 1594.93,-137.14"/>
</g>
<!-- Node28 -->
<g id="node28" class="node">
<title>Node28</title>
<g id="a_node28"><a xlink:title=" ">
<polygon fill="white" stroke="#bfbfbf" points="1611,-118 1611,-137 1668,-137 1668,-118 1611,-118"/>
<text text-anchor="middle" x="1639.5" y="-125" font-family="Helvetica,sans-Serif" font-size="10.00">ostream</text>
</a>
</g>
</g>
<!-- Node22&#45;&gt;Node28 -->
<g id="edge37" class="edge">
<title>Node22&#45;&gt;Node28</title>
<path fill="none" stroke="midnightblue" d="M1931.34,-187.83C1868.67,-180.69 1764.64,-166.46 1677.5,-143 1674.84,-142.28 1672.11,-141.45 1669.4,-140.55"/>
<polygon fill="midnightblue" stroke="midnightblue" points="1670.35,-137.18 1659.76,-137.1 1667.99,-143.77 1670.35,-137.18"/>
</g>
<!-- Node29 -->
<g id="node29" class="node">
<title>Node29</title>
<g id="a_node29"><a xlink:title=" ">
<polygon fill="white" stroke="#bfbfbf" points="1686,-112.5 1686,-142.5 1811,-142.5 1811,-112.5 1686,-112.5"/>
<text text-anchor="start" x="1694" y="-130.5" font-family="Helvetica,sans-Serif" font-size="10.00">boost/date_time/posix</text>
<text text-anchor="middle" x="1748.5" y="-119.5" font-family="Helvetica,sans-Serif" font-size="10.00">_time/posix_time.hpp</text>
</a>
</g>
</g>
<!-- Node22&#45;&gt;Node29 -->
<g id="edge40" class="edge">
<title>Node22&#45;&gt;Node29</title>
<path fill="none" stroke="midnightblue" d="M1955.76,-184.87C1918.66,-174.78 1856.39,-157.84 1809.78,-145.16"/>
<polygon fill="midnightblue" stroke="midnightblue" points="1810.65,-141.78 1800.08,-142.53 1808.81,-148.53 1810.65,-141.78"/>
</g>
<!-- Node30 -->
<g id="node30" class="node">
<title>Node30</title>
<g id="a_node30"><a xlink:title=" ">
<polygon fill="white" stroke="#bfbfbf" points="1829,-112.5 1829,-142.5 1984,-142.5 1984,-112.5 1829,-112.5"/>
<text text-anchor="start" x="1837" y="-130.5" font-family="Helvetica,sans-Serif" font-size="10.00">boost/date_time/posix</text>
<text text-anchor="middle" x="1906.5" y="-119.5" font-family="Helvetica,sans-Serif" font-size="10.00">_time/posix_time_types.hpp</text>
</a>
</g>
</g>
<!-- Node22&#45;&gt;Node30 -->
<g id="edge41" class="edge">
<title>Node22&#45;&gt;Node30</title>
<path fill="none" stroke="midnightblue" d="M1976.58,-184.73C1965.21,-175.61 1947,-161 1932,-148.96"/>
<polygon fill="midnightblue" stroke="midnightblue" points="1934.05,-146.12 1924.06,-142.59 1929.67,-151.58 1934.05,-146.12"/>
</g>
<!-- Node31 -->
<g id="node31" class="node">
<title>Node31</title>
<g id="a_node31"><a xlink:title=" ">
<polygon fill="white" stroke="#bfbfbf" points="2002,-118 2002,-137 2135,-137 2135,-118 2002,-118"/>
<text text-anchor="middle" x="2068.5" y="-125" font-family="Helvetica,sans-Serif" font-size="10.00">boost/log/attributes.hpp</text>
</a>
</g>
</g>
<!-- Node22&#45;&gt;Node31 -->
<g id="edge42" class="edge">
<title>Node22&#45;&gt;Node31</title>
<path fill="none" stroke="midnightblue" d="M1998.42,-184.73C2011.54,-174.21 2033.76,-156.38 2049.66,-143.62"/>
<polygon fill="midnightblue" stroke="midnightblue" points="2052.14,-146.12 2057.75,-137.13 2047.76,-140.66 2052.14,-146.12"/>
</g>
<!-- Node32 -->
<g id="node32" class="node">
<title>Node32</title>
<g id="a_node32"><a xlink:title=" ">
<polygon fill="white" stroke="#bfbfbf" points="2153.5,-112.5 2153.5,-142.5 2275.5,-142.5 2275.5,-112.5 2153.5,-112.5"/>
<text text-anchor="start" x="2161.5" y="-130.5" font-family="Helvetica,sans-Serif" font-size="10.00">boost/log/attributes</text>
<text text-anchor="middle" x="2214.5" y="-119.5" font-family="Helvetica,sans-Serif" font-size="10.00">/scoped_attribute.hpp</text>
</a>
</g>
</g>
<!-- Node22&#45;&gt;Node32 -->
<g id="edge43" class="edge">
<title>Node22&#45;&gt;Node32</title>
<path fill="none" stroke="midnightblue" d="M2017.64,-184.87C2052.74,-174.82 2111.53,-157.99 2155.74,-145.32"/>
<polygon fill="midnightblue" stroke="midnightblue" points="2156.86,-148.65 2165.51,-142.53 2154.93,-141.92 2156.86,-148.65"/>
</g>
<!-- Node33 -->
<g id="node33" class="node">
<title>Node33</title>
<g id="a_node33"><a xlink:title=" ">
<polygon fill="white" stroke="#bfbfbf" points="2294,-118 2294,-137 2401,-137 2401,-118 2294,-118"/>
<text text-anchor="middle" x="2347.5" y="-125" font-family="Helvetica,sans-Serif" font-size="10.00">boost/log/core.hpp</text>
</a>
</g>
</g>
<!-- Node22&#45;&gt;Node33 -->
<g id="edge44" class="edge">
<title>Node22&#45;&gt;Node33</title>
<path fill="none" stroke="midnightblue" d="M2043.51,-184.97C2103.35,-175.62 2200.9,-159.71 2284.5,-143 2290.21,-141.86 2296.2,-140.58 2302.11,-139.28"/>
<polygon fill="midnightblue" stroke="midnightblue" points="2302.94,-142.68 2311.93,-137.07 2301.4,-135.85 2302.94,-142.68"/>
</g>
<!-- Node34 -->
<g id="node34" class="node">
<title>Node34</title>
<g id="a_node34"><a xlink:title=" ">
<polygon fill="white" stroke="#bfbfbf" points="2419.5,-118 2419.5,-137 2563.5,-137 2563.5,-118 2419.5,-118"/>
<text text-anchor="middle" x="2491.5" y="-125" font-family="Helvetica,sans-Serif" font-size="10.00">boost/log/expressions.hpp</text>
</a>
</g>
</g>
<!-- Node22&#45;&gt;Node34 -->
<g id="edge45" class="edge">
<title>Node22&#45;&gt;Node34</title>
<path fill="none" stroke="midnightblue" d="M2043.75,-187.84C2124.92,-179.43 2279.56,-162.52 2410.5,-143 2418.93,-141.74 2427.83,-140.29 2436.52,-138.79"/>
<polygon fill="midnightblue" stroke="midnightblue" points="2437.35,-142.2 2446.59,-137.02 2436.14,-135.3 2437.35,-142.2"/>
</g>
<!-- Node35 -->
<g id="node35" class="node">
<title>Node35</title>
<g id="a_node35"><a xlink:title=" ">
<polygon fill="white" stroke="#bfbfbf" points="2581.5,-112.5 2581.5,-142.5 2697.5,-142.5 2697.5,-112.5 2581.5,-112.5"/>
<text text-anchor="start" x="2589.5" y="-130.5" font-family="Helvetica,sans-Serif" font-size="10.00">boost/log/sinks/sync</text>
<text text-anchor="middle" x="2639.5" y="-119.5" font-family="Helvetica,sans-Serif" font-size="10.00">_frontend.hpp</text>
</a>
</g>
</g>
<!-- Node22&#45;&gt;Node35 -->
<g id="edge46" class="edge">
<title>Node22&#45;&gt;Node35</title>
<path fill="none" stroke="midnightblue" d="M2043.84,-191.02C2146.75,-185.97 2372.07,-172.52 2571.41,-143.04"/>
<polygon fill="midnightblue" stroke="midnightblue" points="2572.11,-146.47 2581.48,-141.53 2571.07,-139.55 2572.11,-146.47"/>
</g>
<!-- Node36 -->
<g id="node36" class="node">
<title>Node36</title>
<g id="a_node36"><a xlink:title=" ">
<polygon fill="white" stroke="#bfbfbf" points="2716,-112.5 2716,-142.5 2845,-142.5 2845,-112.5 2716,-112.5"/>
<text text-anchor="start" x="2724" y="-130.5" font-family="Helvetica,sans-Serif" font-size="10.00">boost/log/sinks/text</text>
<text text-anchor="middle" x="2780.5" y="-119.5" font-family="Helvetica,sans-Serif" font-size="10.00">_ostream_backend.hpp</text>
</a>
</g>
</g>
<!-- Node22&#45;&gt;Node36 -->
<g id="edge47" class="edge">
<title>Node22&#45;&gt;Node36</title>
<path fill="none" stroke="midnightblue" d="M2043.67,-191.91C2163.49,-188.02 2453.12,-175.89 2705.51,-143.02"/>
<polygon fill="midnightblue" stroke="midnightblue" points="2706.14,-146.46 2715.6,-141.69 2705.23,-139.52 2706.14,-146.46"/>
</g>
<!-- Node37 -->
<g id="node37" class="node">
<title>Node37</title>
<g id="a_node37"><a xlink:title=" ">
<polygon fill="white" stroke="#bfbfbf" points="2863,-112.5 2863,-142.5 2994,-142.5 2994,-112.5 2863,-112.5"/>
<text text-anchor="start" x="2871" y="-130.5" font-family="Helvetica,sans-Serif" font-size="10.00">boost/log/sources/basic</text>
<text text-anchor="middle" x="2928.5" y="-119.5" font-family="Helvetica,sans-Serif" font-size="10.00">_logger.hpp</text>
</a>
</g>
</g>
<!-- Node22&#45;&gt;Node37 -->
<g id="edge48" class="edge">
<title>Node22&#45;&gt;Node37</title>
<path fill="none" stroke="midnightblue" d="M2043.53,-192.86C2180.3,-190.73 2542.21,-181.71 2852.71,-143.12"/>
<polygon fill="midnightblue" stroke="midnightblue" points="2853.32,-146.57 2862.81,-141.85 2852.45,-139.62 2853.32,-146.57"/>
</g>
<!-- Node38 -->
<g id="node38" class="node">
<title>Node38</title>
<g id="a_node38"><a xlink:title=" ">
<polygon fill="white" stroke="#bfbfbf" points="3012.5,-118 3012.5,-137 3168.5,-137 3168.5,-118 3012.5,-118"/>
<text text-anchor="middle" x="3090.5" y="-125" font-family="Helvetica,sans-Serif" font-size="10.00">boost/log/sources/logger.hpp</text>
</a>
</g>
</g>
<!-- Node22&#45;&gt;Node38 -->
<g id="edge49" class="edge">
<title>Node22&#45;&gt;Node38</title>
<path fill="none" stroke="midnightblue" d="M2043.57,-192.98C2197.42,-191.07 2638.93,-182.31 3003.5,-143 3013.88,-141.88 3024.91,-140.33 3035.5,-138.65"/>
<polygon fill="midnightblue" stroke="midnightblue" points="3036.18,-142.09 3045.48,-137.02 3035.05,-135.18 3036.18,-142.09"/>
</g>
<!-- Node39 -->
<g id="node39" class="node">
<title>Node39</title>
<g id="a_node39"><a xlink:title=" ">
<polygon fill="white" stroke="#bfbfbf" points="3186.5,-112.5 3186.5,-142.5 3322.5,-142.5 3322.5,-112.5 3186.5,-112.5"/>
<text text-anchor="start" x="3194.5" y="-130.5" font-family="Helvetica,sans-Serif" font-size="10.00">boost/log/sources/record</text>
<text text-anchor="middle" x="3254.5" y="-119.5" font-family="Helvetica,sans-Serif" font-size="10.00">_ostream.hpp</text>
</a>
</g>
</g>
<!-- Node22&#45;&gt;Node39 -->
<g id="edge50" class="edge">
<title>Node22&#45;&gt;Node39</title>
<path fill="none" stroke="midnightblue" d="M2043.79,-193.97C2213.53,-194.8 2735.28,-192.87 3176.07,-143.05"/>
<polygon fill="midnightblue" stroke="midnightblue" points="3176.6,-146.51 3186.14,-141.9 3175.81,-139.56 3176.6,-146.51"/>
</g>
<!-- Node40 -->
<g id="node40" class="node">
<title>Node40</title>
<g id="a_node40"><a xlink:title=" ">
<polygon fill="white" stroke="#bfbfbf" points="3341,-112.5 3341,-142.5 3486,-142.5 3486,-112.5 3341,-112.5"/>
<text text-anchor="start" x="3349" y="-130.5" font-family="Helvetica,sans-Serif" font-size="10.00">boost/log/sources/severity</text>
<text text-anchor="middle" x="3413.5" y="-119.5" font-family="Helvetica,sans-Serif" font-size="10.00">_channel_logger.hpp</text>
</a>
</g>
</g>
<!-- Node22&#45;&gt;Node40 -->
<g id="edge51" class="edge">
<title>Node22&#45;&gt;Node40</title>
<path fill="none" stroke="midnightblue" d="M2043.85,-192.42C2262.44,-188.06 3055.33,-170.73 3330.35,-142.98"/>
<polygon fill="midnightblue" stroke="midnightblue" points="3331.11,-146.42 3340.7,-141.91 3330.39,-139.46 3331.11,-146.42"/>
</g>
<!-- Node41 -->
<g id="node41" class="node">
<title>Node41</title>
<g id="a_node41"><a xlink:title=" ">
<polygon fill="white" stroke="#bfbfbf" points="3504,-112.5 3504,-142.5 3649,-142.5 3649,-112.5 3504,-112.5"/>
<text text-anchor="start" x="3512" y="-130.5" font-family="Helvetica,sans-Serif" font-size="10.00">boost/log/sources/severity</text>
<text text-anchor="middle" x="3576.5" y="-119.5" font-family="Helvetica,sans-Serif" font-size="10.00">_logger.hpp</text>
</a>
</g>
</g>
<!-- Node22&#45;&gt;Node41 -->
<g id="edge52" class="edge">
<title>Node22&#45;&gt;Node41</title>
<path fill="none" stroke="midnightblue" d="M2043.72,-192.7C2278.87,-189.19 3185.18,-173.96 3493.44,-143.1"/>
<polygon fill="midnightblue" stroke="midnightblue" points="3494.12,-146.54 3503.71,-142.04 3493.41,-139.58 3494.12,-146.54"/>
</g>
<!-- Node42 -->
<g id="node42" class="node">
<title>Node42</title>
<g id="a_node42"><a xlink:title=" ">
<polygon fill="white" stroke="#bfbfbf" points="3667.5,-112.5 3667.5,-142.5 3793.5,-142.5 3793.5,-112.5 3667.5,-112.5"/>
<text text-anchor="start" x="3675.5" y="-130.5" font-family="Helvetica,sans-Serif" font-size="10.00">boost/log/support/date</text>
<text text-anchor="middle" x="3730.5" y="-119.5" font-family="Helvetica,sans-Serif" font-size="10.00">_time.hpp</text>
</a>
</g>
</g>
<!-- Node22&#45;&gt;Node42 -->
<g id="edge53" class="edge">
<title>Node22&#45;&gt;Node42</title>
<path fill="none" stroke="midnightblue" d="M2043.74,-193.07C2294.71,-190.98 3314.68,-180.37 3657.2,-142.98"/>
<polygon fill="midnightblue" stroke="midnightblue" points="3657.83,-146.43 3667.38,-141.84 3657.05,-139.47 3657.83,-146.43"/>
</g>
<!-- Node43 -->
<g id="node43" class="node">
<title>Node43</title>
<g id="a_node43"><a xlink:title=" ">
<polygon fill="white" stroke="#bfbfbf" points="3811.5,-118 3811.5,-137 3925.5,-137 3925.5,-118 3811.5,-118"/>
<text text-anchor="middle" x="3868.5" y="-125" font-family="Helvetica,sans-Serif" font-size="10.00">boost/log/trivial.hpp</text>
</a>
</g>
</g>
<!-- Node22&#45;&gt;Node43 -->
<g id="edge54" class="edge">
<title>Node22&#45;&gt;Node43</title>
<path fill="none" stroke="midnightblue" d="M2043.63,-193.36C2310.16,-192.49 3449.73,-186.27 3802.5,-143 3810.03,-142.08 3817.97,-140.69 3825.62,-139.14"/>
<polygon fill="midnightblue" stroke="midnightblue" points="3826.43,-142.55 3835.47,-137.03 3824.96,-135.71 3826.43,-142.55"/>
</g>
<!-- Node44 -->
<g id="node44" class="node">
<title>Node44</title>
<g id="a_node44"><a xlink:title=" ">
<polygon fill="white" stroke="#bfbfbf" points="3943.5,-112.5 3943.5,-142.5 4079.5,-142.5 4079.5,-112.5 3943.5,-112.5"/>
<text text-anchor="start" x="3951.5" y="-130.5" font-family="Helvetica,sans-Serif" font-size="10.00">boost/log/utility/setup</text>
<text text-anchor="middle" x="4011.5" y="-119.5" font-family="Helvetica,sans-Serif" font-size="10.00">/common_attributes.hpp</text>
</a>
</g>
</g>
<!-- Node22&#45;&gt;Node44 -->
<g id="edge55" class="edge">
<title>Node22&#45;&gt;Node44</title>
<path fill="none" stroke="midnightblue" d="M2043.93,-193.26C2320.23,-191.88 3532.74,-183.67 3932.98,-143.02"/>
<polygon fill="midnightblue" stroke="midnightblue" points="3933.57,-146.48 3943.15,-141.96 3932.84,-139.51 3933.57,-146.48"/>
</g>
<!-- Node45 -->
<g id="node45" class="node">
<title>Node45</title>
<g id="a_node45"><a xlink:title=" ">
<polygon fill="white" stroke="#bfbfbf" points="4098,-112.5 4098,-142.5 4221,-142.5 4221,-112.5 4098,-112.5"/>
<text text-anchor="start" x="4106" y="-130.5" font-family="Helvetica,sans-Serif" font-size="10.00">boost/log/utility/setup</text>
<text text-anchor="middle" x="4159.5" y="-119.5" font-family="Helvetica,sans-Serif" font-size="10.00">/file.hpp</text>
</a>
</g>
</g>
<!-- Node22&#45;&gt;Node45 -->
<g id="edge56" class="edge">
<title>Node22&#45;&gt;Node45</title>
<path fill="none" stroke="midnightblue" d="M2043.53,-193.5C2332.22,-193.29 3654.76,-189.8 4087.59,-142.92"/>
<polygon fill="midnightblue" stroke="midnightblue" points="4088.09,-146.39 4097.65,-141.8 4087.32,-139.43 4088.09,-146.39"/>
</g>
<!-- Node46 -->
<g id="node46" class="node">
<title>Node46</title>
<g id="a_node46"><a xlink:title=" ">
<polygon fill="white" stroke="#bfbfbf" points="4239,-112.5 4239,-142.5 4362,-142.5 4362,-112.5 4239,-112.5"/>
<text text-anchor="start" x="4247" y="-130.5" font-family="Helvetica,sans-Serif" font-size="10.00">boost/log/utility/value</text>
<text text-anchor="middle" x="4300.5" y="-119.5" font-family="Helvetica,sans-Serif" font-size="10.00">_ref.hpp</text>
</a>
</g>
</g>
<!-- Node22&#45;&gt;Node46 -->
<g id="edge57" class="edge">
<title>Node22&#45;&gt;Node46</title>
<path fill="none" stroke="midnightblue" d="M2043.78,-193.62C2344.72,-194.05 3767.05,-193.39 4228.7,-143.05"/>
<polygon fill="midnightblue" stroke="midnightblue" points="4229.21,-146.51 4238.76,-141.92 4228.44,-139.55 4229.21,-146.51"/>
</g>
<!-- Node47 -->
<g id="node47" class="node">
<title>Node47</title>
<g id="a_node47"><a xlink:title=" ">
<polygon fill="white" stroke="#bfbfbf" points="701,-118 701,-137 832,-137 832,-118 701,-118"/>
<text text-anchor="middle" x="766.5" y="-125" font-family="Helvetica,sans-Serif" font-size="10.00">boost/phoenix/bind.hpp</text>
</a>
</g>
</g>
<!-- Node22&#45;&gt;Node47 -->
<g id="edge58" class="edge">
<title>Node22&#45;&gt;Node47</title>
<path fill="none" stroke="midnightblue" d="M1931.44,-192.12C1731.86,-187.05 1056.34,-168.36 841.5,-143 832.79,-141.97 823.58,-140.51 814.7,-138.9"/>
<polygon fill="midnightblue" stroke="midnightblue" points="815.35,-135.46 804.87,-137.04 814.05,-142.34 815.35,-135.46"/>
</g>
<!-- Node48 -->
<g id="node48" class="node">
<title>Node48</title>
<g id="a_node48"><a xlink:title=" ">
<polygon fill="white" stroke="#bfbfbf" points="850.5,-112.5 850.5,-142.5 974.5,-142.5 974.5,-112.5 850.5,-112.5"/>
<text text-anchor="start" x="858.5" y="-130.5" font-family="Helvetica,sans-Serif" font-size="10.00">boost/smart_ptr/make</text>
<text text-anchor="middle" x="912.5" y="-119.5" font-family="Helvetica,sans-Serif" font-size="10.00">_shared_object.hpp</text>
</a>
</g>
</g>
<!-- Node22&#45;&gt;Node48 -->
<g id="edge59" class="edge">
<title>Node22&#45;&gt;Node48</title>
<path fill="none" stroke="midnightblue" d="M1931.46,-193.64C1780.1,-193.4 1350.42,-188.52 984.73,-143.02"/>
<polygon fill="midnightblue" stroke="midnightblue" points="985.11,-139.54 974.75,-141.77 984.24,-146.49 985.11,-139.54"/>
</g>
<!-- Node49 -->
<g id="node49" class="node">
<title>Node49</title>
<g id="a_node49"><a xlink:title=" ">
<polygon fill="white" stroke="#bfbfbf" points="992.5,-112.5 992.5,-142.5 1122.5,-142.5 1122.5,-112.5 992.5,-112.5"/>
<text text-anchor="start" x="1000.5" y="-130.5" font-family="Helvetica,sans-Serif" font-size="10.00">boost/smart_ptr/shared</text>
<text text-anchor="middle" x="1057.5" y="-119.5" font-family="Helvetica,sans-Serif" font-size="10.00">_ptr.hpp</text>
</a>
</g>
</g>
<!-- Node22&#45;&gt;Node49 -->
<g id="edge60" class="edge">
<title>Node22&#45;&gt;Node49</title>
<path fill="none" stroke="midnightblue" d="M1931.5,-192.75C1796.05,-190.37 1439.94,-180.86 1132.85,-142.91"/>
<polygon fill="midnightblue" stroke="midnightblue" points="1133.22,-139.43 1122.87,-141.66 1132.35,-146.38 1133.22,-139.43"/>
</g>
<!-- Node50 -->
<g id="node50" class="node">
<title>Node50</title>
<g id="a_node50"><a xlink:title=" ">
<polygon fill="white" stroke="#bfbfbf" points="1141,-118 1141,-137 1218,-137 1218,-118 1141,-118"/>
<text text-anchor="middle" x="1179.5" y="-125" font-family="Helvetica,sans-Serif" font-size="10.00">Eigen/Dense</text>
</a>
</g>
</g>
<!-- Node22&#45;&gt;Node50 -->
<g id="edge61" class="edge">
<title>Node22&#45;&gt;Node50</title>
<path fill="none" stroke="midnightblue" d="M1931.19,-194.1C1804.41,-194.51 1487.38,-190.25 1227.5,-143 1223.04,-142.19 1218.42,-141.11 1213.87,-139.9"/>
<polygon fill="midnightblue" stroke="midnightblue" points="1214.73,-136.51 1204.15,-137.12 1212.8,-143.24 1214.73,-136.51"/>
</g>
</g>
</svg>
        <g id="navigator" transform="translate(0 0)" fill="#404254">
                <rect fill="#f2f5e9" fill-opacity="0.5" stroke="#606060" stroke-width=".5" x="0" y="0" width="60" height="60"/>
                <use id="zoomplus" xlink:href="#zoomPlus" x="17" y="9" onmousedown="handleZoom(evt,'in')"/>
                <use id="zoomminus" xlink:href="#zoomMin" x="42" y="9" onmousedown="handleZoom(evt,'out')"/>
                <use id="reset" xlink:href="#resetDef" x="30" y="36" onmousedown="handleReset()"/>
                <g id="arrowUp" xlink:href="#dirArrow" transform="translate(30 24)" onmousedown="handlePan(0,-1)">
                  <use xlink:href="#rim" fill="#404040">
                        <set attributeName="fill" to="#808080" begin="arrowUp.mouseover" end="arrowUp.mouseout"/>
                  </use>
                  <path fill="none" stroke="white" stroke-width="1.5" d="M0,-3.0v7 M-2.5,-0.5L0,-3.0L2.5,-0.5"/>
                </g>
                <g id="arrowRight" xlink:href="#dirArrow" transform="rotate(90) translate(36 -43)" onmousedown="handlePan(1,0)">
                  <use xlink:href="#rim" fill="#404040">
                        <set attributeName="fill" to="#808080" begin="arrowRight.mouseover" end="arrowRight.mouseout"/>
                  </use>
                  <path fill="none" stroke="white" stroke-width="1.5" d="M0,-3.0v7 M-2.5,-0.5L0,-3.0L2.5,-0.5"/>
                </g>
                <g id="arrowDown" xlink:href="#dirArrow" transform="rotate(180) translate(-30 -48)" onmousedown="handlePan(0,1)">
                  <use xlink:href="#rim" fill="#404040">
                        <set attributeName="fill" to="#808080" begin="arrowDown.mouseover" end="arrowDown.mouseout"/>
                  </use>
                  <path fill="none" stroke="white" stroke-width="1.5" d="M0,-3.0v7 M-2.5,-0.5L0,-3.0L2.5,-0.5"/>
                </g>
                <g id="arrowLeft" xlink:href="#dirArrow" transform="rotate(270) translate(-36 17)" onmousedown="handlePan(-1,0)">
                  <use xlink:href="#rim" fill="#404040">
                        <set attributeName="fill" to="#808080" begin="arrowLeft.mouseover" end="arrowLeft.mouseout"/>
                  </use>
                  <path fill="none" stroke="white" stroke-width="1.5" d="M0,-3.0v7 M-2.5,-0.5L0,-3.0L2.5,-0.5"/>
                </g>
        </g>
        <svg viewBox="0 0 15 15" width="100%" height="30px" preserveAspectRatio="xMaxYMin meet">
         <g id="arrow_out" transform="scale(0.3 0.3)">
          <a xlink:href="mocap_8hpp__incl_org.svg" target="_base">
           <rect id="button" ry="5" rx="5" y="6" x="6" height="38" width="38"
                fill="#f2f5e9" fill-opacity="0.5" stroke="#606060" stroke-width="1.0"/>
           <path id="arrow"
             d="M 11.500037,31.436501 C 11.940474,20.09759 22.043105,11.32322 32.158766,21.979434 L 37.068811,17.246167 C 37.068811,17.246167 37.088388,32 37.088388,32 L 22.160133,31.978069 C 22.160133,31.978069 26.997745,27.140456 26.997745,27.140456 C 18.528582,18.264221 13.291696,25.230495 11.500037,31.436501 z"
             style="fill:#404040;"/>
          </a>
         </g>
        </svg>
</svg>
