<?xml version="1.0" encoding="UTF-8" standalone="no"?>
<!DOCTYPE svg PUBLIC "-//W3C//DTD SVG 1.1//EN"
 "http://www.w3.org/Graphics/SVG/1.1/DTD/svg11.dtd">
<!-- Generated by graphviz version 2.43.0 (0)
 -->
<!-- Title: /mnt/c/Users/siddh/OneDrive/Desktop/ACSL&#45;flightstack/include/flightstack/control/mrac/mrac.hpp Pages: 1 -->
<svg width="1140pt" height="307pt"
 viewBox="0.00 0.00 1140.42 307.00" xmlns="http://www.w3.org/2000/svg" xmlns:xlink="http://www.w3.org/1999/xlink">
<g id="graph0" class="graph" transform="scale(1 1) rotate(0) translate(4 303)">
<title>/mnt/c/Users/siddh/OneDrive/Desktop/ACSL&#45;flightstack/include/flightstack/control/mrac/mrac.hpp</title>
<polygon fill="white" stroke="transparent" points="-4,4 -4,-303 1136.42,-303 1136.42,4 -4,4"/>
<!-- Node1 -->
<g id="node1" class="node">
<title>Node1</title>
<g id="a_node1"><a xlink:title="Implementation of MRAC controller.">
<polygon fill="#bfbfbf" stroke="black" points="223.54,-246.5 223.54,-298.5 387.54,-298.5 387.54,-246.5 223.54,-246.5"/>
<text text-anchor="start" x="231.54" y="-286.5" font-family="Helvetica,sans-Serif" font-size="10.00">/mnt/c/Users/siddh</text>
<text text-anchor="start" x="231.54" y="-275.5" font-family="Helvetica,sans-Serif" font-size="10.00">/OneDrive/Desktop/ACSL</text>
<text text-anchor="start" x="231.54" y="-264.5" font-family="Helvetica,sans-Serif" font-size="10.00">&#45;flightstack/include/flightstack</text>
<text text-anchor="middle" x="305.54" y="-253.5" font-family="Helvetica,sans-Serif" font-size="10.00">/control/mrac/mrac.hpp</text>
</a>
</g>
</g>
<!-- Node2 -->
<g id="node2" class="node">
<title>Node2</title>
<g id="a_node2"><a xlink:title=" ">
<polygon fill="white" stroke="#bfbfbf" points="37.04,-0.5 37.04,-19.5 84.04,-19.5 84.04,-0.5 37.04,-0.5"/>
<text text-anchor="middle" x="60.54" y="-7.5" font-family="Helvetica,sans-Serif" font-size="10.00">cmath</text>
</a>
</g>
</g>
<!-- Node1&#45;&gt;Node2 -->
<g id="edge1" class="edge">
<title>Node1&#45;&gt;Node2</title>
<path fill="none" stroke="midnightblue" d="M223.26,-265.1C171.67,-257.89 105.68,-242.56 55.54,-210 14.19,-183.14 -8.99,-159.69 3.54,-112 12.03,-79.7 33.44,-46.86 47.47,-27.73"/>
<polygon fill="midnightblue" stroke="midnightblue" points="50.45,-29.6 53.68,-19.51 44.86,-25.39 50.45,-29.6"/>
</g>
<!-- Node3 -->
<g id="node3" class="node">
<title>Node3</title>
<g id="a_node3"><a xlink:title=" ">
<polygon fill="white" stroke="#bfbfbf" points="12.54,-118 12.54,-137 76.54,-137 76.54,-118 12.54,-118"/>
<text text-anchor="middle" x="44.54" y="-125" font-family="Helvetica,sans-Serif" font-size="10.00">algorithm</text>
</a>
</g>
</g>
<!-- Node1&#45;&gt;Node3 -->
<g id="edge2" class="edge">
<title>Node1&#45;&gt;Node3</title>
<path fill="none" stroke="midnightblue" d="M223.32,-266.24C176.73,-259.37 120.05,-244.02 80.54,-210 61.62,-193.71 52.25,-165.56 47.91,-146.98"/>
<polygon fill="midnightblue" stroke="midnightblue" points="51.31,-146.16 45.85,-137.08 44.46,-147.58 51.31,-146.16"/>
</g>
<!-- Node4 -->
<g id="node4" class="node">
<title>Node4</title>
<g id="a_node4"><a xlink:title=" ">
<polygon fill="white" stroke="#bfbfbf" points="242.54,-56.5 242.54,-75.5 286.54,-75.5 286.54,-56.5 242.54,-56.5"/>
<text text-anchor="middle" x="264.54" y="-63.5" font-family="Helvetica,sans-Serif" font-size="10.00">string</text>
</a>
</g>
</g>
<!-- Node1&#45;&gt;Node4 -->
<g id="edge3" class="edge">
<title>Node1&#45;&gt;Node4</title>
<path fill="none" stroke="midnightblue" d="M300.52,-246.42C292.18,-204.86 275.7,-122.63 268.29,-85.71"/>
<polygon fill="midnightblue" stroke="midnightblue" points="271.71,-84.92 266.31,-75.8 264.84,-86.3 271.71,-84.92"/>
</g>
<!-- Node5 -->
<g id="node5" class="node">
<title>Node5</title>
<g id="a_node5"><a xlink:title=" ">
<polygon fill="white" stroke="#bfbfbf" points="880.04,-0.5 880.04,-19.5 957.04,-19.5 957.04,-0.5 880.04,-0.5"/>
<text text-anchor="middle" x="918.54" y="-7.5" font-family="Helvetica,sans-Serif" font-size="10.00">Eigen/Dense</text>
</a>
</g>
</g>
<!-- Node1&#45;&gt;Node5 -->
<g id="edge4" class="edge">
<title>Node1&#45;&gt;Node5</title>
<path fill="none" stroke="midnightblue" d="M387.67,-271.41C583.26,-270.36 1063.98,-262.4 1112.54,-210 1163.28,-155.25 1106.18,-99.53 1045.54,-56 1022.23,-39.26 992.08,-28.23 967.01,-21.28"/>
<polygon fill="midnightblue" stroke="midnightblue" points="967.89,-17.89 957.33,-18.72 966.1,-24.66 967.89,-17.89"/>
</g>
<!-- Node6 -->
<g id="node6" class="node">
<title>Node6</title>
<g id="a_node6"><a xlink:href="control_8hpp.html" target="_top" xlink:title="General class that contains common members used by most of the control algorithms.">
<polygon fill="white" stroke="black" points="320.04,-185 320.04,-204 391.04,-204 391.04,-185 320.04,-185"/>
<text text-anchor="middle" x="355.54" y="-192" font-family="Helvetica,sans-Serif" font-size="10.00">control.hpp</text>
</a>
</g>
</g>
<!-- Node1&#45;&gt;Node6 -->
<g id="edge5" class="edge">
<title>Node1&#45;&gt;Node6</title>
<path fill="none" stroke="midnightblue" d="M322.19,-246.19C329.43,-235.2 337.71,-222.6 344.22,-212.72"/>
<polygon fill="midnightblue" stroke="midnightblue" points="347.24,-214.49 349.81,-204.21 341.39,-210.64 347.24,-214.49"/>
</g>
<!-- Node18 -->
<g id="node18" class="node">
<title>Node18</title>
<g id="a_node18"><a xlink:href="mrac__gains_8hpp.html" target="_top" xlink:title="Tuning gains of the MRAC controller.">
<polygon fill="white" stroke="black" points="89.54,-185 89.54,-204 183.54,-204 183.54,-185 89.54,-185"/>
<text text-anchor="middle" x="136.54" y="-192" font-family="Helvetica,sans-Serif" font-size="10.00">mrac_gains.hpp</text>
</a>
</g>
</g>
<!-- Node1&#45;&gt;Node18 -->
<g id="edge26" class="edge">
<title>Node1&#45;&gt;Node18</title>
<path fill="none" stroke="midnightblue" d="M249.74,-246.4C221.3,-233.62 187.95,-218.62 164.85,-208.23"/>
<polygon fill="midnightblue" stroke="midnightblue" points="166.17,-204.99 155.62,-204.08 163.3,-211.37 166.17,-204.99"/>
</g>
<!-- Node19 -->
<g id="node19" class="node">
<title>Node19</title>
<g id="a_node19"><a xlink:href="continuous__lyapunov__equation_8hpp.html" target="_top" xlink:title=" ">
<polygon fill="white" stroke="black" points="833.54,-179.5 833.54,-209.5 953.54,-209.5 953.54,-179.5 833.54,-179.5"/>
<text text-anchor="start" x="841.54" y="-197.5" font-family="Helvetica,sans-Serif" font-size="10.00">continuous_lyapunov</text>
<text text-anchor="middle" x="893.54" y="-186.5" font-family="Helvetica,sans-Serif" font-size="10.00">_equation.hpp</text>
</a>
</g>
</g>
<!-- Node1&#45;&gt;Node19 -->
<g id="edge30" class="edge">
<title>Node1&#45;&gt;Node19</title>
<path fill="none" stroke="midnightblue" d="M387.61,-260.89C503.83,-245.87 714.36,-218.66 823.58,-204.54"/>
<polygon fill="midnightblue" stroke="midnightblue" points="824.04,-208.01 833.51,-203.26 823.14,-201.07 824.04,-208.01"/>
</g>
<!-- Node21 -->
<g id="node21" class="node">
<title>Node21</title>
<g id="a_node21"><a xlink:href="projection__operator_8hpp.html" target="_top" xlink:title="Implementation of the projection operator to be used in the MRAC controllers.">
<polygon fill="white" stroke="black" points="971.54,-185 971.54,-204 1103.54,-204 1103.54,-185 971.54,-185"/>
<text text-anchor="middle" x="1037.54" y="-192" font-family="Helvetica,sans-Serif" font-size="10.00">projection_operator.hpp</text>
</a>
</g>
</g>
<!-- Node1&#45;&gt;Node21 -->
<g id="edge33" class="edge">
<title>Node1&#45;&gt;Node21</title>
<path fill="none" stroke="midnightblue" d="M387.79,-266.39C512.5,-258.06 756.71,-239.46 962.54,-210 970.57,-208.85 979.04,-207.42 987.29,-205.92"/>
<polygon fill="midnightblue" stroke="midnightblue" points="988.01,-209.34 997.18,-204.05 986.71,-202.46 988.01,-209.34"/>
</g>
<!-- Node6&#45;&gt;Node2 -->
<g id="edge6" class="edge">
<title>Node6&#45;&gt;Node2</title>
<path fill="none" stroke="midnightblue" d="M319.9,-188.7C260.7,-178.79 142.4,-150.38 79.54,-76 68.53,-62.96 63.89,-43.81 61.95,-29.66"/>
<polygon fill="midnightblue" stroke="midnightblue" points="65.42,-29.19 60.89,-19.61 58.46,-29.92 65.42,-29.19"/>
</g>
<!-- Node6&#45;&gt;Node5 -->
<g id="edge10" class="edge">
<title>Node6&#45;&gt;Node5</title>
<path fill="none" stroke="midnightblue" d="M391.09,-193.15C463.48,-191.58 632.6,-183.46 767.54,-143 831.7,-123.76 860.65,-128.26 902.54,-76 913.1,-62.83 916.83,-43.7 918.08,-29.59"/>
<polygon fill="midnightblue" stroke="midnightblue" points="921.57,-29.75 918.63,-19.57 914.58,-29.36 921.57,-29.75"/>
</g>
<!-- Node7 -->
<g id="node7" class="node">
<title>Node7</title>
<g id="a_node7"><a xlink:title=" ">
<polygon fill="white" stroke="#bfbfbf" points="305.04,-56.5 305.04,-75.5 352.04,-75.5 352.04,-56.5 305.04,-56.5"/>
<text text-anchor="middle" x="328.54" y="-63.5" font-family="Helvetica,sans-Serif" font-size="10.00">vector</text>
</a>
</g>
</g>
<!-- Node6&#45;&gt;Node7 -->
<g id="edge7" class="edge">
<title>Node6&#45;&gt;Node7</title>
<path fill="none" stroke="midnightblue" d="M344.87,-184.76C334.6,-175.6 319.75,-160.16 313.54,-143 306.63,-123.89 313.11,-100.85 319.57,-85.19"/>
<polygon fill="midnightblue" stroke="midnightblue" points="322.95,-86.22 323.88,-75.66 316.57,-83.33 322.95,-86.22"/>
</g>
<!-- Node8 -->
<g id="node8" class="node">
<title>Node8</title>
<g id="a_node8"><a xlink:title=" ">
<polygon fill="white" stroke="#bfbfbf" points="323.04,-118 323.04,-137 388.04,-137 388.04,-118 323.04,-118"/>
<text text-anchor="middle" x="355.54" y="-125" font-family="Helvetica,sans-Serif" font-size="10.00">functional</text>
</a>
</g>
</g>
<!-- Node6&#45;&gt;Node8 -->
<g id="edge8" class="edge">
<title>Node6&#45;&gt;Node8</title>
<path fill="none" stroke="midnightblue" d="M355.54,-184.73C355.54,-175.18 355.54,-159.62 355.54,-147.28"/>
<polygon fill="midnightblue" stroke="midnightblue" points="359.04,-147.13 355.54,-137.13 352.04,-147.13 359.04,-147.13"/>
</g>
<!-- Node9 -->
<g id="node9" class="node">
<title>Node9</title>
<g id="a_node9"><a xlink:title=" ">
<polygon fill="white" stroke="#bfbfbf" points="406.54,-118 406.54,-137 456.54,-137 456.54,-118 406.54,-118"/>
<text text-anchor="middle" x="431.54" y="-125" font-family="Helvetica,sans-Serif" font-size="10.00">chrono</text>
</a>
</g>
</g>
<!-- Node6&#45;&gt;Node9 -->
<g id="edge9" class="edge">
<title>Node6&#45;&gt;Node9</title>
<path fill="none" stroke="midnightblue" d="M365.79,-184.73C377.99,-174.31 398.56,-156.71 413.45,-143.97"/>
<polygon fill="midnightblue" stroke="midnightblue" points="416.13,-146.29 421.46,-137.13 411.58,-140.97 416.13,-146.29"/>
</g>
<!-- Node10 -->
<g id="node10" class="node">
<title>Node10</title>
<g id="a_node10"><a xlink:title=" ">
<polygon fill="white" stroke="#bfbfbf" points="475.04,-118 475.04,-137 616.04,-137 616.04,-118 475.04,-118"/>
<text text-anchor="middle" x="545.54" y="-125" font-family="Helvetica,sans-Serif" font-size="10.00">boost/numeric/odeint.hpp</text>
</a>
</g>
</g>
<!-- Node6&#45;&gt;Node10 -->
<g id="edge11" class="edge">
<title>Node6&#45;&gt;Node10</title>
<path fill="none" stroke="midnightblue" d="M380.77,-184.87C414.23,-173.42 473.4,-153.18 510.99,-140.32"/>
<polygon fill="midnightblue" stroke="midnightblue" points="512.18,-143.61 520.51,-137.06 509.92,-136.99 512.18,-143.61"/>
</g>
<!-- Node11 -->
<g id="node11" class="node">
<title>Node11</title>
<g id="a_node11"><a xlink:href="vehicle__info_8hpp.html" target="_top" xlink:title="Vehicle properties such as mass, intertia matrix, motor thrust curves, etc.">
<polygon fill="white" stroke="black" points="89.04,-56.5 89.04,-75.5 186.04,-75.5 186.04,-56.5 89.04,-56.5"/>
<text text-anchor="middle" x="137.54" y="-63.5" font-family="Helvetica,sans-Serif" font-size="10.00">vehicle_info.hpp</text>
</a>
</g>
</g>
<!-- Node6&#45;&gt;Node11 -->
<g id="edge12" class="edge">
<title>Node6&#45;&gt;Node11</title>
<path fill="none" stroke="midnightblue" d="M340.56,-184.81C303.29,-163.18 206.17,-106.82 161.13,-80.68"/>
<polygon fill="midnightblue" stroke="midnightblue" points="162.75,-77.58 152.34,-75.59 159.24,-83.63 162.75,-77.58"/>
</g>
<!-- Node12 -->
<g id="node12" class="node">
<title>Node12</title>
<g id="a_node12"><a xlink:href="piecewise__polynomial__trajectory_8hpp.html" target="_top" xlink:title="Piecewise polynomial minimu&#45;jerk trajectory computed offline through a MATLAB script.">
<polygon fill="white" stroke="black" points="634.04,-112.5 634.04,-142.5 759.04,-142.5 759.04,-112.5 634.04,-112.5"/>
<text text-anchor="start" x="642.04" y="-130.5" font-family="Helvetica,sans-Serif" font-size="10.00">piecewise_polynomial</text>
<text text-anchor="middle" x="696.54" y="-119.5" font-family="Helvetica,sans-Serif" font-size="10.00">_trajectory.hpp</text>
</a>
</g>
</g>
<!-- Node6&#45;&gt;Node12 -->
<g id="edge15" class="edge">
<title>Node6&#45;&gt;Node12</title>
<path fill="none" stroke="midnightblue" d="M391.25,-186.95C440.94,-177.8 534.01,-160.55 623.66,-143.16"/>
<polygon fill="midnightblue" stroke="midnightblue" points="624.58,-146.55 633.72,-141.2 623.24,-139.67 624.58,-146.55"/>
</g>
<!-- Node11&#45;&gt;Node2 -->
<g id="edge13" class="edge">
<title>Node11&#45;&gt;Node2</title>
<path fill="none" stroke="midnightblue" d="M125.17,-56.32C113.38,-48.06 95.41,-35.45 81.41,-25.63"/>
<polygon fill="midnightblue" stroke="midnightblue" points="83.08,-22.53 72.88,-19.65 79.06,-28.26 83.08,-22.53"/>
</g>
<!-- Node11&#45;&gt;Node5 -->
<g id="edge14" class="edge">
<title>Node11&#45;&gt;Node5</title>
<path fill="none" stroke="midnightblue" d="M186.34,-57.64C191.13,-57.03 195.93,-56.47 200.54,-56 451.45,-30.26 753.3,-17.13 869.59,-12.73"/>
<polygon fill="midnightblue" stroke="midnightblue" points="870.07,-16.21 879.93,-12.34 869.8,-9.22 870.07,-16.21"/>
</g>
<!-- Node12&#45;&gt;Node4 -->
<g id="edge17" class="edge">
<title>Node12&#45;&gt;Node4</title>
<path fill="none" stroke="midnightblue" d="M633.77,-113.51C630.66,-112.98 627.57,-112.47 624.54,-112 482.45,-89.96 441.65,-103.95 296.92,-75.95"/>
<polygon fill="midnightblue" stroke="midnightblue" points="297.27,-72.45 286.78,-73.96 295.92,-79.32 297.27,-72.45"/>
</g>
<!-- Node12&#45;&gt;Node5 -->
<g id="edge21" class="edge">
<title>Node12&#45;&gt;Node5</title>
<path fill="none" stroke="midnightblue" d="M759.37,-120.96C797.33,-114.93 844.9,-102.32 879.54,-76 895.23,-64.08 905.9,-43.88 912.06,-29.16"/>
<polygon fill="midnightblue" stroke="midnightblue" points="915.42,-30.19 915.76,-19.6 908.89,-27.66 915.42,-30.19"/>
</g>
<!-- Node12&#45;&gt;Node7 -->
<g id="edge16" class="edge">
<title>Node12&#45;&gt;Node7</title>
<path fill="none" stroke="midnightblue" d="M633.76,-113.61C630.65,-113.05 627.56,-112.51 624.54,-112 511.39,-92.88 478.91,-99.2 362.29,-75.9"/>
<polygon fill="midnightblue" stroke="midnightblue" points="362.74,-72.42 352.25,-73.86 361.35,-79.28 362.74,-72.42"/>
</g>
<!-- Node13 -->
<g id="node13" class="node">
<title>Node13</title>
<g id="a_node13"><a xlink:title=" ">
<polygon fill="white" stroke="#bfbfbf" points="668.04,-56.5 668.04,-75.5 723.04,-75.5 723.04,-56.5 668.04,-56.5"/>
<text text-anchor="middle" x="695.54" y="-63.5" font-family="Helvetica,sans-Serif" font-size="10.00">fstream</text>
</a>
</g>
</g>
<!-- Node12&#45;&gt;Node13 -->
<g id="edge18" class="edge">
<title>Node12&#45;&gt;Node13</title>
<path fill="none" stroke="midnightblue" d="M696.31,-112.4C696.17,-104.47 696,-94.46 695.86,-85.86"/>
<polygon fill="midnightblue" stroke="midnightblue" points="699.36,-85.6 695.69,-75.66 692.36,-85.72 699.36,-85.6"/>
</g>
<!-- Node14 -->
<g id="node14" class="node">
<title>Node14</title>
<g id="a_node14"><a xlink:title=" ">
<polygon fill="white" stroke="#bfbfbf" points="741.54,-56.5 741.54,-75.5 801.54,-75.5 801.54,-56.5 741.54,-56.5"/>
<text text-anchor="middle" x="771.54" y="-63.5" font-family="Helvetica,sans-Serif" font-size="10.00">iostream</text>
</a>
</g>
</g>
<!-- Node12&#45;&gt;Node14 -->
<g id="edge19" class="edge">
<title>Node12&#45;&gt;Node14</title>
<path fill="none" stroke="midnightblue" d="M714.32,-112.4C725.89,-103.22 740.97,-91.26 752.74,-81.92"/>
<polygon fill="midnightblue" stroke="midnightblue" points="754.97,-84.61 760.63,-75.66 750.62,-79.13 754.97,-84.61"/>
</g>
<!-- Node15 -->
<g id="node15" class="node">
<title>Node15</title>
<g id="a_node15"><a xlink:title=" ">
<polygon fill="white" stroke="#bfbfbf" points="820.04,-56.5 820.04,-75.5 871.04,-75.5 871.04,-56.5 820.04,-56.5"/>
<text text-anchor="middle" x="845.54" y="-63.5" font-family="Helvetica,sans-Serif" font-size="10.00">math.h</text>
</a>
</g>
</g>
<!-- Node12&#45;&gt;Node15 -->
<g id="edge20" class="edge">
<title>Node12&#45;&gt;Node15</title>
<path fill="none" stroke="midnightblue" d="M731.85,-112.4C756.97,-102.37 790.38,-89.03 814.48,-79.4"/>
<polygon fill="midnightblue" stroke="midnightblue" points="815.87,-82.62 823.86,-75.66 813.28,-76.12 815.87,-82.62"/>
</g>
<!-- Node16 -->
<g id="node16" class="node">
<title>Node16</title>
<g id="a_node16"><a xlink:title=" ">
<polygon fill="white" stroke="#bfbfbf" points="370.54,-56.5 370.54,-75.5 480.54,-75.5 480.54,-56.5 370.54,-56.5"/>
<text text-anchor="middle" x="425.54" y="-63.5" font-family="Helvetica,sans-Serif" font-size="10.00">nlohmann/json.hpp</text>
</a>
</g>
</g>
<!-- Node12&#45;&gt;Node16 -->
<g id="edge22" class="edge">
<title>Node12&#45;&gt;Node16</title>
<path fill="none" stroke="midnightblue" d="M634.03,-112.77C585.45,-102.11 519.03,-87.52 474.32,-77.71"/>
<polygon fill="midnightblue" stroke="midnightblue" points="474.81,-74.23 464.29,-75.51 473.31,-81.07 474.81,-74.23"/>
</g>
<!-- Node17 -->
<g id="node17" class="node">
<title>Node17</title>
<g id="a_node17"><a xlink:href="user__defined__trajectory_8hpp.html" target="_top" xlink:title="Class that contains the common members that each type of user&#45;defined trajectory class will inherit.">
<polygon fill="white" stroke="black" points="499.04,-56.5 499.04,-75.5 650.04,-75.5 650.04,-56.5 499.04,-56.5"/>
<text text-anchor="middle" x="574.54" y="-63.5" font-family="Helvetica,sans-Serif" font-size="10.00">user_defined_trajectory.hpp</text>
</a>
</g>
</g>
<!-- Node12&#45;&gt;Node17 -->
<g id="edge23" class="edge">
<title>Node12&#45;&gt;Node17</title>
<path fill="none" stroke="midnightblue" d="M667.63,-112.4C647.53,-102.59 620.92,-89.62 601.31,-80.05"/>
<polygon fill="midnightblue" stroke="midnightblue" points="602.82,-76.9 592.3,-75.66 599.75,-83.19 602.82,-76.9"/>
</g>
<!-- Node17&#45;&gt;Node2 -->
<g id="edge24" class="edge">
<title>Node17&#45;&gt;Node2</title>
<path fill="none" stroke="midnightblue" d="M499,-57C495.8,-56.66 492.64,-56.33 489.54,-56 342.55,-40.51 167.22,-22.16 94.61,-14.56"/>
<polygon fill="midnightblue" stroke="midnightblue" points="94.57,-11.04 84.26,-13.48 93.84,-18 94.57,-11.04"/>
</g>
<!-- Node17&#45;&gt;Node5 -->
<g id="edge25" class="edge">
<title>Node17&#45;&gt;Node5</title>
<path fill="none" stroke="midnightblue" d="M629.05,-56.44C695.27,-46.05 806,-28.67 869.6,-18.68"/>
<polygon fill="midnightblue" stroke="midnightblue" points="870.43,-22.09 879.77,-17.09 869.35,-15.18 870.43,-22.09"/>
</g>
<!-- Node18&#45;&gt;Node2 -->
<g id="edge27" class="edge">
<title>Node18&#45;&gt;Node2</title>
<path fill="none" stroke="midnightblue" d="M132.16,-184.91C124.07,-169.48 105.79,-136.41 85.54,-112 70.49,-93.84 56,-97.61 46.54,-76 39.9,-60.83 45.1,-42.26 50.95,-28.85"/>
<polygon fill="midnightblue" stroke="midnightblue" points="54.15,-30.28 55.37,-19.75 47.85,-27.22 54.15,-30.28"/>
</g>
<!-- Node18&#45;&gt;Node3 -->
<g id="edge28" class="edge">
<title>Node18&#45;&gt;Node3</title>
<path fill="none" stroke="midnightblue" d="M124.14,-184.73C108.96,-174.01 83.06,-155.72 64.94,-142.91"/>
<polygon fill="midnightblue" stroke="midnightblue" points="66.94,-140.04 56.75,-137.13 62.9,-145.76 66.94,-140.04"/>
</g>
<!-- Node18&#45;&gt;Node5 -->
<g id="edge29" class="edge">
<title>Node18&#45;&gt;Node5</title>
<path fill="none" stroke="midnightblue" d="M139.63,-184.68C149.04,-159.31 180.03,-86 233.54,-56 288.62,-25.12 721.9,-14.53 869.5,-11.8"/>
<polygon fill="midnightblue" stroke="midnightblue" points="869.68,-15.29 879.62,-11.61 869.56,-8.3 869.68,-15.29"/>
</g>
<!-- Node19&#45;&gt;Node5 -->
<g id="edge31" class="edge">
<title>Node19&#45;&gt;Node5</title>
<path fill="none" stroke="midnightblue" d="M918.13,-179.29C930.64,-170.59 944.63,-158.19 951.54,-143 967.56,-107.81 963.57,-92.75 951.54,-56 948.05,-45.34 940.97,-35.12 934.26,-27.12"/>
<polygon fill="midnightblue" stroke="midnightblue" points="936.85,-24.76 927.56,-19.66 931.64,-29.44 936.85,-24.76"/>
</g>
<!-- Node20 -->
<g id="node20" class="node">
<title>Node20</title>
<g id="a_node20"><a xlink:title=" ">
<polygon fill="white" stroke="#bfbfbf" points="1004.04,-118 1004.04,-137 1065.04,-137 1065.04,-118 1004.04,-118"/>
<text text-anchor="middle" x="1034.54" y="-125" font-family="Helvetica,sans-Serif" font-size="10.00">Eigen/QR</text>
</a>
</g>
</g>
<!-- Node19&#45;&gt;Node20 -->
<g id="edge32" class="edge">
<title>Node19&#45;&gt;Node20</title>
<path fill="none" stroke="midnightblue" d="M924.14,-179.4C948.77,-168.04 983.09,-152.22 1006.9,-141.24"/>
<polygon fill="midnightblue" stroke="midnightblue" points="1008.47,-144.37 1016.09,-137.01 1005.54,-138.02 1008.47,-144.37"/>
</g>
<!-- Node21&#45;&gt;Node5 -->
<g id="edge34" class="edge">
<title>Node21&#45;&gt;Node5</title>
<path fill="none" stroke="midnightblue" d="M1046.75,-184.72C1061.49,-169.54 1087.4,-137.57 1073.54,-112 1048.61,-65.99 992.62,-37.63 955.21,-23.1"/>
<polygon fill="midnightblue" stroke="midnightblue" points="956.26,-19.75 945.67,-19.53 953.81,-26.31 956.26,-19.75"/>
</g>
</g>
</svg>
