<?xml version="1.0" encoding="UTF-8" standalone="no"?>
<!DOCTYPE svg PUBLIC "-//W3C//DTD SVG 1.1//EN"
 "http://www.w3.org/Graphics/SVG/1.1/DTD/svg11.dtd">
<!-- Generated by graphviz version 2.43.0 (0)
 -->
<!-- Title: /mnt/c/Users/siddh/OneDrive/Desktop/ACSL&#45;flightstack/include/flightstack/control/mrac/mrac_gains.hpp Pages: 1 -->
<svg width="233pt" height="117pt"
 viewBox="0.00 0.00 233.00 117.00" xmlns="http://www.w3.org/2000/svg" xmlns:xlink="http://www.w3.org/1999/xlink">
<g id="graph0" class="graph" transform="scale(1 1) rotate(0) translate(4 113)">
<title>/mnt/c/Users/siddh/OneDrive/Desktop/ACSL&#45;flightstack/include/flightstack/control/mrac/mrac_gains.hpp</title>
<polygon fill="white" stroke="transparent" points="-4,4 -4,-113 229,-113 229,4 -4,4"/>
<!-- Node1 -->
<g id="node1" class="node">
<title>Node1</title>
<g id="a_node1"><a xlink:title="Tuning gains of the MRAC controller.">
<polygon fill="#bfbfbf" stroke="black" points="15.5,-56.5 15.5,-108.5 179.5,-108.5 179.5,-56.5 15.5,-56.5"/>
<text text-anchor="start" x="23.5" y="-96.5" font-family="Helvetica,sans-Serif" font-size="10.00">/mnt/c/Users/siddh</text>
<text text-anchor="start" x="23.5" y="-85.5" font-family="Helvetica,sans-Serif" font-size="10.00">/OneDrive/Desktop/ACSL</text>
<text text-anchor="start" x="23.5" y="-74.5" font-family="Helvetica,sans-Serif" font-size="10.00">&#45;flightstack/include/flightstack</text>
<text text-anchor="middle" x="97.5" y="-63.5" font-family="Helvetica,sans-Serif" font-size="10.00">/control/mrac/mrac_gains.hpp</text>
</a>
</g>
</g>
<!-- Node2 -->
<g id="node2" class="node">
<title>Node2</title>
<g id="a_node2"><a xlink:title=" ">
<polygon fill="white" stroke="#bfbfbf" points="0,-0.5 0,-19.5 47,-19.5 47,-0.5 0,-0.5"/>
<text text-anchor="middle" x="23.5" y="-7.5" font-family="Helvetica,sans-Serif" font-size="10.00">cmath</text>
</a>
</g>
</g>
<!-- Node1&#45;&gt;Node2 -->
<g id="edge1" class="edge">
<title>Node1&#45;&gt;Node2</title>
<path fill="none" stroke="midnightblue" d="M71.2,-56.45C60.79,-46.53 49.14,-35.43 39.97,-26.69"/>
<polygon fill="midnightblue" stroke="midnightblue" points="42.28,-24.06 32.63,-19.7 37.45,-29.13 42.28,-24.06"/>
</g>
<!-- Node3 -->
<g id="node3" class="node">
<title>Node3</title>
<g id="a_node3"><a xlink:title=" ">
<polygon fill="white" stroke="#bfbfbf" points="65.5,-0.5 65.5,-19.5 129.5,-19.5 129.5,-0.5 65.5,-0.5"/>
<text text-anchor="middle" x="97.5" y="-7.5" font-family="Helvetica,sans-Serif" font-size="10.00">algorithm</text>
</a>
</g>
</g>
<!-- Node1&#45;&gt;Node3 -->
<g id="edge2" class="edge">
<title>Node1&#45;&gt;Node3</title>
<path fill="none" stroke="midnightblue" d="M97.5,-56.45C97.5,-47.73 97.5,-38.1 97.5,-29.96"/>
<polygon fill="midnightblue" stroke="midnightblue" points="101,-29.7 97.5,-19.7 94,-29.7 101,-29.7"/>
</g>
<!-- Node4 -->
<g id="node4" class="node">
<title>Node4</title>
<g id="a_node4"><a xlink:title=" ">
<polygon fill="white" stroke="#bfbfbf" points="148,-0.5 148,-19.5 225,-19.5 225,-0.5 148,-0.5"/>
<text text-anchor="middle" x="186.5" y="-7.5" font-family="Helvetica,sans-Serif" font-size="10.00">Eigen/Dense</text>
</a>
</g>
</g>
<!-- Node1&#45;&gt;Node4 -->
<g id="edge3" class="edge">
<title>Node1&#45;&gt;Node4</title>
<path fill="none" stroke="midnightblue" d="M129.13,-56.45C141.9,-46.33 156.22,-34.98 167.36,-26.16"/>
<polygon fill="midnightblue" stroke="midnightblue" points="169.86,-28.65 175.52,-19.7 165.51,-23.16 169.86,-28.65"/>
</g>
</g>
</svg>
