<?xml version="1.0" encoding="UTF-8" standalone="no"?>
<!DOCTYPE svg PUBLIC "-//W3C//DTD SVG 1.1//EN"
 "http://www.w3.org/Graphics/SVG/1.1/DTD/svg11.dtd">
<!-- Generated by graphviz version 2.43.0 (0)
 -->
<!-- Title: ACSL&#45;flightstack/include/flightstack/control/mrac/mrac.hpp Pages: 1 -->
<svg width="1141pt" height="296pt"
 viewBox="0.00 0.00 1141.01 296.00" xmlns="http://www.w3.org/2000/svg" xmlns:xlink="http://www.w3.org/1999/xlink">
<g id="graph0" class="graph" transform="scale(1 1) rotate(0) translate(4 292)">
<title>ACSL&#45;flightstack/include/flightstack/control/mrac/mrac.hpp</title>
<polygon fill="white" stroke="transparent" points="-4,4 -4,-292 1137.01,-292 1137.01,4 -4,4"/>
<!-- Node1 -->
<g id="node1" class="node">
<title>Node1</title>
<g id="a_node1"><a xlink:title="Implementation of MRAC controller.">
<polygon fill="#bfbfbf" stroke="black" points="238.55,-246.5 238.55,-287.5 373.55,-287.5 373.55,-246.5 238.55,-246.5"/>
<text text-anchor="start" x="246.55" y="-275.5" font-family="Helvetica,sans-Serif" font-size="10.00">ACSL&#45;flightstack/include</text>
<text text-anchor="start" x="246.55" y="-264.5" font-family="Helvetica,sans-Serif" font-size="10.00">/flightstack/control/mrac</text>
<text text-anchor="middle" x="306.05" y="-253.5" font-family="Helvetica,sans-Serif" font-size="10.00">/mrac.hpp</text>
</a>
</g>
</g>
<!-- Node2 -->
<g id="node2" class="node">
<title>Node2</title>
<g id="a_node2"><a xlink:title=" ">
<polygon fill="white" stroke="#bfbfbf" points="37.55,-0.5 37.55,-19.5 84.55,-19.5 84.55,-0.5 37.55,-0.5"/>
<text text-anchor="middle" x="61.05" y="-7.5" font-family="Helvetica,sans-Serif" font-size="10.00">cmath</text>
</a>
</g>
</g>
<!-- Node1&#45;&gt;Node2 -->
<g id="edge1" class="edge">
<title>Node1&#45;&gt;Node2</title>
<path fill="none" stroke="midnightblue" d="M238.43,-263.22C185.24,-258.26 111.16,-244.98 56.05,-210 14.42,-183.58 -8.48,-159.69 4.05,-112 12.53,-79.7 33.95,-46.86 47.98,-27.73"/>
<polygon fill="midnightblue" stroke="midnightblue" points="50.96,-29.6 54.19,-19.51 45.37,-25.39 50.96,-29.6"/>
</g>
<!-- Node3 -->
<g id="node3" class="node">
<title>Node3</title>
<g id="a_node3"><a xlink:title=" ">
<polygon fill="white" stroke="#bfbfbf" points="13.05,-118 13.05,-137 77.05,-137 77.05,-118 13.05,-118"/>
<text text-anchor="middle" x="45.05" y="-125" font-family="Helvetica,sans-Serif" font-size="10.00">algorithm</text>
</a>
</g>
</g>
<!-- Node1&#45;&gt;Node3 -->
<g id="edge2" class="edge">
<title>Node1&#45;&gt;Node3</title>
<path fill="none" stroke="midnightblue" d="M238.47,-264.51C189.69,-260.1 124.95,-246.93 81.05,-210 61.94,-193.93 52.62,-165.72 48.34,-147.07"/>
<polygon fill="midnightblue" stroke="midnightblue" points="51.74,-146.23 46.32,-137.13 44.88,-147.62 51.74,-146.23"/>
</g>
<!-- Node4 -->
<g id="node4" class="node">
<title>Node4</title>
<g id="a_node4"><a xlink:title=" ">
<polygon fill="white" stroke="#bfbfbf" points="243.05,-56.5 243.05,-75.5 287.05,-75.5 287.05,-56.5 243.05,-56.5"/>
<text text-anchor="middle" x="265.05" y="-63.5" font-family="Helvetica,sans-Serif" font-size="10.00">string</text>
</a>
</g>
</g>
<!-- Node1&#45;&gt;Node4 -->
<g id="edge3" class="edge">
<title>Node1&#45;&gt;Node4</title>
<path fill="none" stroke="midnightblue" d="M301.97,-246.19C294.04,-207.7 276.65,-123.3 268.9,-85.71"/>
<polygon fill="midnightblue" stroke="midnightblue" points="272.28,-84.73 266.83,-75.65 265.42,-86.15 272.28,-84.73"/>
</g>
<!-- Node5 -->
<g id="node5" class="node">
<title>Node5</title>
<g id="a_node5"><a xlink:title=" ">
<polygon fill="white" stroke="#bfbfbf" points="880.55,-0.5 880.55,-19.5 957.55,-19.5 957.55,-0.5 880.55,-0.5"/>
<text text-anchor="middle" x="919.05" y="-7.5" font-family="Helvetica,sans-Serif" font-size="10.00">Eigen/Dense</text>
</a>
</g>
</g>
<!-- Node1&#45;&gt;Node5 -->
<g id="edge4" class="edge">
<title>Node1&#45;&gt;Node5</title>
<path fill="none" stroke="midnightblue" d="M373.6,-266.46C558.6,-267.01 1063.08,-263.56 1113.05,-210 1163.97,-155.42 1106.68,-99.53 1046.05,-56 1022.73,-39.26 992.59,-28.23 967.52,-21.28"/>
<polygon fill="midnightblue" stroke="midnightblue" points="968.4,-17.89 957.83,-18.72 966.61,-24.66 968.4,-17.89"/>
</g>
<!-- Node6 -->
<g id="node6" class="node">
<title>Node6</title>
<g id="a_node6"><a xlink:href="control_8hpp.html" target="_top" xlink:title="General class that contains common members used by most of the control algorithms.">
<polygon fill="white" stroke="black" points="320.55,-185 320.55,-204 391.55,-204 391.55,-185 320.55,-185"/>
<text text-anchor="middle" x="356.05" y="-192" font-family="Helvetica,sans-Serif" font-size="10.00">control.hpp</text>
</a>
</g>
</g>
<!-- Node1&#45;&gt;Node6 -->
<g id="edge5" class="edge">
<title>Node1&#45;&gt;Node6</title>
<path fill="none" stroke="midnightblue" d="M319.98,-246.36C327.5,-235.76 336.7,-222.79 343.92,-212.6"/>
<polygon fill="midnightblue" stroke="midnightblue" points="346.97,-214.35 349.9,-204.17 341.26,-210.31 346.97,-214.35"/>
</g>
<!-- Node18 -->
<g id="node18" class="node">
<title>Node18</title>
<g id="a_node18"><a xlink:href="mrac__gains_8hpp.html" target="_top" xlink:title="Tuning gains of the MRAC controller.">
<polygon fill="white" stroke="black" points="90.05,-185 90.05,-204 184.05,-204 184.05,-185 90.05,-185"/>
<text text-anchor="middle" x="137.05" y="-192" font-family="Helvetica,sans-Serif" font-size="10.00">mrac_gains.hpp</text>
</a>
</g>
</g>
<!-- Node1&#45;&gt;Node18 -->
<g id="edge26" class="edge">
<title>Node1&#45;&gt;Node18</title>
<path fill="none" stroke="midnightblue" d="M258.97,-246.36C229.66,-234.13 192.81,-218.76 167.34,-208.14"/>
<polygon fill="midnightblue" stroke="midnightblue" points="168.42,-204.79 157.84,-204.17 165.72,-211.25 168.42,-204.79"/>
</g>
<!-- Node19 -->
<g id="node19" class="node">
<title>Node19</title>
<g id="a_node19"><a xlink:href="continuous__lyapunov__equation_8hpp.html" target="_top" xlink:title=" ">
<polygon fill="white" stroke="black" points="834.05,-179.5 834.05,-209.5 954.05,-209.5 954.05,-179.5 834.05,-179.5"/>
<text text-anchor="start" x="842.05" y="-197.5" font-family="Helvetica,sans-Serif" font-size="10.00">continuous_lyapunov</text>
<text text-anchor="middle" x="894.05" y="-186.5" font-family="Helvetica,sans-Serif" font-size="10.00">_equation.hpp</text>
</a>
</g>
</g>
<!-- Node1&#45;&gt;Node19 -->
<g id="edge30" class="edge">
<title>Node1&#45;&gt;Node19</title>
<path fill="none" stroke="midnightblue" d="M373.79,-257.88C486.06,-244.42 709.6,-217.62 823.62,-203.94"/>
<polygon fill="midnightblue" stroke="midnightblue" points="824.13,-207.41 833.64,-202.74 823.29,-200.46 824.13,-207.41"/>
</g>
<!-- Node21 -->
<g id="node21" class="node">
<title>Node21</title>
<g id="a_node21"><a xlink:href="projection__operator_8hpp.html" target="_top" xlink:title="Implementation of the projection operator to be used in the MRAC controllers.">
<polygon fill="white" stroke="black" points="972.05,-185 972.05,-204 1104.05,-204 1104.05,-185 972.05,-185"/>
<text text-anchor="middle" x="1038.05" y="-192" font-family="Helvetica,sans-Serif" font-size="10.00">projection_operator.hpp</text>
</a>
</g>
</g>
<!-- Node1&#45;&gt;Node21 -->
<g id="edge33" class="edge">
<title>Node1&#45;&gt;Node21</title>
<path fill="none" stroke="midnightblue" d="M373.94,-262.59C493.45,-256.06 749.03,-239.72 963.05,-210 971.17,-208.87 979.75,-207.44 988.09,-205.92"/>
<polygon fill="midnightblue" stroke="midnightblue" points="988.91,-209.33 998.09,-204.04 987.61,-202.45 988.91,-209.33"/>
</g>
<!-- Node6&#45;&gt;Node2 -->
<g id="edge6" class="edge">
<title>Node6&#45;&gt;Node2</title>
<path fill="none" stroke="midnightblue" d="M320.41,-188.7C261.2,-178.79 142.91,-150.38 80.05,-76 69.03,-62.96 64.4,-43.81 62.45,-29.66"/>
<polygon fill="midnightblue" stroke="midnightblue" points="65.92,-29.19 61.4,-19.61 58.96,-29.92 65.92,-29.19"/>
</g>
<!-- Node6&#45;&gt;Node5 -->
<g id="edge10" class="edge">
<title>Node6&#45;&gt;Node5</title>
<path fill="none" stroke="midnightblue" d="M391.59,-193.15C463.99,-191.58 633.1,-183.46 768.05,-143 832.21,-123.76 861.15,-128.26 903.05,-76 913.6,-62.83 917.33,-43.7 918.58,-29.59"/>
<polygon fill="midnightblue" stroke="midnightblue" points="922.08,-29.75 919.14,-19.57 915.09,-29.36 922.08,-29.75"/>
</g>
<!-- Node7 -->
<g id="node7" class="node">
<title>Node7</title>
<g id="a_node7"><a xlink:title=" ">
<polygon fill="white" stroke="#bfbfbf" points="305.55,-56.5 305.55,-75.5 352.55,-75.5 352.55,-56.5 305.55,-56.5"/>
<text text-anchor="middle" x="329.05" y="-63.5" font-family="Helvetica,sans-Serif" font-size="10.00">vector</text>
</a>
</g>
</g>
<!-- Node6&#45;&gt;Node7 -->
<g id="edge7" class="edge">
<title>Node6&#45;&gt;Node7</title>
<path fill="none" stroke="midnightblue" d="M345.38,-184.76C335.11,-175.6 320.25,-160.16 314.05,-143 307.14,-123.89 313.62,-100.85 320.08,-85.19"/>
<polygon fill="midnightblue" stroke="midnightblue" points="323.46,-86.22 324.39,-75.66 317.08,-83.33 323.46,-86.22"/>
</g>
<!-- Node8 -->
<g id="node8" class="node">
<title>Node8</title>
<g id="a_node8"><a xlink:title=" ">
<polygon fill="white" stroke="#bfbfbf" points="323.55,-118 323.55,-137 388.55,-137 388.55,-118 323.55,-118"/>
<text text-anchor="middle" x="356.05" y="-125" font-family="Helvetica,sans-Serif" font-size="10.00">functional</text>
</a>
</g>
</g>
<!-- Node6&#45;&gt;Node8 -->
<g id="edge8" class="edge">
<title>Node6&#45;&gt;Node8</title>
<path fill="none" stroke="midnightblue" d="M356.05,-184.73C356.05,-175.18 356.05,-159.62 356.05,-147.28"/>
<polygon fill="midnightblue" stroke="midnightblue" points="359.55,-147.13 356.05,-137.13 352.55,-147.13 359.55,-147.13"/>
</g>
<!-- Node9 -->
<g id="node9" class="node">
<title>Node9</title>
<g id="a_node9"><a xlink:title=" ">
<polygon fill="white" stroke="#bfbfbf" points="407.05,-118 407.05,-137 457.05,-137 457.05,-118 407.05,-118"/>
<text text-anchor="middle" x="432.05" y="-125" font-family="Helvetica,sans-Serif" font-size="10.00">chrono</text>
</a>
</g>
</g>
<!-- Node6&#45;&gt;Node9 -->
<g id="edge9" class="edge">
<title>Node6&#45;&gt;Node9</title>
<path fill="none" stroke="midnightblue" d="M366.3,-184.73C378.49,-174.31 399.07,-156.71 413.96,-143.97"/>
<polygon fill="midnightblue" stroke="midnightblue" points="416.64,-146.29 421.96,-137.13 412.09,-140.97 416.64,-146.29"/>
</g>
<!-- Node10 -->
<g id="node10" class="node">
<title>Node10</title>
<g id="a_node10"><a xlink:title=" ">
<polygon fill="white" stroke="#bfbfbf" points="475.55,-118 475.55,-137 616.55,-137 616.55,-118 475.55,-118"/>
<text text-anchor="middle" x="546.05" y="-125" font-family="Helvetica,sans-Serif" font-size="10.00">boost/numeric/odeint.hpp</text>
</a>
</g>
</g>
<!-- Node6&#45;&gt;Node10 -->
<g id="edge11" class="edge">
<title>Node6&#45;&gt;Node10</title>
<path fill="none" stroke="midnightblue" d="M381.28,-184.87C414.73,-173.42 473.91,-153.18 511.49,-140.32"/>
<polygon fill="midnightblue" stroke="midnightblue" points="512.69,-143.61 521.02,-137.06 510.42,-136.99 512.69,-143.61"/>
</g>
<!-- Node11 -->
<g id="node11" class="node">
<title>Node11</title>
<g id="a_node11"><a xlink:href="vehicle__info_8hpp.html" target="_top" xlink:title="Vehicle properties such as mass, intertia matrix, motor thrust curves, etc.">
<polygon fill="white" stroke="black" points="89.55,-56.5 89.55,-75.5 186.55,-75.5 186.55,-56.5 89.55,-56.5"/>
<text text-anchor="middle" x="138.05" y="-63.5" font-family="Helvetica,sans-Serif" font-size="10.00">vehicle_info.hpp</text>
</a>
</g>
</g>
<!-- Node6&#45;&gt;Node11 -->
<g id="edge12" class="edge">
<title>Node6&#45;&gt;Node11</title>
<path fill="none" stroke="midnightblue" d="M341.07,-184.81C303.8,-163.18 206.68,-106.82 161.63,-80.68"/>
<polygon fill="midnightblue" stroke="midnightblue" points="163.26,-77.58 152.85,-75.59 159.74,-83.63 163.26,-77.58"/>
</g>
<!-- Node12 -->
<g id="node12" class="node">
<title>Node12</title>
<g id="a_node12"><a xlink:href="piecewise__polynomial__trajectory_8hpp.html" target="_top" xlink:title="Piecewise polynomial minimu&#45;jerk trajectory computed offline through a MATLAB script.">
<polygon fill="white" stroke="black" points="634.55,-112.5 634.55,-142.5 759.55,-142.5 759.55,-112.5 634.55,-112.5"/>
<text text-anchor="start" x="642.55" y="-130.5" font-family="Helvetica,sans-Serif" font-size="10.00">piecewise_polynomial</text>
<text text-anchor="middle" x="697.05" y="-119.5" font-family="Helvetica,sans-Serif" font-size="10.00">_trajectory.hpp</text>
</a>
</g>
</g>
<!-- Node6&#45;&gt;Node12 -->
<g id="edge15" class="edge">
<title>Node6&#45;&gt;Node12</title>
<path fill="none" stroke="midnightblue" d="M391.76,-186.95C441.45,-177.8 534.52,-160.55 624.17,-143.16"/>
<polygon fill="midnightblue" stroke="midnightblue" points="625.08,-146.55 634.23,-141.2 623.75,-139.67 625.08,-146.55"/>
</g>
<!-- Node11&#45;&gt;Node2 -->
<g id="edge13" class="edge">
<title>Node11&#45;&gt;Node2</title>
<path fill="none" stroke="midnightblue" d="M125.68,-56.32C113.89,-48.06 95.92,-35.45 81.91,-25.63"/>
<polygon fill="midnightblue" stroke="midnightblue" points="83.59,-22.53 73.39,-19.65 79.57,-28.26 83.59,-22.53"/>
</g>
<!-- Node11&#45;&gt;Node5 -->
<g id="edge14" class="edge">
<title>Node11&#45;&gt;Node5</title>
<path fill="none" stroke="midnightblue" d="M186.84,-57.64C191.64,-57.03 196.43,-56.47 201.05,-56 451.96,-30.26 753.81,-17.13 870.09,-12.73"/>
<polygon fill="midnightblue" stroke="midnightblue" points="870.57,-16.21 880.43,-12.34 870.31,-9.22 870.57,-16.21"/>
</g>
<!-- Node12&#45;&gt;Node4 -->
<g id="edge17" class="edge">
<title>Node12&#45;&gt;Node4</title>
<path fill="none" stroke="midnightblue" d="M634.28,-113.51C631.16,-112.98 628.07,-112.47 625.05,-112 482.96,-89.96 442.16,-103.95 297.43,-75.95"/>
<polygon fill="midnightblue" stroke="midnightblue" points="297.77,-72.45 287.29,-73.96 296.42,-79.32 297.77,-72.45"/>
</g>
<!-- Node12&#45;&gt;Node5 -->
<g id="edge21" class="edge">
<title>Node12&#45;&gt;Node5</title>
<path fill="none" stroke="midnightblue" d="M759.88,-120.96C797.84,-114.93 845.41,-102.32 880.05,-76 895.73,-64.08 906.41,-43.88 912.57,-29.16"/>
<polygon fill="midnightblue" stroke="midnightblue" points="915.92,-30.19 916.27,-19.6 909.4,-27.66 915.92,-30.19"/>
</g>
<!-- Node12&#45;&gt;Node7 -->
<g id="edge16" class="edge">
<title>Node12&#45;&gt;Node7</title>
<path fill="none" stroke="midnightblue" d="M634.26,-113.61C631.15,-113.05 628.07,-112.51 625.05,-112 511.9,-92.88 479.41,-99.2 362.79,-75.9"/>
<polygon fill="midnightblue" stroke="midnightblue" points="363.25,-72.42 352.75,-73.86 361.86,-79.28 363.25,-72.42"/>
</g>
<!-- Node13 -->
<g id="node13" class="node">
<title>Node13</title>
<g id="a_node13"><a xlink:title=" ">
<polygon fill="white" stroke="#bfbfbf" points="668.55,-56.5 668.55,-75.5 723.55,-75.5 723.55,-56.5 668.55,-56.5"/>
<text text-anchor="middle" x="696.05" y="-63.5" font-family="Helvetica,sans-Serif" font-size="10.00">fstream</text>
</a>
</g>
</g>
<!-- Node12&#45;&gt;Node13 -->
<g id="edge18" class="edge">
<title>Node12&#45;&gt;Node13</title>
<path fill="none" stroke="midnightblue" d="M696.81,-112.4C696.68,-104.47 696.51,-94.46 696.37,-85.86"/>
<polygon fill="midnightblue" stroke="midnightblue" points="699.86,-85.6 696.2,-75.66 692.86,-85.72 699.86,-85.6"/>
</g>
<!-- Node14 -->
<g id="node14" class="node">
<title>Node14</title>
<g id="a_node14"><a xlink:title=" ">
<polygon fill="white" stroke="#bfbfbf" points="742.05,-56.5 742.05,-75.5 802.05,-75.5 802.05,-56.5 742.05,-56.5"/>
<text text-anchor="middle" x="772.05" y="-63.5" font-family="Helvetica,sans-Serif" font-size="10.00">iostream</text>
</a>
</g>
</g>
<!-- Node12&#45;&gt;Node14 -->
<g id="edge19" class="edge">
<title>Node12&#45;&gt;Node14</title>
<path fill="none" stroke="midnightblue" d="M714.82,-112.4C726.4,-103.22 741.47,-91.26 753.25,-81.92"/>
<polygon fill="midnightblue" stroke="midnightblue" points="755.48,-84.61 761.14,-75.66 751.13,-79.13 755.48,-84.61"/>
</g>
<!-- Node15 -->
<g id="node15" class="node">
<title>Node15</title>
<g id="a_node15"><a xlink:title=" ">
<polygon fill="white" stroke="#bfbfbf" points="820.55,-56.5 820.55,-75.5 871.55,-75.5 871.55,-56.5 820.55,-56.5"/>
<text text-anchor="middle" x="846.05" y="-63.5" font-family="Helvetica,sans-Serif" font-size="10.00">math.h</text>
</a>
</g>
</g>
<!-- Node12&#45;&gt;Node15 -->
<g id="edge20" class="edge">
<title>Node12&#45;&gt;Node15</title>
<path fill="none" stroke="midnightblue" d="M732.36,-112.4C757.47,-102.37 790.89,-89.03 814.99,-79.4"/>
<polygon fill="midnightblue" stroke="midnightblue" points="816.38,-82.62 824.37,-75.66 813.78,-76.12 816.38,-82.62"/>
</g>
<!-- Node16 -->
<g id="node16" class="node">
<title>Node16</title>
<g id="a_node16"><a xlink:title=" ">
<polygon fill="white" stroke="#bfbfbf" points="371.05,-56.5 371.05,-75.5 481.05,-75.5 481.05,-56.5 371.05,-56.5"/>
<text text-anchor="middle" x="426.05" y="-63.5" font-family="Helvetica,sans-Serif" font-size="10.00">nlohmann/json.hpp</text>
</a>
</g>
</g>
<!-- Node12&#45;&gt;Node16 -->
<g id="edge22" class="edge">
<title>Node12&#45;&gt;Node16</title>
<path fill="none" stroke="midnightblue" d="M634.54,-112.77C585.96,-102.11 519.53,-87.52 474.83,-77.71"/>
<polygon fill="midnightblue" stroke="midnightblue" points="475.32,-74.23 464.8,-75.51 473.81,-81.07 475.32,-74.23"/>
</g>
<!-- Node17 -->
<g id="node17" class="node">
<title>Node17</title>
<g id="a_node17"><a xlink:href="user__defined__trajectory_8hpp.html" target="_top" xlink:title="Class that contains the common members that each type of user&#45;defined trajectory class will inherit.">
<polygon fill="white" stroke="black" points="499.55,-56.5 499.55,-75.5 650.55,-75.5 650.55,-56.5 499.55,-56.5"/>
<text text-anchor="middle" x="575.05" y="-63.5" font-family="Helvetica,sans-Serif" font-size="10.00">user_defined_trajectory.hpp</text>
</a>
</g>
</g>
<!-- Node12&#45;&gt;Node17 -->
<g id="edge23" class="edge">
<title>Node12&#45;&gt;Node17</title>
<path fill="none" stroke="midnightblue" d="M668.14,-112.4C648.03,-102.59 621.43,-89.62 601.81,-80.05"/>
<polygon fill="midnightblue" stroke="midnightblue" points="603.32,-76.9 592.8,-75.66 600.26,-83.19 603.32,-76.9"/>
</g>
<!-- Node17&#45;&gt;Node2 -->
<g id="edge24" class="edge">
<title>Node17&#45;&gt;Node2</title>
<path fill="none" stroke="midnightblue" d="M499.51,-57C496.31,-56.66 493.15,-56.33 490.05,-56 343.06,-40.51 167.72,-22.16 95.12,-14.56"/>
<polygon fill="midnightblue" stroke="midnightblue" points="95.08,-11.04 84.77,-13.48 94.35,-18 95.08,-11.04"/>
</g>
<!-- Node17&#45;&gt;Node5 -->
<g id="edge25" class="edge">
<title>Node17&#45;&gt;Node5</title>
<path fill="none" stroke="midnightblue" d="M629.56,-56.44C695.78,-46.05 806.51,-28.67 870.11,-18.68"/>
<polygon fill="midnightblue" stroke="midnightblue" points="870.94,-22.09 880.28,-17.09 869.86,-15.18 870.94,-22.09"/>
</g>
<!-- Node18&#45;&gt;Node2 -->
<g id="edge27" class="edge">
<title>Node18&#45;&gt;Node2</title>
<path fill="none" stroke="midnightblue" d="M132.66,-184.91C124.58,-169.48 106.29,-136.41 86.05,-112 70.99,-93.84 56.51,-97.61 47.05,-76 40.41,-60.83 45.61,-42.26 51.46,-28.85"/>
<polygon fill="midnightblue" stroke="midnightblue" points="54.66,-30.28 55.88,-19.75 48.36,-27.22 54.66,-30.28"/>
</g>
<!-- Node18&#45;&gt;Node3 -->
<g id="edge28" class="edge">
<title>Node18&#45;&gt;Node3</title>
<path fill="none" stroke="midnightblue" d="M124.64,-184.73C109.47,-174.01 83.57,-155.72 65.45,-142.91"/>
<polygon fill="midnightblue" stroke="midnightblue" points="67.45,-140.04 57.26,-137.13 63.41,-145.76 67.45,-140.04"/>
</g>
<!-- Node18&#45;&gt;Node5 -->
<g id="edge29" class="edge">
<title>Node18&#45;&gt;Node5</title>
<path fill="none" stroke="midnightblue" d="M140.14,-184.68C149.55,-159.31 180.54,-86 234.05,-56 289.12,-25.12 722.4,-14.53 870,-11.8"/>
<polygon fill="midnightblue" stroke="midnightblue" points="870.19,-15.29 880.13,-11.61 870.06,-8.3 870.19,-15.29"/>
</g>
<!-- Node19&#45;&gt;Node5 -->
<g id="edge31" class="edge">
<title>Node19&#45;&gt;Node5</title>
<path fill="none" stroke="midnightblue" d="M918.64,-179.29C931.14,-170.59 945.14,-158.19 952.05,-143 968.07,-107.81 964.08,-92.75 952.05,-56 948.56,-45.34 941.48,-35.12 934.76,-27.12"/>
<polygon fill="midnightblue" stroke="midnightblue" points="937.35,-24.76 928.07,-19.66 932.15,-29.44 937.35,-24.76"/>
</g>
<!-- Node20 -->
<g id="node20" class="node">
<title>Node20</title>
<g id="a_node20"><a xlink:title=" ">
<polygon fill="white" stroke="#bfbfbf" points="1004.55,-118 1004.55,-137 1065.55,-137 1065.55,-118 1004.55,-118"/>
<text text-anchor="middle" x="1035.05" y="-125" font-family="Helvetica,sans-Serif" font-size="10.00">Eigen/QR</text>
</a>
</g>
</g>
<!-- Node19&#45;&gt;Node20 -->
<g id="edge32" class="edge">
<title>Node19&#45;&gt;Node20</title>
<path fill="none" stroke="midnightblue" d="M924.64,-179.4C949.28,-168.04 983.6,-152.22 1007.41,-141.24"/>
<polygon fill="midnightblue" stroke="midnightblue" points="1008.98,-144.37 1016.6,-137.01 1006.05,-138.02 1008.98,-144.37"/>
</g>
<!-- Node21&#45;&gt;Node5 -->
<g id="edge34" class="edge">
<title>Node21&#45;&gt;Node5</title>
<path fill="none" stroke="midnightblue" d="M1047.25,-184.72C1062,-169.54 1087.91,-137.57 1074.05,-112 1049.11,-65.99 993.13,-37.63 955.72,-23.1"/>
<polygon fill="midnightblue" stroke="midnightblue" points="956.76,-19.75 946.17,-19.53 954.31,-26.31 956.76,-19.75"/>
</g>
</g>
</svg>
