<?xml version="1.0" encoding="UTF-8" standalone="no"?>
<!DOCTYPE svg PUBLIC "-//W3C//DTD SVG 1.1//EN"
 "http://www.w3.org/Graphics/SVG/1.1/DTD/svg11.dtd">
<!-- Generated by graphviz version 2.43.0 (0)
 -->
<!-- Title: ACSL&#45;flightstack/include/flightstack/multi_threaded_node.hpp Pages: 1 -->
<!--zoomable 195 -->
<svg id="main" version="1.1" xmlns="http://www.w3.org/2000/svg" xmlns:xlink="http://www.w3.org/1999/xlink" xml:space="preserve" onload="init(evt)">
<style type="text/css"><![CDATA[
.edge:hover path { stroke: red; }
.edge:hover polygon { stroke: red; fill: red; }
]]></style>
<script type="text/javascript"><![CDATA[
var edges = document.getElementsByTagName('g');
if (edges && edges.length) {
  for (var i=0;i<edges.length;i++) {
    if (edges[i].id.substr(0,4)=='edge') {
      edges[i].setAttribute('class','edge');
    }
  }
}
]]></script>
        <defs>
                <circle id="rim" cx="0" cy="0" r="7"/>
                <circle id="rim2" cx="0" cy="0" r="3.5"/>
                <g id="zoomPlus">
                        <use xlink:href="#rim" fill="#404040">
                                <set attributeName="fill" to="#808080" begin="zoomplus.mouseover" end="zoomplus.mouseout"/>
                        </use>
                        <path d="M-4,0h8M0,-4v8" fill="none" stroke="white" stroke-width="1.5" pointer-events="none"/>
                </g>
                <g id="zoomMin">
                        <use xlink:href="#rim" fill="#404040">
                                <set attributeName="fill" to="#808080" begin="zoomminus.mouseover" end="zoomminus.mouseout"/>
                        </use>
                        <path d="M-4,0h8" fill="none" stroke="white" stroke-width="1.5" pointer-events="none"/>
                </g>
                <g id="dirArrow">
                        <path fill="none" stroke="white" stroke-width="1.5" d="M0,-3.0v7 M-2.5,-0.5L0,-3.0L2.5,-0.5"/>
                </g>
               <g id="resetDef">
                       <use xlink:href="#rim2" fill="#404040">
                               <set attributeName="fill" to="#808080" begin="reset.mouseover" end="reset.mouseout"/>
                       </use>
               </g>
        </defs>

<script type="text/javascript">
var viewWidth = 2188;
var viewHeight = 195;
var sectionId = 'dynsection-1';
</script>
<script xlink:href="svgpan.js"/>
<svg id="graph" class="graph">
<g id="viewport">
<title>ACSL&#45;flightstack/include/flightstack/multi_threaded_node.hpp</title>
<polygon fill="white" stroke="transparent" points="-4,4 -4,-191 2183.5,-191 2183.5,4 -4,4"/>
<!-- Node1 -->
<g id="node1" class="node">
<title>Node1</title>
<g id="a_node1"><a xlink:title="Multithreaded ROS2 node that joins together all the flight stack components.">
<polygon fill="#bfbfbf" stroke="black" points="922,-145.5 922,-186.5 1070,-186.5 1070,-145.5 922,-145.5"/>
<text text-anchor="start" x="930" y="-174.5" font-family="Helvetica,sans-Serif" font-size="10.00">ACSL&#45;flightstack/include</text>
<text text-anchor="start" x="930" y="-163.5" font-family="Helvetica,sans-Serif" font-size="10.00">/flightstack/multi_threaded</text>
<text text-anchor="middle" x="996" y="-152.5" font-family="Helvetica,sans-Serif" font-size="10.00">_node.hpp</text>
</a>
</g>
</g>
<!-- Node2 -->
<g id="node2" class="node">
<title>Node2</title>
<g id="a_node2"><a xlink:href="main_8hpp.html" target="_top" xlink:title="Main file.">
<polygon fill="white" stroke="black" points="0,-73 0,-103 134,-103 134,-73 0,-73"/>
<text text-anchor="start" x="8" y="-91" font-family="Helvetica,sans-Serif" font-size="10.00">ACSL&#45;flightstack/include</text>
<text text-anchor="middle" x="67" y="-80" font-family="Helvetica,sans-Serif" font-size="10.00">/flightstack/main.hpp</text>
</a>
</g>
</g>
<!-- Node1&#45;&gt;Node2 -->
<g id="edge1" class="edge">
<title>Node1&#45;&gt;Node2</title>
<path fill="none" stroke="midnightblue" d="M911.67,-164.7C758.01,-163 422.61,-153.93 144,-109 134.73,-107.5 124.95,-105.39 115.59,-103.1"/>
<polygon fill="midnightblue" stroke="midnightblue" points="911.93,-168.21 921.97,-164.81 912,-161.21 911.93,-168.21"/>
</g>
<!-- Node4 -->
<g id="node4" class="node">
<title>Node4</title>
<g id="a_node4"><a xlink:href="config_8cpp.html" target="_top" xlink:title="Contains the functions that reads the configuration parameters and assigns it to the members of the C...">
<polygon fill="white" stroke="black" points="152.5,-73 152.5,-103 265.5,-103 265.5,-73 152.5,-73"/>
<text text-anchor="start" x="160.5" y="-91" font-family="Helvetica,sans-Serif" font-size="10.00">ACSL&#45;flightstack/src</text>
<text text-anchor="middle" x="209" y="-80" font-family="Helvetica,sans-Serif" font-size="10.00">/config/config.cpp</text>
</a>
</g>
</g>
<!-- Node1&#45;&gt;Node4 -->
<g id="edge3" class="edge">
<title>Node1&#45;&gt;Node4</title>
<path fill="none" stroke="midnightblue" d="M911.57,-164.35C776.14,-161.98 502.43,-151.77 275,-109 267,-107.5 258.59,-105.38 250.56,-103.08"/>
<polygon fill="midnightblue" stroke="midnightblue" points="911.82,-167.85 921.87,-164.52 911.93,-160.85 911.82,-167.85"/>
</g>
<!-- Node5 -->
<g id="node5" class="node">
<title>Node5</title>
<g id="a_node5"><a xlink:href="control_8cpp.html" target="_top" xlink:title="This file contains the general class containing the common memvers used by most of the control algori...">
<polygon fill="white" stroke="black" points="283.5,-73 283.5,-103 396.5,-103 396.5,-73 283.5,-73"/>
<text text-anchor="start" x="291.5" y="-91" font-family="Helvetica,sans-Serif" font-size="10.00">ACSL&#45;flightstack/src</text>
<text text-anchor="middle" x="340" y="-80" font-family="Helvetica,sans-Serif" font-size="10.00">/control/control.cpp</text>
</a>
</g>
</g>
<!-- Node1&#45;&gt;Node5 -->
<g id="edge4" class="edge">
<title>Node1&#45;&gt;Node5</title>
<path fill="none" stroke="midnightblue" d="M911.57,-162.28C796.36,-157.36 583.86,-144.02 406,-109 398.13,-107.45 389.86,-105.34 381.93,-103.07"/>
<polygon fill="midnightblue" stroke="midnightblue" points="911.6,-165.78 921.73,-162.7 911.89,-158.79 911.6,-165.78"/>
</g>
<!-- Node6 -->
<g id="node6" class="node">
<title>Node6</title>
<g id="a_node6"><a xlink:href="control__callback_8cpp.html" target="_top" xlink:title="Callback that is executed at a fixed specified rate defined by the &quot;timer_controller_&quot;.">
<polygon fill="white" stroke="black" points="415,-73 415,-103 571,-103 571,-73 415,-73"/>
<text text-anchor="start" x="423" y="-91" font-family="Helvetica,sans-Serif" font-size="10.00">ACSL&#45;flightstack/src</text>
<text text-anchor="middle" x="493" y="-80" font-family="Helvetica,sans-Serif" font-size="10.00">/control/control_callback.cpp</text>
</a>
</g>
</g>
<!-- Node1&#45;&gt;Node6 -->
<g id="edge5" class="edge">
<title>Node1&#45;&gt;Node6</title>
<path fill="none" stroke="midnightblue" d="M911.62,-155.95C827.33,-146.37 694.2,-129.77 580,-109 570.55,-107.28 560.57,-105.22 550.88,-103.09"/>
<polygon fill="midnightblue" stroke="midnightblue" points="911.33,-159.44 921.66,-157.09 912.11,-152.48 911.33,-159.44"/>
</g>
<!-- Node7 -->
<g id="node7" class="node">
<title>Node7</title>
<g id="a_node7"><a xlink:href="logging__mrac_8cpp.html" target="_top" xlink:title="Logger for the MRAC controller.">
<polygon fill="white" stroke="black" points="589,-67.5 589,-108.5 709,-108.5 709,-67.5 589,-67.5"/>
<text text-anchor="start" x="597" y="-96.5" font-family="Helvetica,sans-Serif" font-size="10.00">ACSL&#45;flightstack/src</text>
<text text-anchor="start" x="597" y="-85.5" font-family="Helvetica,sans-Serif" font-size="10.00">/control/mrac/logging</text>
<text text-anchor="middle" x="649" y="-74.5" font-family="Helvetica,sans-Serif" font-size="10.00">_mrac.cpp</text>
</a>
</g>
</g>
<!-- Node1&#45;&gt;Node7 -->
<g id="edge6" class="edge">
<title>Node1&#45;&gt;Node7</title>
<path fill="none" stroke="midnightblue" d="M911.81,-149.77C856.71,-139.36 783.29,-124.66 719,-109 715.81,-108.22 712.54,-107.4 709.25,-106.54"/>
<polygon fill="midnightblue" stroke="midnightblue" points="911.4,-153.25 921.87,-151.66 912.69,-146.37 911.4,-153.25"/>
</g>
<!-- Node8 -->
<g id="node8" class="node">
<title>Node8</title>
<g id="a_node8"><a xlink:href="mrac_8cpp.html" target="_top" xlink:title="Implementation of the MRAC controller.">
<polygon fill="white" stroke="black" points="727.5,-73 727.5,-103 856.5,-103 856.5,-73 727.5,-73"/>
<text text-anchor="start" x="735.5" y="-91" font-family="Helvetica,sans-Serif" font-size="10.00">ACSL&#45;flightstack/src</text>
<text text-anchor="middle" x="792" y="-80" font-family="Helvetica,sans-Serif" font-size="10.00">/control/mrac/mrac.cpp</text>
</a>
</g>
</g>
<!-- Node1&#45;&gt;Node8 -->
<g id="edge7" class="edge">
<title>Node1&#45;&gt;Node8</title>
<path fill="none" stroke="midnightblue" d="M934.09,-141.93C900.11,-129.28 859.08,-113.99 829.86,-103.11"/>
<polygon fill="midnightblue" stroke="midnightblue" points="932.87,-145.22 943.46,-145.43 935.32,-138.66 932.87,-145.22"/>
</g>
<!-- Node9 -->
<g id="node9" class="node">
<title>Node9</title>
<g id="a_node9"><a xlink:href="logging__pid_8cpp.html" target="_top" xlink:title="Logger for the PID controller.">
<polygon fill="white" stroke="black" points="874.5,-67.5 874.5,-108.5 987.5,-108.5 987.5,-67.5 874.5,-67.5"/>
<text text-anchor="start" x="882.5" y="-96.5" font-family="Helvetica,sans-Serif" font-size="10.00">ACSL&#45;flightstack/src</text>
<text text-anchor="start" x="882.5" y="-85.5" font-family="Helvetica,sans-Serif" font-size="10.00">/control/pid/logging</text>
<text text-anchor="middle" x="931" y="-74.5" font-family="Helvetica,sans-Serif" font-size="10.00">_pid.cpp</text>
</a>
</g>
</g>
<!-- Node1&#45;&gt;Node9 -->
<g id="edge8" class="edge">
<title>Node1&#45;&gt;Node9</title>
<path fill="none" stroke="midnightblue" d="M972.59,-137.63C964.35,-127.99 955.26,-117.36 947.68,-108.51"/>
<polygon fill="midnightblue" stroke="midnightblue" points="970.1,-140.1 979.26,-145.43 975.42,-135.55 970.1,-140.1"/>
</g>
<!-- Node10 -->
<g id="node10" class="node">
<title>Node10</title>
<g id="a_node10"><a xlink:href="pid_8cpp.html" target="_top" xlink:title="Immplementation of the PID controller.">
<polygon fill="white" stroke="black" points="1005.5,-73 1005.5,-103 1118.5,-103 1118.5,-73 1005.5,-73"/>
<text text-anchor="start" x="1013.5" y="-91" font-family="Helvetica,sans-Serif" font-size="10.00">ACSL&#45;flightstack/src</text>
<text text-anchor="middle" x="1062" y="-80" font-family="Helvetica,sans-Serif" font-size="10.00">/control/pid/pid.cpp</text>
</a>
</g>
</g>
<!-- Node1&#45;&gt;Node10 -->
<g id="edge9" class="edge">
<title>Node1&#45;&gt;Node10</title>
<path fill="none" stroke="midnightblue" d="M1019.75,-137.65C1029.87,-126 1041.25,-112.9 1049.65,-103.23"/>
<polygon fill="midnightblue" stroke="midnightblue" points="1016.91,-135.58 1013,-145.43 1022.2,-140.17 1016.91,-135.58"/>
</g>
<!-- Node11 -->
<g id="node11" class="node">
<title>Node11</title>
<g id="a_node11"><a xlink:href="multi__threaded__node_8cpp.html" target="_top" xlink:title="Multithreaded ROS2 ndoe that joins together all the flight stakc components.">
<polygon fill="white" stroke="black" points="1136.5,-73 1136.5,-103 1279.5,-103 1279.5,-73 1136.5,-73"/>
<text text-anchor="start" x="1144.5" y="-91" font-family="Helvetica,sans-Serif" font-size="10.00">ACSL&#45;flightstack/src</text>
<text text-anchor="middle" x="1208" y="-80" font-family="Helvetica,sans-Serif" font-size="10.00">/multi_threaded_node.cpp</text>
</a>
</g>
</g>
<!-- Node1&#45;&gt;Node11 -->
<g id="edge10" class="edge">
<title>Node1&#45;&gt;Node11</title>
<path fill="none" stroke="midnightblue" d="M1060.34,-141.93C1095.65,-129.28 1138.29,-113.99 1168.65,-103.11"/>
<polygon fill="midnightblue" stroke="midnightblue" points="1058.83,-138.76 1050.6,-145.43 1061.19,-145.35 1058.83,-138.76"/>
</g>
<!-- Node12 -->
<g id="node12" class="node">
<title>Node12</title>
<g id="a_node12"><a xlink:href="pixhawk__actuator__motors_8cpp.html" target="_top" xlink:title="Callback that is executed at a fixed specified rate defined by the &quot;timer_controller_&quot;.">
<polygon fill="white" stroke="black" points="1298,-67.5 1298,-108.5 1452,-108.5 1452,-67.5 1298,-67.5"/>
<text text-anchor="start" x="1306" y="-96.5" font-family="Helvetica,sans-Serif" font-size="10.00">ACSL&#45;flightstack/src</text>
<text text-anchor="start" x="1306" y="-85.5" font-family="Helvetica,sans-Serif" font-size="10.00">/pixhawk_interface/pixhawk</text>
<text text-anchor="middle" x="1375" y="-74.5" font-family="Helvetica,sans-Serif" font-size="10.00">_actuator_motors.cpp</text>
</a>
</g>
</g>
<!-- Node1&#45;&gt;Node12 -->
<g id="edge11" class="edge">
<title>Node1&#45;&gt;Node12</title>
<path fill="none" stroke="midnightblue" d="M1080.18,-149.83C1138.84,-139.03 1218.83,-123.86 1289,-109 1291.85,-108.4 1294.75,-107.77 1297.68,-107.13"/>
<polygon fill="midnightblue" stroke="midnightblue" points="1079.42,-146.41 1070.22,-151.65 1080.69,-153.29 1079.42,-146.41"/>
</g>
<!-- Node13 -->
<g id="node13" class="node">
<title>Node13</title>
<g id="a_node13"><a xlink:href="pixhawk__vehicle__odometry_8cpp.html" target="_top" xlink:title="Callback that is executed everytime a VehicleOdometry message is made available by Pixhawk.">
<polygon fill="white" stroke="black" points="1470,-67.5 1470,-108.5 1624,-108.5 1624,-67.5 1470,-67.5"/>
<text text-anchor="start" x="1478" y="-96.5" font-family="Helvetica,sans-Serif" font-size="10.00">ACSL&#45;flightstack/src</text>
<text text-anchor="start" x="1478" y="-85.5" font-family="Helvetica,sans-Serif" font-size="10.00">/pixhawk_interface/pixhawk</text>
<text text-anchor="middle" x="1547" y="-74.5" font-family="Helvetica,sans-Serif" font-size="10.00">_vehicle_odometry.cpp</text>
</a>
</g>
</g>
<!-- Node1&#45;&gt;Node13 -->
<g id="edge12" class="edge">
<title>Node1&#45;&gt;Node13</title>
<path fill="none" stroke="midnightblue" d="M1080.02,-157.65C1173.46,-148.84 1328.68,-132.28 1461,-109 1463.87,-108.5 1466.78,-107.96 1469.73,-107.39"/>
<polygon fill="midnightblue" stroke="midnightblue" points="1079.68,-154.17 1070.05,-158.59 1080.34,-161.14 1079.68,-154.17"/>
</g>
<!-- Node14 -->
<g id="node14" class="node">
<title>Node14</title>
<g id="a_node14"><a xlink:href="vehicle__state_8cpp.html" target="_top" xlink:title="Class storing the state of the vehicle coming from the flight controller (Pixhawk)">
<polygon fill="white" stroke="black" points="1642,-67.5 1642,-108.5 1790,-108.5 1790,-67.5 1642,-67.5"/>
<text text-anchor="start" x="1650" y="-96.5" font-family="Helvetica,sans-Serif" font-size="10.00">ACSL&#45;flightstack/src</text>
<text text-anchor="start" x="1650" y="-85.5" font-family="Helvetica,sans-Serif" font-size="10.00">/pixhawk_interface/vehicle</text>
<text text-anchor="middle" x="1716" y="-74.5" font-family="Helvetica,sans-Serif" font-size="10.00">_state.cpp</text>
</a>
</g>
</g>
<!-- Node1&#45;&gt;Node14 -->
<g id="edge13" class="edge">
<title>Node1&#45;&gt;Node14</title>
<path fill="none" stroke="midnightblue" d="M1080.06,-161.6C1202.4,-155.74 1436.39,-141.15 1633,-109 1635.93,-108.52 1638.9,-108 1641.9,-107.43"/>
<polygon fill="midnightblue" stroke="midnightblue" points="1079.83,-158.1 1070.01,-162.07 1080.16,-165.1 1079.83,-158.1"/>
</g>
<!-- Node15 -->
<g id="node15" class="node">
<title>Node15</title>
<g id="a_node15"><a xlink:href="piecewise__polynomial__trajectory_8cpp.html" target="_top" xlink:title="Piecewise polynomial minimu&#45;jerk trajectory computed offline through a MATLAB script.">
<polygon fill="white" stroke="black" points="1808,-67.5 1808,-108.5 2008,-108.5 2008,-67.5 1808,-67.5"/>
<text text-anchor="start" x="1816" y="-96.5" font-family="Helvetica,sans-Serif" font-size="10.00">ACSL&#45;flightstack/src</text>
<text text-anchor="start" x="1816" y="-85.5" font-family="Helvetica,sans-Serif" font-size="10.00">/user_defined_trajectory</text>
<text text-anchor="middle" x="1908" y="-74.5" font-family="Helvetica,sans-Serif" font-size="10.00">/piecewise_polynomial_trajectory.cpp</text>
</a>
</g>
</g>
<!-- Node1&#45;&gt;Node15 -->
<g id="edge14" class="edge">
<title>Node1&#45;&gt;Node15</title>
<path fill="none" stroke="midnightblue" d="M1080.44,-162.22C1227.1,-156.7 1538.19,-141.92 1799,-109 1801.96,-108.63 1804.96,-108.23 1807.98,-107.8"/>
<polygon fill="midnightblue" stroke="midnightblue" points="1080.03,-158.73 1070.17,-162.6 1080.29,-165.73 1080.03,-158.73"/>
</g>
<!-- Node16 -->
<g id="node16" class="node">
<title>Node16</title>
<g id="a_node16"><a xlink:href="user__defined__trajectory_8cpp.html" target="_top" xlink:title="Class that contains the common members that each type of user&#45;defined trajectory class will inherit.">
<polygon fill="white" stroke="black" points="2026.5,-67.5 2026.5,-108.5 2179.5,-108.5 2179.5,-67.5 2026.5,-67.5"/>
<text text-anchor="start" x="2034.5" y="-96.5" font-family="Helvetica,sans-Serif" font-size="10.00">ACSL&#45;flightstack/src</text>
<text text-anchor="start" x="2034.5" y="-85.5" font-family="Helvetica,sans-Serif" font-size="10.00">/user_defined_trajectory</text>
<text text-anchor="middle" x="2103" y="-74.5" font-family="Helvetica,sans-Serif" font-size="10.00">/user_defined_trajectory.cpp</text>
</a>
</g>
</g>
<!-- Node1&#45;&gt;Node16 -->
<g id="edge15" class="edge">
<title>Node1&#45;&gt;Node16</title>
<path fill="none" stroke="midnightblue" d="M1080.29,-165.31C1255.61,-164.87 1671.94,-158.21 2017,-109 2020.04,-108.57 2023.12,-108.08 2026.23,-107.55"/>
<polygon fill="midnightblue" stroke="midnightblue" points="1080.1,-161.81 1070.1,-165.33 1080.11,-168.81 1080.1,-161.81"/>
</g>
<!-- Node3 -->
<g id="node3" class="node">
<title>Node3</title>
<g id="a_node3"><a xlink:href="main_8cpp.html" target="_top" xlink:title="FlightStack (Multirotor) main.cpp file.">
<polygon fill="white" stroke="black" points="10.5,-0.5 10.5,-30.5 123.5,-30.5 123.5,-0.5 10.5,-0.5"/>
<text text-anchor="start" x="18.5" y="-18.5" font-family="Helvetica,sans-Serif" font-size="10.00">ACSL&#45;flightstack/src</text>
<text text-anchor="middle" x="67" y="-7.5" font-family="Helvetica,sans-Serif" font-size="10.00">/main.cpp</text>
</a>
</g>
</g>
<!-- Node2&#45;&gt;Node3 -->
<g id="edge2" class="edge">
<title>Node2&#45;&gt;Node3</title>
<path fill="none" stroke="midnightblue" d="M67,-62.73C67,-52.07 67,-39.91 67,-30.75"/>
<polygon fill="midnightblue" stroke="midnightblue" points="63.5,-62.73 67,-72.73 70.5,-62.73 63.5,-62.73"/>
</g>
</g>
</svg>
        <g id="navigator" transform="translate(0 0)" fill="#404254">
                <rect fill="#f2f5e9" fill-opacity="0.5" stroke="#606060" stroke-width=".5" x="0" y="0" width="60" height="60"/>
                <use id="zoomplus" xlink:href="#zoomPlus" x="17" y="9" onmousedown="handleZoom(evt,'in')"/>
                <use id="zoomminus" xlink:href="#zoomMin" x="42" y="9" onmousedown="handleZoom(evt,'out')"/>
                <use id="reset" xlink:href="#resetDef" x="30" y="36" onmousedown="handleReset()"/>
                <g id="arrowUp" xlink:href="#dirArrow" transform="translate(30 24)" onmousedown="handlePan(0,-1)">
                  <use xlink:href="#rim" fill="#404040">
                        <set attributeName="fill" to="#808080" begin="arrowUp.mouseover" end="arrowUp.mouseout"/>
                  </use>
                  <path fill="none" stroke="white" stroke-width="1.5" d="M0,-3.0v7 M-2.5,-0.5L0,-3.0L2.5,-0.5"/>
                </g>
                <g id="arrowRight" xlink:href="#dirArrow" transform="rotate(90) translate(36 -43)" onmousedown="handlePan(1,0)">
                  <use xlink:href="#rim" fill="#404040">
                        <set attributeName="fill" to="#808080" begin="arrowRight.mouseover" end="arrowRight.mouseout"/>
                  </use>
                  <path fill="none" stroke="white" stroke-width="1.5" d="M0,-3.0v7 M-2.5,-0.5L0,-3.0L2.5,-0.5"/>
                </g>
                <g id="arrowDown" xlink:href="#dirArrow" transform="rotate(180) translate(-30 -48)" onmousedown="handlePan(0,1)">
                  <use xlink:href="#rim" fill="#404040">
                        <set attributeName="fill" to="#808080" begin="arrowDown.mouseover" end="arrowDown.mouseout"/>
                  </use>
                  <path fill="none" stroke="white" stroke-width="1.5" d="M0,-3.0v7 M-2.5,-0.5L0,-3.0L2.5,-0.5"/>
                </g>
                <g id="arrowLeft" xlink:href="#dirArrow" transform="rotate(270) translate(-36 17)" onmousedown="handlePan(-1,0)">
                  <use xlink:href="#rim" fill="#404040">
                        <set attributeName="fill" to="#808080" begin="arrowLeft.mouseover" end="arrowLeft.mouseout"/>
                  </use>
                  <path fill="none" stroke="white" stroke-width="1.5" d="M0,-3.0v7 M-2.5,-0.5L0,-3.0L2.5,-0.5"/>
                </g>
        </g>
        <svg viewBox="0 0 15 15" width="100%" height="30px" preserveAspectRatio="xMaxYMin meet">
         <g id="arrow_out" transform="scale(0.3 0.3)">
          <a xlink:href="multi__threaded__node_8hpp__dep__incl_org.svg" target="_base">
           <rect id="button" ry="5" rx="5" y="6" x="6" height="38" width="38"
                fill="#f2f5e9" fill-opacity="0.5" stroke="#606060" stroke-width="1.0"/>
           <path id="arrow"
             d="M 11.500037,31.436501 C 11.940474,20.09759 22.043105,11.32322 32.158766,21.979434 L 37.068811,17.246167 C 37.068811,17.246167 37.088388,32 37.088388,32 L 22.160133,31.978069 C 22.160133,31.978069 26.997745,27.140456 26.997745,27.140456 C 18.528582,18.264221 13.291696,25.230495 11.500037,31.436501 z"
             style="fill:#404040;"/>
          </a>
         </g>
        </svg>
</svg>
