<?xml version="1.0" encoding="UTF-8" standalone="no"?>
<!DOCTYPE svg PUBLIC "-//W3C//DTD SVG 1.1//EN"
 "http://www.w3.org/Graphics/SVG/1.1/DTD/svg11.dtd">
<!-- Generated by graphviz version 2.43.0 (0)
 -->
<!-- Title: /mnt/c/Users/siddh/Onedrive/Desktop/ACSL&#45;flightstack/include/flightstack/multi_threaded_node.hpp Pages: 1 -->
<svg width="2244pt" height="239pt"
 viewBox="0.00 0.00 2243.50 239.00" xmlns="http://www.w3.org/2000/svg" xmlns:xlink="http://www.w3.org/1999/xlink">
<g id="graph0" class="graph" transform="scale(1 1) rotate(0) translate(4 235)">
<title>/mnt/c/Users/siddh/Onedrive/Desktop/ACSL&#45;flightstack/include/flightstack/multi_threaded_node.hpp</title>
<polygon fill="white" stroke="transparent" points="-4,4 -4,-235 2239.5,-235 2239.5,4 -4,4"/>
<!-- Node1 -->
<g id="node1" class="node">
<title>Node1</title>
<g id="a_node1"><a xlink:title="Multithreaded ROS2 node that joins together all the flight stack components.">
<polygon fill="#bfbfbf" stroke="black" points="1009,-178.5 1009,-230.5 1173,-230.5 1173,-178.5 1009,-178.5"/>
<text text-anchor="start" x="1017" y="-218.5" font-family="Helvetica,sans-Serif" font-size="10.00">/mnt/c/Users/siddh</text>
<text text-anchor="start" x="1017" y="-207.5" font-family="Helvetica,sans-Serif" font-size="10.00">/Onedrive/Desktop/ACSL</text>
<text text-anchor="start" x="1017" y="-196.5" font-family="Helvetica,sans-Serif" font-size="10.00">&#45;flightstack/include/flightstack</text>
<text text-anchor="middle" x="1091" y="-185.5" font-family="Helvetica,sans-Serif" font-size="10.00">/multi_threaded_node.hpp</text>
</a>
</g>
</g>
<!-- Node2 -->
<g id="node2" class="node">
<title>Node2</title>
<g id="a_node2"><a xlink:href="main_8hpp.html" target="_top" xlink:title="Main file.">
<polygon fill="white" stroke="black" points="0,-84 0,-136 164,-136 164,-84 0,-84"/>
<text text-anchor="start" x="8" y="-124" font-family="Helvetica,sans-Serif" font-size="10.00">/mnt/c/Users/siddh</text>
<text text-anchor="start" x="8" y="-113" font-family="Helvetica,sans-Serif" font-size="10.00">/Onedrive/Desktop/ACSL</text>
<text text-anchor="start" x="8" y="-102" font-family="Helvetica,sans-Serif" font-size="10.00">&#45;flightstack/include/flightstack</text>
<text text-anchor="middle" x="82" y="-91" font-family="Helvetica,sans-Serif" font-size="10.00">/main.hpp</text>
</a>
</g>
</g>
<!-- Node1&#45;&gt;Node2 -->
<g id="edge1" class="edge">
<title>Node1&#45;&gt;Node2</title>
<path fill="none" stroke="midnightblue" d="M998.51,-200.33C798.22,-192.96 329.85,-172.94 174,-142 166.06,-140.42 157.87,-138.35 149.79,-136.02"/>
<polygon fill="midnightblue" stroke="midnightblue" points="998.59,-203.83 1008.71,-200.7 998.85,-196.84 998.59,-203.83"/>
</g>
<!-- Node4 -->
<g id="node4" class="node">
<title>Node4</title>
<g id="a_node4"><a xlink:href="config_8cpp.html" target="_top" xlink:title="Contains the functions that reads the configuration parameters and assigns it to the members of the C...">
<polygon fill="white" stroke="black" points="182.5,-84 182.5,-136 317.5,-136 317.5,-84 182.5,-84"/>
<text text-anchor="start" x="190.5" y="-124" font-family="Helvetica,sans-Serif" font-size="10.00">/mnt/c/Users/siddh</text>
<text text-anchor="start" x="190.5" y="-113" font-family="Helvetica,sans-Serif" font-size="10.00">/Onedrive/Desktop/ACSL</text>
<text text-anchor="start" x="190.5" y="-102" font-family="Helvetica,sans-Serif" font-size="10.00">&#45;flightstack/src/config</text>
<text text-anchor="middle" x="250" y="-91" font-family="Helvetica,sans-Serif" font-size="10.00">/config.cpp</text>
</a>
</g>
</g>
<!-- Node1&#45;&gt;Node4 -->
<g id="edge3" class="edge">
<title>Node1&#45;&gt;Node4</title>
<path fill="none" stroke="midnightblue" d="M998.75,-199.56C824.28,-191.54 452.24,-171.53 327,-142 320.41,-140.45 313.64,-138.42 306.99,-136.14"/>
<polygon fill="midnightblue" stroke="midnightblue" points="998.79,-203.07 1008.94,-200.03 999.11,-196.08 998.79,-203.07"/>
</g>
<!-- Node5 -->
<g id="node5" class="node">
<title>Node5</title>
<g id="a_node5"><a xlink:href="control_8cpp.html" target="_top" xlink:title="This file contains the general class containing the common memvers used by most of the control algori...">
<polygon fill="white" stroke="black" points="335.5,-84 335.5,-136 470.5,-136 470.5,-84 335.5,-84"/>
<text text-anchor="start" x="343.5" y="-124" font-family="Helvetica,sans-Serif" font-size="10.00">/mnt/c/Users/siddh</text>
<text text-anchor="start" x="343.5" y="-113" font-family="Helvetica,sans-Serif" font-size="10.00">/Onedrive/Desktop/ACSL</text>
<text text-anchor="start" x="343.5" y="-102" font-family="Helvetica,sans-Serif" font-size="10.00">&#45;flightstack/src/control</text>
<text text-anchor="middle" x="403" y="-91" font-family="Helvetica,sans-Serif" font-size="10.00">/control.cpp</text>
</a>
</g>
</g>
<!-- Node1&#45;&gt;Node5 -->
<g id="edge4" class="edge">
<title>Node1&#45;&gt;Node5</title>
<path fill="none" stroke="midnightblue" d="M998.39,-202.27C877.48,-198.83 660.05,-186.35 480,-142 473.42,-140.38 466.67,-138.31 460.02,-136.01"/>
<polygon fill="midnightblue" stroke="midnightblue" points="998.62,-205.77 1008.71,-202.54 998.81,-198.78 998.62,-205.77"/>
</g>
<!-- Node6 -->
<g id="node6" class="node">
<title>Node6</title>
<g id="a_node6"><a xlink:href="control__callback_8cpp.html" target="_top" xlink:title="Callback that is executed at a fixed specified rate defined by the &quot;timer_controller_&quot;.">
<polygon fill="white" stroke="black" points="488.5,-84 488.5,-136 623.5,-136 623.5,-84 488.5,-84"/>
<text text-anchor="start" x="496.5" y="-124" font-family="Helvetica,sans-Serif" font-size="10.00">/mnt/c/Users/siddh</text>
<text text-anchor="start" x="496.5" y="-113" font-family="Helvetica,sans-Serif" font-size="10.00">/Onedrive/Desktop/ACSL</text>
<text text-anchor="start" x="496.5" y="-102" font-family="Helvetica,sans-Serif" font-size="10.00">&#45;flightstack/src/control</text>
<text text-anchor="middle" x="556" y="-91" font-family="Helvetica,sans-Serif" font-size="10.00">/control_callback.cpp</text>
</a>
</g>
</g>
<!-- Node1&#45;&gt;Node6 -->
<g id="edge5" class="edge">
<title>Node1&#45;&gt;Node6</title>
<path fill="none" stroke="midnightblue" d="M998.73,-197.89C905.29,-190.63 757.24,-174.8 633,-142 626.73,-140.34 620.29,-138.31 613.92,-136.09"/>
<polygon fill="midnightblue" stroke="midnightblue" points="998.49,-201.38 1008.73,-198.65 999.02,-194.4 998.49,-201.38"/>
</g>
<!-- Node7 -->
<g id="node7" class="node">
<title>Node7</title>
<g id="a_node7"><a xlink:href="logging__mrac_8cpp.html" target="_top" xlink:title="Logger for the MRAC controller.">
<polygon fill="white" stroke="black" points="641.5,-84 641.5,-136 776.5,-136 776.5,-84 641.5,-84"/>
<text text-anchor="start" x="649.5" y="-124" font-family="Helvetica,sans-Serif" font-size="10.00">/mnt/c/Users/siddh</text>
<text text-anchor="start" x="649.5" y="-113" font-family="Helvetica,sans-Serif" font-size="10.00">/Onedrive/Desktop/ACSL</text>
<text text-anchor="start" x="649.5" y="-102" font-family="Helvetica,sans-Serif" font-size="10.00">&#45;flightstack/src/control</text>
<text text-anchor="middle" x="709" y="-91" font-family="Helvetica,sans-Serif" font-size="10.00">/mrac/logging_mrac.cpp</text>
</a>
</g>
</g>
<!-- Node1&#45;&gt;Node7 -->
<g id="edge6" class="edge">
<title>Node1&#45;&gt;Node7</title>
<path fill="none" stroke="midnightblue" d="M998.76,-189.45C937.69,-179.04 856.22,-163.02 786,-142 780.2,-140.26 774.23,-138.26 768.31,-136.13"/>
<polygon fill="midnightblue" stroke="midnightblue" points="998.32,-192.92 1008.76,-191.13 999.48,-186.02 998.32,-192.92"/>
</g>
<!-- Node8 -->
<g id="node8" class="node">
<title>Node8</title>
<g id="a_node8"><a xlink:href="mrac_8cpp.html" target="_top" xlink:title="Implementation of the MRAC controller.">
<polygon fill="white" stroke="black" points="794.5,-84 794.5,-136 929.5,-136 929.5,-84 794.5,-84"/>
<text text-anchor="start" x="802.5" y="-124" font-family="Helvetica,sans-Serif" font-size="10.00">/mnt/c/Users/siddh</text>
<text text-anchor="start" x="802.5" y="-113" font-family="Helvetica,sans-Serif" font-size="10.00">/Onedrive/Desktop/ACSL</text>
<text text-anchor="start" x="802.5" y="-102" font-family="Helvetica,sans-Serif" font-size="10.00">&#45;flightstack/src/control</text>
<text text-anchor="middle" x="862" y="-91" font-family="Helvetica,sans-Serif" font-size="10.00">/mrac/mrac.cpp</text>
</a>
</g>
</g>
<!-- Node1&#45;&gt;Node8 -->
<g id="edge7" class="edge">
<title>Node1&#45;&gt;Node8</title>
<path fill="none" stroke="midnightblue" d="M1019.69,-174.69C989.04,-162.32 953.56,-147.98 924.02,-136.05"/>
<polygon fill="midnightblue" stroke="midnightblue" points="1018.45,-177.97 1029.03,-178.47 1021.07,-171.48 1018.45,-177.97"/>
</g>
<!-- Node9 -->
<g id="node9" class="node">
<title>Node9</title>
<g id="a_node9"><a xlink:href="logging__pid_8cpp.html" target="_top" xlink:title="Logger for the PID controller.">
<polygon fill="white" stroke="black" points="947.5,-84 947.5,-136 1082.5,-136 1082.5,-84 947.5,-84"/>
<text text-anchor="start" x="955.5" y="-124" font-family="Helvetica,sans-Serif" font-size="10.00">/mnt/c/Users/siddh</text>
<text text-anchor="start" x="955.5" y="-113" font-family="Helvetica,sans-Serif" font-size="10.00">/Onedrive/Desktop/ACSL</text>
<text text-anchor="start" x="955.5" y="-102" font-family="Helvetica,sans-Serif" font-size="10.00">&#45;flightstack/src/control</text>
<text text-anchor="middle" x="1015" y="-91" font-family="Helvetica,sans-Serif" font-size="10.00">/pid/logging_pid.cpp</text>
</a>
</g>
</g>
<!-- Node1&#45;&gt;Node9 -->
<g id="edge8" class="edge">
<title>Node1&#45;&gt;Node9</title>
<path fill="none" stroke="midnightblue" d="M1063.72,-170.29C1054.5,-159.08 1044.37,-146.74 1035.74,-136.25"/>
<polygon fill="midnightblue" stroke="midnightblue" points="1061.18,-172.72 1070.23,-178.22 1066.59,-168.28 1061.18,-172.72"/>
</g>
<!-- Node10 -->
<g id="node10" class="node">
<title>Node10</title>
<g id="a_node10"><a xlink:href="pid_8cpp.html" target="_top" xlink:title="Immplementation of the PID controller.">
<polygon fill="white" stroke="black" points="1100.5,-84 1100.5,-136 1235.5,-136 1235.5,-84 1100.5,-84"/>
<text text-anchor="start" x="1108.5" y="-124" font-family="Helvetica,sans-Serif" font-size="10.00">/mnt/c/Users/siddh</text>
<text text-anchor="start" x="1108.5" y="-113" font-family="Helvetica,sans-Serif" font-size="10.00">/Onedrive/Desktop/ACSL</text>
<text text-anchor="start" x="1108.5" y="-102" font-family="Helvetica,sans-Serif" font-size="10.00">&#45;flightstack/src/control</text>
<text text-anchor="middle" x="1168" y="-91" font-family="Helvetica,sans-Serif" font-size="10.00">/pid/pid.cpp</text>
</a>
</g>
</g>
<!-- Node1&#45;&gt;Node10 -->
<g id="edge9" class="edge">
<title>Node1&#45;&gt;Node10</title>
<path fill="none" stroke="midnightblue" d="M1118.64,-170.29C1127.98,-159.08 1138.25,-146.74 1146.98,-136.25"/>
<polygon fill="midnightblue" stroke="midnightblue" points="1115.75,-168.3 1112.04,-178.22 1121.13,-172.78 1115.75,-168.3"/>
</g>
<!-- Node11 -->
<g id="node11" class="node">
<title>Node11</title>
<g id="a_node11"><a xlink:href="multi__threaded__node_8cpp.html" target="_top" xlink:title="Multithreaded ROS2 ndoe that joins together all the flight stakc components.">
<polygon fill="white" stroke="black" points="1253.5,-84 1253.5,-136 1388.5,-136 1388.5,-84 1253.5,-84"/>
<text text-anchor="start" x="1261.5" y="-124" font-family="Helvetica,sans-Serif" font-size="10.00">/mnt/c/Users/siddh</text>
<text text-anchor="start" x="1261.5" y="-113" font-family="Helvetica,sans-Serif" font-size="10.00">/Onedrive/Desktop/ACSL</text>
<text text-anchor="start" x="1261.5" y="-102" font-family="Helvetica,sans-Serif" font-size="10.00">&#45;flightstack/src/multi</text>
<text text-anchor="middle" x="1321" y="-91" font-family="Helvetica,sans-Serif" font-size="10.00">_threaded_node.cpp</text>
</a>
</g>
</g>
<!-- Node1&#45;&gt;Node11 -->
<g id="edge10" class="edge">
<title>Node1&#45;&gt;Node11</title>
<path fill="none" stroke="midnightblue" d="M1163.32,-174.75C1189.11,-164.46 1218.37,-152.75 1245,-142 1249.76,-140.08 1254.68,-138.09 1259.63,-136.08"/>
<polygon fill="midnightblue" stroke="midnightblue" points="1161.97,-171.51 1153.98,-178.47 1164.57,-178.02 1161.97,-171.51"/>
</g>
<!-- Node12 -->
<g id="node12" class="node">
<title>Node12</title>
<g id="a_node12"><a xlink:href="pixhawk__actuator__motors_8cpp.html" target="_top" xlink:title="Callback that is executed at a fixed specified rate defined by the &quot;timer_controller_&quot;.">
<polygon fill="white" stroke="black" points="1406.5,-78.5 1406.5,-141.5 1561.5,-141.5 1561.5,-78.5 1406.5,-78.5"/>
<text text-anchor="start" x="1414.5" y="-129.5" font-family="Helvetica,sans-Serif" font-size="10.00">/mnt/c/Users/siddh</text>
<text text-anchor="start" x="1414.5" y="-118.5" font-family="Helvetica,sans-Serif" font-size="10.00">/Onedrive/Desktop/ACSL</text>
<text text-anchor="start" x="1414.5" y="-107.5" font-family="Helvetica,sans-Serif" font-size="10.00">&#45;flightstack/src/pixhawk</text>
<text text-anchor="start" x="1414.5" y="-96.5" font-family="Helvetica,sans-Serif" font-size="10.00">_interface/pixhawk_actuator</text>
<text text-anchor="middle" x="1484" y="-85.5" font-family="Helvetica,sans-Serif" font-size="10.00">_motors.cpp</text>
</a>
</g>
</g>
<!-- Node1&#45;&gt;Node12 -->
<g id="edge11" class="edge">
<title>Node1&#45;&gt;Node12</title>
<path fill="none" stroke="midnightblue" d="M1183.28,-188.7C1244.68,-177.95 1326.82,-161.84 1398,-142 1400.75,-141.23 1403.54,-140.42 1406.35,-139.57"/>
<polygon fill="midnightblue" stroke="midnightblue" points="1182.48,-185.28 1173.22,-190.44 1183.67,-192.18 1182.48,-185.28"/>
</g>
<!-- Node13 -->
<g id="node13" class="node">
<title>Node13</title>
<g id="a_node13"><a xlink:href="pixhawk__vehicle__odometry_8cpp.html" target="_top" xlink:title="Callback that is executed everytime a VehicleOdometry message is made available by Pixhawk.">
<polygon fill="white" stroke="black" points="1580,-78.5 1580,-141.5 1730,-141.5 1730,-78.5 1580,-78.5"/>
<text text-anchor="start" x="1588" y="-129.5" font-family="Helvetica,sans-Serif" font-size="10.00">/mnt/c/Users/siddh</text>
<text text-anchor="start" x="1588" y="-118.5" font-family="Helvetica,sans-Serif" font-size="10.00">/Onedrive/Desktop/ACSL</text>
<text text-anchor="start" x="1588" y="-107.5" font-family="Helvetica,sans-Serif" font-size="10.00">&#45;flightstack/src/pixhawk</text>
<text text-anchor="start" x="1588" y="-96.5" font-family="Helvetica,sans-Serif" font-size="10.00">_interface/pixhawk_vehicle</text>
<text text-anchor="middle" x="1655" y="-85.5" font-family="Helvetica,sans-Serif" font-size="10.00">_odometry.cpp</text>
</a>
</g>
</g>
<!-- Node1&#45;&gt;Node13 -->
<g id="edge12" class="edge">
<title>Node1&#45;&gt;Node13</title>
<path fill="none" stroke="midnightblue" d="M1183.26,-197.89C1280.74,-190.53 1438.41,-174.52 1571,-142 1573.87,-141.3 1576.77,-140.53 1579.69,-139.7"/>
<polygon fill="midnightblue" stroke="midnightblue" points="1182.85,-194.41 1173.14,-198.64 1183.37,-201.39 1182.85,-194.41"/>
</g>
<!-- Node14 -->
<g id="node14" class="node">
<title>Node14</title>
<g id="a_node14"><a xlink:href="vehicle__state_8cpp.html" target="_top" xlink:title="Class storing the state of the vehicle coming from the flight controller (Pixhawk)">
<polygon fill="white" stroke="black" points="1748,-84 1748,-136 1902,-136 1902,-84 1748,-84"/>
<text text-anchor="start" x="1756" y="-124" font-family="Helvetica,sans-Serif" font-size="10.00">/mnt/c/Users/siddh</text>
<text text-anchor="start" x="1756" y="-113" font-family="Helvetica,sans-Serif" font-size="10.00">/Onedrive/Desktop/ACSL</text>
<text text-anchor="start" x="1756" y="-102" font-family="Helvetica,sans-Serif" font-size="10.00">&#45;flightstack/src/pixhawk</text>
<text text-anchor="middle" x="1825" y="-91" font-family="Helvetica,sans-Serif" font-size="10.00">_interface/vehicle_state.cpp</text>
</a>
</g>
</g>
<!-- Node1&#45;&gt;Node14 -->
<g id="edge13" class="edge">
<title>Node1&#45;&gt;Node14</title>
<path fill="none" stroke="midnightblue" d="M1183.15,-202.01C1309.84,-198.32 1544.26,-185.61 1739,-142 1746.12,-140.4 1753.46,-138.38 1760.71,-136.14"/>
<polygon fill="midnightblue" stroke="midnightblue" points="1183,-198.51 1173.1,-202.29 1183.19,-205.51 1183,-198.51"/>
</g>
<!-- Node15 -->
<g id="node15" class="node">
<title>Node15</title>
<g id="a_node15"><a xlink:href="piecewise__polynomial__trajectory_8cpp.html" target="_top" xlink:title="Piecewise polynomial minimu&#45;jerk trajectory computed offline through a MATLAB script.">
<polygon fill="white" stroke="black" points="1920,-78.5 1920,-141.5 2082,-141.5 2082,-78.5 1920,-78.5"/>
<text text-anchor="start" x="1928" y="-129.5" font-family="Helvetica,sans-Serif" font-size="10.00">/mnt/c/Users/siddh</text>
<text text-anchor="start" x="1928" y="-118.5" font-family="Helvetica,sans-Serif" font-size="10.00">/Onedrive/Desktop/ACSL</text>
<text text-anchor="start" x="1928" y="-107.5" font-family="Helvetica,sans-Serif" font-size="10.00">&#45;flightstack/src/user</text>
<text text-anchor="start" x="1928" y="-96.5" font-family="Helvetica,sans-Serif" font-size="10.00">_defined_trajectory/piecewise</text>
<text text-anchor="middle" x="2001" y="-85.5" font-family="Helvetica,sans-Serif" font-size="10.00">_polynomial_trajectory.cpp</text>
</a>
</g>
</g>
<!-- Node1&#45;&gt;Node15 -->
<g id="edge14" class="edge">
<title>Node1&#45;&gt;Node15</title>
<path fill="none" stroke="midnightblue" d="M1183.43,-204.24C1336.4,-203.77 1651.14,-195.57 1911,-142 1913.91,-141.4 1916.86,-140.73 1919.83,-140"/>
<polygon fill="midnightblue" stroke="midnightblue" points="1183.13,-200.74 1173.14,-204.26 1183.15,-207.74 1183.13,-200.74"/>
</g>
<!-- Node16 -->
<g id="node16" class="node">
<title>Node16</title>
<g id="a_node16"><a xlink:href="user__defined__trajectory_8cpp.html" target="_top" xlink:title="Class that contains the common members that each type of user&#45;defined trajectory class will inherit.">
<polygon fill="white" stroke="black" points="2100.5,-78.5 2100.5,-141.5 2235.5,-141.5 2235.5,-78.5 2100.5,-78.5"/>
<text text-anchor="start" x="2108.5" y="-129.5" font-family="Helvetica,sans-Serif" font-size="10.00">/mnt/c/Users/siddh</text>
<text text-anchor="start" x="2108.5" y="-118.5" font-family="Helvetica,sans-Serif" font-size="10.00">/Onedrive/Desktop/ACSL</text>
<text text-anchor="start" x="2108.5" y="-107.5" font-family="Helvetica,sans-Serif" font-size="10.00">&#45;flightstack/src/user</text>
<text text-anchor="start" x="2108.5" y="-96.5" font-family="Helvetica,sans-Serif" font-size="10.00">_defined_trajectory/user</text>
<text text-anchor="middle" x="2168" y="-85.5" font-family="Helvetica,sans-Serif" font-size="10.00">_defined_trajectory.cpp</text>
</a>
</g>
</g>
<!-- Node1&#45;&gt;Node16 -->
<g id="edge15" class="edge">
<title>Node1&#45;&gt;Node16</title>
<path fill="none" stroke="midnightblue" d="M1183.41,-201.6C1397.02,-196.59 1919.79,-180.66 2091,-142 2094.09,-141.3 2097.22,-140.49 2100.36,-139.6"/>
<polygon fill="midnightblue" stroke="midnightblue" points="1183.08,-198.1 1173.17,-201.83 1183.25,-205.1 1183.08,-198.1"/>
</g>
<!-- Node3 -->
<g id="node3" class="node">
<title>Node3</title>
<g id="a_node3"><a xlink:href="main_8cpp.html" target="_top" xlink:title="FlightStack (Multirotor) main.cpp file.">
<polygon fill="white" stroke="black" points="13.5,-0.5 13.5,-41.5 150.5,-41.5 150.5,-0.5 13.5,-0.5"/>
<text text-anchor="start" x="21.5" y="-29.5" font-family="Helvetica,sans-Serif" font-size="10.00">/mnt/c/Users/siddh</text>
<text text-anchor="start" x="21.5" y="-18.5" font-family="Helvetica,sans-Serif" font-size="10.00">/Onedrive/Desktop/ACSL</text>
<text text-anchor="middle" x="82" y="-7.5" font-family="Helvetica,sans-Serif" font-size="10.00">&#45;flightstack/src/main.cpp</text>
</a>
</g>
</g>
<!-- Node2&#45;&gt;Node3 -->
<g id="edge2" class="edge">
<title>Node2&#45;&gt;Node3</title>
<path fill="none" stroke="midnightblue" d="M82,-73.66C82,-62.71 82,-51.05 82,-41.58"/>
<polygon fill="midnightblue" stroke="midnightblue" points="78.5,-73.84 82,-83.84 85.5,-73.84 78.5,-73.84"/>
</g>
</g>
</svg>
