<?xml version="1.0" encoding="UTF-8" standalone="no"?>
<!DOCTYPE svg PUBLIC "-//W3C//DTD SVG 1.1//EN"
 "http://www.w3.org/Graphics/SVG/1.1/DTD/svg11.dtd">
<!-- Generated by graphviz version 2.43.0 (0)
 -->
<!-- Title: /mnt/c/Users/siddh/OneDrive/Desktop/ACSL&#45;flightstack/include/flightstack/control/pid/pid_gains.hpp Pages: 1 -->
<svg width="300pt" height="239pt"
 viewBox="0.00 0.00 300.00 239.00" xmlns="http://www.w3.org/2000/svg" xmlns:xlink="http://www.w3.org/1999/xlink">
<g id="graph0" class="graph" transform="scale(1 1) rotate(0) translate(4 235)">
<title>/mnt/c/Users/siddh/OneDrive/Desktop/ACSL&#45;flightstack/include/flightstack/control/pid/pid_gains.hpp</title>
<polygon fill="white" stroke="transparent" points="-4,4 -4,-235 296,-235 296,4 -4,4"/>
<!-- Node1 -->
<g id="node1" class="node">
<title>Node1</title>
<g id="a_node1"><a xlink:title="Tuning gains of the PID controller.">
<polygon fill="#bfbfbf" stroke="black" points="63.5,-178.5 63.5,-230.5 227.5,-230.5 227.5,-178.5 63.5,-178.5"/>
<text text-anchor="start" x="71.5" y="-218.5" font-family="Helvetica,sans-Serif" font-size="10.00">/mnt/c/Users/siddh</text>
<text text-anchor="start" x="71.5" y="-207.5" font-family="Helvetica,sans-Serif" font-size="10.00">/OneDrive/Desktop/ACSL</text>
<text text-anchor="start" x="71.5" y="-196.5" font-family="Helvetica,sans-Serif" font-size="10.00">&#45;flightstack/include/flightstack</text>
<text text-anchor="middle" x="145.5" y="-185.5" font-family="Helvetica,sans-Serif" font-size="10.00">/control/pid/pid_gains.hpp</text>
</a>
</g>
</g>
<!-- Node2 -->
<g id="node2" class="node">
<title>Node2</title>
<g id="a_node2"><a xlink:href="pid_8hpp.html" target="_top" xlink:title="Implementation of the PID controller.">
<polygon fill="white" stroke="black" points="63.5,-89.5 63.5,-141.5 227.5,-141.5 227.5,-89.5 63.5,-89.5"/>
<text text-anchor="start" x="71.5" y="-129.5" font-family="Helvetica,sans-Serif" font-size="10.00">/mnt/c/Users/siddh</text>
<text text-anchor="start" x="71.5" y="-118.5" font-family="Helvetica,sans-Serif" font-size="10.00">/OneDrive/Desktop/ACSL</text>
<text text-anchor="start" x="71.5" y="-107.5" font-family="Helvetica,sans-Serif" font-size="10.00">&#45;flightstack/include/flightstack</text>
<text text-anchor="middle" x="145.5" y="-96.5" font-family="Helvetica,sans-Serif" font-size="10.00">/control/pid/pid.hpp</text>
</a>
</g>
</g>
<!-- Node1&#45;&gt;Node2 -->
<g id="edge1" class="edge">
<title>Node1&#45;&gt;Node2</title>
<path fill="none" stroke="midnightblue" d="M145.5,-168.19C145.5,-159.28 145.5,-149.9 145.5,-141.61"/>
<polygon fill="midnightblue" stroke="midnightblue" points="142,-168.34 145.5,-178.34 149,-168.34 142,-168.34"/>
</g>
<!-- Node3 -->
<g id="node3" class="node">
<title>Node3</title>
<g id="a_node3"><a xlink:href="logging__pid_8cpp.html" target="_top" xlink:title="Logger for the PID controller.">
<polygon fill="white" stroke="black" points="0,-0.5 0,-52.5 137,-52.5 137,-0.5 0,-0.5"/>
<text text-anchor="start" x="8" y="-40.5" font-family="Helvetica,sans-Serif" font-size="10.00">/mnt/c/Users/siddh</text>
<text text-anchor="start" x="8" y="-29.5" font-family="Helvetica,sans-Serif" font-size="10.00">/OneDrive/Desktop/ACSL</text>
<text text-anchor="start" x="8" y="-18.5" font-family="Helvetica,sans-Serif" font-size="10.00">&#45;flightstack/src/control</text>
<text text-anchor="middle" x="68.5" y="-7.5" font-family="Helvetica,sans-Serif" font-size="10.00">/pid/logging_pid.cpp</text>
</a>
</g>
</g>
<!-- Node2&#45;&gt;Node3 -->
<g id="edge2" class="edge">
<title>Node2&#45;&gt;Node3</title>
<path fill="none" stroke="midnightblue" d="M116.55,-81.79C108,-72.13 98.78,-61.71 90.72,-52.61"/>
<polygon fill="midnightblue" stroke="midnightblue" points="113.98,-84.17 123.23,-89.34 119.22,-79.53 113.98,-84.17"/>
</g>
<!-- Node4 -->
<g id="node4" class="node">
<title>Node4</title>
<g id="a_node4"><a xlink:href="pid_8cpp.html" target="_top" xlink:title="Immplementation of the PID controller.">
<polygon fill="white" stroke="black" points="155,-0.5 155,-52.5 292,-52.5 292,-0.5 155,-0.5"/>
<text text-anchor="start" x="163" y="-40.5" font-family="Helvetica,sans-Serif" font-size="10.00">/mnt/c/Users/siddh</text>
<text text-anchor="start" x="163" y="-29.5" font-family="Helvetica,sans-Serif" font-size="10.00">/OneDrive/Desktop/ACSL</text>
<text text-anchor="start" x="163" y="-18.5" font-family="Helvetica,sans-Serif" font-size="10.00">&#45;flightstack/src/control</text>
<text text-anchor="middle" x="223.5" y="-7.5" font-family="Helvetica,sans-Serif" font-size="10.00">/pid/pid.cpp</text>
</a>
</g>
</g>
<!-- Node2&#45;&gt;Node4 -->
<g id="edge3" class="edge">
<title>Node2&#45;&gt;Node4</title>
<path fill="none" stroke="midnightblue" d="M174.83,-81.79C183.49,-72.13 192.83,-61.71 200.99,-52.61"/>
<polygon fill="midnightblue" stroke="midnightblue" points="172.13,-79.55 168.06,-89.34 177.34,-84.23 172.13,-79.55"/>
</g>
</g>
</svg>
