<?xml version="1.0" encoding="UTF-8" standalone="no"?>
<!DOCTYPE svg PUBLIC "-//W3C//DTD SVG 1.1//EN"
 "http://www.w3.org/Graphics/SVG/1.1/DTD/svg11.dtd">
<!-- Generated by graphviz version 2.43.0 (0)
 -->
<!-- Title: ACSL&#45;flightstack/include/flightstack/control/pid/pid.hpp Pages: 1 -->
<svg width="975pt" height="285pt"
 viewBox="0.00 0.00 975.43 285.00" xmlns="http://www.w3.org/2000/svg" xmlns:xlink="http://www.w3.org/1999/xlink">
<g id="graph0" class="graph" transform="scale(1 1) rotate(0) translate(4 281)">
<title>ACSL&#45;flightstack/include/flightstack/control/pid/pid.hpp</title>
<polygon fill="white" stroke="transparent" points="-4,4 -4,-281 971.43,-281 971.43,4 -4,4"/>
<!-- Node1 -->
<g id="node1" class="node">
<title>Node1</title>
<g id="a_node1"><a xlink:title="Implementation of the PID controller.">
<polygon fill="#bfbfbf" stroke="black" points="118.67,-235.5 118.67,-276.5 252.67,-276.5 252.67,-235.5 118.67,-235.5"/>
<text text-anchor="start" x="126.67" y="-264.5" font-family="Helvetica,sans-Serif" font-size="10.00">ACSL&#45;flightstack/include</text>
<text text-anchor="start" x="126.67" y="-253.5" font-family="Helvetica,sans-Serif" font-size="10.00">/flightstack/control/pid</text>
<text text-anchor="middle" x="185.67" y="-242.5" font-family="Helvetica,sans-Serif" font-size="10.00">/pid.hpp</text>
</a>
</g>
</g>
<!-- Node2 -->
<g id="node2" class="node">
<title>Node2</title>
<g id="a_node2"><a xlink:title=" ">
<polygon fill="white" stroke="#bfbfbf" points="96.17,-0.5 96.17,-19.5 143.17,-19.5 143.17,-0.5 96.17,-0.5"/>
<text text-anchor="middle" x="119.67" y="-7.5" font-family="Helvetica,sans-Serif" font-size="10.00">cmath</text>
</a>
</g>
</g>
<!-- Node1&#45;&gt;Node2 -->
<g id="edge1" class="edge">
<title>Node1&#45;&gt;Node2</title>
<path fill="none" stroke="midnightblue" d="M118.51,-247.73C87.29,-240.6 52.89,-226.57 33.67,-199 12.61,-168.79 -40.62,-210.08 57.67,-56 66.13,-42.74 80.01,-32.12 92.49,-24.54"/>
<polygon fill="midnightblue" stroke="midnightblue" points="94.28,-27.55 101.24,-19.56 90.82,-21.47 94.28,-27.55"/>
</g>
<!-- Node3 -->
<g id="node3" class="node">
<title>Node3</title>
<g id="a_node3"><a xlink:title=" ">
<polygon fill="white" stroke="#bfbfbf" points="109.67,-118 109.67,-137 173.67,-137 173.67,-118 109.67,-118"/>
<text text-anchor="middle" x="141.67" y="-125" font-family="Helvetica,sans-Serif" font-size="10.00">algorithm</text>
</a>
</g>
</g>
<!-- Node1&#45;&gt;Node3 -->
<g id="edge2" class="edge">
<title>Node1&#45;&gt;Node3</title>
<path fill="none" stroke="midnightblue" d="M178.8,-235.23C170.37,-211.01 156.21,-170.29 148.03,-146.77"/>
<polygon fill="midnightblue" stroke="midnightblue" points="151.32,-145.59 144.73,-137.29 144.71,-147.89 151.32,-145.59"/>
</g>
<!-- Node4 -->
<g id="node4" class="node">
<title>Node4</title>
<g id="a_node4"><a xlink:title=" ">
<polygon fill="white" stroke="#bfbfbf" points="147.67,-56.5 147.67,-75.5 191.67,-75.5 191.67,-56.5 147.67,-56.5"/>
<text text-anchor="middle" x="169.67" y="-63.5" font-family="Helvetica,sans-Serif" font-size="10.00">string</text>
</a>
</g>
</g>
<!-- Node1&#45;&gt;Node4 -->
<g id="edge3" class="edge">
<title>Node1&#45;&gt;Node4</title>
<path fill="none" stroke="midnightblue" d="M186.86,-235.43C188.18,-207.76 189.32,-155.7 182.67,-112 181.31,-103.06 178.68,-93.39 176.13,-85.31"/>
<polygon fill="midnightblue" stroke="midnightblue" points="179.45,-84.19 172.96,-75.81 172.81,-86.41 179.45,-84.19"/>
</g>
<!-- Node5 -->
<g id="node5" class="node">
<title>Node5</title>
<g id="a_node5"><a xlink:title=" ">
<polygon fill="white" stroke="#bfbfbf" points="777.17,-0.5 777.17,-19.5 854.17,-19.5 854.17,-0.5 777.17,-0.5"/>
<text text-anchor="middle" x="815.67" y="-7.5" font-family="Helvetica,sans-Serif" font-size="10.00">Eigen/Dense</text>
</a>
</g>
</g>
<!-- Node1&#45;&gt;Node5 -->
<g id="edge4" class="edge">
<title>Node1&#45;&gt;Node5</title>
<path fill="none" stroke="midnightblue" d="M252.82,-250.37C432.96,-237.27 916.34,-197.31 961.67,-143 970.01,-133 969.03,-69.35 958.67,-56 936.58,-27.52 896.53,-16.68 864.42,-12.74"/>
<polygon fill="midnightblue" stroke="midnightblue" points="864.62,-9.24 854.31,-11.68 863.89,-16.2 864.62,-9.24"/>
</g>
<!-- Node6 -->
<g id="node6" class="node">
<title>Node6</title>
<g id="a_node6"><a xlink:href="control_8hpp.html" target="_top" xlink:title="General class that contains common members used by most of the control algorithms.">
<polygon fill="white" stroke="black" points="573.17,-179.5 573.17,-198.5 644.17,-198.5 644.17,-179.5 573.17,-179.5"/>
<text text-anchor="middle" x="608.67" y="-186.5" font-family="Helvetica,sans-Serif" font-size="10.00">control.hpp</text>
</a>
</g>
</g>
<!-- Node1&#45;&gt;Node6 -->
<g id="edge5" class="edge">
<title>Node1&#45;&gt;Node6</title>
<path fill="none" stroke="midnightblue" d="M252.7,-244.7C339.47,-231.37 488.39,-208.48 563.11,-197"/>
<polygon fill="midnightblue" stroke="midnightblue" points="563.79,-200.44 573.14,-195.46 562.73,-193.52 563.79,-200.44"/>
</g>
<!-- Node18 -->
<g id="node18" class="node">
<title>Node18</title>
<g id="a_node18"><a xlink:href="pid__gains_8hpp.html" target="_top" xlink:title="Tuning gains of the PID controller.">
<polygon fill="white" stroke="black" points="42.67,-179.5 42.67,-198.5 126.67,-198.5 126.67,-179.5 42.67,-179.5"/>
<text text-anchor="middle" x="84.67" y="-186.5" font-family="Helvetica,sans-Serif" font-size="10.00">pid_gains.hpp</text>
</a>
</g>
</g>
<!-- Node1&#45;&gt;Node18 -->
<g id="edge26" class="edge">
<title>Node1&#45;&gt;Node18</title>
<path fill="none" stroke="midnightblue" d="M155.37,-235.5C139.73,-225.44 121.01,-213.38 106.76,-204.21"/>
<polygon fill="midnightblue" stroke="midnightblue" points="108.42,-201.12 98.12,-198.65 104.63,-207.01 108.42,-201.12"/>
</g>
<!-- Node6&#45;&gt;Node2 -->
<g id="edge6" class="edge">
<title>Node6&#45;&gt;Node2</title>
<path fill="none" stroke="midnightblue" d="M573,-184.16C474.5,-172.85 201.84,-136.62 138.67,-76 126.22,-64.05 121.8,-44.44 120.3,-29.88"/>
<polygon fill="midnightblue" stroke="midnightblue" points="123.76,-29.27 119.62,-19.53 116.78,-29.73 123.76,-29.27"/>
</g>
<!-- Node6&#45;&gt;Node5 -->
<g id="edge10" class="edge">
<title>Node6&#45;&gt;Node5</title>
<path fill="none" stroke="midnightblue" d="M644.36,-188.76C721.86,-189.56 901.62,-186.57 939.67,-143 965.1,-113.88 961.86,-87.66 939.67,-56 922.71,-31.8 891.35,-20.57 864.41,-15.37"/>
<polygon fill="midnightblue" stroke="midnightblue" points="864.79,-11.89 854.34,-13.66 863.62,-18.79 864.79,-11.89"/>
</g>
<!-- Node7 -->
<g id="node7" class="node">
<title>Node7</title>
<g id="a_node7"><a xlink:title=" ">
<polygon fill="white" stroke="#bfbfbf" points="883.17,-56.5 883.17,-75.5 930.17,-75.5 930.17,-56.5 883.17,-56.5"/>
<text text-anchor="middle" x="906.67" y="-63.5" font-family="Helvetica,sans-Serif" font-size="10.00">vector</text>
</a>
</g>
</g>
<!-- Node6&#45;&gt;Node7 -->
<g id="edge7" class="edge">
<title>Node6&#45;&gt;Node7</title>
<path fill="none" stroke="midnightblue" d="M608.14,-179.4C607.67,-163.5 609.17,-129.49 628.67,-112 668.82,-75.99 815.72,-86.22 868.67,-76 870.13,-75.72 871.61,-75.42 873.11,-75.11"/>
<polygon fill="midnightblue" stroke="midnightblue" points="874.01,-78.49 883.02,-72.92 872.5,-71.66 874.01,-78.49"/>
</g>
<!-- Node8 -->
<g id="node8" class="node">
<title>Node8</title>
<g id="a_node8"><a xlink:title=" ">
<polygon fill="white" stroke="#bfbfbf" points="637.17,-118 637.17,-137 702.17,-137 702.17,-118 637.17,-118"/>
<text text-anchor="middle" x="669.67" y="-125" font-family="Helvetica,sans-Serif" font-size="10.00">functional</text>
</a>
</g>
</g>
<!-- Node6&#45;&gt;Node8 -->
<g id="edge8" class="edge">
<title>Node6&#45;&gt;Node8</title>
<path fill="none" stroke="midnightblue" d="M617.41,-179.48C626.83,-170.28 642.03,-155.46 653.62,-144.16"/>
<polygon fill="midnightblue" stroke="midnightblue" points="656.23,-146.5 660.95,-137.01 651.34,-141.49 656.23,-146.5"/>
</g>
<!-- Node9 -->
<g id="node9" class="node">
<title>Node9</title>
<g id="a_node9"><a xlink:title=" ">
<polygon fill="white" stroke="#bfbfbf" points="720.67,-118 720.67,-137 770.67,-137 770.67,-118 720.67,-118"/>
<text text-anchor="middle" x="745.67" y="-125" font-family="Helvetica,sans-Serif" font-size="10.00">chrono</text>
</a>
</g>
</g>
<!-- Node6&#45;&gt;Node9 -->
<g id="edge9" class="edge">
<title>Node6&#45;&gt;Node9</title>
<path fill="none" stroke="midnightblue" d="M628.3,-179.48C651.49,-169.4 690.29,-152.55 716.88,-141"/>
<polygon fill="midnightblue" stroke="midnightblue" points="718.3,-144.2 726.08,-137.01 715.51,-137.78 718.3,-144.2"/>
</g>
<!-- Node10 -->
<g id="node10" class="node">
<title>Node10</title>
<g id="a_node10"><a xlink:title=" ">
<polygon fill="white" stroke="#bfbfbf" points="789.17,-118 789.17,-137 930.17,-137 930.17,-118 789.17,-118"/>
<text text-anchor="middle" x="859.67" y="-125" font-family="Helvetica,sans-Serif" font-size="10.00">boost/numeric/odeint.hpp</text>
</a>
</g>
</g>
<!-- Node6&#45;&gt;Node10 -->
<g id="edge11" class="edge">
<title>Node6&#45;&gt;Node10</title>
<path fill="none" stroke="midnightblue" d="M644.37,-179.54C688.84,-168.99 764.92,-150.96 813.72,-139.39"/>
<polygon fill="midnightblue" stroke="midnightblue" points="814.77,-142.74 823.69,-137.03 813.15,-135.93 814.77,-142.74"/>
</g>
<!-- Node11 -->
<g id="node11" class="node">
<title>Node11</title>
<g id="a_node11"><a xlink:href="vehicle__info_8hpp.html" target="_top" xlink:title="Vehicle properties such as mass, intertia matrix, motor thrust curves, etc.">
<polygon fill="white" stroke="black" points="729.17,-56.5 729.17,-75.5 826.17,-75.5 826.17,-56.5 729.17,-56.5"/>
<text text-anchor="middle" x="777.67" y="-63.5" font-family="Helvetica,sans-Serif" font-size="10.00">vehicle_info.hpp</text>
</a>
</g>
</g>
<!-- Node6&#45;&gt;Node11 -->
<g id="edge12" class="edge">
<title>Node6&#45;&gt;Node11</title>
<path fill="none" stroke="midnightblue" d="M603.22,-179.45C594.27,-164.21 578.94,-132.06 594.67,-112 602.59,-101.89 669.65,-87.25 720.32,-77.44"/>
<polygon fill="midnightblue" stroke="midnightblue" points="721.05,-80.87 730.21,-75.55 719.73,-73.99 721.05,-80.87"/>
</g>
<!-- Node12 -->
<g id="node12" class="node">
<title>Node12</title>
<g id="a_node12"><a xlink:href="piecewise__polynomial__trajectory_8hpp.html" target="_top" xlink:title="Piecewise polynomial minimu&#45;jerk trajectory computed offline through a MATLAB script.">
<polygon fill="white" stroke="black" points="417.17,-112.5 417.17,-142.5 542.17,-142.5 542.17,-112.5 417.17,-112.5"/>
<text text-anchor="start" x="425.17" y="-130.5" font-family="Helvetica,sans-Serif" font-size="10.00">piecewise_polynomial</text>
<text text-anchor="middle" x="479.67" y="-119.5" font-family="Helvetica,sans-Serif" font-size="10.00">_trajectory.hpp</text>
</a>
</g>
</g>
<!-- Node6&#45;&gt;Node12 -->
<g id="edge15" class="edge">
<title>Node6&#45;&gt;Node12</title>
<path fill="none" stroke="midnightblue" d="M590.19,-179.48C571.74,-170.96 542.8,-157.62 519.17,-146.72"/>
<polygon fill="midnightblue" stroke="midnightblue" points="520.62,-143.53 510.07,-142.52 517.69,-149.89 520.62,-143.53"/>
</g>
<!-- Node11&#45;&gt;Node2 -->
<g id="edge13" class="edge">
<title>Node11&#45;&gt;Node2</title>
<path fill="none" stroke="midnightblue" d="M728.97,-57.16C725.83,-56.74 722.71,-56.35 719.67,-56 504.55,-31.28 244.41,-17.09 153.2,-12.58"/>
<polygon fill="midnightblue" stroke="midnightblue" points="153.34,-9.09 143.18,-12.09 153,-16.08 153.34,-9.09"/>
</g>
<!-- Node11&#45;&gt;Node5 -->
<g id="edge14" class="edge">
<title>Node11&#45;&gt;Node5</title>
<path fill="none" stroke="midnightblue" d="M783.95,-56.08C789.31,-48.46 797.19,-37.26 803.75,-27.94"/>
<polygon fill="midnightblue" stroke="midnightblue" points="806.62,-29.94 809.51,-19.75 800.89,-25.91 806.62,-29.94"/>
</g>
<!-- Node12&#45;&gt;Node4 -->
<g id="edge17" class="edge">
<title>Node12&#45;&gt;Node4</title>
<path fill="none" stroke="midnightblue" d="M416.94,-116.84C362.69,-108.1 281.99,-94.14 202.21,-75.93"/>
<polygon fill="midnightblue" stroke="midnightblue" points="202.51,-72.4 191.98,-73.57 200.94,-79.22 202.51,-72.4"/>
</g>
<!-- Node12&#45;&gt;Node5 -->
<g id="edge21" class="edge">
<title>Node12&#45;&gt;Node5</title>
<path fill="none" stroke="midnightblue" d="M542.27,-118.67C643.14,-105.92 830.89,-81.51 835.67,-76 847.35,-62.54 838.31,-42.36 828.91,-28.06"/>
<polygon fill="midnightblue" stroke="midnightblue" points="831.56,-25.75 822.91,-19.64 825.87,-29.81 831.56,-25.75"/>
</g>
<!-- Node12&#45;&gt;Node7 -->
<g id="edge16" class="edge">
<title>Node12&#45;&gt;Node7</title>
<path fill="none" stroke="midnightblue" d="M542.41,-118.53C648.36,-105.04 852.84,-78.89 868.67,-76 870.13,-75.73 871.62,-75.45 873.12,-75.14"/>
<polygon fill="midnightblue" stroke="midnightblue" points="874,-78.53 883.03,-73 872.52,-71.69 874,-78.53"/>
</g>
<!-- Node13 -->
<g id="node13" class="node">
<title>Node13</title>
<g id="a_node13"><a xlink:title=" ">
<polygon fill="white" stroke="#bfbfbf" points="379.17,-56.5 379.17,-75.5 434.17,-75.5 434.17,-56.5 379.17,-56.5"/>
<text text-anchor="middle" x="406.67" y="-63.5" font-family="Helvetica,sans-Serif" font-size="10.00">fstream</text>
</a>
</g>
</g>
<!-- Node12&#45;&gt;Node13 -->
<g id="edge18" class="edge">
<title>Node12&#45;&gt;Node13</title>
<path fill="none" stroke="midnightblue" d="M462.37,-112.4C451.22,-103.31 436.72,-91.49 425.31,-82.19"/>
<polygon fill="midnightblue" stroke="midnightblue" points="427.26,-79.26 417.29,-75.66 422.83,-84.69 427.26,-79.26"/>
</g>
<!-- Node14 -->
<g id="node14" class="node">
<title>Node14</title>
<g id="a_node14"><a xlink:title=" ">
<polygon fill="white" stroke="#bfbfbf" points="452.67,-56.5 452.67,-75.5 512.67,-75.5 512.67,-56.5 452.67,-56.5"/>
<text text-anchor="middle" x="482.67" y="-63.5" font-family="Helvetica,sans-Serif" font-size="10.00">iostream</text>
</a>
</g>
</g>
<!-- Node12&#45;&gt;Node14 -->
<g id="edge19" class="edge">
<title>Node12&#45;&gt;Node14</title>
<path fill="none" stroke="midnightblue" d="M480.38,-112.4C480.78,-104.47 481.29,-94.46 481.72,-85.86"/>
<polygon fill="midnightblue" stroke="midnightblue" points="485.23,-85.82 482.23,-75.66 478.23,-85.47 485.23,-85.82"/>
</g>
<!-- Node15 -->
<g id="node15" class="node">
<title>Node15</title>
<g id="a_node15"><a xlink:title=" ">
<polygon fill="white" stroke="#bfbfbf" points="531.17,-56.5 531.17,-75.5 582.17,-75.5 582.17,-56.5 531.17,-56.5"/>
<text text-anchor="middle" x="556.67" y="-63.5" font-family="Helvetica,sans-Serif" font-size="10.00">math.h</text>
</a>
</g>
</g>
<!-- Node12&#45;&gt;Node15 -->
<g id="edge20" class="edge">
<title>Node12&#45;&gt;Node15</title>
<path fill="none" stroke="midnightblue" d="M497.92,-112.4C509.8,-103.22 525.28,-91.26 537.36,-81.92"/>
<polygon fill="midnightblue" stroke="midnightblue" points="539.69,-84.54 545.47,-75.66 535.41,-79 539.69,-84.54"/>
</g>
<!-- Node16 -->
<g id="node16" class="node">
<title>Node16</title>
<g id="a_node16"><a xlink:title=" ">
<polygon fill="white" stroke="#bfbfbf" points="600.67,-56.5 600.67,-75.5 710.67,-75.5 710.67,-56.5 600.67,-56.5"/>
<text text-anchor="middle" x="655.67" y="-63.5" font-family="Helvetica,sans-Serif" font-size="10.00">nlohmann/json.hpp</text>
</a>
</g>
</g>
<!-- Node12&#45;&gt;Node16 -->
<g id="edge22" class="edge">
<title>Node12&#45;&gt;Node16</title>
<path fill="none" stroke="midnightblue" d="M521.38,-112.4C551.66,-102.16 592.16,-88.47 620.74,-78.81"/>
<polygon fill="midnightblue" stroke="midnightblue" points="621.97,-82.09 630.32,-75.57 619.72,-75.46 621.97,-82.09"/>
</g>
<!-- Node17 -->
<g id="node17" class="node">
<title>Node17</title>
<g id="a_node17"><a xlink:href="user__defined__trajectory_8hpp.html" target="_top" xlink:title="Class that contains the common members that each type of user&#45;defined trajectory class will inherit.">
<polygon fill="white" stroke="black" points="210.17,-56.5 210.17,-75.5 361.17,-75.5 361.17,-56.5 210.17,-56.5"/>
<text text-anchor="middle" x="285.67" y="-63.5" font-family="Helvetica,sans-Serif" font-size="10.00">user_defined_trajectory.hpp</text>
</a>
</g>
</g>
<!-- Node12&#45;&gt;Node17 -->
<g id="edge23" class="edge">
<title>Node12&#45;&gt;Node17</title>
<path fill="none" stroke="midnightblue" d="M433.7,-112.4C400.03,-102.07 354.89,-88.23 323.35,-78.56"/>
<polygon fill="midnightblue" stroke="midnightblue" points="324.2,-75.16 313.62,-75.57 322.15,-81.85 324.2,-75.16"/>
</g>
<!-- Node17&#45;&gt;Node2 -->
<g id="edge24" class="edge">
<title>Node17&#45;&gt;Node2</title>
<path fill="none" stroke="midnightblue" d="M259.37,-56.44C230.58,-47.08 184.35,-32.04 153.03,-21.85"/>
<polygon fill="midnightblue" stroke="midnightblue" points="154.02,-18.49 143.43,-18.73 151.86,-25.15 154.02,-18.49"/>
</g>
<!-- Node17&#45;&gt;Node5 -->
<g id="edge25" class="edge">
<title>Node17&#45;&gt;Node5</title>
<path fill="none" stroke="midnightblue" d="M361.21,-56.98C364.41,-56.65 367.57,-56.32 370.67,-56 514.74,-41.09 685.1,-24.02 766.96,-15.85"/>
<polygon fill="midnightblue" stroke="midnightblue" points="767.37,-19.33 776.97,-14.85 766.68,-12.36 767.37,-19.33"/>
</g>
<!-- Node18&#45;&gt;Node2 -->
<g id="edge27" class="edge">
<title>Node18&#45;&gt;Node2</title>
<path fill="none" stroke="midnightblue" d="M80.43,-179.18C70.51,-157.24 48.08,-98.87 67.67,-56 73.45,-43.36 84.72,-32.91 95.3,-25.27"/>
<polygon fill="midnightblue" stroke="midnightblue" points="97.52,-28 103.89,-19.53 93.63,-22.18 97.52,-28"/>
</g>
<!-- Node18&#45;&gt;Node3 -->
<g id="edge28" class="edge">
<title>Node18&#45;&gt;Node3</title>
<path fill="none" stroke="midnightblue" d="M92.84,-179.48C101.56,-170.37 115.57,-155.74 126.36,-144.48"/>
<polygon fill="midnightblue" stroke="midnightblue" points="129.13,-146.65 133.52,-137.01 124.07,-141.81 129.13,-146.65"/>
</g>
<!-- Node18&#45;&gt;Node5 -->
<g id="edge29" class="edge">
<title>Node18&#45;&gt;Node5</title>
<path fill="none" stroke="midnightblue" d="M84.9,-179.25C86.12,-154.12 93.56,-81.86 138.67,-56 192.75,-25 620.24,-14.5 766.66,-11.79"/>
<polygon fill="midnightblue" stroke="midnightblue" points="766.78,-15.29 776.71,-11.61 766.65,-8.29 766.78,-15.29"/>
</g>
</g>
</svg>
