<?xml version="1.0" encoding="UTF-8" standalone="no"?>
<!DOCTYPE svg PUBLIC "-//W3C//DTD SVG 1.1//EN"
 "http://www.w3.org/Graphics/SVG/1.1/DTD/svg11.dtd">
<!-- Generated by graphviz version 2.43.0 (0)
 -->
<!-- Title: /mnt/c/Users/siddh/Onedrive/Desktop/ACSL&#45;flightstack/include/flightstack/control/pid/pid.hpp Pages: 1 -->
<!--zoomable 296 -->
<svg id="main" version="1.1" xmlns="http://www.w3.org/2000/svg" xmlns:xlink="http://www.w3.org/1999/xlink" xml:space="preserve" onload="init(evt)">
<style type="text/css"><![CDATA[
.edge:hover path { stroke: red; }
.edge:hover polygon { stroke: red; fill: red; }
]]></style>
<script type="text/javascript"><![CDATA[
var edges = document.getElementsByTagName('g');
if (edges && edges.length) {
  for (var i=0;i<edges.length;i++) {
    if (edges[i].id.substr(0,4)=='edge') {
      edges[i].setAttribute('class','edge');
    }
  }
}
]]></script>
        <defs>
                <circle id="rim" cx="0" cy="0" r="7"/>
                <circle id="rim2" cx="0" cy="0" r="3.5"/>
                <g id="zoomPlus">
                        <use xlink:href="#rim" fill="#404040">
                                <set attributeName="fill" to="#808080" begin="zoomplus.mouseover" end="zoomplus.mouseout"/>
                        </use>
                        <path d="M-4,0h8M0,-4v8" fill="none" stroke="white" stroke-width="1.5" pointer-events="none"/>
                </g>
                <g id="zoomMin">
                        <use xlink:href="#rim" fill="#404040">
                                <set attributeName="fill" to="#808080" begin="zoomminus.mouseover" end="zoomminus.mouseout"/>
                        </use>
                        <path d="M-4,0h8" fill="none" stroke="white" stroke-width="1.5" pointer-events="none"/>
                </g>
                <g id="dirArrow">
                        <path fill="none" stroke="white" stroke-width="1.5" d="M0,-3.0v7 M-2.5,-0.5L0,-3.0L2.5,-0.5"/>
                </g>
               <g id="resetDef">
                       <use xlink:href="#rim2" fill="#404040">
                               <set attributeName="fill" to="#808080" begin="reset.mouseover" end="reset.mouseout"/>
                       </use>
               </g>
        </defs>

<script type="text/javascript">
var viewWidth = 974;
var viewHeight = 296;
var sectionId = 'dynsection-0';
</script>
<script xlink:href="svgpan.js"/>
<svg id="graph" class="graph">
<g id="viewport">
<title>/mnt/c/Users/siddh/Onedrive/Desktop/ACSL&#45;flightstack/include/flightstack/control/pid/pid.hpp</title>
<polygon fill="white" stroke="transparent" points="-4,4 -4,-292 970.45,-292 970.45,4 -4,4"/>
<!-- Node1 -->
<g id="node1" class="node">
<title>Node1</title>
<g id="a_node1"><a xlink:title="Implementation of the PID controller.">
<polygon fill="#bfbfbf" stroke="black" points="102.69,-235.5 102.69,-287.5 266.69,-287.5 266.69,-235.5 102.69,-235.5"/>
<text text-anchor="start" x="110.69" y="-275.5" font-family="Helvetica,sans-Serif" font-size="10.00">/mnt/c/Users/siddh</text>
<text text-anchor="start" x="110.69" y="-264.5" font-family="Helvetica,sans-Serif" font-size="10.00">/Onedrive/Desktop/ACSL</text>
<text text-anchor="start" x="110.69" y="-253.5" font-family="Helvetica,sans-Serif" font-size="10.00">&#45;flightstack/include/flightstack</text>
<text text-anchor="middle" x="184.69" y="-242.5" font-family="Helvetica,sans-Serif" font-size="10.00">/control/pid/pid.hpp</text>
</a>
</g>
</g>
<!-- Node2 -->
<g id="node2" class="node">
<title>Node2</title>
<g id="a_node2"><a xlink:title=" ">
<polygon fill="white" stroke="#bfbfbf" points="95.19,-0.5 95.19,-19.5 142.19,-19.5 142.19,-0.5 95.19,-0.5"/>
<text text-anchor="middle" x="118.69" y="-7.5" font-family="Helvetica,sans-Serif" font-size="10.00">cmath</text>
</a>
</g>
</g>
<!-- Node1&#45;&gt;Node2 -->
<g id="edge1" class="edge">
<title>Node1&#45;&gt;Node2</title>
<path fill="none" stroke="midnightblue" d="M102.67,-246.38C75.81,-237.44 48.76,-222.84 32.69,-199 11.96,-168.26 -39.47,-206.74 56.69,-56 65.15,-42.74 79.03,-32.12 91.51,-24.54"/>
<polygon fill="midnightblue" stroke="midnightblue" points="93.3,-27.55 100.26,-19.56 89.84,-21.47 93.3,-27.55"/>
</g>
<!-- Node3 -->
<g id="node3" class="node">
<title>Node3</title>
<g id="a_node3"><a xlink:title=" ">
<polygon fill="white" stroke="#bfbfbf" points="108.69,-118 108.69,-137 172.69,-137 172.69,-118 108.69,-118"/>
<text text-anchor="middle" x="140.69" y="-125" font-family="Helvetica,sans-Serif" font-size="10.00">algorithm</text>
</a>
</g>
</g>
<!-- Node1&#45;&gt;Node3 -->
<g id="edge2" class="edge">
<title>Node1&#45;&gt;Node3</title>
<path fill="none" stroke="midnightblue" d="M176.31,-235.36C167.66,-209.4 154.37,-169.54 146.7,-146.55"/>
<polygon fill="midnightblue" stroke="midnightblue" points="150.01,-145.39 143.53,-137.01 143.37,-147.61 150.01,-145.39"/>
</g>
<!-- Node4 -->
<g id="node4" class="node">
<title>Node4</title>
<g id="a_node4"><a xlink:title=" ">
<polygon fill="white" stroke="#bfbfbf" points="146.69,-56.5 146.69,-75.5 190.69,-75.5 190.69,-56.5 146.69,-56.5"/>
<text text-anchor="middle" x="168.69" y="-63.5" font-family="Helvetica,sans-Serif" font-size="10.00">string</text>
</a>
</g>
</g>
<!-- Node1&#45;&gt;Node4 -->
<g id="edge3" class="edge">
<title>Node1&#45;&gt;Node4</title>
<path fill="none" stroke="midnightblue" d="M186.16,-235.37C187.45,-205.7 188.21,-154.96 181.69,-112 180.33,-103.06 177.7,-93.39 175.15,-85.31"/>
<polygon fill="midnightblue" stroke="midnightblue" points="178.47,-84.19 171.98,-75.81 171.83,-86.41 178.47,-84.19"/>
</g>
<!-- Node5 -->
<g id="node5" class="node">
<title>Node5</title>
<g id="a_node5"><a xlink:title=" ">
<polygon fill="white" stroke="#bfbfbf" points="776.19,-0.5 776.19,-19.5 853.19,-19.5 853.19,-0.5 776.19,-0.5"/>
<text text-anchor="middle" x="814.69" y="-7.5" font-family="Helvetica,sans-Serif" font-size="10.00">Eigen/Dense</text>
</a>
</g>
</g>
<!-- Node1&#45;&gt;Node5 -->
<g id="edge4" class="edge">
<title>Node1&#45;&gt;Node5</title>
<path fill="none" stroke="midnightblue" d="M266.97,-261.11C448.33,-260.5 873.33,-247.68 960.69,-143 969.03,-133 968.05,-69.35 957.69,-56 935.59,-27.52 895.55,-16.68 863.44,-12.74"/>
<polygon fill="midnightblue" stroke="midnightblue" points="863.64,-9.24 853.33,-11.68 862.91,-16.2 863.64,-9.24"/>
</g>
<!-- Node6 -->
<g id="node6" class="node">
<title>Node6</title>
<g id="a_node6"><a xlink:href="control_8hpp.html" target="_top" xlink:title="General class that contains common members used by most of the control algorithms.">
<polygon fill="white" stroke="black" points="572.19,-179.5 572.19,-198.5 643.19,-198.5 643.19,-179.5 572.19,-179.5"/>
<text text-anchor="middle" x="607.69" y="-186.5" font-family="Helvetica,sans-Serif" font-size="10.00">control.hpp</text>
</a>
</g>
</g>
<!-- Node1&#45;&gt;Node6 -->
<g id="edge5" class="edge">
<title>Node1&#45;&gt;Node6</title>
<path fill="none" stroke="midnightblue" d="M266.75,-246.82C354.8,-232.15 491.47,-209.37 562.06,-197.61"/>
<polygon fill="midnightblue" stroke="midnightblue" points="562.69,-201.05 571.98,-195.95 561.54,-194.14 562.69,-201.05"/>
</g>
<!-- Node18 -->
<g id="node18" class="node">
<title>Node18</title>
<g id="a_node18"><a xlink:href="pid__gains_8hpp.html" target="_top" xlink:title="Tuning gains of the PID controller.">
<polygon fill="white" stroke="black" points="41.69,-179.5 41.69,-198.5 125.69,-198.5 125.69,-179.5 41.69,-179.5"/>
<text text-anchor="middle" x="83.69" y="-186.5" font-family="Helvetica,sans-Serif" font-size="10.00">pid_gains.hpp</text>
</a>
</g>
</g>
<!-- Node1&#45;&gt;Node18 -->
<g id="edge26" class="edge">
<title>Node1&#45;&gt;Node18</title>
<path fill="none" stroke="midnightblue" d="M148.8,-235.45C134.01,-225.13 117.4,-213.53 104.66,-204.64"/>
<polygon fill="midnightblue" stroke="midnightblue" points="106.35,-201.55 96.15,-198.7 102.34,-207.29 106.35,-201.55"/>
</g>
<!-- Node6&#45;&gt;Node2 -->
<g id="edge6" class="edge">
<title>Node6&#45;&gt;Node2</title>
<path fill="none" stroke="midnightblue" d="M572.02,-184.16C473.52,-172.85 200.86,-136.62 137.69,-76 125.24,-64.05 120.82,-44.44 119.31,-29.88"/>
<polygon fill="midnightblue" stroke="midnightblue" points="122.78,-29.27 118.63,-19.53 115.8,-29.73 122.78,-29.27"/>
</g>
<!-- Node6&#45;&gt;Node5 -->
<g id="edge10" class="edge">
<title>Node6&#45;&gt;Node5</title>
<path fill="none" stroke="midnightblue" d="M643.38,-188.76C720.88,-189.56 900.64,-186.57 938.69,-143 964.12,-113.88 960.88,-87.66 938.69,-56 921.73,-31.8 890.37,-20.57 863.43,-15.37"/>
<polygon fill="midnightblue" stroke="midnightblue" points="863.81,-11.89 853.36,-13.66 862.64,-18.79 863.81,-11.89"/>
</g>
<!-- Node7 -->
<g id="node7" class="node">
<title>Node7</title>
<g id="a_node7"><a xlink:title=" ">
<polygon fill="white" stroke="#bfbfbf" points="882.19,-56.5 882.19,-75.5 929.19,-75.5 929.19,-56.5 882.19,-56.5"/>
<text text-anchor="middle" x="905.69" y="-63.5" font-family="Helvetica,sans-Serif" font-size="10.00">vector</text>
</a>
</g>
</g>
<!-- Node6&#45;&gt;Node7 -->
<g id="edge7" class="edge">
<title>Node6&#45;&gt;Node7</title>
<path fill="none" stroke="midnightblue" d="M607.16,-179.4C606.69,-163.5 608.19,-129.49 627.69,-112 667.83,-75.99 814.74,-86.22 867.69,-76 869.14,-75.72 870.63,-75.42 872.13,-75.11"/>
<polygon fill="midnightblue" stroke="midnightblue" points="873.03,-78.49 882.04,-72.92 871.52,-71.66 873.03,-78.49"/>
</g>
<!-- Node8 -->
<g id="node8" class="node">
<title>Node8</title>
<g id="a_node8"><a xlink:title=" ">
<polygon fill="white" stroke="#bfbfbf" points="636.19,-118 636.19,-137 701.19,-137 701.19,-118 636.19,-118"/>
<text text-anchor="middle" x="668.69" y="-125" font-family="Helvetica,sans-Serif" font-size="10.00">functional</text>
</a>
</g>
</g>
<!-- Node6&#45;&gt;Node8 -->
<g id="edge8" class="edge">
<title>Node6&#45;&gt;Node8</title>
<path fill="none" stroke="midnightblue" d="M616.43,-179.48C625.85,-170.28 641.05,-155.46 652.64,-144.16"/>
<polygon fill="midnightblue" stroke="midnightblue" points="655.25,-146.5 659.96,-137.01 650.36,-141.49 655.25,-146.5"/>
</g>
<!-- Node9 -->
<g id="node9" class="node">
<title>Node9</title>
<g id="a_node9"><a xlink:title=" ">
<polygon fill="white" stroke="#bfbfbf" points="719.69,-118 719.69,-137 769.69,-137 769.69,-118 719.69,-118"/>
<text text-anchor="middle" x="744.69" y="-125" font-family="Helvetica,sans-Serif" font-size="10.00">chrono</text>
</a>
</g>
</g>
<!-- Node6&#45;&gt;Node9 -->
<g id="edge9" class="edge">
<title>Node6&#45;&gt;Node9</title>
<path fill="none" stroke="midnightblue" d="M627.32,-179.48C650.51,-169.4 689.31,-152.55 715.9,-141"/>
<polygon fill="midnightblue" stroke="midnightblue" points="717.32,-144.2 725.1,-137.01 714.53,-137.78 717.32,-144.2"/>
</g>
<!-- Node10 -->
<g id="node10" class="node">
<title>Node10</title>
<g id="a_node10"><a xlink:title=" ">
<polygon fill="white" stroke="#bfbfbf" points="788.19,-118 788.19,-137 929.19,-137 929.19,-118 788.19,-118"/>
<text text-anchor="middle" x="858.69" y="-125" font-family="Helvetica,sans-Serif" font-size="10.00">boost/numeric/odeint.hpp</text>
</a>
</g>
</g>
<!-- Node6&#45;&gt;Node10 -->
<g id="edge11" class="edge">
<title>Node6&#45;&gt;Node10</title>
<path fill="none" stroke="midnightblue" d="M643.38,-179.54C687.86,-168.99 763.94,-150.96 812.73,-139.39"/>
<polygon fill="midnightblue" stroke="midnightblue" points="813.79,-142.74 822.71,-137.03 812.17,-135.93 813.79,-142.74"/>
</g>
<!-- Node11 -->
<g id="node11" class="node">
<title>Node11</title>
<g id="a_node11"><a xlink:href="vehicle__info_8hpp.html" target="_top" xlink:title="Vehicle properties such as mass, intertia matrix, motor thrust curves, etc.">
<polygon fill="white" stroke="black" points="728.19,-56.5 728.19,-75.5 825.19,-75.5 825.19,-56.5 728.19,-56.5"/>
<text text-anchor="middle" x="776.69" y="-63.5" font-family="Helvetica,sans-Serif" font-size="10.00">vehicle_info.hpp</text>
</a>
</g>
</g>
<!-- Node6&#45;&gt;Node11 -->
<g id="edge12" class="edge">
<title>Node6&#45;&gt;Node11</title>
<path fill="none" stroke="midnightblue" d="M602.24,-179.45C593.29,-164.21 577.96,-132.06 593.69,-112 601.61,-101.89 668.67,-87.25 719.34,-77.44"/>
<polygon fill="midnightblue" stroke="midnightblue" points="720.07,-80.87 729.23,-75.55 718.75,-73.99 720.07,-80.87"/>
</g>
<!-- Node12 -->
<g id="node12" class="node">
<title>Node12</title>
<g id="a_node12"><a xlink:href="piecewise__polynomial__trajectory_8hpp.html" target="_top" xlink:title="Piecewise polynomial minimu&#45;jerk trajectory computed offline through a MATLAB script.">
<polygon fill="white" stroke="black" points="416.19,-112.5 416.19,-142.5 541.19,-142.5 541.19,-112.5 416.19,-112.5"/>
<text text-anchor="start" x="424.19" y="-130.5" font-family="Helvetica,sans-Serif" font-size="10.00">piecewise_polynomial</text>
<text text-anchor="middle" x="478.69" y="-119.5" font-family="Helvetica,sans-Serif" font-size="10.00">_trajectory.hpp</text>
</a>
</g>
</g>
<!-- Node6&#45;&gt;Node12 -->
<g id="edge15" class="edge">
<title>Node6&#45;&gt;Node12</title>
<path fill="none" stroke="midnightblue" d="M589.21,-179.48C570.75,-170.96 541.82,-157.62 518.19,-146.72"/>
<polygon fill="midnightblue" stroke="midnightblue" points="519.64,-143.53 509.09,-142.52 516.71,-149.89 519.64,-143.53"/>
</g>
<!-- Node11&#45;&gt;Node2 -->
<g id="edge13" class="edge">
<title>Node11&#45;&gt;Node2</title>
<path fill="none" stroke="midnightblue" d="M727.99,-57.16C724.85,-56.74 721.73,-56.35 718.69,-56 503.57,-31.28 243.43,-17.09 152.22,-12.58"/>
<polygon fill="midnightblue" stroke="midnightblue" points="152.35,-9.09 142.2,-12.09 152.01,-16.08 152.35,-9.09"/>
</g>
<!-- Node11&#45;&gt;Node5 -->
<g id="edge14" class="edge">
<title>Node11&#45;&gt;Node5</title>
<path fill="none" stroke="midnightblue" d="M782.96,-56.08C788.33,-48.46 796.21,-37.26 802.77,-27.94"/>
<polygon fill="midnightblue" stroke="midnightblue" points="805.64,-29.94 808.53,-19.75 799.91,-25.91 805.64,-29.94"/>
</g>
<!-- Node12&#45;&gt;Node4 -->
<g id="edge17" class="edge">
<title>Node12&#45;&gt;Node4</title>
<path fill="none" stroke="midnightblue" d="M415.96,-116.84C361.71,-108.1 281.01,-94.14 201.23,-75.93"/>
<polygon fill="midnightblue" stroke="midnightblue" points="201.53,-72.4 191,-73.57 199.96,-79.22 201.53,-72.4"/>
</g>
<!-- Node12&#45;&gt;Node5 -->
<g id="edge21" class="edge">
<title>Node12&#45;&gt;Node5</title>
<path fill="none" stroke="midnightblue" d="M541.29,-118.67C642.15,-105.92 829.91,-81.51 834.69,-76 846.37,-62.54 837.33,-42.36 827.93,-28.06"/>
<polygon fill="midnightblue" stroke="midnightblue" points="830.58,-25.75 821.92,-19.64 824.88,-29.81 830.58,-25.75"/>
</g>
<!-- Node12&#45;&gt;Node7 -->
<g id="edge16" class="edge">
<title>Node12&#45;&gt;Node7</title>
<path fill="none" stroke="midnightblue" d="M541.42,-118.53C647.38,-105.04 851.86,-78.89 867.69,-76 869.15,-75.73 870.63,-75.45 872.13,-75.14"/>
<polygon fill="midnightblue" stroke="midnightblue" points="873.02,-78.53 882.05,-73 871.54,-71.69 873.02,-78.53"/>
</g>
<!-- Node13 -->
<g id="node13" class="node">
<title>Node13</title>
<g id="a_node13"><a xlink:title=" ">
<polygon fill="white" stroke="#bfbfbf" points="378.19,-56.5 378.19,-75.5 433.19,-75.5 433.19,-56.5 378.19,-56.5"/>
<text text-anchor="middle" x="405.69" y="-63.5" font-family="Helvetica,sans-Serif" font-size="10.00">fstream</text>
</a>
</g>
</g>
<!-- Node12&#45;&gt;Node13 -->
<g id="edge18" class="edge">
<title>Node12&#45;&gt;Node13</title>
<path fill="none" stroke="midnightblue" d="M461.39,-112.4C450.23,-103.31 435.73,-91.49 424.33,-82.19"/>
<polygon fill="midnightblue" stroke="midnightblue" points="426.27,-79.26 416.31,-75.66 421.85,-84.69 426.27,-79.26"/>
</g>
<!-- Node14 -->
<g id="node14" class="node">
<title>Node14</title>
<g id="a_node14"><a xlink:title=" ">
<polygon fill="white" stroke="#bfbfbf" points="451.69,-56.5 451.69,-75.5 511.69,-75.5 511.69,-56.5 451.69,-56.5"/>
<text text-anchor="middle" x="481.69" y="-63.5" font-family="Helvetica,sans-Serif" font-size="10.00">iostream</text>
</a>
</g>
</g>
<!-- Node12&#45;&gt;Node14 -->
<g id="edge19" class="edge">
<title>Node12&#45;&gt;Node14</title>
<path fill="none" stroke="midnightblue" d="M479.4,-112.4C479.8,-104.47 480.3,-94.46 480.74,-85.86"/>
<polygon fill="midnightblue" stroke="midnightblue" points="484.24,-85.82 481.25,-75.66 477.25,-85.47 484.24,-85.82"/>
</g>
<!-- Node15 -->
<g id="node15" class="node">
<title>Node15</title>
<g id="a_node15"><a xlink:title=" ">
<polygon fill="white" stroke="#bfbfbf" points="530.19,-56.5 530.19,-75.5 581.19,-75.5 581.19,-56.5 530.19,-56.5"/>
<text text-anchor="middle" x="555.69" y="-63.5" font-family="Helvetica,sans-Serif" font-size="10.00">math.h</text>
</a>
</g>
</g>
<!-- Node12&#45;&gt;Node15 -->
<g id="edge20" class="edge">
<title>Node12&#45;&gt;Node15</title>
<path fill="none" stroke="midnightblue" d="M496.94,-112.4C508.82,-103.22 524.3,-91.26 536.38,-81.92"/>
<polygon fill="midnightblue" stroke="midnightblue" points="538.71,-84.54 544.48,-75.66 534.43,-79 538.71,-84.54"/>
</g>
<!-- Node16 -->
<g id="node16" class="node">
<title>Node16</title>
<g id="a_node16"><a xlink:title=" ">
<polygon fill="white" stroke="#bfbfbf" points="599.69,-56.5 599.69,-75.5 709.69,-75.5 709.69,-56.5 599.69,-56.5"/>
<text text-anchor="middle" x="654.69" y="-63.5" font-family="Helvetica,sans-Serif" font-size="10.00">nlohmann/json.hpp</text>
</a>
</g>
</g>
<!-- Node12&#45;&gt;Node16 -->
<g id="edge22" class="edge">
<title>Node12&#45;&gt;Node16</title>
<path fill="none" stroke="midnightblue" d="M520.4,-112.4C550.68,-102.16 591.18,-88.47 619.76,-78.81"/>
<polygon fill="midnightblue" stroke="midnightblue" points="620.98,-82.09 629.34,-75.57 618.74,-75.46 620.98,-82.09"/>
</g>
<!-- Node17 -->
<g id="node17" class="node">
<title>Node17</title>
<g id="a_node17"><a xlink:href="user__defined__trajectory_8hpp.html" target="_top" xlink:title="Class that contains the common members that each type of user&#45;defined trajectory class will inherit.">
<polygon fill="white" stroke="black" points="209.19,-56.5 209.19,-75.5 360.19,-75.5 360.19,-56.5 209.19,-56.5"/>
<text text-anchor="middle" x="284.69" y="-63.5" font-family="Helvetica,sans-Serif" font-size="10.00">user_defined_trajectory.hpp</text>
</a>
</g>
</g>
<!-- Node12&#45;&gt;Node17 -->
<g id="edge23" class="edge">
<title>Node12&#45;&gt;Node17</title>
<path fill="none" stroke="midnightblue" d="M432.71,-112.4C399.04,-102.07 353.91,-88.23 322.37,-78.56"/>
<polygon fill="midnightblue" stroke="midnightblue" points="323.22,-75.16 312.63,-75.57 321.17,-81.85 323.22,-75.16"/>
</g>
<!-- Node17&#45;&gt;Node2 -->
<g id="edge24" class="edge">
<title>Node17&#45;&gt;Node2</title>
<path fill="none" stroke="midnightblue" d="M258.39,-56.44C229.6,-47.08 183.37,-32.04 152.05,-21.85"/>
<polygon fill="midnightblue" stroke="midnightblue" points="153.04,-18.49 142.45,-18.73 150.87,-25.15 153.04,-18.49"/>
</g>
<!-- Node17&#45;&gt;Node5 -->
<g id="edge25" class="edge">
<title>Node17&#45;&gt;Node5</title>
<path fill="none" stroke="midnightblue" d="M360.23,-56.98C363.43,-56.65 366.59,-56.32 369.69,-56 513.76,-41.09 684.12,-24.02 765.98,-15.85"/>
<polygon fill="midnightblue" stroke="midnightblue" points="766.39,-19.33 775.99,-14.85 765.69,-12.36 766.39,-19.33"/>
</g>
<!-- Node18&#45;&gt;Node2 -->
<g id="edge27" class="edge">
<title>Node18&#45;&gt;Node2</title>
<path fill="none" stroke="midnightblue" d="M79.44,-179.18C69.52,-157.24 47.09,-98.87 66.69,-56 72.47,-43.36 83.74,-32.91 94.32,-25.27"/>
<polygon fill="midnightblue" stroke="midnightblue" points="96.54,-28 102.91,-19.53 92.65,-22.18 96.54,-28"/>
</g>
<!-- Node18&#45;&gt;Node3 -->
<g id="edge28" class="edge">
<title>Node18&#45;&gt;Node3</title>
<path fill="none" stroke="midnightblue" d="M91.86,-179.48C100.57,-170.37 114.59,-155.74 125.38,-144.48"/>
<polygon fill="midnightblue" stroke="midnightblue" points="128.15,-146.65 132.54,-137.01 123.09,-141.81 128.15,-146.65"/>
</g>
<!-- Node18&#45;&gt;Node5 -->
<g id="edge29" class="edge">
<title>Node18&#45;&gt;Node5</title>
<path fill="none" stroke="midnightblue" d="M83.92,-179.25C85.14,-154.12 92.58,-81.86 137.69,-56 191.77,-25 619.25,-14.5 765.68,-11.79"/>
<polygon fill="midnightblue" stroke="midnightblue" points="765.8,-15.29 775.73,-11.61 765.67,-8.29 765.8,-15.29"/>
</g>
</g>
</svg>
        <g id="navigator" transform="translate(0 0)" fill="#404254">
                <rect fill="#f2f5e9" fill-opacity="0.5" stroke="#606060" stroke-width=".5" x="0" y="0" width="60" height="60"/>
                <use id="zoomplus" xlink:href="#zoomPlus" x="17" y="9" onmousedown="handleZoom(evt,'in')"/>
                <use id="zoomminus" xlink:href="#zoomMin" x="42" y="9" onmousedown="handleZoom(evt,'out')"/>
                <use id="reset" xlink:href="#resetDef" x="30" y="36" onmousedown="handleReset()"/>
                <g id="arrowUp" xlink:href="#dirArrow" transform="translate(30 24)" onmousedown="handlePan(0,-1)">
                  <use xlink:href="#rim" fill="#404040">
                        <set attributeName="fill" to="#808080" begin="arrowUp.mouseover" end="arrowUp.mouseout"/>
                  </use>
                  <path fill="none" stroke="white" stroke-width="1.5" d="M0,-3.0v7 M-2.5,-0.5L0,-3.0L2.5,-0.5"/>
                </g>
                <g id="arrowRight" xlink:href="#dirArrow" transform="rotate(90) translate(36 -43)" onmousedown="handlePan(1,0)">
                  <use xlink:href="#rim" fill="#404040">
                        <set attributeName="fill" to="#808080" begin="arrowRight.mouseover" end="arrowRight.mouseout"/>
                  </use>
                  <path fill="none" stroke="white" stroke-width="1.5" d="M0,-3.0v7 M-2.5,-0.5L0,-3.0L2.5,-0.5"/>
                </g>
                <g id="arrowDown" xlink:href="#dirArrow" transform="rotate(180) translate(-30 -48)" onmousedown="handlePan(0,1)">
                  <use xlink:href="#rim" fill="#404040">
                        <set attributeName="fill" to="#808080" begin="arrowDown.mouseover" end="arrowDown.mouseout"/>
                  </use>
                  <path fill="none" stroke="white" stroke-width="1.5" d="M0,-3.0v7 M-2.5,-0.5L0,-3.0L2.5,-0.5"/>
                </g>
                <g id="arrowLeft" xlink:href="#dirArrow" transform="rotate(270) translate(-36 17)" onmousedown="handlePan(-1,0)">
                  <use xlink:href="#rim" fill="#404040">
                        <set attributeName="fill" to="#808080" begin="arrowLeft.mouseover" end="arrowLeft.mouseout"/>
                  </use>
                  <path fill="none" stroke="white" stroke-width="1.5" d="M0,-3.0v7 M-2.5,-0.5L0,-3.0L2.5,-0.5"/>
                </g>
        </g>
        <svg viewBox="0 0 15 15" width="100%" height="30px" preserveAspectRatio="xMaxYMin meet">
         <g id="arrow_out" transform="scale(0.3 0.3)">
          <a xlink:href="pid_8hpp__incl_org.svg" target="_base">
           <rect id="button" ry="5" rx="5" y="6" x="6" height="38" width="38"
                fill="#f2f5e9" fill-opacity="0.5" stroke="#606060" stroke-width="1.0"/>
           <path id="arrow"
             d="M 11.500037,31.436501 C 11.940474,20.09759 22.043105,11.32322 32.158766,21.979434 L 37.068811,17.246167 C 37.068811,17.246167 37.088388,32 37.088388,32 L 22.160133,31.978069 C 22.160133,31.978069 26.997745,27.140456 26.997745,27.140456 C 18.528582,18.264221 13.291696,25.230495 11.500037,31.436501 z"
             style="fill:#404040;"/>
          </a>
         </g>
        </svg>
</svg>
