<?xml version="1.0" encoding="UTF-8" standalone="no"?>
<!DOCTYPE svg PUBLIC "-//W3C//DTD SVG 1.1//EN"
 "http://www.w3.org/Graphics/SVG/1.1/DTD/svg11.dtd">
<!-- Generated by graphviz version 2.43.0 (0)
 -->
<!-- Title: /mnt/c/Users/siddh/Onedrive/Desktop/ACSL&#45;flightstack/include/flightstack/utils/print_helpers.hpp Pages: 1 -->
<svg width="387pt" height="117pt"
 viewBox="0.00 0.00 386.50 117.00" xmlns="http://www.w3.org/2000/svg" xmlns:xlink="http://www.w3.org/1999/xlink">
<g id="graph0" class="graph" transform="scale(1 1) rotate(0) translate(4 113)">
<title>/mnt/c/Users/siddh/Onedrive/Desktop/ACSL&#45;flightstack/include/flightstack/utils/print_helpers.hpp</title>
<polygon fill="white" stroke="transparent" points="-4,4 -4,-113 382.5,-113 382.5,4 -4,4"/>
<!-- Node1 -->
<g id="node1" class="node">
<title>Node1</title>
<g id="a_node1"><a xlink:title="Inline functions for all the classes of the flightstack to use.">
<polygon fill="#bfbfbf" stroke="black" points="86,-56.5 86,-108.5 250,-108.5 250,-56.5 86,-56.5"/>
<text text-anchor="start" x="94" y="-96.5" font-family="Helvetica,sans-Serif" font-size="10.00">/mnt/c/Users/siddh</text>
<text text-anchor="start" x="94" y="-85.5" font-family="Helvetica,sans-Serif" font-size="10.00">/Onedrive/Desktop/ACSL</text>
<text text-anchor="start" x="94" y="-74.5" font-family="Helvetica,sans-Serif" font-size="10.00">&#45;flightstack/include/flightstack</text>
<text text-anchor="middle" x="168" y="-63.5" font-family="Helvetica,sans-Serif" font-size="10.00">/utils/print_helpers.hpp</text>
</a>
</g>
</g>
<!-- Node2 -->
<g id="node2" class="node">
<title>Node2</title>
<g id="a_node2"><a xlink:title=" ">
<polygon fill="white" stroke="#bfbfbf" points="0,-0.5 0,-19.5 60,-19.5 60,-0.5 0,-0.5"/>
<text text-anchor="middle" x="30" y="-7.5" font-family="Helvetica,sans-Serif" font-size="10.00">iostream</text>
</a>
</g>
</g>
<!-- Node1&#45;&gt;Node2 -->
<g id="edge1" class="edge">
<title>Node1&#45;&gt;Node2</title>
<path fill="none" stroke="midnightblue" d="M118.96,-56.45C97.65,-45.56 73.56,-33.25 55.83,-24.2"/>
<polygon fill="midnightblue" stroke="midnightblue" points="57.19,-20.96 46.69,-19.53 54,-27.19 57.19,-20.96"/>
</g>
<!-- Node3 -->
<g id="node3" class="node">
<title>Node3</title>
<g id="a_node3"><a xlink:title=" ">
<polygon fill="white" stroke="#bfbfbf" points="78,-0.5 78,-19.5 122,-19.5 122,-0.5 78,-0.5"/>
<text text-anchor="middle" x="100" y="-7.5" font-family="Helvetica,sans-Serif" font-size="10.00">string</text>
</a>
</g>
</g>
<!-- Node1&#45;&gt;Node3 -->
<g id="edge2" class="edge">
<title>Node1&#45;&gt;Node3</title>
<path fill="none" stroke="midnightblue" d="M143.83,-56.45C134.36,-46.63 123.78,-35.66 115.39,-26.95"/>
<polygon fill="midnightblue" stroke="midnightblue" points="117.85,-24.46 108.39,-19.7 112.81,-29.32 117.85,-24.46"/>
</g>
<!-- Node4 -->
<g id="node4" class="node">
<title>Node4</title>
<g id="a_node4"><a xlink:title=" ">
<polygon fill="white" stroke="#bfbfbf" points="140,-0.5 140,-19.5 196,-19.5 196,-0.5 140,-0.5"/>
<text text-anchor="middle" x="168" y="-7.5" font-family="Helvetica,sans-Serif" font-size="10.00">sstream</text>
</a>
</g>
</g>
<!-- Node1&#45;&gt;Node4 -->
<g id="edge3" class="edge">
<title>Node1&#45;&gt;Node4</title>
<path fill="none" stroke="midnightblue" d="M168,-56.45C168,-47.73 168,-38.1 168,-29.96"/>
<polygon fill="midnightblue" stroke="midnightblue" points="171.5,-29.7 168,-19.7 164.5,-29.7 171.5,-29.7"/>
</g>
<!-- Node5 -->
<g id="node5" class="node">
<title>Node5</title>
<g id="a_node5"><a xlink:title=" ">
<polygon fill="white" stroke="#bfbfbf" points="214.5,-0.5 214.5,-19.5 283.5,-19.5 283.5,-0.5 214.5,-0.5"/>
<text text-anchor="middle" x="249" y="-7.5" font-family="Helvetica,sans-Serif" font-size="10.00">type_traits</text>
</a>
</g>
</g>
<!-- Node1&#45;&gt;Node5 -->
<g id="edge4" class="edge">
<title>Node1&#45;&gt;Node5</title>
<path fill="none" stroke="midnightblue" d="M196.79,-56.45C208.3,-46.43 221.19,-35.21 231.28,-26.42"/>
<polygon fill="midnightblue" stroke="midnightblue" points="233.76,-28.9 239.01,-19.7 229.17,-23.62 233.76,-28.9"/>
</g>
<!-- Node6 -->
<g id="node6" class="node">
<title>Node6</title>
<g id="a_node6"><a xlink:title=" ">
<polygon fill="white" stroke="#bfbfbf" points="301.5,-0.5 301.5,-19.5 378.5,-19.5 378.5,-0.5 301.5,-0.5"/>
<text text-anchor="middle" x="340" y="-7.5" font-family="Helvetica,sans-Serif" font-size="10.00">Eigen/Dense</text>
</a>
</g>
</g>
<!-- Node1&#45;&gt;Node6 -->
<g id="edge5" class="edge">
<title>Node1&#45;&gt;Node6</title>
<path fill="none" stroke="midnightblue" d="M229.13,-56.45C256.55,-45.21 287.66,-32.45 309.93,-23.33"/>
<polygon fill="midnightblue" stroke="midnightblue" points="311.27,-26.56 319.2,-19.53 308.62,-20.08 311.27,-26.56"/>
</g>
</g>
</svg>
