<?xml version="1.0" encoding="UTF-8" standalone="no"?>
<!DOCTYPE svg PUBLIC "-//W3C//DTD SVG 1.1//EN"
 "http://www.w3.org/Graphics/SVG/1.1/DTD/svg11.dtd">
<!-- Generated by graphviz version 2.43.0 (0)
 -->
<!-- Title: ACSL&#45;flightstack/include/flightstack/utils/print_helpers.hpp Pages: 1 -->
<svg width="387pt" height="106pt"
 viewBox="0.00 0.00 386.50 106.00" xmlns="http://www.w3.org/2000/svg" xmlns:xlink="http://www.w3.org/1999/xlink">
<g id="graph0" class="graph" transform="scale(1 1) rotate(0) translate(4 102)">
<title>ACSL&#45;flightstack/include/flightstack/utils/print_helpers.hpp</title>
<polygon fill="white" stroke="transparent" points="-4,4 -4,-102 382.5,-102 382.5,4 -4,4"/>
<!-- Node1 -->
<g id="node1" class="node">
<title>Node1</title>
<g id="a_node1"><a xlink:title="Inline functions for all the classes of the flightstack to use.">
<polygon fill="#bfbfbf" stroke="black" points="101,-56.5 101,-97.5 235,-97.5 235,-56.5 101,-56.5"/>
<text text-anchor="start" x="109" y="-85.5" font-family="Helvetica,sans-Serif" font-size="10.00">ACSL&#45;flightstack/include</text>
<text text-anchor="start" x="109" y="-74.5" font-family="Helvetica,sans-Serif" font-size="10.00">/flightstack/utils/print</text>
<text text-anchor="middle" x="168" y="-63.5" font-family="Helvetica,sans-Serif" font-size="10.00">_helpers.hpp</text>
</a>
</g>
</g>
<!-- Node2 -->
<g id="node2" class="node">
<title>Node2</title>
<g id="a_node2"><a xlink:title=" ">
<polygon fill="white" stroke="#bfbfbf" points="0,-0.5 0,-19.5 60,-19.5 60,-0.5 0,-0.5"/>
<text text-anchor="middle" x="30" y="-7.5" font-family="Helvetica,sans-Serif" font-size="10.00">iostream</text>
</a>
</g>
</g>
<!-- Node1&#45;&gt;Node2 -->
<g id="edge1" class="edge">
<title>Node1&#45;&gt;Node2</title>
<path fill="none" stroke="midnightblue" d="M126.6,-56.5C104.22,-45.96 77.2,-33.23 57.44,-23.92"/>
<polygon fill="midnightblue" stroke="midnightblue" points="58.91,-20.75 48.37,-19.65 55.93,-27.08 58.91,-20.75"/>
</g>
<!-- Node3 -->
<g id="node3" class="node">
<title>Node3</title>
<g id="a_node3"><a xlink:title=" ">
<polygon fill="white" stroke="#bfbfbf" points="78,-0.5 78,-19.5 122,-19.5 122,-0.5 78,-0.5"/>
<text text-anchor="middle" x="100" y="-7.5" font-family="Helvetica,sans-Serif" font-size="10.00">string</text>
</a>
</g>
</g>
<!-- Node1&#45;&gt;Node3 -->
<g id="edge2" class="edge">
<title>Node1&#45;&gt;Node3</title>
<path fill="none" stroke="midnightblue" d="M147.6,-56.5C137.67,-47.01 125.9,-35.76 116.54,-26.81"/>
<polygon fill="midnightblue" stroke="midnightblue" points="118.7,-24.03 109.05,-19.65 113.86,-29.09 118.7,-24.03"/>
</g>
<!-- Node4 -->
<g id="node4" class="node">
<title>Node4</title>
<g id="a_node4"><a xlink:title=" ">
<polygon fill="white" stroke="#bfbfbf" points="140,-0.5 140,-19.5 196,-19.5 196,-0.5 140,-0.5"/>
<text text-anchor="middle" x="168" y="-7.5" font-family="Helvetica,sans-Serif" font-size="10.00">sstream</text>
</a>
</g>
</g>
<!-- Node1&#45;&gt;Node4 -->
<g id="edge3" class="edge">
<title>Node1&#45;&gt;Node4</title>
<path fill="none" stroke="midnightblue" d="M168,-56.5C168,-48.07 168,-38.24 168,-29.87"/>
<polygon fill="midnightblue" stroke="midnightblue" points="171.5,-29.65 168,-19.65 164.5,-29.65 171.5,-29.65"/>
</g>
<!-- Node5 -->
<g id="node5" class="node">
<title>Node5</title>
<g id="a_node5"><a xlink:title=" ">
<polygon fill="white" stroke="#bfbfbf" points="214.5,-0.5 214.5,-19.5 283.5,-19.5 283.5,-0.5 214.5,-0.5"/>
<text text-anchor="middle" x="249" y="-7.5" font-family="Helvetica,sans-Serif" font-size="10.00">type_traits</text>
</a>
</g>
</g>
<!-- Node1&#45;&gt;Node5 -->
<g id="edge4" class="edge">
<title>Node1&#45;&gt;Node5</title>
<path fill="none" stroke="midnightblue" d="M192.3,-56.5C204.48,-46.72 219,-35.07 230.3,-26.01"/>
<polygon fill="midnightblue" stroke="midnightblue" points="232.61,-28.64 238.22,-19.65 228.23,-23.18 232.61,-28.64"/>
</g>
<!-- Node6 -->
<g id="node6" class="node">
<title>Node6</title>
<g id="a_node6"><a xlink:title=" ">
<polygon fill="white" stroke="#bfbfbf" points="301.5,-0.5 301.5,-19.5 378.5,-19.5 378.5,-0.5 301.5,-0.5"/>
<text text-anchor="middle" x="340" y="-7.5" font-family="Helvetica,sans-Serif" font-size="10.00">Eigen/Dense</text>
</a>
</g>
</g>
<!-- Node1&#45;&gt;Node6 -->
<g id="edge5" class="edge">
<title>Node1&#45;&gt;Node6</title>
<path fill="none" stroke="midnightblue" d="M219.61,-56.5C248.13,-45.72 282.7,-32.65 307.47,-23.29"/>
<polygon fill="midnightblue" stroke="midnightblue" points="308.99,-26.46 317.1,-19.65 306.51,-19.91 308.99,-26.46"/>
</g>
</g>
</svg>
