<?xml version="1.0" encoding="UTF-8" standalone="no"?>
<!DOCTYPE svg PUBLIC "-//W3C//DTD SVG 1.1//EN"
 "http://www.w3.org/Graphics/SVG/1.1/DTD/svg11.dtd">
<!-- Generated by graphviz version 2.43.0 (0)
 -->
<!-- Title: VehicleInfo Pages: 1 -->
<svg width="144pt" height="139pt"
 viewBox="0.00 0.00 143.50 139.00" xmlns="http://www.w3.org/2000/svg" xmlns:xlink="http://www.w3.org/1999/xlink">
<g id="graph0" class="graph" transform="scale(1 1) rotate(0) translate(4 135)">
<title>VehicleInfo</title>
<polygon fill="white" stroke="transparent" points="-4,4 -4,-135 139.5,-135 139.5,4 -4,4"/>
<!-- Node1 -->
<g id="node1" class="node">
<title>Node1</title>
<g id="a_node1"><a xlink:title="Vehicle Info.">
<polygon fill="#bfbfbf" stroke="black" points="0,-0.5 0,-19.5 71,-19.5 71,-0.5 0,-0.5"/>
<text text-anchor="middle" x="35.5" y="-7.5" font-family="Helvetica,sans-Serif" font-size="10.00">VehicleInfo</text>
</a>
</g>
</g>
<!-- Node2 -->
<g id="node2" class="node">
<title>Node2</title>
<g id="a_node2"><a xlink:title=" ">
<polygon fill="white" stroke="#bfbfbf" points="5.5,-111.5 5.5,-130.5 65.5,-130.5 65.5,-111.5 5.5,-111.5"/>
<text text-anchor="middle" x="35.5" y="-118.5" font-family="Helvetica,sans-Serif" font-size="10.00">Matrix2d</text>
</a>
</g>
</g>
<!-- Node2&#45;&gt;Node1 -->
<g id="edge1" class="edge">
<title>Node2&#45;&gt;Node1</title>
<path fill="none" stroke="#9a32cd" stroke-dasharray="5,2" d="M35.5,-101.19C35.5,-77.28 35.5,-36.99 35.5,-19.51"/>
<polygon fill="#9a32cd" stroke="#9a32cd" points="32,-101.45 35.5,-111.45 39,-101.45 32,-101.45"/>
<text text-anchor="middle" x="85.5" y="-85" font-family="Helvetica,sans-Serif" font-size="10.00"> A_filter_pitch_des</text>
<text text-anchor="start" x="35.5" y="-74" font-family="Helvetica,sans-Serif" font-size="10.00">A_filter_pitch_dot</text>
<text text-anchor="middle" x="85.5" y="-63" font-family="Helvetica,sans-Serif" font-size="10.00">_des</text>
<text text-anchor="middle" x="85.5" y="-52" font-family="Helvetica,sans-Serif" font-size="10.00">A_filter_roll_des</text>
<text text-anchor="middle" x="85.5" y="-41" font-family="Helvetica,sans-Serif" font-size="10.00">A_filter_roll_dot_des</text>
</g>
</g>
</svg>
