<?xml version="1.0" encoding="UTF-8" standalone="no"?>
<!DOCTYPE svg PUBLIC "-//W3C//DTD SVG 1.1//EN"
 "http://www.w3.org/Graphics/SVG/1.1/DTD/svg11.dtd">
<!-- Generated by graphviz version 2.43.0 (0)
 -->
<!-- Title: ACSL&#45;flightstack/include/flightstack/mocap/udp_driver.hpp Pages: 1 -->
<svg width="523pt" height="218pt"
 viewBox="0.00 0.00 523.00 218.00" xmlns="http://www.w3.org/2000/svg" xmlns:xlink="http://www.w3.org/1999/xlink">
<g id="graph0" class="graph" transform="scale(1 1) rotate(0) translate(4 214)">
<title>ACSL&#45;flightstack/include/flightstack/mocap/udp_driver.hpp</title>
<polygon fill="white" stroke="transparent" points="-4,4 -4,-214 519,-214 519,4 -4,4"/>
<!-- Node1 -->
<g id="node1" class="node">
<title>Node1</title>
<g id="a_node1"><a xlink:title="Class for udp driver.">
<polygon fill="#bfbfbf" stroke="black" points="116,-168.5 116,-209.5 250,-209.5 250,-168.5 116,-168.5"/>
<text text-anchor="start" x="124" y="-197.5" font-family="Helvetica,sans-Serif" font-size="10.00">ACSL&#45;flightstack/include</text>
<text text-anchor="start" x="124" y="-186.5" font-family="Helvetica,sans-Serif" font-size="10.00">/flightstack/mocap/udp</text>
<text text-anchor="middle" x="183" y="-175.5" font-family="Helvetica,sans-Serif" font-size="10.00">_driver.hpp</text>
</a>
</g>
</g>
<!-- Node2 -->
<g id="node2" class="node">
<title>Node2</title>
<g id="a_node2"><a xlink:title=" ">
<polygon fill="white" stroke="#bfbfbf" points="0,-0.5 0,-19.5 60,-19.5 60,-0.5 0,-0.5"/>
<text text-anchor="middle" x="30" y="-7.5" font-family="Helvetica,sans-Serif" font-size="10.00">iostream</text>
</a>
</g>
</g>
<!-- Node1&#45;&gt;Node2 -->
<g id="edge1" class="edge">
<title>Node1&#45;&gt;Node2</title>
<path fill="none" stroke="midnightblue" d="M149.78,-168.39C119.28,-148.72 74.98,-115.7 49,-76 39.85,-62.01 35,-43.51 32.5,-29.82"/>
<polygon fill="midnightblue" stroke="midnightblue" points="35.91,-29 30.91,-19.67 29,-30.09 35.91,-29"/>
</g>
<!-- Node3 -->
<g id="node3" class="node">
<title>Node3</title>
<g id="a_node3"><a xlink:title=" ">
<polygon fill="white" stroke="#bfbfbf" points="457,-0.5 457,-19.5 515,-19.5 515,-0.5 457,-0.5"/>
<text text-anchor="middle" x="486" y="-7.5" font-family="Helvetica,sans-Serif" font-size="10.00">memory</text>
</a>
</g>
</g>
<!-- Node1&#45;&gt;Node3 -->
<g id="edge2" class="edge">
<title>Node1&#45;&gt;Node3</title>
<path fill="none" stroke="midnightblue" d="M250.1,-185.1C323.59,-177.9 438.26,-153.98 493,-76 502.46,-62.53 498.95,-43.46 494.14,-29.46"/>
<polygon fill="midnightblue" stroke="midnightblue" points="497.3,-27.95 490.39,-19.92 490.79,-30.5 497.3,-27.95"/>
</g>
<!-- Node4 -->
<g id="node4" class="node">
<title>Node4</title>
<g id="a_node4"><a xlink:title=" ">
<polygon fill="white" stroke="#bfbfbf" points="58,-56.5 58,-75.5 102,-75.5 102,-56.5 58,-56.5"/>
<text text-anchor="middle" x="80" y="-63.5" font-family="Helvetica,sans-Serif" font-size="10.00">string</text>
</a>
</g>
</g>
<!-- Node1&#45;&gt;Node4 -->
<g id="edge3" class="edge">
<title>Node1&#45;&gt;Node4</title>
<path fill="none" stroke="midnightblue" d="M166.22,-168.29C146.09,-144.64 112.72,-105.43 93.94,-83.38"/>
<polygon fill="midnightblue" stroke="midnightblue" points="96.45,-80.92 87.3,-75.57 91.12,-85.46 96.45,-80.92"/>
</g>
<!-- Node5 -->
<g id="node5" class="node">
<title>Node5</title>
<g id="a_node5"><a xlink:href="udp__socket_8hpp.html" target="_top" xlink:title="Class for UDP socket creation using IoContext.">
<polygon fill="white" stroke="black" points="193,-112.5 193,-131.5 285,-131.5 285,-112.5 193,-112.5"/>
<text text-anchor="middle" x="239" y="-119.5" font-family="Helvetica,sans-Serif" font-size="10.00">udp_socket.hpp</text>
</a>
</g>
</g>
<!-- Node1&#45;&gt;Node5 -->
<g id="edge4" class="edge">
<title>Node1&#45;&gt;Node5</title>
<path fill="none" stroke="midnightblue" d="M199.8,-168.5C207.81,-159.2 217.28,-148.21 224.91,-139.36"/>
<polygon fill="midnightblue" stroke="midnightblue" points="227.67,-141.51 231.55,-131.65 222.37,-136.94 227.67,-141.51"/>
</g>
<!-- Node5&#45;&gt;Node2 -->
<g id="edge8" class="edge">
<title>Node5&#45;&gt;Node2</title>
<path fill="none" stroke="midnightblue" d="M221.31,-112.39C203.1,-103.47 173.92,-89.03 149,-76 115.85,-58.67 78,-37.81 54.06,-24.48"/>
<polygon fill="midnightblue" stroke="midnightblue" points="55.75,-21.41 45.31,-19.59 52.34,-27.52 55.75,-21.41"/>
</g>
<!-- Node5&#45;&gt;Node4 -->
<g id="edge6" class="edge">
<title>Node5&#45;&gt;Node4</title>
<path fill="none" stroke="midnightblue" d="M213.81,-112.44C186.11,-103.04 141.58,-87.91 111.58,-77.72"/>
<polygon fill="midnightblue" stroke="midnightblue" points="112.6,-74.37 102,-74.47 110.35,-81 112.6,-74.37"/>
</g>
<!-- Node6 -->
<g id="node6" class="node">
<title>Node6</title>
<g id="a_node6"><a xlink:title=" ">
<polygon fill="white" stroke="#bfbfbf" points="442,-56.5 442,-75.5 484,-75.5 484,-56.5 442,-56.5"/>
<text text-anchor="middle" x="463" y="-63.5" font-family="Helvetica,sans-Serif" font-size="10.00">array</text>
</a>
</g>
</g>
<!-- Node5&#45;&gt;Node6 -->
<g id="edge5" class="edge">
<title>Node5&#45;&gt;Node6</title>
<path fill="none" stroke="midnightblue" d="M275.63,-112.48C313.74,-103.57 375.12,-89.09 428,-76 429.27,-75.69 430.56,-75.36 431.87,-75.04"/>
<polygon fill="midnightblue" stroke="midnightblue" points="433.08,-78.34 441.92,-72.49 431.36,-71.55 433.08,-78.34"/>
</g>
<!-- Node7 -->
<g id="node7" class="node">
<title>Node7</title>
<g id="a_node7"><a xlink:title=" ">
<polygon fill="white" stroke="#bfbfbf" points="278.5,-0.5 278.5,-19.5 325.5,-19.5 325.5,-0.5 278.5,-0.5"/>
<text text-anchor="middle" x="302" y="-7.5" font-family="Helvetica,sans-Serif" font-size="10.00">vector</text>
</a>
</g>
</g>
<!-- Node5&#45;&gt;Node7 -->
<g id="edge7" class="edge">
<title>Node5&#45;&gt;Node7</title>
<path fill="none" stroke="midnightblue" d="M243.94,-112.37C254.29,-94.3 278.42,-52.18 292.09,-28.31"/>
<polygon fill="midnightblue" stroke="midnightblue" points="295.15,-30.01 297.08,-19.59 289.07,-26.53 295.15,-30.01"/>
</g>
<!-- Node8 -->
<g id="node8" class="node">
<title>Node8</title>
<g id="a_node8"><a xlink:title=" ">
<polygon fill="white" stroke="#bfbfbf" points="367.5,-0.5 367.5,-19.5 412.5,-19.5 412.5,-0.5 367.5,-0.5"/>
<text text-anchor="middle" x="390" y="-7.5" font-family="Helvetica,sans-Serif" font-size="10.00">utility</text>
</a>
</g>
</g>
<!-- Node5&#45;&gt;Node8 -->
<g id="edge9" class="edge">
<title>Node5&#45;&gt;Node8</title>
<path fill="none" stroke="midnightblue" d="M285.37,-113.88C326.39,-106.52 381.74,-93.63 395,-76 404.98,-62.74 401.88,-43.35 397.42,-29.19"/>
<polygon fill="midnightblue" stroke="midnightblue" points="400.64,-27.79 393.94,-19.58 394.06,-30.18 400.64,-27.79"/>
</g>
<!-- Node9 -->
<g id="node9" class="node">
<title>Node9</title>
<g id="a_node9"><a xlink:title=" ">
<polygon fill="white" stroke="#bfbfbf" points="304.5,-56.5 304.5,-75.5 385.5,-75.5 385.5,-56.5 304.5,-56.5"/>
<text text-anchor="middle" x="345" y="-63.5" font-family="Helvetica,sans-Serif" font-size="10.00">system_error</text>
</a>
</g>
</g>
<!-- Node5&#45;&gt;Node9 -->
<g id="edge10" class="edge">
<title>Node5&#45;&gt;Node9</title>
<path fill="none" stroke="midnightblue" d="M256.03,-112.32C273.03,-103.66 299.38,-90.24 318.99,-80.25"/>
<polygon fill="midnightblue" stroke="midnightblue" points="320.69,-83.31 328.01,-75.65 317.51,-77.08 320.69,-83.31"/>
</g>
<!-- Node10 -->
<g id="node10" class="node">
<title>Node10</title>
<g id="a_node10"><a xlink:href="io__context_8hpp.html" target="_top" xlink:title="Class for IoContext to manage thread for udp.">
<polygon fill="white" stroke="black" points="158.5,-56.5 158.5,-75.5 247.5,-75.5 247.5,-56.5 158.5,-56.5"/>
<text text-anchor="middle" x="203" y="-63.5" font-family="Helvetica,sans-Serif" font-size="10.00">io_context.hpp</text>
</a>
</g>
</g>
<!-- Node5&#45;&gt;Node10 -->
<g id="edge11" class="edge">
<title>Node5&#45;&gt;Node10</title>
<path fill="none" stroke="midnightblue" d="M233.06,-112.08C228.02,-104.53 220.66,-93.49 214.49,-84.23"/>
<polygon fill="midnightblue" stroke="midnightblue" points="217.29,-82.13 208.83,-75.75 211.47,-86.01 217.29,-82.13"/>
</g>
<!-- Node10&#45;&gt;Node2 -->
<g id="edge16" class="edge">
<title>Node10&#45;&gt;Node2</title>
<path fill="none" stroke="midnightblue" d="M175.59,-56.44C146.23,-47.28 99.48,-32.69 66.9,-22.52"/>
<polygon fill="midnightblue" stroke="midnightblue" points="67.87,-19.16 57.28,-19.52 65.79,-25.84 67.87,-19.16"/>
</g>
<!-- Node10&#45;&gt;Node3 -->
<g id="edge12" class="edge">
<title>Node10&#45;&gt;Node3</title>
<path fill="none" stroke="midnightblue" d="M247.53,-56.5C302.4,-46.03 394.75,-28.41 446.97,-18.45"/>
<polygon fill="midnightblue" stroke="midnightblue" points="447.68,-21.87 456.85,-16.56 446.37,-15 447.68,-21.87"/>
</g>
<!-- Node10&#45;&gt;Node7 -->
<g id="edge13" class="edge">
<title>Node10&#45;&gt;Node7</title>
<path fill="none" stroke="midnightblue" d="M218.91,-56.32C234.64,-47.74 258.94,-34.49 277.21,-24.52"/>
<polygon fill="midnightblue" stroke="midnightblue" points="279.03,-27.52 286.13,-19.65 275.68,-21.37 279.03,-27.52"/>
</g>
<!-- Node10&#45;&gt;Node8 -->
<g id="edge14" class="edge">
<title>Node10&#45;&gt;Node8</title>
<path fill="none" stroke="midnightblue" d="M232.63,-56.44C266.66,-46.62 322.3,-30.55 357.49,-20.39"/>
<polygon fill="midnightblue" stroke="midnightblue" points="358.64,-23.7 367.27,-17.56 356.69,-16.97 358.64,-23.7"/>
</g>
<!-- Node11 -->
<g id="node11" class="node">
<title>Node11</title>
<g id="a_node11"><a xlink:title=" ">
<polygon fill="white" stroke="#bfbfbf" points="78,-0.5 78,-19.5 136,-19.5 136,-0.5 78,-0.5"/>
<text text-anchor="middle" x="107" y="-7.5" font-family="Helvetica,sans-Serif" font-size="10.00">asio.hpp</text>
</a>
</g>
</g>
<!-- Node10&#45;&gt;Node11 -->
<g id="edge15" class="edge">
<title>Node10&#45;&gt;Node11</title>
<path fill="none" stroke="midnightblue" d="M187.58,-56.32C172.46,-47.82 149.18,-34.73 131.53,-24.8"/>
<polygon fill="midnightblue" stroke="midnightblue" points="132.82,-21.51 122.39,-19.65 129.39,-27.61 132.82,-21.51"/>
</g>
<!-- Node12 -->
<g id="node12" class="node">
<title>Node12</title>
<g id="a_node12"><a xlink:title=" ">
<polygon fill="white" stroke="#bfbfbf" points="154,-0.5 154,-19.5 260,-19.5 260,-0.5 154,-0.5"/>
<text text-anchor="middle" x="207" y="-7.5" font-family="Helvetica,sans-Serif" font-size="10.00">rclcpp/logging.hpp</text>
</a>
</g>
</g>
<!-- Node10&#45;&gt;Node12 -->
<g id="edge17" class="edge">
<title>Node10&#45;&gt;Node12</title>
<path fill="none" stroke="midnightblue" d="M203.66,-56.08C204.18,-49.01 204.94,-38.86 205.59,-29.99"/>
<polygon fill="midnightblue" stroke="midnightblue" points="209.1,-29.98 206.35,-19.75 202.12,-29.47 209.1,-29.98"/>
</g>
</g>
</svg>
