<?xml version="1.0" encoding="UTF-8" standalone="no"?>
<!DOCTYPE svg PUBLIC "-//W3C//DTD SVG 1.1//EN"
 "http://www.w3.org/Graphics/SVG/1.1/DTD/svg11.dtd">
<!-- Generated by graphviz version 2.43.0 (0)
 -->
<!-- Title: ACSL&#45;flightstack/include/flightstack/mocap/udp_socket.hpp Pages: 1 -->
<svg width="548pt" height="162pt"
 viewBox="0.00 0.00 548.00 162.00" xmlns="http://www.w3.org/2000/svg" xmlns:xlink="http://www.w3.org/1999/xlink">
<g id="graph0" class="graph" transform="scale(1 1) rotate(0) translate(4 158)">
<title>ACSL&#45;flightstack/include/flightstack/mocap/udp_socket.hpp</title>
<polygon fill="white" stroke="transparent" points="-4,4 -4,-158 544,-158 544,4 -4,4"/>
<!-- Node1 -->
<g id="node1" class="node">
<title>Node1</title>
<g id="a_node1"><a xlink:title="Class for UDP socket creation using IoContext.">
<polygon fill="#bfbfbf" stroke="black" points="103,-112.5 103,-153.5 237,-153.5 237,-112.5 103,-112.5"/>
<text text-anchor="start" x="111" y="-141.5" font-family="Helvetica,sans-Serif" font-size="10.00">ACSL&#45;flightstack/include</text>
<text text-anchor="start" x="111" y="-130.5" font-family="Helvetica,sans-Serif" font-size="10.00">/flightstack/mocap/udp</text>
<text text-anchor="middle" x="170" y="-119.5" font-family="Helvetica,sans-Serif" font-size="10.00">_socket.hpp</text>
</a>
</g>
</g>
<!-- Node2 -->
<g id="node2" class="node">
<title>Node2</title>
<g id="a_node2"><a xlink:title=" ">
<polygon fill="white" stroke="#bfbfbf" points="0,-56.5 0,-75.5 42,-75.5 42,-56.5 0,-56.5"/>
<text text-anchor="middle" x="21" y="-63.5" font-family="Helvetica,sans-Serif" font-size="10.00">array</text>
</a>
</g>
</g>
<!-- Node1&#45;&gt;Node2 -->
<g id="edge1" class="edge">
<title>Node1&#45;&gt;Node2</title>
<path fill="none" stroke="midnightblue" d="M125.3,-112.5C100.91,-101.86 71.43,-89 50.04,-79.67"/>
<polygon fill="midnightblue" stroke="midnightblue" points="51.4,-76.44 40.83,-75.65 48.6,-82.86 51.4,-76.44"/>
</g>
<!-- Node3 -->
<g id="node3" class="node">
<title>Node3</title>
<g id="a_node3"><a xlink:title=" ">
<polygon fill="white" stroke="#bfbfbf" points="60,-56.5 60,-75.5 104,-75.5 104,-56.5 60,-56.5"/>
<text text-anchor="middle" x="82" y="-63.5" font-family="Helvetica,sans-Serif" font-size="10.00">string</text>
</a>
</g>
</g>
<!-- Node1&#45;&gt;Node3 -->
<g id="edge2" class="edge">
<title>Node1&#45;&gt;Node3</title>
<path fill="none" stroke="midnightblue" d="M143.6,-112.5C130.23,-102.63 114.28,-90.84 101.96,-81.74"/>
<polygon fill="midnightblue" stroke="midnightblue" points="103.84,-78.78 93.71,-75.65 99.68,-84.41 103.84,-78.78"/>
</g>
<!-- Node4 -->
<g id="node4" class="node">
<title>Node4</title>
<g id="a_node4"><a xlink:title=" ">
<polygon fill="white" stroke="#bfbfbf" points="74.5,-0.5 74.5,-19.5 121.5,-19.5 121.5,-0.5 74.5,-0.5"/>
<text text-anchor="middle" x="98" y="-7.5" font-family="Helvetica,sans-Serif" font-size="10.00">vector</text>
</a>
</g>
</g>
<!-- Node1&#45;&gt;Node4 -->
<g id="edge3" class="edge">
<title>Node1&#45;&gt;Node4</title>
<path fill="none" stroke="midnightblue" d="M158.27,-112.29C144.39,-88.96 121.49,-50.47 108.27,-28.26"/>
<polygon fill="midnightblue" stroke="midnightblue" points="111.22,-26.38 103.1,-19.57 105.21,-29.96 111.22,-26.38"/>
</g>
<!-- Node5 -->
<g id="node5" class="node">
<title>Node5</title>
<g id="a_node5"><a xlink:title=" ">
<polygon fill="white" stroke="#bfbfbf" points="140,-0.5 140,-19.5 200,-19.5 200,-0.5 140,-0.5"/>
<text text-anchor="middle" x="170" y="-7.5" font-family="Helvetica,sans-Serif" font-size="10.00">iostream</text>
</a>
</g>
</g>
<!-- Node1&#45;&gt;Node5 -->
<g id="edge4" class="edge">
<title>Node1&#45;&gt;Node5</title>
<path fill="none" stroke="midnightblue" d="M170,-112.29C170,-89.48 170,-52.19 170,-29.78"/>
<polygon fill="midnightblue" stroke="midnightblue" points="173.5,-29.57 170,-19.57 166.5,-29.57 173.5,-29.57"/>
</g>
<!-- Node6 -->
<g id="node6" class="node">
<title>Node6</title>
<g id="a_node6"><a xlink:title=" ">
<polygon fill="white" stroke="#bfbfbf" points="218.5,-0.5 218.5,-19.5 263.5,-19.5 263.5,-0.5 218.5,-0.5"/>
<text text-anchor="middle" x="241" y="-7.5" font-family="Helvetica,sans-Serif" font-size="10.00">utility</text>
</a>
</g>
</g>
<!-- Node1&#45;&gt;Node6 -->
<g id="edge5" class="edge">
<title>Node1&#45;&gt;Node6</title>
<path fill="none" stroke="midnightblue" d="M181.57,-112.29C195.26,-88.96 217.84,-50.47 230.87,-28.26"/>
<polygon fill="midnightblue" stroke="midnightblue" points="233.93,-29.97 235.97,-19.57 227.89,-26.43 233.93,-29.97"/>
</g>
<!-- Node7 -->
<g id="node7" class="node">
<title>Node7</title>
<g id="a_node7"><a xlink:title=" ">
<polygon fill="white" stroke="#bfbfbf" points="343.5,-56.5 343.5,-75.5 424.5,-75.5 424.5,-56.5 343.5,-56.5"/>
<text text-anchor="middle" x="384" y="-63.5" font-family="Helvetica,sans-Serif" font-size="10.00">system_error</text>
</a>
</g>
</g>
<!-- Node1&#45;&gt;Node7 -->
<g id="edge6" class="edge">
<title>Node1&#45;&gt;Node7</title>
<path fill="none" stroke="midnightblue" d="M234.21,-112.5C270.6,-101.44 314.9,-87.99 345.84,-78.59"/>
<polygon fill="midnightblue" stroke="midnightblue" points="347.24,-81.82 355.79,-75.57 345.21,-75.12 347.24,-81.82"/>
</g>
<!-- Node8 -->
<g id="node8" class="node">
<title>Node8</title>
<g id="a_node8"><a xlink:href="io__context_8hpp.html" target="_top" xlink:title="Class for IoContext to manage thread for udp.">
<polygon fill="white" stroke="black" points="236.5,-56.5 236.5,-75.5 325.5,-75.5 325.5,-56.5 236.5,-56.5"/>
<text text-anchor="middle" x="281" y="-63.5" font-family="Helvetica,sans-Serif" font-size="10.00">io_context.hpp</text>
</a>
</g>
</g>
<!-- Node1&#45;&gt;Node8 -->
<g id="edge7" class="edge">
<title>Node1&#45;&gt;Node8</title>
<path fill="none" stroke="midnightblue" d="M203.3,-112.5C220.65,-102.34 241.46,-90.16 257.17,-80.95"/>
<polygon fill="midnightblue" stroke="midnightblue" points="259.36,-83.73 266.22,-75.65 255.83,-77.69 259.36,-83.73"/>
</g>
<!-- Node8&#45;&gt;Node4 -->
<g id="edge9" class="edge">
<title>Node8&#45;&gt;Node4</title>
<path fill="none" stroke="midnightblue" d="M252,-56.44C219.16,-46.75 165.75,-30.99 131.25,-20.81"/>
<polygon fill="midnightblue" stroke="midnightblue" points="132.21,-17.44 121.62,-17.97 130.22,-24.16 132.21,-17.44"/>
</g>
<!-- Node8&#45;&gt;Node5 -->
<g id="edge12" class="edge">
<title>Node8&#45;&gt;Node5</title>
<path fill="none" stroke="midnightblue" d="M263.17,-56.32C245.28,-47.62 217.52,-34.12 196.95,-24.11"/>
<polygon fill="midnightblue" stroke="midnightblue" points="198.31,-20.88 187.79,-19.65 195.25,-27.18 198.31,-20.88"/>
</g>
<!-- Node8&#45;&gt;Node6 -->
<g id="edge10" class="edge">
<title>Node8&#45;&gt;Node6</title>
<path fill="none" stroke="midnightblue" d="M274.39,-56.08C268.74,-48.46 260.46,-37.26 253.55,-27.94"/>
<polygon fill="midnightblue" stroke="midnightblue" points="256.25,-25.7 247.48,-19.75 250.62,-29.87 256.25,-25.7"/>
</g>
<!-- Node9 -->
<g id="node9" class="node">
<title>Node9</title>
<g id="a_node9"><a xlink:title=" ">
<polygon fill="white" stroke="#bfbfbf" points="282,-0.5 282,-19.5 340,-19.5 340,-0.5 282,-0.5"/>
<text text-anchor="middle" x="311" y="-7.5" font-family="Helvetica,sans-Serif" font-size="10.00">memory</text>
</a>
</g>
</g>
<!-- Node8&#45;&gt;Node9 -->
<g id="edge8" class="edge">
<title>Node8&#45;&gt;Node9</title>
<path fill="none" stroke="midnightblue" d="M285.95,-56.08C290.1,-48.61 296.15,-37.72 301.27,-28.52"/>
<polygon fill="midnightblue" stroke="midnightblue" points="304.34,-30.19 306.14,-19.75 298.22,-26.79 304.34,-30.19"/>
</g>
<!-- Node10 -->
<g id="node10" class="node">
<title>Node10</title>
<g id="a_node10"><a xlink:title=" ">
<polygon fill="white" stroke="#bfbfbf" points="358,-0.5 358,-19.5 416,-19.5 416,-0.5 358,-0.5"/>
<text text-anchor="middle" x="387" y="-7.5" font-family="Helvetica,sans-Serif" font-size="10.00">asio.hpp</text>
</a>
</g>
</g>
<!-- Node8&#45;&gt;Node10 -->
<g id="edge11" class="edge">
<title>Node8&#45;&gt;Node10</title>
<path fill="none" stroke="midnightblue" d="M298.03,-56.32C315.03,-47.66 341.38,-34.24 360.99,-24.25"/>
<polygon fill="midnightblue" stroke="midnightblue" points="362.69,-27.31 370.01,-19.65 359.51,-21.08 362.69,-27.31"/>
</g>
<!-- Node11 -->
<g id="node11" class="node">
<title>Node11</title>
<g id="a_node11"><a xlink:title=" ">
<polygon fill="white" stroke="#bfbfbf" points="434,-0.5 434,-19.5 540,-19.5 540,-0.5 434,-0.5"/>
<text text-anchor="middle" x="487" y="-7.5" font-family="Helvetica,sans-Serif" font-size="10.00">rclcpp/logging.hpp</text>
</a>
</g>
</g>
<!-- Node8&#45;&gt;Node11 -->
<g id="edge13" class="edge">
<title>Node8&#45;&gt;Node11</title>
<path fill="none" stroke="midnightblue" d="M313.64,-56.44C349.05,-47.16 405.71,-32.31 444.55,-22.13"/>
<polygon fill="midnightblue" stroke="midnightblue" points="445.73,-25.44 454.51,-19.52 443.95,-18.67 445.73,-25.44"/>
</g>
</g>
</svg>
