<?xml version="1.0" encoding="UTF-8" standalone="no"?>
<!DOCTYPE svg PUBLIC "-//W3C//DTD SVG 1.1//EN"
 "http://www.w3.org/Graphics/SVG/1.1/DTD/svg11.dtd">
<!-- Generated by graphviz version 2.43.0 (0)
 -->
<!-- Title: /mnt/c/Users/siddh/Onedrive/Desktop/ACSL&#45;flightstack/src/mocap/udp_socket.cpp Pages: 1 -->
<svg width="548pt" height="229pt"
 viewBox="0.00 0.00 548.00 229.00" xmlns="http://www.w3.org/2000/svg" xmlns:xlink="http://www.w3.org/1999/xlink">
<g id="graph0" class="graph" transform="scale(1 1) rotate(0) translate(4 225)">
<title>/mnt/c/Users/siddh/Onedrive/Desktop/ACSL&#45;flightstack/src/mocap/udp_socket.cpp</title>
<polygon fill="white" stroke="transparent" points="-4,4 -4,-225 544,-225 544,4 -4,4"/>
<!-- Node1 -->
<g id="node1" class="node">
<title>Node1</title>
<g id="a_node1"><a xlink:title="Class for UDP socket creation using IoContext.">
<polygon fill="#bfbfbf" stroke="black" points="102.5,-168.5 102.5,-220.5 237.5,-220.5 237.5,-168.5 102.5,-168.5"/>
<text text-anchor="start" x="110.5" y="-208.5" font-family="Helvetica,sans-Serif" font-size="10.00">/mnt/c/Users/siddh</text>
<text text-anchor="start" x="110.5" y="-197.5" font-family="Helvetica,sans-Serif" font-size="10.00">/Onedrive/Desktop/ACSL</text>
<text text-anchor="start" x="110.5" y="-186.5" font-family="Helvetica,sans-Serif" font-size="10.00">&#45;flightstack/src/mocap</text>
<text text-anchor="middle" x="170" y="-175.5" font-family="Helvetica,sans-Serif" font-size="10.00">/udp_socket.cpp</text>
</a>
</g>
</g>
<!-- Node2 -->
<g id="node2" class="node">
<title>Node2</title>
<g id="a_node2"><a xlink:href="udp__socket_8hpp.html" target="_top" xlink:title="Class for UDP socket creation using IoContext.">
<polygon fill="white" stroke="black" points="124,-112.5 124,-131.5 216,-131.5 216,-112.5 124,-112.5"/>
<text text-anchor="middle" x="170" y="-119.5" font-family="Helvetica,sans-Serif" font-size="10.00">udp_socket.hpp</text>
</a>
</g>
</g>
<!-- Node1&#45;&gt;Node2 -->
<g id="edge1" class="edge">
<title>Node1&#45;&gt;Node2</title>
<path fill="none" stroke="midnightblue" d="M170,-168.45C170,-159.73 170,-150.1 170,-141.96"/>
<polygon fill="midnightblue" stroke="midnightblue" points="173.5,-141.7 170,-131.7 166.5,-141.7 173.5,-141.7"/>
</g>
<!-- Node3 -->
<g id="node3" class="node">
<title>Node3</title>
<g id="a_node3"><a xlink:title=" ">
<polygon fill="white" stroke="#bfbfbf" points="0,-56.5 0,-75.5 42,-75.5 42,-56.5 0,-56.5"/>
<text text-anchor="middle" x="21" y="-63.5" font-family="Helvetica,sans-Serif" font-size="10.00">array</text>
</a>
</g>
</g>
<!-- Node2&#45;&gt;Node3 -->
<g id="edge2" class="edge">
<title>Node2&#45;&gt;Node3</title>
<path fill="none" stroke="midnightblue" d="M146.39,-112.44C120.81,-103.17 79.9,-88.35 51.81,-78.17"/>
<polygon fill="midnightblue" stroke="midnightblue" points="52.68,-74.76 42.09,-74.64 50.3,-81.34 52.68,-74.76"/>
</g>
<!-- Node4 -->
<g id="node4" class="node">
<title>Node4</title>
<g id="a_node4"><a xlink:title=" ">
<polygon fill="white" stroke="#bfbfbf" points="60,-56.5 60,-75.5 104,-75.5 104,-56.5 60,-56.5"/>
<text text-anchor="middle" x="82" y="-63.5" font-family="Helvetica,sans-Serif" font-size="10.00">string</text>
</a>
</g>
</g>
<!-- Node2&#45;&gt;Node4 -->
<g id="edge3" class="edge">
<title>Node2&#45;&gt;Node4</title>
<path fill="none" stroke="midnightblue" d="M155.86,-112.32C142.13,-103.9 121.06,-90.97 104.94,-81.07"/>
<polygon fill="midnightblue" stroke="midnightblue" points="106.46,-77.9 96.1,-75.65 102.8,-83.87 106.46,-77.9"/>
</g>
<!-- Node5 -->
<g id="node5" class="node">
<title>Node5</title>
<g id="a_node5"><a xlink:title=" ">
<polygon fill="white" stroke="#bfbfbf" points="74.5,-0.5 74.5,-19.5 121.5,-19.5 121.5,-0.5 74.5,-0.5"/>
<text text-anchor="middle" x="98" y="-7.5" font-family="Helvetica,sans-Serif" font-size="10.00">vector</text>
</a>
</g>
</g>
<!-- Node2&#45;&gt;Node5 -->
<g id="edge4" class="edge">
<title>Node2&#45;&gt;Node5</title>
<path fill="none" stroke="midnightblue" d="M164.35,-112.37C152.47,-94.22 124.71,-51.8 109.12,-27.99"/>
<polygon fill="midnightblue" stroke="midnightblue" points="112.03,-26.04 103.62,-19.59 106.17,-29.88 112.03,-26.04"/>
</g>
<!-- Node6 -->
<g id="node6" class="node">
<title>Node6</title>
<g id="a_node6"><a xlink:title=" ">
<polygon fill="white" stroke="#bfbfbf" points="140,-0.5 140,-19.5 200,-19.5 200,-0.5 140,-0.5"/>
<text text-anchor="middle" x="170" y="-7.5" font-family="Helvetica,sans-Serif" font-size="10.00">iostream</text>
</a>
</g>
</g>
<!-- Node2&#45;&gt;Node6 -->
<g id="edge5" class="edge">
<title>Node2&#45;&gt;Node6</title>
<path fill="none" stroke="midnightblue" d="M170,-112.37C170,-94.62 170,-53.67 170,-29.6"/>
<polygon fill="midnightblue" stroke="midnightblue" points="173.5,-29.59 170,-19.59 166.5,-29.59 173.5,-29.59"/>
</g>
<!-- Node7 -->
<g id="node7" class="node">
<title>Node7</title>
<g id="a_node7"><a xlink:title=" ">
<polygon fill="white" stroke="#bfbfbf" points="218.5,-0.5 218.5,-19.5 263.5,-19.5 263.5,-0.5 218.5,-0.5"/>
<text text-anchor="middle" x="241" y="-7.5" font-family="Helvetica,sans-Serif" font-size="10.00">utility</text>
</a>
</g>
</g>
<!-- Node2&#45;&gt;Node7 -->
<g id="edge6" class="edge">
<title>Node2&#45;&gt;Node7</title>
<path fill="none" stroke="midnightblue" d="M175.57,-112.37C187.24,-94.3 214.42,-52.18 229.83,-28.31"/>
<polygon fill="midnightblue" stroke="midnightblue" points="232.97,-29.89 235.45,-19.59 227.09,-26.1 232.97,-29.89"/>
</g>
<!-- Node8 -->
<g id="node8" class="node">
<title>Node8</title>
<g id="a_node8"><a xlink:title=" ">
<polygon fill="white" stroke="#bfbfbf" points="343.5,-56.5 343.5,-75.5 424.5,-75.5 424.5,-56.5 343.5,-56.5"/>
<text text-anchor="middle" x="384" y="-63.5" font-family="Helvetica,sans-Serif" font-size="10.00">system_error</text>
</a>
</g>
</g>
<!-- Node2&#45;&gt;Node8 -->
<g id="edge7" class="edge">
<title>Node2&#45;&gt;Node8</title>
<path fill="none" stroke="midnightblue" d="M203.91,-112.44C240.85,-103.12 300.05,-88.18 340.42,-78"/>
<polygon fill="midnightblue" stroke="midnightblue" points="341.41,-81.36 350.25,-75.52 339.7,-74.57 341.41,-81.36"/>
</g>
<!-- Node9 -->
<g id="node9" class="node">
<title>Node9</title>
<g id="a_node9"><a xlink:href="io__context_8hpp.html" target="_top" xlink:title="Class for IoContext to manage thread for udp.">
<polygon fill="white" stroke="black" points="236.5,-56.5 236.5,-75.5 325.5,-75.5 325.5,-56.5 236.5,-56.5"/>
<text text-anchor="middle" x="281" y="-63.5" font-family="Helvetica,sans-Serif" font-size="10.00">io_context.hpp</text>
</a>
</g>
</g>
<!-- Node2&#45;&gt;Node9 -->
<g id="edge8" class="edge">
<title>Node2&#45;&gt;Node9</title>
<path fill="none" stroke="midnightblue" d="M187.83,-112.32C205.72,-103.62 233.48,-90.12 254.05,-80.11"/>
<polygon fill="midnightblue" stroke="midnightblue" points="255.75,-83.18 263.21,-75.65 252.69,-76.88 255.75,-83.18"/>
</g>
<!-- Node9&#45;&gt;Node5 -->
<g id="edge10" class="edge">
<title>Node9&#45;&gt;Node5</title>
<path fill="none" stroke="midnightblue" d="M252,-56.44C219.16,-46.75 165.75,-30.99 131.25,-20.81"/>
<polygon fill="midnightblue" stroke="midnightblue" points="132.21,-17.44 121.62,-17.97 130.22,-24.16 132.21,-17.44"/>
</g>
<!-- Node9&#45;&gt;Node6 -->
<g id="edge13" class="edge">
<title>Node9&#45;&gt;Node6</title>
<path fill="none" stroke="midnightblue" d="M263.17,-56.32C245.28,-47.62 217.52,-34.12 196.95,-24.11"/>
<polygon fill="midnightblue" stroke="midnightblue" points="198.31,-20.88 187.79,-19.65 195.25,-27.18 198.31,-20.88"/>
</g>
<!-- Node9&#45;&gt;Node7 -->
<g id="edge11" class="edge">
<title>Node9&#45;&gt;Node7</title>
<path fill="none" stroke="midnightblue" d="M274.39,-56.08C268.74,-48.46 260.46,-37.26 253.55,-27.94"/>
<polygon fill="midnightblue" stroke="midnightblue" points="256.25,-25.7 247.48,-19.75 250.62,-29.87 256.25,-25.7"/>
</g>
<!-- Node10 -->
<g id="node10" class="node">
<title>Node10</title>
<g id="a_node10"><a xlink:title=" ">
<polygon fill="white" stroke="#bfbfbf" points="282,-0.5 282,-19.5 340,-19.5 340,-0.5 282,-0.5"/>
<text text-anchor="middle" x="311" y="-7.5" font-family="Helvetica,sans-Serif" font-size="10.00">memory</text>
</a>
</g>
</g>
<!-- Node9&#45;&gt;Node10 -->
<g id="edge9" class="edge">
<title>Node9&#45;&gt;Node10</title>
<path fill="none" stroke="midnightblue" d="M285.95,-56.08C290.1,-48.61 296.15,-37.72 301.27,-28.52"/>
<polygon fill="midnightblue" stroke="midnightblue" points="304.34,-30.19 306.14,-19.75 298.22,-26.79 304.34,-30.19"/>
</g>
<!-- Node11 -->
<g id="node11" class="node">
<title>Node11</title>
<g id="a_node11"><a xlink:title=" ">
<polygon fill="white" stroke="#bfbfbf" points="358,-0.5 358,-19.5 416,-19.5 416,-0.5 358,-0.5"/>
<text text-anchor="middle" x="387" y="-7.5" font-family="Helvetica,sans-Serif" font-size="10.00">asio.hpp</text>
</a>
</g>
</g>
<!-- Node9&#45;&gt;Node11 -->
<g id="edge12" class="edge">
<title>Node9&#45;&gt;Node11</title>
<path fill="none" stroke="midnightblue" d="M298.03,-56.32C315.03,-47.66 341.38,-34.24 360.99,-24.25"/>
<polygon fill="midnightblue" stroke="midnightblue" points="362.69,-27.31 370.01,-19.65 359.51,-21.08 362.69,-27.31"/>
</g>
<!-- Node12 -->
<g id="node12" class="node">
<title>Node12</title>
<g id="a_node12"><a xlink:title=" ">
<polygon fill="white" stroke="#bfbfbf" points="434,-0.5 434,-19.5 540,-19.5 540,-0.5 434,-0.5"/>
<text text-anchor="middle" x="487" y="-7.5" font-family="Helvetica,sans-Serif" font-size="10.00">rclcpp/logging.hpp</text>
</a>
</g>
</g>
<!-- Node9&#45;&gt;Node12 -->
<g id="edge14" class="edge">
<title>Node9&#45;&gt;Node12</title>
<path fill="none" stroke="midnightblue" d="M313.64,-56.44C349.05,-47.16 405.71,-32.31 444.55,-22.13"/>
<polygon fill="midnightblue" stroke="midnightblue" points="445.73,-25.44 454.51,-19.52 443.95,-18.67 445.73,-25.44"/>
</g>
</g>
</svg>
