<?xml version="1.0" encoding="UTF-8" standalone="no"?>
<!DOCTYPE svg PUBLIC "-//W3C//DTD SVG 1.1//EN"
 "http://www.w3.org/Graphics/SVG/1.1/DTD/svg11.dtd">
<!-- Generated by graphviz version 2.43.0 (0)
 -->
<!-- Title: /mnt/c/Users/siddh/Onedrive/Desktop/ACSL&#45;flightstack/include/flightstack/control/vehicle_info.hpp Pages: 1 -->
<svg width="172pt" height="117pt"
 viewBox="0.00 0.00 172.00 117.00" xmlns="http://www.w3.org/2000/svg" xmlns:xlink="http://www.w3.org/1999/xlink">
<g id="graph0" class="graph" transform="scale(1 1) rotate(0) translate(4 113)">
<title>/mnt/c/Users/siddh/Onedrive/Desktop/ACSL&#45;flightstack/include/flightstack/control/vehicle_info.hpp</title>
<polygon fill="white" stroke="transparent" points="-4,4 -4,-113 168,-113 168,4 -4,4"/>
<!-- Node1 -->
<g id="node1" class="node">
<title>Node1</title>
<g id="a_node1"><a xlink:title="Vehicle properties such as mass, intertia matrix, motor thrust curves, etc.">
<polygon fill="#bfbfbf" stroke="black" points="0,-56.5 0,-108.5 164,-108.5 164,-56.5 0,-56.5"/>
<text text-anchor="start" x="8" y="-96.5" font-family="Helvetica,sans-Serif" font-size="10.00">/mnt/c/Users/siddh</text>
<text text-anchor="start" x="8" y="-85.5" font-family="Helvetica,sans-Serif" font-size="10.00">/Onedrive/Desktop/ACSL</text>
<text text-anchor="start" x="8" y="-74.5" font-family="Helvetica,sans-Serif" font-size="10.00">&#45;flightstack/include/flightstack</text>
<text text-anchor="middle" x="82" y="-63.5" font-family="Helvetica,sans-Serif" font-size="10.00">/control/vehicle_info.hpp</text>
</a>
</g>
</g>
<!-- Node2 -->
<g id="node2" class="node">
<title>Node2</title>
<g id="a_node2"><a xlink:title=" ">
<polygon fill="white" stroke="#bfbfbf" points="18.5,-0.5 18.5,-19.5 65.5,-19.5 65.5,-0.5 18.5,-0.5"/>
<text text-anchor="middle" x="42" y="-7.5" font-family="Helvetica,sans-Serif" font-size="10.00">cmath</text>
</a>
</g>
</g>
<!-- Node1&#45;&gt;Node2 -->
<g id="edge1" class="edge">
<title>Node1&#45;&gt;Node2</title>
<path fill="none" stroke="midnightblue" d="M67.78,-56.45C62.56,-47.23 56.75,-37 51.97,-28.58"/>
<polygon fill="midnightblue" stroke="midnightblue" points="54.91,-26.67 46.93,-19.7 48.82,-30.12 54.91,-26.67"/>
</g>
<!-- Node3 -->
<g id="node3" class="node">
<title>Node3</title>
<g id="a_node3"><a xlink:title=" ">
<polygon fill="white" stroke="#bfbfbf" points="83.5,-0.5 83.5,-19.5 160.5,-19.5 160.5,-0.5 83.5,-0.5"/>
<text text-anchor="middle" x="122" y="-7.5" font-family="Helvetica,sans-Serif" font-size="10.00">Eigen/Dense</text>
</a>
</g>
</g>
<!-- Node1&#45;&gt;Node3 -->
<g id="edge2" class="edge">
<title>Node1&#45;&gt;Node3</title>
<path fill="none" stroke="midnightblue" d="M96.22,-56.45C101.44,-47.23 107.25,-37 112.03,-28.58"/>
<polygon fill="midnightblue" stroke="midnightblue" points="115.18,-30.12 117.07,-19.7 109.09,-26.67 115.18,-30.12"/>
</g>
</g>
</svg>
