<?xml version="1.0" encoding="UTF-8" standalone="no"?>
<!DOCTYPE svg PUBLIC "-//W3C//DTD SVG 1.1//EN"
 "http://www.w3.org/Graphics/SVG/1.1/DTD/svg11.dtd">
<!-- Generated by graphviz version 2.43.0 (0)
 -->
<!-- Title: ACSL&#45;flightstack/include/flightstack/pixhawk_interface/vehicle_state.hpp Pages: 1 -->
<!--zoomable 273 -->
<svg id="main" version="1.1" xmlns="http://www.w3.org/2000/svg" xmlns:xlink="http://www.w3.org/1999/xlink" xml:space="preserve" onload="init(evt)">
<style type="text/css"><![CDATA[
.edge:hover path { stroke: red; }
.edge:hover polygon { stroke: red; fill: red; }
]]></style>
<script type="text/javascript"><![CDATA[
var edges = document.getElementsByTagName('g');
if (edges && edges.length) {
  for (var i=0;i<edges.length;i++) {
    if (edges[i].id.substr(0,4)=='edge') {
      edges[i].setAttribute('class','edge');
    }
  }
}
]]></script>
        <defs>
                <circle id="rim" cx="0" cy="0" r="7"/>
                <circle id="rim2" cx="0" cy="0" r="3.5"/>
                <g id="zoomPlus">
                        <use xlink:href="#rim" fill="#404040">
                                <set attributeName="fill" to="#808080" begin="zoomplus.mouseover" end="zoomplus.mouseout"/>
                        </use>
                        <path d="M-4,0h8M0,-4v8" fill="none" stroke="white" stroke-width="1.5" pointer-events="none"/>
                </g>
                <g id="zoomMin">
                        <use xlink:href="#rim" fill="#404040">
                                <set attributeName="fill" to="#808080" begin="zoomminus.mouseover" end="zoomminus.mouseout"/>
                        </use>
                        <path d="M-4,0h8" fill="none" stroke="white" stroke-width="1.5" pointer-events="none"/>
                </g>
                <g id="dirArrow">
                        <path fill="none" stroke="white" stroke-width="1.5" d="M0,-3.0v7 M-2.5,-0.5L0,-3.0L2.5,-0.5"/>
                </g>
               <g id="resetDef">
                       <use xlink:href="#rim2" fill="#404040">
                               <set attributeName="fill" to="#808080" begin="reset.mouseover" end="reset.mouseout"/>
                       </use>
               </g>
        </defs>

<script type="text/javascript">
var viewWidth = 2189;
var viewHeight = 273;
var sectionId = 'dynsection-1';
</script>
<script xlink:href="svgpan.js"/>
<svg id="graph" class="graph">
<g id="viewport">
<title>ACSL&#45;flightstack/include/flightstack/pixhawk_interface/vehicle_state.hpp</title>
<polygon fill="white" stroke="transparent" points="-4,4 -4,-269 2184.5,-269 2184.5,4 -4,4"/>
<!-- Node1 -->
<g id="node1" class="node">
<title>Node1</title>
<g id="a_node1"><a xlink:title="Class storing the state of the vehicle coming from the flight controller (Pixhawk)">
<polygon fill="#bfbfbf" stroke="black" points="1855.5,-223.5 1855.5,-264.5 2019.5,-264.5 2019.5,-223.5 1855.5,-223.5"/>
<text text-anchor="start" x="1863.5" y="-252.5" font-family="Helvetica,sans-Serif" font-size="10.00">ACSL&#45;flightstack/include</text>
<text text-anchor="start" x="1863.5" y="-241.5" font-family="Helvetica,sans-Serif" font-size="10.00">/flightstack/pixhawk_interface</text>
<text text-anchor="middle" x="1937.5" y="-230.5" font-family="Helvetica,sans-Serif" font-size="10.00">/vehicle_state.hpp</text>
</a>
</g>
</g>
<!-- Node2 -->
<g id="node2" class="node">
<title>Node2</title>
<g id="a_node2"><a xlink:href="multi__threaded__node_8hpp.html" target="_top" xlink:title="Multithreaded ROS2 node that joins together all the flight stack components.">
<polygon fill="white" stroke="black" points="1120.5,-145.5 1120.5,-186.5 1268.5,-186.5 1268.5,-145.5 1120.5,-145.5"/>
<text text-anchor="start" x="1128.5" y="-174.5" font-family="Helvetica,sans-Serif" font-size="10.00">ACSL&#45;flightstack/include</text>
<text text-anchor="start" x="1128.5" y="-163.5" font-family="Helvetica,sans-Serif" font-size="10.00">/flightstack/multi_threaded</text>
<text text-anchor="middle" x="1194.5" y="-152.5" font-family="Helvetica,sans-Serif" font-size="10.00">_node.hpp</text>
</a>
</g>
</g>
<!-- Node1&#45;&gt;Node2 -->
<g id="edge1" class="edge">
<title>Node1&#45;&gt;Node2</title>
<path fill="none" stroke="midnightblue" d="M1845.09,-233.55C1695.95,-218.29 1405.12,-188.54 1268.61,-174.58"/>
<polygon fill="midnightblue" stroke="midnightblue" points="1844.84,-237.04 1855.15,-234.58 1845.56,-230.08 1844.84,-237.04"/>
</g>
<!-- Node14 -->
<g id="node14" class="node">
<title>Node14</title>
<g id="a_node14"><a xlink:href="pixhawk__vehicle__odometry_8cpp.html" target="_top" xlink:title="Callback that is executed everytime a VehicleOdometry message is made available by Pixhawk.">
<polygon fill="white" stroke="black" points="1860.5,-67.5 1860.5,-108.5 2014.5,-108.5 2014.5,-67.5 1860.5,-67.5"/>
<text text-anchor="start" x="1868.5" y="-96.5" font-family="Helvetica,sans-Serif" font-size="10.00">ACSL&#45;flightstack/src</text>
<text text-anchor="start" x="1868.5" y="-85.5" font-family="Helvetica,sans-Serif" font-size="10.00">/pixhawk_interface/pixhawk</text>
<text text-anchor="middle" x="1937.5" y="-74.5" font-family="Helvetica,sans-Serif" font-size="10.00">_vehicle_odometry.cpp</text>
</a>
</g>
</g>
<!-- Node1&#45;&gt;Node14 -->
<g id="edge17" class="edge">
<title>Node1&#45;&gt;Node14</title>
<path fill="none" stroke="midnightblue" d="M1937.5,-213.36C1937.5,-182.61 1937.5,-135.36 1937.5,-108.83"/>
<polygon fill="midnightblue" stroke="midnightblue" points="1934,-213.5 1937.5,-223.5 1941,-213.5 1934,-213.5"/>
</g>
<!-- Node15 -->
<g id="node15" class="node">
<title>Node15</title>
<g id="a_node15"><a xlink:href="vehicle__state_8cpp.html" target="_top" xlink:title="Class storing the state of the vehicle coming from the flight controller (Pixhawk)">
<polygon fill="white" stroke="black" points="2032.5,-67.5 2032.5,-108.5 2180.5,-108.5 2180.5,-67.5 2032.5,-67.5"/>
<text text-anchor="start" x="2040.5" y="-96.5" font-family="Helvetica,sans-Serif" font-size="10.00">ACSL&#45;flightstack/src</text>
<text text-anchor="start" x="2040.5" y="-85.5" font-family="Helvetica,sans-Serif" font-size="10.00">/pixhawk_interface/vehicle</text>
<text text-anchor="middle" x="2106.5" y="-74.5" font-family="Helvetica,sans-Serif" font-size="10.00">_state.cpp</text>
</a>
</g>
</g>
<!-- Node1&#45;&gt;Node15 -->
<g id="edge18" class="edge">
<title>Node1&#45;&gt;Node15</title>
<path fill="none" stroke="midnightblue" d="M1966.57,-216.51C2000.25,-185.82 2054.94,-135.98 2085,-108.59"/>
<polygon fill="midnightblue" stroke="midnightblue" points="1963.94,-214.17 1958.9,-223.5 1968.65,-219.35 1963.94,-214.17"/>
</g>
<!-- Node3 -->
<g id="node3" class="node">
<title>Node3</title>
<g id="a_node3"><a xlink:href="main_8hpp.html" target="_top" xlink:title="Main file.">
<polygon fill="white" stroke="black" points="985.5,-73 985.5,-103 1119.5,-103 1119.5,-73 985.5,-73"/>
<text text-anchor="start" x="993.5" y="-91" font-family="Helvetica,sans-Serif" font-size="10.00">ACSL&#45;flightstack/include</text>
<text text-anchor="middle" x="1052.5" y="-80" font-family="Helvetica,sans-Serif" font-size="10.00">/flightstack/main.hpp</text>
</a>
</g>
</g>
<!-- Node2&#45;&gt;Node3 -->
<g id="edge2" class="edge">
<title>Node2&#45;&gt;Node3</title>
<path fill="none" stroke="midnightblue" d="M1148.99,-140.64C1125.92,-128.3 1098.71,-113.73 1079.08,-103.23"/>
<polygon fill="midnightblue" stroke="midnightblue" points="1147.46,-143.8 1157.93,-145.43 1150.77,-137.62 1147.46,-143.8"/>
</g>
<!-- Node5 -->
<g id="node5" class="node">
<title>Node5</title>
<g id="a_node5"><a xlink:href="config_8cpp.html" target="_top" xlink:title="Contains the functions that reads the configuration parameters and assigns it to the members of the C...">
<polygon fill="white" stroke="black" points="1138,-73 1138,-103 1251,-103 1251,-73 1138,-73"/>
<text text-anchor="start" x="1146" y="-91" font-family="Helvetica,sans-Serif" font-size="10.00">ACSL&#45;flightstack/src</text>
<text text-anchor="middle" x="1194.5" y="-80" font-family="Helvetica,sans-Serif" font-size="10.00">/config/config.cpp</text>
</a>
</g>
</g>
<!-- Node2&#45;&gt;Node5 -->
<g id="edge4" class="edge">
<title>Node2&#45;&gt;Node5</title>
<path fill="none" stroke="midnightblue" d="M1194.5,-135.28C1194.5,-124.25 1194.5,-112.25 1194.5,-103.23"/>
<polygon fill="midnightblue" stroke="midnightblue" points="1191,-135.43 1194.5,-145.43 1198,-135.43 1191,-135.43"/>
</g>
<!-- Node6 -->
<g id="node6" class="node">
<title>Node6</title>
<g id="a_node6"><a xlink:href="control_8cpp.html" target="_top" xlink:title="This file contains the general class containing the common memvers used by most of the control algori...">
<polygon fill="white" stroke="black" points="1269,-73 1269,-103 1382,-103 1382,-73 1269,-73"/>
<text text-anchor="start" x="1277" y="-91" font-family="Helvetica,sans-Serif" font-size="10.00">ACSL&#45;flightstack/src</text>
<text text-anchor="middle" x="1325.5" y="-80" font-family="Helvetica,sans-Serif" font-size="10.00">/control/control.cpp</text>
</a>
</g>
</g>
<!-- Node2&#45;&gt;Node6 -->
<g id="edge5" class="edge">
<title>Node2&#45;&gt;Node6</title>
<path fill="none" stroke="midnightblue" d="M1237.05,-140.31C1258.21,-128.04 1283.03,-113.64 1300.98,-103.23"/>
<polygon fill="midnightblue" stroke="midnightblue" points="1235.13,-137.38 1228.24,-145.43 1238.64,-143.44 1235.13,-137.38"/>
</g>
<!-- Node7 -->
<g id="node7" class="node">
<title>Node7</title>
<g id="a_node7"><a xlink:href="control__callback_8cpp.html" target="_top" xlink:title="Callback that is executed at a fixed specified rate defined by the &quot;timer_controller_&quot;.">
<polygon fill="white" stroke="black" points="1400.5,-73 1400.5,-103 1556.5,-103 1556.5,-73 1400.5,-73"/>
<text text-anchor="start" x="1408.5" y="-91" font-family="Helvetica,sans-Serif" font-size="10.00">ACSL&#45;flightstack/src</text>
<text text-anchor="middle" x="1478.5" y="-80" font-family="Helvetica,sans-Serif" font-size="10.00">/control/control_callback.cpp</text>
</a>
</g>
</g>
<!-- Node2&#45;&gt;Node7 -->
<g id="edge6" class="edge">
<title>Node2&#45;&gt;Node7</title>
<path fill="none" stroke="midnightblue" d="M1277.38,-142.82C1325.3,-130 1384.16,-114.25 1425.79,-103.11"/>
<polygon fill="midnightblue" stroke="midnightblue" points="1276.39,-139.46 1267.64,-145.43 1278.2,-146.22 1276.39,-139.46"/>
</g>
<!-- Node8 -->
<g id="node8" class="node">
<title>Node8</title>
<g id="a_node8"><a xlink:href="logging__mrac_8cpp.html" target="_top" xlink:title="Logger for the MRAC controller.">
<polygon fill="white" stroke="black" points="1574.5,-67.5 1574.5,-108.5 1694.5,-108.5 1694.5,-67.5 1574.5,-67.5"/>
<text text-anchor="start" x="1582.5" y="-96.5" font-family="Helvetica,sans-Serif" font-size="10.00">ACSL&#45;flightstack/src</text>
<text text-anchor="start" x="1582.5" y="-85.5" font-family="Helvetica,sans-Serif" font-size="10.00">/control/mrac/logging</text>
<text text-anchor="middle" x="1634.5" y="-74.5" font-family="Helvetica,sans-Serif" font-size="10.00">_mrac.cpp</text>
</a>
</g>
</g>
<!-- Node2&#45;&gt;Node8 -->
<g id="edge7" class="edge">
<title>Node2&#45;&gt;Node8</title>
<path fill="none" stroke="midnightblue" d="M1278.53,-155.54C1354.11,-146.26 1467.92,-130.41 1565.5,-109 1568.42,-108.36 1571.41,-107.66 1574.41,-106.93"/>
<polygon fill="midnightblue" stroke="midnightblue" points="1278.09,-152.06 1268.59,-156.75 1278.94,-159.01 1278.09,-152.06"/>
</g>
<!-- Node9 -->
<g id="node9" class="node">
<title>Node9</title>
<g id="a_node9"><a xlink:href="mrac_8cpp.html" target="_top" xlink:title="Implementation of the MRAC controller.">
<polygon fill="white" stroke="black" points="1713,-73 1713,-103 1842,-103 1842,-73 1713,-73"/>
<text text-anchor="start" x="1721" y="-91" font-family="Helvetica,sans-Serif" font-size="10.00">ACSL&#45;flightstack/src</text>
<text text-anchor="middle" x="1777.5" y="-80" font-family="Helvetica,sans-Serif" font-size="10.00">/control/mrac/mrac.cpp</text>
</a>
</g>
</g>
<!-- Node2&#45;&gt;Node9 -->
<g id="edge8" class="edge">
<title>Node2&#45;&gt;Node9</title>
<path fill="none" stroke="midnightblue" d="M1278.98,-159.71C1380.44,-152.45 1555.49,-136.97 1703.5,-109 1712.13,-107.37 1721.23,-105.25 1729.98,-103"/>
<polygon fill="midnightblue" stroke="midnightblue" points="1278.51,-156.24 1268.79,-160.43 1279.01,-163.22 1278.51,-156.24"/>
</g>
<!-- Node10 -->
<g id="node10" class="node">
<title>Node10</title>
<g id="a_node10"><a xlink:href="logging__pid_8cpp.html" target="_top" xlink:title="Logger for the PID controller.">
<polygon fill="white" stroke="black" points="0,-67.5 0,-108.5 113,-108.5 113,-67.5 0,-67.5"/>
<text text-anchor="start" x="8" y="-96.5" font-family="Helvetica,sans-Serif" font-size="10.00">ACSL&#45;flightstack/src</text>
<text text-anchor="start" x="8" y="-85.5" font-family="Helvetica,sans-Serif" font-size="10.00">/control/pid/logging</text>
<text text-anchor="middle" x="56.5" y="-74.5" font-family="Helvetica,sans-Serif" font-size="10.00">_pid.cpp</text>
</a>
</g>
</g>
<!-- Node2&#45;&gt;Node10 -->
<g id="edge9" class="edge">
<title>Node2&#45;&gt;Node10</title>
<path fill="none" stroke="midnightblue" d="M1110.07,-163.28C891.47,-158.39 310.9,-142.55 121.5,-109 118.71,-108.51 115.87,-107.93 113.02,-107.29"/>
<polygon fill="midnightblue" stroke="midnightblue" points="1110.12,-166.78 1120.2,-163.5 1110.28,-159.78 1110.12,-166.78"/>
</g>
<!-- Node11 -->
<g id="node11" class="node">
<title>Node11</title>
<g id="a_node11"><a xlink:href="pid_8cpp.html" target="_top" xlink:title="Immplementation of the PID controller.">
<polygon fill="white" stroke="black" points="131,-73 131,-103 244,-103 244,-73 131,-73"/>
<text text-anchor="start" x="139" y="-91" font-family="Helvetica,sans-Serif" font-size="10.00">ACSL&#45;flightstack/src</text>
<text text-anchor="middle" x="187.5" y="-80" font-family="Helvetica,sans-Serif" font-size="10.00">/control/pid/pid.cpp</text>
</a>
</g>
</g>
<!-- Node2&#45;&gt;Node11 -->
<g id="edge10" class="edge">
<title>Node2&#45;&gt;Node11</title>
<path fill="none" stroke="midnightblue" d="M1110.32,-162.57C911.24,-156.42 415.91,-138.56 252.5,-109 244.37,-107.53 235.82,-105.37 227.7,-103"/>
<polygon fill="midnightblue" stroke="midnightblue" points="1110.33,-166.08 1120.44,-162.88 1110.55,-159.08 1110.33,-166.08"/>
</g>
<!-- Node12 -->
<g id="node12" class="node">
<title>Node12</title>
<g id="a_node12"><a xlink:href="multi__threaded__node_8cpp.html" target="_top" xlink:title="Multithreaded ROS2 ndoe that joins together all the flight stakc components.">
<polygon fill="white" stroke="black" points="262,-73 262,-103 405,-103 405,-73 262,-73"/>
<text text-anchor="start" x="270" y="-91" font-family="Helvetica,sans-Serif" font-size="10.00">ACSL&#45;flightstack/src</text>
<text text-anchor="middle" x="333.5" y="-80" font-family="Helvetica,sans-Serif" font-size="10.00">/multi_threaded_node.cpp</text>
</a>
</g>
</g>
<!-- Node2&#45;&gt;Node12 -->
<g id="edge11" class="edge">
<title>Node2&#45;&gt;Node12</title>
<path fill="none" stroke="midnightblue" d="M1110.29,-163.65C966.7,-160.29 665.61,-148.72 414.5,-109 404.77,-107.46 394.5,-105.33 384.65,-103.03"/>
<polygon fill="midnightblue" stroke="midnightblue" points="1110.28,-167.15 1120.36,-163.87 1110.44,-160.15 1110.28,-167.15"/>
</g>
<!-- Node13 -->
<g id="node13" class="node">
<title>Node13</title>
<g id="a_node13"><a xlink:href="pixhawk__actuator__motors_8cpp.html" target="_top" xlink:title="Callback that is executed at a fixed specified rate defined by the &quot;timer_controller_&quot;.">
<polygon fill="white" stroke="black" points="423.5,-67.5 423.5,-108.5 577.5,-108.5 577.5,-67.5 423.5,-67.5"/>
<text text-anchor="start" x="431.5" y="-96.5" font-family="Helvetica,sans-Serif" font-size="10.00">ACSL&#45;flightstack/src</text>
<text text-anchor="start" x="431.5" y="-85.5" font-family="Helvetica,sans-Serif" font-size="10.00">/pixhawk_interface/pixhawk</text>
<text text-anchor="middle" x="500.5" y="-74.5" font-family="Helvetica,sans-Serif" font-size="10.00">_actuator_motors.cpp</text>
</a>
</g>
</g>
<!-- Node2&#45;&gt;Node13 -->
<g id="edge12" class="edge">
<title>Node2&#45;&gt;Node13</title>
<path fill="none" stroke="midnightblue" d="M1110.11,-160.88C992.29,-154.3 772.07,-138.98 586.5,-109 583.62,-108.54 580.7,-108.03 577.76,-107.49"/>
<polygon fill="midnightblue" stroke="midnightblue" points="1109.97,-164.38 1120.15,-161.43 1110.36,-157.39 1109.97,-164.38"/>
</g>
<!-- Node2&#45;&gt;Node14 -->
<g id="edge13" class="edge">
<title>Node2&#45;&gt;Node14</title>
<path fill="none" stroke="midnightblue" d="M1278.98,-161.59C1404.35,-155.68 1646.76,-140.95 1850.5,-109 1853.72,-108.5 1856.99,-107.94 1860.29,-107.34"/>
<polygon fill="midnightblue" stroke="midnightblue" points="1278.52,-158.11 1268.69,-162.07 1278.84,-165.1 1278.52,-158.11"/>
</g>
<!-- Node2&#45;&gt;Node15 -->
<g id="edge14" class="edge">
<title>Node2&#45;&gt;Node15</title>
<path fill="none" stroke="midnightblue" d="M1278.8,-164C1429.22,-161.17 1753.44,-150.36 2023.5,-109 2026.43,-108.55 2029.41,-108.05 2032.41,-107.51"/>
<polygon fill="midnightblue" stroke="midnightblue" points="1278.64,-160.5 1268.71,-164.18 1278.77,-167.5 1278.64,-160.5"/>
</g>
<!-- Node16 -->
<g id="node16" class="node">
<title>Node16</title>
<g id="a_node16"><a xlink:href="piecewise__polynomial__trajectory_8cpp.html" target="_top" xlink:title="Piecewise polynomial minimu&#45;jerk trajectory computed offline through a MATLAB script.">
<polygon fill="white" stroke="black" points="595.5,-67.5 595.5,-108.5 795.5,-108.5 795.5,-67.5 595.5,-67.5"/>
<text text-anchor="start" x="603.5" y="-96.5" font-family="Helvetica,sans-Serif" font-size="10.00">ACSL&#45;flightstack/src</text>
<text text-anchor="start" x="603.5" y="-85.5" font-family="Helvetica,sans-Serif" font-size="10.00">/user_defined_trajectory</text>
<text text-anchor="middle" x="695.5" y="-74.5" font-family="Helvetica,sans-Serif" font-size="10.00">/piecewise_polynomial_trajectory.cpp</text>
</a>
</g>
</g>
<!-- Node2&#45;&gt;Node16 -->
<g id="edge15" class="edge">
<title>Node2&#45;&gt;Node16</title>
<path fill="none" stroke="midnightblue" d="M1109.94,-153.82C1030.84,-143.14 909.48,-126.16 804.5,-109 801.56,-108.52 798.57,-108.02 795.56,-107.52"/>
<polygon fill="midnightblue" stroke="midnightblue" points="1109.95,-157.36 1120.33,-155.22 1110.89,-150.42 1109.95,-157.36"/>
</g>
<!-- Node17 -->
<g id="node17" class="node">
<title>Node17</title>
<g id="a_node17"><a xlink:href="user__defined__trajectory_8cpp.html" target="_top" xlink:title="Class that contains the common members that each type of user&#45;defined trajectory class will inherit.">
<polygon fill="white" stroke="black" points="814,-67.5 814,-108.5 967,-108.5 967,-67.5 814,-67.5"/>
<text text-anchor="start" x="822" y="-96.5" font-family="Helvetica,sans-Serif" font-size="10.00">ACSL&#45;flightstack/src</text>
<text text-anchor="start" x="822" y="-85.5" font-family="Helvetica,sans-Serif" font-size="10.00">/user_defined_trajectory</text>
<text text-anchor="middle" x="890.5" y="-74.5" font-family="Helvetica,sans-Serif" font-size="10.00">/user_defined_trajectory.cpp</text>
</a>
</g>
</g>
<!-- Node2&#45;&gt;Node17 -->
<g id="edge16" class="edge">
<title>Node2&#45;&gt;Node17</title>
<path fill="none" stroke="midnightblue" d="M1110.42,-143.98C1065.53,-132.76 1010.69,-119.05 967.01,-108.13"/>
<polygon fill="midnightblue" stroke="midnightblue" points="1109.58,-147.38 1120.13,-146.41 1111.28,-140.59 1109.58,-147.38"/>
</g>
<!-- Node4 -->
<g id="node4" class="node">
<title>Node4</title>
<g id="a_node4"><a xlink:href="main_8cpp.html" target="_top" xlink:title="FlightStack (Multirotor) main.cpp file.">
<polygon fill="white" stroke="black" points="996,-0.5 996,-30.5 1109,-30.5 1109,-0.5 996,-0.5"/>
<text text-anchor="start" x="1004" y="-18.5" font-family="Helvetica,sans-Serif" font-size="10.00">ACSL&#45;flightstack/src</text>
<text text-anchor="middle" x="1052.5" y="-7.5" font-family="Helvetica,sans-Serif" font-size="10.00">/main.cpp</text>
</a>
</g>
</g>
<!-- Node3&#45;&gt;Node4 -->
<g id="edge3" class="edge">
<title>Node3&#45;&gt;Node4</title>
<path fill="none" stroke="midnightblue" d="M1052.5,-62.73C1052.5,-52.07 1052.5,-39.91 1052.5,-30.75"/>
<polygon fill="midnightblue" stroke="midnightblue" points="1049,-62.73 1052.5,-72.73 1056,-62.73 1049,-62.73"/>
</g>
</g>
</svg>
        <g id="navigator" transform="translate(0 0)" fill="#404254">
                <rect fill="#f2f5e9" fill-opacity="0.5" stroke="#606060" stroke-width=".5" x="0" y="0" width="60" height="60"/>
                <use id="zoomplus" xlink:href="#zoomPlus" x="17" y="9" onmousedown="handleZoom(evt,'in')"/>
                <use id="zoomminus" xlink:href="#zoomMin" x="42" y="9" onmousedown="handleZoom(evt,'out')"/>
                <use id="reset" xlink:href="#resetDef" x="30" y="36" onmousedown="handleReset()"/>
                <g id="arrowUp" xlink:href="#dirArrow" transform="translate(30 24)" onmousedown="handlePan(0,-1)">
                  <use xlink:href="#rim" fill="#404040">
                        <set attributeName="fill" to="#808080" begin="arrowUp.mouseover" end="arrowUp.mouseout"/>
                  </use>
                  <path fill="none" stroke="white" stroke-width="1.5" d="M0,-3.0v7 M-2.5,-0.5L0,-3.0L2.5,-0.5"/>
                </g>
                <g id="arrowRight" xlink:href="#dirArrow" transform="rotate(90) translate(36 -43)" onmousedown="handlePan(1,0)">
                  <use xlink:href="#rim" fill="#404040">
                        <set attributeName="fill" to="#808080" begin="arrowRight.mouseover" end="arrowRight.mouseout"/>
                  </use>
                  <path fill="none" stroke="white" stroke-width="1.5" d="M0,-3.0v7 M-2.5,-0.5L0,-3.0L2.5,-0.5"/>
                </g>
                <g id="arrowDown" xlink:href="#dirArrow" transform="rotate(180) translate(-30 -48)" onmousedown="handlePan(0,1)">
                  <use xlink:href="#rim" fill="#404040">
                        <set attributeName="fill" to="#808080" begin="arrowDown.mouseover" end="arrowDown.mouseout"/>
                  </use>
                  <path fill="none" stroke="white" stroke-width="1.5" d="M0,-3.0v7 M-2.5,-0.5L0,-3.0L2.5,-0.5"/>
                </g>
                <g id="arrowLeft" xlink:href="#dirArrow" transform="rotate(270) translate(-36 17)" onmousedown="handlePan(-1,0)">
                  <use xlink:href="#rim" fill="#404040">
                        <set attributeName="fill" to="#808080" begin="arrowLeft.mouseover" end="arrowLeft.mouseout"/>
                  </use>
                  <path fill="none" stroke="white" stroke-width="1.5" d="M0,-3.0v7 M-2.5,-0.5L0,-3.0L2.5,-0.5"/>
                </g>
        </g>
        <svg viewBox="0 0 15 15" width="100%" height="30px" preserveAspectRatio="xMaxYMin meet">
         <g id="arrow_out" transform="scale(0.3 0.3)">
          <a xlink:href="vehicle__state_8hpp__dep__incl_org.svg" target="_base">
           <rect id="button" ry="5" rx="5" y="6" x="6" height="38" width="38"
                fill="#f2f5e9" fill-opacity="0.5" stroke="#606060" stroke-width="1.0"/>
           <path id="arrow"
             d="M 11.500037,31.436501 C 11.940474,20.09759 22.043105,11.32322 32.158766,21.979434 L 37.068811,17.246167 C 37.068811,17.246167 37.088388,32 37.088388,32 L 22.160133,31.978069 C 22.160133,31.978069 26.997745,27.140456 26.997745,27.140456 C 18.528582,18.264221 13.291696,25.230495 11.500037,31.436501 z"
             style="fill:#404040;"/>
          </a>
         </g>
        </svg>
</svg>
