<?xml version="1.0" encoding="UTF-8" standalone="no"?>
<!DOCTYPE svg PUBLIC "-//W3C//DTD SVG 1.1//EN"
 "http://www.w3.org/Graphics/SVG/1.1/DTD/svg11.dtd">
<!-- Generated by graphviz version 2.43.0 (0)
 -->
<!-- Title: /mnt/c/Users/siddh/OneDrive/Desktop/ACSL&#45;flightstack/include/flightstack/control/vehicle_info.hpp Pages: 1 -->
<svg width="2263pt" height="595pt"
 viewBox="0.00 0.00 2263.00 595.00" xmlns="http://www.w3.org/2000/svg" xmlns:xlink="http://www.w3.org/1999/xlink">
<g id="graph0" class="graph" transform="scale(1 1) rotate(0) translate(4 591)">
<title>/mnt/c/Users/siddh/OneDrive/Desktop/ACSL&#45;flightstack/include/flightstack/control/vehicle_info.hpp</title>
<polygon fill="white" stroke="transparent" points="-4,4 -4,-591 2259,-591 2259,4 -4,4"/>
<!-- Node1 -->
<g id="node1" class="node">
<title>Node1</title>
<g id="a_node1"><a xlink:title="Vehicle properties such as mass, intertia matrix, motor thrust curves, etc.">
<polygon fill="#bfbfbf" stroke="black" points="1639.5,-534.5 1639.5,-586.5 1803.5,-586.5 1803.5,-534.5 1639.5,-534.5"/>
<text text-anchor="start" x="1647.5" y="-574.5" font-family="Helvetica,sans-Serif" font-size="10.00">/mnt/c/Users/siddh</text>
<text text-anchor="start" x="1647.5" y="-563.5" font-family="Helvetica,sans-Serif" font-size="10.00">/OneDrive/Desktop/ACSL</text>
<text text-anchor="start" x="1647.5" y="-552.5" font-family="Helvetica,sans-Serif" font-size="10.00">&#45;flightstack/include/flightstack</text>
<text text-anchor="middle" x="1721.5" y="-541.5" font-family="Helvetica,sans-Serif" font-size="10.00">/control/vehicle_info.hpp</text>
</a>
</g>
</g>
<!-- Node2 -->
<g id="node2" class="node">
<title>Node2</title>
<g id="a_node2"><a xlink:href="control_8hpp.html" target="_top" xlink:title="General class that contains common members used by most of the control algorithms.">
<polygon fill="white" stroke="black" points="1639.5,-445.5 1639.5,-497.5 1803.5,-497.5 1803.5,-445.5 1639.5,-445.5"/>
<text text-anchor="start" x="1647.5" y="-485.5" font-family="Helvetica,sans-Serif" font-size="10.00">/mnt/c/Users/siddh</text>
<text text-anchor="start" x="1647.5" y="-474.5" font-family="Helvetica,sans-Serif" font-size="10.00">/OneDrive/Desktop/ACSL</text>
<text text-anchor="start" x="1647.5" y="-463.5" font-family="Helvetica,sans-Serif" font-size="10.00">&#45;flightstack/include/flightstack</text>
<text text-anchor="middle" x="1721.5" y="-452.5" font-family="Helvetica,sans-Serif" font-size="10.00">/control/control.hpp</text>
</a>
</g>
</g>
<!-- Node1&#45;&gt;Node2 -->
<g id="edge1" class="edge">
<title>Node1&#45;&gt;Node2</title>
<path fill="none" stroke="midnightblue" d="M1721.5,-524.19C1721.5,-515.28 1721.5,-505.9 1721.5,-497.61"/>
<polygon fill="midnightblue" stroke="midnightblue" points="1718,-524.34 1721.5,-534.34 1725,-524.34 1718,-524.34"/>
</g>
<!-- Node3 -->
<g id="node3" class="node">
<title>Node3</title>
<g id="a_node3"><a xlink:href="mrac_8hpp.html" target="_top" xlink:title="Implementation of MRAC controller.">
<polygon fill="white" stroke="black" points="314.5,-356.5 314.5,-408.5 478.5,-408.5 478.5,-356.5 314.5,-356.5"/>
<text text-anchor="start" x="322.5" y="-396.5" font-family="Helvetica,sans-Serif" font-size="10.00">/mnt/c/Users/siddh</text>
<text text-anchor="start" x="322.5" y="-385.5" font-family="Helvetica,sans-Serif" font-size="10.00">/OneDrive/Desktop/ACSL</text>
<text text-anchor="start" x="322.5" y="-374.5" font-family="Helvetica,sans-Serif" font-size="10.00">&#45;flightstack/include/flightstack</text>
<text text-anchor="middle" x="396.5" y="-363.5" font-family="Helvetica,sans-Serif" font-size="10.00">/control/mrac/mrac.hpp</text>
</a>
</g>
</g>
<!-- Node2&#45;&gt;Node3 -->
<g id="edge2" class="edge">
<title>Node2&#45;&gt;Node3</title>
<path fill="none" stroke="midnightblue" d="M1629.12,-464.43C1382.71,-448.26 712.73,-404.26 478.59,-388.89"/>
<polygon fill="midnightblue" stroke="midnightblue" points="1628.91,-467.93 1639.12,-465.09 1629.37,-460.94 1628.91,-467.93"/>
</g>
<!-- Node5 -->
<g id="node5" class="node">
<title>Node5</title>
<g id="a_node5"><a xlink:href="multi__threaded__node_8hpp.html" target="_top" xlink:title="Multithreaded ROS2 node that joins together all the flight stack components.">
<polygon fill="white" stroke="black" points="1052.5,-178.5 1052.5,-230.5 1216.5,-230.5 1216.5,-178.5 1052.5,-178.5"/>
<text text-anchor="start" x="1060.5" y="-218.5" font-family="Helvetica,sans-Serif" font-size="10.00">/mnt/c/Users/siddh</text>
<text text-anchor="start" x="1060.5" y="-207.5" font-family="Helvetica,sans-Serif" font-size="10.00">/OneDrive/Desktop/ACSL</text>
<text text-anchor="start" x="1060.5" y="-196.5" font-family="Helvetica,sans-Serif" font-size="10.00">&#45;flightstack/include/flightstack</text>
<text text-anchor="middle" x="1134.5" y="-185.5" font-family="Helvetica,sans-Serif" font-size="10.00">/multi_threaded_node.hpp</text>
</a>
</g>
</g>
<!-- Node2&#45;&gt;Node5 -->
<g id="edge27" class="edge">
<title>Node2&#45;&gt;Node5</title>
<path fill="none" stroke="midnightblue" d="M1656.86,-441.32C1540.79,-388.92 1298.98,-279.76 1189.94,-230.53"/>
<polygon fill="midnightblue" stroke="midnightblue" points="1655.46,-444.53 1666.01,-445.45 1658.34,-438.15 1655.46,-444.53"/>
</g>
<!-- Node9 -->
<g id="node9" class="node">
<title>Node9</title>
<g id="a_node9"><a xlink:href="control_8cpp.html" target="_top" xlink:title="This file contains the general class containing the common memvers used by most of the control algori...">
<polygon fill="white" stroke="black" points="1653,-84 1653,-136 1790,-136 1790,-84 1653,-84"/>
<text text-anchor="start" x="1661" y="-124" font-family="Helvetica,sans-Serif" font-size="10.00">/mnt/c/Users/siddh</text>
<text text-anchor="start" x="1661" y="-113" font-family="Helvetica,sans-Serif" font-size="10.00">/OneDrive/Desktop/ACSL</text>
<text text-anchor="start" x="1661" y="-102" font-family="Helvetica,sans-Serif" font-size="10.00">&#45;flightstack/src/control</text>
<text text-anchor="middle" x="1721.5" y="-91" font-family="Helvetica,sans-Serif" font-size="10.00">/control.cpp</text>
</a>
</g>
</g>
<!-- Node2&#45;&gt;Node9 -->
<g id="edge28" class="edge">
<title>Node2&#45;&gt;Node9</title>
<path fill="none" stroke="midnightblue" d="M1721.5,-434.78C1721.5,-362.19 1721.5,-199.01 1721.5,-136.25"/>
<polygon fill="midnightblue" stroke="midnightblue" points="1718,-435.22 1721.5,-445.22 1725,-435.22 1718,-435.22"/>
</g>
<!-- Node10 -->
<g id="node10" class="node">
<title>Node10</title>
<g id="a_node10"><a xlink:href="control__callback_8cpp.html" target="_top" xlink:title="Callback that is executed at a fixed specified rate defined by the &quot;timer_controller_&quot;.">
<polygon fill="white" stroke="black" points="1808,-84 1808,-136 1945,-136 1945,-84 1808,-84"/>
<text text-anchor="start" x="1816" y="-124" font-family="Helvetica,sans-Serif" font-size="10.00">/mnt/c/Users/siddh</text>
<text text-anchor="start" x="1816" y="-113" font-family="Helvetica,sans-Serif" font-size="10.00">/OneDrive/Desktop/ACSL</text>
<text text-anchor="start" x="1816" y="-102" font-family="Helvetica,sans-Serif" font-size="10.00">&#45;flightstack/src/control</text>
<text text-anchor="middle" x="1876.5" y="-91" font-family="Helvetica,sans-Serif" font-size="10.00">/control_callback.cpp</text>
</a>
</g>
</g>
<!-- Node2&#45;&gt;Node10 -->
<g id="edge29" class="edge">
<title>Node2&#45;&gt;Node10</title>
<path fill="none" stroke="midnightblue" d="M1736.52,-435.67C1767.62,-363.54 1838.44,-199.26 1865.61,-136.25"/>
<polygon fill="midnightblue" stroke="midnightblue" points="1733.14,-434.65 1732.4,-445.22 1739.57,-437.42 1733.14,-434.65"/>
</g>
<!-- Node22 -->
<g id="node22" class="node">
<title>Node22</title>
<g id="a_node22"><a xlink:href="pid_8hpp.html" target="_top" xlink:title="Implementation of the PID controller.">
<polygon fill="white" stroke="black" points="1949.5,-178.5 1949.5,-230.5 2113.5,-230.5 2113.5,-178.5 1949.5,-178.5"/>
<text text-anchor="start" x="1957.5" y="-218.5" font-family="Helvetica,sans-Serif" font-size="10.00">/mnt/c/Users/siddh</text>
<text text-anchor="start" x="1957.5" y="-207.5" font-family="Helvetica,sans-Serif" font-size="10.00">/OneDrive/Desktop/ACSL</text>
<text text-anchor="start" x="1957.5" y="-196.5" font-family="Helvetica,sans-Serif" font-size="10.00">&#45;flightstack/include/flightstack</text>
<text text-anchor="middle" x="2031.5" y="-185.5" font-family="Helvetica,sans-Serif" font-size="10.00">/control/pid/pid.hpp</text>
</a>
</g>
</g>
<!-- Node2&#45;&gt;Node22 -->
<g id="edge24" class="edge">
<title>Node2&#45;&gt;Node22</title>
<path fill="none" stroke="midnightblue" d="M1783.12,-440.51C1799.76,-431.32 1817.35,-420.55 1832.5,-409 1905.4,-353.43 1977.14,-271.55 2011.12,-230.66"/>
<polygon fill="midnightblue" stroke="midnightblue" points="1781.12,-437.61 1773.99,-445.45 1784.45,-443.77 1781.12,-437.61"/>
</g>
<!-- Node4 -->
<g id="node4" class="node">
<title>Node4</title>
<g id="a_node4"><a xlink:href="config_8hpp.html" target="_top" xlink:title="Configuration file. Here you specify which cotroller you want to run at compile time.">
<polygon fill="white" stroke="black" points="381.5,-267.5 381.5,-319.5 545.5,-319.5 545.5,-267.5 381.5,-267.5"/>
<text text-anchor="start" x="389.5" y="-307.5" font-family="Helvetica,sans-Serif" font-size="10.00">/mnt/c/Users/siddh</text>
<text text-anchor="start" x="389.5" y="-296.5" font-family="Helvetica,sans-Serif" font-size="10.00">/OneDrive/Desktop/ACSL</text>
<text text-anchor="start" x="389.5" y="-285.5" font-family="Helvetica,sans-Serif" font-size="10.00">&#45;flightstack/include/flightstack</text>
<text text-anchor="middle" x="463.5" y="-274.5" font-family="Helvetica,sans-Serif" font-size="10.00">/config/config.hpp</text>
</a>
</g>
</g>
<!-- Node3&#45;&gt;Node4 -->
<g id="edge3" class="edge">
<title>Node3&#45;&gt;Node4</title>
<path fill="none" stroke="midnightblue" d="M422.13,-348.22C429.45,-338.72 437.29,-328.53 444.16,-319.61"/>
<polygon fill="midnightblue" stroke="midnightblue" points="419.21,-346.28 415.88,-356.34 424.75,-350.55 419.21,-346.28"/>
</g>
<!-- Node11 -->
<g id="node11" class="node">
<title>Node11</title>
<g id="a_node11"><a xlink:href="logging__mrac_8cpp.html" target="_top" xlink:title="Logger for the MRAC controller.">
<polygon fill="white" stroke="black" points="0,-84 0,-136 137,-136 137,-84 0,-84"/>
<text text-anchor="start" x="8" y="-124" font-family="Helvetica,sans-Serif" font-size="10.00">/mnt/c/Users/siddh</text>
<text text-anchor="start" x="8" y="-113" font-family="Helvetica,sans-Serif" font-size="10.00">/OneDrive/Desktop/ACSL</text>
<text text-anchor="start" x="8" y="-102" font-family="Helvetica,sans-Serif" font-size="10.00">&#45;flightstack/src/control</text>
<text text-anchor="middle" x="68.5" y="-91" font-family="Helvetica,sans-Serif" font-size="10.00">/mrac/logging_mrac.cpp</text>
</a>
</g>
</g>
<!-- Node3&#45;&gt;Node11 -->
<g id="edge22" class="edge">
<title>Node3&#45;&gt;Node11</title>
<path fill="none" stroke="midnightblue" d="M357.94,-349.92C346.23,-340.32 333.33,-329.74 321.5,-320 241,-253.74 146.31,-175.41 98.85,-136.13"/>
<polygon fill="midnightblue" stroke="midnightblue" points="355.87,-352.76 365.83,-356.39 360.31,-347.34 355.87,-352.76"/>
</g>
<!-- Node12 -->
<g id="node12" class="node">
<title>Node12</title>
<g id="a_node12"><a xlink:href="mrac_8cpp.html" target="_top" xlink:title="Implementation of the MRAC controller.">
<polygon fill="white" stroke="black" points="155,-84 155,-136 292,-136 292,-84 155,-84"/>
<text text-anchor="start" x="163" y="-124" font-family="Helvetica,sans-Serif" font-size="10.00">/mnt/c/Users/siddh</text>
<text text-anchor="start" x="163" y="-113" font-family="Helvetica,sans-Serif" font-size="10.00">/OneDrive/Desktop/ACSL</text>
<text text-anchor="start" x="163" y="-102" font-family="Helvetica,sans-Serif" font-size="10.00">&#45;flightstack/src/control</text>
<text text-anchor="middle" x="223.5" y="-91" font-family="Helvetica,sans-Serif" font-size="10.00">/mrac/mrac.cpp</text>
</a>
</g>
</g>
<!-- Node3&#45;&gt;Node12 -->
<g id="edge23" class="edge">
<title>Node3&#45;&gt;Node12</title>
<path fill="none" stroke="midnightblue" d="M374.66,-347.35C339.41,-292.24 270.78,-184.93 239.61,-136.18"/>
<polygon fill="midnightblue" stroke="midnightblue" points="371.89,-349.51 380.22,-356.05 377.79,-345.74 371.89,-349.51"/>
</g>
<!-- Node4&#45;&gt;Node5 -->
<g id="edge4" class="edge">
<title>Node4&#45;&gt;Node5</title>
<path fill="none" stroke="midnightblue" d="M555.83,-280.53C687.37,-263.47 926.64,-232.45 1052.34,-216.15"/>
<polygon fill="midnightblue" stroke="midnightblue" points="555.24,-277.08 545.78,-281.83 556.14,-284.02 555.24,-277.08"/>
</g>
<!-- Node8 -->
<g id="node8" class="node">
<title>Node8</title>
<g id="a_node8"><a xlink:href="config_8cpp.html" target="_top" xlink:title="Contains the functions that reads the configuration parameters and assigns it to the members of the C...">
<polygon fill="white" stroke="black" points="310,-84 310,-136 447,-136 447,-84 310,-84"/>
<text text-anchor="start" x="318" y="-124" font-family="Helvetica,sans-Serif" font-size="10.00">/mnt/c/Users/siddh</text>
<text text-anchor="start" x="318" y="-113" font-family="Helvetica,sans-Serif" font-size="10.00">/OneDrive/Desktop/ACSL</text>
<text text-anchor="start" x="318" y="-102" font-family="Helvetica,sans-Serif" font-size="10.00">&#45;flightstack/src/config</text>
<text text-anchor="middle" x="378.5" y="-91" font-family="Helvetica,sans-Serif" font-size="10.00">/config.cpp</text>
</a>
</g>
</g>
<!-- Node4&#45;&gt;Node8 -->
<g id="edge20" class="edge">
<title>Node4&#45;&gt;Node8</title>
<path fill="none" stroke="midnightblue" d="M420.51,-260.33C411.63,-251.74 403.25,-241.8 397.5,-231 381.65,-201.2 378.19,-161.78 377.83,-136.4"/>
<polygon fill="midnightblue" stroke="midnightblue" points="418.3,-263.05 428.04,-267.23 423.03,-257.89 418.3,-263.05"/>
</g>
<!-- Node21 -->
<g id="node21" class="node">
<title>Node21</title>
<g id="a_node21"><a xlink:href="logging__mocap_8cpp.html" target="_top" xlink:title="Logger for the motion capture (MOCAP) system.">
<polygon fill="white" stroke="black" points="407,-178.5 407,-230.5 544,-230.5 544,-178.5 407,-178.5"/>
<text text-anchor="start" x="415" y="-218.5" font-family="Helvetica,sans-Serif" font-size="10.00">/mnt/c/Users/siddh</text>
<text text-anchor="start" x="415" y="-207.5" font-family="Helvetica,sans-Serif" font-size="10.00">/OneDrive/Desktop/ACSL</text>
<text text-anchor="start" x="415" y="-196.5" font-family="Helvetica,sans-Serif" font-size="10.00">&#45;flightstack/src/logging</text>
<text text-anchor="middle" x="475.5" y="-185.5" font-family="Helvetica,sans-Serif" font-size="10.00">/logging_mocap.cpp</text>
</a>
</g>
</g>
<!-- Node4&#45;&gt;Node21 -->
<g id="edge21" class="edge">
<title>Node4&#45;&gt;Node21</title>
<path fill="none" stroke="midnightblue" d="M468.37,-257.19C469.6,-248.28 470.89,-238.9 472.04,-230.61"/>
<polygon fill="midnightblue" stroke="midnightblue" points="464.87,-256.95 466.97,-267.34 471.8,-257.91 464.87,-256.95"/>
</g>
<!-- Node6 -->
<g id="node6" class="node">
<title>Node6</title>
<g id="a_node6"><a xlink:href="main_8hpp.html" target="_top" xlink:title="Main file.">
<polygon fill="white" stroke="black" points="801.5,-84 801.5,-136 965.5,-136 965.5,-84 801.5,-84"/>
<text text-anchor="start" x="809.5" y="-124" font-family="Helvetica,sans-Serif" font-size="10.00">/mnt/c/Users/siddh</text>
<text text-anchor="start" x="809.5" y="-113" font-family="Helvetica,sans-Serif" font-size="10.00">/OneDrive/Desktop/ACSL</text>
<text text-anchor="start" x="809.5" y="-102" font-family="Helvetica,sans-Serif" font-size="10.00">&#45;flightstack/include/flightstack</text>
<text text-anchor="middle" x="883.5" y="-91" font-family="Helvetica,sans-Serif" font-size="10.00">/main.hpp</text>
</a>
</g>
</g>
<!-- Node5&#45;&gt;Node6 -->
<g id="edge5" class="edge">
<title>Node5&#45;&gt;Node6</title>
<path fill="none" stroke="midnightblue" d="M1056.77,-174.85C1023.08,-162.44 983.99,-148.03 951.48,-136.05"/>
<polygon fill="midnightblue" stroke="midnightblue" points="1055.98,-178.29 1066.58,-178.47 1058.4,-171.73 1055.98,-178.29"/>
</g>
<!-- Node5&#45;&gt;Node8 -->
<g id="edge7" class="edge">
<title>Node5&#45;&gt;Node8</title>
<path fill="none" stroke="midnightblue" d="M1042.34,-203.48C910.64,-201.58 661.82,-191.02 456.5,-142 449.84,-140.41 442.99,-138.36 436.26,-136.07"/>
<polygon fill="midnightblue" stroke="midnightblue" points="1042.35,-206.98 1052.4,-203.61 1042.44,-199.98 1042.35,-206.98"/>
</g>
<!-- Node5&#45;&gt;Node9 -->
<g id="edge8" class="edge">
<title>Node5&#45;&gt;Node9</title>
<path fill="none" stroke="midnightblue" d="M1226.86,-199.5C1329.85,-193.4 1500.75,-178.34 1643.5,-142 1650,-140.35 1656.68,-138.29 1663.26,-136.02"/>
<polygon fill="midnightblue" stroke="midnightblue" points="1226.58,-196.01 1216.8,-200.08 1226.98,-203 1226.58,-196.01"/>
</g>
<!-- Node5&#45;&gt;Node10 -->
<g id="edge9" class="edge">
<title>Node5&#45;&gt;Node10</title>
<path fill="none" stroke="midnightblue" d="M1226.9,-203.36C1356.62,-201.28 1599.26,-190.47 1799.5,-142 1806.08,-140.41 1812.84,-138.35 1819.5,-136.06"/>
<polygon fill="midnightblue" stroke="midnightblue" points="1226.56,-199.87 1216.62,-203.51 1226.67,-206.87 1226.56,-199.87"/>
</g>
<!-- Node5&#45;&gt;Node11 -->
<g id="edge10" class="edge">
<title>Node5&#45;&gt;Node11</title>
<path fill="none" stroke="midnightblue" d="M1042.13,-199.44C813.12,-189.15 231.43,-161.44 145.5,-142 138.75,-140.47 131.83,-138.43 125.03,-136.12"/>
<polygon fill="midnightblue" stroke="midnightblue" points="1042.29,-202.95 1052.43,-199.91 1042.6,-195.96 1042.29,-202.95"/>
</g>
<!-- Node5&#45;&gt;Node12 -->
<g id="edge11" class="edge">
<title>Node5&#45;&gt;Node12</title>
<path fill="none" stroke="midnightblue" d="M1042.13,-200.28C855.46,-193.19 439.28,-174.23 300.5,-142 293.76,-140.44 286.84,-138.37 280.05,-136.04"/>
<polygon fill="midnightblue" stroke="midnightblue" points="1042.07,-203.78 1052.2,-200.66 1042.34,-196.79 1042.07,-203.78"/>
</g>
<!-- Node13 -->
<g id="node13" class="node">
<title>Node13</title>
<g id="a_node13"><a xlink:href="logging__pid_8cpp.html" target="_top" xlink:title="Logger for the PID controller.">
<polygon fill="white" stroke="black" points="1963,-84 1963,-136 2100,-136 2100,-84 1963,-84"/>
<text text-anchor="start" x="1971" y="-124" font-family="Helvetica,sans-Serif" font-size="10.00">/mnt/c/Users/siddh</text>
<text text-anchor="start" x="1971" y="-113" font-family="Helvetica,sans-Serif" font-size="10.00">/OneDrive/Desktop/ACSL</text>
<text text-anchor="start" x="1971" y="-102" font-family="Helvetica,sans-Serif" font-size="10.00">&#45;flightstack/src/control</text>
<text text-anchor="middle" x="2031.5" y="-91" font-family="Helvetica,sans-Serif" font-size="10.00">/pid/logging_pid.cpp</text>
</a>
</g>
</g>
<!-- Node5&#45;&gt;Node13 -->
<g id="edge12" class="edge">
<title>Node5&#45;&gt;Node13</title>
<path fill="none" stroke="midnightblue" d="M1226.98,-200.14C1411.31,-192.86 1818.47,-173.68 1954.5,-142 1961.24,-140.43 1968.15,-138.36 1974.95,-136.03"/>
<polygon fill="midnightblue" stroke="midnightblue" points="1226.62,-196.65 1216.76,-200.54 1226.89,-203.65 1226.62,-196.65"/>
</g>
<!-- Node14 -->
<g id="node14" class="node">
<title>Node14</title>
<g id="a_node14"><a xlink:href="pid_8cpp.html" target="_top" xlink:title="Immplementation of the PID controller.">
<polygon fill="white" stroke="black" points="2118,-84 2118,-136 2255,-136 2255,-84 2118,-84"/>
<text text-anchor="start" x="2126" y="-124" font-family="Helvetica,sans-Serif" font-size="10.00">/mnt/c/Users/siddh</text>
<text text-anchor="start" x="2126" y="-113" font-family="Helvetica,sans-Serif" font-size="10.00">/OneDrive/Desktop/ACSL</text>
<text text-anchor="start" x="2126" y="-102" font-family="Helvetica,sans-Serif" font-size="10.00">&#45;flightstack/src/control</text>
<text text-anchor="middle" x="2186.5" y="-91" font-family="Helvetica,sans-Serif" font-size="10.00">/pid/pid.cpp</text>
</a>
</g>
</g>
<!-- Node5&#45;&gt;Node14 -->
<g id="edge13" class="edge">
<title>Node5&#45;&gt;Node14</title>
<path fill="none" stroke="midnightblue" d="M1226.9,-201.43C1436.6,-196.11 1943.19,-179.69 2109.5,-142 2116.25,-140.47 2123.17,-138.43 2129.97,-136.11"/>
<polygon fill="midnightblue" stroke="midnightblue" points="1226.75,-197.93 1216.84,-201.68 1226.92,-204.93 1226.75,-197.93"/>
</g>
<!-- Node15 -->
<g id="node15" class="node">
<title>Node15</title>
<g id="a_node15"><a xlink:href="multi__threaded__node_8cpp.html" target="_top" xlink:title="Multithreaded ROS2 ndoe that joins together all the flight stakc components.">
<polygon fill="white" stroke="black" points="984,-84 984,-136 1121,-136 1121,-84 984,-84"/>
<text text-anchor="start" x="992" y="-124" font-family="Helvetica,sans-Serif" font-size="10.00">/mnt/c/Users/siddh</text>
<text text-anchor="start" x="992" y="-113" font-family="Helvetica,sans-Serif" font-size="10.00">/OneDrive/Desktop/ACSL</text>
<text text-anchor="start" x="992" y="-102" font-family="Helvetica,sans-Serif" font-size="10.00">&#45;flightstack/src/multi</text>
<text text-anchor="middle" x="1052.5" y="-91" font-family="Helvetica,sans-Serif" font-size="10.00">_threaded_node.cpp</text>
</a>
</g>
</g>
<!-- Node5&#45;&gt;Node15 -->
<g id="edge14" class="edge">
<title>Node5&#45;&gt;Node15</title>
<path fill="none" stroke="midnightblue" d="M1105.35,-170.62C1095.33,-159.32 1084.28,-146.85 1074.88,-136.25"/>
<polygon fill="midnightblue" stroke="midnightblue" points="1102.84,-173.06 1112.09,-178.22 1108.08,-168.42 1102.84,-173.06"/>
</g>
<!-- Node16 -->
<g id="node16" class="node">
<title>Node16</title>
<g id="a_node16"><a xlink:href="pixhawk__actuator__motors_8cpp.html" target="_top" xlink:title="Callback that is executed at a fixed specified rate defined by the &quot;timer_controller_&quot;.">
<polygon fill="white" stroke="black" points="1139,-78.5 1139,-141.5 1294,-141.5 1294,-78.5 1139,-78.5"/>
<text text-anchor="start" x="1147" y="-129.5" font-family="Helvetica,sans-Serif" font-size="10.00">/mnt/c/Users/siddh</text>
<text text-anchor="start" x="1147" y="-118.5" font-family="Helvetica,sans-Serif" font-size="10.00">/OneDrive/Desktop/ACSL</text>
<text text-anchor="start" x="1147" y="-107.5" font-family="Helvetica,sans-Serif" font-size="10.00">&#45;flightstack/src/pixhawk</text>
<text text-anchor="start" x="1147" y="-96.5" font-family="Helvetica,sans-Serif" font-size="10.00">_interface/pixhawk_actuator</text>
<text text-anchor="middle" x="1216.5" y="-85.5" font-family="Helvetica,sans-Serif" font-size="10.00">_motors.cpp</text>
</a>
</g>
</g>
<!-- Node5&#45;&gt;Node16 -->
<g id="edge15" class="edge">
<title>Node5&#45;&gt;Node16</title>
<path fill="none" stroke="midnightblue" d="M1163.74,-170.51C1172.12,-161.06 1181.21,-150.81 1189.45,-141.51"/>
<polygon fill="midnightblue" stroke="midnightblue" points="1160.92,-168.42 1156.91,-178.22 1166.16,-173.06 1160.92,-168.42"/>
</g>
<!-- Node17 -->
<g id="node17" class="node">
<title>Node17</title>
<g id="a_node17"><a xlink:href="pixhawk__vehicle__odometry_8cpp.html" target="_top" xlink:title="Callback that is executed everytime a VehicleOdometry message is made available by Pixhawk.">
<polygon fill="white" stroke="black" points="1312.5,-78.5 1312.5,-141.5 1462.5,-141.5 1462.5,-78.5 1312.5,-78.5"/>
<text text-anchor="start" x="1320.5" y="-129.5" font-family="Helvetica,sans-Serif" font-size="10.00">/mnt/c/Users/siddh</text>
<text text-anchor="start" x="1320.5" y="-118.5" font-family="Helvetica,sans-Serif" font-size="10.00">/OneDrive/Desktop/ACSL</text>
<text text-anchor="start" x="1320.5" y="-107.5" font-family="Helvetica,sans-Serif" font-size="10.00">&#45;flightstack/src/pixhawk</text>
<text text-anchor="start" x="1320.5" y="-96.5" font-family="Helvetica,sans-Serif" font-size="10.00">_interface/pixhawk_vehicle</text>
<text text-anchor="middle" x="1387.5" y="-85.5" font-family="Helvetica,sans-Serif" font-size="10.00">_odometry.cpp</text>
</a>
</g>
</g>
<!-- Node5&#45;&gt;Node17 -->
<g id="edge16" class="edge">
<title>Node5&#45;&gt;Node17</title>
<path fill="none" stroke="midnightblue" d="M1212.65,-174.93C1244.38,-163.33 1280.89,-149.98 1312.31,-138.49"/>
<polygon fill="midnightblue" stroke="midnightblue" points="1211.16,-171.75 1202.97,-178.47 1213.56,-178.32 1211.16,-171.75"/>
</g>
<!-- Node18 -->
<g id="node18" class="node">
<title>Node18</title>
<g id="a_node18"><a xlink:href="vehicle__state_8cpp.html" target="_top" xlink:title="Class storing the state of the vehicle coming from the flight controller (Pixhawk)">
<polygon fill="white" stroke="black" points="1480.5,-84 1480.5,-136 1634.5,-136 1634.5,-84 1480.5,-84"/>
<text text-anchor="start" x="1488.5" y="-124" font-family="Helvetica,sans-Serif" font-size="10.00">/mnt/c/Users/siddh</text>
<text text-anchor="start" x="1488.5" y="-113" font-family="Helvetica,sans-Serif" font-size="10.00">/OneDrive/Desktop/ACSL</text>
<text text-anchor="start" x="1488.5" y="-102" font-family="Helvetica,sans-Serif" font-size="10.00">&#45;flightstack/src/pixhawk</text>
<text text-anchor="middle" x="1557.5" y="-91" font-family="Helvetica,sans-Serif" font-size="10.00">_interface/vehicle_state.cpp</text>
</a>
</g>
</g>
<!-- Node5&#45;&gt;Node18 -->
<g id="edge17" class="edge">
<title>Node5&#45;&gt;Node18</title>
<path fill="none" stroke="midnightblue" d="M1227.01,-190.84C1295.24,-180.48 1389.98,-163.97 1471.5,-142 1477.94,-140.27 1484.58,-138.27 1491.18,-136.13"/>
<polygon fill="midnightblue" stroke="midnightblue" points="1226.09,-187.44 1216.72,-192.39 1227.13,-194.36 1226.09,-187.44"/>
</g>
<!-- Node19 -->
<g id="node19" class="node">
<title>Node19</title>
<g id="a_node19"><a xlink:href="piecewise__polynomial__trajectory_8cpp.html" target="_top" xlink:title="Piecewise polynomial minimu&#45;jerk trajectory computed offline through a MATLAB script.">
<polygon fill="white" stroke="black" points="465.5,-78.5 465.5,-141.5 627.5,-141.5 627.5,-78.5 465.5,-78.5"/>
<text text-anchor="start" x="473.5" y="-129.5" font-family="Helvetica,sans-Serif" font-size="10.00">/mnt/c/Users/siddh</text>
<text text-anchor="start" x="473.5" y="-118.5" font-family="Helvetica,sans-Serif" font-size="10.00">/OneDrive/Desktop/ACSL</text>
<text text-anchor="start" x="473.5" y="-107.5" font-family="Helvetica,sans-Serif" font-size="10.00">&#45;flightstack/src/user</text>
<text text-anchor="start" x="473.5" y="-96.5" font-family="Helvetica,sans-Serif" font-size="10.00">_defined_trajectory/piecewise</text>
<text text-anchor="middle" x="546.5" y="-85.5" font-family="Helvetica,sans-Serif" font-size="10.00">_polynomial_trajectory.cpp</text>
</a>
</g>
</g>
<!-- Node5&#45;&gt;Node19 -->
<g id="edge18" class="edge">
<title>Node5&#45;&gt;Node19</title>
<path fill="none" stroke="midnightblue" d="M1041.92,-197.87C941.15,-190.4 775.79,-174.22 636.5,-142 633.6,-141.33 630.67,-140.6 627.71,-139.82"/>
<polygon fill="midnightblue" stroke="midnightblue" points="1041.84,-201.37 1052.07,-198.61 1042.35,-194.39 1041.84,-201.37"/>
</g>
<!-- Node20 -->
<g id="node20" class="node">
<title>Node20</title>
<g id="a_node20"><a xlink:href="user__defined__trajectory_8cpp.html" target="_top" xlink:title="Class that contains the common members that each type of user&#45;defined trajectory class will inherit.">
<polygon fill="white" stroke="black" points="646,-78.5 646,-141.5 783,-141.5 783,-78.5 646,-78.5"/>
<text text-anchor="start" x="654" y="-129.5" font-family="Helvetica,sans-Serif" font-size="10.00">/mnt/c/Users/siddh</text>
<text text-anchor="start" x="654" y="-118.5" font-family="Helvetica,sans-Serif" font-size="10.00">/OneDrive/Desktop/ACSL</text>
<text text-anchor="start" x="654" y="-107.5" font-family="Helvetica,sans-Serif" font-size="10.00">&#45;flightstack/src/user</text>
<text text-anchor="start" x="654" y="-96.5" font-family="Helvetica,sans-Serif" font-size="10.00">_defined_trajectory/user</text>
<text text-anchor="middle" x="714.5" y="-85.5" font-family="Helvetica,sans-Serif" font-size="10.00">_defined_trajectory.cpp</text>
</a>
</g>
</g>
<!-- Node5&#45;&gt;Node20 -->
<g id="edge19" class="edge">
<title>Node5&#45;&gt;Node20</title>
<path fill="none" stroke="midnightblue" d="M1042.21,-192.02C972.73,-182.15 875.57,-165.72 792.5,-142 789.42,-141.12 786.29,-140.16 783.14,-139.15"/>
<polygon fill="midnightblue" stroke="midnightblue" points="1041.87,-195.5 1052.26,-193.43 1042.84,-188.57 1041.87,-195.5"/>
</g>
<!-- Node7 -->
<g id="node7" class="node">
<title>Node7</title>
<g id="a_node7"><a xlink:href="main_8cpp.html" target="_top" xlink:title="FlightStack (Multirotor) main.cpp file.">
<polygon fill="white" stroke="black" points="815,-0.5 815,-41.5 952,-41.5 952,-0.5 815,-0.5"/>
<text text-anchor="start" x="823" y="-29.5" font-family="Helvetica,sans-Serif" font-size="10.00">/mnt/c/Users/siddh</text>
<text text-anchor="start" x="823" y="-18.5" font-family="Helvetica,sans-Serif" font-size="10.00">/OneDrive/Desktop/ACSL</text>
<text text-anchor="middle" x="883.5" y="-7.5" font-family="Helvetica,sans-Serif" font-size="10.00">&#45;flightstack/src/main.cpp</text>
</a>
</g>
</g>
<!-- Node6&#45;&gt;Node7 -->
<g id="edge6" class="edge">
<title>Node6&#45;&gt;Node7</title>
<path fill="none" stroke="midnightblue" d="M883.5,-73.66C883.5,-62.71 883.5,-51.05 883.5,-41.58"/>
<polygon fill="midnightblue" stroke="midnightblue" points="880,-73.84 883.5,-83.84 887,-73.84 880,-73.84"/>
</g>
<!-- Node22&#45;&gt;Node13 -->
<g id="edge25" class="edge">
<title>Node22&#45;&gt;Node13</title>
<path fill="none" stroke="midnightblue" d="M2031.5,-167.99C2031.5,-157.41 2031.5,-146.03 2031.5,-136.25"/>
<polygon fill="midnightblue" stroke="midnightblue" points="2028,-168.22 2031.5,-178.22 2035,-168.22 2028,-168.22"/>
</g>
<!-- Node22&#45;&gt;Node14 -->
<g id="edge26" class="edge">
<title>Node22&#45;&gt;Node14</title>
<path fill="none" stroke="midnightblue" d="M2082.2,-173.24C2102.37,-161.21 2125.3,-147.52 2144.52,-136.05"/>
<polygon fill="midnightblue" stroke="midnightblue" points="2080.24,-170.34 2073.45,-178.47 2083.83,-176.35 2080.24,-170.34"/>
</g>
</g>
</svg>
